<svg xmlns="http://www.w3.org/2000/svg" viewBox="0 0 700 150"><path fill="#d7ffff" d="M0 0h700v150H0z" data-name="Ebene 1"/><g data-name="Ebene 3"><path d="M19.88 101.7a2.91 2.91 0 0 1 .06-.72L38.66 41a2.38 2.38 0 0 1 2.28-1.68A2.53 2.53 0 0 1 43.22 41l18.66 60a3 3 0 0 1 .12.72 2.4 2.4 0 0 1-2.4 2.4 2.38 2.38 0 0 1-2.28-1.68L48.5 74.1H33.38l-8.82 28.32a2.45 2.45 0 0 1-2.34 1.68 2.35 2.35 0 0 1-2.34-2.4zm21.06-51.9l-6.12 19.5H47zM116.3 71.7v30a2.4 2.4 0 1 1-4.8 0v-4.2l-5.88 5.88a2.47 2.47 0 0 1-1.68.72h-17.4a2.56 2.56 0 0 1-1.68-.72l-10-10a2.54 2.54 0 0 1-.66-1.74v-10a2.68 2.68 0 0 1 .65-1.64l10-10a2.48 2.48 0 0 1 1.68-.72h17.4a2.56 2.56 0 0 1 1.68.72l5.88 5.88V71.7a2.4 2.4 0 0 1 4.8 0zm-13.38 2.4H87.56L79 82.68v8l8.58 8.58h15.36l8.58-8.58v-8zM133.92 41.7a2.53 2.53 0 0 1 2.4-2.4h27.36a2.56 2.56 0 0 1 1.68.72l10 10a2.61 2.61 0 0 1 .72 1.74v10a2.72 2.72 0 0 1-.72 1.74l-8.28 8.28 8.29 8.22a2.62 2.62 0 0 1 .72 1.74v10a2.72 2.72 0 0 1-.72 1.74l-10 10a2.47 2.47 0 0 1-1.68.72h-27.37a2.41 2.41 0 0 1-2.4-2.4zm37.38 19v-8l-8.58-8.58h-24V69.3h24zm-32.58 13.4v25.2h24l8.58-8.58v-8l-8.58-8.58zM197.15 41.7v34.2l5.94-5.9a2.56 2.56 0 0 1 1.68-.72h17.34a2.48 2.48 0 0 1 1.68.72l10 10a2.55 2.55 0 0 1 .72 1.74v10a2.61 2.61 0 0 1-.72 1.74l-10 10a2.56 2.56 0 0 1-1.68.72h-17.34a2.47 2.47 0 0 1-1.68-.72l-5.94-5.88v4.2a2.4 2.4 0 1 1-4.8 0v-60a2.4 2.4 0 0 1 4.8 0zm24 32.4h-15.42l-8.58 8.58v8l8.58 8.58h15.42l8.58-8.58v-8zM292.34 91.68a2.5 2.5 0 0 1-.72 1.74l-10 10a2.61 2.61 0 0 1-1.74.72h-17.3a2.56 2.56 0 0 1-1.68-.72l-10-10a2.62 2.62 0 0 1-.72-1.74v-40a2.72 2.72 0 0 1 .72-1.74l10-10a2.48 2.48 0 0 1 1.68-.72h17.34a2.72 2.72 0 0 1 1.74.72l10 10a2.5 2.5 0 0 1 .72 1.74 2.41 2.41 0 0 1-2.4 2.4 2.37 2.37 0 0 1-1.68-.72L279 44.1h-15.4l-8.6 8.58v38l8.64 8.58H279l9.3-9.3a2.37 2.37 0 0 1 1.68-.72 2.41 2.41 0 0 1 2.36 2.44zM346.69 84.12a2.37 2.37 0 0 1-1.69-.72l-9.3-9.3h-15.35l-8.58 8.58v8l8.58 8.58h15.36L345 90a2.37 2.37 0 0 1 1.68-.72 2.41 2.41 0 0 1 2.4 2.4 2.44 2.44 0 0 1-.66 1.74l-10 10a2.56 2.56 0 0 1-1.68.72h-17.4a2.47 2.47 0 0 1-1.68-.72l-10-10a2.68 2.68 0 0 1-.66-1.74v-10a2.54 2.54 0 0 1 .66-1.74l10-10a2.56 2.56 0 0 1 1.68-.72h17.4a2.48 2.48 0 0 1 1.68.72l10 10a2.44 2.44 0 0 1 .66 1.74 2.41 2.41 0 0 1-2.39 2.44zM365.27 41.7a2.53 2.53 0 0 1 2.4-2.4H395a2.55 2.55 0 0 1 1.68.72l10 10a2.61 2.61 0 0 1 .72 1.74v40a2.72 2.72 0 0 1-.72 1.74l-10 10a2.47 2.47 0 0 1-1.68.72h-27.33a2.45 2.45 0 0 1-2.4-2.4zm28.8 57.6l8.58-8.58v-38l-8.58-8.58h-24V99.3zM465.22 41.7v60a2.4 2.4 0 1 1-4.8 0v-4.2l-5.88 5.88a2.56 2.56 0 0 1-1.68.72h-17.4a2.48 2.48 0 0 1-1.68-.72l-10-10a2.68 2.68 0 0 1-.66-1.74v-10a2.54 2.54 0 0 1 .66-1.74l10-10a2.56 2.56 0 0 1 1.68-.72h17.4a2.48 2.48 0 0 1 1.68.72l5.88 5.88V41.7a2.4 2.4 0 1 1 4.8 0zm-13.38 32.4h-15.36l-8.58 8.58v8l8.58 8.58h15.36l8.58-8.58v-8zM522.61 104.1h-37.38a2.45 2.45 0 0 1-2.4-2.4v-60a2.45 2.45 0 0 1 2.4-2.4h37.38a2.4 2.4 0 1 1 0 4.8h-35v25.2h35a2.4 2.4 0 1 1 0 4.8h-35v25.2h35a2.4 2.4 0 1 1 0 4.8zM578.36 91.68a2.44 2.44 0 0 1-.66 1.74l-10 10a2.55 2.55 0 0 1-1.68.72H548.6a2.47 2.47 0 0 1-1.68-.72l-10-10a2.68 2.68 0 0 1-.66-1.74v-10a2.68 2.68 0 0 1 .64-1.68l10-10a2.56 2.56 0 0 1 1.68-.72H566a2.47 2.47 0 0 1 1.68.72l10 10a2.4 2.4 0 0 1 .66 1.74 2.33 2.33 0 0 1-2.4 2.4H541v6.6l8.58 8.58H565l9.3-9.3a2.37 2.37 0 0 1 1.68-.72 2.41 2.41 0 0 1 2.38 2.38zM565 74.1h-15.38l-5.22 5.22h25.8zM594.54 101.7v-60a2.45 2.45 0 0 1 2.4-2.4h37.38a2.4 2.4 0 1 1 0 4.8h-35v25.2h35a2.4 2.4 0 1 1 0 4.8h-35v27.6a2.4 2.4 0 1 1-4.8 0zM666.64 41.7a2.37 2.37 0 0 1-.72 1.68l-9.3 9.3V69.3h7.62a2.4 2.4 0 0 1 0 4.8h-7.62v27.6a2.4 2.4 0 1 1-4.8 0v-50a2.62 2.62 0 0 1 .72-1.74l10-10a2.37 2.37 0 0 1 1.68-.72 2.41 2.41 0 0 1 2.42 2.46z"/></g></svg>