<svg xmlns="http://www.w3.org/2000/svg" viewBox="0 0 700 150"><path fill="#d7ffff" d="M0 0h700v150H0z" data-name="Ebene 1"/><g data-name="Ebene 3"><path d="M18.08 101.7a4.56 4.56 0 0 1 .18-1.26l18.66-60a4.12 4.12 0 0 1 4-2.88 4.4 4.4 0 0 1 4 2.88l18.66 60a4.56 4.56 0 0 1 .18 1.26 4.15 4.15 0 0 1-8.1 1.26L47.18 75.9H34.64l-8.4 27.1a4.18 4.18 0 0 1-8.16-1.26zm22.86-46l-3.66 11.8h7.32zM118.49 71.7v30a4.17 4.17 0 0 1-8.34.06l-2.88 2.88a4.6 4.6 0 0 1-2.94 1.26h-17.4a4.43 4.43 0 0 1-2.93-1.26l-10-10a4.6 4.6 0 0 1-1.26-2.94v-10A4.43 4.43 0 0 1 74 78.78l10-10a4.59 4.59 0 0 1 2.94-1.26h17.4a4.43 4.43 0 0 1 2.94 1.26l2.88 2.88a4.17 4.17 0 0 1 8.34.06zm-15.9 4.2H88.67l-7.56 7.5V90l7.56 7.5h13.92l7.56-7.5v-6.6zM132.85 41.7a4.36 4.36 0 0 1 4.15-4.2h27.36a4.43 4.43 0 0 1 2.94 1.26l10 10a4.52 4.52 0 0 1 1.2 2.94v10a4.38 4.38 0 0 1-1.2 2.94l-7.08 7.08 7.08 7.08a4.52 4.52 0 0 1 1.2 2.94v10a4.38 4.38 0 0 1-1.2 2.94l-10 10a4.6 4.6 0 0 1-2.94 1.26H137a4.2 4.2 0 0 1-4.14-4.2zM170.17 60v-6.6l-7.56-7.5h-21.42v21.6h21.42zm-29 15.9v21.6h21.42l7.56-7.5v-6.6l-7.56-7.5zM200 41.7v29.94l2.88-2.88a4.43 4.43 0 0 1 2.94-1.26h17.34a4.59 4.59 0 0 1 2.94 1.26l10 10a4.18 4.18 0 0 1 1.2 2.94v10a4.52 4.52 0 0 1-1.2 2.94l-10 10a4.43 4.43 0 0 1-2.94 1.26H205.8a4.6 4.6 0 0 1-2.94-1.26l-2.86-2.88a4.28 4.28 0 0 1-4.2 4.14 4.2 4.2 0 0 1-4.14-4.2v-60a4.2 4.2 0 0 1 4.14-4.2 4.25 4.25 0 0 1 4.2 4.2zm21.4 34.2h-13.86L200 83.4V90l7.56 7.5h13.84L229 90v-6.6zM295.35 91.68a4.18 4.18 0 0 1-1.2 2.94l-10 10a4.6 4.6 0 0 1-2.94 1.26h-17.35a4.43 4.43 0 0 1-2.94-1.26l-10-10a4.52 4.52 0 0 1-1.2-2.94v-40a4.38 4.38 0 0 1 1.2-2.94l10-10a4.6 4.6 0 0 1 2.94-1.26h17.34a4.43 4.43 0 0 1 2.94 1.26l10 10a4.16 4.16 0 0 1-5.88 5.88l-8.76-8.76h-13.9L258 53.4V90l7.56 7.5h13.92l8.76-8.76a4.16 4.16 0 0 1 7.08 2.94zM348.25 85.86a4.18 4.18 0 0 1-2.94-1.2l-8.76-8.76h-13.92l-7.56 7.5V90l7.56 7.5h13.92l8.76-8.76a4.16 4.16 0 0 1 5.88 5.88l-10 10a4.43 4.43 0 0 1-2.94 1.26h-17.4a4.6 4.6 0 0 1-2.94-1.26l-10-10a4.43 4.43 0 0 1-1.26-2.94v-10a4.6 4.6 0 0 1 1.35-2.9l10-10a4.43 4.43 0 0 1 2.94-1.26h17.4a4.6 4.6 0 0 1 2.94 1.26l10 10a4.16 4.16 0 0 1-2.94 7.08zM365.34 41.7a4.36 4.36 0 0 1 4.14-4.2h27.36a4.43 4.43 0 0 1 2.94 1.26l10 10a4.52 4.52 0 0 1 1.2 2.94v40a4.38 4.38 0 0 1-1.2 2.94l-10 10a4.59 4.59 0 0 1-2.94 1.26h-27.36a4.28 4.28 0 0 1-4.14-4.2zm29.76 55.8l7.56-7.5V53.4l-7.56-7.5h-21.42v51.6zM469.11 41.7v60a4.17 4.17 0 0 1-8.34.06l-2.88 2.88a4.43 4.43 0 0 1-2.89 1.26h-17.4a4.6 4.6 0 0 1-2.94-1.26l-10-10a4.43 4.43 0 0 1-1.26-2.94v-10a4.59 4.59 0 0 1 1.26-2.94l10-10a4.43 4.43 0 0 1 2.94-1.26H455a4.59 4.59 0 0 1 2.94 1.26l2.88 2.88V41.7a4.2 4.2 0 0 1 4.14-4.2 4.25 4.25 0 0 1 4.15 4.2zm-15.9 34.2h-13.92l-7.56 7.5V90l7.56 7.5h13.92l7.56-7.5v-6.6zM525 105.9h-37.39a4.28 4.28 0 0 1-4.14-4.2v-60a4.28 4.28 0 0 1 4.14-4.2H525a4.2 4.2 0 0 1 0 8.4h-33.19v21.6H525a4.2 4.2 0 0 1 0 8.4h-33.19v21.6H525a4.2 4.2 0 0 1 0 8.4zM583.39 91.68a4.18 4.18 0 0 1-1.2 2.94l-10 10a4.43 4.43 0 0 1-2.94 1.26h-17.4a4.59 4.59 0 0 1-2.94-1.26l-10-10a4.43 4.43 0 0 1-1.26-2.94v-10a4.43 4.43 0 0 1 1.35-2.9l10-10a4.43 4.43 0 0 1 2.94-1.26h17.4a4.6 4.6 0 0 1 2.94 1.26l10 10a4.12 4.12 0 0 1-2.94 7.08h-33.27V90l7.56 7.5h13.92l8.76-8.76a4.16 4.16 0 0 1 7.08 2.94zM567.55 75.9h-13.92L552 77.52h17.16zM596.37 101.7v-60a4.28 4.28 0 0 1 4.14-4.2h37.38a4.2 4.2 0 0 1 0 8.4h-33.18v21.6h33.18a4.2 4.2 0 0 1 0 8.4h-33.18v25.8a4.25 4.25 0 0 1-4.2 4.2 4.2 4.2 0 0 1-4.14-4.2zM672.21 41.7a4.18 4.18 0 0 1-1.2 2.94l-8.76 8.76v14.1h5.82a4.2 4.2 0 1 1 0 8.4h-5.82v25.8a4.25 4.25 0 0 1-4.2 4.2 4.2 4.2 0 0 1-4.14-4.2v-50a4.52 4.52 0 0 1 1.2-2.94l10-10a4.16 4.16 0 0 1 7.08 2.94z"/></g></svg>