<svg xmlns="http://www.w3.org/2000/svg" viewBox="0 0 700 150"><path fill="#d7ffff" d="M0 0h700v150H0z" data-name="Ebene 1"/><g data-name="Ebene 3"><path d="M61.94 101.1l-4.68 1.2-9.26-30H33.5l-8.94 28.8-4.62 1.2 18.66-60 4.62-1.2q9.36 29.97 18.72 60zm-28-30h13.6l-6.78-22zM105.22 71.1l6.48 5.82V72.3l4.62-1.2v30l-4.62 1.2v-7l-6.48 5.82-4.68 1.2H85.42l-11.1-10v-10l11.1-10L90 71.1zm6.48 21.24v-10l-11.16-10H88.66l-9.72 8.76v10l11.1 10h11.88zM165.05 41.1l11.1 10v10l-11.1 10 11.1 10v10l-11.1 10-4.62 1.2h-26.22v-60l4.62-1.2zm-26.22 30h23l9.72-8.76v-10l-11.1-10h-21.6zm0 1.2v28.8h23l9.72-8.76v-10l-11.1-10zM234.55 91.08l-11.1 10-4.62 1.2h-15.12l-6.48-5.82v4.62l-4.62 1.2v-60l4.62-1.2v37l6.48-5.82 4.62-1.2h15.12l11.1 10zm-4.62 1.26v-10l-11.1-10H207l-9.72 8.76v10l11.1 10h11.88zM287.68 92.34l4.68-1.26-11.1 10-4.68 1.2h-15.12l-11.1-10v-40l11.1-10 4.62-1.2h15.18l11.1 10-4.68 1.26-11.1-10H264.7l-9.7 8.72v40l11.1 10H278zM333.34 72.3h-11.88l-9.72 8.76v10l11.1 10h11.88l9.78-8.76 4.62-1.26-11.1 10-4.68 1.2h-15.12l-11.1-10v-10l11.1-10 4.62-1.2H338l11.1 10-4.62 1.26zM365.45 102.3v-60l4.62-1.2h26.22l11.1 10v40l-11.1 10-4.62 1.2zm4.62-1.2h23l9.72-8.76v-40l-11.1-10h-21.6zM434.3 102.3l-11.1-10v-10l11.1-10 4.62-1.2h15.18l6.48 5.82V42.3l4.62-1.2v60l-4.62 1.2v-7l-6.48 5.82-4.68 1.2zm26.28-10v-10l-11.16-10h-11.88l-9.72 8.76v10l11.1 10h11.88zM483.09 102.3v-60l4.62-1.2H525l-4.62 1.2h-32.7v28.8H525l-4.62 1.2h-32.7v28.8H525l-4.62 1.2zM547.14 102.3l-11.1-10v-10l11.1-10 4.62-1.2h15.18l11.1 10-4.62 1.26h-32.76v8.76l11.1 10h11.88l9.78-8.76 4.58-1.28-11.1 10-4.68 1.2zm-6.48-21.24H572l-9.78-8.76h-11.84zM599 71.1h37.32l-4.62 1.2H599v28.8l-4.62 1.2v-60l4.62-1.2h37.32l-4.62 1.2H599zM656.21 51.06v20h11.1l-4.62 1.2h-6.48v28.8l-4.62 1.2v-50l11.1-10 4.62-1.2z"/></g></svg>