<svg xmlns="http://www.w3.org/2000/svg" viewBox="0 0 700 500"><path fill="#d7ffff" d="M0 0h700v500H0z" data-name="Ebene 2"/><g data-name="Ebene 1"><path d="M48.74 62.37l-4.9 4.13-.29-.35-3.9-15.65h-3.87l-3 11.87-4.9 4.13-.29-.35 8-32L40.48 30l.29.35zM36.9 46h1.63l-.83-3.29zM56.59 46h6.78l.32.35-4.92 4.15h-2.18v11.87l-4.9 4.13-.29-.35V39.46l4.9-4.1L63.37 30l.32.35-4.92 4.15-2.18 1.63zM63.14 50.14L68 46l.29.35v4.75l6.82-5.1h2.46l.29.35L73 50.5h-2.5l-2.18 1.63v10.24l-4.9 4.13-.29-.35zM78.93 39.46l4.9-4.1.29.35v1.6l-4.9 4.13-.29-.38zm0 10.69L83.82 46l.29.35v16l-4.9 4.13-.29-.35zM110.11 62l.29.35-4.9 4.13L94.46 61v1.41l-4.9 4.13-.29-.35v-32L94.18 30l.29.35v23.51L110.11 46l.29.35-4.9 4.13-9.18 4.62zM133.14 46l.29.35v16l-4.9 4.13-.29-.35v-4.72l-6.78 5.09h-1.79l-7.07-5.34-.29-.35v-5.35l4.9-4.1 7.06-5.36h1.79l3.71 2.82zm-8.86 16h1.79l2.18-1.63v-4.8l-6.78-5.09h-1.79l-2.18 1.63v4.8zM158.24 46l.29.35v16l-4.9 4.13-.29-.35v-4.72l-6.78 5.09h-1.79l-7.07-5.34-.29-.35v-5.35l4.9-4.1 7.07-5.36h1.79l3.71 2.82zm-8.86 16h1.79l2.18-1.63v-4.8l-6.78-5.09h-1.79l-2.18 1.63v4.8zM172.54 50.5h-1.79l-2.18 1.63v10.24l-4.9 4.13-.29-.35v-16l4.9-4.13.29.35v4.73l6.79-5.1h1.79l7.07 5.34.29.35v10.68l-4.9 4.13-.29-.35V55.58zM188 55.84l-.29-.38 4.9-4.1 7.05-5.36h1.79l7.07 5.34.29.35-4.32 3.62 4 1.34.29.38-4.9 4.1-7.07 5.34h-1.79L188 61.15l-.29-.35 4.29-3.62zm14.3-1.25l-5.44-4.1h-1.79l-1.54 1.15zm-8.06 3.33l5.44 4.1h1.79l1.53-1.16zM213.26 66.11l-4.9 4.13-.32-.38 2.53-5.31 4.9-4.13.32.35zM250.64 62.37l-4.9 4.13-.29-.35-3.9-15.65h-3.87l-3 11.87-4.9 4.13-.29-.35 8-32 4.9-4.13.29.35zM238.8 46h1.63l-.83-3.29zM253.51 34.14L258.4 30l.29.35v32l-4.9 4.13-.29-.35zM285.12 57.05l-4.9 4.1-7.07 5.34h-1.79l-3.71-2.82-3.36 2.82-.29-.35v-32l4.9-4.14.29.35V51.1L276 46h1.79l7.07 5.34.29.35zm-5.18-1.47l-6.78-5.09h-1.79l-2.18 1.63v4.8L276 62h1.79l2.18-1.63zM308.74 46l.29.35v16l-4.9 4.13-.29-.35v-4.72l-6.78 5.09h-1.79l-7.07-5.34-.29-.35v-5.35l4.9-4.1 7.06-5.36h1.79l3.71 2.82zm-8.86 16h1.79l2.18-1.63v-4.8l-6.78-5.09h-1.79l-2.18 1.63v4.8zM323 50.5h-1.79l-2.18 1.63v10.24l-4.9 4.13-.29-.35v-16l4.9-4.13.29.35v4.73l6.83-5.1h1.79l7.07 5.34.29.35v10.68l-4.9 4.13-.29-.35V55.58zM339.6 39.46l4.9-4.1.29.35v1.6l-4.9 4.13-.29-.38zm0 10.69l4.9-4.13.29.35v16l-4.9 4.13-.29-.35zM369.61 46l.29.35v16l-4.9 4.14-.29-.35v-4.73l-6.78 5.09h-1.79l-7.07-5.34-.29-.35v-5.35l4.9-4.1 7.06-5.36h1.79l3.71 2.82zm-8.86 16h1.79l2.18-1.63v-4.8l-6.78-5.09h-1.79L354 52.13v4.8zM383.91 50.5h-1.79l-2.18 1.63v10.24L375 66.49l-.29-.35v-16l4.9-4.13.29.35v4.74l6.83-5.1h1.79l7.07 5.34.29.35v10.68L391 66.49l-.29-.35V55.58zM402.69 66.11l-4.9 4.13-.32-.38 2.53-5.32 4.9-4.13.32.35zM421.34 34.14l4.9-4.13h8.86l7.07 5.34.29.35v5.34l-4.9 4.1-1.79 1.38 6.4 4.83.29.35v5.34l-4.9 4.1-7.07 5.34h-8.86l-.29-.35zM426.52 46h8.58l2.18-1.63v-4.8l-6.78-5.09h-4zm0 4.48V62h8.58l2.18-1.63v-4.8l-6.78-5.09zM445.9 50.14l4.9-4.14.29.35v4.75l6.78-5.1h2.46l.29.35-4.9 4.13h-2.46l-2.18 1.63v10.26l-4.9 4.13-.29-.35zM471.76 62h1.79l7.07-5.34.29.38-4.9 4.1-7.07 5.34h-1.79l-7.07-5.34-.29-.35v-5.33l4.9-4.1 7.07-5.36h1.79l7.07 5.34.29.35-4.91 4.15h-11v1.09zm-2.81-11.5h-1.79l-1.12.86h4zM487.34 34.14l4.9-4.14.29.35V46H497l.29.35-4.77 4v12l-4.9 4.13-.29-.35V50.5h-4.48l-.29-.35 4.77-4zM518.81 57.05l-4.89 4.1-7.07 5.34h-1.79L498 61.15l-.29-.35v-5.34l4.89-4.1 7.06-5.36h1.79l7.07 5.34.29.35zm-5.18-1.47l-6.78-5.09h-1.79l-2.18 1.63v4.8l6.78 5.08h1.79l2.18-1.63zM531.93 50.5h-1.79L528 52.13v10.24l-4.89 4.13-.29-.35v-16l4.9-4.13.29.35v4.73l6.74-5.1h1.79l7.07 5.34.29.35v10.68l-4.9 4.12-.29-.35V55.58zM550.71 66.11l-4.89 4.13-.32-.38 2.5-5.32 4.9-4.13.32.35zM38.69 117H36.9l-7.07-5.34-.29-.35V90l4.9-4.1 7.07-5.34h1.79l7.07 5.34.29.35-4.9 4.13L38.69 85H36.9l-2.18 1.63v20.8l6.78 5.09h1.8l7.07-5.34.29.38-4.9 4.1zM53.66 100.64l4.9-4.13.29.35v4.74l6.78-5.09h2.46l.29.35-4.9 4.14H61l-2.18 1.63v10.24L53.95 117l-.29-.35zM88.67 107.55l-4.9 4.1-7.06 5.35h-1.79l-7.07-5.34-.29-.35V106l4.9-4.1 7.07-5.34h1.79l7.07 5.34.29.35zm-5.18-1.47L76.71 101h-1.79l-2.18 1.63v4.8l6.78 5.09h1.79l2.18-1.63zM112.29 96.52l.29.35v16l-4.9 4.13-.29-.35v-4.74l-6.78 5.09h-1.79l-7.07-5.34-.29-.35V106l4.9-4.1 7.07-5.34h1.79l3.71 2.82zm-8.86 16h1.79l2.18-1.63v-4.8l-6.79-5.09h-1.79l-2.18 1.63v4.8zM119.77 84.64l4.9-4.13.29.35v15.66h4.48l.29.35-4.77 4v12l-4.9 4.13-.29-.35V101h-4.48l-.29-.35 4.77-4zM131.36 90l4.9-4.1.29.35v1.6l-4.9 4.13-.29-.38zm0 10.69l4.9-4.13.29.35v16l-4.9 4.13-.29-.35zM161.37 96.52l.29.35v16l-4.9 4.13-.29-.35v-4.74l-6.78 5.09h-1.79l-7.07-5.34-.29-.35V106l4.9-4.1 7.07-5.34h1.79l3.7 2.77zm-8.86 16h1.79l2.18-1.63v-4.8l-6.79-5.09h-1.79l-2.18 1.63v4.8zM175.67 101h-1.79l-2.18 1.63v10.24l-4.9 4.13-.29-.35v-16l4.9-4.13.29.35v4.74l6.78-5.09h1.79l7.07 5.34.29.35v10.66l-4.9 4.13-.29-.35v-10.57zM194.45 116.61l-4.9 4.13-.32-.38 2.53-5.31 4.9-4.13.32.35zM221.77 117H220l-7.07-5.34-.29-.35V90l4.9-4.1 7.07-5.34h1.79l7.07 5.34.29.35-4.9 4.13-7.09-5.38H220l-2.18 1.63v20.8l6.78 5.09h1.79l7.07-5.34.29.38-4.9 4.1z"/><path d="M254.25 96.52l.29.35L239 112.52h15.26l.29.35-4.9 4.13H233.7l-.29-.35L249 101h-15.3l-.29-.35 4.9-4.13zM268.63 112.52h1.79l7.07-5.34.29.38-4.9 4.1-7.07 5.34H264l-7.07-5.34-.29-.35V106l4.9-4.1 7.07-5.34h1.79l7.07 5.34.29.35-4.9 4.13h-11v1.09zM265.81 101H264l-1.12.86h4zM289.72 101h-1.79l-2.18 1.63v4.8l6.78 5.09h1.79l7.07-5.34.29.38-4.9 4.1-7.06 5.34h-1.79l-7.07-5.34-.29-.35V106l4.9-4.1 7.07-5.34h1.79l7.07 5.34.29.35-4.9 4.13zM314.81 101H313l-2.18 1.63v10.24l-4.9 4.13-.29-.35v-32l4.9-4.13.29.35v20.73l6.78-5.09h1.79l7.07 5.34.29.35v10.66l-4.9 4.13-.29-.35v-10.56zM333.58 116.61l-4.9 4.13-.32-.38 2.53-5.31 4.9-4.13.32.35zM352.24 116.64v-32l4.9-4.13H366l7.07 5.34.29.35v21.34l-4.9 4.1-7.07 5.36h-8.86zm5.18-4.13H366l2.18-1.63v-20.8L361.39 85h-4zM397.44 96.52l.29.35v16l-4.9 4.13-.29-.35v-4.74l-6.78 5.09H384l-7.07-5.34-.29-.35V106l4.9-4.1 7.07-5.34h1.79l3.71 2.82zm-8.86 16h1.79l2.18-1.63v-4.8l-6.79-5.09H384l-2.18 1.63v4.8zM411.75 101H410l-2.18 1.63v10.24l-4.9 4.13-.29-.35v-16l4.89-4.13.29.35v4.74l6.78-5.09h1.79l7.07 5.34.29.35v10.66l-4.92 4.13-.29-.35v-10.57zM428.3 90l4.9-4.1.29.35v1.6l-4.9 4.13-.29-.38zm0 10.69l4.9-4.13.29.35v16l-4.9 4.13-.29-.35zM437.38 106.34l-.29-.38 4.9-4.1 7.07-5.34h1.79l7.07 5.34.29.35-4.32 3.62 4 1.34.29.38-4.9 4.1-7.03 5.35h-1.79l-7.07-5.34-.29-.35 4.32-3.62zm14.3-1.25l-5.44-4.1h-1.79l-1.54 1.15zm-8.06 3.33l5.44 4.1h1.79l1.54-1.15zM471.34 101h-1.79l-2.18 1.63v10.24l-4.9 4.13-.29-.35v-32l4.9-4.13.29.35v20.73l6.78-5.09h1.79l7.07 5.34.29.35v10.66l-4.9 4.13-.29-.35v-10.56zM490.11 116.61l-4.9 4.13-.32-.38 2.53-5.31 4.9-4.13.32.35zM508.77 116.64v-32l4.9-4.13h8.86l7.07 5.34.29.35v21.34l-4.9 4.1-7.07 5.36h-8.86zm5.18-4.13h8.58l2.18-1.63v-20.8L517.92 85h-4zM549.47 100.64l4.9-4.13.29.35v10.69l-4.9 4.1-7.07 5.35h-1.79l-7.07-5.34-.29-.35v-10.67l4.9-4.13.29.35v10.56l6.78 5.09h1.79l2.18-1.63zM561.51 84.64l4.89-4.13.29.35v15.66h4.48l.29.35-4.77 4v12L561.8 117l-.29-.35V101H557l-.29-.35 4.77-4zM581 101h-1.79l-2.21 1.63v4.8l6.78 5.09h1.79l7.07-5.34.29.38-4.9 4.1L581 117h-1.79l-7.07-5.34-.29-.35V106l4.9-4.1 7.07-5.34h1.79l7.07 5.34.29.35-4.9 4.13zM606.11 101h-1.79l-2.18 1.63v10.24l-4.9 4.13-.29-.35v-32l4.9-4.13.29.35v20.73l6.78-5.09h1.79l7.07 5.34.29.35v10.66l-4.9 4.13-.29-.35v-10.56zM624.88 116.61l-4.9 4.13-.32-.38 2.53-5.31 4.9-4.13.32.35zM30.31 167.49l-.29-.35v-32l4.9-4.13h15.93l.29.35-4.9 4.13h-11V147h15.61l.29.35-4.9 4.13h-11V163h15.61l.29.35-4.9 4.13zM63.29 151.5H61.5l-2.18 1.63v10.24l-4.9 4.13-.29-.35v-16L59 147l.29.35v4.74l6.82-5.09h1.79l7.1 5.36.29.35v10.66l-4.9 4.13-.29-.35v-10.57zM99.7 147l.29.35v26.69l-4.9 4.1-7.09 5.35h-1.78l-7.07-5.34-.29-.35 4.9-4.13 7.07 5.33h1.79l2.18-1.63v-15l-6.8 5.12h-1.78l-7.07-5.34-.29-.35v-5.34l4.9-4.1 7.07-5.36h1.79l3.71 2.82zm-8.86 16h1.79l2.18-1.63v-4.8L88 151.5h-1.78L84 153.13v4.8zM105.11 135.14L110 131l.29.35v32l-4.9 4.13-.29-.35zM115.37 140.46l4.9-4.1.29.35v1.6l-4.9 4.13-.29-.38zm0 10.69l4.9-4.13.29.35v16l-4.9 4.13-.29-.35zM124.45 156.84l-.29-.38 4.9-4.1 7.07-5.34h1.79l7.07 5.34.29.35-4.28 3.62 4 1.34.29.38-4.9 4.1-7.07 5.34h-1.79l-7.07-5.34-.29-.35 4.32-3.62zm14.3-1.25l-5.44-4.1h-1.79l-1.52 1.16zm-8.06 3.33l5.44 4.1h1.79l1.54-1.15zM158.41 151.5h-1.79l-2.18 1.63v10.24l-4.9 4.13-.29-.35v-32l4.9-4.13.29.35v20.73l6.78-5.09H163l7.07 5.34.29.35v10.66l-4.9 4.13-.29-.35v-10.56zM177.18 167.11l-4.9 4.13-.32-.38 2.53-5.31 4.9-4.13.32.35zM196.12 167.49l-.29-.35v-32l4.9-4.13h15.94l.29.35-4.9 4.13H201V147h15.65l.29.35-4.9 4.13H201V163h15.65l.29.35-4.9 4.13zM219.62 156.84l-.29-.38 4.9-4.1 7.07-5.36h1.79l7.07 5.34.29.35-4.32 3.62 4 1.34.29.38-4.9 4.1-7.07 5.34h-1.79l-7.07-5.34-.29-.35 4.32-3.62zm14.3-1.25l-5.44-4.1h-1.79l-1.54 1.15zm-8.06 3.33l5.44 4.1h1.79l1.54-1.15zM246.88 135.14l4.9-4.13.29.35V147h4.48l.29.35-4.77 4v12l-4.9 4.13-.29-.35V151.5h-4.48l-.29-.35 4.77-4zM278.35 158.05l-4.9 4.1-7.07 5.34h-1.79l-7.07-5.34-.29-.35v-5.34l4.9-4.1 7.07-5.36h1.8l7.07 5.34.29.35zm-5.18-1.47l-6.78-5.09h-1.79l-2.18 1.63v4.8l6.78 5.08h1.8l2.18-1.63zM291.47 151.5h-1.79l-2.18 1.63v10.24l-4.9 4.13-.29-.35v-16l4.9-4.13.29.35v4.74l6.78-5.09h1.79l7.07 5.34.29.35v10.66l-4.9 4.13-.29-.35v-10.57zM308 140.46l4.9-4.1.29.35v1.6l-4.9 4.13-.29-.38zm0 10.69l4.9-4.13.29.35v16l-4.9 4.13-.29-.35zM338 147l.29.35v16l-4.9 4.13-.29-.35v-4.74l-6.78 5.09h-1.79l-7.07-5.34-.29-.35v-5.34l4.9-4.1 7.07-5.34H331l3.71 2.82zm-8.86 16H331l2.18-1.63v-4.8l-6.78-5.09h-1.79l-2.18 1.63v4.8zM352.34 151.5h-1.79l-2.18 1.63v10.24l-4.9 4.13-.29-.35v-16l4.9-4.13.29.35v4.74l6.78-5.09h1.79l7.07 5.34.29.35v10.66l-4.9 4.13-.29-.35v-10.57zM371.11 167.11l-4.9 4.13-.32-.38 2.53-5.31 4.9-4.13.32.35zM395 147h15.6l.29.35-4.89 4.15h-11v11.87l-4.9 4.13-.29-.35v-32l4.89-4.13h15.9l.29.35-4.89 4.13h-11zM430.53 147l.29.35v16l-4.9 4.13-.29-.35v-4.74l-6.78 5.09h-1.79l-7.06-5.33-.29-.35v-5.34l4.9-4.1 7.07-5.34h1.79l3.71 2.82zm-8.86 16h1.79l2.18-1.63v-4.8l-6.78-5.09h-1.79l-2.18 1.63v4.8zM435.68 151.14l4.89-4.13.29.35v4.74l6.78-5.09h2.46l.29.35-4.9 4.13H443l-2.18 1.63v10.24l-4.9 4.13-.29-.35zM470.69 158.05l-4.9 4.1-7.07 5.34h-1.79l-7.07-5.34-.29-.35v-5.34l4.9-4.1 7.07-5.34h1.79l7.07 5.34.29.35zm-5.18-1.47l-6.78-5.09h-1.79l-2.18 1.63v4.8l6.78 5.09h1.79l2.18-1.63zM485.44 163h1.79l7.07-5.34.29.38-4.9 4.1-7.07 5.34h-1.79l-7.07-5.34-.29-.35v-5.34l4.9-4.1 7.07-5.34h1.79l7.07 5.34.29.35-4.9 4.13h-11v1.09zm-2.82-11.52h-1.79l-1.12.86h4zM497.24 156.84l-.29-.38 4.9-4.1 7.07-5.34h1.79l7.07 5.34.29.35-4.32 3.62 4 1.34.29.38-4.9 4.1-7.07 5.34h-1.79l-7.07-5.34-.29-.35 4.32-3.62zm14.3-1.25l-5.44-4.1h-1.79l-1.54 1.15zm-8.06 3.33l5.44 4.1h1.79l1.54-1.15zM532.82 163h1.79l7.07-5.34.29.38-4.9 4.1-7.07 5.35h-1.79l-7.07-5.34-.29-.35v-5.34l4.9-4.1 7.07-5.34h1.79l7.07 5.34.29.35-4.9 4.13H526v1.09zM530 151.5h-1.79l-1.12.86h4zM546.43 167.11l-4.9 4.13-.32-.38 2.53-5.31 4.9-4.13.32.35zM35.2 197.52h15.65l.29.35-4.9 4.13h-11v11.87L30.31 218l-.29-.35v-32l4.9-4.13h15.93l.29.35-4.9 4.13h-11zM52.7 191l4.9-4.1.29.35v1.6L53 192.94l-.29-.38zm0 10.69l4.9-4.13.29.35v16L53 218l-.29-.35zM71.91 202h-1.79l-2.18 1.63v10.24L63.05 218l-.29-.35v-16l4.9-4.13.29.35v4.74l6.78-5.09h1.79l7.07 5.34.29.35v10.66L79 218l-.29-.35v-10.57zM97.56 202h-1.79l-2.18 1.63v10.24L88.7 218l-.29-.35v-16l4.9-4.13.29.35v4.74l6.78-5.09h1.79l7.07 5.34.29.35v10.66l-4.9 4.13-.29-.35v-10.57zM114.12 191l4.9-4.1.29.35v1.6l-4.9 4.13-.29-.38zm0 10.69l4.9-4.13.29.35v16l-4.9 4.13-.29-.35zM123.2 207.34l-.29-.38 4.9-4.1 7.07-5.34h1.79l7.07 5.34.29.35-4.32 3.62 4 1.34.29.38-4.9 4.1-7.04 5.35h-1.79l-7.07-5.34-.29-.35 4.32-3.62zm14.3-1.25l-5.44-4.1h-1.79l-1.54 1.15zm-8.06 3.33l5.44 4.1h1.79l1.54-1.15zM157.15 202h-1.79l-2.18 1.63v10.24l-4.9 4.13-.29-.35v-32l4.9-4.13.29.35v20.73l6.78-5.09h1.79l7.07 5.34.29.35v10.66l-4.9 4.13-.29-.35v-10.56zM175.93 217.61l-4.9 4.13-.32-.38 2.53-5.31 4.9-4.13.32.35zM199.76 197.52h15.65l.29.35-4.9 4.13h-11v11.87l-4.9 4.13-.29-.35v-32l4.9-4.13h15.94l.29.35-4.94 4.13h-11zM217.2 201.64l4.9-4.13.29.35v4.74l6.78-5.09h2.46l.29.35L227 202h-2.46l-2.18 1.63v10.24l-4.9 4.13-.29-.35zM243.06 213.52h1.79l7.07-5.34.29.38-4.9 4.1-7.06 5.34h-1.79l-7.07-5.34-.29-.35V207l4.9-4.1 7.07-5.34h1.79l7.07 5.34.29.35-4.9 4.13h-11v1.09zM240.25 202h-1.79l-1.12.86h4zM264.94 202h-1.79l-2.15 1.63v10.24l-4.9 4.13-.29-.35v-16l4.9-4.13.29.35v4.74l6.78-5.09h1.79l7.07 5.34.29.35v10.66L272 218l-.29-.35v-10.57zM289.67 202h-1.79l-2.18 1.63v4.8l6.78 5.09h1.79l7.07-5.34.29.38-4.9 4.1-7.06 5.34h-1.79l-7.07-5.34-.29-.35V207l4.9-4.1 7.07-5.34h1.79l7.07 5.34.29.35-4.9 4.13zM314.76 202H313l-2.18 1.63v10.24L305.9 218l-.29-.35v-32l4.9-4.13.29.35v20.73l6.78-5.09h1.79l7.07 5.34.29.35v10.66l-4.9 4.13-.29-.35v-10.56zM333.53 217.61l-4.9 4.13-.32-.38 2.53-5.31 4.9-4.13.32.35zM357.37 197.52H373l.29.35-4.88 4.13h-11v11.87l-4.9 4.13-.29-.35v-32l4.89-4.13H373l.29.35-4.88 4.13h-11zM374.81 201.64l4.9-4.13.29.35v4.74l6.78-5.09h2.46l.29.35-4.9 4.13h-2.46l-2.17 1.64v10.24l-4.9 4.13-.29-.35zM390.59 191l4.9-4.1.29.35v1.6l-4.9 4.13-.29-.38zm0 10.69l4.9-4.13.29.35v16l-4.9 4.13-.29-.35zM399.67 207.34l-.29-.38 4.89-4.1 7.07-5.34h1.79l7.07 5.34.29.35-4.32 3.62 4 1.34.29.38-4.89 4.1-7.04 5.35h-1.79l-7.07-5.34-.29-.35 4.32-3.62zm14.3-1.25l-5.44-4.1h-1.79l-1.54 1.15zm-8.06 3.33l5.44 4.1h1.79l1.54-1.15zM424.14 191l4.89-4.1.29.35v1.6l-4.9 4.13-.29-.38zm0 10.69l4.89-4.13.29.35v16l-4.9 4.13-.29-.35zM454.15 197.52l.29.35v16l-4.9 4.13-.29-.35v-4.74l-6.78 5.09h-1.79l-7.07-5.34-.29-.35V207l4.9-4.1 7.07-5.34h1.79l3.71 2.82zm-8.86 16h1.79l2.18-1.63v-4.8l-6.79-5.09h-1.79l-2.18 1.63v4.8zM468.45 202h-1.79l-2.18 1.63v10.24l-4.89 4.13-.29-.35v-16l4.9-4.13.29.35v4.74l6.78-5.09h1.79l7.07 5.34.29.35v10.66l-4.9 4.13-.29-.35v-10.57zM487.23 217.61l-4.89 4.13-.32-.38 2.53-5.31 4.9-4.13.32.35zM526.23 197.52l.29.35v10.69l-4.9 4.1-7.07 5.34h-1.79l-7.07-5.34-.29-.35V191l4.9-4.1 7.07-5.34h1.79l7.07 5.34.29.35-4.9 4.13-7.07-5.38h-1.79l-2.18 1.63v20.8l6.78 5.09h1.79l2.18-1.63V202h-7.68l-.29-.35 4.9-4.13zM550.37 197.52l.29.35v16l-4.9 4.13-.29-.35v-4.74L538.7 218h-1.8l-7.07-5.34-.29-.35V207l4.9-4.1 7.07-5.34h1.79l3.71 2.82zm-8.86 16h1.79l2.18-1.63v-4.8L538.7 202h-1.8l-2.18 1.63v4.8zM566.61 213.52h1.79l7.07-5.34.29.38-4.89 4.1-7.08 5.34H562l-7.07-5.34-.29-.35V207l4.89-4.1 7.07-5.34h1.79l7.07 5.34.29.35-4.89 4.13h-11v1.09zM563.79 202H562l-1.12.86h4zM579.71 185.64l4.9-4.13.29.35v32L580 218l-.29-.35zM590 191l4.89-4.1.29.35v1.6l-4.9 4.13-.29-.38zm0 10.69l4.89-4.13.29.35v16l-4.9 4.13-.29-.35zM608.3 202h-1.8l-2.18 1.63v4.8l6.78 5.09h1.79l7.07-5.34.29.38-4.9 4.1-7.05 5.34h-1.8l-7.07-5.34-.29-.35V207l4.9-4.1 7.07-5.34h1.79l7.07 5.34.29.35-4.9 4.13zM624.72 217.61l-4.9 4.13-.32-.38L622 216l4.9-4.13.32.35zM50.37 248l.29.35v10.69l-4.9 4.1-7.07 5.34H36.9l-7.07-5.34-.29-.35v-21.33l4.9-4.1L41.5 232h1.8l7.07 5.34.29.35-4.9 4.13-7.07-5.34H36.9l-2.18 1.63v20.8L41.5 264h1.8l2.18-1.63v-9.87h-7.69l-.29-.35 4.9-4.15zM65.64 264h1.79l7.07-5.34.29.38-4.9 4.1-7.07 5.34H61l-7-5.33-.29-.35v-5.34l4.9-4.1 7.03-5.36h1.79l7.07 5.34.29.35-4.9 4.13h-11v1.09zm-2.81-11.5H61l-1.12.86h4zM78.38 252.14l4.9-4.13.29.35v4.74l6.77-5.1h2.46l.29.35-4.9 4.13h-2.46l-2.18 1.63v10.24l-4.9 4.13-.29-.35zM99.28 264.37l-4.9 4.13-.29-.35v-16L99 248l.29.35v3.39l4.48-3.74 4.19 4.67.48-.54 4.9-4.13 4.8 5.34.29.35v10.66l-4.9 4.13-.29-.35v-10.64l-3.87-4.32-.51.54v10.66l-4.9 4.13-.29-.35v-10.66l-3.87-4.32-.51.54zM142.87 248l.29.35v16l-4.9 4.13-.29-.35v-4.74l-6.78 5.09h-1.79l-7.07-5.34-.29-.35v-5.34l4.9-4.1L134 248h1.79l3.71 2.82zM134 264h1.79l2.18-1.63v-4.8l-6.78-5.09h-1.79l-2.18 1.63v4.8zM157.17 252.5h-1.79l-2.18 1.63v10.24l-4.9 4.13-.29-.35v-16l4.9-4.13.29.35v4.74L160 248h1.79l7.07 5.34.29.35v10.66l-4.9 4.13-.29-.35v-10.55zM175.95 268.11l-4.9 4.13-.32-.38 2.53-5.31 4.9-4.13.32.35zM215 248l.29.35v10.69l-4.9 4.1-7.07 5.34h-1.79l-7.07-5.34-.29-.35v-21.33l4.9-4.1 7.07-5.34h1.79l7.07 5.34.29.35-4.9 4.13-7.07-5.34h-1.79l-2.18 1.63v20.8l6.78 5.09h1.79l2.18-1.63v-9.89h-7.68l-.29-.35L207 248zM219 252.14l4.9-4.13.29.35v4.74L231 248h2.46l.29.35-4.9 4.13h-2.46l-2.18 1.63v10.24l-4.9 4.13-.29-.35zM244.85 264h1.79l7.07-5.34.29.38-4.9 4.1-7.1 5.35h-1.79l-7.07-5.34-.29-.35v-5.34l4.9-4.1 7.07-5.34h1.79l7.07 5.34.29.35-4.9 4.13h-11v1.09zM242 252.5h-1.79l-1.12.86h4zM268.75 264h1.79l7.07-5.34.29.38-4.9 4.1-7.07 5.34h-1.79l-7.07-5.34-.29-.35v-5.34l4.9-4.1 7.07-5.34h1.79l7.07 5.34.29.35-4.9 4.13h-11v1.09zm-2.82-11.52h-1.79l-1.12.86h4zM290.64 252.5h-1.79l-2.18 1.63v10.24l-4.9 4.13-.29-.35v-16l4.9-4.13.29.35v4.74l6.78-5.09h1.79l7.07 5.34.29.35v10.66l-4.9 4.13-.29-.35v-10.57zM307.37 236.14l4.9-4.13.29.35v32l-4.9 4.13-.29-.35zM337.51 248l.29.35v16l-4.9 4.13-.29-.35v-4.74l-6.78 5.09H324l-7-5.33-.29-.35v-5.34l4.9-4.1 7.07-5.34h1.79l3.71 2.82zm-8.86 16h1.79l2.18-1.63v-4.8l-6.78-5.09H324l-2.18 1.63v4.8zM351.82 252.5H350l-2.18 1.63v10.24l-4.9 4.13-.29-.35v-16l4.9-4.13.29.35v4.74l6.78-5.09h1.79l7.07 5.34.29.35v10.66l-4.9 4.13-.29-.35v-10.57zM376.54 268.49h-1.79l-7.07-5.34-.29-.35v-5.34l4.9-4.1 7.07-5.34h1.79l2.18 1.63v-13.5l4.9-4.13.29.35v32l-4.9 4.13-.29-.35v-4.74zm2.82-4.48h1.79l2.18-1.63v-4.8l-6.78-5.09h-1.79l-2.18 1.63v4.8zM393.43 241.46l4.9-4.1.29.35v1.6l-4.9 4.13-.29-.38zm0 10.69l4.9-4.13.29.35v16l-4.9 4.13-.29-.35zM411.76 252.5H410l-2.18 1.63v4.8l6.78 5.09h1.79l7.07-5.34.29.38-4.9 4.1-7.07 5.34H410l-7.07-5.34-.29-.35v-5.34l4.9-4.1 7.07-5.34h1.79l7.07 5.34.29.35-4.9 4.13zM428.18 268.11l-4.9 4.13-.32-.38 2.53-5.31 4.9-4.13.32.35zM446.84 236.14l4.9-4.13.29.35V248h10.75v-11.86l4.9-4.13.29.35v32l-4.9 4.13-.29-.35V252.5H452v11.87l-4.89 4.13-.29-.35zM488.17 252.14l4.9-4.13.29.35v10.69l-4.89 4.1-7.07 5.34h-1.8l-7.07-5.34-.29-.35v-10.66l4.89-4.13.29.35v10.56l6.78 5.09h1.8l2.18-1.63zM506.78 252.5H505l-2.18 1.63v10.24l-4.9 4.13-.29-.35v-16l4.9-4.13.29.35v4.74l6.78-5.11h1.79l7.07 5.34.29.35v10.66l-4.9 4.13-.29-.35v-10.55zM543.19 248l.29.35v26.69l-4.9 4.1-7.07 5.34h-1.79l-7.07-5.34-.29-.35 4.9-4.13 7.07 5.34h1.79l2.18-1.63v-15l-6.78 5.09h-1.79l-7.07-5.34-.29-.35v-5.34l4.9-4.1 7.07-5.34h1.79l3.71 2.82zm-8.86 16h1.79l2.18-1.63v-4.8l-6.78-5.09h-1.79l-2.18 1.63v4.8zM568.29 248l.29.35v16l-4.9 4.13-.29-.35v-4.74l-6.78 5.09h-1.79l-7.07-5.34-.29-.35v-5.34l4.9-4.1 7.07-5.34h1.79l3.71 2.82zm-8.86 16h1.79l2.18-1.63v-4.8l-6.78-5.09h-1.79l-2.18 1.63v4.8zM573.44 252.14l4.89-4.13.29.35v4.74l6.78-5.09h2.46l.29.35-4.9 4.13h-2.45l-2.18 1.63v10.24l-4.9 4.13-.29-.35zM589.22 241.46l4.9-4.1.29.35v1.6l-4.89 4.13-.29-.38zm0 10.69l4.9-4.13.29.35v16l-4.89 4.13-.29-.35zM619.23 248l.29.35v16l-4.9 4.13-.29-.35v-4.74l-6.78 5.09h-1.79l-7.07-5.34-.29-.35v-5.34l4.9-4.1 7.07-5.34h1.79l3.71 2.82zm-8.86 16h1.79l2.18-1.63v-4.8l-6.78-5.09h-1.79l-2.18 1.63v4.8zM633.53 252.5h-1.79l-2.18 1.63v10.24l-4.9 4.13-.29-.35v-16l4.89-4.13.29.35v4.74l6.78-5.09h1.79l7.07 5.34.29.35v10.66l-4.89 4.13-.29-.35v-10.57zM652.31 268.11l-4.9 4.13-.32-.38 2.53-5.31 4.9-4.13.32.35zM30 286.64l4.9-4.13.29.35v32L30.27 319l-.29-.35zM47.85 303h-1.8l-2.18 1.63v4.8l6.78 5.09h1.79l7.07-5.34.29.38-4.9 4.1-7.05 5.34h-1.8L39 313.65l-.29-.35V308l4.9-4.1 7.07-5.34h1.79l7.07 5.34.29.35-4.9 4.13zM74.47 314.52h1.79l7.07-5.34.29.38-4.9 4.1-7.07 5.34h-1.79l-7.07-5.34-.29-.35V308l4.9-4.1 7.07-5.34h1.79l7.07 5.34.29.35-4.9 4.13h-11v1.09zM71.65 303h-1.79l-1.12.86h4zM87.47 286.64l4.9-4.13.29.35v32l-4.9 4.14-.29-.35zM117.52 298.52l.29.35v16l-4.9 4.13-.29-.35v-4.74l-6.78 5.09H104l-7-5.35-.29-.35V308l4.9-4.1 7.07-5.34h1.79l3.71 2.82zm-8.86 16h1.79l2.18-1.63v-4.8l-6.79-5.09H104l-2.18 1.63v4.8zM131.73 303h-1.79l-2.18 1.63v10.24l-4.9 4.13-.29-.35v-16l4.9-4.13.29.35v4.74l6.78-5.09h1.79l7.07 5.34.29.35v10.66L138.8 319l-.29-.35v-10.57zM156.35 319h-1.79l-7.07-5.34-.29-.35V308l4.9-4.1 7.07-5.34H161l2.18 1.63v-13.5l4.9-4.13.29.35v32l-4.9 4.13-.29-.35v-4.74zm2.82-4.48H161l2.18-1.63v-4.8l-6.83-5.09h-1.79l-2.18 1.63v4.8zM173.15 292l4.9-4.1.29.35v1.6l-4.9 4.13-.29-.38zm0 10.69l4.9-4.13.29.35v16l-4.9 4.13-.29-.35zM191.39 303h-1.79l-2.18 1.63v4.8l6.78 5.09h1.8l7.07-5.34.29.38-4.9 4.1-7.07 5.34h-1.79l-7.07-5.34-.29-.35V308l4.9-4.1 7.07-5.34H196l7.07 5.34.29.35-4.9 4.13zM207.71 318.61l-4.9 4.13-.32-.38L205 317l4.9-4.13.32.35zM226.14 286.64l4.9-4.13.29.35v32l-4.9 4.13-.29-.35zM235.74 302.64l4.9-4.13.29.35v4.74l6.78-5.09h2.46l.29.35-4.9 4.13h-2.46l-2.18 1.63v10.24L236 319l-.29-.35zM251.42 292l4.9-4.1.29.35v1.6l-4.9 4.13-.29-.38zm0 10.69l4.9-4.13.29.35v16l-4.9 4.13-.29-.35zM260.4 308.34l-.29-.38 4.9-4.1 7.07-5.34h1.79l7.07 5.34.29.35-4.32 3.62 4 1.34.29.38-4.9 4.1-7.03 5.35h-1.79l-7.07-5.34-.29-.35 4.32-3.62zm14.3-1.25l-5.44-4.1h-1.79l-1.54 1.15zm-8.06 3.33l5.44 4.1h1.79l1.54-1.15zM294.26 303h-1.79l-2.18 1.63v10.24L285.4 319l-.29-.35v-32l4.9-4.13.29.35v20.73l6.78-5.09h1.79l7.07 5.34.29.35v10.66l-4.9 4.13-.29-.35v-10.56zM312.94 318.61l-4.9 4.13-.32-.38 2.53-5.31 4.9-4.13.32.35zM331.37 286.64l4.9-4.13.29.35v32l-4.9 4.13-.29-.35zM344 286.64l4.9-4.13.29.35v15.65h4.48l.29.35-4.77 4v12l-4.9 4.13-.29-.35V303h-4.48l-.29-.35 4.77-4zM375 298.52l.29.35v16l-4.86 4.13-.29-.35v-4.74l-6.78 5.09h-1.79l-7.07-5.34-.29-.35V308l4.89-4.1 7.07-5.34H368l3.71 2.82zm-8.86 16H368l2.18-1.63v-4.8l-6.82-5.09h-1.79l-2.18 1.63v4.8zM380.36 286.64l4.89-4.13.29.35v32l-4.9 4.13-.29-.35zM390.53 292l4.89-4.1.29.35v1.6l-4.9 4.13-.29-.38zm0 10.69l4.89-4.13.29.35v16l-4.9 4.13-.29-.35zM420.44 298.52l.29.35v16l-4.9 4.13-.29-.35v-4.74l-6.78 5.09H407l-7.07-5.34-.29-.35V308l4.9-4.1 7.07-5.34h1.79l3.71 2.82zm-8.86 16h1.79l2.18-1.63v-4.8l-6.79-5.09H407l-2.18 1.63v4.8zM434.65 303h-1.79l-2.18 1.63v10.24l-4.9 4.13-.29-.35v-16l4.89-4.13.29.35v4.74l6.78-5.09h1.79l7.07 5.34.29.35v10.66l-4.88 4.13-.29-.35v-10.57zM453.33 318.61l-4.9 4.13-.32-.38 2.53-5.31 4.9-4.13.32.35zM477 314.87l-4.92 4.13-.29-.35v-32l4.9-4.13.29.35 10.75 21.54v-17.77l4.9-4.13.29.35v32L488 319l-.29-.35L477 297.11zM517.62 309.55l-4.89 4.1-7.08 5.35h-1.79l-7.07-5.34-.29-.35V308l4.89-4.1 7.07-5.34h1.79l7.07 5.34.29.35zm-5.18-1.47l-6.79-5.08h-1.79l-2.18 1.63v4.8l6.78 5.09h1.79l2.18-1.63zM521.49 302.64l4.9-4.13.29.35v4.74l6.78-5.09h2.46l.29.35-4.9 4.13h-2.46l-2.18 1.63v10.24l-4.9 4.13-.29-.35zM546.42 314.87l-4.9 4.13-.32-.35-4.77-16 4.9-4.13.29.35 2.75 9.18 1.63-5.41 4.89-4.13.29.35 2.75 9.18 1.63-5.41 4.9-4.13.29.35-4.77 16-4.9 4.13-.32-.35-2.76-9.17zM574.14 314.52h1.79l7.07-5.34.29.38-4.9 4.1-7.07 5.34h-1.79l-7.07-5.34-.29-.35V308l4.9-4.1 7.07-5.34h1.79l7.07 5.34.29.35-4.9 4.13h-11v1.09zM571.32 303h-1.79l-1.12.86h4zM606.81 298.52l.29.35v26.69l-4.9 4.1-7.07 5.34h-1.79l-7.07-5.34-.29-.35 4.9-4.13 7.07 5.34h1.79l2.18-1.63v-15l-6.79 5.11h-1.79l-7.07-5.34-.29-.35V308l4.9-4.1 7.07-5.34h1.79l3.71 2.82zm-8.86 16h1.79l2.18-1.63v-4.8l-6.79-5.09h-1.79l-2.18 1.63v4.8zM612 292l4.9-4.1.29.35v1.6l-4.89 4.13-.29-.38zm0 10.69l4.9-4.13.29.35v16l-4.93 4.09-.29-.35zM641.88 298.52l.29.35v16l-4.9 4.13-.29-.35v-4.74L630.2 319h-1.79l-7.07-5.34-.29-.35V308l4.89-4.1 7.07-5.34h1.79l3.71 2.82zm-8.86 16h1.79l2.18-1.63v-4.8L630.2 303h-1.79l-2.18 1.63v4.8zM656.09 303h-1.79l-2.18 1.63v10.24l-4.9 4.13-.29-.35v-16l4.9-4.13.29.35v4.74l6.78-5.09h1.79l7.07 5.34.29.35v10.66l-4.9 4.13-.29-.35v-10.57zM674.77 318.61l-4.89 4.13-.32-.38 2.53-5.31 4.9-4.13.32.35zM35.2 365.37l-4.9 4.13-.29-.35v-32l4.9-4.13h8.86l7.07 5.34.29.35v5.34l-4.9 4.1-7.07 5.34h-4zm0-16.35h8.58l2.22-1.64v-4.8l-6.78-5.09h-4zM67.87 360.05l-4.9 4.1-7.07 5.34h-1.79L47 364.15l-.29-.35v-5.34l4.9-4.1 7.11-5.36h1.79l7.07 5.34.29.35zm-5.18-1.47l-6.79-5.08h-1.79l-2.18 1.63v4.8l6.79 5.07h1.79l2.18-1.63zM72.17 337.14l4.9-4.13.29.35v32l-4.9 4.13-.29-.35zM82.43 342.46l4.9-4.1.29.35v1.6l-4.9 4.13-.29-.38zm0 10.69l4.9-4.13.29.35v16l-4.9 4.13-.29-.35zM91.51 358.84l-.29-.38 4.9-4.1 7.07-5.34H105l7.07 5.34.29.35-4.36 3.62 4 1.34.29.38-4.9 4.1-7.07 5.34h-1.74l-7.07-5.34-.29-.35 4.32-3.62zm14.3-1.25l-5.44-4.1h-1.79L97 354.65zm-8.06 3.33l5.44 4.1H105l1.54-1.15zM125.46 353.5h-1.79l-2.18 1.63v10.24l-4.9 4.13-.29-.35v-32l4.9-4.13.29.35v20.73l6.78-5.09h1.79l7.07 5.34.29.35v10.66l-4.9 4.13-.29-.35v-10.56zM144.24 369.11l-4.9 4.13-.32-.38 2.53-5.31 4.9-4.13.32.35zM168.08 365.37l-4.9 4.13-.29-.35v-32l4.9-4.13h8.86l7.07 5.34.29.35v5.34l-4.9 4.1-7.11 5.35h-4zm0-16.35h8.58l2.18-1.63v-4.8L172 337.5h-4zM200.75 360.05l-4.9 4.1-7.07 5.34H187l-7.07-5.34-.29-.35v-5.34l4.9-4.1 7.07-5.34h1.79l7.07 5.34.29.35zm-5.18-1.47l-6.78-5.09H187l-2.18 1.63v4.8l6.78 5.09h1.79l2.18-1.63zM204.71 353.14l4.9-4.13.29.35v4.74l6.78-5.09h2.46l.29.35-4.9 4.13h-2.46l-2.18 1.63v10.24l-4.9 4.13-.29-.35zM224.29 337.14l4.9-4.13.29.35V349H234l.29.35-4.77 4v12l-4.9 4.13-.29-.35V353.5h-4.48l-.29-.35 4.77-4zM251.41 353.14l4.9-4.13.29.35v10.69l-4.9 4.1-7.07 5.34h-1.79l-7.07-5.34-.29-.35v-10.66l4.9-4.13.29.35v10.56l6.78 5.09h1.79l2.18-1.63zM280.42 349l.29.35v26.69l-4.9 4.1-7.07 5.34h-1.79l-7.07-5.34-.29-.35 4.9-4.13 7.07 5.34h1.79l2.18-1.63v-15l-6.78 5.09h-1.79l-7.07-5.34-.29-.35v-5.34l4.9-4.1 7.07-5.34h1.79l3.71 2.82zm-8.86 16h1.79l2.18-1.63v-4.8l-6.78-5.09h-1.79l-2.18 1.63v4.8zM301.24 353.14l4.9-4.13.29.35v10.69l-4.9 4.1-7.07 5.34h-1.79l-7.07-5.34-.29-.35v-10.66l4.9-4.13.29.35v10.56l6.78 5.09h1.79l2.18-1.63zM321.39 365h1.79l7.07-5.34.29.38-4.9 4.1-7.07 5.34h-1.79l-7.07-5.34-.29-.35v-5.34l4.9-4.1 7.07-5.34h1.79l7.07 5.34.29.35-4.9 4.13h-11v1.09zm-2.82-11.52h-1.79l-1.12.86h4zM333.18 358.84l-.29-.38 4.9-4.1 7.07-5.34h1.79l7.07 5.34.29.35-4.32 3.62 4 1.34.29.38-4.9 4.1-7.08 5.34h-1.79l-7.07-5.34-.29-.35 4.32-3.62zm14.3-1.25L342 353.5h-1.79l-1.54 1.15zm-8.06 3.33l5.44 4.1h1.79l1.54-1.15zM368.76 365h1.79l7.07-5.34.29.38-4.9 4.1-7.07 5.34h-1.79l-7.07-5.34-.29-.35v-5.34l4.9-4.1 7.07-5.34h1.79l7.07 5.34.29.35-4.9 4.13H362v1.09zm-2.82-11.52h-1.79l-1.12.86h4zM382.37 369.11l-4.89 4.13-.32-.38 2.53-5.31 4.9-4.13.32.35zM401 337.14l4.9-4.13h8.86l7.07 5.34.29.35v5.34l-4.9 4.1-2 1.54 6.91 15.68-4.9 4.13-.29-.35L410 353.5h-3.81v11.87l-4.89 4.13-.29-.35zm5.21 11.86h8.58l2.18-1.63v-4.8l-6.78-5.09h-4zM440.65 353.14l4.9-4.13.29.35v10.69l-4.9 4.1-7.07 5.34h-1.79l-7.08-5.34-.29-.35v-10.66l4.9-4.13.29.35v10.56l6.78 5.09h1.79l2.18-1.63zM455.29 365.37l-4.9 4.13-.29-.35v-16L455 349l.29.35v3.39l4.48-3.74 4.19 4.67.48-.54 4.9-4.13 4.8 5.34.29.35v10.66l-4.9 4.13-.29-.35v-10.64l-3.87-4.32-.51.54v10.66l-4.9 4.13-.29-.35v-10.66l-3.87-4.32-.51.54zM498.88 349l.29.35v16l-4.9 4.13-.29-.35v-4.74l-6.78 5.09h-1.79l-7.07-5.34-.29-.35v-5.34l4.9-4.1L490 349h1.79l3.71 2.82zM490 365h1.79l2.18-1.63v-4.8l-6.78-5.09h-1.79l-2.18 1.63v4.8zM513.19 353.5h-1.79l-2.18 1.63v10.24l-4.89 4.13-.29-.35v-16l4.9-4.13.29.35v4.74L516 349h1.79l7.07 5.34.29.35v10.66l-4.9 4.13-.29-.35v-10.55zM531.68 337.14l4.9-4.13.29.35V349h4.48l.29.35-4.77 4v12l-4.9 4.13-.29-.35V353.5h-4.48l-.29-.35 4.77-4zM542.17 358.84l-.29-.38 4.9-4.1 7.07-5.34h1.79l7.07 5.34.29.35-4.32 3.62 4 1.34.29.38-4.9 4.1-7.07 5.34h-1.79l-7.07-5.34-.29-.35 4.32-3.62zm14.3-1.25L551 353.5h-1.79l-1.54 1.15zm-8.06 3.33l5.44 4.1h1.79l1.54-1.15zM574.94 353.5h-1.79l-2.15 1.63v4.8l6.78 5.09h1.79l7.07-5.34.29.38-4.9 4.1-7.07 5.34h-1.79l-7.07-5.34-.29-.35v-5.34l4.9-4.1 7.07-5.34h1.79l7.07 5.34.29.35-4.9 4.13z"/><path d="M600 353.5h-1.79l-2.18 1.63v10.24l-4.9 4.13-.29-.35v-32l4.9-4.13.29.35v20.73l6.78-5.09h1.79l7.07 5.34.29.35v10.66l-4.9 4.13-.29-.35v-10.56zM618.8 369.11l-4.9 4.13-.32-.38 2.53-5.31 4.9-4.13.32.35zM30 387.64l4.9-4.13h8.86l7.07 5.34.29.35v5.34l-4.9 4.1-2 1.54 6.91 15.68-4.89 4.14-.29-.35L39 404h-3.8v11.87L30.31 420l-.29-.35zm5.18 11.87h8.58l2.24-1.63v-4.8L39.17 388h-4zM74.83 410.55l-4.9 4.1-7.07 5.35h-1.79L54 414.65l-.29-.35V409l4.9-4.1 7.07-5.34h1.79l7.07 5.34.29.35zm-5.18-1.47L62.86 404h-1.79l-2.18 1.63v4.8l6.78 5.09h1.79l2.18-1.63zM84 415.87L79.09 420l-.29-.35v-16l4.9-4.13.29.35v3.39l4.48-3.74 4.19 4.67.48-.54 4.9-4.13 4.8 5.34.29.35v10.66L98.22 420l-.29-.35V409l-3.87-4.32-.51.54v10.66l-4.9 4.12-.29-.35V409l-3.87-4.32-.51.54zM127.57 399.52l.29.35v16L123 420l-.29-.35v-4.74l-6.82 5.09h-1.79l-7.1-5.35-.29-.35V409l4.9-4.1 7.07-5.34h1.79l3.71 2.82zm-8.86 16h1.79l2.18-1.63v-4.8l-6.79-5.09h-1.79l-2.18 1.63v4.8zM141.88 404h-1.79l-2.18 1.63v10.24L133 420l-.29-.35v-16l4.9-4.13.29.35v4.74l6.78-5.09h1.79l7.07 5.34.29.35v10.66l-4.9 4.13-.29-.35v-10.57zM158.43 393l4.9-4.1.29.35v1.6l-4.9 4.13-.29-.38zm0 10.69l4.9-4.13.29.35v16l-4.9 4.13-.29-.35zM188.44 399.52l.29.35v16l-4.9 4.13-.29-.35v-4.74l-6.78 5.09H175l-7.07-5.34-.29-.35V409l4.9-4.1 7.07-5.34h1.79l3.71 2.82zm-8.86 16h1.79l2.18-1.63v-4.8l-6.79-5.09H175l-2.18 1.63v4.8zM202.74 404H201l-2.18 1.63v10.24l-4.9 4.13-.29-.35v-16l4.9-4.13.29.35v4.74l6.78-5.09h1.79l7.07 5.34.29.35v10.66l-4.9 4.13-.29-.35v-10.57zM221.52 419.61l-4.9 4.13-.32-.38 2.53-5.31 4.9-4.13.32.35zM250.7 415.52h1.79l2.18-1.63v-4.77L239 398.65l-.29-.35V393l4.9-4.1 7.07-5.34h1.79l7.07 5.34.29.35-4.9 4.13-7.04-5.38h-1.79l-2.18 1.63v4.77l15.65 10.46.29.35v5.34l-4.9 4.1-7.07 5.35h-1.79l-7.1-5.35-.29-.35 4.9-4.13zM263.39 387.64l4.9-4.13.29.35v32l-4.9 4.13-.29-.35zM293.83 410.55l-4.9 4.1-7.07 5.35h-1.79l-7.07-5.35-.29-.35V409l4.9-4.1 7.07-5.34h1.79l7.07 5.34.29.35zm-5.18-1.47l-6.79-5.08h-1.79l-2.18 1.63v4.8l6.78 5.09h1.79l2.18-1.63zM295.65 403.64l4.9-4.13.29.35 6.3 12.64 4.45-8.86 4.9-4.13.29.35-8 16-4.9 4.13-.29-.35zM338 399.52l.29.35v16l-4.9 4.13-.29-.35v-4.74l-6.74 5.09h-1.79l-7.07-5.34-.29-.35V409l4.9-4.1 7.07-5.34H331l3.71 2.82zm-8.86 16H331l2.18-1.63v-4.8l-6.82-5.09h-1.79l-2.18 1.63v4.8zM364.31 415.52l.29.35-4.9 4.13-11-5.54v1.41l-4.9 4.13-.29-.35v-32l4.9-4.13.29.35v23.49l15.65-7.84.29.35-4.9 4.13-9.18 4.61zM370.53 419.61l-4.89 4.13-.32-.38 2.53-5.31 4.9-4.13.32.35zM399.71 415.52h1.79l2.18-1.63v-4.77L388 398.65l-.29-.35V393l4.9-4.1 7.07-5.34h1.79l7.07 5.34.29.35-4.9 4.13-7.03-5.38h-1.79l-2.18 1.63v4.77l15.65 10.46.29.35v5.34l-4.9 4.1-7.07 5.35h-1.79l-7.11-5.35-.29-.35 4.9-4.13zM412.41 387.64l4.9-4.13.29.35v32l-4.9 4.13-.29-.35zM442.84 410.55l-4.9 4.1-7.07 5.35h-1.79l-7.08-5.35-.29-.35V409l4.9-4.1 7.07-5.34h1.79l7.07 5.34.29.35zm-5.18-1.47l-6.79-5.08h-1.79l-2.18 1.63v4.8l6.78 5.09h1.79l2.18-1.63zM444.67 403.64l4.89-4.13.29.35 6.3 12.64 4.45-8.86 4.9-4.13.29.35-8 16-4.9 4.13-.29-.35zM478.18 415.52H480l7.07-5.34.29.38-4.9 4.1-7.09 5.34h-1.79l-7.07-5.34-.29-.35V409l4.9-4.1 7.07-5.34H480l7.07 5.34.29.35-4.9 4.13h-11v1.09zM475.37 404h-1.79l-1.12.86h4zM500.07 404h-1.79l-2.18 1.63v10.24l-4.9 4.13-.29-.35v-16l4.9-4.13.29.35v4.74l6.78-5.09h1.79l7.07 5.34.29.35v10.66l-4.9 4.13-.29-.35v-10.57zM516.62 393l4.9-4.1.29.35v1.6l-4.89 4.13-.29-.38zm0 10.69l4.9-4.13.29.35v16l-4.9 4.09-.29-.35zM546.63 399.52l.29.35v16L542 420l-.29-.35v-4.74L535 420h-1.79l-7.07-5.34-.29-.35V409l4.9-4.1 7.07-5.34h1.79l3.71 2.82zm-8.86 16h1.79l2.18-1.63v-4.8L535 404h-1.79l-2.21 1.63v4.8zM560.94 404h-1.79l-2.15 1.63v10.24l-4.9 4.13-.29-.35v-16l4.89-4.13.29.35v4.74l6.78-5.09h1.79l7.07 5.34.29.35v10.66L568 420l-.29-.35v-10.57zM579.71 419.61l-4.9 4.13-.32-.38L577 418l4.9-4.13.32.35zM40.54 466h1.79l2.18-1.63v-4.77l-15.64-10.45-.29-.35v-5.34l4.9-4.1 7.06-5.36h1.79l7.07 5.34.29.35-4.9 4.13-7.07-5.34h-1.78l-2.18 1.63v4.77l15.65 10.46.29.35v5.34l-4.9 4.1-7.07 5.34h-1.79l-7.07-5.34-.29-.35 4.9-4.13zM52.9 454.14l4.9-4.14.29.35v4.74l6.78-5.09h1.79l7.07 5.34.29.35v5.34l-4.9 4.1-7.07 5.34h-1.79l-2.18-1.63v13.5l-4.9 4.13-.29-.35zm9.15.35h-1.79l-2.18 1.63v4.8l6.79 5.08h1.79l2.18-1.63v-4.8zM97.64 450l.29.35v16L93 470.49l-.29-.35v-4.74L86 470.49h-1.83l-7.07-5.34-.29-.35v-5.34l4.9-4.1 7.06-5.36h1.79l3.71 2.82zm-8.86 16h1.79l2.18-1.63v-4.8L86 454.5h-1.83L82 456.13v4.8zM111.94 454.5h-1.79l-2.15 1.63v10.24l-4.9 4.13-.29-.35v-16l4.9-4.13.29.35v4.74l6.78-5.09h1.79l7.07 5.34.29.35v10.66l-4.9 4.13-.29-.35v-10.57zM128.5 443.46l4.9-4.1.29.35v1.6l-4.9 4.13-.29-.38zm0 10.69l4.9-4.13.29.35v16l-4.9 4.13-.29-.35zM137.58 459.84l-.29-.38 4.9-4.1 7.07-5.34H151l7.07 5.34.29.35-4.32 3.62 4 1.34.29.38-4.9 4.1-7.07 5.34h-1.79l-7.07-5.34-.29-.35 4.32-3.62zm14.3-1.25l-5.44-4.1h-1.79l-1.54 1.15zm-8.06 3.33l5.44 4.1H151l1.54-1.15zM171.53 454.5h-1.79l-2.18 1.63v10.24l-4.9 4.13-.29-.35v-32l4.9-4.13.29.35v20.73l6.78-5.09h1.79l7.07 5.34.29.35v10.66l-4.9 4.13-.29-.35v-10.56zM190.31 470.11l-4.9 4.13-.32-.38 2.53-5.31 4.9-4.13.32.35zM219.49 466h1.79l2.18-1.63v-4.77l-15.65-10.46-.29-.35v-5.34l4.9-4.1 7.07-5.34h1.79l7.07 5.34.29.35-4.9 4.13-7.07-5.34h-1.79l-2.18 1.63v4.77l15.65 10.46.29.35v5.34l-4.9 4.1-7.07 5.34h-1.79l-7.07-5.34-.29-.35 4.9-4.13zM240.79 466.37l-4.9 4.13-.32-.35-4.77-16 4.9-4.13.29.35 2.75 9.18 1.63-5.41 4.9-4.13.29.35 2.75 9.18 1.63-5.41 4.9-4.13.29.35-4.77 16-4.9 4.13-.32-.35-2.75-9.13zM268.61 466h1.79l7.07-5.34.29.38-4.9 4.1-7.07 5.34H264l-7.07-5.34-.29-.35v-5.34l4.9-4.1 7.07-5.34h1.79l7.07 5.34.29.35-4.9 4.13h-11v1.09zm-2.82-11.52H264l-1.12.86h4zM289.69 470.49h-1.79l-7.07-5.34-.29-.35v-5.34l4.9-4.1 7.07-5.34h1.79l2.18 1.63v-13.5l4.9-4.13.29.35v32l-4.9 4.13-.29-.35v-4.74zm2.82-4.48h1.79l2.18-1.63v-4.8l-6.78-5.09h-1.8l-2.18 1.63v4.8zM306.59 443.46l4.9-4.1.29.35v1.6l-4.9 4.13-.29-.38zm0 10.69l4.9-4.13.29.35v16l-4.9 4.13-.29-.35zM315.67 459.84l-.29-.38 4.9-4.1 7.07-5.34h1.79l7.07 5.34.29.35-4.32 3.62 4 1.34.29.38-4.9 4.1-7.07 5.34h-1.79l-7.07-5.34-.29-.35 4.32-3.62zm14.3-1.25l-5.44-4.1h-1.79l-1.54 1.15zm-8.06 3.33l5.44 4.1h1.79l1.54-1.15zM349.62 454.5h-1.79l-2.18 1.63v10.24l-4.9 4.13-.29-.35v-32l4.9-4.13.29.35v20.73l6.78-5.09h1.79l7.07 5.34.29.35v10.66l-4.9 4.13-.29-.35v-10.56zM398.1 450l.29.35v16l-4.9 4.13-.29-.35v-4.74l-6.78 5.09h-1.79l-7.07-5.34-.29-.35v-5.34l4.9-4.1 7.07-5.34H391l3.71 2.82zm-8.86 16H391l2.18-1.63v-4.8l-6.78-5.09h-1.79l-2.18 1.63v4.8zM412.41 454.5h-1.79l-2.18 1.63v10.24l-4.89 4.13-.29-.35v-16l4.9-4.13.29.35v4.74l6.78-5.09H417l7.07 5.34.29.35v10.66l-4.9 4.13-.29-.35v-10.57zM437.13 470.49h-1.79l-7.07-5.34-.29-.35v-5.34l4.9-4.1 7.07-5.34h1.79l2.18 1.63v-13.5l4.9-4.13.29.35v32l-4.9 4.13-.29-.35v-4.74zm2.82-4.48h1.79l2.18-1.63v-4.8l-6.78-5.09h-1.79l-2.18 1.63v4.8zM463.63 438.5l-.29-.35 4.9-4.13h15.93l.29.35-4.9 4.13h-3.07v27.87l-4.9 4.13-.29-.35V438.5zM498.94 454.14l4.9-4.13.29.35v10.69l-4.9 4.1-7.07 5.34h-1.79l-7.07-5.34-.29-.35v-10.66l4.9-4.13.29.35v10.56L495 466h1.79l2.18-1.63zM508.4 454.14l4.9-4.13.29.35v4.74l6.78-5.09h2.46l.29.35-4.89 4.13h-2.46l-2.18 1.63v10.24l-4.89 4.13-.29-.35zM546.7 466l.29.35-4.89 4.13-11-5.54v1.41l-4.9 4.13-.29-.35v-32l4.89-4.13.29.35v23.49L546.7 450l.29.35-4.89 4.13-9.18 4.61zM549.59 443.46l4.9-4.1.29.35v1.6l-4.9 4.13-.29-.38zm0 10.69l4.9-4.13.29.35v16l-4.9 4.13-.29-.35zM558.67 459.84l-.29-.38 4.9-4.1 7.07-5.34h1.79l7.07 5.34.29.35-4.32 3.62 4 1.34.29.38-4.9 4.1-7.07 5.34h-1.79l-7.07-5.34-.29-.35 4.32-3.62zm14.3-1.25l-5.44-4.1h-1.79l-1.54 1.15zm-8.06 3.33l5.44 4.1h1.79l1.54-1.15zM592.62 454.5h-1.79l-2.18 1.63v10.24l-4.9 4.13-.29-.35v-32l4.9-4.13.29.35v20.73l6.78-5.09h1.79l7.07 5.34.29.35v10.66l-4.9 4.13-.29-.35v-10.56zM608.27 468.54l4.9-4.13.29.35v1.6l-4.9 4.13-.29-.35z"/></g></svg>