<svg xmlns="http://www.w3.org/2000/svg" viewBox="0 0 700 500"><path fill="#d7ffff" d="M0 0h700v500H0z" data-name="Ebene 2"/><g data-name="Ebene 1"><path d="M32.44 158.75v-123a5 5 0 0 1 4.92-4.92H114a4.92 4.92 0 1 1 0 9.84H42.28v51.66H114a4.92 4.92 0 1 1 0 9.84H42.28v56.58a4.92 4.92 0 0 1-9.84 0zM131.83 158.75a6 6 0 0 1 .12-1.48l38.38-123a4.87 4.87 0 0 1 4.67-3.44 5.18 5.18 0 0 1 4.67 3.44l38.25 123a6.2 6.2 0 0 1 .25 1.48 4.93 4.93 0 0 1-4.92 4.92 4.87 4.87 0 0 1-4.67-3.44l-18.08-58.06h-31l-18.08 58.06a5 5 0 0 1-4.8 3.44 4.82 4.82 0 0 1-4.79-4.92zM175 52.35l-12.55 40h25zM322.11 138.21a5.13 5.13 0 0 1-1.48 3.57l-20.42 20.42a5.36 5.36 0 0 1-3.57 1.48H261.1a5.24 5.24 0 0 1-3.44-1.48l-20.54-20.42a5.36 5.36 0 0 1-1.48-3.57V56.29a5.57 5.57 0 0 1 1.48-3.57l20.53-20.42a5.08 5.08 0 0 1 3.44-1.48h35.55a5.57 5.57 0 0 1 3.57 1.48l20.42 20.42a5.13 5.13 0 0 1 1.48 3.57 4.93 4.93 0 0 1-4.92 4.92 4.85 4.85 0 0 1-3.44-1.48l-19.07-19.06h-31.49l-17.71 17.58v78l17.71 17.59h31.49l19.07-19.07a4.86 4.86 0 0 1 3.44-1.48 4.93 4.93 0 0 1 4.92 4.92zM428.13 163.67H351.5a5 5 0 0 1-4.92-4.92v-123a5 5 0 0 1 4.92-4.92h76.63a4.92 4.92 0 1 1 0 9.84h-71.71v51.66h71.71a4.92 4.92 0 1 1 0 9.84h-71.71v51.66h71.71a4.92 4.92 0 1 1 0 9.84zM455.44 133.29a4.85 4.85 0 0 1 3.44 1.48l19.07 19.07h31.49l17.56-17.6v-15.5l-73.9-39.61a5.32 5.32 0 0 1-2.58-4.43V56.29a5.57 5.57 0 0 1 1.48-3.57l20.41-20.42a5.36 5.36 0 0 1 3.59-1.47h35.55A5.25 5.25 0 0 1 515 32.3l20.54 20.42a5 5 0 0 1 1.35 3.57 4.93 4.93 0 0 1-4.92 4.92 4.86 4.86 0 0 1-3.44-1.48l-19.1-19.06h-31.48l-17.59 17.58v15.5l73.92 39.61a5.12 5.12 0 0 1 2.58 4.43v20.42a5.21 5.21 0 0 1-1.35 3.57L515 162.19a5.24 5.24 0 0 1-3.45 1.48H476a5.36 5.36 0 0 1-3.57-1.48L452 141.77a5.13 5.13 0 0 1-1.48-3.57 4.93 4.93 0 0 1 4.92-4.91zM94.68 315.19a5.36 5.36 0 0 1-3.57 1.48H55.57a5.24 5.24 0 0 1-3.44-1.48l-20.55-20.42a5.36 5.36 0 0 1-1.48-3.57v-81.91a5.57 5.57 0 0 1 1.48-3.57l20.54-20.42a5.08 5.08 0 0 1 3.44-1.48h35.55a5.57 5.57 0 0 1 3.57 1.48l20.42 20.42a5.36 5.36 0 0 1 1.48 3.57v81.92a5.57 5.57 0 0 1-1.48 3.57zm12.05-103.94l-17.58-17.58H57.66l-17.71 17.58v78l17.71 17.59h31.49l17.59-17.59zM145.6 311.75v-123a5 5 0 0 1 4.92-4.92h76.63a4.92 4.92 0 1 1 0 9.84h-71.71v51.66h71.71a4.92 4.92 0 1 1 0 9.84h-71.71v56.58a4.92 4.92 0 0 1-9.84 0zM32.44 464.75v-123a4.92 4.92 0 0 1 9.84 0v56.58h66.79v-56.58a4.92 4.92 0 0 1 9.84 0v123a4.92 4.92 0 0 1-9.84 0v-56.58H42.28v56.58a4.92 4.92 0 0 1-9.84 0zM212.51 468.19a5.36 5.36 0 0 1-3.57 1.48H173.4a5.24 5.24 0 0 1-3.44-1.48l-20.54-20.42a5.36 5.36 0 0 1-1.48-3.57v-81.91a5.57 5.57 0 0 1 1.48-3.57L170 338.3a5.08 5.08 0 0 1 3.44-1.48h35.55a5.57 5.57 0 0 1 3.57 1.48l20.42 20.42a5.36 5.36 0 0 1 1.48 3.57v81.92a5.57 5.57 0 0 1-1.48 3.57zm12.05-103.94L207 346.67h-31.51l-17.71 17.59v78l17.71 17.59H207l17.59-17.59zM273.27 464.75a4.92 4.92 0 0 1-9.84 0v-123a5.18 5.18 0 0 1 4.92-4.92h56.09a5.24 5.24 0 0 1 3.44 1.48l20.54 20.42a5.36 5.36 0 0 1 1.48 3.57v20.42a5.57 5.57 0 0 1-1.48 3.57l-20.54 20.42a5.07 5.07 0 0 1-3.44 1.48h-51.17zm49.2-66.42l17.59-17.59v-16.49l-17.59-17.59h-49.2v51.66zM453.59 469.67H377a5 5 0 0 1-4.92-4.92v-123a5 5 0 0 1 4.92-4.92h76.63a4.92 4.92 0 1 1 0 9.84h-71.75v51.66h71.71a4.92 4.92 0 1 1 0 9.84h-71.71v51.66h71.71a4.92 4.92 0 1 1 0 9.84z"/></g></svg>