<svg xmlns="http://www.w3.org/2000/svg" viewBox="0 0 700 500"><path fill="#d7ffff" d="M0 0h700v500H0z" data-name="Ebene 2"/><g data-name="Ebene 1"><path d="M140.21 62.69a1.66 1.66 0 0 1 1.4 1.68v74.76a1.66 1.66 0 0 1-1.4 1.68l-45.92 9.8 25.62 5.46a1.77 1.77 0 0 1 1.4 1.68 1.61 1.61 0 0 1-1.68 1.68H52a1.61 1.61 0 0 1-1.68-1.68 1.64 1.64 0 0 1 1.4-1.68l25.62-5.46-45.92-9.8a1.66 1.66 0 0 1-1.4-1.68V64.37a1.66 1.66 0 0 1 1.4-1.68l45.92-9.8-25.61-5.46a1.77 1.77 0 0 1-1.4-1.68A1.73 1.73 0 0 1 52 43.93h67.62a1.73 1.73 0 0 1 1.68 1.82 1.64 1.64 0 0 1-1.4 1.68l-25.61 5.46zm-2.1 75v-72L85.75 54.71 33.53 65.77v72l52.22 11.06zM103 47.43H68.67l17.08 3.78zM68.67 156.07H103l-17.22-3.78zM285.67 137.73v-92a1.74 1.74 0 0 1 1.68-1.82 1.85 1.85 0 0 1 1.82 1.82v93.38a1.66 1.66 0 0 1-1.4 1.68l-45.92 9.8 25.62 5.46a1.64 1.64 0 0 1 1.4 1.68 1.61 1.61 0 0 1-1.68 1.68h-67.62a1.61 1.61 0 0 1-1.68-1.68 1.66 1.66 0 0 1 1.4-1.68l25.62-5.46-45.91-9.78a1.66 1.66 0 0 1-1.4-1.68V45.75a1.85 1.85 0 0 1 1.82-1.82 1.74 1.74 0 0 1 1.68 1.82v92l52.22 11.06zm-69.44 18.34h34.3l-17.22-3.78zM362.95 157.75V47.43h-52.36a1.62 1.62 0 0 1-1.68-1.68 1.74 1.74 0 0 1 1.68-1.82h108.07a1.85 1.85 0 0 1 1.82 1.82 1.74 1.74 0 0 1-1.82 1.68h-52.21v110.32a1.74 1.74 0 0 1-1.82 1.68 1.62 1.62 0 0 1-1.68-1.68zM140.21 212.69a1.66 1.66 0 0 1 1.4 1.68v74.76a1.66 1.66 0 0 1-1.4 1.68l-45.92 9.8 25.62 5.46a1.77 1.77 0 0 1 1.4 1.68 1.61 1.61 0 0 1-1.68 1.68H52a1.61 1.61 0 0 1-1.68-1.68 1.64 1.64 0 0 1 1.4-1.68l25.62-5.46-45.92-9.8a1.66 1.66 0 0 1-1.4-1.68v-74.76a1.66 1.66 0 0 1 1.4-1.68l45.92-9.8-25.62-5.46a1.77 1.77 0 0 1-1.4-1.68 1.73 1.73 0 0 1 1.68-1.82h67.62a1.73 1.73 0 0 1 1.68 1.82 1.64 1.64 0 0 1-1.4 1.68l-25.62 5.46zm-2.1 75v-72l-52.36-10.98-52.22 11.06v72l52.22 11.06zM103 197.43H68.67l17.08 3.78zM68.67 306.07H103l-17.22-3.78zM180.81 307.75v-112a2 2 0 0 1 1.82-1.82h108.08a1.74 1.74 0 0 1 1.68 1.82 1.62 1.62 0 0 1-1.68 1.68h-106.4v52.5h106.4a1.74 1.74 0 0 1 1.68 1.82 1.62 1.62 0 0 1-1.68 1.68h-106.4v54.32a1.62 1.62 0 0 1-1.68 1.68 1.74 1.74 0 0 1-1.82-1.68zM33.25 457.75v-112a2 2 0 0 1 1.82-1.82h108.08a1.74 1.74 0 0 1 1.68 1.82 1.62 1.62 0 0 1-1.68 1.68H36.75v52.5h106.4a1.74 1.74 0 0 1 1.68 1.82 1.62 1.62 0 0 1-1.68 1.68H36.75v54.32a1.62 1.62 0 0 1-1.68 1.68 1.74 1.74 0 0 1-1.82-1.68zM163.17 459.43a1.74 1.74 0 0 1-1.82-1.68 1.26 1.26 0 0 1 .14-.7l54-112a1.63 1.63 0 0 1 1.54-1 1.94 1.94 0 0 1 1.68 1l54 112a1.27 1.27 0 0 1 .14.7 1.74 1.74 0 0 1-1.82 1.68 1.63 1.63 0 0 1-1.54-1l-26.46-55h-51.86l-26.46 55a1.63 1.63 0 0 1-1.54 1zm53.9-109.62l-24.22 50.12h48.58zM274.19 345.75a1.74 1.74 0 0 1 1.82-1.68 1.63 1.63 0 0 1 1.54 1l52.36 108.64L382.41 345a1.46 1.46 0 0 1 1.4-1 1.87 1.87 0 0 1 2 1.68c0 .28-.14.42-.28.7l-54 112a1.72 1.72 0 0 1-1.54 1 1.63 1.63 0 0 1-1.54-1l-54-112a1.26 1.26 0 0 1-.26-.63zM515.69 362.69a1.66 1.66 0 0 1 1.4 1.68v74.76a1.66 1.66 0 0 1-1.4 1.68l-45.92 9.8 25.62 5.46a1.77 1.77 0 0 1 1.4 1.68 1.61 1.61 0 0 1-1.68 1.68h-67.62a1.61 1.61 0 0 1-1.68-1.68 1.64 1.64 0 0 1 1.4-1.68l25.62-5.46-45.92-9.8a1.66 1.66 0 0 1-1.4-1.68v-74.76a1.66 1.66 0 0 1 1.4-1.68l45.92-9.8-25.62-5.46a1.77 1.77 0 0 1-1.4-1.68 1.73 1.73 0 0 1 1.68-1.82h67.62a1.73 1.73 0 0 1 1.68 1.82 1.64 1.64 0 0 1-1.4 1.68l-25.62 5.46zm-2.1 75v-72l-52.36-11.06L409 365.77v72l52.22 11.06zm-35.14-90.3h-34.3l17.08 3.78zm-34.3 108.64h34.3l-17.22-3.78zM559.79 457.75a1.62 1.62 0 0 1-1.68 1.68 1.74 1.74 0 0 1-1.82-1.68v-112a2 2 0 0 1 1.82-1.82h20.16c.14 0 .28.14.42.14l87.78 18.62a1.66 1.66 0 0 1 1.4 1.68v18.76a1.66 1.66 0 0 1-1.4 1.68l-83.58 17.78L667 456.21a1.7 1.7 0 0 1 .84 1.4 1.87 1.87 0 0 1-1.68 2 2.59 2.59 0 0 1-1-.28l-87.36-55.86h-18.01zm104.58-76v-16l-86.24-18.34h-18.34v52.5h18.34z"/></g></svg>