<svg xmlns="http://www.w3.org/2000/svg" viewBox="0 0 700 150"><path fill="#d7ffff" d="M0 0h700v150H0z" data-name="Ebene 1"/><g data-name="Ebene 3"><path d="M46.4 100.5l-3.4 2.4-5.84-29.1h-8.7l-5.34 26.7-3.42 2.4 11.64-58.2 3.42-2.4c3.9 19.38 7.74 38.82 11.64 58.2zM28.94 71.4h7.8L32.84 52zM80.62 79.14V73.8L84 71.4v29.1l-3.36 2.4v-9.72l-7.94 4.56 4.8 2.76-3.42 2.4H63.82l3.36-2.4 1.38-.78-11.28-6.54v-9.72l3.42-2.34 7.86-4.56-4.74-2.76 3.36-2.4H77.5l-3.42 2.4-1.38.78zm0 13.62v-9.3l-11.7-6.72-8.22 4.8v9.3l11.64 6.72zm-11.7 7.14l-1 .6H70zm3.42-25.5l1-.6h-2zM108.91 71.64l16.44 9.48v9.72l-3.42 2.34-16.8 9.72h-6.48V44.7l3.35-2.4h6.54l16.81 9.7v9.72l-3.42 2.34zM102 71.4h6.54l13.38-7.74v-9.3l-16.8-9.66H102zm0 2.4v26.7h6.54l13.38-7.74v-9.3l-16.8-9.66zM165.32 90.84l-3.42 2.34-7.9 4.56 4.8 2.76-3.36 2.4H145.1l3.42-2.4 1.38-.78-7.9-4.56v5.34l-3.36 2.4V44.7l3.36-2.4v38.82l7.92-4.56-4.8-2.76 3.42-2.4h10.26l-3.36 2.4-1.44.78 11.34 6.54zm-3.42-7.38l-11.64-6.72-8.26 4.8v9.3l11.64 6.72 8.28-4.8zM150.26 99.9l-1 .6h2zm3.36-25.5l1.08-.6h-2.1zM204.88 90.84l-3.42 2.34-7.86 4.56 4.74 2.76-3.34 2.4h-10.34l3.42-2.4 1.38-.78-11.28-6.54V54.36l3.36-2.36 7.92-4.56-4.8-2.76 3.42-2.4h10.26L195 44.7l-1.38.78L204.88 52l-3.42 2.34-11.64-6.72-8.28 4.8v38.4l11.7 6.72zm-15.06 9.06l-1 .6h2zm3.42-54.6l1-.6h-2.1zM217.12 93.18v-9.72l3.42-2.34 7.86-4.56-4.74-2.76 3.34-2.4h10.32l-3.42 2.4-1.38.78 11.28 6.54-3.36 2.34-11.7-6.72-8.22 4.8v9.3l11.64 6.72 11.64-6.72-3.36 2.34-7.92 4.56 4.8 2.76-3.42 2.4h-10.24l3.36-2.4 1.38-.78zm11.64 6.72l-1 .6h2.1zm3.42-25.5l1-.6h-2zM263.52 102.9H257V44.7l3.36-2.4h6.54l16.84 9.7v38.84l-3.42 2.34zm-3.12-2.4h6.54l13.38-7.74v-38.4l-16.8-9.66h-3.12zM296.6 93.18v-9.72l3.4-2.34 7.86-4.56-4.74-2.76 3.36-2.4h10.32l-3.42 2.4-1.38.78 7.92 4.56V44.7l3.36-2.4v58.2l-3.36 2.4v-9.72L312 97.74l4.8 2.76-3.42 2.4h-10.24l3.36-2.4 1.38-.78zm23.34-.42v-9.3l-11.7-6.72-8.24 4.8v9.3l11.64 6.72zm-11.7 7.14l-1 .6h2.1zm3.42-25.5l1-.6h-2zM338 102.9V44.7l3.36-2.4h23.34l-3.42 2.4h-19.95v26.7h23.34l-3.42 2.4h-19.92v26.7h23.34l-3.42 2.4zM373.83 93.18v-9.72l3.42-2.34 7.86-4.56-4.74-2.76 3.36-2.4H394l-3.42 2.4-1.38.78 11.28 6.54-3.36 2.34h-19.87v7.38l11.64 6.72 11.64-6.72-3.36 2.34-7.92 4.56 4.8 2.76-3.42 2.4h-10.26l3.36-2.4 1.38-.78zM378 81.12h15l-7.56-4.38zm7.5 18.78l-1 .6h2.1zm3.42-25.5l1-.6h-2zM417.11 71.4h23.34L437 73.8h-19.89v26.7l-3.36 2.4V44.7l3.36-2.4h23.34L437 44.7h-19.89zM473.18 42.3l-3.36 2.4-13.44 7.74v19h16.8l-3.36 2.4h-13.44v26.7L453 102.9V54.36l3.38-2.36zM506.8 71.4v19.44l-3.42 2.34-7.86 4.56 4.74 2.76-3.36 2.4h-10.31l3.42-2.4 1.38-.78-11.28-6.54V54.36l3.36-2.36 7.92-4.56-4.8-2.76L490 42.3h10.26l-3.36 2.4-1.38.78L506.8 52l-3.42 2.34-11.64-6.72-8.28 4.8v38.4l11.7 6.72 8.22-4.8v-19h-11.63l3.42-2.4zm-15.05 28.5l-1 .6h2zm3.42-54.6l1-.6h-2.1zM519.37 93.18v-9.72l3.42-2.34 7.86-4.56-4.74-2.76 3.36-2.4h10.32l-3.42 2.4-1.38.78 7.92 4.56V73.8l3.36-2.4v48.54l-3.36 2.34-7.92 4.56 4.8 2.76-3.42 2.4h-10.26l3.36-2.4 1.38-.78-11.28-6.54 3.42-2.34 11.64 6.72 8.28-4.8V93.18l-7.92 4.56 4.8 2.76-3.42 2.4h-10.26l3.36-2.4 1.38-.78zm23.34-.42v-9.3L531 76.74l-8.22 4.8v9.3l11.64 6.72zM531 99.9l-1 .6h2.1zm0 29.1l-1 .6h2.1zm3.42-54.6l1-.6h-2zM560.74 44.7l3.36-2.4v29.1H584V44.7l3.42-2.4v58.2l-3.42 2.4V73.8h-19.9v26.7l-3.36 2.4zM602.16 54.36l3.42-2.36v2.9l-3.42 2.4zm0 19.44l3.42-2.4v29.1l-3.42 2.4zM632.92 97.74l4.8 2.76-3.42 2.4H624l3.36-2.4 1.38-.78-11.24-6.54 3.42-2.34 11.64 6.72 8.28-4.8V44.7l3.36-2.4v48.54l-3.36 2.34zm-3.78 2.16l-1 .6h2.1zM648.41 132l3.36-2.4 13.44-7.74V73.8l3.36-2.4v48.54l-3.36 2.34zm16.8-77.64l3.36-2.36v2.9l-3.36 2.4z"/></g></svg>