<svg xmlns="http://www.w3.org/2000/svg" viewBox="0 0 700 150"><path fill="#d7ffff" d="M0 0h700v150H0z" data-name="Ebene 1"/><g data-name="Ebene 3"><path d="M56.54 98.16l-9.18 7.74-.54-.66L39.5 75.9h-7.26l-5.58 22.26-9.18 7.74-.54-.66 14.94-60 9.18-7.74.54.66zM34.34 67.5h3.06l-1.56-6.18zM102.52 67.5l.54.66v30l-9.18 7.74-.54-.66v-8.88l-12.72 9.54h-3.36L64 95.88l-.54-.66v-10l9.18-7.68 13.26-10h3.36l7 5.28zm-16.62 30h3.36l4.08-3.06v-9L80.62 75.9h-3.36L73.18 79v9zM114.51 45.24l9.18-7.74h16.61l13.26 10 .54.66v10l-9.18 7.68-3.36 2.58 12 9.06.54.66v10l-9.18 7.68-13.26 10H115l-.54-.66zm9.72 22.26h16.07l4.08-3.06v-9l-12.72-9.54h-7.44zm0 8.4v21.6h16.07l4.08-3.06v-9l-12.72-9.54zM203.57 88.2l-9.18 7.68-13.26 10h-3.36l-7-5.28-6.3 5.28-.54-.66v-60l9.18-7.74.54.66V77l12.72-9.54h3.36l13.26 10 .54.66zm-9.72-2.76l-12.72-9.54h-3.36l-4.08 3.1v9l12.72 9.54h3.36l4.08-3.06zM229.93 105.9h-3.36l-13.26-10-.54-.66v-40l9.18-7.68 13.26-10h3.36l13.26 10 .54.66-9.18 7.74-13.26-10h-3.36L222.49 49v39l12.72 9.54h3.36l13.26-10 .54.72-9.18 7.68zM277.53 75.9h-3.36l-4.08 3.1v9l12.72 9.54h3.36l13.26-10 .54.72-9.18 7.68-13.26 10h-3.36l-13.26-10-.54-.66v-10l9.18-7.68 13.26-10h3.36l13.26 10 .54.66-9.18 7.74zM309.19 105.24v-60l9.18-7.74H335l13.26 10 .54.66v40l-9.18 7.68-13.26 10h-16.63zm9.72-7.74H335l4.08-3.06v-39l-12.73-9.54h-7.44zM374.78 105.9h-3.36l-13.26-10-.54-.66v-10l9.18-7.68 13.26-10h3.36l4.08 3.06V45.24l9.18-7.74.54.66v60L388 105.9l-.54-.66v-8.88zm5.28-8.4h3.36l4.08-3.06v-9l-12.72-9.54h-3.36l-4.08 3.1v9zM409.21 105.9l-.54-.66v-60l9.18-7.74h29.88l.54.66-9.18 7.74h-20.7v21.6h29.34l.54.66-9.18 7.74h-20.7v21.6h29.34l.54.66-9.18 7.74zM477.9 97.5h3.36l13.26-10 .54.72-9.18 7.68-13.26 10h-3.36L456 95.88l-.54-.66v-10l9.18-7.68 13.26-10h3.36l13.26 10 .54.66-9.18 7.74h-20.7v2zm-5.28-21.6h-3.36l-2.1 1.62h7.56zM514 67.5h29.34l.54.66-9.18 7.74H514v22.26l-9.18 7.74-.54-.66v-60l9.18-7.74h29.88l.54.66-9.18 7.74H514zM562 67.5h12.7l.6.66-9.24 7.74H562v22.26l-9.18 7.74-.54-.66v-50l9.18-7.68 13.26-10 .6.66-9.24 7.74L562 49zM619.26 67.5l.54.66v20l-9.18 7.68-13.26 10H594l-13.26-10-.54-.66v-40l9.18-7.68 13.26-10H606l13.26 10 .54.66-9.18 7.74-13.26-10H594l-4.08 3.1v39l12.72 9.54H606l4.08-3.06V75.9h-14.4l-.54-.66 9.18-7.74zM667.27 67.5l.54.66v50l-9.18 7.68-13.26 10H642l-13.26-10-.54-.66 9.18-7.74 13.26 10H654l4.08-3.06V96.36l-12.72 9.54H642l-13.26-10-.54-.66v-10l9.18-7.68 13.26-10H654l7 5.28zm-16.62 30H654l4.08-3.06v-9l-12.7-9.54H642l-4.07 3.1v9z"/></g></svg>