<svg xmlns="http://www.w3.org/2000/svg" viewBox="0 0 700 150"><path fill="#d7ffff" d="M0 0h700v150H0z" data-name="Ebene 1"/><g data-name="Ebene 3"><path d="M22.28 102.6a.93.93 0 0 1-1-.9.36.36 0 0 1 .06-.24l18.66-60a.88.88 0 0 1 .84-.66 1 1 0 0 1 .9.66l18.66 60a.45.45 0 0 1 .06.24.93.93 0 0 1-1 .9.82.82 0 0 1-.78-.66l-9.1-29.34H32.24l-9.12 29.34a.88.88 0 0 1-.84.66zm18.66-57.9l-8.1 26.1H49zM114.48 71.7v30a.9.9 0 0 1-1.8 0v-7.8l-8.46 8.46a.86.86 0 0 1-.6.24h-17.4a.92.92 0 0 1-.6-.24l-10-10a1 1 0 0 1-.24-.66v-10a1.09 1.09 0 0 1 .24-.66l10-10a.86.86 0 0 1 .6-.24h17.4a.92.92 0 0 1 .6.24l8.46 8.46v-7.8a.9.9 0 0 1 1.8 0zm-11.28.9H86.64l-9.48 9.48v9.24l9.48 9.48h16.56l9.48-9.48v-9.24zM134.89 41.7a1 1 0 0 1 .9-.9h27.36a1.09 1.09 0 0 1 .66.24l10 10a1.09 1.09 0 0 1 .3.66v10a1.13 1.13 0 0 1-.3.66l-9.36 9.36 9.36 9.36a1.1 1.1 0 0 1 .3.66v10a1.13 1.13 0 0 1-.3.66l-10 10a1 1 0 0 1-.66.24h-27.36a.92.92 0 0 1-.9-.9zm37.38 19.62v-9.24l-9.48-9.48h-26.1v28.2h26.1zM136.69 72.6v28.2h26.1l9.48-9.48v-9.24l-9.48-9.48zM194.92 41.7v37.8l8.46-8.5a1.09 1.09 0 0 1 .66-.24h17.34a1 1 0 0 1 .62.24l10 10a1 1 0 0 1 .3.66v10a1.09 1.09 0 0 1-.3.66l-10 10a1.09 1.09 0 0 1-.66.24H204a1 1 0 0 1-.66-.24l-8.46-8.46v7.8a.9.9 0 1 1-1.8 0v-60a.9.9 0 0 1 1.8 0zM221 72.6h-16.6l-9.48 9.48v9.24l9.48 9.48H221l9.48-9.48v-9.24zM288.89 90.78a1 1 0 0 1 1 1 .86.86 0 0 1-.24.6l-10 10a1 1 0 0 1-.66.24h-17.4a.92.92 0 0 1-.6-.24l-10-10a1 1 0 0 1-.24-.66v-40a1.09 1.09 0 0 1 .24-.66l10-10a.86.86 0 0 1 .6-.24h17.34a1.09 1.09 0 0 1 .66.24l10 10a.86.86 0 0 1 .24.6 1 1 0 0 1-1 1 1 1 0 0 1-.6-.3l-9.72-9.72h-16.56l-9.42 9.48v39.2l9.42 9.48h16.62l9.72-9.72a1 1 0 0 1 .6-.3zM346.37 81.66a1 1 0 0 1-.9 1 1 1 0 0 1-.6-.3l-9.78-9.72h-16.56l-9.48 9.48v9.24l9.48 9.48h16.56l9.78-9.72a1 1 0 0 1 .6-.3 1 1 0 0 1 .9 1 .86.86 0 0 1-.24.6l-10 10a.92.92 0 0 1-.6.24h-17.4a.86.86 0 0 1-.6-.24l-10-10a1.09 1.09 0 0 1-.24-.66v-10a1 1 0 0 1 .24-.66l10-10a.92.92 0 0 1 .6-.24h17.4a.86.86 0 0 1 .6.24l10 10a.86.86 0 0 1 .24.56zM365.32 41.7a1 1 0 0 1 .9-.9h27.36a1.09 1.09 0 0 1 .66.24l10 10a1.09 1.09 0 0 1 .3.66v40a1.14 1.14 0 0 1-.3.66l-10 10a1 1 0 0 1-.66.24h-27.36a.88.88 0 0 1-.9-.9zm27.9 59.1l9.48-9.48V52.08l-9.48-9.48h-26.1v58.2zM462 41.7v60a.9.9 0 0 1-1.8 0v-7.8l-8.46 8.46a.92.92 0 0 1-.6.24h-17.4a.86.86 0 0 1-.6-.24l-10-10a1.09 1.09 0 0 1-.24-.66v-10a1 1 0 0 1 .24-.66l10-10a.91.91 0 0 1 .6-.24h17.4a.86.86 0 0 1 .6.24l8.46 8.46V41.7a.9.9 0 0 1 1.8 0zm-11.24 30.9h-16.55l-9.48 9.48v9.24l9.48 9.48h16.56l9.48-9.48v-9.24zM520.73 102.6h-37.38a.88.88 0 0 1-.9-.9v-60a.88.88 0 0 1 .9-.9h37.38a.9.9 0 0 1 0 1.8h-36.48v28.2h36.48a.9.9 0 0 1 0 1.8h-36.48v28.2h36.48a.9.9 0 0 1 0 1.8zM573.18 82.62h-36.36v8.7l9.48 9.48h16.56l9.78-9.72a1 1 0 0 1 .6-.3 1 1 0 0 1 .9 1 .86.86 0 0 1-.24.6l-10 10a.92.92 0 0 1-.6.24h-17.4a.86.86 0 0 1-.6-.24l-10-10a1.09 1.09 0 0 1-.24-.66v-10a1.09 1.09 0 0 1 .24-.66l10-10a.91.91 0 0 1 .6-.24h17.4a.86.86 0 0 1 .6.24l10 10a.77.77 0 0 1 .24.6v.06a.9.9 0 0 1-.96.9zm-10.32-10H546.3l-8.22 8.22h33zM593.09 101.7v-60a.88.88 0 0 1 .9-.9h37.38a.9.9 0 1 1 0 1.8h-36.48v28.2h36.48a.9.9 0 1 1 0 1.8h-36.48v29.1a.9.9 0 1 1-1.8 0zM661 40.8a1 1 0 0 1 .9 1 .86.86 0 0 1-.24.6L652 52.08V70.8h9a.9.9 0 1 1 0 1.8h-9v29.1a1 1 0 0 1-1 .9.87.87 0 0 1-.84-.9v-50a1 1 0 0 1 .24-.66l10-10a.86.86 0 0 1 .6-.24z"/></g></svg>