<svg xmlns="http://www.w3.org/2000/svg" viewBox="0 0 700 150"><path fill="#d7ffff" d="M0 0h700v150H0z" data-name="Ebene 1"/><g data-name="Ebene 3"><path d="M19 101.7a2.64 2.64 0 0 1 .12-1l18.66-60a3.29 3.29 0 0 1 6.3 0l18.72 60a2.64 2.64 0 0 1 .12 1 3.29 3.29 0 0 1-3.3 3.3 3.41 3.41 0 0 1-3.18-2.34L47.84 75H34l-8.6 27.66a3.41 3.41 0 0 1-3.18 2.34 3.24 3.24 0 0 1-3.22-3.3zm22-48.9l-4.92 15.6h9.72zM117.43 71.7v30a3.3 3.3 0 0 1-6.6 0v-2l-4.38 4.3a3.34 3.34 0 0 1-2.28 1h-17.4a3.32 3.32 0 0 1-2.28-1l-10-10a3.47 3.47 0 0 1-1-2.34v-10a3.47 3.47 0 0 1 1-2.34l10-10a3.34 3.34 0 0 1 2.28-1h17.4a3.31 3.31 0 0 1 2.28 1l4.38 4.38v-2a3.3 3.3 0 0 1 6.6 0zM102.79 75H88.15l-8 8v7.32l8 8h14.64l8-8V83zM133.4 41.7a3.45 3.45 0 0 1 3.3-3.3h27.36a3.47 3.47 0 0 1 2.34 1l10 10a3.48 3.48 0 0 1 1 2.34v10a3.46 3.46 0 0 1-1 2.34l-7.68 7.68 7.68 7.68a3.48 3.48 0 0 1 1 2.34v10a3.47 3.47 0 0 1-1 2.34l-10 10a3.47 3.47 0 0 1-2.34 1H136.7a3.33 3.33 0 0 1-3.3-3.3zm37.38 18.66V53l-8.1-8H140v23.4h22.68zM140 75v23.4h22.68l8.1-8V83l-8.1-8zM198.7 41.7v32l4.38-4.38a3.47 3.47 0 0 1 2.34-1h17.34a3.48 3.48 0 0 1 2.34 1l10 10a3.47 3.47 0 0 1 1 2.34v10a3.47 3.47 0 0 1-1 2.34l-10 10a3.47 3.47 0 0 1-2.34 1h-17.34a3.47 3.47 0 0 1-2.34-1l-4.38-4.38v2a3.3 3.3 0 0 1-6.6 0v-60a3.3 3.3 0 0 1 6.6 0zM221.38 75H206.8l-8.1 8v7.32l8.1 8h14.58l8.1-8V83zM294 91.68a3.27 3.27 0 0 1-1 2.32l-10 10a3.47 3.47 0 0 1-2.34 1h-17.31a3.47 3.47 0 0 1-2.34-1L251 94a3.47 3.47 0 0 1-1-2.34v-40a3.47 3.47 0 0 1 1-2.34l10-10a3.47 3.47 0 0 1 2.34-1h17.34a3.47 3.47 0 0 1 2.34 1l10 10A3.27 3.27 0 0 1 290.7 55a3.2 3.2 0 0 1-2.34-.9l-9-9.06h-14.63l-8 8v37.32l8 8h14.64l9-9.06a3.2 3.2 0 0 1 2.34-.9 3.28 3.28 0 0 1 3.29 3.28zM347.61 85a3.21 3.21 0 0 1-2.34-.9l-9-9.06h-14.63l-8 8v7.32l8 8h14.64l9-9.06a3.2 3.2 0 0 1 2.34-.9A3.27 3.27 0 0 1 350 94l-10 10a3.32 3.32 0 0 1-2.28 1h-17.4a3.34 3.34 0 0 1-2.28-1L308 94a3.47 3.47 0 0 1-1-2.34v-10a3.48 3.48 0 0 1 1-2.34l10-10a3.32 3.32 0 0 1 2.28-1h17.4a3.34 3.34 0 0 1 2.28 1l10 10a3.27 3.27 0 0 1-2.35 5.68zM365.45 41.7a3.45 3.45 0 0 1 3.3-3.3h27.36a3.47 3.47 0 0 1 2.34 1l10 10a3.47 3.47 0 0 1 1 2.34v40a3.47 3.47 0 0 1-1 2.34l-10 10a3.47 3.47 0 0 1-2.34 1h-27.36a3.37 3.37 0 0 1-3.3-3.3zm29.28 56.7l8.1-8V53l-8.1-8H372v53.4zM467.35 41.7v60a3.3 3.3 0 0 1-6.6 0v-2l-4.37 4.3a3.32 3.32 0 0 1-2.28 1h-17.4a3.34 3.34 0 0 1-2.28-1l-10-10a3.46 3.46 0 0 1-1-2.34v-10a3.48 3.48 0 0 1 1-2.34l10-10a3.31 3.31 0 0 1 2.28-1h17.4a3.34 3.34 0 0 1 2.28 1l4.38 4.38v-32a3.3 3.3 0 0 1 6.6 0zM452.71 75h-14.63l-8 8v7.32l8 8h14.64l8-8V83zM524 105h-37.38a3.37 3.37 0 0 1-3.3-3.3v-60a3.37 3.37 0 0 1 3.3-3.3H524a3.3 3.3 0 1 1 0 6.6h-34.08v23.4H524a3.3 3.3 0 0 1 0 6.6h-34.08v23.4H524a3.3 3.3 0 1 1 0 6.6zM581.1 91.68a3.27 3.27 0 0 1-1 2.34l-10 10a3.32 3.32 0 0 1-2.28 1h-17.4a3.34 3.34 0 0 1-2.28-1l-10-10a3.47 3.47 0 0 1-1-2.34v-10a3.47 3.47 0 0 1 1-2.34l10-10a3.32 3.32 0 0 1 2.28-1h17.4a3.34 3.34 0 0 1 2.28 1l10 10a3.31 3.31 0 0 1-2.3 5.66h-34v5.34l8 8h14.64l9-9.06a3.2 3.2 0 0 1 2.34-.9 3.28 3.28 0 0 1 3.32 3.3zM566.46 75h-14.64l-3.36 3.42h21.36zM595.63 101.7v-60a3.37 3.37 0 0 1 3.3-3.3h37.38a3.3 3.3 0 1 1 0 6.6h-34.08v23.4h34.08a3.3 3.3 0 1 1 0 6.6h-34.08v26.7a3.3 3.3 0 1 1-6.6 0zM669.66 41.7a3.26 3.26 0 0 1-1 2.34l-9 9V68.4h6.66a3.3 3.3 0 0 1 0 6.6h-6.62v26.7a3.38 3.38 0 0 1-3.36 3.3 3.28 3.28 0 0 1-3.24-3.3v-50a3.48 3.48 0 0 1 1-2.34l10-10a3.27 3.27 0 0 1 2.34-1 3.33 3.33 0 0 1 3.22 3.34z"/></g></svg>