<svg xmlns="http://www.w3.org/2000/svg" viewBox="0 0 700 150"><path fill="#d7ffff" d="M0 0h700v150H0z" data-name="Ebene 1"/><g data-name="Ebene 3"><path d="M22.34 103.14a1.53 1.53 0 0 1-1.62-1.38 1.41 1.41 0 0 1 .12-.48l18.66-60a1.38 1.38 0 0 1 1.38-1 1.5 1.5 0 0 1 1.5 1l18.66 60a1.17 1.17 0 0 1 .06.42 1.53 1.53 0 0 1-1.56 1.44 1.38 1.38 0 0 1-1.38-1l-9-28.92H32.72l-9.06 28.92a1.32 1.32 0 0 1-1.32 1zm18.6-56.4L33.62 70.2H48.2zM115.24 71.7v30a1.5 1.5 0 1 1-3 0v-6.36l-7.44 7.44a1.41 1.41 0 0 1-1 .42H86.38a1.45 1.45 0 0 1-1-.42l-10-10a1.54 1.54 0 0 1-.42-1.08v-10a1.6 1.6 0 0 1 .42-1.08l10-10a1.4 1.4 0 0 1 1-.42h17.4a1.45 1.45 0 0 1 1 .42l7.44 7.44V71.7a1.5 1.5 0 0 1 3 0zm-12.12 1.5H87l-9.12 9.12v8.76L87 100.2h16.08l9.12-9.12v-8.76zM134.55 41.7a1.56 1.56 0 0 1 1.5-1.5h27.35a1.6 1.6 0 0 1 1.08.42l10 10a1.61 1.61 0 0 1 .48 1.08v10a1.65 1.65 0 0 1-.48 1.08l-8.98 8.92 8.94 8.94a1.61 1.61 0 0 1 .48 1.08v10a1.65 1.65 0 0 1-.48 1.08l-10 10a1.54 1.54 0 0 1-1.08.42H136a1.49 1.49 0 0 1-1.5-1.5zm37.38 19.38v-8.76l-9.13-9.12h-25.26v27h25.26zM137.54 73.2v27h25.26l9.12-9.12v-8.76l-9.12-9.12zM195.88 41.7v36.36l7.44-7.44a1.6 1.6 0 0 1 1.08-.42h17.34a1.54 1.54 0 0 1 1.08.42l10 10a1.64 1.64 0 0 1 .48 1.08v10a1.61 1.61 0 0 1-.48 1.08l-10 10a1.6 1.6 0 0 1-1.08.42H204.4a1.54 1.54 0 0 1-1.08-.42l-7.44-7.44v6.36a1.5 1.5 0 1 1-3 0v-60a1.5 1.5 0 1 1 3 0zm25.26 31.5H205l-9.12 9.12v8.76l9.12 9.12h16.14l9.12-9.12v-8.76zM290.9 91.68a1.54 1.54 0 0 1-.42 1.08l-10 10a1.54 1.54 0 0 1-1.08.42H262a1.6 1.6 0 0 1-1.08-.42l-10-10a1.54 1.54 0 0 1-.42-1.08v-40a1.6 1.6 0 0 1 .42-1.08l10-10a1.54 1.54 0 0 1 1.08-.4h17.34a1.6 1.6 0 0 1 1.08.42l10 10a1.54 1.54 0 0 1 .42 1.08 1.49 1.49 0 0 1-1.5 1.5 1.61 1.61 0 0 1-1.08-.48l-9.54-9.54H262.7l-9.12 9.12v38.78l9.12 9.12h16.08l9.54-9.54a1.61 1.61 0 0 1 1.08-.48 1.49 1.49 0 0 1 1.5 1.5zM346 83.22a1.48 1.48 0 0 1-1-.48l-9.6-9.54h-16.08l-9.12 9.12v8.76l9.12 9.12h16.08l9.6-9.54a1.44 1.44 0 0 1 2.52 1 1.54 1.54 0 0 1-.42 1.08l-10 10a1.45 1.45 0 0 1-1 .42h-17.4a1.41 1.41 0 0 1-1-.42l-10-10a1.6 1.6 0 0 1-.42-1.08v-10a1.54 1.54 0 0 1 .42-1.08l10-10a1.45 1.45 0 0 1 1-.42h17.4a1.4 1.4 0 0 1 1 .42l10 10a1.54 1.54 0 0 1 .42 1.08 1.48 1.48 0 0 1-1.52 1.56zM365.36 41.7a1.56 1.56 0 0 1 1.5-1.5h27.36a1.6 1.6 0 0 1 1.08.42l10 10a1.62 1.62 0 0 1 .48 1.08v40a1.65 1.65 0 0 1-.48 1.08l-10 10a1.54 1.54 0 0 1-1.08.42h-27.36a1.52 1.52 0 0 1-1.5-1.5zm28.26 58.5l9.12-9.12V52.32l-9.12-9.12h-25.26v57zM463.38 41.7v60a1.5 1.5 0 1 1-3 0v-6.36l-7.44 7.44a1.45 1.45 0 0 1-1 .42h-17.4a1.41 1.41 0 0 1-1-.42l-10-10a1.6 1.6 0 0 1-.42-1.08v-10a1.54 1.54 0 0 1 .42-1.08l10-10a1.45 1.45 0 0 1 1-.42h17.4a1.41 1.41 0 0 1 1 .42l7.44 7.44V41.7a1.5 1.5 0 0 1 3 0zm-12.12 31.5h-16.08l-9.12 9.12v8.76l9.12 9.12h16.08l9.12-9.12v-8.76zM521.56 103.2h-37.37a1.52 1.52 0 0 1-1.5-1.5v-60a1.52 1.52 0 0 1 1.5-1.5h37.38a1.5 1.5 0 0 1 0 3h-35.88v27h35.88a1.5 1.5 0 1 1 0 3h-35.88v27h35.88a1.5 1.5 0 0 1 0 3zM575.9 91.68a1.54 1.54 0 0 1-.42 1.08l-10 10a1.45 1.45 0 0 1-1 .42H547a1.4 1.4 0 0 1-1-.42l-10-10a1.6 1.6 0 0 1-.42-1.08v-10a1.6 1.6 0 0 1 .42-1.08l10-10a1.44 1.44 0 0 1 1-.42h17.4a1.4 1.4 0 0 1 1 .42l10 10a1.53 1.53 0 0 1-1.08 2.58h-35.74v7.86l9.12 9.12h16.08l9.6-9.54a1.44 1.44 0 0 1 2.52 1zM563.78 73.2H547.7l-7 7h30.1zM593.74 101.7v-60a1.52 1.52 0 0 1 1.5-1.5h37.38a1.5 1.5 0 0 1 0 3h-35.88v27h35.88a1.5 1.5 0 1 1 0 3h-35.88v28.5a1.5 1.5 0 1 1-3 0zM663.88 41.7a1.54 1.54 0 0 1-.42 1.08l-9.54 9.54V70.2h8.46a1.5 1.5 0 1 1 0 3h-8.46v28.5a1.54 1.54 0 0 1-1.56 1.5 1.44 1.44 0 0 1-1.44-1.5v-50a1.54 1.54 0 0 1 .42-1.08l10-10a1.54 1.54 0 0 1 1.08-.42 1.49 1.49 0 0 1 1.46 1.5z"/></g></svg>