<svg xmlns="http://www.w3.org/2000/svg" viewBox="0 0 700 500"><path fill="#d7ffff" d="M0 0h700v500H0z" data-name="Ebene 2"/><g data-name="Ebene 1"><path d="M129.87 94.44v43.29l-24.05 21.71L95.68 162H62.92l-24.05-21.53V53.75L62.92 32l10-2.6h32.89L129.87 51l-10.14 2.73L95.68 32H69.94L48.88 51v86.71l24.05 21.71h25.74l21.06-19V97H79.3l10-2.6zM225.29 29.44L249.34 51v21.73l-24.05 21.71 24.05 65-10 2.6L215.28 97h-46.8v62.4l-10 2.6V32l10-2.6zm-56.81 65h49.79l21.06-19V53.75L215.28 32h-46.8zM275.34 32l10.14-2.6v130l-10.14 2.6zM328.9 159.45l-10 2.6V32l10-2.6L373.49 89 416 32l10-2.6v130l-10 2.6V42.83l-38.48 51.61L367.38 97 328.9 45.56zM120.12 312.45L110 315l-20.17-65H58.5l-19.37 62.4-10 2.6 40.42-130 10-2.6q20.29 64.98 40.57 130.05zm-60.71-65h29.51l-14.69-47.59zM151.45 312.45l-10 2.6V185l10-2.6 70.85 113.93V185l10-2.6v130l-10 2.6-70.85-113.84zM266 315V185l10-2.6h56.8l24.05 21.6v86.71l-24.05 21.74-10 2.6zm10-2.6h49.79l21.06-19v-86.65L322.79 185H276zM26.65 338l10-2.6h81l-10 2.6H77.22v127.45L67.08 468V338zM197.08 335.44L221.13 357v86.71l-24.05 21.71-10.14 2.58h-32.76l-24.05-21.58v-86.67L154.18 338l10-2.6zm13.91 111v-86.69L186.94 338H161.2l-21.06 19v86.71l24.05 21.71h25.74zM259.74 443.74l24.05 21.71h25.74l21.06-19V338l10.14-2.6v108.34l-24.05 21.71-10.14 2.55h-32.76l-24.05-21.58V338l10-2.6zM460.33 400.44v43.29l-24.05 21.71-10.14 2.56h-32.76l-24.05-21.58v-86.67L393.38 338l10-2.6h32.89l24.06 21.6-10.14 2.73L426.14 338H400.4l-21.06 19v86.71l24.05 21.71h25.74l21.06-19V403h-40.43l10-2.6zM488.93 338l10-2.6v65h70.85V338l10-2.6v130l-10 2.6v-65h-70.84v62.4l-10 2.6z"/></g></svg>