<svg xmlns="http://www.w3.org/2000/svg" viewBox="0 0 700 150"><path fill="#d7ffff" d="M0 0h700v150H0z" data-name="Ebene 1"/><g data-name="Ebene 3"><path d="M32.24 38.7h.6c3.72 20 7.5 40 11.22 60v6h-.6l-5.58-30H27.26l-5.58 30h-.6v-6zm-3.84 30h8.34l-4.2-22.38zM80.14 68.7v36h-23v-36zm-.6 6H57.7v24h21.84zM95.08 38.7h23v66h-23zm22.38 6H95.68v24h21.78zm-21.78 30v24h21.78v-24zM155.69 104.7h-23v-66h.6v30h22.38zm-.6-30h-21.78v24h21.78zM193 104.7h-23v-66h23v16h-.6v-10h-21.77v54h21.78v-10h.6zM229.15 74.7h-21.84v24h21.84v-10h.6v16h-23v-36h23v16h-.6zM244.4 104.7v-66h23v66zm22.38-6v-54H245v54zM304.13 38.7h.6v66h-23v-36h22.44zm-21.84 36v24h21.84v-24zM319.68 104.7v-66h23v6h-22.4v24h22.38v6h-22.38v24h22.38v6zM379.4 84.72H357v14h21.8v-10h.6v16h-23v-36h23zm-.6-10H357v4h21.8zM394 38.7h23v6h-22.35v24H417v6h-22.35v30H394zM431.66 104.7h-.6v-66h.6zM470.59 68.7v36h-23v-66h23v16H470v-10h-21.79v54H470v-24h-11.23v-6zM484.6 104.7v-36h23v66h-23v-16h.6v10H507v-24zm.6-30v24H507v-24zM523.19 74.7v30h-.6v-66h.6v30H545v-30h.6v66h-.6v-30zM560.85 38.7h.6v30h22.38v36h-.6v-30h-21.78v30h-.6zM598.45 38.7h.6v66h-.6zM614 48.72h.6v9h-.6zm0 20h.6v36h-.6zM628.57 98.7h21.78v-60h.6v66H628v-16h.6zM666 48.72h.6v9h-.6zm0 20h.6v66h-.6z"/></g></svg>