<svg xmlns="http://www.w3.org/2000/svg" viewBox="0 0 700 150"><path fill="#d7ffff" d="M0 0h700v150H0z" data-name="Ebene 1"/><g data-name="Ebene 3"><path d="M32.78 47.4h18q9.72 27 19.38 54v.6h-18L42.5 75h-1.44l-9.72 27h-18v-.6zm8.46 27h1l-.46-1.4zM134 74.4V102H90l-12.9-9v-9.6l12.9-9zm-18 18V84l-10.44-7.32L95.08 84v8.4l10.44 7.32zM146.5 47.4h44l12.84 9V66l-12.44 8.7 12.42 8.7V93l-12.84 9h-44zm38.82 18V57l-12.84-9h-8v26.4h8zM164.5 75v26.4h8l12.84-9V84l-12.84-9zM271.38 93l-12.84 9h-44V47.4h18v27h26l12.84 9zm-18-.6V84l-10.44-7.32L232.57 84v8.4l10.38 7.32zM325.93 102h-31.14L282 93V56.4l12.84-9h31.14l12.84 9v.6h-18l-10.38-7.32L300 57v35.4l10.44 7.32 10.38-7.32h18v.6zM387.14 92.4h18v.6l-12.84 9h-31.14l-12.9-9v-9.6l12.9-9h31.14l12.84 9v.6h-18l-10.44-7.32L366.26 84v8.4l10.44 7.32zM416.26 102V47.4h44l12.84 9V93l-12.84 9zm26-.6l12.84-9V57l-12.84-9h-8v53.4zM522.52 47.4h18V102h-44l-12.9-9v-9.6l12.9-9h26zm0 45V84l-10.44-7.32L501.64 84v8.4l10.44 7.32zM553.06 102V47.4h56.82v.6h-38.82v26.4h38.82v.6h-38.82v26.4h38.82v.6zM654.62 92.4h18v.6l-12.84 9h-31.14l-12.9-9v-9.6l12.9-9h31.14l12.84 9v.6h-38.88v8.4l10.44 7.32zm-20-9h19.14l-9.6-6.72z"/></g></svg>