<svg xmlns="http://www.w3.org/2000/svg" viewBox="0 0 700 500"><path fill="#d7ffff" d="M0 0h700v500H0z" data-name="Ebene 2"/><g data-name="Ebene 1"><path d="M28.22 55.33a1.18 1.18 0 0 1 0-.29l7.68-24.61a1 1 0 0 1 .94-.69 1 1 0 0 1 .94.69L45.45 55a1.23 1.23 0 0 1 0 .29 1 1 0 0 1-1 1 1 1 0 0 1-.94-.69L40 44h-6.2l-3.66 11.63a1 1 0 0 1-1 .69 1 1 0 0 1-.92-.99zM36.86 34l-2.51 8h5zM49.46 30.72a1 1 0 0 1 1-1h11.21a1.05 1.05 0 0 1 .69.29l4.11 4.09a1.07 1.07 0 0 1 .3.71v4.09a1.11 1.11 0 0 1-.3.71L63.07 43l3.4 3.4a1.08 1.08 0 0 1 .3.71v4.09a1.12 1.12 0 0 1-.3.71L62.36 56a1 1 0 0 1-.69.29H50.45a1 1 0 0 1-1-1zm15.33 7.8v-3.3l-3.52-3.52h-9.84V42h9.85zM51.43 44v10.35h9.85l3.52-3.52v-3.3L61.28 44zM88.94 51.22a1 1 0 0 1-.3.71L84.56 56a1.08 1.08 0 0 1-.71.29h-7.12A1 1 0 0 1 76 56l-4.11-4.09a1.07 1.07 0 0 1-.3-.71V34.83a1.12 1.12 0 0 1 .3-.71L76 30a1 1 0 0 1 .69-.29h7.11a1.12 1.12 0 0 1 .71.29l4.09 4.09a1 1 0 0 1 .3.71 1 1 0 0 1-1 1 1 1 0 0 1-.69-.3l-3.81-3.81h-6.3l-3.5 3.53v15.6l3.54 3.52h6.3l3.81-3.82a1 1 0 0 1 .69-.29 1 1 0 0 1 1 .99zM93.83 30.72a1 1 0 0 1 1-1H106a1.05 1.05 0 0 1 .69.29l4.11 4.09a1.07 1.07 0 0 1 .3.71v16.41a1.12 1.12 0 0 1-.3.71L106.73 56a1 1 0 0 1-.69.29H94.82a1 1 0 0 1-1-1zm11.81 23.63l3.52-3.52V35.22l-3.52-3.52H95.8v22.65zM133.26 56.32h-15.33a1 1 0 0 1-1-1v-24.6a1 1 0 0 1 1-1h15.33a1 1 0 1 1 0 2h-14.35V42h14.35a1 1 0 1 1 0 2h-14.35v10.35h14.35a1 1 0 1 1 0 2zM139.12 55.33V30.72a1 1 0 0 1 1-1h15.33a1 1 0 1 1 0 2h-14.36V42h14.35a1 1 0 1 1 0 2h-14.35v11.33a1 1 0 0 1-2 0zM177.14 35.82a1 1 0 0 1-.69-.3l-3.81-3.81h-6.3l-3.54 3.52v15.6l3.54 3.52h6.3l3.52-3.52V44h-6.67a1 1 0 0 1 0-2h7.65a1 1 0 0 1 1 1v8.2a1.12 1.12 0 0 1-.3.71L173.75 56a1.08 1.08 0 0 1-.71.29h-7.11a1 1 0 0 1-.69-.29l-4.11-4.09a1.07 1.07 0 0 1-.3-.71V34.83a1.12 1.12 0 0 1 .3-.71l4.1-4.12a1 1 0 0 1 .69-.29H173a1.12 1.12 0 0 1 .71.29l4.09 4.09a1 1 0 0 1 .3.71 1 1 0 0 1-.96 1.02zM183.47 55.33V30.72a1 1 0 1 1 2 0V42h13.33V30.72a1 1 0 0 1 2 0v24.61a1 1 0 0 1-2 0V44h-13.36v11.33a1 1 0 0 1-2 0zM207 55.33V30.72a1 1 0 1 1 2 0v24.61a1 1 0 0 1-2 0zM213.94 50.24a1 1 0 0 1 .69.29l3.81 3.82h6.3l3.52-3.52V30.72a1 1 0 1 1 2 0v20.5a1.07 1.07 0 0 1-.3.71L225.85 56a1.12 1.12 0 0 1-.71.29H218a1 1 0 0 1-.69-.29l-4.11-4.09a1 1 0 0 1-.27-.71 1 1 0 0 1 1.01-.96zM252.35 56.32a.94.94 0 0 1-.62-.22L238 45.07v10.26a1 1 0 0 1-2 0V30.72a1 1 0 0 1 2 0V41l13.73-11a.94.94 0 0 1 .62-.22 1 1 0 0 1 1 1 1 1 0 0 1-.37.76L238.6 43 253 54.57a1 1 0 0 1 .37.76 1 1 0 0 1-1.02.99zM273.62 56.32h-15.34a1 1 0 0 1-1-1v-24.6a1 1 0 1 1 2 0v23.63h14.35a1 1 0 1 1 0 2zM298.94 30.72v24.61a1 1 0 0 1-2 0V33.67l-7.43 9.94a1 1 0 0 1-1.58 0l-7.43-9.94v21.66a1 1 0 1 1-2 0V30.72a1 1 0 0 1 1-1 .89.89 0 0 1 .76.37l8.42 11.25 8.42-11.25a1 1 0 0 1 .79-.39 1 1 0 0 1 1.05 1.02zM321.54 56.32a1 1 0 0 1-.84-.47l-13.51-21.68v21.16a1 1 0 0 1-2 0V30.72a1 1 0 0 1 1-1 1 1 0 0 1 .81.44l13.51 21.68V30.72a1 1 0 0 1 2 0v24.61a1 1 0 0 1-.97.99zM341.25 56a1.08 1.08 0 0 1-.71.29h-7.11a1 1 0 0 1-.69-.29l-4.11-4.09a1.07 1.07 0 0 1-.3-.71V34.83a1.12 1.12 0 0 1 .3-.71l4.1-4.12a1 1 0 0 1 .69-.29h7.11a1.12 1.12 0 0 1 .71.29l4.09 4.09a1.07 1.07 0 0 1 .3.71v16.42a1.12 1.12 0 0 1-.3.71zm2.41-20.8l-3.52-3.52h-6.3l-3.54 3.52v15.6l3.54 3.52h6.3l3.52-3.52zM353.41 55.33a1 1 0 0 1-2 0V30.72a1 1 0 0 1 1-1h11.22a1 1 0 0 1 .69.29l4.11 4.09a1.07 1.07 0 0 1 .3.71v4.09a1.11 1.11 0 0 1-.3.71l-4.11 4.09a1 1 0 0 1-.69.3h-10.22zM363.25 42l3.52-3.52v-3.3l-3.52-3.52h-9.84V42zM389 56.32a1 1 0 0 1-.69-.29L387 54.67 385.62 56a1.07 1.07 0 0 1-.71.29h-7.11a1 1 0 0 1-.69-.29L373 51.94a1.07 1.07 0 0 1-.29-.71v-16.4a1.12 1.12 0 0 1 .29-.71l4.11-4.12a1 1 0 0 1 .69-.29h7.11a1.11 1.11 0 0 1 .71.29l4.09 4.09a1.07 1.07 0 0 1 .29.71v16.42a1.12 1.12 0 0 1-.29.71l-1.35 1.35 1.35 1.35a1 1 0 0 1 .29.69 1 1 0 0 1-1 1zm-4.11-6.08a1 1 0 0 1 .71.29l1.4 1.36 1-1.06V35.22l-3.52-3.52h-6.3l-3.54 3.52v15.6l3.54 3.52h6.3l1.06-1.06-1.35-1.35a1 1 0 0 1-.3-.71 1 1 0 0 1 1.02-.98zM412.13 56.32a1 1 0 0 1-.94-.66L407.3 44h-9.52v11.33a1 1 0 0 1-2 0V30.72a1 1 0 0 1 1-1H408a1.05 1.05 0 0 1 .69.29l4.11 4.09a1.08 1.08 0 0 1 .29.71v4.09a1.11 1.11 0 0 1-.29.71l-3.67 3.67L413.06 55a1.45 1.45 0 0 1 0 .32 1 1 0 0 1-.93 1zm-1-17.79v-3.3l-3.52-3.52h-9.84V42h9.84zM417.59 50.24a1 1 0 0 1 .69.29l3.81 3.82h6.3l3.52-3.52v-3.1l-14.79-7.93a1.07 1.07 0 0 1-.52-.89v-4.08a1.11 1.11 0 0 1 .3-.71L421 30a1.08 1.08 0 0 1 .71-.29h7.11a1.05 1.05 0 0 1 .69.29l4.11 4.09a1 1 0 0 1 .27.71 1 1 0 0 1-1 1 1 1 0 0 1-.69-.3l-3.82-3.81h-6.3l-3.52 3.52v3.1l14.79 7.92a1 1 0 0 1 .52.89v4.09a1 1 0 0 1-.27.71L429.5 56a1.05 1.05 0 0 1-.69.29h-7.11a1.08 1.08 0 0 1-.7-.29l-4.08-4.09a1 1 0 0 1-.3-.71 1 1 0 0 1 .97-.96zM443.68 55.33V31.71H437a1 1 0 0 1 0-2h15.31a1 1 0 0 1 0 2h-6.67v23.62a1 1 0 0 1-2 0zM458.32 30.72v20.11l3.54 3.52h6.3l3.52-3.52V30.72a1 1 0 1 1 2 0v20.5a1.07 1.07 0 0 1-.29.71L469.27 56a1.11 1.11 0 0 1-.71.29h-7.11a1 1 0 0 1-.69-.29l-4.11-4.09a1.12 1.12 0 0 1-.29-.71V30.72a1 1 0 1 1 2 0zM477.67 29.74a1 1 0 0 1 1 .69L485.34 52l6.72-21.59a1 1 0 0 1 1-.69 1 1 0 0 1 1 1 1.23 1.23 0 0 1 0 .29l-7.65 24.61a1 1 0 0 1-1 .67.91.91 0 0 1-.91-.67L476.75 31a1.23 1.23 0 0 1 0-.29 1 1 0 0 1 .92-.97zM498.17 29.74a1 1 0 0 1 1 .76l4.73 21.66 4.1-9.53a1 1 0 0 1 1.8 0l4.2 9.53 4.73-21.66a1 1 0 0 1 1-.76 1 1 0 0 1 1 1 .69.69 0 0 1 0 .22l-5.37 24.61a1 1 0 0 1-1 .74.91.91 0 0 1-.86-.57l-4.6-10.25-4.46 10.24a1 1 0 0 1-.91.57.92.92 0 0 1-1-.74l-5.37-24.61a.69.69 0 0 1 0-.22 1 1 0 0 1 1.01-.99zM523.22 55.33a1 1 0 0 1 .15-.52L530.7 43l-7.33-11.79a1 1 0 0 1-.15-.52 1 1 0 0 1 1-1 1 1 0 0 1 .84.47l6.82 11 6.84-11a1 1 0 0 1 .84-.47 1 1 0 0 1 1 1 1 1 0 0 1-.15.52L533 43l7.33 11.79a1 1 0 0 1 .15.52 1 1 0 0 1-1 1 1 1 0 0 1-.84-.47l-6.84-11-6.82 11a1 1 0 0 1-.84.47 1 1 0 0 1-.92-.98zM559.47 30.72a1 1 0 0 1-.15.52l-7.5 12.06v12a1 1 0 1 1-2 0v-12l-7.51-12.06a1 1 0 0 1-.15-.52 1 1 0 0 1 1-1 1.07 1.07 0 0 1 .86.47l6.82 11 6.82-11a1.07 1.07 0 0 1 .86-.47 1 1 0 0 1 .95 1zM562.13 29.74h15.33a1 1 0 0 1 1 1 .94.94 0 0 1-.15.49L563.9 54.35h13.56a1 1 0 0 1 0 2h-15.33a1 1 0 0 1-1-1 .89.89 0 0 1 .15-.49l14.4-23.11h-13.55a1 1 0 0 1 0-2zM46.88 84v12.33a1 1 0 0 1-2 0v-1.72L42.5 97a1 1 0 0 1-.69.29h-7.14A1.05 1.05 0 0 1 34 97l-4.11-4.09a1 1 0 0 1-.27-.71v-4.06a1.1 1.1 0 0 1 .27-.71L34 83.34a1 1 0 0 1 .69-.3h7.14a1.05 1.05 0 0 1 .69.3l2.41 2.41V84a1 1 0 0 1 2 0zm-5.49 1h-6.3l-3.52 3.52v3.3l3.52 3.52h6.3l3.52-3.52v-3.3zM54.65 71.72v14l2.44-2.41a1 1 0 0 1 .69-.3h7.11a1 1 0 0 1 .69.3l4.11 4.08a1 1 0 0 1 .3.71v4.09a1.07 1.07 0 0 1-.3.71L65.58 97a1.05 1.05 0 0 1-.69.29h-7.11a1 1 0 0 1-.69-.29l-2.44-2.41v1.72a1 1 0 0 1-2 0V71.72a1 1 0 0 1 2 0zM64.5 85h-6.33l-3.52 3.52v3.3l3.52 3.52h6.33l3.5-3.51v-3.3zM90.71 89.12a1 1 0 0 1-.69-.29L86.21 85h-6.3l-3.52 3.52v3.3l3.52 3.52h6.3L90 91.53a1 1 0 0 1 .69-.29 1 1 0 0 1 1 1 1 1 0 0 1-.27.71L87.31 97a1.05 1.05 0 0 1-.69.29h-7.13a1 1 0 0 1-.69-.29l-4.11-4.09a1.1 1.1 0 0 1-.27-.71v-4.06a1 1 0 0 1 .27-.71l4.11-4.08a1.05 1.05 0 0 1 .69-.3h7.14a1 1 0 0 1 .69.3l4.11 4.08a1 1 0 0 1 .27.71 1 1 0 0 1-.99.98zM113.43 71.72v24.61a1 1 0 0 1-2 0v-1.72L109 97a1.05 1.05 0 0 1-.69.29h-7.14a1 1 0 0 1-.69-.29l-4.11-4.09a1.1 1.1 0 0 1-.27-.71v-4.06a1 1 0 0 1 .27-.71l4.11-4.08a1.05 1.05 0 0 1 .69-.3h7.14a1 1 0 0 1 .69.3l2.41 2.41v-14a1 1 0 0 1 2 0zM107.94 85h-6.3l-3.52 3.52v3.3l3.52 3.52h6.3l3.52-3.52v-3.3zM135.6 92.22a1 1 0 0 1-.27.71L131.22 97a1.05 1.05 0 0 1-.69.29h-7.14a1 1 0 0 1-.69-.29l-4.11-4.09a1.1 1.1 0 0 1-.27-.71v-4.06a1.1 1.1 0 0 1 .27-.71l4.11-4.08a1.05 1.05 0 0 1 .69-.3h7.14a1 1 0 0 1 .69.3l4.11 4.08a1 1 0 0 1 .27.71 1 1 0 0 1-1 1h-14.31v2.71l3.52 3.52h6.3l3.81-3.82a1 1 0 0 1 .69-.29 1 1 0 0 1 .99.96zM130.11 85h-6.3l-2.14 2.14h10.58zM146.58 71.72a1 1 0 0 1-.3.69l-3.81 3.81V83h3.13a1 1 0 1 1 0 2h-3.13v11.33a1 1 0 0 1-2 0v-20.5a1.07 1.07 0 0 1 .3-.71L144.9 71a1 1 0 0 1 .69-.29 1 1 0 0 1 .99 1.01zM149.7 103.54a1 1 0 0 1 .69.29l3.81 3.81h6.3l3.52-3.52v-9.51L161.61 97a1.05 1.05 0 0 1-.69.29h-7.14a1 1 0 0 1-.69-.29L149 92.94a1.1 1.1 0 0 1-.27-.71v-4.09a1 1 0 0 1 .27-.71l4.11-4.08a1.05 1.05 0 0 1 .69-.3h7.14a1 1 0 0 1 .69.3l2.37 2.4V84a1 1 0 0 1 2 0v20.5a1.1 1.1 0 0 1-.27.71l-4.11 4.08a1 1 0 0 1-.69.3h-7.14a1.05 1.05 0 0 1-.69-.3l-4.1-4.05a1 1 0 0 1-.27-.71 1 1 0 0 1 .97-.99zM160.51 85h-6.3l-3.52 3.52v3.3l3.52 3.52h6.3l3.49-3.51v-3.3zM173.77 71.72v14l2.44-2.41a1 1 0 0 1 .69-.3h7.1a1.05 1.05 0 0 1 .69.3l4.11 4.08a1.08 1.08 0 0 1 .3.71v8.2a1 1 0 0 1-2 0v-7.8l-3.48-3.5h-6.33l-3.52 3.52v7.8a1 1 0 0 1-2 0v-24.6a1 1 0 0 1 2 0zM194.1 77.06v-1.23a1 1 0 0 1 2 0v1.23a1 1 0 0 1-2 0zm0 19.27V84a1 1 0 0 1 2 0v12.33a1 1 0 0 1-2 0zM198.19 108.64a1 1 0 0 1 .27-.69l3.81-3.82V84a1 1 0 0 1 2 0v20.5a1 1 0 0 1-.27.71l-4.11 4.08a1 1 0 0 1-.69.3 1 1 0 0 1-1.01-.95zm4.09-31.58v-1.23a1 1 0 0 1 2 0v1.23a1 1 0 0 1-2 0zM227.35 84a1 1 0 0 1-.62.91l-13 5.24 13 5.24a1 1 0 0 1 .62.91 1 1 0 0 1-1 1 .88.88 0 0 1-.34-.07l-14-5.61v4.7a1 1 0 0 1-2 0v-24.6a1 1 0 1 1 2 0v17l14-5.61a.88.88 0 0 1 .34-.07 1 1 0 0 1 1 .96zM231.73 96.33V71.72a1 1 0 0 1 2 0v24.61a1 1 0 0 1-2 0zM239.43 96.33V84a1 1 0 0 1 2 0v1.9l3-2.63A1 1 0 0 1 245 83a1 1 0 0 1 .66.25l3.94 3.52 3.94-3.52a1 1 0 0 1 .66-.25 1.05 1.05 0 0 1 .66.25l4.6 4.11a1 1 0 0 1 .32.74v8.2a1 1 0 0 1-2 0v-7.72l-3.62-3.22-3.62 3.22v7.75a1 1 0 0 1-2 0v-7.75L245 85.36l-3.62 3.22v7.75a1 1 0 0 1-2 0zM266.65 84v1.72l2.44-2.41a1 1 0 0 1 .69-.3h7.11a1.12 1.12 0 0 1 .71.3l4.09 4.08a1.08 1.08 0 0 1 .3.71v8.2a1 1 0 0 1-2 0v-7.8L276.5 85h-6.3l-3.54 3.52v7.8a1 1 0 0 1-2 0V84a1 1 0 0 1 2 0zM303.69 88.14v4.09a1 1 0 0 1-.27.71L299.31 97a1.05 1.05 0 0 1-.69.29h-7.14a1 1 0 0 1-.69-.29l-4.11-4.09a1.1 1.1 0 0 1-.27-.71v-4.06a1 1 0 0 1 .27-.71l4.11-4.08a1.05 1.05 0 0 1 .69-.3h7.14a1 1 0 0 1 .69.3l4.11 4.08a1.1 1.1 0 0 1 .27.71zM298.2 85h-6.3l-3.52 3.52v3.3l3.52 3.52h6.3l3.52-3.52v-3.3zM310.56 84v1.72l2.44-2.38a1 1 0 0 1 .69-.3h7.11a1.12 1.12 0 0 1 .71.3l4.09 4.08a1.08 1.08 0 0 1 .3.71v4.09a1.12 1.12 0 0 1-.3.71L321.51 97a1.08 1.08 0 0 1-.71.29h-7.11A1 1 0 0 1 313 97l-2.44-2.41v14a1 1 0 0 1-2 0V84a1 1 0 0 1 2 0zm3.54 11.32h6.3l3.52-3.52v-3.3L320.4 85h-6.3l-3.54 3.52v3.3zM347.6 84v24.61a1 1 0 0 1-2 0v-14L343.22 97a1.05 1.05 0 0 1-.69.29h-7.14a1 1 0 0 1-.69-.29l-4.11-4.09a1.1 1.1 0 0 1-.27-.71v-4.06a1 1 0 0 1 .27-.71l4.11-4.08a1.05 1.05 0 0 1 .69-.3h7.14a1 1 0 0 1 .69.3l2.41 2.41V84a1 1 0 1 1 2 0zm-5.49 1h-6.3l-3.52 3.52v3.3l3.52 3.52h6.3l3.52-3.52v-3.3zM354.91 84v1.72l2.44-2.41A1 1 0 0 1 358 83h5.07a1 1 0 0 1 0 2h-4.65l-3.54 3.52v7.8a1 1 0 0 1-2 0V84a1 1 0 0 1 2 0zM383.9 89.12a1 1 0 0 1-.69-.29L379.4 85h-6.3l-2.61 2.61 13.68 3.67a1 1 0 0 1 .71 1 1 1 0 0 1-.27.69L380.5 97a1 1 0 0 1-.69.29h-7.14A1.05 1.05 0 0 1 372 97l-4.11-4.09a1 1 0 0 1-.27-.71 1 1 0 0 1 1-1 1 1 0 0 1 .69.29l3.81 3.82h6.3l2.58-2.57-13.68-3.67a1 1 0 0 1-.71-1 .93.93 0 0 1 .27-.67l4.12-4.06a1.05 1.05 0 0 1 .69-.3h7.14a1 1 0 0 1 .69.3l4.11 4.08a1 1 0 0 1 .27.71 1 1 0 0 1-1 .99zM394.51 71.72V83h3.59a1 1 0 0 1 0 2h-3.59v11.33a1 1 0 0 1-2 0V85h-3.59a1 1 0 0 1 0-2h3.59V71.72a1 1 0 0 1 2 0zM404.1 84v7.8l3.52 3.52h6.3l3.52-3.52V84a1 1 0 0 1 2 0v8.2a1 1 0 0 1-.27.71L415 97a1 1 0 0 1-.69.29h-7.14a1 1 0 0 1-.69-.29l-4.11-4.09a1.1 1.1 0 0 1-.27-.71V84a1 1 0 1 1 2 0zM423.45 83a1 1 0 0 1 .84.47l6.84 11 6.82-11a1 1 0 0 1 .84-.47 1 1 0 0 1 1 1 1 1 0 0 1-.15.52L432 96.85a1 1 0 0 1-.86.44.9.9 0 0 1-.81-.44l-7.65-12.31a1 1 0 0 1-.15-.52 1 1 0 0 1 .92-1.02zM443.63 83a1 1 0 0 1 .94.64l3.67 9.84 3.69-9.84a.91.91 0 0 1 .89-.62 1 1 0 0 1 .94.62l3.69 9.84 3.67-9.84A1 1 0 0 1 462 83a1 1 0 0 1 1 1 .79.79 0 0 1-.07.34l-4.6 12.31a1 1 0 0 1-.94.62.94.94 0 0 1-.91-.62l-3.67-9.84-3.67 9.84a1 1 0 0 1-1 .62.91.91 0 0 1-.89-.62l-4.6-12.31a.78.78 0 0 1-.07-.34 1 1 0 0 1 1.05-1zM467.06 83a1 1 0 0 1 .62.22l7 5.66 7-5.66a1 1 0 0 1 .62-.22 1 1 0 0 1 1 1 .93.93 0 0 1-.34.76l-6.72 5.39 6.76 5.42a.93.93 0 0 1 .34.76 1 1 0 0 1-1 1 .94.94 0 0 1-.62-.22l-7-5.66-7 5.66a.94.94 0 0 1-.62.22 1 1 0 0 1-1-1 1 1 0 0 1 .37-.76l6.69-5.39-6.69-5.39a1 1 0 0 1-.37-.76 1 1 0 0 1 .96-1.03zM486.92 83a1 1 0 0 1 .84.47l6.84 11 6.82-11a1 1 0 0 1 .84-.47 1 1 0 0 1 1 1 1 1 0 0 1-.15.52l-15.33 24.61a1 1 0 0 1-.84.47 1 1 0 0 1-1-1 1 1 0 0 1 .15-.52l7.33-11.79-7.33-11.79a1 1 0 0 1-.09-.5 1 1 0 0 1 .92-1zM505.82 96.33a1 1 0 0 1 .37-.76L519.33 85h-12.52a1 1 0 0 1 0-2h15.31a1 1 0 0 1 1 1 .92.92 0 0 1-.34.74l-13.17 10.61h12.5a1 1 0 0 1 0 2h-15.3a1 1 0 0 1-.99-1.02zM43 147a1.08 1.08 0 0 1-.71.29h-7.15a1 1 0 0 1-.69-.29l-4.11-4.09a1.07 1.07 0 0 1-.3-.71v-16.37a1.12 1.12 0 0 1 .3-.71l4.11-4.12a1 1 0 0 1 .69-.29h7.11a1.12 1.12 0 0 1 .75.29l4.09 4.09a1.07 1.07 0 0 1 .3.71v16.39a1.12 1.12 0 0 1-.3.71zm2.41-20.8l-3.52-3.52h-6.3L32 126.22v15.6l3.54 3.52h6.3l3.52-3.52zM51.31 129.94a1.06 1.06 0 0 1 .44-.84L64 120.91a1.16 1.16 0 0 1 .54-.17 1 1 0 0 1 1 1v24.61a1 1 0 0 1-2 0v-22.78l-10.71 7.19a1.14 1.14 0 0 1-.57.15 1 1 0 0 1-.95-.97zM70 125.83a1 1 0 0 1 .3-.71l4.04-4.12a1.07 1.07 0 0 1 .71-.29h7.11a1 1 0 0 1 .69.29l4.15 4.12a1 1 0 0 1 .27.71v4.09a1.22 1.22 0 0 1-.25.69l-13.81 14.74h13a1 1 0 1 1 0 2H70.95a1 1 0 0 1-1-1 1 1 0 0 1 .27-.64l15-16.12v-3.32l-3.52-3.52h-6.3l-3.81 3.81a1 1 0 0 1-.69.3 1 1 0 0 1-.9-1.03zM90.29 125.83a1 1 0 0 1 .29-.71L94.7 121a1 1 0 0 1 .69-.29h7.11a1 1 0 0 1 .69.29l4.11 4.09a1.07 1.07 0 0 1 .3.71v4.09a1.11 1.11 0 0 1-.3.71l-3.4 3.4 3.4 3.4a1.08 1.08 0 0 1 .3.71v4.09a1.11 1.11 0 0 1-.3.71l-4.11 4.09a1 1 0 0 1-.69.29h-7.11a1.05 1.05 0 0 1-.69-.29l-4.11-4.09a1 1 0 0 1-.29-.71 1 1 0 0 1 1-1 1 1 0 0 1 .71.29l3.79 3.82h6.33l3.52-3.52v-3.3l-3.81-3.82a1 1 0 0 1-.27-.71.89.89 0 0 1 .27-.66l3.81-3.82v-3.3l-3.52-3.52h-6.35L92 126.52a1 1 0 0 1-.71.3 1 1 0 0 1-1-.99zM127.4 133a1 1 0 0 1 0 2h-2.85v11.32a1 1 0 0 1-2 0V135h-10.48a1 1 0 0 1-1-1 1 1 0 0 1 .27-.64l11.49-12.31a1 1 0 0 1 .69-.32 1 1 0 0 1 1 1V133zm-4.82-8.84l-8.24 8.84h8.25zM133.36 141.24a1 1 0 0 1 .69.29l3.81 3.82h6.3l3.52-3.52v-7.38l-3.52-3.54h-6.3l-3.86 3.81a1 1 0 0 1-.69.3 1 1 0 0 1-1-1v-12.3a1 1 0 0 1 1-1h15.33a1 1 0 0 1 0 2h-14.32v8.93l2.44-2.41a1 1 0 0 1 .69-.3h7.11a1.12 1.12 0 0 1 .71.3l4.09 4.11a1 1 0 0 1 .3.69v8.2a1.12 1.12 0 0 1-.3.71l-4.09 4.05a1.08 1.08 0 0 1-.71.29h-7.11a1 1 0 0 1-.69-.29l-4.11-4.09a1 1 0 0 1-.27-.71 1 1 0 0 1 .98-.96zM171.31 126.82a1 1 0 0 1-.69-.3l-3.81-3.81h-6.3l-3.51 3.51v9.53l2.44-2.41a1 1 0 0 1 .69-.3h7.11a1.07 1.07 0 0 1 .71.3l4.09 4.08a1.12 1.12 0 0 1 .3.71v4.09a1.07 1.07 0 0 1-.3.71l-4.13 4.07a1.12 1.12 0 0 1-.71.29h-7.11a1 1 0 0 1-.69-.29l-4.11-4.09a1.12 1.12 0 0 1-.3-.71v-16.37a1.07 1.07 0 0 1 .3-.71l4.11-4.12a1 1 0 0 1 .69-.29h7.11a1.08 1.08 0 0 1 .71.29l4.09 4.09a1 1 0 0 1 .3.71 1 1 0 0 1-.99 1.02zm-14.35 15l3.54 3.52h6.3l3.52-3.52v-3.3l-3.51-3.52h-6.3l-3.51 3.53zM176.26 146.33a1 1 0 0 1 .15-.52l14.37-23.11h-13.54a1 1 0 0 1 0-2h15.31a1 1 0 0 1 1 1 .94.94 0 0 1-.15.49l-15.31 24.61a1 1 0 0 1-.84.47 1 1 0 0 1-.99-.94zM201.43 121a1 1 0 0 1 .69-.29h7.14a1.05 1.05 0 0 1 .69.29l4.11 4.09a1 1 0 0 1 .27.71v4.09a1.1 1.1 0 0 1-.27.71l-3.42 3.4 3.42 3.4a1 1 0 0 1 .27.71v4.09a1.1 1.1 0 0 1-.27.71L210 147a1 1 0 0 1-.69.29h-7.14a1.05 1.05 0 0 1-.69-.29l-4.11-4.09a1 1 0 0 1-.27-.71v-4.09a1.1 1.1 0 0 1 .27-.71l3.42-3.4-3.42-3.4a1 1 0 0 1-.27-.71v-4.09a1.1 1.1 0 0 1 .27-.71zm-2.43 8.52l3.52 3.52h6.3l3.52-3.52v-3.3l-3.52-3.52h-6.3l-3.52 3.52zm3.52 5.49l-3.52 3.52v3.3l3.52 3.52h6.3l3.52-3.52v-3.3l-3.5-3.53zM219.77 141.24a1 1 0 0 1 .69.29l3.81 3.82h6.3l3.52-3.52v-9.53l-2.41 2.41a1 1 0 0 1-.69.3h-7.14a1.05 1.05 0 0 1-.69-.3l-4.11-4.09a1 1 0 0 1-.27-.71v-4.09a1.1 1.1 0 0 1 .27-.71l4.11-4.09a1 1 0 0 1 .69-.29H231a1.05 1.05 0 0 1 .69.29l4.11 4.09a1 1 0 0 1 .27.71v16.39a1.1 1.1 0 0 1-.27.71l-4.12 4.08a1 1 0 0 1-.69.29h-7.14a1.05 1.05 0 0 1-.69-.29l-4.11-4.09a1 1 0 0 1-.27-.71 1 1 0 0 1 .99-.96zm14.32-15l-3.52-3.52h-6.3l-3.52 3.52v3.3l3.52 3.52h6.3l3.52-3.52zM252.43 141.24a1 1 0 0 1 .69.29l3.81 3.82h2.17v-10.73l-7.1-3.82a1.07 1.07 0 0 1-.52-.89v-4.09a1.12 1.12 0 0 1 .3-.71l4.09-4.09a1.07 1.07 0 0 1 .71-.29h2.56v-3.13a1 1 0 0 1 2 0v3.13h2.58a1 1 0 0 1 .69.29l4.11 4.09a1 1 0 0 1 .27.71 1 1 0 0 1-1 1 1 1 0 0 1-.69-.3l-3.81-3.81h-2.17v10.73l7.14 3.81a1 1 0 0 1 .52.89v4.09a1 1 0 0 1-.27.71l-4.17 4.06a1 1 0 0 1-.69.29h-2.58v3.13a1 1 0 0 1-2 0v-3.13h-2.56a1.07 1.07 0 0 1-.71-.29l-4.09-4.09a1 1 0 0 1-.3-.71 1 1 0 0 1 1.02-.96zm4.5-18.53l-3.52 3.52v3.1l5.69 3.05v-9.67zm6.3 22.64l3.52-3.52v-3.1l-5.69-3.05v9.67zM290.7 126.82a1 1 0 0 1-.69-.3l-3.81-3.81h-4.77l-3.54 3.52V133h8.71a1 1 0 0 1 0 2h-8.71v10.34h12.81a1 1 0 0 1 0 2h-18.39a1 1 0 0 1 0-2h3.59V135h-3.59a1 1 0 0 1 0-2h3.59v-7.21a1.11 1.11 0 0 1 .3-.71l4.11-4.09a1 1 0 0 1 .69-.29h5.59a1.12 1.12 0 0 1 .71.29l4.09 4.09a1 1 0 0 1 .3.71 1 1 0 0 1-.99 1.03zM296.38 138.14v-16.42a1 1 0 0 1 2 0v16.42a1 1 0 0 1-2 0zm0 8.2v-1.24a1 1 0 0 1 2 0v1.23a1 1 0 0 1-2 0zM304 125.83a1 1 0 0 1 .3-.71l4.09-4.09a1.07 1.07 0 0 1 .71-.29h7.11a1 1 0 0 1 .69.29l4.11 4.09a1 1 0 0 1 .27.71v4.09a1 1 0 0 1-.52.89l-7.14 3.81v3.52a1 1 0 0 1-2 0V134a1 1 0 0 1 .52-.86l7.14-3.84v-3.1l-3.52-3.52h-6.3l-3.81 3.81a1 1 0 0 1-.69.3 1 1 0 0 1-.96-.96zm7.65 20.5v-1.23a1 1 0 0 1 2 0v1.23a1 1 0 0 1-2 0zM328.4 134v1.23a1 1 0 0 1-2 0V134a1 1 0 0 1 2 0zm0 8.2v16.42a1 1 0 0 1-2 0v-16.4a1 1 0 0 1 2 0zM350.87 154.53a1 1 0 0 1-.27.71l-4.11 4.08a1 1 0 0 1-.69.3h-7.11a1.07 1.07 0 0 1-.71-.3l-4.09-4.08a1.12 1.12 0 0 1-.3-.71v-4.09a1.06 1.06 0 0 1 .52-.89l7.14-3.82v-3.52a1 1 0 0 1 2 0v4.11a1 1 0 0 1-.52.86l-7.17 3.82v3.1l3.52 3.52h6.3l3.81-3.81a1 1 0 0 1 .69-.29 1 1 0 0 1 .99 1.01zM343.22 134v1.23a1 1 0 0 1-2 0V134a1 1 0 0 1 2 0zM357.47 146.21l.89-7.09h-3a1 1 0 0 1 0-2h3.22l.76-6.25h-4a1 1 0 0 1 0-2h4.23l.91-7.33a1 1 0 0 1 2 .25l-.89 7.09h4.13l.91-7.33a1 1 0 0 1 2 .25l-.89 7.09h3a1 1 0 0 1 0 2h-3.2l-.79 6.25h4a1 1 0 0 1 0 2h-4.23l-.91 7.33a1 1 0 0 1-1 .86 1 1 0 0 1-1-1.11l.89-7.09h-4.16l-.91 7.33a1 1 0 0 1-1 .86 1 1 0 0 1-.96-1.11zm3.89-15.31l-.79 6.25h4.16l.76-6.25zM392.47 121.72a1 1 0 0 1-.15.52L377 146.85a1 1 0 0 1-.84.47 1 1 0 0 1-1-1 1 1 0 0 1 .15-.52l15.33-24.61a1 1 0 0 1 .84-.47 1 1 0 0 1 .99 1zm-7.65 2v2.07a1 1 0 0 1-.27.69l-2.07 2a1 1 0 0 1-.69.3h-3.57a1 1 0 0 1-.69-.3l-2-2a1 1 0 0 1-.3-.69v-2.07a1 1 0 0 1 .3-.69l2-2a1.05 1.05 0 0 1 .69-.29h3.57a1 1 0 0 1 .69.29l2.07 2a1 1 0 0 1 .26.73zm-3.45-1.06h-2.73l-1.48 1.48v1.23l1.48 1.48h2.73l1.48-1.48v-1.23zm11.1 19.52v2.07a1 1 0 0 1-.27.69l-2.07 2a1 1 0 0 1-.69.29h-3.54a1.07 1.07 0 0 1-.71-.29l-2-2a1.05 1.05 0 0 1-.3-.69v-2.07a1 1 0 0 1 .3-.69l2-2a1.11 1.11 0 0 1 .71-.3h3.54a1 1 0 0 1 .69.3l2.07 2a1 1 0 0 1 .27.73zm-3.47-1.02h-2.76l-1.48 1.48v1.23l1.48 1.48H389l1.45-1.48v-1.23zM415.82 147.32a.91.91 0 0 1-.64-.25l-3.1-2.76-2.73 2.69a1 1 0 0 1-.69.29h-7.14a1 1 0 0 1-.69-.29l-4.11-4.09a1.1 1.1 0 0 1-.27-.71v-4.09a1.07 1.07 0 0 1 .52-.89l4.5-2.41-4.7-4.18a1 1 0 0 1-.32-.74v-4.09a1.1 1.1 0 0 1 .27-.71l4.11-4.09a1 1 0 0 1 .69-.29h7.14a1 1 0 0 1 .69.29l4.11 4.09a1.07 1.07 0 0 1 .3.71v4.09a1 1 0 0 1-.52.89l-8.34 4.46 6.89 6.15v-3.27a1 1 0 1 1 2 0v4.09a1.17 1.17 0 0 1-.27.69l3 2.68a1 1 0 0 1 .32.74 1 1 0 0 1-1.02 1zm-4-18v-3.1l-3.54-3.52h-6.3l-3.52 3.52v3.25l4.9 4.38zm-13.37 9.4v3.1l3.52 3.52h6.3l2.33-2.34-7.6-6.76zM425.47 121.72a1 1 0 0 1-.3.69l-3.81 3.81v19.69l3.81 3.81a1 1 0 0 1 .3.71 1 1 0 0 1-1 1 1 1 0 0 1-.69-.29l-4.1-4.14a1.05 1.05 0 0 1-.29-.69v-20.5a1.07 1.07 0 0 1 .29-.71l4.11-4.09a1 1 0 0 1 .69-.29 1 1 0 0 1 .99 1zM430.27 120.74a1 1 0 0 1 .69.29l4.11 4.09a1 1 0 0 1 .27.71v20.5a1 1 0 0 1-.27.69l-4.07 4.11a1 1 0 0 1-.69.29 1 1 0 0 1-1-1 1 1 0 0 1 .3-.71l3.79-3.81v-19.68l-3.79-3.81a1 1 0 0 1-.3-.69 1 1 0 0 1 .96-.98zM446.71 122.71h-3.57v26.75h3.57a1 1 0 0 1 0 2h-4.55a1 1 0 0 1-1-1v-28.74a1 1 0 0 1 1-1h4.55a1 1 0 0 1 0 2zM451.83 120.74h4.53a1 1 0 0 1 1 1v28.72a1 1 0 0 1-1 1h-4.53a1 1 0 0 1 0-2h3.54v-26.75h-3.54a1 1 0 0 1 0-2zM469.89 121.72a.94.94 0 0 1-.27.69l-3.81 3.81V134a1 1 0 0 1-.3.69l-1.35 1.35 1.35 1.35a1.07 1.07 0 0 1 .3.71v7.78l3.81 3.81a1 1 0 0 1 .27.71 1 1 0 0 1-1 1 1 1 0 0 1-.69-.29l-4.09-4.11a1 1 0 0 1-.27-.69v-7.8l-1.77-1.75a1 1 0 0 1-.27-.71.94.94 0 0 1 .27-.69l1.77-1.77v-7.78a1 1 0 0 1 .27-.71l4.11-4.09a1 1 0 0 1 .69-.29 1 1 0 0 1 .98 1zM474.89 120.74a1 1 0 0 1 .69.29l4.11 4.09a1.07 1.07 0 0 1 .29.71v7.78l1.75 1.77a.94.94 0 0 1 .27.69 1 1 0 0 1-.27.71l-1.73 1.75v7.8a1.05 1.05 0 0 1-.29.69l-4.11 4.11a1 1 0 0 1-.69.29 1 1 0 0 1-1-1 1 1 0 0 1 .3-.71l3.81-3.81v-7.78a1 1 0 0 1 .27-.71l1.35-1.35-1.35-1.35a1 1 0 0 1-.29-.71v-7.8l-3.81-3.81a1 1 0 0 1-.3-.69 1 1 0 0 1 1-.96zM503.29 142.22a1 1 0 0 1-.29.71l-4.09 4.07a1.07 1.07 0 0 1-.71.29h-7.11a1 1 0 0 1-.69-.29l-4.11-4.09a1.07 1.07 0 0 1-.29-.71v-12.28a1 1 0 0 1 .29-.69l4.11-4.11a1 1 0 0 1 .69-.27h7.11a1.1 1.1 0 0 1 .71.27l4.09 4.11a1 1 0 0 1 .29.69v8.22a1 1 0 0 1-.52.86l-3.84 2a1 1 0 0 1-.44.12 1 1 0 0 1-1-.69l-.42.39a1 1 0 0 1-.69.29h-3.57a1 1 0 0 1-.69-.29l-2-2a1 1 0 0 1-.3-.69V134a1 1 0 0 1 .3-.69l2-2.07a1 1 0 0 1 .69-.27h3.57a1 1 0 0 1 .69.27l.42.42a1 1 0 0 1 1.92.3v6.55l1.87-1v-7.21l-3.52-3.52h-6.3l-3.46 3.55v11.49l3.54 3.52h6.3l3.82-3.82a1 1 0 0 1 .69-.29 1 1 0 0 1 .94.99zm-5.81-7.78L496 133h-2.73l-1.48 1.48v3.27l1.48 1.48H496l1.48-1.48zM508.63 146.33v-20.5a1.12 1.12 0 0 1 .29-.71L513 121a1 1 0 0 1 .69-.29h7.11a1.11 1.11 0 0 1 .71.29l4.09 4.09a1.07 1.07 0 0 1 .29.71v4.09a1.11 1.11 0 0 1-.29.71l-3.4 3.4 3.4 3.4a1.07 1.07 0 0 1 .29.71v4.09a1.12 1.12 0 0 1-.29.71l-4.05 4.09a1.07 1.07 0 0 1-.71.29h-7.11a1 1 0 0 1 0-2h6.72l3.52-3.52v-3.3l-3.81-3.82a1 1 0 0 1-.27-.71.89.89 0 0 1 .27-.66l3.81-3.82v-3.3l-3.52-3.52h-6.3l-3.54 3.52v20.11a1 1 0 1 1-2 0zM531.34 122.78a1.16 1.16 0 0 1 .39.1l3.2 1.43v-2.58a1 1 0 0 1 2 0v2.58l3.2-1.43a1.17 1.17 0 0 1 .39-.1 1 1 0 0 1 .42 1.89l-2.58 1.16 2.58 1.13a1 1 0 0 1 .57.91 1 1 0 0 1-1 1 1.11 1.11 0 0 1-.39-.07l-3.2-1.45v2.58a1 1 0 0 1-2 0v-2.58l-3.2 1.45a1.1 1.1 0 0 1-.39.07 1 1 0 0 1-1-1 1 1 0 0 1 .57-.91l2.58-1.13-2.58-1.16a1 1 0 0 1 .42-1.89zM30.34 196.33v-1.23a1 1 0 0 1 2 0v1.23a1 1 0 0 1-2 0zM38.21 185.26V184a1 1 0 0 1 2 0v1.23a1 1 0 0 1-2 0zm0 11.08v-1.24a1 1 0 0 1 2 0v1.23a1 1 0 0 1-2 0zM48.8 195.1a.87.87 0 0 1-.12.49l-2.44 4.11a1 1 0 0 1-.86.49 1 1 0 0 1-1-1 .87.87 0 0 1 .12-.49l2.5-4.09a1 1 0 0 1 .86-.49 1 1 0 0 1 .94.98zM55.29 195.1a.89.89 0 0 1-.15.49l-2.44 4.11a1 1 0 0 1-.84.49 1 1 0 0 1-1-1 .89.89 0 0 1 .15-.49l2.44-4.08a1 1 0 0 1 1.82.49zm0-11.08v1.23a1 1 0 0 1-2 0V184a1 1 0 0 1 2 0zM63.12 195.27a1 1 0 0 1-.86-.49l-2.44-4.11a.89.89 0 0 1-.15-.49 1.15 1.15 0 0 1 .15-.49l2.44-4.11a1 1 0 0 1 .86-.49 1 1 0 0 1 1 1 .87.87 0 0 1-.12.49l-2.14 3.59 2.14 3.6a.87.87 0 0 1 .12.49 1 1 0 0 1-1 1.01zM68.49 194.27a.89.89 0 0 1 .15-.49l2.12-3.59-2.12-3.59a.89.89 0 0 1-.15-.49 1 1 0 0 1 1-1 1 1 0 0 1 .84.49l2.44 4.11a1.15 1.15 0 0 1 .15.49.89.89 0 0 1-.15.49l-2.44 4.11a1 1 0 0 1-.84.49 1 1 0 0 1-1-1.02zM79.36 195.27a1 1 0 0 1-.86-.49l-2.44-4.11a.88.88 0 0 1-.15-.49 1.15 1.15 0 0 1 .15-.49l2.44-4.11a1 1 0 0 1 .86-.49 1 1 0 0 1 1 1 .87.87 0 0 1-.12.49l-2.14 3.59 2.14 3.59a.86.86 0 0 1 .12.49 1 1 0 0 1-1 1.02zm3.64 0a1 1 0 0 1-.86-.49l-2.44-4.11a.86.86 0 0 1-.12-.49 1.12 1.12 0 0 1 .12-.49l2.44-4.11a1 1 0 0 1 .86-.49 1 1 0 0 1 1 1 .89.89 0 0 1-.15.49l-2.14 3.59 2.14 3.59a.89.89 0 0 1 .15.49 1 1 0 0 1-1 1.02zM87.48 194.27a.89.89 0 0 1 .15-.49l2.12-3.59-2.12-3.59a.89.89 0 0 1-.15-.49 1 1 0 0 1 1-1 1 1 0 0 1 .84.49l2.44 4.11a1.14 1.14 0 0 1 .15.49.88.88 0 0 1-.15.49l-2.44 4.11a1 1 0 0 1-.84.49 1 1 0 0 1-1-1.02zm3.67 0a.86.86 0 0 1 .12-.49l2.14-3.59-2.14-3.59a.87.87 0 0 1-.12-.49 1 1 0 0 1 1-1 1 1 0 0 1 .86.49l2.44 4.11a1.12 1.12 0 0 1 .12.49.86.86 0 0 1-.12.49L93 194.78a1 1 0 0 1-.86.49 1 1 0 0 1-.99-1zM99.57 170.74a1 1 0 0 1 .84.49l2.44 4.09a.88.88 0 0 1 .15.49 1 1 0 0 1-1 1 1 1 0 0 1-.84-.49l-2.44-4.11a.89.89 0 0 1-.15-.49 1 1 0 0 1 1-.98zm3.64 0a1 1 0 0 1 .86.49l2.44 4.09a.86.86 0 0 1 .12.49 1 1 0 0 1-1 1 1 1 0 0 1-.86-.49l-2.44-4.11a.86.86 0 0 1-.12-.49 1 1 0 0 1 1-.98zM114.56 171.72a.89.89 0 0 1-.15.49l-2.41 4.11a1 1 0 0 1-.84.49 1 1 0 0 1-1-1 .88.88 0 0 1 .15-.49l2.44-4.09a1 1 0 0 1 1.82.49zm3.64 0a.86.86 0 0 1-.12.49l-2.44 4.11a1 1 0 0 1-.86.49 1 1 0 0 1-1-1 .86.86 0 0 1 .12-.49l2.44-4.09a1 1 0 0 1 .86-.49 1 1 0 0 1 1 .98zM126.12 195.1a.89.89 0 0 1-.15.49l-2.44 4.11a1 1 0 0 1-.84.49 1 1 0 0 1-1-1 .89.89 0 0 1 .15-.49l2.44-4.08a1 1 0 0 1 1.82.49zm3.64 0a.86.86 0 0 1-.12.49l-2.44 4.11a1 1 0 0 1-.86.49 1 1 0 0 1-1-1 .87.87 0 0 1 .12-.49l2.44-4.08a1 1 0 0 1 .86-.49 1 1 0 0 1 1.01.97zM135.72 171.72v4.11a1 1 0 0 1-2 0v-4.11a1 1 0 0 1 2 0zm3.77 0v4.11a1 1 0 0 1-2 0v-4.11a1 1 0 0 1 2 0zM147.39 171.72a.87.87 0 0 1-.12.49l-2.44 4.11a1 1 0 0 1-.86.49 1 1 0 0 1-1-1 .86.86 0 0 1 .12-.49l2.44-4.09a1 1 0 0 1 .86-.49 1 1 0 0 1 1 .98zM150.71 173.79a1 1 0 0 1 .59-.91l4.58-2.07a1.16 1.16 0 0 1 .42-.07 1 1 0 0 1 .39.07l4.6 2.07a1 1 0 0 1 .57.91 1 1 0 0 1-1 1 1.1 1.1 0 0 1-.39-.07l-4.18-1.87-4.21 1.87a1.1 1.1 0 0 1-.39.07 1 1 0 0 1-.98-1zM166.19 195.35h15.33a1 1 0 0 1 0 2h-15.33a1 1 0 1 1 0-2zM187.53 196.33v3.13h13.34v-3.13a1 1 0 0 1 2 0v4.11a1 1 0 0 1-1 1h-15.33a1 1 0 0 1-1-1v-4.11a1 1 0 0 1 2 0zM206.85 170.74a1 1 0 0 1 .86.49l2.44 4.09a.87.87 0 0 1 .12.49 1 1 0 0 1-1 1 1 1 0 0 1-.86-.49l-2.41-4.11a.86.86 0 0 1-.12-.49 1 1 0 0 1 .97-.98zM212.06 173.79a1 1 0 0 1 .52-.89l3.81-2a1.1 1.1 0 0 1 .47-.12 1.07 1.07 0 0 1 .42.07l4.16 1.87 3.4-1.82a1 1 0 0 1 .44-.12 1 1 0 0 1 1 1 1 1 0 0 1-.52.86l-3.84 2.07a.93.93 0 0 1-.47.1 1.1 1.1 0 0 1-.39-.07l-4.16-1.85-3.4 1.82a1.06 1.06 0 0 1-.47.1 1 1 0 0 1-.97-1.02zM239.68 171.72a.78.78 0 0 1 0 .34l-9.18 24.61a1 1 0 0 1-1.9-.34.79.79 0 0 1 .07-.34l9.16-24.61a1 1 0 0 1 .94-.64 1 1 0 0 1 .91.98zM245.31 200.44v-32.83a1 1 0 0 1 2 0v32.83a1 1 0 0 1-2 0zM253.9 170.74a1 1 0 0 1 .91.64L264 196a.78.78 0 0 1 0 .34 1 1 0 0 1-1 1 1 1 0 0 1-.94-.64L253 172.07a.79.79 0 0 1-.07-.34 1 1 0 0 1 .97-.99zM268.55 185.08h15.31a1 1 0 0 1 0 2h-15.31a1 1 0 0 1 0-2zM289.34 185.08h18.39a1 1 0 0 1 0 2h-18.39a1 1 0 0 1 0-2zM313.26 196.33V184a1 1 0 0 1 2 0v12.31a1 1 0 0 1-2 0zM317.35 208.64a1 1 0 0 1 .27-.69l3.81-3.82V184a1 1 0 0 1 2 0v20.5a1 1 0 0 1-.27.71l-4.16 4.12a1 1 0 0 1-.69.3 1 1 0 0 1-.96-.99zM340.58 191.16a1.24 1.24 0 0 1-.3 0L328.06 187a.94.94 0 0 1-.66-.91 1 1 0 0 1 .66-1l12.23-4.09a1.24 1.24 0 0 1 .3 0 1 1 0 0 1 1 1 1 1 0 0 1-.69 1l-9.45 3.15 9.45 3.17a1 1 0 0 1-.32 1.92zM346.54 183h12.23a1 1 0 0 1 0 2h-12.23a1 1 0 0 1 0-2zm0 4.11h12.23a1 1 0 0 1 0 2h-12.23a1 1 0 0 1 0-2zM363.74 190.18a1 1 0 0 1 .66-.94l9.45-3.17-9.45-3.15a1 1 0 0 1-.66-1 1 1 0 0 1 1-1 1.25 1.25 0 0 1 .3 0l12.26 4.09a1 1 0 0 1 .64 1 .93.93 0 0 1-.64.91l-12.3 4.2a1.25 1.25 0 0 1-.3 0 1 1 0 0 1-.96-.94zM381.51 185.08h3.59V182a1 1 0 1 1 2 0v3.1h3.62a1 1 0 0 1 0 2h-3.62v3.13a1 1 0 0 1-2 0v-3.13h-3.59a1 1 0 0 1 0-2zM395.71 185.08h9.16a1 1 0 0 1 0 2h-9.16a1 1 0 0 1 0-2zM427.34 171.72a1 1 0 0 1-.27.66l-3.57 3.82v6.8h8.22a1 1 0 0 1 1 1v12.31a1 1 0 0 1-2 0V185h-7.22v11.32a1 1 0 1 1-2 0v-20.5a1.17 1.17 0 0 1 .27-.69l3.84-4.09a1 1 0 0 1 .71-.32 1 1 0 0 1 1.02 1zM444.91 171.72a1 1 0 0 1-.27.66l-3.57 3.82v6.8h7.24v-11.28a1 1 0 1 1 2 0v24.61a1 1 0 0 1-2 0V185h-7.24v11.32a1 1 0 0 1-2 0v-20.5a1.17 1.17 0 0 1 .27-.69l3.84-4.09a1 1 0 0 1 .71-.32 1 1 0 0 1 1.02 1zM461.72 171.72a1 1 0 0 1-.27.66l-3.57 3.82v6.8h5.71v-7.21a1.17 1.17 0 0 1 .27-.69l3.82-4.09a1 1 0 0 1 1.7.67 1 1 0 0 1-.25.66l-3.57 3.82V183h6.67a1 1 0 0 1 1 1v12.31a1 1 0 0 1-2 0V185h-5.69v11.32a1 1 0 1 1-2 0V185h-5.71v11.32a1 1 0 0 1-2 0v-20.5a1.16 1.16 0 0 1 .27-.69l3.84-4.09a1 1 0 0 1 1.7.67zM484.36 171.72a1 1 0 0 1-.27.66l-3.57 3.82v6.8h5.71v-7.21a1.17 1.17 0 0 1 .27-.69l3.82-4.09a1 1 0 0 1 1.7.67 1 1 0 0 1-.25.66l-3.57 3.82V183h5.69v-11.28a1 1 0 1 1 2 0v24.61a1 1 0 0 1-2 0V185h-5.69v11.32a1 1 0 0 1-2 0V185h-5.71v11.32a1 1 0 1 1-2 0v-20.5a1.16 1.16 0 0 1 .27-.69l3.84-4.09a1 1 0 0 1 1.7.67zM28.22 246.33a1.18 1.18 0 0 1 0-.29l7.68-24.61a1 1 0 0 1 .94-.69 1 1 0 0 1 .94.69L45.45 246a1.23 1.23 0 0 1 0 .29 1 1 0 0 1-1 1 1 1 0 0 1-.94-.69L40 235h-6.2l-3.62 11.62a1 1 0 0 1-1 .69 1 1 0 0 1-.96-.98zm11.69-29.78a1.25 1.25 0 0 1-.3 0l-6.13-2a1 1 0 0 1-.69-1 1 1 0 0 1 1-1 1.2 1.2 0 0 1 .3 0l6.13 2a1 1 0 0 1 .66.94 1 1 0 0 1-.97 1.06zM36.86 225l-2.51 8h5zM47.17 246.33a1.18 1.18 0 0 1 0-.29l7.68-24.61a1 1 0 0 1 .94-.69 1 1 0 0 1 .94.69L64.4 246a1.23 1.23 0 0 1 0 .29 1 1 0 0 1-1 1 1 1 0 0 1-.94-.69L58.91 235h-6.2l-3.62 11.62a1 1 0 0 1-1 .69 1 1 0 0 1-.92-.98zm12.68-32.83a1 1 0 0 1-.66 1l-6.13 2a1.24 1.24 0 0 1-.3 0 1 1 0 0 1-.32-1.92l6.13-2a1.2 1.2 0 0 1 .3 0 1 1 0 0 1 .98.92zm-4 11.54l-2.51 8h5zM66.12 246.33a1.18 1.18 0 0 1 0-.29l7.68-24.61a1 1 0 0 1 .94-.69 1 1 0 0 1 .94.69L83.35 246a1.23 1.23 0 0 1 0 .29 1 1 0 0 1-1 1 1 1 0 0 1-.94-.69L77.86 235h-6.2L68 246.63a1 1 0 0 1-1 .69 1 1 0 0 1-.88-.99zm4.58-30.77a1 1 0 0 1 .44-.81l3.05-2.07a1.15 1.15 0 0 1 .57-.15 1 1 0 0 1 .54.15l3.05 2.07a1 1 0 0 1 .44.81 1 1 0 0 1-1 1 1.08 1.08 0 0 1-.54-.17l-2.51-1.67-2.51 1.67a1.17 1.17 0 0 1-.57.17 1 1 0 0 1-.96-.99zm4.06 9.44l-2.51 8h5zM85.07 246.33a1.18 1.18 0 0 1 0-.29l7.68-24.61a1 1 0 0 1 .94-.69 1 1 0 0 1 .94.69L102.3 246a1.23 1.23 0 0 1 0 .29 1 1 0 0 1-1 1 1 1 0 0 1-.94-.69L96.81 235h-6.2L87 246.63a1 1 0 0 1-1 .69 1 1 0 0 1-.93-.99zm3.05-30.77a1 1 0 0 1 .44-.81l3.05-2.07a1.06 1.06 0 0 1 .54-.15 1.09 1.09 0 0 1 .57.15l2.51 1.7 2.51-1.7a1.06 1.06 0 0 1 .54-.15 1 1 0 0 1 1 1 1 1 0 0 1-.42.84l-3.08 2a1 1 0 0 1-.54.17 1.08 1.08 0 0 1-.54-.17l-2.54-1.67-2.51 1.67a1.08 1.08 0 0 1-.54.17 1 1 0 0 1-.98-.97zm5.59 9.44l-2.51 8h5zM104 246.33a1.18 1.18 0 0 1 0-.29l7.68-24.61a1 1 0 0 1 .94-.69 1 1 0 0 1 .94.69l7.69 24.57a1.23 1.23 0 0 1 0 .29 1 1 0 0 1-1 1 1 1 0 0 1-.94-.69l-3.55-11.6h-6.2l-3.62 11.62a1 1 0 0 1-1 .69 1 1 0 0 1-.94-.98zm3.81-31.58v-1.23a1 1 0 0 1 2 0v1.23a1 1 0 1 1-2 0zm4.85 10.25l-2.51 8h5zm2.83-10.29v-1.23a1 1 0 0 1 2 0v1.23a1 1 0 1 1-2 0zM123 246.33a1.18 1.18 0 0 1 0-.29l7.68-24.61a1 1 0 0 1 .94-.69 1 1 0 0 1 .94.69L140.2 246a1.23 1.23 0 0 1 0 .29 1 1 0 0 1-1 1 1 1 0 0 1-.94-.69l-3.55-11.6h-6.2l-3.62 11.62a1 1 0 0 1-1 .69 1 1 0 0 1-.89-.98zm12.68-32.81v2a1 1 0 0 1-.27.69l-2.07 2.07a1 1 0 0 1-.69.27h-2a1 1 0 0 1-.71-.27l-2-2.07a1 1 0 0 1-.3-.69v-2a1.07 1.07 0 0 1 .3-.71l2-2a1.12 1.12 0 0 1 .71-.29h2a1 1 0 0 1 .69.29l2.07 2a1.1 1.1 0 0 1 .24.71zm-4 11.52l-2.51 8h5zm.59-12.6H131l-1.48 1.48v1.23l1.48 1.48h1.21l1.48-1.48v-1.23zM141.92 246.33a1.18 1.18 0 0 1 0-.29l7.68-24.61a1 1 0 0 1 .94-.69 1 1 0 0 1 .94.69l7.67 24.57a1.23 1.23 0 0 1 0 .29 1 1 0 0 1-1 1 1 1 0 0 1-.94-.69l-3.54-11.6h-6.2l-3.62 11.62a1 1 0 0 1-1 .69 1 1 0 0 1-.93-.98zm6.55-34.88v1.65l1.48 1.48h1.21l1.48-1.48v-1.65a1 1 0 1 1 2 0v2.07a1 1 0 0 1-.27.69l-2.07 2a1.05 1.05 0 0 1-.69.29h-2a1.08 1.08 0 0 1-.71-.29l-2-2a1 1 0 0 1-.3-.69v-2.07a1 1 0 0 1 2 0zm2.09 13.55l-2.51 8h5zM160.88 246.33a1.18 1.18 0 0 1 0-.29l7.68-24.61a1 1 0 0 1 .94-.69 1 1 0 0 1 .94.69L178.1 246a1.23 1.23 0 0 1 0 .29 1 1 0 0 1-1 1 1 1 0 0 1-.54-.17l-5.62 3.88v1.11l1.48 1.48h1.23l1.75-1.75a1 1 0 0 1 .69-.29 1 1 0 0 1 1 1 .94.94 0 0 1-.27.69l-2.07 2.07a1 1 0 0 1-.69.27h-2a1 1 0 0 1-.71-.27l-2-2.07a1 1 0 0 1-.3-.69v-2a1.1 1.1 0 0 1 .44-.84l6.13-4.09a1.68 1.68 0 0 1 .3-.15l-3.3-10.47h-6.2l-3.62 11.62a1 1 0 0 1-1 .69 1 1 0 0 1-.92-.98zm8.63-21.33l-2.51 8h5zM179.83 246.33a1 1 0 0 1 .15-.52l15.33-24.61a1 1 0 0 1 .84-.47h15.35a1 1 0 0 1 0 2h-14.37V233h14.37a1 1 0 0 1 0 2h-14.37v10.34h14.37a1 1 0 0 1 0 2h-15.36a1 1 0 0 1-1-1V235H189l-7.41 11.84a1 1 0 0 1-.84.47 1 1 0 0 1-.92-.98zm15.33-21.17l-4.92 7.84h4.92zM234.22 242.22a1 1 0 0 1-.3.71l-4.08 4.07a1.08 1.08 0 0 1-.71.29H222a1 1 0 0 1-.69-.29l-4.11-4.09a1.07 1.07 0 0 1-.3-.71v-16.37a1.12 1.12 0 0 1 .3-.71l4.11-4.09a1 1 0 0 1 .69-.29h7.11a1.12 1.12 0 0 1 .71.29l4.09 4.09a1 1 0 0 1 .3.71 1 1 0 0 1-1 1 1 1 0 0 1-.69-.3l-3.81-3.81h-6.3l-3.54 3.52v15.6l3.54 3.52h6.3l3.81-3.82a1 1 0 0 1 .69-.29 1 1 0 0 1 1.01.97zm-4.6-28.72a1 1 0 0 1-.66 1l-6.13 2a1.25 1.25 0 0 1-.3 0 1 1 0 0 1-.32-1.92l6.13-2a1.2 1.2 0 0 1 .3 0 1 1 0 0 1 .97.92zM255.95 242.22a1 1 0 0 1-.3.71l-4.08 4.07a1.08 1.08 0 0 1-.71.29h-7.11a1 1 0 0 1-.69-.29l-4.11-4.09a1.07 1.07 0 0 1-.3-.71v-16.37a1.12 1.12 0 0 1 .3-.71l4.11-4.09a1 1 0 0 1 .69-.29h7.11a1.12 1.12 0 0 1 .71.29l4.09 4.09a1 1 0 0 1 .3.71 1 1 0 0 1-1 1 1 1 0 0 1-.69-.3l-3.81-3.81h-6.3l-3.54 3.52v15.6l3.54 3.52h6.3l3.81-3.82a1 1 0 0 1 .69-.29 1 1 0 0 1 .99.97zm-11.72-29.68a1.06 1.06 0 0 1 .54.15l2.54 1.7 2.51-1.7a1.06 1.06 0 0 1 .54-.15 1 1 0 0 1 1 1 1.06 1.06 0 0 1-.44.84l-3.05 2a1 1 0 0 1-.54.17 1.17 1.17 0 0 1-.57-.17l-3.05-2a1.06 1.06 0 0 1-.44-.84 1 1 0 0 1 .96-1zM277.68 242.22a1 1 0 0 1-.3.71L273.3 247a1.08 1.08 0 0 1-.71.29h-2.93v.07h.44a1 1 0 0 1 .69.29l2.07 2a1 1 0 0 1 .27.71v2a1 1 0 0 1-.27.69l-2.07 2.07a1 1 0 0 1-.69.27h-2a1.1 1.1 0 0 1-.71-.27l-2-2.07a1 1 0 0 1-.3-.69 1 1 0 0 1 1-1 1 1 0 0 1 .71.29l1.75 1.75h1.21l1.48-1.48v-1.23l-1.48-1.48H268a1 1 0 0 1-1-1 .81.81 0 0 1 .1-.42l.3-.64h-2a1 1 0 0 1-.69-.29l-4.11-4.09a1.07 1.07 0 0 1-.3-.71v-16.23a1.12 1.12 0 0 1 .3-.71l4.11-4.09a1 1 0 0 1 .69-.29h7.11a1.12 1.12 0 0 1 .71.29l4.09 4.09a1 1 0 0 1 .3.71 1 1 0 0 1-1 1 1 1 0 0 1-.69-.3l-3.81-3.81h-6.3l-3.54 3.52v15.6l3.54 3.52h6.3l3.81-3.82a1 1 0 0 1 .69-.29 1 1 0 0 1 1.07.97zM282.58 221.72a1 1 0 0 1 1-1h11.22a1.05 1.05 0 0 1 .69.29l4.11 4.09a1.07 1.07 0 0 1 .3.71v16.39a1.12 1.12 0 0 1-.3.71l-4.13 4.09a1 1 0 0 1-.69.29h-11.22a1 1 0 0 1-1-1zm11.81 23.63l3.52-3.52v-15.6l-3.52-3.52h-9.85v22.64zm-7-32.81a1.06 1.06 0 0 1 .54.15l2.51 1.7 2.54-1.7a1.06 1.06 0 0 1 .54-.15 1 1 0 0 1 1 1 1.06 1.06 0 0 1-.44.84l-3.05 2a1.09 1.09 0 0 1-.57.17 1.08 1.08 0 0 1-.54-.17l-3.05-2a1.06 1.06 0 0 1-.44-.84 1 1 0 0 1 .97-1zM303.91 233h3.91v-11.28a1 1 0 0 1 1-1h10.63a1 1 0 0 1 .69.29l4.11 4.09a1.07 1.07 0 0 1 .3.71v16.39a1.11 1.11 0 0 1-.3.71l-4.12 4.09a1 1 0 0 1-.69.29h-10.63a1 1 0 0 1-1-1V235h-3.91a1 1 0 1 1 0-2zm15.14 12.31l3.52-3.52v-15.6l-3.52-3.52h-9.25V233h3.94a1 1 0 0 1 0 2h-3.94v10.34zM347 247.32h-15.37a1 1 0 0 1-1-1v-24.6a1 1 0 0 1 1-1H347a1 1 0 1 1 0 2h-14.39V233H347a1 1 0 1 1 0 2h-14.39v10.34H347a1 1 0 1 1 0 2zm-4.6-30.77a1.45 1.45 0 0 1-.32 0l-6.13-2a1 1 0 0 1-.66-1 1 1 0 0 1 1-1 1.39 1.39 0 0 1 .32 0l6.13 2a1 1 0 0 1 .66.94 1 1 0 0 1-1.04 1.06zM369.13 247.32H353.8a1 1 0 0 1-1-1v-24.6a1 1 0 0 1 1-1h15.33a1 1 0 0 1 0 2h-14.34V233h14.35a1 1 0 0 1 0 2h-14.35v10.34h14.35a1 1 0 0 1 0 2zm-3.62-33.82a1 1 0 0 1-.66 1l-6.13 2a1.45 1.45 0 0 1-.32 0 1 1 0 0 1-1-1 1 1 0 0 1 .67-.94l6.13-2a1.38 1.38 0 0 1 .32 0 1 1 0 0 1 1 .94zM391.31 247.32H376a1 1 0 0 1-1-1v-24.6a1 1 0 0 1 1-1h15.33a1 1 0 0 1 0 2H377V233h14.35a1 1 0 0 1 0 2H377v10.34h14.35a1 1 0 0 1 0 2zm-11.72-31.75a1 1 0 0 1 .44-.81l3.05-2.07a1.06 1.06 0 0 1 .54-.15 1.08 1.08 0 0 1 .57.15l3.05 2.07a1 1 0 0 1 .44.81 1 1 0 0 1-1 1 1.08 1.08 0 0 1-.54-.17l-2.54-1.67-2.51 1.67a1.08 1.08 0 0 1-.54.17 1 1 0 0 1-.96-1zM413.48 247.32h-15.33a1 1 0 0 1-1-1v-24.6a1 1 0 0 1 1-1h15.33a1 1 0 0 1 0 2h-14.35V233h14.35a1 1 0 0 1 0 2h-14.35v10.34h14.35a1 1 0 0 1 0 2zM401 214.75v-1.23a1 1 0 1 1 2 0v1.23a1 1 0 1 1-2 0zm7.65 0v-1.23a1 1 0 0 1 2 0v1.23a1 1 0 1 1-2 0zM435.66 247.32h-15.34a1 1 0 0 1-1-1v-24.6a1 1 0 0 1 1-1h15.33a1 1 0 0 1 0 2h-14.34V233h14.35a1 1 0 0 1 0 2h-14.35v10.34h14.35a1 1 0 0 1 0 2zm-10.73-34.78a1.06 1.06 0 0 1 .54.15l2.51 1.7 2.54-1.7a1.06 1.06 0 0 1 .54-.15 1 1 0 0 1 1 1 1.06 1.06 0 0 1-.44.84l-3.05 2a1 1 0 0 1-1.11 0l-3.05-2a1.06 1.06 0 0 1-.44-.84 1 1 0 0 1 .96-1zM458 252.49a.94.94 0 0 1-.27.69l-2 2.07a1.1 1.1 0 0 1-.71.27h-2a1 1 0 0 1-.69-.27l-2.07-2.07a1 1 0 0 1-.27-.69v-2a1.07 1.07 0 0 1 .42-.84l3.45-2.29H442.5a1 1 0 0 1-1-1v-24.64a1 1 0 0 1 1-1h15.33a1 1 0 0 1 0 2h-14.35V233h14.35a1 1 0 0 1 0 2h-14.35v10.34h14.35a1 1 0 0 1 0 2h-.47l-5.44 3.66v1.11l1.48 1.48h1.21l1.75-1.75a1 1 0 0 1 .71-.29 1 1 0 0 1 .93.94zM467.7 216.55a1.25 1.25 0 0 1-.3 0l-6.13-2a1 1 0 0 1-.67-1 1 1 0 0 1 1-1 1.2 1.2 0 0 1 .3 0l6.13 2a1 1 0 0 1 .67.94 1 1 0 0 1-1 1.06zm-4 29.78v-24.61a1 1 0 0 1 2 0v24.61a1 1 0 0 1-2 0zM478.6 213.5a1 1 0 0 1-.67 1l-6.13 2a1.25 1.25 0 0 1-.3 0 1 1 0 0 1-1-1 1 1 0 0 1 .67-.94l6.13-2a1.2 1.2 0 0 1 .3 0 1 1 0 0 1 1 .94zm-5 32.83v-24.61a1 1 0 0 1 2 0v24.61a1 1 0 0 1-2 0zM480.45 215.57a1 1 0 0 1 .42-.81l3.08-2.07a1.06 1.06 0 0 1 .54-.15 1 1 0 0 1 .54.15l3.08 2.07a1 1 0 0 1-.57 1.8 1.08 1.08 0 0 1-.54-.17l-2.51-1.67-2.49 1.66a1.08 1.08 0 0 1-.54.17 1 1 0 0 1-1.01-.98zm3.05 30.77v-24.62a1 1 0 0 1 2 0v24.61a1 1 0 0 1-2 0zM489.58 214.75v-1.23a1 1 0 0 1 2 0v1.23a1 1 0 1 1-2 0zm3.84 31.58v-24.61a1 1 0 0 1 2 0v24.61a1 1 0 0 1-2 0zm3.84-31.58v-1.23a1 1 0 0 1 2 0v1.23a1 1 0 1 1-2 0zM503.36 246.33v-24.61a1 1 0 0 1 2 0v24.61a1 1 0 0 1-2 0zm5.29-5.09a1 1 0 0 1 .69.29l3.81 3.82H517l3.52-3.52v-20.11a1 1 0 0 1 2 0v20.5a1 1 0 0 1-.27.71l-4.12 4.07a1 1 0 0 1-.69.29h-4.7a1 1 0 0 1-.74-.29l-4.11-4.09a1 1 0 0 1-.27-.71 1 1 0 0 1 1.03-.96zM46.83 297.32H31.5a1 1 0 0 1-1-1v-24.6a1 1 0 0 1 2 0v23.63h14.33a1 1 0 1 1 0 2zm-3.62-33.82a1 1 0 0 1-.66 1l-6.13 2a1.45 1.45 0 0 1-.32 0 1 1 0 0 1-1-1 1 1 0 0 1 .66-.94l6.13-2a1.4 1.4 0 0 1 .32 0 1 1 0 0 1 1 .94zM68.09 297.32H52.76a1 1 0 0 1-1-1v-24.6a1 1 0 0 1 2 0v23.63h14.33a1 1 0 1 1 0 2zm-5.46-33.79a.89.89 0 0 1-.15.49L60 268.13a1 1 0 0 1-.84.47 1 1 0 0 1-1-1 .89.89 0 0 1 .15-.49l2.5-4.11a1 1 0 0 1 .84-.47 1 1 0 0 1 .98.99zM79.14 279.92a1 1 0 0 1-.47.86l-2.76 1.62v12.95h13.74a1 1 0 0 1 0 2H74.93a1 1 0 0 1-1-1v-12.79l-2.19 1.3a.89.89 0 0 1-.49.15 1 1 0 0 1-1-1 1 1 0 0 1 .47-.84l3.2-1.92v-9.55a1 1 0 0 1 2 0v8.39l1.75-1a.89.89 0 0 1 .49-.15 1 1 0 0 1 .98.98zM110.92 297.32a1 1 0 0 1-.84-.47l-13.51-21.68v21.17a1 1 0 0 1-2 0v-24.62a1 1 0 0 1 1-1 1 1 0 0 1 .81.44l13.51 21.68v-21.12a1 1 0 0 1 2 0v24.61a1 1 0 0 1-.97.99zm-3.62-33.82a1 1 0 0 1-.66 1l-6.13 2a1.45 1.45 0 0 1-.32 0 1 1 0 0 1-1-1 1 1 0 0 1 .66-.94l6.13-2a1.4 1.4 0 0 1 .32 0 1 1 0 0 1 1 .94zM134.49 297.32a1 1 0 0 1-.84-.47l-13.51-21.68v21.17a1 1 0 0 1-2 0v-24.62a1 1 0 0 1 1-1 1 1 0 0 1 .81.44l13.51 21.68v-21.12a1 1 0 0 1 2 0v24.61a1 1 0 0 1-.97.99zm-13.24-31.75a1 1 0 0 1 .44-.81l3.05-2.07a1.06 1.06 0 0 1 .54-.15 1 1 0 0 1 .54.15l2.54 1.7 2.51-1.7a1.06 1.06 0 0 1 .54-.15 1 1 0 0 1 1 1 1.06 1.06 0 0 1-.44.84l-3.05 2a1 1 0 0 1-.54.17 1.08 1.08 0 0 1-.54-.17l-2.54-1.67-2.51 1.67a1.08 1.08 0 0 1-.54.17 1 1 0 0 1-1-.98zM158.07 297.32a1 1 0 0 1-.84-.47l-13.51-21.68v21.17a1 1 0 0 1-2 0v-24.62a1 1 0 0 1 1-1 1 1 0 0 1 .81.44l13.51 21.68v-21.12a1 1 0 0 1 2 0v24.61a1 1 0 0 1-.97.99zm-10.73-34.78a1.06 1.06 0 0 1 .54.15l2.51 1.7 2.53-1.7a1.06 1.06 0 0 1 .54-.15 1 1 0 0 1 1 1 1.06 1.06 0 0 1-.44.84l-3.05 2a1.09 1.09 0 0 1-.57.17 1.08 1.08 0 0 1-.54-.17l-3.05-2a1.06 1.06 0 0 1-.44-.84 1 1 0 0 1 .97-1zM170 291.24a1 1 0 0 1 .69.29l3.81 3.82h5.71l3.52-3.52v-15.6l-3.52-3.52h-5.88l-7 3.72v19.91a1 1 0 0 1-2 0v-24.62a1 1 0 0 1 2 0v2.46l6.35-3.32a.92.92 0 0 1 .44-.12h6.52a1 1 0 0 1 .69.29l4.11 4.09a1.11 1.11 0 0 1 .3.71v16.39a1.07 1.07 0 0 1-.3.71L181.3 297a1.05 1.05 0 0 1-.69.29h-6.52a1 1 0 0 1-.69-.29l-4.11-4.09a1 1 0 0 1-.27-.71 1 1 0 0 1 .98-.96zM204 297a1.08 1.08 0 0 1-.71.29h-7.11a1 1 0 0 1-.69-.29l-4.11-4.09a1.07 1.07 0 0 1-.3-.71v-16.37a1.12 1.12 0 0 1 .3-.71l4.11-4.09a1 1 0 0 1 .69-.29h7.11a1.12 1.12 0 0 1 .71.29l4.09 4.09a1.07 1.07 0 0 1 .3.71v16.39a1.12 1.12 0 0 1-.3.71zm2.41-20.8l-3.52-3.52h-6.3l-3.59 3.54v15.6l3.54 3.52h6.3l3.52-3.52zm-3.62-9.67a1.24 1.24 0 0 1-.3 0l-6.13-2a1 1 0 0 1-.69-1 1 1 0 0 1 1-1 1.2 1.2 0 0 1 .3 0l6.13 2a1 1 0 0 1 .66.94 1 1 0 0 1-1 1.08zM226.61 297a1.08 1.08 0 0 1-.71.29h-7.11a1 1 0 0 1-.69-.29l-4.1-4.06a1.07 1.07 0 0 1-.3-.71v-16.4a1.12 1.12 0 0 1 .3-.71l4.1-4.12a1 1 0 0 1 .69-.29h7.11a1.12 1.12 0 0 1 .71.29l4.09 4.09a1.07 1.07 0 0 1 .3.71v16.39a1.12 1.12 0 0 1-.3.71zm2.41-20.8l-3.52-3.52h-6.3l-3.54 3.52v15.6l3.54 3.52h6.3l3.52-3.52zm-2.63-12.72a1 1 0 0 1-.66 1l-6.13 2a1.25 1.25 0 0 1-.3 0 1 1 0 0 1-.32-1.92l6.13-2a1.2 1.2 0 0 1 .3 0 1 1 0 0 1 .98.94zM249.25 297a1.08 1.08 0 0 1-.71.29h-7.11a1 1 0 0 1-.69-.29l-4.11-4.09a1.07 1.07 0 0 1-.3-.71v-16.37a1.12 1.12 0 0 1 .3-.71l4.11-4.09a1 1 0 0 1 .69-.29h7.11a1.12 1.12 0 0 1 .71.29l4.09 4.09a1.07 1.07 0 0 1 .3.71v16.39a1.12 1.12 0 0 1-.3.71zm2.41-20.8l-3.52-3.52h-6.3l-3.54 3.52v15.6l3.54 3.52h6.3l3.52-3.52zm-10.73-10.66a1 1 0 0 1 .44-.81l3.05-2.07a1.15 1.15 0 0 1 .57-.15 1 1 0 0 1 .54.15l3.05 2.07a1 1 0 0 1 .44.81 1 1 0 0 1-1 1 1.08 1.08 0 0 1-.54-.17l-2.48-1.66-2.54 1.67a1.08 1.08 0 0 1-.54.17 1 1 0 0 1-.99-.98zM271.9 297a1.08 1.08 0 0 1-.71.29h-7.11a1 1 0 0 1-.69-.29l-4.11-4.09a1.07 1.07 0 0 1-.3-.71v-16.37a1.12 1.12 0 0 1 .3-.71l4.11-4.09a1 1 0 0 1 .69-.29h7.11a1.12 1.12 0 0 1 .71.29l4.09 4.09a1.07 1.07 0 0 1 .3.71v16.39a1.12 1.12 0 0 1-.3.71zm2.41-20.8l-3.52-3.52h-6.3l-3.54 3.52v15.6l3.54 3.52h6.3l3.52-3.52zm-12.26-10.66a1 1 0 0 1 .44-.81l3.05-2.07a1.06 1.06 0 0 1 .54-.15 1.09 1.09 0 0 1 .57.15l2.51 1.7 2.51-1.7a1.06 1.06 0 0 1 .54-.15 1 1 0 0 1 1 1 1 1 0 0 1-.42.84l-3.08 2a1 1 0 0 1-.54.17 1.08 1.08 0 0 1-.54-.17l-2.54-1.67-2.51 1.67a1.08 1.08 0 0 1-.54.17 1 1 0 0 1-.99-.95zM294.54 297a1.08 1.08 0 0 1-.71.29h-7.11a1 1 0 0 1-.72-.29l-4.11-4.09a1.07 1.07 0 0 1-.3-.71v-16.37a1.12 1.12 0 0 1 .3-.71L286 271a1 1 0 0 1 .69-.29h7.11a1.12 1.12 0 0 1 .71.29l4.09 4.09a1.07 1.07 0 0 1 .3.71v16.39a1.12 1.12 0 0 1-.3.71zm2.41-20.8l-3.52-3.52h-6.3l-3.54 3.52v15.6l3.54 3.52h6.3l3.52-3.52zm-11.49-11.47v-1.23a1 1 0 0 1 2 0v1.23a1 1 0 1 1-2 0zm7.65 0v-1.23a1 1 0 0 1 2 0v1.23a1 1 0 1 1-2 0zM317.18 297a1.08 1.08 0 0 1-.71.29h-7.11a1 1 0 0 1-.69-.29l-4.11-4.09a1.07 1.07 0 0 1-.3-.71v-16.37a1.12 1.12 0 0 1 .3-.71l4.11-4.09a1 1 0 0 1 .69-.29h7.11a1.12 1.12 0 0 1 .71.29l4.09 4.09a1.07 1.07 0 0 1 .3.71v16.39a1.12 1.12 0 0 1-.3.71zm-4-33.52a1 1 0 0 1-.64.94l-5.37 2a.88.88 0 0 1-.34.07 1 1 0 0 1-1-1 1 1 0 0 1 .62-.91l5.37-2.07a.83.83 0 0 1 .34 0 1 1 0 0 1 .98.99zm6.45 12.72l-3.52-3.52h-6.3l-3.54 3.52v15.6l3.54 3.52h6.3l3.52-3.52zm-6.89-10.66a1 1 0 0 1 .64-.91l5.34-2.07a.83.83 0 0 1 .34 0 1 1 0 0 1 1 1 1 1 0 0 1-.64.94l-5.37 2a.88.88 0 0 1-.34.07 1 1 0 0 1-1.01-1zM358.6 297.32h-15.36a1 1 0 0 1-1-1v-1.72l-2.39 2.4a1 1 0 0 1-.69.29H332a1 1 0 0 1-.69-.29l-4.11-4.09a1.07 1.07 0 0 1-.3-.71v-16.37a1.12 1.12 0 0 1 .3-.71l4.11-4.09a1 1 0 0 1 .69-.29h7.16a1.05 1.05 0 0 1 .69.29l2.41 2.41v-1.72a1 1 0 0 1 1-1h15.34a1 1 0 0 1 0 2h-14.37V283h14.37a1 1 0 0 1 0 2h-14.37v10.34h14.37a1 1 0 1 1 0 2zm-16.34-21.09l-3.52-3.52h-6.33l-3.54 3.52v15.6l3.54 3.52h6.33l3.52-3.52zM381.32 271.72a1 1 0 0 1-.15.52l-1.17 1.87 1 1a1.07 1.07 0 0 1 .29.71v16.39a1.12 1.12 0 0 1-.29.71l-4.07 4.08a1.07 1.07 0 0 1-.71.29h-7.11a1 1 0 0 1-.69-.29l-1.65-1.65-.93 1.48a1 1 0 0 1-.84.47 1 1 0 0 1-1-1 1 1 0 0 1 .15-.52l1.16-1.87-1-1a1.07 1.07 0 0 1-.29-.71v-16.37a1.12 1.12 0 0 1 .29-.71l4.11-4.09a1 1 0 0 1 .69-.29h7.11a1.11 1.11 0 0 1 .71.29l1.65 1.65.91-1.48a1 1 0 0 1 .84-.47 1 1 0 0 1 .99.99zm-5.49 1h-6.3l-3.53 3.5v15.6l.42.39 11.1-17.82zm3.52 3.52l-.42-.39-11.1 17.82 1.7 1.7h6.3l3.52-3.52zM403.44 297.32a1 1 0 0 1-.94-.66L398.62 285h-9.52v11.32a1 1 0 0 1-2 0v-24.6a1 1 0 0 1 1-1h11.22a1.05 1.05 0 0 1 .69.29l4.11 4.09a1.08 1.08 0 0 1 .29.71v4.09a1.11 1.11 0 0 1-.29.71l-3.67 3.67 3.93 11.72a1.45 1.45 0 0 1 0 .32 1 1 0 0 1-.94 1zm-1-17.79v-3.3l-3.52-3.52h-9.84V283h9.84zm-3.4-16a1 1 0 0 1-.66 1l-6.13 2a1.45 1.45 0 0 1-.32 0 1 1 0 0 1-1-1 1 1 0 0 1 .67-.94l6.13-2a1.4 1.4 0 0 1 .32 0 1 1 0 0 1 1.01.91zM425.62 297.32a1 1 0 0 1-.94-.66L420.79 285h-9.52v11.32a1 1 0 0 1-2 0v-24.6a1 1 0 0 1 1-1h11.23a1.05 1.05 0 0 1 .69.29l4.11 4.09a1.08 1.08 0 0 1 .29.71v4.09a1.11 1.11 0 0 1-.29.71l-3.67 3.67 3.92 11.72a1.45 1.45 0 0 1 0 .32 1 1 0 0 1-.93 1zm-1-17.79v-3.3l-3.52-3.52h-9.84V283h9.84zm-10.51-17a1.06 1.06 0 0 1 .54.15l2.51 1.7 2.54-1.7a1.06 1.06 0 0 1 .54-.15 1 1 0 0 1 1 1 1.06 1.06 0 0 1-.44.84l-3.05 2a1.09 1.09 0 0 1-.57.17 1.08 1.08 0 0 1-.54-.17l-3.05-2a1.06 1.06 0 0 1-.44-.84 1 1 0 0 1 .97-.99zM431.08 291.24a1 1 0 0 1 .69.29l3.81 3.82h6.3l3.52-3.52v-3.1l-14.79-7.92a1.07 1.07 0 0 1-.52-.89v-4.09a1.11 1.11 0 0 1 .3-.71l4.08-4.09a1.08 1.08 0 0 1 .71-.29h7.11a1.05 1.05 0 0 1 .69.29l4.11 4.09a1 1 0 0 1 .27.71 1 1 0 0 1-1 1 1 1 0 0 1-.69-.3l-3.82-3.81h-6.3l-3.52 3.52v3.1l14.79 7.92a1 1 0 0 1 .52.89v4.09a1 1 0 0 1-.27.71L443 297a1.05 1.05 0 0 1-.69.29h-7.11a1.08 1.08 0 0 1-.71-.29l-4.08-4.09a1 1 0 0 1-.3-.71 1 1 0 0 1 .97-.96zm11.72-27.74a1 1 0 0 1-.69 1l-6.13 2a1.25 1.25 0 0 1-.3 0 1 1 0 0 1-1-1 1 1 0 0 1 .67-.94l6.13-2a1.2 1.2 0 0 1 .3 0 1 1 0 0 1 1.01.94zM451.87 291.24a1 1 0 0 1 .69.29l3.81 3.82h6.3l3.52-3.52v-3.1l-14.79-7.92a1.07 1.07 0 0 1-.52-.89v-4.09a1.11 1.11 0 0 1 .3-.71l4.08-4.09a1.08 1.08 0 0 1 .71-.29h7.11a1.05 1.05 0 0 1 .69.29l4.11 4.09a1 1 0 0 1 .27.71 1 1 0 0 1-1 1 1 1 0 0 1-.69-.3l-3.82-3.81h-6.3l-3.52 3.52v3.1l14.79 7.92a1 1 0 0 1 .52.89v4.09a1 1 0 0 1-.27.71l-4.07 4.05a1.05 1.05 0 0 1-.69.29H456a1.08 1.08 0 0 1-.71-.29l-4.08-4.09a1 1 0 0 1-.3-.71 1 1 0 0 1 .96-.96zm4.6-28.7a1.06 1.06 0 0 1 .54.15l2.51 1.7 2.51-1.7a1.06 1.06 0 0 1 .54-.15 1 1 0 0 1 1 1 1.06 1.06 0 0 1-.44.84l-3.08 2a1 1 0 0 1-.54.17 1.08 1.08 0 0 1-.54-.17l-3.08-2a1 1 0 0 1-.42-.84 1 1 0 0 1 1.01-1zM472.67 291.24a1 1 0 0 1 .69.29l3.81 3.82h6.3l3.52-3.52v-3.1l-14.79-7.93a1.07 1.07 0 0 1-.52-.89v-4.09a1.11 1.11 0 0 1 .3-.71l4.08-4.09a1.08 1.08 0 0 1 .71-.29h7.11a1.05 1.05 0 0 1 .69.29l4.11 4.09a1 1 0 0 1 .27.71 1 1 0 0 1-1 1 1 1 0 0 1-.69-.3l-3.82-3.81h-6.3l-3.52 3.52v3.1l14.79 7.92a1 1 0 0 1 .52.89v4.09a1 1 0 0 1-.27.71l-4.08 4.06a1.05 1.05 0 0 1-.69.29h-3v.07h.44a1.12 1.12 0 0 1 .71.29l2 2a1.07 1.07 0 0 1 .3.71v2a1 1 0 0 1-.3.69l-2 2.07a1 1 0 0 1-.71.27h-2a1 1 0 0 1-.69-.27l-2.07-2.07a.94.94 0 0 1-.27-.69 1 1 0 0 1 1-1 1 1 0 0 1 .69.29l1.77 1.75h1.21l1.48-1.48v-1.23l-1.48-1.48h-1.62a1 1 0 0 1-1-1 .81.81 0 0 1 .1-.42l.32-.64h-2a1.08 1.08 0 0 1-.71-.29l-4.06-3.92a1 1 0 0 1-.3-.71 1 1 0 0 1 .97-.99zM498.76 296.33v-23.62h-6.67a1 1 0 0 1 0-2h15.31a1 1 0 0 1 0 2h-6.67v23.63a1 1 0 0 1-2 0zm-2.07-33.79a1.06 1.06 0 0 1 .54.15l2.51 1.7 2.51-1.7a1.06 1.06 0 0 1 .54-.15 1 1 0 0 1 1 1 1 1 0 0 1-.42.84l-3.08 2a1 1 0 0 1-.54.17 1.08 1.08 0 0 1-.54-.17l-3.08-2a1 1 0 0 1-.42-.84 1 1 0 0 1 .98-1zM518.55 301.5a1 1 0 0 1 .71.29l1.75 1.75h1.23l1.45-1.48v-1.23l-1.45-1.48h-1.62a1 1 0 0 1-1-1 .82.82 0 0 1 .1-.42l.91-1.85v-23.37H514a1 1 0 0 1 0-2h15.31a1 1 0 0 1 0 2h-6.67v23.63a1.17 1.17 0 0 1-.1.44l-.32.62h.44a1 1 0 0 1 .69.29l2.07 2a1 1 0 0 1 .27.71v2a1 1 0 0 1-.27.69l-2.07 2.07a1 1 0 0 1-.69.27h-2a1 1 0 0 1-.69-.27l-2.07-2.07a.94.94 0 0 1-.27-.69 1 1 0 0 1 .92-.9zM32 321.72v20.11l3.54 3.52h6.3l3.52-3.52v-20.11a1 1 0 0 1 2 0v20.5a1.07 1.07 0 0 1-.3.71L43 347a1.12 1.12 0 0 1-.71.29h-7.15a1 1 0 0 1-.69-.29l-4.11-4.09a1.12 1.12 0 0 1-.3-.71v-20.5a1 1 0 0 1 2 0zm9.75-5.17a1.24 1.24 0 0 1-.3 0l-6.13-2a1 1 0 0 1-.69-1 1 1 0 0 1 1-1 1.2 1.2 0 0 1 .3 0l6.13 2a1 1 0 0 1 .66.94 1 1 0 0 1-.96 1.06zM54.65 321.72v20.11l3.54 3.52h6.3l3.51-3.52v-20.11a1 1 0 0 1 2 0v20.5a1.07 1.07 0 0 1-.3.71L65.61 347a1.12 1.12 0 0 1-.71.29h-7.12a1 1 0 0 1-.69-.29L53 342.94a1.12 1.12 0 0 1-.3-.71v-20.5a1 1 0 0 1 2 0zm10.73-8.22a1 1 0 0 1-.66 1l-6.13 2a1.25 1.25 0 0 1-.3 0 1 1 0 0 1-.32-1.92l6.13-2a1.2 1.2 0 0 1 .3 0 1 1 0 0 1 .99.92zM77.3 321.72v20.11l3.54 3.52h6.3l3.52-3.52v-20.11a1 1 0 0 1 2 0v20.5a1.07 1.07 0 0 1-.3.71L88.25 347a1.12 1.12 0 0 1-.71.29h-7.12a1 1 0 0 1-.69-.29l-4.11-4.09a1.12 1.12 0 0 1-.3-.71v-20.5a1 1 0 0 1 2 0zm2.63-6.15a1 1 0 0 1 .44-.81l3.05-2.07a1.15 1.15 0 0 1 .57-.15 1 1 0 0 1 .54.15l3.05 2.07a1 1 0 0 1 .44.81 1 1 0 0 1-1 1 1.08 1.08 0 0 1-.54-.17L84 314.71l-2.54 1.67a1.08 1.08 0 0 1-.54.17 1 1 0 0 1-.99-.98zM99.94 321.72v20.11l3.54 3.52h6.3l3.52-3.52v-20.11a1 1 0 0 1 2 0v20.5a1.07 1.07 0 0 1-.3.71l-4.11 4.07a1.12 1.12 0 0 1-.71.29h-7.11a1 1 0 0 1-.69-.29l-4.11-4.09a1.12 1.12 0 0 1-.3-.71v-20.5a1 1 0 0 1 2 0zm1.87-7v-1.23a1 1 0 0 1 2 0v1.23a1 1 0 1 1-2 0zm7.65 0v-1.23a1 1 0 0 1 2 0v1.23a1 1 0 1 1-2 0zM122.58 321.72v20.11l3.54 3.52h6.3l3.52-3.52v-20.11a1 1 0 0 1 2 0v20.5a1.07 1.07 0 0 1-.3.71l-4.11 4.07a1.12 1.12 0 0 1-.71.29h-7.11a1 1 0 0 1-.71-.29l-4.11-4.09a1.12 1.12 0 0 1-.3-.71v-20.5a1 1 0 0 1 2 0zm6.92-8.22a1 1 0 0 1-.64.94l-5.37 2a.88.88 0 0 1-.34.07 1 1 0 0 1-1-1 1 1 0 0 1 .62-.91l5.37-2.07a.83.83 0 0 1 .34 0 1 1 0 0 1 1.02.97zm-.44 2.07a1 1 0 0 1 .64-.91l5.34-2.07a.83.83 0 0 1 .34 0 1 1 0 0 1 1 1 1 1 0 0 1-.64.94l-5.37 2a.88.88 0 0 1-.34.07 1 1 0 0 1-.98-1.03zM145.22 321.72v20.11l3.54 3.52h6.3l3.52-3.52v-20.11a1 1 0 0 1 2 0v20.5a1.07 1.07 0 0 1-.3.71l-4.1 4.07a1.12 1.12 0 0 1-.71.29h-7.11a1 1 0 0 1-.69-.29l-4.11-4.09a1.12 1.12 0 0 1-.3-.71v-20.5a1 1 0 0 1 2 0zm10.73-8.2v2a1 1 0 0 1-.27.69l-2.07 2.07a1 1 0 0 1-.69.27h-2a1 1 0 0 1-.71-.27l-2-2.07a1.05 1.05 0 0 1-.3-.69v-2a1.07 1.07 0 0 1 .3-.71l2-2a1.12 1.12 0 0 1 .71-.29h2a1 1 0 0 1 .69.29l2.07 2a1.1 1.1 0 0 1 .32.71zm-3.45-1.08h-1.2l-1.48 1.48v1.23l1.48 1.48h1.21l1.48-1.48v-1.23zM180.88 321.72a1 1 0 0 1-.15.52l-7.51 12.06v12a1 1 0 0 1-2 0v-12l-7.51-12.06a1 1 0 0 1-.15-.52 1 1 0 0 1 1-1 1.06 1.06 0 0 1 .86.47l6.82 11 6.82-11a1.06 1.06 0 0 1 .86-.47 1 1 0 0 1 .96 1zm-4.6-8.22a1 1 0 0 1-.66 1l-6.13 2a1.25 1.25 0 0 1-.3 0 1 1 0 0 1-1-1 1 1 0 0 1 .66-.94l6.13-2a1.2 1.2 0 0 1 .29 0 1 1 0 0 1 1.01.94zM198.92 321.72a1 1 0 0 1-.15.52l-7.51 12.06v12a1 1 0 0 1-2 0v-12l-7.51-12.06a1 1 0 0 1-.15-.52 1 1 0 0 1 1-1 1.06 1.06 0 0 1 .86.47l6.82 11 6.82-11a1.06 1.06 0 0 1 .86-.47 1 1 0 0 1 .96 1zm-13.46-7v-1.23a1 1 0 0 1 2 0v1.23a1 1 0 1 1-2 0zm7.68 0v-1.23a1 1 0 0 1 2 0v1.23a1 1 0 1 1-2 0zM201.58 320.74h15.33a1 1 0 0 1 1 1 1 1 0 0 1-.15.49l-14.4 23.11h13.56a1 1 0 0 1 0 2h-15.34a1 1 0 0 1-1-1 .88.88 0 0 1 .15-.49l14.4-23.11h-13.55a1 1 0 1 1 0-2zm11.72-7.24a1 1 0 0 1-.66 1l-6.13 2a1.45 1.45 0 0 1-.32 0 1 1 0 0 1-1-1 1 1 0 0 1 .66-.94l6.13-2a1.39 1.39 0 0 1 .32 0 1 1 0 0 1 1 .94zM221.47 320.74h15.33a1 1 0 0 1 1 1 1 1 0 0 1-.15.49l-14.4 23.11h13.55a1 1 0 0 1 0 2h-15.33a1 1 0 0 1-1-1 .88.88 0 0 1 .15-.49L235 322.71h-13.53a1 1 0 0 1 0-2zm4.6-8.2a1.06 1.06 0 0 1 .54.15l2.51 1.7 2.54-1.7a1.06 1.06 0 0 1 .54-.15 1 1 0 0 1 1 1 1.06 1.06 0 0 1-.44.84l-3.05 2a1.09 1.09 0 0 1-.57.17 1.08 1.08 0 0 1-.54-.17l-3.05-2a1.06 1.06 0 0 1-.44-.84 1 1 0 0 1 .96-1zM241.35 320.74h15.33a1 1 0 0 1 1 1 1 1 0 0 1-.15.49l-14.4 23.11h13.56a1 1 0 0 1 0 2h-15.34a1 1 0 0 1-1-1 .88.88 0 0 1 .15-.49l14.4-23.11h-13.55a1 1 0 0 1 0-2zm6.67-6v-1.23a1 1 0 0 1 2 0v1.23a1 1 0 1 1-2 0zM262.1 346.33v-24.61a1 1 0 0 1 2 0v5.17h10.24a1.05 1.05 0 0 1 .69.29l4.11 4.09a1.07 1.07 0 0 1 .3.71v4.08a1.11 1.11 0 0 1-.3.71l-4.14 4.1a1 1 0 0 1-.69.29h-10.24v5.17a1 1 0 0 1-2 0zm2-7.14h9.85l3.52-3.52v-3.3l-3.52-3.52h-9.85zM46.88 375v12.31a1 1 0 0 1-2 0v-1.72L42.5 388a1 1 0 0 1-.69.29h-7.14A1.05 1.05 0 0 1 34 388l-4.11-4.09a1 1 0 0 1-.27-.71v-4.09a1.1 1.1 0 0 1 .27-.71l4.11-4.06a1 1 0 0 1 .69-.3h7.14a1.05 1.05 0 0 1 .69.3l2.41 2.41V375a1 1 0 0 1 2 0zm-5.49 1h-6.3l-3.52 3.52v3.3l3.52 3.52h6.3l3.52-3.52v-3.3zm-.1-6.15a1.2 1.2 0 0 1-.3 0l-6.13-2a1 1 0 0 1-.66-1 1 1 0 0 1 1-1 1.25 1.25 0 0 1 .3 0l6.13 2a1 1 0 0 1 .66.94 1 1 0 0 1-1 1.07zM69.05 375v12.31a1 1 0 0 1-2 0v-1.72L64.67 388a1 1 0 0 1-.69.29h-7.14a1.05 1.05 0 0 1-.69-.29L52 383.94a1 1 0 0 1-.27-.71v-4.09a1.1 1.1 0 0 1 .27-.71l4.11-4.08a1 1 0 0 1 .69-.3H64a1.05 1.05 0 0 1 .69.3l2.41 2.41V375a1 1 0 0 1 2 0zm-5.49 1h-6.3l-3.52 3.52v3.3l3.52 3.52h6.3l3.52-3.52v-3.3zm.89-9.21a1 1 0 0 1-.66 1l-6.13 2a1.2 1.2 0 0 1-.3 0 1 1 0 0 1-1-1 1 1 0 0 1 .66-.94l6.13-2a1.25 1.25 0 0 1 .3 0 1 1 0 0 1 1 .96zM91.23 375v12.31a1 1 0 0 1-2 0v-1.72L86.85 388a1 1 0 0 1-.69.29H79a1.05 1.05 0 0 1-.69-.29l-4.11-4.09a1 1 0 0 1-.27-.71v-4.09a1.1 1.1 0 0 1 .27-.71l4.11-4.08A1 1 0 0 1 79 374h7.14a1.05 1.05 0 0 1 .69.3l2.41 2.41V375a1 1 0 0 1 2 0zm-5.49 1h-6.3l-3.52 3.52v3.3l3.52 3.52h6.3l3.52-3.52v-3.3zm-7.19-7.14a1 1 0 0 1 .42-.81L82 366a1.05 1.05 0 0 1 .54-.15 1 1 0 0 1 .54.15l3.08 2.07a1 1 0 0 1 .42.81 1 1 0 0 1-1 1 1.08 1.08 0 0 1-.54-.17L82.59 368l-2.51 1.67a1.08 1.08 0 0 1-.54.17 1 1 0 0 1-.99-.97zM113.4 375v12.31a1 1 0 0 1-2 0v-1.72L109 388a1 1 0 0 1-.69.29h-7.14a1.05 1.05 0 0 1-.69-.29l-4.11-4.09a1 1 0 0 1-.27-.71v-4.09a1.1 1.1 0 0 1 .27-.71l4.11-4.08a1 1 0 0 1 .69-.3h7.14a1.05 1.05 0 0 1 .69.3l2.41 2.41V375a1 1 0 0 1 2 0zm-5.49 1h-6.3l-3.52 3.52v3.3l3.52 3.52h6.3l3.52-3.52v-3.3zm-8.74-7.14a1 1 0 0 1 .44-.81l3.05-2.07a1.14 1.14 0 0 1 .57-.15 1 1 0 0 1 .54.15l2.51 1.7 2.51-1.7a1.14 1.14 0 0 1 .57-.15 1 1 0 0 1 1 1 1.06 1.06 0 0 1-.44.84l-3.08 2a1 1 0 0 1-.54.17 1.08 1.08 0 0 1-.54-.17l-2.52-1.67-2.54 1.67a1.08 1.08 0 0 1-.54.17 1 1 0 0 1-.98-.97zM135.58 375v12.31a1 1 0 0 1-2 0v-1.72L131.2 388a1 1 0 0 1-.69.29h-7.14a1.05 1.05 0 0 1-.69-.29l-4.11-4.09a1 1 0 0 1-.27-.71v-4.09a1.1 1.1 0 0 1 .27-.71l4.11-4.08a1 1 0 0 1 .69-.3h7.14a1.05 1.05 0 0 1 .69.3l2.41 2.41V375a1 1 0 0 1 2 0zm-5.49 1h-6.3l-3.52 3.52v3.3l3.52 3.52h6.3l3.52-3.52v-3.3zm-8-8v-1.23a1 1 0 0 1 2 0V368a1 1 0 0 1-2 0zm7.68 0v-1.23a1 1 0 0 1 2 0V368a1 1 0 0 1-2 0zM157.75 375v12.31a1 1 0 0 1-2 0v-1.72l-2.38 2.41a1 1 0 0 1-.69.29h-7.14a1.05 1.05 0 0 1-.69-.29l-4.11-4.09a1 1 0 0 1-.27-.71v-4.09a1.1 1.1 0 0 1 .27-.71l4.11-4.08a1 1 0 0 1 .69-.3h7.14a1.05 1.05 0 0 1 .69.3l2.41 2.41V375a1 1 0 0 1 2 0zm-5.49 1H146l-3.52 3.52v3.3l3.52 3.52h6.3l3.52-3.52v-3.3zm.89-9.18v2a1 1 0 0 1-.27.69l-2.07 2.07a1 1 0 0 1-.69.27h-2a1 1 0 0 1-.69-.27l-2.07-2.07a1 1 0 0 1-.29-.69v-2a1.07 1.07 0 0 1 .29-.71l2.07-2a1.05 1.05 0 0 1 .69-.29h2a1 1 0 0 1 .69.29l2.07 2a1.1 1.1 0 0 1 .27.72zm-3.42-1.08h-1.23l-1.5 1.48v1.23l1.48 1.48h1.23l1.45-1.48v-1.23zM179.92 375v12.31a1 1 0 0 1-2 0v-1.72l-2.38 2.41a1 1 0 0 1-.69.29h-7.14a1.05 1.05 0 0 1-.71-.29l-4.11-4.09a1 1 0 0 1-.27-.71v-4.09a1.1 1.1 0 0 1 .27-.71l4.11-4.08a1 1 0 0 1 .69-.3h7.14a1.05 1.05 0 0 1 .69.3l2.41 2.41V375a1 1 0 0 1 2 0zm-5.49 1h-6.3l-3.52 3.52v3.3l3.52 3.52h6.3l3.52-3.52v-3.3zm-5.24-11.25v1.65l1.48 1.48h1.23l1.45-1.48v-1.65a1 1 0 0 1 2 0v2.07a1 1 0 0 1-.27.69l-2.07 2a1 1 0 0 1-.69.3h-2a1 1 0 0 1-.69-.3l-2.07-2a1 1 0 0 1-.3-.69v-2.07a1 1 0 0 1 2 0zM201 393.49a1 1 0 0 1-.3.69l-2 2.07a1.1 1.1 0 0 1-.71.27h-2a1 1 0 0 1-.69-.27l-2.07-2.07a1 1 0 0 1-.27-.69v-2a1.07 1.07 0 0 1 .42-.84l3.45-2.29h-6.92a1.05 1.05 0 0 1-.69-.29l-4.11-4.09a1 1 0 0 1-.27-.71v-4.09a1.1 1.1 0 0 1 .27-.71l4.11-4.08a1 1 0 0 1 .69-.3H197a1.05 1.05 0 0 1 .69.3l2.41 2.41V375a1 1 0 0 1 2 0v12.31a1 1 0 0 1-1 1 .93.93 0 0 1-.52-.17l-5.67 3.86v1.11l1.48 1.48h1.21l1.75-1.75a1 1 0 0 1 .71-.29 1 1 0 0 1 .94.94zM196.61 376h-6.3l-3.52 3.52v3.3l3.52 3.52h6.3l3.52-3.52v-3.3zm2.07 11.05l.81-.54a1 1 0 0 1 .64-.17v-.74zM238.13 383.22a1 1 0 0 1-.3.71l-4.1 4.07a1 1 0 0 1-.69.29h-6.37a1 1 0 0 1-.67-.29l-2.44-2.41v1.72a1 1 0 0 1-2 0v-1.72l-2.41 2.41a1 1 0 0 1-.69.29h-6.4a1.05 1.05 0 0 1-.69-.29l-4.11-4.09a1 1 0 0 1-.27-.71v-4.09a1.1 1.1 0 0 1 .27-.71l4.11-4.08a1 1 0 0 1 .69-.3h6.4a1.05 1.05 0 0 1 .69.3l2.41 2.41V375a1 1 0 0 1 2 0v1.72l2.44-2.41a1.05 1.05 0 0 1 .69-.3H233a1 1 0 0 1 .69.3l4.11 4.08a1 1 0 0 1 .27.69 1 1 0 0 1-1 1h-13.53v2.71l3.52 3.52h5.59l3.79-3.82a1 1 0 0 1 .71-.29 1 1 0 0 1 .98 1.02zM218 376h-5.56l-3.44 3.53v3.3l3.52 3.52H218l3.52-3.52v-3.3zm16.71 2.14l-2.07-2.14h-5.59l-2.12 2.14zM258.85 380.12a1 1 0 0 1-.69-.29l-3.81-3.83H248l-3.52 3.52v3.3l3.52 3.52h6.3l3.81-3.82a1 1 0 0 1 .69-.29 1 1 0 0 1 1 1 1 1 0 0 1-.27.71l-4.07 4.06a1.05 1.05 0 0 1-.69.29h-7.14a1 1 0 0 1-.69-.29l-4.11-4.09a1.1 1.1 0 0 1-.27-.71v-4.09a1 1 0 0 1 .27-.71l4.11-4.08a1.05 1.05 0 0 1 .69-.3h7.14a1 1 0 0 1 .69.3l4.11 4.08a1 1 0 0 1 .27.71 1 1 0 0 1-.99 1.01zm-3.62-13.31a1 1 0 0 1-.66 1l-6.13 2a1.2 1.2 0 0 1-.3 0 1 1 0 0 1-1-1 1 1 0 0 1 .66-.94l6.13-2a1.25 1.25 0 0 1 .3 0 1 1 0 0 1 1 .94zM279.82 380.12a1 1 0 0 1-.69-.29l-3.81-3.83H269l-3.52 3.52v3.3l3.52 3.52h6.3l3.81-3.82a1 1 0 0 1 .69-.29 1 1 0 0 1 1 1 1 1 0 0 1-.27.71l-4.11 4.06a1.05 1.05 0 0 1-.69.29h-7.13a1 1 0 0 1-.69-.29l-4.11-4.09a1.1 1.1 0 0 1-.27-.71v-4.09a1 1 0 0 1 .27-.71l4.11-4.08a1.05 1.05 0 0 1 .69-.3h7.14a1 1 0 0 1 .69.3l4.11 4.08a1 1 0 0 1 .27.71 1 1 0 0 1-.99 1.01zm-10.71-14.27a1.05 1.05 0 0 1 .54.15l2.51 1.7 2.51-1.7a1.05 1.05 0 0 1 .54-.15 1 1 0 0 1 1 1 1 1 0 0 1-.42.84l-3.08 2a1 1 0 0 1-.54.17 1.08 1.08 0 0 1-.54-.17l-3.08-2a1 1 0 0 1-.42-.84 1 1 0 0 1 .98-1zM300.79 380.12a1 1 0 0 1-.69-.29l-3.81-3.83H290l-3.52 3.52v3.3l3.52 3.52h6.3l3.81-3.82a1 1 0 0 1 .69-.29 1 1 0 0 1 1 1 1 1 0 0 1-.27.71l-4.14 4.06a1.05 1.05 0 0 1-.69.29h-3v.07h.44a1.05 1.05 0 0 1 .69.29l2.07 2a1 1 0 0 1 .27.71v2a1 1 0 0 1-.27.69l-2.07 2.07a1 1 0 0 1-.69.27h-2a1 1 0 0 1-.69-.27l-2.07-2.07a.94.94 0 0 1-.27-.69 1 1 0 0 1 1-1 1 1 0 0 1 .71.29l1.75 1.75h1.23l1.45-1.48v-1.23l-1.45-1.48h-1.62a1 1 0 0 1-1-1 .81.81 0 0 1 .1-.42l.32-.64h-2a1 1 0 0 1-.69-.29l-4.11-4.09a1.1 1.1 0 0 1-.27-.71v-4.09a1 1 0 0 1 .27-.71l4.11-4.08a1.05 1.05 0 0 1 .69-.3h7.14a1 1 0 0 1 .69.3l4.11 4.08a1 1 0 0 1 .27.71 1 1 0 0 1-1.02 1.15zM323.51 367.3v20a1 1 0 0 1-2 0v-1.72l-2.38 2.42a1.05 1.05 0 0 1-.69.29h-7.14a1 1 0 0 1-.69-.29l-4.11-4.09a1.1 1.1 0 0 1-.27-.71v-4.09a1 1 0 0 1 .27-.71l4.11-4.08a1.05 1.05 0 0 1 .69-.3h7.14a1 1 0 0 1 .69.3l2.41 2.41v-14a1 1 0 0 1 2 0v3.62l2.44-4.09a1 1 0 0 1 .86-.49 1 1 0 0 1 1 1 .87.87 0 0 1-.12.49l-2.44 4.11a1 1 0 0 1-.86.49 1 1 0 0 1-.91-.56zM318 376h-6.3l-3.52 3.52v3.3l3.52 3.52h6.3l3.52-3.52v-3.3zM332.49 370.94a1 1 0 0 1 .66-.94l4.23-1.55-4.63-5.07a1 1 0 0 1-.25-.66 1 1 0 0 1 1.7-.67l5.17 5.66 5-1.82a.73.73 0 0 1 .32 0 1 1 0 0 1 1 1 1 1 0 0 1-.64.93l-4.23 1.55 4.63 5.07a.93.93 0 0 1 .25.66v8.2a1.1 1.1 0 0 1-.27.71L341.3 388a1.05 1.05 0 0 1-.69.29h-7.14a1 1 0 0 1-.69-.29l-4.11-4.09a1.1 1.1 0 0 1-.27-.71v-4.09a1 1 0 0 1 .27-.71l4.11-4.08a1.05 1.05 0 0 1 .69-.3h7.14a1 1 0 0 1 .69.3l2.41 2.41v-1.33l-4.9-5.37-5 1.82a.72.72 0 0 1-.32 0 1 1 0 0 1-1-.91zm11.22 8.59l-3.52-3.53h-6.3l-3.52 3.52v3.3l3.52 3.52h6.3l3.52-3.52zM367.41 383.22a1 1 0 0 1-.27.71L363 388a1 1 0 0 1-.69.29h-7.11a1 1 0 0 1-.69-.29l-4.11-4.09a1.1 1.1 0 0 1-.27-.71v-4.09a1.1 1.1 0 0 1 .27-.71l4.11-4.08a1.05 1.05 0 0 1 .69-.3h7.14a1 1 0 0 1 .69.3l4.11 4.08a1 1 0 0 1 .27.71 1 1 0 0 1-1 1H352.1v2.71l3.52 3.52h6.3l3.82-3.82a1 1 0 0 1 .69-.29 1 1 0 0 1 .98.99zm-5.49-7.22h-6.3l-2.14 2.14h10.58zm-.1-6.15a1.2 1.2 0 0 1-.29 0l-6.13-2a1 1 0 0 1-.66-1 1 1 0 0 1 1-1 1.25 1.25 0 0 1 .3 0l6.13 2a1 1 0 0 1 .67.94 1 1 0 0 1-1.02 1.07zM389.14 383.22a1 1 0 0 1-.27.71l-4.11 4.07a1 1 0 0 1-.69.29h-7.14a1 1 0 0 1-.69-.29l-4.11-4.09a1.1 1.1 0 0 1-.27-.71v-4.09a1.1 1.1 0 0 1 .27-.71l4.11-4.08a1.05 1.05 0 0 1 .69-.3h7.14a1 1 0 0 1 .69.3l4.11 4.08a1 1 0 0 1 .27.71 1 1 0 0 1-1 1h-14.31v2.71l3.52 3.52h6.3l3.82-3.82a1 1 0 0 1 .69-.29 1 1 0 0 1 .98.99zm-5.49-7.22h-6.3l-2.14 2.14h10.59zm.89-9.21a1 1 0 0 1-.67 1l-6.13 2a1.2 1.2 0 0 1-.3 0 1 1 0 0 1-1-1 1 1 0 0 1 .66-.94l6.13-2a1.25 1.25 0 0 1 .29 0 1 1 0 0 1 1.02.96zM410.88 383.22a1 1 0 0 1-.27.71l-4.12 4.07a1 1 0 0 1-.69.29h-7.14a1 1 0 0 1-.66-.29l-4.11-4.09a1.1 1.1 0 0 1-.27-.71v-4.09a1.1 1.1 0 0 1 .27-.71l4.11-4.08a1.05 1.05 0 0 1 .69-.3h7.14a1 1 0 0 1 .69.3l4.11 4.08a1 1 0 0 1 .27.71 1 1 0 0 1-1 1h-14.33v2.71l3.52 3.52h6.3l3.82-3.82a1 1 0 0 1 .69-.29 1 1 0 0 1 .98.99zm-5.49-7.22h-6.3l-2.14 2.14h10.58zm-7.19-7.14a1 1 0 0 1 .42-.81l3.08-2.07a1.05 1.05 0 0 1 .54-.15 1 1 0 0 1 .54.15l3.08 2.07a1 1 0 0 1-.57 1.8 1.08 1.08 0 0 1-.54-.17l-2.51-1.68-2.51 1.67a1.08 1.08 0 0 1-.54.17 1 1 0 0 1-.99-.97zM432.61 383.22a1 1 0 0 1-.27.71l-4.12 4.07a1 1 0 0 1-.69.29h-7.13a1 1 0 0 1-.69-.29l-4.11-4.09a1.1 1.1 0 0 1-.27-.71v-4.09a1.1 1.1 0 0 1 .27-.71l4.11-4.08a1.05 1.05 0 0 1 .69-.3h7.14a1 1 0 0 1 .69.3l4.11 4.08a1 1 0 0 1 .27.71 1 1 0 0 1-1 1H417.3v2.71l3.52 3.52h6.3l3.82-3.82a1 1 0 0 1 .69-.29 1 1 0 0 1 .98.99zm-5.49-7.22h-6.3l-2.14 2.14h10.58zm-7.19-7.14a1 1 0 0 1 .42-.81l3.08-2.07a1.05 1.05 0 0 1 .54-.15 1 1 0 0 1 .54.15l3.08 2.07a1 1 0 0 1-.57 1.8 1.08 1.08 0 0 1-.54-.17L424 368l-2.51 1.67a1.08 1.08 0 0 1-.54.17 1 1 0 0 1-1.02-.97zM454.34 383.22a1 1 0 0 1-.27.71L450 388a1 1 0 0 1-.69.29h-7.14a1 1 0 0 1-.69-.29l-4.11-4.09a1.1 1.1 0 0 1-.27-.71v-4.09a1.1 1.1 0 0 1 .27-.71l4.11-4.08a1.05 1.05 0 0 1 .69-.3h7.14a1 1 0 0 1 .69.3l4.11 4.08a1 1 0 0 1 .27.71 1 1 0 0 1-1 1H439v2.71l3.52 3.52h6.3l3.82-3.82a1 1 0 0 1 .69-.29 1 1 0 0 1 1.01.99zm-5.49-7.22h-6.3l-2.14 2.14H451zm-6.2-10.17a1.05 1.05 0 0 1 .54.15l2.51 1.7 2.51-1.7a1.05 1.05 0 0 1 .54-.15 1 1 0 0 1 1 1 1 1 0 0 1-.42.84l-3.08 2a1 1 0 0 1-.54.17 1.08 1.08 0 0 1-.54-.17l-3.08-2a1 1 0 0 1-.42-.84 1 1 0 0 1 .98-.98zM471.1 393.49a1 1 0 0 1-.3.69l-2 2.07a1 1 0 0 1-.69.27h-2a1 1 0 0 1-.69-.27l-2-2.07a1 1 0 0 1-.29-.69v-2a1.1 1.1 0 0 1 .44-.84l3.42-2.29h-3a1 1 0 0 1-.69-.29l-4.11-4.09a1.1 1.1 0 0 1-.27-.71v-4.09a1.1 1.1 0 0 1 .27-.71l4.11-4.08a1.05 1.05 0 0 1 .69-.3H471a1 1 0 0 1 .69.3l4.11 4.08a1 1 0 0 1 .27.71 1 1 0 0 1-1 1h-14.31v2.71l3.52 3.52h6.3l3.82-3.82a1 1 0 0 1 .69-.29 1 1 0 0 1 1 1 1 1 0 0 1-.27.71l-4.13 3.99a1 1 0 0 1-.69.29h-.59L465 392v1.11l1.48 1.48h1.21l1.77-1.75a1 1 0 0 1 .69-.29 1 1 0 0 1 .95.94zm-.52-17.49h-6.3l-2.14 2.14h10.58zM485.15 369.86a1.38 1.38 0 0 1-.32 0l-6.13-2a1 1 0 0 1-.67-1 1 1 0 0 1 1-1 1.45 1.45 0 0 1 .32 0l6.13 2a1 1 0 0 1 .66.94 1 1 0 0 1-.99 1.06zm-4.06 17.47V375a1 1 0 0 1 2 0v12.31a1 1 0 0 1-2 0zM495.44 366.81a1 1 0 0 1-.66 1l-6.13 2a1.4 1.4 0 0 1-.32 0 1 1 0 0 1-1-1 1 1 0 0 1 .67-.94l6.13-2a1.44 1.44 0 0 1 .32 0 1 1 0 0 1 .99.94zm-5 20.53V375a1 1 0 0 1 2 0v12.31a1 1 0 0 1-2 0zM496.64 368.87a1 1 0 0 1 .44-.81l3.05-2.07a1.05 1.05 0 0 1 .54-.15 1.08 1.08 0 0 1 .57.15l3.05 2.07a1 1 0 0 1 .44.81 1 1 0 0 1-1 1 1.08 1.08 0 0 1-.54-.17l-2.51-1.7-2.51 1.67a1.08 1.08 0 0 1-.54.17 1 1 0 0 1-.99-.97zm3.05 18.46V375a1 1 0 0 1 2 0v12.31a1 1 0 0 1-2 0zM505.18 368.06v-1.23a1 1 0 0 1 2 0v1.23a1 1 0 0 1-2 0zm3.82 19.27V375a1 1 0 0 1 2 0v12.31a1 1 0 0 1-2 0zm3.84-19.27v-1.23a1 1 0 0 1 2 0v1.23a1 1 0 0 1-2 0zM518.18 368.06v-1.23a1 1 0 0 1 2 0v1.23a1 1 0 1 1-2 0zm0 19.27V375a1 1 0 0 1 2 0v12.31a1 1 0 0 1-2 0zm5.07 12.31a1 1 0 0 1 .3-.69l3.81-3.82V375a1 1 0 0 1 2 0v20.5a1.07 1.07 0 0 1-.3.71l-4.09 4.08a1 1 0 0 1-.71.3 1 1 0 0 1-1.01-.95zm4.11-31.58v-1.23a1 1 0 0 1 2 0v1.23a1 1 0 0 1-2 0zM35.48 399.61a1 1 0 0 1-.66.94l-6.13 2.07a1.25 1.25 0 0 1-.3 0 1 1 0 0 1-.32-1.92l6.13-2.07a1.25 1.25 0 0 1 .3 0 1 1 0 0 1 .98.98zm-5 28.72v-24.61a1 1 0 0 1 2 0v24.61a1 1 0 0 1-2 0zM38.16 428.33v-24.61a1 1 0 0 1 2 0v24.61a1 1 0 0 1-2 0zm8.15-24.61a1 1 0 0 1-.25.66l-2.73 3.08a1 1 0 0 1-.74.32 1 1 0 0 1-1-1 1 1 0 0 1 .25-.66l2.76-3.08a.92.92 0 0 1 .71-.32 1 1 0 0 1 1 1zM56 411.92a1 1 0 0 1-.52.89l-3.3 1.77v13.76a1 1 0 0 1-2 0v-12.7l-2.36 1.26a1.11 1.11 0 0 1-.47.12 1 1 0 0 1-.47-1.85l3.3-1.77v-9.67a1 1 0 0 1 2 0v8.61l2.36-1.28a1 1 0 0 1 1.45.86zM61 416v1.72l2.44-2.41a1 1 0 0 1 .69-.3h7.11a1.12 1.12 0 0 1 .71.3l4.05 4.11a1.08 1.08 0 0 1 .3.71v8.2a1 1 0 0 1-2 0v-7.8L70.8 417h-6.3l-3.5 3.53v7.8a1 1 0 0 1-2 0V416a1 1 0 0 1 2 0zm10.73-8.22a1 1 0 0 1-.66 1l-6.13 2a1.2 1.2 0 0 1-.3 0 1 1 0 0 1-1-1 1 1 0 0 1 .69-.94l6.13-2a1.24 1.24 0 0 1 .3 0 1 1 0 0 1 .93.97zM83.13 416v1.72l2.44-2.41a1 1 0 0 1 .69-.3h7.11a1.12 1.12 0 0 1 .71.3l4.09 4.08a1.08 1.08 0 0 1 .3.71v8.2a1 1 0 0 1-2 0v-7.8L93 417h-6.3l-3.54 3.52v7.8a1 1 0 0 1-2 0V416a1 1 0 0 1 2 0zm1.11-6.15a1 1 0 0 1 .44-.81l3.05-2.04a1.05 1.05 0 0 1 .54-.15 1.08 1.08 0 0 1 .57.15l2.51 1.7 2.51-1.7a1.05 1.05 0 0 1 .54-.15 1 1 0 0 1 1 1 1 1 0 0 1-.42.84l-3.08 2a1 1 0 0 1-.54.17 1.08 1.08 0 0 1-.54-.17L88.27 409l-2.51 1.67a1.08 1.08 0 0 1-.54.17 1 1 0 0 1-.98-.97zM105.3 416v1.72l2.44-2.41a1 1 0 0 1 .69-.3h7.11a1.12 1.12 0 0 1 .71.3l4.09 4.08a1.08 1.08 0 0 1 .3.71v8.2a1 1 0 0 1-2 0v-7.8l-3.49-3.5h-6.3l-3.54 3.52v7.8a1 1 0 0 1-2 0V416a1 1 0 0 1 2 0zm3.62-9.18a1.05 1.05 0 0 1 .54.15l2.54 1.7 2.51-1.7a1.05 1.05 0 0 1 .54-.15 1 1 0 0 1 1 1 1.06 1.06 0 0 1-.44.84l-3.05 2a1 1 0 0 1-.54.17 1.17 1.17 0 0 1-.57-.17l-3.05-2a1.06 1.06 0 0 1-.44-.84 1 1 0 0 1 .96-.97zM136.73 440.64a1 1 0 0 1 .3-.69l3.81-3.82v-15.6l-3.52-3.53H131l-3.54 3.52v7.8a1 1 0 0 1-2 0V416a1 1 0 0 1 2 0v1.72l2.44-2.41a1 1 0 0 1 .69-.3h7.11a1.12 1.12 0 0 1 .71.3l4.09 4.08a1.08 1.08 0 0 1 .3.71v16.39a1.12 1.12 0 0 1-.3.71l-4.09 4.08a1 1 0 0 1-.71.3 1 1 0 0 1-.97-.94zM164.52 420.14v4.09a1 1 0 0 1-.27.71l-4.11 4.06a1.05 1.05 0 0 1-.69.29h-7.14a1 1 0 0 1-.69-.29l-4.11-4.09a1.1 1.1 0 0 1-.27-.71v-4.09a1 1 0 0 1 .27-.71l4.11-4.08a1.05 1.05 0 0 1 .69-.3h7.14a1 1 0 0 1 .69.3l4.11 4.08a1.1 1.1 0 0 1 .27.74zM159 417h-6.3l-3.52 3.52v3.3l3.52 3.52h6.3l3.52-3.52v-3.3zm-.1-6.15a1.2 1.2 0 0 1-.3 0l-6.13-2a1 1 0 0 1-.66-1 1 1 0 0 1 1-1 1.25 1.25 0 0 1 .3 0l6.13 2a1 1 0 0 1 .66.94 1 1 0 0 1-.97 1.07zM186.25 420.14v4.09a1 1 0 0 1-.27.71l-4.11 4.06a1.05 1.05 0 0 1-.69.29H174a1 1 0 0 1-.69-.29l-4.11-4.09a1.1 1.1 0 0 1-.27-.71v-4.09a1 1 0 0 1 .27-.71l4.11-4.08a1.05 1.05 0 0 1 .69-.3h7.14a1 1 0 0 1 .69.3l4.11 4.08a1.1 1.1 0 0 1 .31.74zm-5.49-3.14h-6.3l-3.52 3.52v3.3l3.52 3.52h6.3l3.52-3.52v-3.3zm.89-9.21a1 1 0 0 1-.66 1l-6.13 2a1.2 1.2 0 0 1-.3 0 1 1 0 0 1-1-1 1 1 0 0 1 .66-.94l6.13-2a1.25 1.25 0 0 1 .3 0 1 1 0 0 1 1 .96zM208 420.14v4.09a1 1 0 0 1-.27.71L203.6 429a1.05 1.05 0 0 1-.69.29h-7.14a1 1 0 0 1-.69-.29l-4.08-4.06a1.1 1.1 0 0 1-.27-.71v-4.09a1 1 0 0 1 .27-.71l4.11-4.08a1.05 1.05 0 0 1 .69-.3h7.14a1 1 0 0 1 .69.3l4.11 4.08a1.1 1.1 0 0 1 .26.71zm-5.51-3.14h-6.3l-3.52 3.52v3.3l3.52 3.52h6.3l3.52-3.52v-3.3zm-7.19-7.14a1 1 0 0 1 .42-.81l3.08-2.05a1.05 1.05 0 0 1 .54-.15 1 1 0 0 1 .54.15l3.08 2.07a1 1 0 0 1 .42.81 1 1 0 0 1-1 1 1.08 1.08 0 0 1-.54-.17l-2.5-1.71-2.51 1.67a1.08 1.08 0 0 1-.54.17 1 1 0 0 1-.98-.97zM229.71 420.14v4.09a1 1 0 0 1-.27.71l-4.11 4.06a1.05 1.05 0 0 1-.69.29h-7.14a1 1 0 0 1-.69-.29l-4.11-4.09a1.1 1.1 0 0 1-.27-.71v-4.09a1 1 0 0 1 .27-.71l4.11-4.08a1.05 1.05 0 0 1 .69-.3h7.14a1 1 0 0 1 .69.3l4.11 4.08a1.1 1.1 0 0 1 .27.74zm-5.49-3.14h-6.3l-3.52 3.52v3.3l3.52 3.52h6.3l3.52-3.52v-3.3zm-8.74-7.14a1 1 0 0 1 .44-.81L219 407a1.14 1.14 0 0 1 .57-.15 1 1 0 0 1 .54.15l2.51 1.7 2.51-1.7a1.14 1.14 0 0 1 .57-.15 1 1 0 0 1 1 1 1.06 1.06 0 0 1-.44.84l-3.08 2a1 1 0 0 1-.54.17 1.08 1.08 0 0 1-.54-.17l-2.55-1.69-2.55 1.69a1.08 1.08 0 0 1-.54.17 1 1 0 0 1-.97-.99zM251.44 420.14v4.09a1 1 0 0 1-.27.71l-4.11 4.06a1.05 1.05 0 0 1-.69.29h-7.14a1 1 0 0 1-.69-.29l-4.11-4.09a1.1 1.1 0 0 1-.27-.71v-4.09a1 1 0 0 1 .27-.71l4.11-4.08a1.05 1.05 0 0 1 .69-.3h7.14a1 1 0 0 1 .69.3l4.11 4.08a1.1 1.1 0 0 1 .27.74zM246 417h-6.3l-3.52 3.52v3.3l3.52 3.52h6.3l3.52-3.52v-3.3zm-8-8v-1.23a1 1 0 0 1 2 0V409a1 1 0 0 1-2 0zm7.68 0v-1.23a1 1 0 0 1 2 0V409a1 1 0 0 1-2 0zM273.17 420.14v4.09a1 1 0 0 1-.27.71l-4.11 4.06a1.05 1.05 0 0 1-.69.29H261a1 1 0 0 1-.69-.29l-4.11-4.09a1.1 1.1 0 0 1-.27-.71v-4.09a1 1 0 0 1 .27-.71l4.11-4.08a1.05 1.05 0 0 1 .69-.3h7.14a1 1 0 0 1 .69.3l4.11 4.08a1.1 1.1 0 0 1 .23.74zm-8.42-12.33a1 1 0 0 1-.64.93l-5.37 2a.86.86 0 0 1-.34.07 1 1 0 0 1-.34-1.9l5.37-2.07a.84.84 0 0 1 .34 0 1 1 0 0 1 .99.97zm2.93 9.21h-6.3l-3.52 3.52v3.3l3.52 3.52h6.3l3.52-3.52v-3.3zm-3.37-7.14a1 1 0 0 1 .69-.88l5.37-2.07a.84.84 0 0 1 .34 0 1 1 0 0 1 1 1 1 1 0 0 1-.64.93l-5.37 2a.86.86 0 0 1-.34.07 1 1 0 0 1-1.05-1.06zM308.76 424.22a1 1 0 0 1-.3.71l-4.1 4.07a1 1 0 0 1-.69.29h-6.37a1 1 0 0 1-.69-.29l-3.42-3.4-3.4 3.4a1 1 0 0 1-.69.29h-6.4a1.05 1.05 0 0 1-.7-.29l-4.11-4.09a1 1 0 0 1-.27-.71v-4.09a1.1 1.1 0 0 1 .27-.71l4.11-4.08a1 1 0 0 1 .69-.3h6.4a1.05 1.05 0 0 1 .69.3l3.4 3.4 3.42-3.4a1.05 1.05 0 0 1 .69-.3h6.37a1 1 0 0 1 .69.3l4.11 4.08a1 1 0 0 1 .27.69 1 1 0 0 1-1 1h-13.56v2.71l3.52 3.52h5.59l3.79-3.82a1 1 0 0 1 .71-.29 1 1 0 0 1 .98 1.01zM288.68 417h-5.56l-3.52 3.52v3.3l3.52 3.52h5.56l3.52-3.52v-3.3zm16.71 2.14l-2.12-2.14h-5.59l-2.12 2.14zM330.47 411.94a1 1 0 0 1-.2.57l-3 4 2.93 2.9a1.1 1.1 0 0 1 .27.71v4.09a1 1 0 0 1-.27.71l-4.11 4.08a1.05 1.05 0 0 1-.69.29h-7.14a1 1 0 0 1-.44-.12L315 433a1 1 0 0 1-.79.39 1 1 0 0 1-1-1 1 1 0 0 1 .2-.57l3-4-2.93-2.9a1.1 1.1 0 0 1-.27-.71v-4.09a1 1 0 0 1 .27-.71l4.11-4.08a1.05 1.05 0 0 1 .69-.3h7.14a1 1 0 0 1 .44.12l2.85-3.84a1 1 0 0 1 .79-.39 1 1 0 0 1 .97 1.02zM318.68 417l-3.52 3.52v3.3l2.41 2.41 6.89-9.23zm.52 10.34h5.8l3.52-3.52v-3.3l-2.41-2.41zM337.33 416v1.72l2.44-2.41a1 1 0 0 1 .69-.3h5.07a1 1 0 0 1 0 2h-4.65l-3.54 3.52v7.8a1 1 0 0 1-2 0V416a1 1 0 0 1 2 0zm7.65-8.22a1 1 0 0 1-.66 1l-6.13 2a1.2 1.2 0 0 1-.3 0 1 1 0 0 1-1-1 1 1 0 0 1 .69-.94l6.13-2a1.25 1.25 0 0 1 .3 0 1 1 0 0 1 .99.97zM352.45 416v1.72l2.44-2.41a1 1 0 0 1 .69-.3h5.07a1 1 0 0 1 0 2H356l-3.54 3.52v7.8a1 1 0 0 1-2 0V416a1 1 0 0 1 2 0zm.54-9.18a1.05 1.05 0 0 1 .54.15l2.54 1.7 2.51-1.7a1.05 1.05 0 0 1 .54-.15 1 1 0 0 1 1 1 1.06 1.06 0 0 1-.44.84l-3.05 2a1 1 0 0 1-.54.17 1.17 1.17 0 0 1-.57-.17l-3.05-2a1.06 1.06 0 0 1-.44-.84 1 1 0 0 1 .97-.97zM381.44 421.12a1 1 0 0 1-.69-.29l-3.82-3.83h-6.3l-2.63 2.62 13.68 3.67a1 1 0 0 1 .71 1 1 1 0 0 1-.27.69L378 429a1 1 0 0 1-.69.29h-7.14a1.05 1.05 0 0 1-.69-.29l-4.11-4.09a1 1 0 0 1-.27-.71 1 1 0 0 1 1-1 1 1 0 0 1 .69.29l3.81 3.82h6.3l2.61-2.61-13.68-3.67a1 1 0 0 1-.71-1 .93.93 0 0 1 .27-.67l4.11-4.08a1.05 1.05 0 0 1 .69-.3h7.14a1 1 0 0 1 .69.3l4.11 4.08a1 1 0 0 1 .27.71 1 1 0 0 1-.96 1.05zm-3.62-13.31a1 1 0 0 1-.67 1l-6.13 2a1.2 1.2 0 0 1-.3 0 1 1 0 0 1-1-1 1 1 0 0 1 .66-.94l6.13-2a1.25 1.25 0 0 1 .29 0 1 1 0 0 1 1.02.94zM403.17 421.12a1 1 0 0 1-.69-.29l-3.81-3.83h-6.3l-2.61 2.61 13.68 3.67a1 1 0 0 1 .71 1 1 1 0 0 1-.27.69l-4.11 4.03a1 1 0 0 1-.69.29h-7.14a1.05 1.05 0 0 1-.69-.29l-4.11-4.09a1 1 0 0 1-.27-.71 1 1 0 0 1 1-1 1 1 0 0 1 .69.29l3.81 3.82h6.3l2.61-2.61-13.68-3.67a1 1 0 0 1-.71-1 .93.93 0 0 1 .27-.67l4.11-4.08a1.05 1.05 0 0 1 .69-.3h7.14a1 1 0 0 1 .69.3l4.11 4.08a1 1 0 0 1 .27.71 1 1 0 0 1-1 1.05zm-10.71-14.27a1.05 1.05 0 0 1 .54.15l2.51 1.7L398 407a1.05 1.05 0 0 1 .54-.15 1 1 0 0 1 1 1 1 1 0 0 1-.42.84l-3.08 2a1 1 0 0 1-.54.17 1.08 1.08 0 0 1-.54-.17l-3.08-2a1 1 0 0 1-.42-.84 1 1 0 0 1 1-1zM424.9 421.12a1 1 0 0 1-.69-.29L420.4 417h-6.3l-2.61 2.61 13.68 3.67a1 1 0 0 1 .71 1 1 1 0 0 1-.27.69L421.5 429a1 1 0 0 1-.69.29h-3v.07h.44a1 1 0 0 1 .69.29l2.07 2a1 1 0 0 1 .27.71v2a1 1 0 0 1-.27.69l-2.07 2.07a1 1 0 0 1-.69.27h-2a1 1 0 0 1-.69-.27l-2.07-2.07a.94.94 0 0 1-.27-.69 1 1 0 0 1 1-1 1 1 0 0 1 .71.29l1.75 1.75h1.23l1.45-1.48v-1.23l-1.45-1.48h-1.62a1 1 0 0 1-1-1 .81.81 0 0 1 .1-.42l.32-.64h-2a1.05 1.05 0 0 1-.71-.15l-4.11-4.09a1 1 0 0 1-.27-.71 1 1 0 0 1 1-1 1 1 0 0 1 .69.29l3.81 3.82h6.3l2.61-2.61-13.68-3.67a1 1 0 0 1-.71-1 .93.93 0 0 1 .27-.67l4.11-4.08a1.05 1.05 0 0 1 .69-.3h7.14a1 1 0 0 1 .69.3l4.11 4.08a1 1 0 0 1 .27.71 1 1 0 0 1-1.02 1.05zM435.51 403.72V415h3.59a1 1 0 0 1 0 2h-3.59v11.32a1 1 0 0 1-2 0V417h-3.59a1 1 0 0 1 0-2h3.59v-11.28a1 1 0 0 1 2 0zm5.78 0a.86.86 0 0 1-.12.49l-2.44 4.11a1 1 0 0 1-.86.49 1 1 0 0 1-1-1 .86.86 0 0 1 .12-.49l2.44-4.09a1 1 0 0 1 .86-.49 1 1 0 0 1 1 .98zM445 433.5a1 1 0 0 1 .71.29l1.75 1.75h1.21l1.48-1.48v-1.23l-1.48-1.48h-1.6a1 1 0 0 1-1-1 .81.81 0 0 1 .1-.42l.91-1.85V417h-3.59a1 1 0 0 1 0-2h3.59v-11.28a1 1 0 0 1 2 0V415h3.59a1 1 0 0 1 0 2h-3.59v11.32a1.19 1.19 0 0 1-.1.44l-.32.62h.44a1.05 1.05 0 0 1 .69.29l2.07 2a1 1 0 0 1 .27.71v2a1 1 0 0 1-.27.69l-2.07 2.07a1 1 0 0 1-.69.27h-2a1.1 1.1 0 0 1-.71-.27l-2-2.07a1 1 0 0 1-.29-.69 1 1 0 0 1 .9-.88zM31.57 457v7.8l3.52 3.52h6.3l3.52-3.52V457a1 1 0 0 1 2 0v8.2a1 1 0 0 1-.27.71L42.5 470a1.05 1.05 0 0 1-.69.29h-7.14A1 1 0 0 1 34 470l-4.11-4.09a1.1 1.1 0 0 1-.27-.71V457a1 1 0 0 1 2 0zm9.72-5.17a1.2 1.2 0 0 1-.3 0l-6.13-2a1 1 0 0 1-.66-1 1 1 0 0 1 1-1 1.25 1.25 0 0 1 .3 0l6.13 2a1 1 0 0 1 .66.94 1 1 0 0 1-1 1.09zM53.3 457v7.8l3.52 3.52h6.3l3.52-3.52V457a1 1 0 0 1 2 0v8.2a1 1 0 0 1-.27.71L64.23 470a1.05 1.05 0 0 1-.69.29H56.4a1 1 0 0 1-.69-.29l-4.11-4.09a1.1 1.1 0 0 1-.27-.71V457a1 1 0 0 1 2 0zm10.7-8.19a1 1 0 0 1-.66 1l-6.13 2a1.2 1.2 0 0 1-.3 0 1 1 0 0 1-1-1 1 1 0 0 1 .66-.94l6.13-2a1.25 1.25 0 0 1 .3 0 1 1 0 0 1 1 .94zM75 457v7.8l3.52 3.52h6.3l3.52-3.52V457a1 1 0 0 1 2 0v8.2a1 1 0 0 1-.27.71L86 470a1.05 1.05 0 0 1-.69.29h-7.18a1 1 0 0 1-.69-.29l-4.11-4.09a1.1 1.1 0 0 1-.27-.71V457a1 1 0 0 1 2 0zm2.63-6.15a1 1 0 0 1 .42-.81l3.11-2.04a1.05 1.05 0 0 1 .54-.15 1 1 0 0 1 .54.15l3.08 2.07a1 1 0 0 1 .42.81 1 1 0 0 1-1 1 1.08 1.08 0 0 1-.54-.17L81.7 450l-2.51 1.67a1.08 1.08 0 0 1-.54.17 1 1 0 0 1-.98-.97zM96.76 457v7.8l3.52 3.52h6.3l3.52-3.52V457a1 1 0 0 1 2 0v8.2a1 1 0 0 1-.27.71l-4.14 4.09a1.05 1.05 0 0 1-.69.29h-7.14a1 1 0 0 1-.69-.29l-4.11-4.09a1.1 1.1 0 0 1-.27-.71V457a1 1 0 0 1 2 0zm1.85-7v-1.23a1 1 0 0 1 2 0V450a1 1 0 0 1-2 0zm7.68 0v-1.23a1 1 0 0 1 2 0V450a1 1 0 0 1-2 0zM118.49 457v7.8l3.52 3.52h6.3l3.52-3.52V457a1 1 0 0 1 2 0v8.2a1 1 0 0 1-.27.71l-4.14 4.09a1.05 1.05 0 0 1-.69.29h-7.13a1 1 0 0 1-.69-.29l-4.11-4.09a1.1 1.1 0 0 1-.27-.71V457a1 1 0 0 1 2 0zm6.89-8.22a1 1 0 0 1-.64.93l-5.37 2a.86.86 0 0 1-.34.07 1 1 0 0 1-.34-1.9l5.37-2.07a.84.84 0 0 1 .34 0 1 1 0 0 1 .99 1zm-.44 2.07a1 1 0 0 1 .64-.91l5.37-2.07a.84.84 0 0 1 .34 0 1 1 0 0 1 1 1 1 1 0 0 1-.64.93l-5.37 2a.86.86 0 0 1-.34.07 1 1 0 0 1-1-1zM140.23 457v7.8l3.52 3.52H150l3.52-3.52V457a1 1 0 0 1 2 0v8.2a1 1 0 0 1-.27.71l-4.1 4.09a1.05 1.05 0 0 1-.69.29h-7.14a1 1 0 0 1-.69-.29l-4.11-4.09a1.1 1.1 0 0 1-.27-.71V457a1 1 0 0 1 2 0zm10.71-8.2v2a1 1 0 0 1-.27.69l-2.07 2.07a1 1 0 0 1-.69.27h-2a1 1 0 0 1-.69-.27l-2.07-2.07a1 1 0 0 1-.29-.69v-2a1.07 1.07 0 0 1 .29-.71l2.07-2a1.05 1.05 0 0 1 .69-.29h2a1 1 0 0 1 .69.29l2.07 2a1.1 1.1 0 0 1 .26.74zm-3.42-1.08h-1.23l-1.48 1.48v1.23l1.48 1.48h1.23l1.45-1.48v-1.23zM159.57 456a1 1 0 0 1 .84.47l6.84 11 6.82-11a1 1 0 0 1 .84-.47 1 1 0 0 1 1 1 1 1 0 0 1-.15.52l-15.33 24.61a1 1 0 0 1-.84.47 1 1 0 0 1-1-1 1 1 0 0 1 .15-.52l7.33-11.79-7.33-11.79a1 1 0 0 1-.15-.52 1 1 0 0 1 .98-.98zm11.72-7.24a1 1 0 0 1-.66 1l-6.13 2a1.2 1.2 0 0 1-.3 0 1 1 0 0 1-1-1 1 1 0 0 1 .69-.94l6.13-2a1.25 1.25 0 0 1 .3 0 1 1 0 0 1 .97.99zM178.52 456a1 1 0 0 1 .84.47l6.84 11 6.82-11a1 1 0 0 1 .84-.47 1 1 0 0 1 1 1 1 1 0 0 1-.15.52l-15.33 24.61a1 1 0 0 1-.84.47 1 1 0 0 1-1-1 1 1 0 0 1 .15-.52l7.31-11.75-7.33-11.79a1 1 0 0 1-.15-.52 1 1 0 0 1 1-1.02zm2.85-6v-1.23a1 1 0 0 1 2 0V450a1 1 0 0 1-2 0zm7.65 0v-1.23a1 1 0 0 1 2 0V450a1 1 0 0 1-2 0zM197.42 469.33a1 1 0 0 1 .37-.76L210.93 458h-12.52a1 1 0 0 1 0-2h15.31a1 1 0 0 1 1 1 .92.92 0 0 1-.34.74l-13.14 10.56h12.5a1 1 0 1 1 0 2h-15.33a1 1 0 0 1-.99-.97zm12.7-20.53a1 1 0 0 1-.69 1l-6.13 2a1.2 1.2 0 0 1-.3 0 1 1 0 0 1-1-1 1 1 0 0 1 .66-.94l6.13-2a1.25 1.25 0 0 1 .3 0 1 1 0 0 1 1.03.95zM218.22 469.33a1 1 0 0 1 .37-.76L231.73 458H219.2a1 1 0 0 1 0-2h15.31a1 1 0 0 1 1 1 .92.92 0 0 1-.34.74L222 468.35h12.5a1 1 0 0 1 0 2h-15.3a1 1 0 0 1-.98-1.02zm5.59-21.49a1.05 1.05 0 0 1 .54.15l2.51 1.7 2.51-1.7a1.05 1.05 0 0 1 .54-.15 1 1 0 0 1 1 1 1.06 1.06 0 0 1-.44.84l-3.08 2a1 1 0 0 1-.54.17 1.08 1.08 0 0 1-.54-.17l-3.08-2a1 1 0 0 1-.42-.84 1 1 0 0 1 .99-.99zM239 469.33a1 1 0 0 1 .37-.76L252.53 458H240a1 1 0 0 1 0-2h15.31a1 1 0 0 1 1 1 .92.92 0 0 1-.34.74l-13.17 10.61h12.5a1 1 0 0 1 0 2H240a1 1 0 0 1-1-1.02zm7.65-19.27v-1.23a1 1 0 0 1 2 0v1.23a1 1 0 0 1-2 0zM262.69 444.72V456h10.24a1.12 1.12 0 0 1 .71.3l4.09 4.08a1.08 1.08 0 0 1 .3.71v4.09a1.12 1.12 0 0 1-.3.71l-4.09 4.11a1.08 1.08 0 0 1-.71.29h-10.24v11.32a1 1 0 0 1-2 0v-36.89a1 1 0 0 1 2 0zm9.84 23.63l3.52-3.52v-3.3l-3.51-3.53h-9.84v10.34z"/></g></svg>