<svg xmlns="http://www.w3.org/2000/svg" viewBox="0 0 700 150"><path fill="#d7ffff" d="M0 0h700v150H0z" data-name="Ebene 1"/><g data-name="Ebene 3"><path d="M22.82 102.42a.74.74 0 0 1-.78-.72.54.54 0 0 1 .06-.3l23.16-48a.7.7 0 0 1 .66-.42.83.83 0 0 1 .72.42l23.16 48a.54.54 0 0 1 .06.3.74.74 0 0 1-.78.72.7.7 0 0 1-.66-.42L57.08 78.42H34.82L23.48 102a.7.7 0 0 1-.66.42zm23.1-47l-10.38 21.5h20.82zM133 77.7v24a.74.74 0 0 1-.78.72.69.69 0 0 1-.72-.72v-7.08l-18.84 4 11 2.34a.76.76 0 0 1 .6.72.69.69 0 0 1-.72.72h-29a.69.69 0 0 1-.72-.72.65.65 0 0 1 .54-.72l11-2.34-19.68-4.2a.71.71 0 0 1-.6-.72v-8a.71.71 0 0 1 .6-.72l19.68-4.2-11-2.34a.71.71 0 0 1-.54-.72.74.74 0 0 1 .72-.78h29a.74.74 0 0 1 .72.78.7.7 0 0 1-.6.72l-11 2.34 18.84 4V77.7a.74.74 0 0 1 .72-.78.79.79 0 0 1 .78.78zm-23.9 3.84l-22.38 4.74v6.84l22.38 4.74 22.44-4.74v-6.84zm7.38-3.12h-14.7L109.1 80zM101.78 101h14.7l-7.38-1.62zM154.63 53.7a.83.83 0 0 1 .78-.78H164c.06 0 .12.06.18.06l37.62 8a.71.71 0 0 1 .6.72v8a.71.71 0 0 1-.6.72l-34.2 7.26L201.85 85a.71.71 0 0 1 .6.72v8a.71.71 0 0 1-.6.72l-37.62 8h-8.82a.74.74 0 0 1-.78-.72zm46.32 15.42v-6.84l-37-7.86h-7.86v22.5H164zm-44.82 9.3V101H164l37-7.86v-6.86l-37-7.86zM224.27 53.7v31.08l18.84-4-11-2.34a.7.7 0 0 1-.6-.72.74.74 0 0 1 .72-.78h29a.74.74 0 0 1 .72.78.66.66 0 0 1-.54.72l-11 2.34L270 85a.77.77 0 0 1 .6.72v8a.71.71 0 0 1-.6.72l-19.68 4.2 11 2.34a.65.65 0 0 1 .54.72.69.69 0 0 1-.72.72h-29a.69.69 0 0 1-.72-.72.71.71 0 0 1 .6-.72l11-2.34-18.84-4v7.08a.69.69 0 0 1-.72.72.74.74 0 0 1-.78-.72v-48a.79.79 0 0 1 .78-.78.74.74 0 0 1 .81.76zm44.82 39.42v-6.84l-22.38-4.74-22.44 4.74v6.84l22.44 4.74zM254 78.42h-14.7l7.41 1.58zM239.33 101H254l-7.32-1.62zM337.45 61a.7.7 0 0 1 .6.72.78.78 0 0 1-.72.78h-.18l-23-4.92-22.38 4.74v30.8l22.38 4.74 23-4.92h.18a.78.78 0 0 1 .72.78.7.7 0 0 1-.6.72l-19.68 4.2 11 2.34a.76.76 0 0 1 .6.72.69.69 0 0 1-.72.72h-29a.69.69 0 0 1-.72-.72.7.7 0 0 1 .6-.72l11-2.34-19.68-4.2a.71.71 0 0 1-.6-.72v-32a.71.71 0 0 1 .6-.72l19.68-4.2-11-2.34a.76.76 0 0 1-.6-.72.74.74 0 0 1 .72-.78h29a.74.74 0 0 1 .72.78.7.7 0 0 1-.6.72l-11 2.34zm-16-6.54h-14.7l7.36 1.54zM306.79 101h14.7l-7.38-1.62zM403.35 92.94h.12a.78.78 0 0 1 .72.78.65.65 0 0 1-.54.72l-19.74 4.2 11 2.34a.7.7 0 0 1 .6.72.69.69 0 0 1-.72.72h-29a.69.69 0 0 1-.72-.72.66.66 0 0 1 .54-.72l11-2.34-19.61-4.2a.71.71 0 0 1-.6-.72v-8a.71.71 0 0 1 .6-.72l19.68-4.2-11-2.34a.65.65 0 0 1-.54-.72.74.74 0 0 1 .72-.78h29a.74.74 0 0 1 .72.78.71.71 0 0 1-.6.72l-11 2.34 19.67 4.2a.65.65 0 0 1 .54.72.78.78 0 0 1-.72.78h-.12l-23-4.92-22.38 4.74v6.84l22.38 4.74zm-15.66-14.52H373l7.31 1.58zM373 101h14.7l-7.38-1.62zM424.44 53.7a.83.83 0 0 1 .78-.78h8.64c.06 0 .12.06.18.06l37.62 8a.71.71 0 0 1 .6.72v32a.71.71 0 0 1-.6.72l-37.62 8h-8.82a.79.79 0 0 1-.78-.72zm9.36 47.3l37-7.86V62.28l-37-7.86h-7.86V101zM539.72 53.7v48a.74.74 0 0 1-.78.72.69.69 0 0 1-.72-.72v-7.08l-18.84 4 11 2.34a.7.7 0 0 1 .6.72.69.69 0 0 1-.72.72h-29a.69.69 0 0 1-.72-.72.66.66 0 0 1 .54-.72l11-2.34-19.68-4.2a.71.71 0 0 1-.6-.72v-8a.71.71 0 0 1 .6-.72l19.68-4.2-11-2.34a.65.65 0 0 1-.54-.72.74.74 0 0 1 .72-.78h29a.74.74 0 0 1 .72.78.71.71 0 0 1-.6.72l-11 2.34 18.84 4V53.7a.74.74 0 0 1 .72-.78.79.79 0 0 1 .78.78zm-1.5 32.58l-22.44-4.74-22.38 4.74v6.84l22.38 4.74 22.44-4.74zm-15.06-7.86h-14.7l7.32 1.58zM508.46 101h14.7l-7.38-1.62zM608.41 102.42h-46.32a.79.79 0 0 1-.78-.72v-48a.83.83 0 0 1 .78-.78h46.32a.74.74 0 0 1 .72.78.69.69 0 0 1-.72.72h-45.6v22.5h45.6a.74.74 0 0 1 .72.78.69.69 0 0 1-.72.72h-45.6V101h45.6a.72.72 0 0 1 0 1.44zM671.38 86.46H625.9v6.66l22.38 4.74 23-4.92h.12a.78.78 0 0 1 .72.78.65.65 0 0 1-.54.72l-19.74 4.2 11 2.34a.7.7 0 0 1 .6.72.69.69 0 0 1-.72.72h-29a.69.69 0 0 1-.72-.72.66.66 0 0 1 .54-.72l11-2.34-19.54-4.2a.71.71 0 0 1-.6-.72v-8a.77.77 0 0 1 .6-.72l19.68-4.2-11-2.34a.65.65 0 0 1-.54-.72.74.74 0 0 1 .72-.78h29a.74.74 0 0 1 .72.78.71.71 0 0 1-.6.72l-11 2.34 19.64 4.2a.71.71 0 0 1 .6.72.81.81 0 0 1-.84.74zm-23.1-4.92l-16 3.42h32zm7.38-3.12H641l7.28 1.58zM641 101h14.7l-7.38-1.62z"/></g></svg>