<svg xmlns="http://www.w3.org/2000/svg" viewBox="0 0 700 150"><path fill="#d7ffff" d="M0 0h700v150H0z" data-name="Ebene 1"/><g data-name="Ebene 3"><path d="M51.86 47.7h2.4l11.52 54h-2l-4-18.54H33.56L22.94 101.7h-2.1zm.84 2.22L34.64 81.36h24.78zM94.81 66c4.08 0 8 1.26 10.5 4a11.14 11.14 0 0 1 2.69 7.7 13.09 13.09 0 0 1-.24 2.64l-3.84 21.36h-2l1-5.52a13.64 13.64 0 0 1-3.36 3.06 20.46 20.46 0 0 1-11.34 3.06c-6.48 0-13.68-2.64-13.68-9.42a7.09 7.09 0 0 1 .12-1.56 12.36 12.36 0 0 1 5.76-7.86 22.05 22.05 0 0 1 11.76-3.12c5.34 0 10.68 1.86 12.48 6.12l1.08-6.12A15.44 15.44 0 0 0 106 78a9.78 9.78 0 0 0-2.4-6.66c-2.22-2.46-5.52-3.54-9.12-3.54a16.48 16.48 0 0 0-10.38 3.54 13.22 13.22 0 0 0-1.38 1.2l-1.32-1.2A19.9 19.9 0 0 1 94.81 66zm-2.88 16.14a19.78 19.78 0 0 0-10.26 2.58 10.13 10.13 0 0 0-5 6.6 8.94 8.94 0 0 0-.12 1.26c0 5.82 6.54 7.92 12.06 7.92a19.57 19.57 0 0 0 10.2-2.58 10.13 10.13 0 0 0 5-6.6 8.22 8.22 0 0 0 .12-1.2c0-5.82-6.48-7.98-12-7.98zM127.89 47.7h17.28c4.26 0 8.22 1.08 11 3.72a10 10 0 0 1 3.06 7.38 13.11 13.11 0 0 1-.18 2.16 14.9 14.9 0 0 1-6.24 9.3 19 19 0 0 1-6.6 2.88 13.73 13.73 0 0 1 6.12 3.42 11.09 11.09 0 0 1 3.12 8 11.32 11.32 0 0 1-.18 2.46 17.31 17.31 0 0 1-6.72 10.56 22.22 22.22 0 0 1-13.14 4.08h-17.24zm-7.38 52.2h15.24a19.47 19.47 0 0 0 11.64-3.6 15.13 15.13 0 0 0 5.94-9.24 13.1 13.1 0 0 0 .18-2.16 9.68 9.68 0 0 0-2.82-7.08c-2.58-2.58-6.36-3.6-10.32-3.6h-15.24zm4.92-27.48h15.24a18.68 18.68 0 0 0 10.92-3.18 13.36 13.36 0 0 0 5.52-8.24 9.19 9.19 0 0 0 .18-1.8 8.64 8.64 0 0 0-2.7-6.42c-2.46-2.34-6.06-3.24-9.78-3.24h-15.24zM182.25 102.3c-4.56 0-8.64-1.74-11.1-5.1a13.87 13.87 0 0 1-2.28-5.28l-1.8 9.78h-2l10.26-57h2l-5.7 31.68a20.87 20.87 0 0 1 4.26-5.28 19.2 19.2 0 0 1 12.9-5.1c4.68 0 8.88 1.74 11.46 5.1a14.48 14.48 0 0 1 2.82 9.12c0 11.78-9.07 22.08-20.82 22.08zm18.84-21.72a13.33 13.33 0 0 0-2.46-8.22 12.54 12.54 0 0 0-10.2-4.56c-10.56 0-18.54 9.3-18.54 19.92a13.37 13.37 0 0 0 2.52 8.22 12.42 12.42 0 0 0 10.14 4.56c10.56 0 18.54-9.36 18.54-19.92zM216.26 80.46a21.5 21.5 0 0 0 3.84 12.84c3.48 4.74 9.36 7.2 15.78 7.2a27.47 27.47 0 0 0 18.3-7.2 29.63 29.63 0 0 0 4.8-5.52l1.56.84a32.18 32.18 0 0 1-5.16 5.94 29.92 29.92 0 0 1-19.86 7.74c-7 0-13.26-2.64-17.1-7.74a22.63 22.63 0 0 1-4.14-13.8c0-17.82 13.44-33.66 31.2-33.66 7 0 13.26 2.64 17.1 7.74a19.78 19.78 0 0 1 3 5.94l-1.92.84a17.66 17.66 0 0 0-2.76-5.52c-3.48-4.74-9.36-7.2-15.78-7.2-16.56 0-28.86 15-28.86 31.56zM273.36 87.66a13.21 13.21 0 0 0 2.58 8.28c2.34 3.06 6.24 4.56 10.44 4.56a18.35 18.35 0 0 0 12.06-4.56 20 20 0 0 0 3.3-3.84l1.62.9a21 21 0 0 1-17.28 9.3c-4.74 0-9.06-1.68-11.76-5.1a14.43 14.43 0 0 1-2.94-9.2c0-11.94 9.36-22 21.18-22 4.74 0 9.06 1.68 11.76 5.1a12.29 12.29 0 0 1 2.22 4.2l-1.92.9a11.55 11.55 0 0 0-1.92-3.84c-2.34-3.06-6.24-4.56-10.44-4.56-10.62 0-18.9 9.2-18.9 19.86zM324 47.7h15.6c7.26 0 14 2.46 18.24 7.56a21.68 21.68 0 0 1 4.62 14 28.51 28.51 0 0 1-.54 5.46 33.17 33.17 0 0 1-11.1 19.44 32.71 32.71 0 0 1-20.94 7.56h-15.6zm6.18 52.2a30 30 0 0 0 19.44-7.08 30.68 30.68 0 0 0 10.32-18.12 29.91 29.91 0 0 0 .48-5.1 20 20 0 0 0-4.26-13c-3.9-4.8-10.14-7.08-16.92-7.08h-13.56l-9.06 50.4zM391 66c4.56 0 8.64 1.74 11.1 5.1a13.87 13.87 0 0 1 2.28 5.28l5.76-31.68h2l-10.26 57h-2l1.74-9.78a20.86 20.86 0 0 1-4.26 5.28 19.06 19.06 0 0 1-12.84 5.1c-4.68 0-8.94-1.74-11.52-5.1a14.47 14.47 0 0 1-2.82-9.12C370.19 76.26 379.25 66 391 66zm-18.83 21.72a13.37 13.37 0 0 0 2.52 8.22 12.42 12.42 0 0 0 10.14 4.56 17.94 17.94 0 0 0 11.82-4.56A20.61 20.61 0 0 0 403 84.18v-.06a17.74 17.74 0 0 0 .36-3.54 13.37 13.37 0 0 0-2.52-8.22 12.42 12.42 0 0 0-10.14-4.56c-10.55 0-18.53 9.36-18.53 19.92zM426.46 47.7h30.24l-.3 1.8h-28.26l-4.38 24.3h27.3l-.36 1.8h-27.24l-4.38 24.3h28.26l-.36 1.8h-30.24zM479.63 66c4.74 0 9.12 1.68 11.82 5.1a14.43 14.43 0 0 1 2.94 9.24 20.82 20.82 0 0 1-.36 3.84l-.12.9h-33.36a17.77 17.77 0 0 0-.18 2.52 13.31 13.31 0 0 0 2.63 8.34c2.4 3.06 6.18 4.56 10.44 4.56a20 20 0 0 0 11.94-3.66 14.85 14.85 0 0 0 3.24-3.18l1.5 1a17.68 17.68 0 0 1-3.54 3.48 22.75 22.75 0 0 1-13.44 4.14c-4.74 0-9.12-1.68-11.82-5.1a14.43 14.43 0 0 1-2.93-9.18c0-12 9.42-22 21.24-22zm12.78 14.7a13.31 13.31 0 0 0-2.64-8.34c-2.4-3.06-6.18-4.56-10.44-4.56a18.39 18.39 0 0 0-12.12 4.56 20.56 20.56 0 0 0-6.3 10.86h31.32a17.85 17.85 0 0 0 .18-2.52zM513 47.7h30.24l-.3 1.8h-28.28l-4.38 24.3h27.3l-.36 1.8H510l-4.74 26.1h-2zM563.54 45.9c-2.88 0-4.92 2.7-5.34 5.16l-2.76 15.54h8.82l-.3 1.8h-8.88l-6 33.3h-2l6-33.3h-8.88l.36-1.8h8.88l2.76-15.54a8.92 8.92 0 0 1 2.7-5 7.43 7.43 0 0 1 4.92-2 5.07 5.07 0 0 1 5.28 5.4 6.94 6.94 0 0 1-.18 1.56h-2a9 9 0 0 0 .12-1.26c.04-2.24-1.34-3.86-3.5-3.86zM574 80.46a21.5 21.5 0 0 0 3.84 12.84c3.48 4.74 9.36 7.2 15.78 7.2a29.81 29.81 0 0 0 18.06-5.76A24.1 24.1 0 0 0 621 79.86l.78-4.26h-23.7l.36-1.8h25.62l-5 27.9h-2l2.52-14a26.34 26.34 0 0 1-7.09 8.3 31.47 31.47 0 0 1-19.2 6.3c-7 0-13.26-2.64-17.1-7.74a22.63 22.63 0 0 1-4.19-13.8c0-17.82 13.44-33.66 31.2-33.66 7 0 13.26 2.64 17.1 7.74a19.28 19.28 0 0 1 2.76 5.28l-1.86.9a19.27 19.27 0 0 0-2.58-4.92c-3.48-4.74-9.36-7.2-15.78-7.2-16.51 0-28.84 15-28.84 31.56zM654.54 66c4.5 0 8.64 1.68 11.1 5a14 14 0 0 1 2.36 5.26l1.74-9.66h2l-7.32 40.74a14.72 14.72 0 0 1-6.54 9.36 23.4 23.4 0 0 1-13 3.6c-5.52 0-11.1-1.74-13.62-5.76l1.74-1.2c2.22 3.6 7.2 5.16 12.18 5.16a21.12 21.12 0 0 0 11.52-3.12 12.85 12.85 0 0 0 5.76-8l2.82-15.9a20.59 20.59 0 0 1-4.2 5.28 19.47 19.47 0 0 1-12.9 5c-4.62 0-8.82-1.62-11.46-5a14.52 14.52 0 0 1-2.88-9.12C633.78 75.9 642.9 66 654.54 66zm12.36 14.4a13 13 0 0 0-2.46-8.1c-2.28-3-6.06-4.5-10.2-4.5-10.38 0-18.48 9.06-18.48 19.5a13 13 0 0 0 2.52 8.1c2.28 3 6.06 4.5 10.2 4.5 10.38 0 18.42-9.06 18.42-19.5z"/></g></svg>