<svg xmlns="http://www.w3.org/2000/svg" viewBox="0 0 700 150"><path fill="#d7ffff" d="M0 0h700v150H0z" data-name="Ebene 1"/><g data-name="Ebene 3"><path d="M32.3 47.7h5.4l11.7 54h-6.06L40.7 89.52H28.76l-2.64 12.18h-5.58zM34.7 62l-4.8 22.12h9.6zM58 66.6h19.89v35.1H58V77.94h14V72h-8v2.28h-6zm5.94 16.74v13h8v-13zM88.28 47.7h19.44v22.92h2.7v31.08H88.28zm5.94 22.92h7.56V53.1h-7.56zm0 25.68h10.26V76H94.22zM120.45 44.7h5.94v21.9h16.2v35.1h-22.14zm5.94 27.3v24.3h10.26V72zM179 68.88V53.1h-21v43.2h21V80.52h5.94v21.18H152v-54h32.88v21.18zM193.74 101.7V66.6h22.62v14.28h-5.94V72h-10.74v24.3h10.74v-8.88h5.94v14.28zM226.25 47.7h27.54v54h-27.54zm21.6 48.6V53.1h-15.66v43.2zM279.36 66.6V44.7h5.94v57h-22.08V66.6zm-10.2 5.4v24.3h10.2V72zM295.94 47.7h19.44v5.4h-13.5V72h10.5v5.4h-10.5v18.9h13.5v5.4h-19.44zM324.52 101.7V66.6h22.62v20.28h-16.68v9.42h10.74v-6.9h5.94v12.3zM341.2 72h-10.74v9.48h10.74zM356.92 47.7h19.44v5.4h-13.5V72h10.5v5.4h-10.5v24.3h-5.94zM383.53 66.6h1.74V44.7h13.32v10.2h-5.94v-4.8h-1.44v16.5h1.74V72h-1.74v29.7h-5.94V72h-1.74zM429.75 67.38V53.1h-21v43.2h21V77.4h-10.5V72h16.44v29.7h-32.88v-54h32.88v19.68zM467.5 122.7h-22.08v-14h5.94v8.58h10.2V101.7h-16.14V66.6h22.08zM451.36 72v24.3h10.2V72zM477.89 47.7h5.94V72h13V47.7h5.94v54h-5.94V77.4h-13v24.3h-5.94zM513.4 44.7h5.94v21.9h12.12v35.1h-5.94V72h-6.18v29.7h-5.94zM542 47.7h5.94v54H542zM564.14 50.88v7.44h-7.44v-7.44zm-6.66 15.72h5.88v35.1h-5.88zM591.38 101.7h-20.76V84.84h5.94V96.3h8.88V47.7h5.94zM607.31 122.7h-14v-11.34h5.94v5.94h2.16V66.6h5.94zm1.8-71.82v7.44h-7.44v-7.44zM623.75 47.7v27c1.86-4 3.78-7.8 5.64-11.76l7.32-15.24h6l-10.8 22.44L643 101.7h-6.3l-8.4-24-4.56 9.48v14.52h-5.94v-54zM657.71 44.7V80L665 66.6h6.18l-7.92 14.46 7.92 20.64H665l-5.34-14-1.92 3.48v10.5h-5.94v-57z"/></g></svg>