<svg xmlns="http://www.w3.org/2000/svg" viewBox="0 0 700 150"><path fill="#d7ffff" d="M0 0h700v150H0z" data-name="Ebene 1"/><g data-name="Ebene 3"><path d="M42.14 47.7h2.4l21.24 54h-2.1l-7.32-18.54H30.08l-7.26 18.54h-2zm1.08 2.16L30.8 81.36h24.84zM88.94 66a16.54 16.54 0 0 1 11.22 4 13.86 13.86 0 0 1 4.32 10.32v21.38h-2v-5.52a10.34 10.34 0 0 1-2.76 3.06c-3.06 2.28-7 3.06-10.8 3.06a19.13 19.13 0 0 1-11.16-3.06 10 10 0 0 1-4.38-7.92 9.86 9.86 0 0 1 4.38-7.86 19.17 19.17 0 0 1 11.16-3.12 18 18 0 0 1 10.8 3.12 10.11 10.11 0 0 1 2.76 3v-6.12a12.1 12.1 0 0 0-3.78-9 14.15 14.15 0 0 0-9.78-3.54c-4.26 0-8.46 1.68-10.92 4.74l-1.5-1.2C79.34 67.92 84.14 66 88.94 66zm-9.78 18.72a7.65 7.65 0 0 0 0 13.2 17.47 17.47 0 0 0 9.78 2.58 17.47 17.47 0 0 0 9.78-2.58 7.65 7.65 0 0 0 0-13.2 17.47 17.47 0 0 0-9.78-2.58 17.47 17.47 0 0 0-9.78 2.58zM118.82 47.7h17.28a18.59 18.59 0 0 1 11.76 3.72 12.27 12.27 0 0 1 4.56 9.58 12 12 0 0 1-4.56 9.3 15.7 15.7 0 0 1-6.06 2.88 16.79 16.79 0 0 1 6.66 3.42 13.84 13.84 0 0 1 0 21.06 19 19 0 0 1-12.36 4.08h-17.28zm2 24.72h15.3a16.12 16.12 0 0 0 10.32-3.18 10.64 10.64 0 0 0 4-8.28 10.52 10.52 0 0 0-4-8.22 16.16 16.16 0 0 0-10.34-3.24h-15.3zm0 27.48h15.3a16.8 16.8 0 0 0 11-3.6 12.15 12.15 0 0 0 0-18.48 16.8 16.8 0 0 0-11-3.6H120.8zM165.79 44.7h2v31.68a17.35 17.35 0 0 1 3.3-5.28A16 16 0 0 1 183 66a17 17 0 0 1 12.42 5.1 19.95 19.95 0 0 1 0 26.1 17 17 0 0 1-12.42 5.1 16 16 0 0 1-11.94-5.1 17.35 17.35 0 0 1-3.3-5.28v9.78h-2zM172 72.36a17.28 17.28 0 0 0-4.26 11.82A17.13 17.13 0 0 0 172 95.94a15.57 15.57 0 0 0 22 0 17.13 17.13 0 0 0 4.26-11.76A17.28 17.28 0 0 0 194 72.36a15.57 15.57 0 0 0-22 0zM254.63 94.56a25.93 25.93 0 0 1-37 0c-5-5.34-7.2-12.54-7.2-19.86s2.22-14.52 7.2-19.86a25.15 25.15 0 0 1 41 5.94l-1.74.84a22.57 22.57 0 0 0-3.78-5.52 23.76 23.76 0 0 0-34.08 0c-4.62 5-6.66 11.76-6.66 18.6s2 13.56 6.66 18.6a23.76 23.76 0 0 0 34.08 0 22.58 22.58 0 0 0 3.89-5.52l1.74.84a24.91 24.91 0 0 1-4.11 5.94zM299.88 97.2a18.34 18.34 0 0 1-25.38 0 18.46 18.46 0 0 1-4.92-13 18.61 18.61 0 0 1 4.92-13.1 18.34 18.34 0 0 1 25.38 0 17.08 17.08 0 0 1 2.94 4.2l-1.74.9a15.1 15.1 0 0 0-2.64-3.84 16.16 16.16 0 0 0-22.5 0 17 17 0 0 0-4.38 11.82 16.86 16.86 0 0 0 4.38 11.76 16.16 16.16 0 0 0 22.5 0 15.11 15.11 0 0 0 2.64-3.84l1.74.9a17.09 17.09 0 0 1-2.94 4.2zM315 47.7h15.6a27.61 27.61 0 0 1 19.56 7.56 27 27 0 0 1 7.62 19.44 27 27 0 0 1-7.62 19.44 27.62 27.62 0 0 1-19.56 7.56H315zm15.6 52.2a25.41 25.41 0 0 0 18.18-7.08c4.8-4.74 7-11.34 7-18.12s-2.22-13.38-7-18.12a25.41 25.41 0 0 0-18.18-7.08H317v50.4zM400.79 101.7v-9.78a17.35 17.35 0 0 1-3.3 5.28 16.09 16.09 0 0 1-12 5.1 16.89 16.89 0 0 1-12.36-5.1 19.95 19.95 0 0 1 0-26.1 16.89 16.89 0 0 1 12.36-5.1 16.09 16.09 0 0 1 12 5.1 17.35 17.35 0 0 1 3.3 5.28V44.7h2v57zm-26.28-29.34a17.28 17.28 0 0 0-4.26 11.82 17.13 17.13 0 0 0 4.26 11.76 15.5 15.5 0 0 0 22 0 18.25 18.25 0 0 0 0-23.58 15.5 15.5 0 0 0-22 0zM417.4 47.7h30.24v1.8h-28.26v24.3h27.3v1.8h-27.3v24.3h28.26v1.8H417.4zM486.88 98.16a19.64 19.64 0 0 1-12.72 4.14 17.43 17.43 0 0 1-12.66-5.1 19.59 19.59 0 0 1 0-26.1 18.34 18.34 0 0 1 25.38 0 18.66 18.66 0 0 1 5 13.08v.9H458.5a16.56 16.56 0 0 0 4.38 10.86 15.43 15.43 0 0 0 11.28 4.56 17.22 17.22 0 0 0 11.28-3.66 12.48 12.48 0 0 0 2.7-3.18l1.68 1a13.54 13.54 0 0 1-2.94 3.5zm-1.44-25.8a16.23 16.23 0 0 0-22.56 0 16.56 16.56 0 0 0-4.38 10.86h31.32a16.56 16.56 0 0 0-4.38-10.86zM504 47.7h30.24v1.8H506v24.3h27.3v1.8H506v26.1h-2zM555.61 44.1a6.3 6.3 0 0 1 4.62 2 7.18 7.18 0 0 1 1.8 5h-2c0-2.7-1.68-5.16-4.44-5.16s-4.38 2.46-4.38 5.16v15.5h8.88v1.8h-8.88v33.3h-2V68.4h-8.82v-1.8h8.82V51.06c.04-3.72 2.62-6.96 6.4-6.96zM619.55 101.7v-14a20.82 20.82 0 0 1-5.64 8.3c-4.92 4.38-11.46 6.3-18.06 6.3a25.1 25.1 0 0 1-18.48-7.74c-5-5.34-7.2-12.54-7.2-19.86s2.22-14.52 7.2-19.86a25.26 25.26 0 0 1 40.74 5.28l-1.74.9a25.23 25.23 0 0 0-3.48-4.92 23.76 23.76 0 0 0-34.08 0c-4.62 5-6.66 11.76-6.66 18.6s2 13.56 6.66 18.6a23.07 23.07 0 0 0 17 7.2c6.18 0 12.36-1.68 17-5.76a19.74 19.74 0 0 0 6.66-14.88V75.6h-23.7v-1.8h25.68v27.9zM650.79 118.5a18.62 18.62 0 0 0 11-3.12 10.21 10.21 0 0 0 4.32-8V91.44a17.34 17.34 0 0 1-3.3 5.28 16.3 16.3 0 0 1-12 5 17 17 0 0 1-12.36-5 19.47 19.47 0 0 1 0-25.74 17 17 0 0 1 12.36-5 16.3 16.3 0 0 1 12 5 17.36 17.36 0 0 1 3.3 5.28V66.6h2v40.74a11.85 11.85 0 0 1-4.86 9.36c-3.54 2.64-8 3.6-12.42 3.6a20.35 20.35 0 0 1-12.36-3.6 12.65 12.65 0 0 1-2.22-2.16l1.5-1.2c2.66 3.48 8.06 5.16 13.04 5.16zm-11-46.2a16.44 16.44 0 0 0-4.26 11.52 16.58 16.58 0 0 0 4.26 11.58 15.64 15.64 0 0 0 22 0 17.6 17.6 0 0 0 0-23.1 15.65 15.65 0 0 0-22 0z"/></g></svg>