<svg data-name="Ebene 1" xmlns="http://www.w3.org/2000/svg" viewBox="0 0 700 150"><path fill="#d7ffff" d="M0 0h700v150H0z"/><path d="M41.72 47.7h4.8l20.88 54h-4.26l-6.48-16.8H31.28l-6.48 16.8h-4zM44 52.08L32.72 81.3h22.56zM75.45 66.6h32.22v35.1H75.45V78.84h28.25V70.2H79.41v2.58h-4zm4 15.84V98.1h24.3V82.44zM118.69 47.7h33.84v23.82h1.8v30.18h-35.64zm4 23.82h25.92V51.3h-25.96zm0 26.58h27.72v-23h-27.76zM164.74 44.7h4v21.9h31.68v35.1h-35.68zm4 25.5v27.9h27.72V70.2zM258.92 64.2V51.3h-45.18v46.8h45.18V85.2h4v16.5h-53.1v-54h53.1v16.5zM271.34 101.7V66.6h36.54v11.28h-4V70.2H275.3v27.9h28.62v-7.68h4v11.28zM317.91 47.7h44.34v54h-44.34zm40.38 50.4V51.3h-36.42v46.8zM403.41 66.6V44.7h4v57h-35.7V66.6zm-27.78 3.6v27.9h27.78V70.2zM418.79 47.7h31.31v3.6h-27.36v21.6h25.32v3.6h-25.32v21.6h27.36v3.6h-31.31zM459.09 101.7V66.6h36.54V86H463v12.1h28.62v-5.16h4v8.76zm32.58-31.5H463v12.18h28.62zM505.66 47.7H537v3.6h-27.38v21.6h25.32v3.6h-25.32v25.2h-4zM542.11 66.6h8.46V44.7h16.14v6.36h-4V48.3h-8.22v18.3h8.4v3.6h-8.4v31.5h-4V70.2h-8.46zM620.93 62.58V51.3h-45.18v46.8h45.18V76.5h-22.56v-3.6h26.52v28.8h-53.1v-54h53.1v14.88zM670.46 122.7h-35.7v-11.22h4v7.62h27.74v-17.4h-31.74V66.6h35.7zm-31.74-52.5v27.9h27.78V70.2z"/></svg>