<svg xmlns="http://www.w3.org/2000/svg" viewBox="0 0 700 500"><path fill="#d7ffff" d="M0 0h700v500H0z" data-name="Ebene 2"/><g data-name="Ebene 1"><path d="M47.21 36h1.08l12.6 24.9H60l-5.92-11.74H41.42l-5.94 11.73h-.87zm6.48 12.39l-5.94-11.74-5.94 11.73zM75.62 30.44l-.48-1.17h-3.69s-.51 1.26-.84 2l-.84 2v9.24h7v.78h-7v17.6H69V43.25h-7v-.78h7v-9.63l2.22-4.35h4.17l.84 1.65zM96.36 47.63L93 42.35h-7.35l-3.39 5.25v13.29h-.78V42.47h.78v3.69l3-4.59h8.16l3.75 5.79v.27zM102.93 30.32s-.3.33-.45.48l-.48.48-.48-.48c-.15-.15-.45-.48-.45-.48l.93-.93zm-1.32 12.15h.78v18.42h-.78zM127 42.47l-8.43 4.35L127 60.89h-.78L118 47.12l-9.81 5.07v8.7h-.78v-31.5h.78v21.93l9.51-4.92.51-.27 7.14-3.66zM135 41.57h8.61l4.17 2.94v16.38H147v-2.07l-3.39 3H135l-4.2-3.66v-5l4.2-3.66h8.61l3.39 3v-7.63l-3.69-2.52h-8s-1.23.81-1.86 1.26l-1.86 1.26v.24l-.54-.78zm8.31 8.64h-8l-3.72 3.24v4.32l3.73 3.23h8l3.68-3.23v-4.32zM156.54 41.57h8.61l4.17 2.94v16.38h-.78v-2.07l-3.39 3h-8.61l-4.2-3.66v-5l4.2-3.66h8.61l3.39 3v-7.63l-3.69-2.52h-8s-1.23.81-1.86 1.26l-1.86 1.26v.24l-.54-.78zm8.31 8.64h-8l-3.72 3.24v4.32l3.71 3.23h8l3.69-3.24v-4.31zM175.14 60.89h-.78V42.47h.78v3.84l3.63-4.74h9.48l4.44 5.76v13.56h-.81V47.6l-4-5.25h-8.7l-4 5.25zM214.42 44.84c-.39-.27-1.2-.81-1.74-1.14l-2-1.35H202l-4 2.67v3.57l2.13 1.35c.72.48 2.13 1.35 2.13 1.35h8.7l4.59 3v4.44l-4.59 3h-9.18l-4.56-3v-.24h1L202 61h8.7l4-2.67v-3.6l-4-2.67H202l-4.8-3V44.6l4.56-3h9.18l4.59 3v.24zM221.13 58.28v5.4h-.78v-5.4zM262.92 36H264l12.6 24.9h-.87l-5.94-11.73h-12.66l-5.94 11.73h-.87zm6.48 12.39l-5.94-11.73-5.94 11.73zM281.12 29.39h.78v31.5h-.78zM291.8 41.57h10.56l4.92 6.09v8l-4.92 6.09H291.8l-4.17-5.13v4.23h-.78V29.39h.78V46.7zm.36 19.43H302l4.53-5.61v-7.46L302 42.35h-9.81l-4.53 5.58v7.47zM316 41.57h8.61l4.17 2.94v16.38H328v-2.07l-3.39 3H316l-4.2-3.66v-5l4.2-3.66h8.61l3.39 3v-7.63l-3.69-2.52h-8s-1.23.81-1.86 1.26l-1.86 1.26v.24l-.54-.78zm8.31 8.64h-8l-3.72 3.24v4.32l3.7 3.23h8l3.71-3.23v-4.32zM334.58 60.89h-.78V42.47h.78v3.84l3.63-4.74h9.48l4.44 5.76v13.56h-.81V47.6l-4-5.25h-8.7l-4 5.25zM358.37 30.32s-.3.33-.45.48l-.48.48-.44-.48-.45-.48.93-.93zM357 42.47h.78v18.42H357zM366.42 41.57H375l4.17 2.94v16.38h-.78v-2.07l-3.39 3h-8.61l-4.2-3.66v-5l4.2-3.66H375l3.39 3v-7.63l-3.69-2.52h-8s-1.23.81-1.86 1.26L363 44.87v.24l-.54-.78zm8.31 8.64h-8L363 53.45v4.32l3.72 3.23h8l3.69-3.24v-4.31zM385 60.89h-.78V42.47h.78v3.84l3.63-4.74h9.48l4.44 5.76v13.56h-.81V47.6l-4-5.25H389l-4 5.25zM408.35 58.28v5.4h-.78v-5.4zM34.61 77h14.61l6.36 3.51v5.19l-5.7 3.15 5.7 3.48V98l-6.36 3.9H34.61zm20.19 8.24V81L49 77.77H35.39v10.65H49zm-19.41 4v11.91H49l5.79-3.57v-4.81L49 89.2zM75.22 88.63l-3.39-5.25h-7.32l-3.39 5.22v13.29h-.78V83.47h.78v3.69l3-4.59h8.16L76 88.36v.27zM100.9 93.07H81.26v3.33l4.53 5.6h9.81l4.53-5.61v-.27l.75.6-4.88 6.07H85.43l-4.95-6.09v-8l4.95-6.09H96l4.92 6.09zm-.78-4.14l-4.52-5.58h-9.81l-4.53 5.58v3.36h18.87zM103.77 83.08h8.37V70.39h.78v12.69h8.37v.78h-8.37v18h-.78v-18h-8.37zM144.56 88.66v8l-4.92 6.09h-10.56l-4.95-6.09v-8l4.95-6.09h10.56zm-15.12-5.31l-4.53 5.58v7.47l4.53 5.61h9.81l4.53-5.61v-7.47l-4.53-5.58zM150.14 101.89h-.78V83.47h.78v3.84l3.63-4.74h9.48l4.44 5.76v13.56h-.81V88.6l-4-5.25h-8.7l-4 5.25zM173.47 99.28v5.4h-.78v-5.4zM230.8 84.43l-6.57-7.53H210l-6.57 7.53v10.05L210 102h14.22l6.57-7.53.63.51-6.84 7.83h-14.93l-7-8V84.13l7-8h14.94l6.84 7.83zM250.94 88.63l-3.39-5.25h-7.32l-3.39 5.25v13.29h-.78V83.47h.78v3.69l3-4.59H248l3.75 5.79v.27zM276.62 88.66v8l-4.92 6.09h-10.56l-4.95-6.09v-8l4.95-6.09h10.56zm-15.12-5.31l-4.5 5.58v7.47l4.5 5.6h9.81l4.53-5.61v-7.46l-4.53-5.58zM285.32 82.57h8.61l4.17 2.94v16.38h-.78v-2.07l-3.39 3h-8.61l-4.2-3.66v-5l4.2-3.66h8.61l3.39 3v-7.63l-3.69-2.52h-8s-1.23.81-1.86 1.26l-1.86 1.26v.24l-.54-.78zm8.31 8.64h-8l-3.72 3.24v4.32l3.72 3.24h8l3.69-3.24v-4.32zM302.22 83.08h8.37V70.39h.78v12.69h8.37v.78h-8.37v18h-.78v-18h-8.37zM325.74 71.32s-.3.33-.45.48l-.48.48-.48-.48c-.15-.15-.45-.48-.45-.48l.93-.93zm-1.32 12.15h.78v18.42h-.78zM333.79 82.57h8.61l4.17 2.94v16.38h-.78v-2.07l-3.39 3h-8.61l-4.2-3.66v-5l4.2-3.66h8.61l3.39 3v-7.63l-3.69-2.52h-8s-1.23.81-1.86 1.26l-1.86 1.26v.24l-.54-.78zm8.31 8.64h-8l-3.72 3.24v4.32l3.72 3.24h8l3.69-3.24v-4.32zM352.39 101.89h-.78V83.47h.78v3.84l3.61-4.74h9.48l4.44 5.76v13.56h-.81V88.6l-4-5.25h-8.7l-4 5.25zM375.72 99.28v5.4h-.78v-5.4zM433 84.43l-6.57-7.53h-14.17l-6.57 7.53v10.05l6.57 7.53h14.22l6.52-7.53.63.51-6.84 7.83H411.9l-7-8V84.13l7-8h14.94l6.84 7.83zM438.31 83.47h18.33v1.08l-17.49 16.56h17.49v.78h-18.33v-1.08l17.49-16.56h-17.49zM480.06 93.07h-19.65v3.33l4.53 5.61h9.81l4.53-5.61v-.27l.75.6-4.89 6.06h-10.56l-5-6.09v-8l5-6.09h10.56l4.92 6.09zm-.78-4.14l-4.53-5.58h-9.81l-4.53 5.58v3.36h18.87zM499.68 102l4.53-5.61v-.18l.72.57-4.86 6h-10.56l-5-6.09v-8l5-6.09h10.56l4.86 6-.72.57v-.21l-4.53-5.58h-9.81l-4.53 5.58v7.44l4.53 5.61zM510.24 101.89h-.78v-31.5h.78v16.92l3.63-4.74h9.48l4.44 5.76v13.56H527V88.6l-4-5.25h-8.7l-4 5.25zM533.57 99.28v5.4h-.78v-5.4zM34.61 118h16.77l8.19 7.44v10l-8.19 7.44H34.61zm.78 24.12h15.69l7.71-7v-9.36l-7.71-7H35.39zM68.28 123.57h8.61l4.17 2.94v16.38h-.78v-2.07l-3.39 3h-8.61l-4.2-3.66v-5l4.2-3.66h8.61l3.39 3v-7.53l-3.69-2.52h-8s-1.23.81-1.86 1.26l-1.86 1.26v.24l-.54-.78zm8.31 8.64h-8l-3.72 3.24v4.32l3.71 3.23h8l3.69-3.24v-4.32zM86.88 142.89h-.78v-18.42h.78v3.84l3.63-4.74H100l4.44 5.76v13.56h-.81V129.6l-4-5.25H90.9l-4 5.25zM110.66 112.32s-.3.33-.45.48l-.48.48-.48-.48c-.15-.15-.45-.48-.45-.48l.93-.93zm-1.32 12.15h.78v18.42h-.78zM131.77 126.84c-.39-.27-1.2-.81-1.74-1.14l-2-1.35h-8.7l-4 2.67v3.57l2.13 1.35c.72.48 2.13 1.35 2.13 1.35h8.7l4.59 3v4.44l-4.59 3h-9.18l-4.56-3v-.24h1l3.75 2.49h8.7l4-2.67v-3.6l-4-2.67h-8.7l-4.8-3v-4.44l4.56-3h9.18l4.59 3v.24zM138.1 142.89h-.78v-31.5h.78v16.92l3.63-4.74h9.48l4.44 5.76v13.56h-.81V129.6l-4-5.25h-8.7l-4 5.25zM161.43 140.28v5.4h-.78v-5.4zM190.62 118h16.77l8.19 7.44v10l-8.19 7.44h-16.77zm.78 24.12h15.69l7.71-7v-9.36l-7.71-7H191.4zM237.79 124.47h.81v18.42h-.81v-3.81l-3.63 4.71h-9.48l-4.41-5.79v-13.53h.78v13.29l4 5.25h8.7l4-5.25zM243.26 124.08h8.37v-12.69h.78v12.69h8.37v.78h-8.37v18h-.78v-18h-8.37zM278.74 143l4.53-5.61v-.18l.72.57-4.86 6h-10.56l-4.95-6.09v-8l4.95-6.09h10.56l4.86 6-.72.57v-.21l-4.53-5.58h-9.81l-4.53 5.58v7.47l4.53 5.61zM289.3 142.89h-.78v-31.5h.78v16.92l3.63-4.74h9.48l4.44 5.76v13.56H306V129.6l-4-5.25h-8.7l-4 5.25zM312.63 140.28v5.4h-.78v-5.4zM341.82 118h21v.78H342.6v11.28h19.8v.78h-19.8v11.28h20.19v.78h-21zM368.07 142.89h-.78v-18.42h.78v3.84l3.63-4.74h9.48l4.44 5.76v13.56h-.81V129.6l-4-5.25h-8.7l-4 5.25zM390.53 147.27l.63-.51 4.35 5.55h9.81l4.53-5.79V138l-4.17 4.89h-10.53l-4.95-5.82v-7.68l4.95-5.82h10.53l4.17 4.89v-4h.78v22.35l-5 6.27h-10.48zm14.79-22.92h-9.81l-4.51 5.31v7.11l4.53 5.34h9.81l4.53-5.34v-7.11zM415.69 111.39h.78v31.5h-.78zM422.74 112.32s-.3.33-.45.48l-.48.48-.48-.48-.45-.48.93-.93zm-1.32 12.15h.78v18.42h-.78zM443.85 126.84c-.39-.27-1.2-.81-1.74-1.14l-2-1.35h-8.7l-4 2.67v3.57l2.13 1.35c.72.48 2.13 1.35 2.13 1.35h8.7l4.59 3v4.44l-4.59 3h-9.18l-4.56-3v-.24h1l3.77 2.51h8.7l4-2.67v-3.6l-4-2.67h-8.7l-4.8-3v-4.46l4.56-3h9.18l4.59 3v.24zM450.18 142.89h-.78v-31.5h.78v16.92l3.63-4.74h9.48l4.44 5.76v13.56h-.81V129.6l-4-5.25h-8.7l-4 5.25zM473.51 140.28v5.4h-.78v-5.4zM34.61 159h21v.78H35.39v11.28h19.8v.78h-19.8v11.28h20.19v.78h-21zM77.12 167.84c-.39-.27-1.2-.81-1.74-1.14l-2-1.35h-8.7l-4 2.67v3.57l2.13 1.35c.72.48 2.13 1.35 2.13 1.35h8.7l4.59 3v4.44l-4.59 3h-9.21l-4.56-3v-.24h1l3.8 2.51h8.7l4-2.67v-3.6l-4-2.67h-8.7l-4.8-3v-4.46l4.56-3h9.18l4.59 3v.24zM82.23 165.08h8.37v-12.69h.78v12.69h8.37v.78h-8.37v18h-.78v-18h-8.37zM123 170.66v8l-4.92 6.09h-10.54l-4.95-6.09v-8l4.95-6.09h10.56zm-15.12-5.31l-4.53 5.58v7.47l4.55 5.6h9.81l4.53-5.61v-7.47l-4.53-5.58zM128.6 183.89h-.78v-18.42h.78v3.84l3.63-4.74h9.48l4.44 5.76v13.56h-.81V170.6l-4-5.25h-8.7l-4 5.25zM152.38 153.32s-.3.33-.45.48l-.48.48-.48-.48c-.15-.15-.45-.48-.45-.48l.93-.93zm-1.32 12.15h.78v18.42h-.78zM160.43 164.57H169l4.17 2.94v16.38h-.78v-2.07l-3.39 3h-8.61l-4.2-3.66v-5l4.2-3.66H169l3.39 3v-7.53l-3.69-2.52h-8s-1.23.81-1.86 1.26l-1.84 1.16v.24l-.54-.78zm8.31 8.64h-8l-3.74 3.24v4.32l3.72 3.24h8l3.69-3.24v-4.32zM179 183.89h-.78v-18.42h.78v3.84l3.63-4.74h9.48l4.44 5.76v13.56h-.81V170.6l-4-5.25h-8.7l-4 5.25zM202.37 181.28v5.4h-.78v-5.4zM231.55 159h21v.78h-20.22v11.28h19.8v.78h-19.8v12.06h-.78zM259.5 164.57h8.61l4.17 2.94v16.38h-.78v-2.07l-3.39 3h-8.61l-4.2-3.66v-5l4.2-3.66h8.61l3.39 3v-7.53l-3.69-2.52h-8s-1.23.81-1.86 1.26l-1.86 1.26v.24l-.54-.78zm8.31 8.64h-8l-3.72 3.24v4.32l3.71 3.23h8l3.69-3.24v-4.32zM292.2 170.63l-3.39-5.25h-7.32l-3.39 5.25v13.29h-.78v-18.45h.78v3.69l3-4.59h8.16l3.75 5.79v.27zM317.89 170.66v8l-4.89 6.13h-10.59l-4.95-6.09v-8l4.95-6.09H313zm-15.12-5.31l-4.53 5.58v7.47l4.53 5.61h9.81l4.53-5.61v-7.47l-4.53-5.58zM342.82 175.07h-19.65v3.33l4.53 5.6h9.81l4.49-5.6v-.27l.75.6-4.89 6.06h-10.52l-4.95-6.09v-8l4.95-6.09h10.56l4.92 6.09zm-.78-4.14l-4.53-5.58h-9.81l-4.53 5.58v3.36H342zM364.57 167.84c-.39-.27-1.2-.81-1.74-1.14l-2-1.35h-8.7l-4 2.67v3.57l2.13 1.35c.72.48 2.13 1.35 2.13 1.35h8.7l4.59 3v4.44l-4.59 3h-9.18l-4.56-3v-.24h1l3.75 2.49h8.7l4-2.67v-3.6l-4-2.67h-8.7l-4.8-3v-4.44l4.56-3h9.18l4.59 3v.24zM390.56 175.07h-19.65v3.33l4.53 5.61h9.81l4.53-5.61v-.27l.75.6-4.89 6.06h-10.56l-4.95-6.09v-8l4.95-6.09h10.56l4.92 6.09zm-.78-4.14l-4.53-5.58h-9.81l-4.53 5.58v3.36h18.87zM395.28 181.28v5.4h-.78v-5.4zM424.46 159h21v.78h-20.22v11.28H445v.78h-19.8v12.06h-.78zM451 153.32s-.3.33-.45.48l-.48.48-.48-.48c-.15-.15-.45-.48-.45-.48l.93-.93zm-1.32 12.15h.78v18.42h-.78zM456.26 183.89h-.78v-18.42h.78v3.84l3.63-4.74h9.48l4.44 5.76v13.56H473V170.6l-4-5.25h-8.7l-4 5.25zM479.58 183.89h-.78v-18.42h.78v3.84l3.63-4.74h9.48l4.44 5.76v13.56h-.81V170.6l-4-5.25h-8.7l-4 5.25zM503.36 153.32s-.3.33-.45.48l-.48.48-.48-.48c-.15-.15-.45-.48-.45-.48l.93-.93zM502 165.47h.78v18.42H502zM524.46 167.84c-.39-.27-1.2-.81-1.74-1.14l-2-1.35H512l-4 2.65v3.57l2.13 1.35c.72.48 2.13 1.35 2.13 1.35H521l4.59 3v4.44l-4.59 3h-9.18l-4.56-3v-.24h1.05L512 184h8.7l4-2.67v-3.6l-4-2.67H512l-4.8-3v-4.46l4.56-3H521l4.59 3v.24zM530.8 183.89h-.8v-31.5h.78v16.92l3.63-4.74h9.48l4.44 5.76v13.56h-.81V170.6l-4-5.25h-8.7l-4 5.25zM554.13 181.28v5.4h-.78v-5.4zM34.61 200h21v.78H35.39v11.28h19.8v.78h-19.8v12.06h-.78zM74.75 211.63l-3.39-5.25H64l-3.39 5.25v13.29h-.78v-18.45h.78v3.69l3-4.59h8.16l3.75 5.79v.27zM100.44 216.07H80.79v3.33l4.53 5.6h9.81l4.53-5.61v-.27l.75.6-4.89 6.06H85l-5-6.08v-8l5-6.13h10.52l4.92 6.09zm-.78-4.14l-4.53-5.58h-9.81l-4.53 5.58v3.36h18.87zM105.88 224.89h-.78v-18.42h.78v3.84l3.63-4.74H119l4.44 5.76v13.56h-.81V211.6l-4-5.25h-8.7l-4 5.25zM143.19 225l4.53-5.61v-.18l.72.57-4.86 6H133l-4.95-6.09v-8l4.95-6.09h10.56l4.86 6-.72.57v-.21l-4.53-5.58h-9.81l-4.53 5.58v7.47l4.53 5.61zM153.75 224.89H153v-31.5h.78v16.92l3.63-4.74h9.48l4.44 5.76v13.56h-.81V211.6l-4-5.25h-8.7l-4 5.25zM177.08 222.28v5.4h-.78v-5.4zM206.27 200h21v.78H207v11.28h19.8v.78H207v12.06h-.78zM246.41 211.63l-3.41-5.28h-7.3l-3.39 5.25v13.29h-.78v-18.42h.78v3.69l3-4.59h8.16l3.75 5.79v.27zM253 194.32s-.3.33-.45.48l-.48.48-.48-.48c-.15-.15-.45-.48-.45-.48l.93-.93zm-1.32 12.15h.78v18.42h-.78zM274.09 208.84c-.39-.27-1.2-.81-1.74-1.14l-2-1.35h-8.7l-4 2.67v3.57l2.13 1.35c.72.48 2.13 1.35 2.13 1.35h8.7l4.59 3v4.44l-4.59 3h-9.21l-4.56-3v-.24h1l3.75 2.49h8.7l4-2.67v-3.6l-4-2.67h-8.7l-4.8-3v-4.44l4.56-3h9.18l4.59 3v.24zM281 194.32s-.3.33-.45.48l-.48.48-.48-.48c-.15-.15-.45-.48-.45-.48l.93-.93zm-1.32 12.15h.78v18.42h-.78zM289 205.57h8.61l4.17 2.94v16.38H301v-2.07l-3.39 3H289l-4.2-3.66v-5l4.2-3.66h8.61l3.39 3v-7.53l-3.69-2.52h-8s-1.23.81-1.86 1.26l-1.86 1.26v.24l-.54-.78zm8.31 8.64h-8l-3.72 3.24v4.32l3.72 3.24h8l3.69-3.24v-4.32zM307.61 224.89h-.78v-18.42h.78v3.84l3.63-4.74h9.48l4.44 5.76v13.56h-.81V211.6l-4-5.25h-8.7l-4 5.25zM330.94 222.28v5.4h-.78v-5.4zM388.27 207.52v-.12l-6.57-7.53h-14.22l-6.57 7.53v10.08l6.57 7.53h14.22l6.57-7.53v-4.26h-10.41v-.78h11.22v12.45h-.81v-6.21l-6.21 7.11h-14.94l-7-8v-10.66l7-8h14.94l6.87 7.86zM397.82 205.57h8.61l4.17 2.94v16.38h-.78v-2.07l-3.39 3h-8.61l-4.2-3.66v-5l4.2-3.66h8.61l3.39 3v-7.53l-3.69-2.52h-8s-1.23.81-1.86 1.26l-1.86 1.26v.24l-.54-.78zm8.31 8.64h-8l-3.72 3.24v4.32l3.72 3.24h8l3.69-3.24v-4.32zM435.77 216.07h-19.65v3.33l4.53 5.61h9.81l4.54-5.61v-.27l.75.6-4.89 6.06h-10.57l-4.95-6.09v-8l4.95-6.09h10.56l4.92 6.09zm-.78-4.14l-4.53-5.58h-9.81l-4.53 5.58v3.36H435zM440.47 193.39h.78v31.5h-.78zM447.52 194.32s-.3.33-.45.48l-.48.48-.48-.48-.45-.48.93-.93zm-1.32 12.15h.8v18.42h-.78zM466.58 225l4.53-5.61v-.18l.72.57-4.86 6h-10.55l-5-6.09v-8l5-6.09H467l4.86 6-.72.57v-.21l-4.53-5.58h-9.81l-4.53 5.58v7.47l4.53 5.61zM476.61 222.28v5.4h-.78v-5.4zM62.75 248.52v-.12l-6.57-7.53H42l-6.57 7.53v10.08L42 266h14.18l6.57-7.53v-4.26H52.34v-.78h11.22v12.45h-.81v-6.21l-6.21 7.11H41.6l-7-8v-10.65l7-8h14.94l6.87 7.87zM88.61 257.07H69v3.33l4.49 5.6h9.81l4.53-5.61v-.27l.75.6-4.89 6.06H73.13l-4.95-6.09v-8l4.95-6.09h10.56l4.92 6.09zm-.78-4.14l-4.53-5.58h-9.81L69 252.93v3.36h18.83zM108.16 252.63l-3.39-5.25h-7.32l-3.39 5.25v13.29h-.78v-18.45h.78v3.69l3-4.59h8.16l3.75 5.79v.27zM114.19 265.89h-.78v-18.42h.78v3.75l3.27-4.65h8.76l3.66 5.22 3.63-5.22h8.76l4 5.79v13.53h-.78V252.6l-3.66-5.25h-7.95l-3.66 5.25v13.29h-.78V252.6l-3.69-5.25h-7.95l-3.66 5.25zM155.1 246.57h8.61l4.17 2.94v16.38h-.78v-2.07l-3.39 3h-8.61l-4.2-3.66v-5l4.2-3.66h8.61l3.39 3v-7.53l-3.69-2.52h-8s-1.23.81-1.86 1.26l-1.86 1.26v.24l-.54-.78zm8.31 8.64h-8l-3.72 3.24v4.32l3.71 3.23h8l3.69-3.24v-4.32zM173.7 265.89h-.78v-18.42h.78v3.84l3.63-4.74h9.48l4.44 5.76v13.56h-.81V252.6l-4-5.25h-8.7l-4 5.25zM197 263.28v5.4h-.78v-5.4zM254.36 248.52v-.12l-6.57-7.53h-14.22L227 248.4v10.08l6.57 7.53h14.22l6.57-7.53v-4.26h-10.41v-.78h11.22v12.45h-.81v-6.21l-6.21 7.11h-14.94l-7-8v-10.66l7-8h14.94L255 248zM275 252.63l-3.39-5.25h-7.32l-3.39 5.25v13.29h-.78v-18.45h.78v3.69l3-4.59h8.16l3.75 5.79v.27zM300.72 257.07h-19.65v3.33l4.53 5.6h9.81l4.53-5.61v-.27l.75.6-4.89 6.06h-10.56l-4.95-6.09v-8l4.95-6.09h10.56l4.92 6.09zm-.78-4.14l-4.53-5.58h-9.81l-4.53 5.58v3.36h18.87zM325.66 257.07H306v3.33l4.53 5.61h9.81l4.53-5.61v-.27l.75.6-4.89 6.06h-10.55l-4.95-6.09v-8l4.95-6.09h10.56l4.92 6.09zm-.78-4.14l-4.53-5.58h-9.81l-4.54 5.58v3.36h18.87zM331.1 265.89h-.78v-18.42h.78v3.84l3.63-4.74h9.48l4.44 5.76v13.56h-.81V252.6l-4-5.25h-8.7l-4 5.25zM353.65 234.39h.78v31.5h-.78zM363.17 246.57h8.61l4.17 2.94v16.38h-.78v-2.07l-3.39 3h-8.61l-4.2-3.66v-5l4.2-3.66h8.61l3.39 3v-7.53l-3.69-2.52h-8s-1.23.81-1.86 1.26l-1.86 1.26v.24l-.54-.78zm8.31 8.64h-8l-3.72 3.24v4.32l3.72 3.24h8l3.69-3.24v-4.32zM381.77 265.89H381v-18.42h.78v3.84l3.63-4.74h9.48l4.44 5.76v13.56h-.81V252.6l-4-5.25h-8.7l-4 5.25zM423.61 265.89v-4.23l-4.14 5.13h-10.56L404 260.7v-8l4.95-6.09h10.56l4.14 5.13v-17.35h.78v31.5zm-4.53-18.54h-9.81l-4.53 5.58v7.47l4.53 5.61h9.81l4.53-5.61v-7.47zM430.78 235.32l-.45.48-.48.48-.48-.48c-.15-.15-.45-.48-.45-.48l.93-.93zm-1.32 12.15h.78v18.42h-.78zM449.84 266l4.53-5.61v-.18l.72.57-4.86 6h-10.56l-4.95-6.09v-8l4.95-6.09h10.56l4.86 6-.72.57v-.21l-4.53-5.58H440l-4.53 5.58v7.47L440 266zM459.87 263.28v5.4h-.78v-5.4zM57.44 306.89v-12.06h-22v12.06h-.78V282h.78v12.06h22V282h.81v24.9zM80.75 288.47h.81v18.42h-.81v-3.81l-3.63 4.71h-9.48L63.23 302v-13.53H64v13.29l4 5.24h8.7l4-5.25zM87.38 306.89h-.78v-18.42h.78v3.84l3.62-4.74h9.48l4.44 5.76v13.56h-.81V293.6l-4-5.25H91.4l-4 5.25zM109.84 311.27l.63-.51 4.35 5.55h9.81l4.53-5.79V302l-4.16 4.89h-10.54l-4.95-5.82v-7.68l4.95-5.82H125l4.17 4.89v-4h.78v22.35l-4.95 6.28h-10.54zm14.79-22.92h-9.81l-4.53 5.31v7.11l4.53 5.34h9.81l4.53-5.34v-7.11zM138.75 287.57h8.61l4.17 2.94v16.38h-.78v-2.07l-3.39 3h-8.61l-4.2-3.66v-5l4.2-3.66h8.61l3.39 3v-7.53l-3.69-2.52h-8s-1.23.81-1.86 1.26l-1.86 1.26v.24l-.54-.78zm8.31 8.64h-8l-3.72 3.24v4.32l3.72 3.24h8l3.69-3.24v-4.32zM171.45 293.63l-3.39-5.25h-7.32l-3.39 5.25v13.29h-.78v-18.45h.78v3.69l3-4.59h8.16l3.75 5.79v.27zM178 276.32s-.3.33-.45.48l-.48.48-.48-.48c-.15-.15-.45-.48-.45-.48l.93-.93zm-1.32 12.15h.78v18.42h-.78zM186.08 287.57h8.61l4.17 2.94v16.38h-.78v-2.07l-3.39 3h-8.61l-4.2-3.66v-5l4.2-3.66h8.61l3.39 3v-7.53l-3.69-2.52h-8s-1.23.81-1.86 1.26l-1.86 1.26v.24l-.54-.78zm8.31 8.64h-8l-3.72 3.24v4.32l3.72 3.24h8l3.69-3.24v-4.32zM204.68 306.89h-.78v-18.42h.78v3.84l3.63-4.74h9.48l4.44 5.76v13.56h-.81V293.6l-4-5.25h-8.7l-4 5.25zM228 304.28v5.4h-.78v-5.4zM257.2 282h.8v24.9h-.78zM277.78 307l4.53-5.61v-.18l.72.57-4.86 6h-10.56l-4.95-6.09v-8l4.95-6.09h10.56l4.86 6-.72.57v-.21l-4.53-5.58H268l-4.53 5.58v7.47L268 307zM308 298.07h-19.66v3.33l4.53 5.61h9.81l4.53-5.61v-.27l.75.6-4.89 6.06h-10.56l-4.95-6.09v-8l4.95-6.09h10.56l4.92 6.09zm-.78-4.14l-4.53-5.58h-9.81l-4.53 5.58v3.36h18.87zM312.68 275.39h.78v31.5h-.78zM322.2 287.57h8.61l4.17 2.94v16.38h-.78v-2.07l-3.39 3h-8.61l-4.2-3.66v-5l4.2-3.66h8.61l3.39 3v-7.53l-3.69-2.52h-8s-1.23.81-1.86 1.26l-1.86 1.26v.24l-.54-.78zm8.31 8.64h-8l-3.72 3.24v4.32l3.71 3.23h8l3.69-3.24v-4.32zM340.8 306.89h-.8v-18.42h.78v3.84l3.63-4.74h9.48l4.44 5.76v13.56h-.81V293.6l-4-5.25h-8.7l-4 5.25zM382.64 306.89v-4.23l-4.14 5.13h-10.56l-5-6.09v-8l5-6.09h10.56l4.14 5.13v-17.35h.78v31.5zm-4.53-18.54h-9.81l-4.53 5.58v7.47l4.53 5.6h9.81l4.53-5.61v-7.47zM389.81 276.32s-.3.33-.45.48l-.48.48-.48-.48c-.15-.15-.45-.48-.45-.48l.93-.93zm-1.32 12.15h.78v18.42h-.78zM408.88 307l4.53-5.61v-.18l.72.57-4.86 6h-10.56l-5-6.09v-8l5-6.09h10.56l4.86 6-.72.57v-.21l-4.53-5.58h-9.81l-4.53 5.58v7.47l4.53 5.61zM418.91 304.28v5.4h-.78v-5.4zM448.09 282h.78v24.9h-.78zM468.67 293.63l-3.39-5.25H458l-3.39 5.25v13.29h-.78v-18.45h.78v3.69l3-4.59h8.16l3.75 5.79v.27zM475.24 276.32s-.3.33-.45.48l-.48.48-.48-.48-.45-.48.93-.93zm-1.32 12.15h.78v18.42h-.78zM496.34 290.84c-.39-.27-1.2-.81-1.74-1.14l-2-1.35h-8.7l-4 2.67v3.57l2.13 1.35c.72.48 2.13 1.35 2.13 1.35h8.7l4.59 3v4.44l-4.59 3h-9.18l-4.56-3v-.24h1l3.75 2.49h8.7l4-2.67v-3.6l-4-2.67h-8.7l-4.8-3v-4.44l4.56-3h9.18l4.59 3v.24zM502.68 306.89h-.78v-31.5h.78v16.92l3.63-4.74h9.48l4.44 5.76v13.56h-.81V293.6l-4-5.25h-8.7l-4 5.25zM526 304.28v5.4h-.78v-5.4zM34.61 323h.78v24.9h-.78zM40 329.08h8.37v-12.69h.78v12.69h8.37v.78h-8.4v18h-.78v-18H40zM65.73 328.57h8.61l4.17 2.94v16.38h-.78v-2.07l-3.39 3h-8.61l-4.2-3.66v-5l4.2-3.66h8.61l3.39 3v-7.53L74 329.35h-8s-1.23.81-1.86 1.26l-1.86 1.26v.24l-.54-.78zm8.27 8.64h-8l-3.72 3.24v4.32L66 348h8l3.69-3.24v-4.32zM83.54 316.39h.78v31.5h-.78zM90.59 317.32s-.3.33-.45.48l-.48.48-.48-.48c-.15-.15-.45-.48-.45-.48l.93-.93zm-1.32 12.15h.78v18.42h-.78zM98.65 328.57h8.61l4.17 2.94v16.38h-.78v-2.07l-3.39 3h-8.61l-4.2-3.66v-5l4.2-3.66h8.61l3.39 3v-7.53l-3.65-2.62h-8s-1.23.81-1.86 1.26l-1.86 1.26v.24l-.54-.78zm8.31 8.64h-8l-3.72 3.24v4.32l3.71 3.23h8l3.69-3.24v-4.32zM117.25 347.89h-.78v-18.42h.78v3.84l3.63-4.74h9.48l4.44 5.76v13.56h-.8V334.6l-4-5.25h-8.7l-4 5.25zM140.58 345.28v5.4h-.78v-5.4zM169.77 323h1.08l21.75 24.09V323h.78v24.9h-1.08l-21.76-24.1v24.09h-.78zM218.53 334.66v8l-4.92 6.09H203l-4.95-6.09v-8l4.95-6.09h10.56zm-15.12-5.31l-4.53 5.58v7.47l4.53 5.61h9.81l4.53-5.61v-7.47l-4.53-5.58zM238.21 334.63l-3.39-5.25h-7.32l-3.39 5.25v13.29h-.78v-18.45h.78v3.69l3-4.59h8.16l3.75 5.79v.27zM252.5 329.47l3.93 8.13 3.93-8.13h.84l-4.35 9 4.23 8.76 8.58-17.76h.84l-8.88 18.42h-1.08l-4.11-8.52-4.11 8.52h-1.08l-8.88-18.42h.87l8.55 17.76 4.23-8.76-4.35-9zM294.29 339.07h-19.65v3.33l4.53 5.61H289l4.53-5.61v-.27l.75.6-4.89 6.06h-10.58l-4.95-6.09v-8l4.95-6.09h10.56l4.92 6.09zm-.78-4.14l-4.51-5.58h-9.81l-4.53 5.58v3.36h18.87zM299.12 352.27l.63-.51 4.35 5.55h9.81l4.53-5.79V343l-4.17 4.89h-10.53l-4.95-5.82v-7.68l4.95-5.82h10.53l4.17 4.89v-4h.78v22.35l-4.95 6.27h-10.53zm14.79-22.92h-9.81l-4.53 5.31v7.11l4.53 5.34h9.81l4.53-5.34v-7.11zM325.62 317.32s-.3.33-.45.48l-.48.48-.48-.48c-.15-.15-.45-.48-.45-.48l.93-.93zm-1.32 12.15h.78v18.42h-.78zM333.67 328.57h8.61l4.17 2.94v16.38h-.78v-2.07l-3.39 3h-8.61l-4.2-3.66v-5l4.2-3.66h8.61l3.39 3v-7.53l-3.67-2.62h-8s-1.23.81-1.86 1.26l-1.86 1.26v.24l-.54-.78zm8.31 8.64h-8l-3.72 3.24v4.32L334 348h8l3.69-3.24v-4.32zM352.27 347.89h-.78v-18.42h.78v3.84l3.63-4.74h9.48l4.44 5.76v13.56H369V334.6l-4-5.25h-8.7l-4 5.25zM375.6 345.28v5.4h-.78v-5.4zM404.79 323h14.61l6.36 3.72v5.4l-6.36 3.72h-13.83v12.06h-.78zm.78 12.06h13.62l5.79-3.39v-4.5l-5.79-3.39h-13.62zM449.87 334.66v8l-4.92 6.09h-10.56l-5-6.09v-8l5-6.09h10.56zm-15.12-5.31l-4.53 5.58v7.47l4.53 5.61h9.81l4.53-5.61v-7.47l-4.53-5.58zM454.69 316.39h.78v31.5h-.78zM461.75 317.32s-.3.33-.45.48l-.48.48-.48-.48c-.15-.15-.45-.48-.45-.48l.93-.93zm-1.32 12.15h.78v18.42h-.78zM482.85 331.84c-.39-.27-1.2-.81-1.74-1.14l-2-1.35h-8.7l-4 2.67v3.57l2.13 1.35c.72.48 2.13 1.35 2.13 1.35h8.7l4.59 3v4.44l-4.59 3h-9.18l-4.56-3v-.24h1l3.77 2.51h8.7l4-2.67v-3.6l-4-2.67h-8.7l-4.8-3v-4.46l4.56-3h9.18l4.59 3v.24zM489.18 347.89h-.78v-31.5h.78v16.92l3.63-4.74h9.48l4.44 5.76v13.56h-.81V334.6l-4-5.25h-8.7l-4 5.25zM512.51 345.28v5.4h-.78v-5.4zM34.61 364h14.61l6.36 3.72v5.4l-6.36 3.72H35.39v12.06h-.78zm.78 12.06H49l5.79-3.39v-4.5l-5.79-3.4H35.39zM79.69 375.66v8l-4.92 6.09H64.21l-4.95-6.09v-8l4.95-6.09h10.56zm-15.12-5.31L60 375.93v7.47l4.57 5.6h9.81l4.53-5.61v-7.47l-4.53-5.58zM99.37 375.63L96 370.35h-7.34l-3.39 5.25v13.29h-.78v-18.42h.78v3.69l3-4.59h8.13l3.75 5.79v.27zM103.45 370.08h8.37v-12.69h.78v12.69h8.4v.78h-8.4v18h-.78v-18h-8.37zM143.16 370.47h.84v18.42h-.81v-3.81l-3.63 4.71h-9.48l-4.44-5.79v-13.53h.78v13.29l4 5.25h8.7l4-5.25zM149 393.27l.63-.51 4.35 5.55h9.81l4.53-5.79V384l-4.17 4.89H153.6l-4.95-5.82v-7.68l4.95-5.82h10.53l4.17 4.89v-4h.78v22.35l-4.95 6.27H153.6zm14.79-22.92H154l-4.53 5.31v7.11l4.53 5.34h9.81l4.53-5.34v-7.11zM191.61 370.47h.81v18.42h-.81v-3.81l-3.61 4.71h-9.5l-4.41-5.79v-13.53h.78v13.29l4 5.25h8.7l4-5.25zM217.62 380.07H198v3.33l4.5 5.6h9.81l4.53-5.61v-.27l.75.6-4.89 6.06h-10.56l-4.95-6.09v-8l4.95-6.09h10.56l4.92 6.09zm-.78-4.14l-4.53-5.58h-9.81l-4.5 5.58v3.36h18.87zM239.37 372.84c-.39-.27-1.2-.81-1.74-1.14l-2-1.35h-8.7l-4 2.67v3.57l2.13 1.35c.72.48 2.13 1.35 2.13 1.35h8.7l4.59 3v4.44l-4.59 3h-9.18l-4.56-3v-.24h1l3.75 2.49h8.7l4-2.67v-3.6l-4-2.67h-8.7l-4.8-3v-4.44l4.56-3h9.18l4.59 3v.24zM265.35 380.07H245.7v3.33l4.53 5.61H260l4.53-5.61v-.27l.75.6-4.89 6.06h-10.52l-4.95-6.09v-8l4.95-6.09h10.56l4.92 6.09zm-.78-4.14l-4.57-5.58h-9.81l-4.53 5.58v3.36h18.87zM270.07 386.28v5.4h-.78v-5.4zM319.36 388.89l-9.72-12.06H300v12.06h-.78V364h14.61l6.36 3.72v5.4l-6.36 3.72h-3.42l9.78 12.06zM300 376.05h13.62l5.79-3.39v-4.5l-5.79-3.39H300zM342.25 370.47h.81v18.42h-.81v-3.81l-3.63 4.71h-9.48l-4.41-5.79v-13.53h.78v13.29l4 5.25h8.7l4-5.25zM348.87 388.89h-.78v-18.42h.78v3.75l3.27-4.65h8.76l3.66 5.22 3.63-5.22h8.76l4.05 5.79v13.53h-.78V375.6l-3.66-5.25h-8l-3.66 5.25v13.29h-.78V375.6l-3.69-5.25h-7.95l-3.66 5.25zM389.78 369.57h8.61l4.17 2.94v16.38h-.78v-2.07l-3.39 3h-8.61l-4.2-3.66v-5l4.2-3.66h8.61l3.39 3v-7.53l-3.69-2.52h-8s-1.23.81-1.86 1.26l-1.86 1.26v.24l-.54-.78zm8.31 8.64h-8l-3.72 3.24v4.32l3.72 3.24h8l3.69-3.24v-4.32zM408.38 388.89h-.78v-18.42h.78v3.84l3.63-4.74h9.48l4.44 5.76v13.56h-.81V375.6l-4-5.25h-8.7l-4 5.25zM429 370.08h8.37v-12.69h.78v12.69h8.37v.78h-8.37v18h-.78v-18H429zM467.79 372.84c-.39-.27-1.2-.81-1.74-1.14l-2-1.35h-8.7l-4 2.67v3.57l2.13 1.35c.72.48 2.13 1.35 2.13 1.35h8.7l4.59 3v4.44l-4.59 3h-9.21l-4.56-3v-.24h1.05l3.75 2.49H464l4-2.67v-3.6l-4-2.67h-8.7l-4.8-3v-4.44l4.56-3h9.18l4.59 3v.24zM488.46 389l4.54-5.6v-.18l.72.57-4.86 6h-10.57l-5-6.09v-8l5-6.09h10.56l4.86 6-.72.57v-.21l-4.53-5.58h-9.81l-4.53 5.58v7.47l4.53 5.61zM499 388.89h-.78v-31.5h.78v16.92l3.63-4.74h9.48l4.44 5.76v13.56h-.81V375.6l-4-5.25H503l-4 5.25zM522.36 386.28v5.4h-.78v-5.4zM54.71 429.89L45 417.83h-9.6v12.06h-.78V405h14.6l6.36 3.72v5.4l-6.36 3.72H45.8l9.78 12.06zm-19.32-12.84H49l5.79-3.39v-4.5L49 405.77H35.39zM79.69 416.66v8l-4.92 6.09H64.21l-4.95-6.09v-8l4.95-6.09h10.56zm-15.12-5.31L60 416.93v7.47l4.57 5.6h9.81l4.53-5.61v-7.47l-4.53-5.58zM85.27 429.89h-.78v-18.42h.78v3.75l3.27-4.65h8.76l3.66 5.22 3.63-5.22h8.76l4 5.79v13.53h-.78V416.6l-3.57-5.25h-8l-3.66 5.25v13.29h-.78V416.6l-3.69-5.25h-7.94l-3.66 5.25zM126.17 410.57h8.61l4.17 2.94v16.38h-.78v-2.07l-3.39 3h-8.61l-4.2-3.66v-5l4.2-3.66h8.61l3.39 3v-7.53l-3.69-2.52h-8s-1.23.81-1.86 1.26l-1.86 1.26v.24l-.54-.78zm8.31 8.64h-8l-3.72 3.24v4.32l3.72 3.24h8l3.69-3.24v-4.32zM144.77 429.89H144v-18.42h.78v3.84l3.63-4.74h9.48l4.44 5.76v13.56h-.81V416.6l-4-5.25h-8.7l-4 5.25zM168.56 399.32s-.3.33-.45.48l-.48.48-.48-.48c-.15-.15-.45-.48-.45-.48l.93-.93zm-1.32 12.15h.76v18.42h-.78zM176.61 410.57h8.61l4.17 2.94v16.38h-.78v-2.07l-3.39 3h-8.61l-4.2-3.66v-5l4.2-3.66h8.61l3.39 3v-7.53l-3.69-2.52h-8s-1.23.81-1.86 1.26l-1.86 1.26v.24l-.54-.78zm8.31 8.64h-8l-3.72 3.24v4.32l3.72 3.24h8l3.69-3.24v-4.32zM195.21 429.89h-.78v-18.42h.78v3.84l3.63-4.74h9.48l4.44 5.76v13.56h-.81V416.6l-4-5.25h-8.7l-4 5.25zM218.54 427.28v5.4h-.78v-5.4zM270 408.14l-5.49-4h-11.29l.27.78-5 3.66v4.86l5.25 3.66h10.77l5.49 4v5.64l-5.49 4.05h-11.29l-5.49-4.05v-.15h1.11l4.65 3.42h10.77l5-3.66v-4.86l-5-3.66h-10.77l-5.76-4v-5.64l5.49-4 .27.78h10.77l4.65 3.42H270zM274.53 398.39h.78v31.5h-.78zM300.45 416.66v8l-4.92 6.09H285l-5-6.05v-8l4.95-6.09h10.56zm-15.12-5.31l-4.53 5.58v7.47l4.53 5.61h9.81l4.53-5.61v-7.47l-4.53-5.58zM304.64 411.47l8.7 17.76 8.7-17.76h.84l-9 18.42h-1.08l-9-18.42zM331.08 410.57h8.61l4.17 2.94v16.38h-.78v-2.07l-3.39 3h-8.61l-4.2-3.66v-5l4.2-3.66h8.61l3.39 3v-7.53l-3.69-2.52h-8s-1.23.81-1.86 1.26l-1.86 1.26v.24l-.54-.78zm8.31 8.64h-8l-3.72 3.24v4.32l3.72 3.24h8l3.69-3.24v-4.32zM368.55 411.47l-8.43 4.35 8.43 14.07h-.78l-8.28-13.77-9.81 5.07v8.7h-.78v-31.5h.78v21.93l9.51-4.92.51-.27 7.14-3.66zM373.82 427.28v5.4H373v-5.4zM425.3 408.14l-5.49-4H408.5l.27.78-5 3.66v4.86l5.25 3.66h10.77l5.49 4.05v5.64l-5.49 4.05H408.5l-5.5-4.1v-.15h1.11l4.65 3.42h10.77l5-3.66v-4.86l-5-3.66h-10.76l-5.76-4v-5.64l5.49-4 .27.78h10.77l4.65 3.42h1.11zM429.81 398.39h.78v31.5h-.78zM455.74 416.66v8l-4.92 6.09h-10.56l-5-6.09v-8l5-6.09h10.56zm-15.12-5.31l-4.53 5.58v7.47l4.53 5.61h9.81l4.57-5.61v-7.47l-4.53-5.58zM459.92 411.47l8.7 17.76 8.7-17.76h.84l-9 18.42h-1.08l-9-18.42zM501.88 421.07h-19.65v3.33l4.53 5.61h9.81l4.53-5.61v-.27l.75.6-4.85 6.06h-10.6l-5-6.09v-8l5-6.09H497l4.92 6.09zm-.78-4.14l-4.53-5.58h-9.81l-4.53 5.58v3.36h18.87zM507.33 429.89h-.78v-18.42h.78v3.84l3.63-4.74h9.48l4.44 5.76v13.56h-.81V416.6l-4-5.25h-8.7l-4 5.25zM531.11 399.32s-.3.33-.45.48l-.48.48-.48-.48c-.15-.15-.45-.48-.45-.48l.93-.93zm-1.32 12.15h.78v18.42h-.78zM539.16 410.57h8.61l4.17 2.94v16.38h-.78v-2.07l-3.39 3h-8.61l-4.2-3.66v-5l4.2-3.66h8.61l3.39 3v-7.53l-3.69-2.52h-8s-1.23.81-1.86 1.26l-1.86 1.26v.24l-.54-.78zm8.31 8.64h-8l-3.72 3.24v4.32l3.72 3.24h8l3.69-3.24v-4.32zM557.76 429.89H557v-18.42h.78v3.84l3.63-4.74h9.48l4.44 5.76v13.56h-.81V416.6l-4-5.25h-8.7l-4 5.25zM581.09 427.28v5.4h-.78v-5.4zM56.9 449.14l-5.49-4H40.1l.27.78-5 3.66v4.86l5.25 3.66h10.79l5.49 4.05v5.64l-5.49 4.05H40.1l-5.49-4.05v-.15h1.11l4.65 3.36h10.77l5-3.66v-4.86l-5-3.66H40.37l-5.76-4v-5.64l5.49-4 .27.78h10.77l4.65 3.42h1.11zM66.36 451.57h10.56l4.92 6.09v8l-4.92 6.09H66.36l-4.17-5.13v13.53h-.78v-27.68h.78v4.23zm.36 19.43h9.81l4.53-5.61v-7.47l-4.53-5.58h-9.81l-4.53 5.58v7.47zM90.54 451.57h8.61l4.17 2.94v16.38h-.78v-2.07l-3.39 3h-8.61l-4.2-3.66v-5l4.2-3.66h8.61l3.39 3v-7.53l-3.69-2.52h-8s-1.23.81-1.86 1.26l-1.86 1.26v.24l-.54-.78zm8.31 8.64h-8l-3.72 3.24v4.32l3.71 3.23h8l3.69-3.24v-4.32zM109.14 470.89h-.78v-18.42h.78v3.84l3.63-4.74h9.48l4.44 5.76v13.56h-.81V457.6l-4-5.25h-8.7l-4 5.25zM132.92 440.32s-.3.33-.45.48l-.48.48-.48-.48c-.15-.15-.45-.48-.45-.48l.93-.93zm-1.32 12.15h.78v18.42h-.78zM154 454.84c-.39-.27-1.2-.81-1.74-1.14l-2-1.35h-8.7l-4 2.67v3.57l2.13 1.35c.72.48 2.13 1.35 2.13 1.35h8.7l4.59 3v4.44l-4.59 3h-9.18l-4.56-3v-.24h1l3.75 2.49h8.7l4-2.67v-3.6l-4-2.67h-8.7l-4.8-3v-4.44l4.56-3h9.18l4.59 3v.24zM160.36 470.89h-.78v-31.5h.78v16.92l3.63-4.74h9.48l4.44 5.76v13.56h-.81V457.6l-4-5.25h-8.7l-4 5.25zM183.69 468.28v5.4h-.78v-5.4zM235.17 449.14l-5.49-4h-11.31l.27.78-5 3.66v4.86l5.25 3.66h10.77l5.49 4.05v5.64l-5.49 4.05h-11.29l-5.49-4.05v-.15H214l4.65 3.42h10.77l5-3.66v-4.86l-5-3.66h-10.78l-5.76-4v-5.64l5.49-4 .27.78h10.77l4.65 3.42h1.11zM247.52 452.47l3.93 8.13 3.93-8.13h.84l-4.35 9 4.23 8.76 8.58-17.76h.84l-8.88 18.42h-1.08l-4.11-8.52-4.11 8.52h-1.08l-8.88-18.42h.87l8.55 17.76 4.23-8.76-4.35-9zM289.3 462.07h-19.65v3.33l4.53 5.61H284l4.53-5.61v-.27l.75.6-4.89 6.06h-10.57l-4.95-6.09v-8l4.95-6.09h10.56l4.92 6.09zm-.78-4.14l-4.52-5.58h-9.81l-4.53 5.58v3.36h18.87zM313.46 470.89v-4.23l-4.14 5.13h-10.56l-4.95-6.09v-8l4.95-6.09h10.56l4.14 5.13v-17.35h.78v31.5zm-4.53-18.54h-9.81l-4.53 5.58v7.47l4.53 5.61h9.81l4.53-5.61v-7.47zM320.63 440.32s-.3.33-.45.48l-.48.48-.48-.48c-.15-.15-.45-.48-.45-.48l.93-.93zm-1.32 12.15h.78v18.42h-.78zM341.74 454.84c-.39-.27-1.2-.81-1.74-1.14l-2-1.35h-8.7l-4 2.67v3.57l2.13 1.35c.72.48 2.13 1.35 2.13 1.35h8.7l4.59 3v4.44l-4.59 3H329l-4.56-3v-.24h1l3.75 2.49H338l4-2.67v-3.6l-4-2.67h-8.7l-4.8-3v-4.44l4.56-3h9.18l4.59 3v.24zM348.07 470.89h-.78v-31.5h.78v16.92l3.63-4.74h9.48l4.44 5.76v13.56h-.81V457.6l-4-5.25h-8.7l-4 5.25zM399 451.57h8.61l4.17 2.94v16.38H411v-2.07l-3.39 3H399l-4.2-3.66v-5l4.2-3.66h8.61l3.39 3v-7.53l-3.69-2.52h-8s-1.23.81-1.86 1.26l-1.86 1.26v.24l-.54-.78zm8.31 8.64h-8l-3.72 3.24v4.32l3.72 3.24h8l3.69-3.24v-4.32zM417.64 470.89h-.78v-18.42h.78v3.84l3.63-4.74h9.48l4.44 5.76v13.56h-.81V457.6l-4-5.25h-8.7l-4 5.25zM459.47 470.89v-4.23l-4.14 5.13h-10.56l-4.95-6.09v-8l4.95-6.09h10.56l4.14 5.13v-17.35h.78v31.5zm-4.53-18.54h-9.81l-4.53 5.58v7.47l4.53 5.61h9.81l4.53-5.61v-7.47zM489.89 446h22.83v.78h-11v24.12h-.78v-24.13h-11zM532.59 452.47h.81v18.42h-.81v-3.81l-3.59 4.71h-9.48l-4.45-5.79v-13.53h.78v13.29l4 5.25h8.7l4-5.25zM553.31 457.63l-3.39-5.25h-7.32l-3.39 5.25v13.29h-.78v-18.45h.78v3.69l3-4.59h8.16l3.75 5.79v.27zM578.22 452.47l-8.43 4.35 8.43 14.07h-.78l-8.28-13.77-9.81 5.07v8.7h-.78v-31.5h.78v21.93l9.51-4.92.51-.27 7.14-3.66zM584 440.32s-.3.33-.45.48l-.48.48-.48-.48c-.15-.15-.45-.48-.45-.48l.93-.93zm-1.32 12.15h.78v18.42h-.78zM605.14 454.84c-.39-.27-1.2-.81-1.74-1.14l-2-1.35h-8.7l-4 2.67v3.57l2.13 1.35c.72.48 2.13 1.35 2.13 1.35h8.7l4.59 3v4.44l-4.59 3h-9.18l-4.56-3v-.24h1l3.75 2.49h8.7l4-2.67v-3.6l-4-2.67h-8.7l-4.8-3v-4.44l4.56-3h9.18l4.59 3v.24zM611.48 470.89h-.78v-31.5h.78v16.92l3.63-4.74h9.48l4.44 5.76v13.56h-.81V457.6l-4-5.25h-8.7l-4 5.25zM634.37 469l.93.93-.93.93-.93-.93z"/></g></svg>