<svg xmlns="http://www.w3.org/2000/svg" viewBox="0 0 700 150"><path fill="#d7ffff" d="M0 0h700v150H0z" data-name="Ebene 1"/><g data-name="Ebene 3"><path d="M47.46 47.7h7.2l9.12 54h-8.7L53.28 91h-19.8l-5.7 10.74h-8.94zm1 15L37.62 83.16H52zM73 92.58a8 8 0 0 1 .18-1.68A12.78 12.78 0 0 1 79 82.68a21.59 21.59 0 0 1 11.77-3.18 8.54 8.54 0 0 1 6.48 2.64l.48-2.64a5.16 5.16 0 0 0 .06-1c0-3.24-2.94-4.74-6-4.74a9 9 0 0 0-5.28 1.56 7.53 7.53 0 0 0-2.28 2.7l-7.62-2.7a15.46 15.46 0 0 1 4.68-5.58A19.83 19.83 0 0 1 93.17 66c4.08 0 8 1.14 10.56 3.78a10.34 10.34 0 0 1 2.82 7.32 16.23 16.23 0 0 1-.24 2.4l-4 22.2h-8.6l.42-2a12.16 12.16 0 0 1-7.5 2.64C80 102.3 73 99.48 73 92.58zm16.39-5.28c-2.88 0-7.68.9-7.68 4 0 2.58 3.9 3.24 6.36 3.24 2.88 0 7.62-1 7.62-4 0-2.64-3.84-3.24-6.3-3.24zM147.35 71a12 12 0 0 1 4 2.94 12.54 12.54 0 0 1 3 8.52 17.62 17.62 0 0 1-.3 3.06 19.48 19.48 0 0 1-6.9 11.64 21.06 21.06 0 0 1-13.2 4.5h-17.32l9.72-54h17.28a10.61 10.61 0 0 1 8.82 4.14 12.06 12.06 0 0 1 2.16 7.26c0 5.94-2.82 9.76-7.26 11.94zm-1.74 12.9a6.58 6.58 0 0 0-1.5-4.38 7.47 7.47 0 0 0-5.82-2.34h-8.64l-3 16.68h8.64a10.17 10.17 0 0 0 10.32-9.92zm-3.42-28.4h-8.64L131 69.42h8.64c3.48 0 5.46-4 6-7a12.54 12.54 0 0 0 .24-2c.03-2.58-1.23-4.92-3.69-4.92zM180.83 102.3a8.64 8.64 0 0 1-7.8-5l-.78 4.44h-8.58l10.26-57h8.58L177.77 71c2.52-2.94 6.06-5 9.6-5 4.68 0 8.88 1.74 11.46 5.1a14.48 14.48 0 0 1 2.82 9.12c0 11.78-9.06 22.08-20.82 22.08zm5.1-28.5c-6.42 0-10.74 6.48-10.74 12.9 0 4.5 2.7 7.8 7 7.8 6.44 0 10.81-6.5 10.81-12.9 0-4.5-2.75-7.8-7.07-7.8zM221.56 79.38A16.75 16.75 0 0 0 224.2 89a13.46 13.46 0 0 0 11.34 5.52A19.46 19.46 0 0 0 248.8 89a23.44 23.44 0 0 0 4.74-6.42l7.56 2.82a33.84 33.84 0 0 1-7.1 9.16 29.92 29.92 0 0 1-19.86 7.74c-7 0-13.26-2.64-17.1-7.74a22.63 22.63 0 0 1-4.14-13.8c0-17.82 13.44-33.66 31.2-33.66 7 0 13.26 2.64 17.1 7.74a20.76 20.76 0 0 1 3.74 9.16l-8.58 2.82a15.68 15.68 0 0 0-2.4-6.42 13.46 13.46 0 0 0-11.34-5.52c-12.42.02-21.06 12.12-21.06 24.5zM279.7 86.58a9 9 0 0 0 1.38 5 7.21 7.21 0 0 0 6 2.88 10.43 10.43 0 0 0 7-2.88 12.9 12.9 0 0 0 2.92-4.1l7.8 2.28a22.1 22.1 0 0 1-5.52 7.44 20.65 20.65 0 0 1-13.56 5.1c-4.74 0-9.06-1.68-11.76-5.1A14.43 14.43 0 0 1 271 88c0-11.94 9.36-22 21.18-22 4.74 0 9.06 1.68 11.76 5.1a13.71 13.71 0 0 1 2.88 7.44l-8.64 2.28a7.15 7.15 0 0 0-7.38-7c-6.54-.02-11.1 6.28-11.1 12.76zM332.27 101.7h-17.58l9.72-54H342c6.84 0 13 2.58 16.8 7.56a22.38 22.38 0 0 1 4.08 13.56c-.01 17.46-13.21 32.88-30.61 32.88zm21.9-31.56a16.14 16.14 0 0 0-2.58-9.24 13.11 13.11 0 0 0-11-5.4h-8.94l-6.9 38.4h8.94c12.02 0 20.48-11.7 20.48-23.76zM391.66 66a8.64 8.64 0 0 1 7.8 5l4.74-26.3h8.58l-10.26 57h-8.58l.78-4.44c-2.52 2.94-6 5-9.54 5-4.68 0-8.94-1.74-11.52-5.1a14.47 14.47 0 0 1-2.82-9.12c0-11.78 9.06-22.04 20.82-22.04zm-1.38 7.8c-6.42 0-10.74 6.48-10.74 12.9 0 4.5 2.7 7.8 7 7.8 6.46 0 10.76-6.5 10.76-12.9 0-4.5-2.7-7.8-7.02-7.8zM427.1 47.7h30.24L456 55.5h-21.7l-2.76 15.3h17.4l-1.44 7.8h-17.34l-2.76 15.3h21.66l-1.44 7.8h-30.23zM475.63 94.5a11.2 11.2 0 0 0 7-2.34 12 12 0 0 0 1.92-2l6.36 4.5a17 17 0 0 1-3.12 3.12 21.88 21.88 0 0 1-13.5 4.5c-4.74 0-9.12-1.68-11.82-5.1a14.43 14.43 0 0 1-2.98-9.18c0-11.94 9.42-22 21.24-22 4.74 0 9.12 1.68 11.82 5.1a14.43 14.43 0 0 1 2.94 9.24 20.82 20.82 0 0 1-.36 3.84l-.66 3.9h-26.16a7.07 7.07 0 0 0 7.32 6.42zm3.72-20.7a10.47 10.47 0 0 0-7.08 2.88 12.5 12.5 0 0 0-2.58 3.54h17a7.07 7.07 0 0 0-7.34-6.42zM514.08 47.7h30.24l-1.38 7.8h-21.66l-2.76 15.3h17.4l-1.44 7.8h-17.34l-4.2 23.1h-8.58zM566.36 51.9c-1.8 0-2.76 2.16-3.06 3.66l-2 11h5.22l-1.38 7.8h-5.28L555 101.7h-8.58l4.92-27.3H546l1.44-7.8h5.28l2-11a14.16 14.16 0 0 1 4.56-8.22 12.94 12.94 0 0 1 8.52-3.24c3.78 0 7 1.8 8.34 4.86l-8 4.5a1.92 1.92 0 0 0-1.78-1.6zM583.35 79.38A16.76 16.76 0 0 0 586 89a13.45 13.45 0 0 0 11.34 5.52 21 21 0 0 0 13.08-4.44 19 19 0 0 0 6.84-11.46h-17.1l1.44-7.8h25.62l-5.52 30.9h-8.58l1.68-9.24a24.69 24.69 0 0 1-2.94 3.24 23.55 23.55 0 0 1-16 6.6c-7 0-13.26-2.64-17.1-7.74a22.63 22.63 0 0 1-4.14-13.8c0-17.82 13.44-33.66 31.2-33.66 7 0 13.26 2.64 17.1 7.74a19.28 19.28 0 0 1 2.76 5.28l-8.22 4a13.69 13.69 0 0 0-1.74-3.66 13.46 13.46 0 0 0-11.34-5.52C592 54.9 583.35 67 583.35 79.38zM657.43 66a8.6 8.6 0 0 1 7.8 4.92l.77-4.32h8.58l-6.24 34.74A24.61 24.61 0 0 1 661 115a19.85 19.85 0 0 1-13.32 5.28c-4.68 0-8.94-1.8-11.46-5.28a14.62 14.62 0 0 1-2.58-6.48l8.58-2.64c.48 3.72 2.94 6.6 6.84 6.6a9.68 9.68 0 0 0 6.78-3.12 15.8 15.8 0 0 0 3.9-8l.78-4.56c-2.52 2.94-6 4.92-9.54 4.92-4.62 0-8.82-1.62-11.46-5a14.52 14.52 0 0 1-2.88-9.12c.03-11.7 9.15-21.6 20.79-21.6zM656 73.8c-6.3 0-10.68 6.12-10.68 12.42a8.35 8.35 0 0 0 1.32 4.86 6.87 6.87 0 0 0 5.76 2.82c6.3 0 10.68-6.12 10.68-12.42.05-4.48-2.77-7.68-7.08-7.68z"/></g></svg>