<svg xmlns="http://www.w3.org/2000/svg" viewBox="0 0 700 150"><path fill="#d7ffff" d="M0 0h700v150H0z" data-name="Ebene 1"/><g data-name="Ebene 3"><path d="M40.34 47.7h6l19.44 54h-6.3l-5.16-14.34h-22.5l-5.16 14.34h-5.82zM43 56.22L33.8 82h18.54zM98.6 83.52v-3.66a8 8 0 0 0-2.6-6.12 10.41 10.41 0 0 0-7-2.34 10.26 10.26 0 0 0-6.9 2.34 8.3 8.3 0 0 0-1.92 2.64l-5.34-2.64a12.35 12.35 0 0 1 3-3.84 18 18 0 0 1 22.38 0 13.3 13.3 0 0 1 4.32 10v21.8H98.6v-3.06a13.41 13.41 0 0 1-9.6 3.66 18.75 18.75 0 0 1-11.16-3.12 9.68 9.68 0 0 1 0-16.2A18.75 18.75 0 0 1 89 79.86a13.42 13.42 0 0 1 9.6 3.66zM89 85.26c-4.08 0-9.6 1.56-9.6 5.82s5.52 5.82 9.6 5.82 9.6-1.56 9.6-5.82-5.52-5.82-9.6-5.82zM118.89 47.7h17.28a14.74 14.74 0 0 1 10.44 4 14.18 14.18 0 0 1 4.08 10.2 10.78 10.78 0 0 1-4.08 8.46 12.29 12.29 0 0 1-2.82 1.74 16.1 16.1 0 0 1 4.74 2.9 15.31 15.31 0 0 1 0 22.38 18 18 0 0 1-12.36 4.32h-17.28zm5.94 22.92h11.34a8.61 8.61 0 0 0 6.18-2.4 9.14 9.14 0 0 0 2.4-6.36 9 9 0 0 0-2.4-6.3 8.66 8.66 0 0 0-6.18-2.46h-11.34zm0 25.68h11.34a11.93 11.93 0 0 0 8.1-2.82 9.94 9.94 0 0 0 3.18-7.32 9.81 9.81 0 0 0-3.18-7.26 12 12 0 0 0-8.1-2.88h-11.34zM171.79 95.76v5.94h-5.94v-57h5.94v27.84A13.51 13.51 0 0 1 183.07 66a17 17 0 0 1 12.42 5.1 19.95 19.95 0 0 1 0 26.1 17 17 0 0 1-12.42 5.1 13.51 13.51 0 0 1-11.28-6.54zM175 75a13.7 13.7 0 0 0-3.18 9.18A13.55 13.55 0 0 0 175 93.3a10.65 10.65 0 0 0 8.1 3.6 10.77 10.77 0 0 0 8.16-3.6 13.55 13.55 0 0 0 3.18-9.12 13.7 13.7 0 0 0-3.21-9.18 10.77 10.77 0 0 0-8.16-3.6A10.64 10.64 0 0 0 175 75zM254.69 94.56a25.93 25.93 0 0 1-37 0c-5-5.34-7.2-12.54-7.2-19.86s2.22-14.52 7.2-19.86a25.26 25.26 0 0 1 41.94 7.86l-5.52 2.22a21 21 0 0 0-3.72-6.18 19.32 19.32 0 0 0-28.44 0c-3.9 4.38-5.52 10.14-5.52 16s1.62 11.58 5.52 16a19.32 19.32 0 0 0 28.44 0 21 21 0 0 0 3.72-6.18l5.52 2.22a25.29 25.29 0 0 1-4.94 7.78zM300.57 97.2a18.34 18.34 0 0 1-25.38 0 18.46 18.46 0 0 1-4.92-13 18.61 18.61 0 0 1 4.92-13.08 17.47 17.47 0 0 1 29.16 6.18l-5.58 2a12.33 12.33 0 0 0-2.52-4.3 11.38 11.38 0 0 0-8.4-3.6 11.25 11.25 0 0 0-8.34 3.6 13.4 13.4 0 0 0-3.3 9.18 13.25 13.25 0 0 0 3.3 9.12 11.25 11.25 0 0 0 8.34 3.6 11.39 11.39 0 0 0 8.4-3.6 12.34 12.34 0 0 0 2.52-4.3l5.58 2a17.37 17.37 0 0 1-3.78 6.2zM316.44 47.7h16.8A25.81 25.81 0 0 1 352 55.26c5 5.16 7.26 12.24 7.26 19.44S356.94 89 352 94.14a25.81 25.81 0 0 1-18.72 7.56h-16.8zm16.8 48.6a19.53 19.53 0 0 0 14.46-6.06c3.9-4.2 5.58-9.84 5.58-15.54s-1.68-11.34-5.58-15.54a19.53 19.53 0 0 0-14.46-6.06h-10.86v43.2zM398.24 72.54V44.7h5.94v57h-5.94v-5.94a13.61 13.61 0 0 1-11.34 6.54 16.89 16.89 0 0 1-12.36-5.1 19.95 19.95 0 0 1 0-26.1A16.89 16.89 0 0 1 386.9 66a13.61 13.61 0 0 1 11.34 6.54zM378.8 75a13.7 13.7 0 0 0-3.18 9.18 13.55 13.55 0 0 0 3.18 9.12 10.65 10.65 0 0 0 8.1 3.6 10.77 10.77 0 0 0 8.16-3.6 13.55 13.55 0 0 0 3.18-9.12 13.7 13.7 0 0 0-3.18-9.18 10.77 10.77 0 0 0-8.16-3.6 10.65 10.65 0 0 0-8.1 3.6zM418.81 47.7H449v5.4h-24.3V72h21.36v5.4h-21.31v18.9H449v5.4h-30.19zM487.77 97.92a19.09 19.09 0 0 1-12.72 4.38 17.43 17.43 0 0 1-12.66-5.1 19.59 19.59 0 0 1 0-26.1 18.34 18.34 0 0 1 25.38 0 18.66 18.66 0 0 1 5 13.08v2.64h-29.18a12.53 12.53 0 0 0 3.06 6.48 11.38 11.38 0 0 0 8.4 3.6 12.71 12.71 0 0 0 8.46-2.9 10.8 10.8 0 0 0 2-2.4l5 3.06a14.16 14.16 0 0 1-2.74 3.26zM483.51 75a11.52 11.52 0 0 0-8.46-3.6 11.38 11.38 0 0 0-8.4 3.6 12.53 12.53 0 0 0-3.06 6.48h23a12.53 12.53 0 0 0-3.08-6.48zM505.05 47.7h30.24v5.4H511V72h21.36v5.4H511v24.3h-5.94zM555.37 53.76V66.6h6.72V72h-6.72v29.7h-5.94V72h-6.66v-5.4h6.66V53.76a10.11 10.11 0 0 1 2.58-7 9 9 0 0 1 6.6-2.7 9.23 9.23 0 0 1 5.82 2l-3.66 4.44a2.76 2.76 0 0 0-2.16-1c-2.1 0-3.24 2.22-3.24 4.26zM617.8 101.7V91.26a21.09 21.09 0 0 1-3.42 4.56 22.49 22.49 0 0 1-16.32 6.48 25.1 25.1 0 0 1-18.48-7.74c-5-5.34-7.2-12.54-7.2-19.86s2.22-14.52 7.2-19.86a25.26 25.26 0 0 1 40.74 5.28l-5.22 2.76a19.39 19.39 0 0 0-2.82-4.14 19.32 19.32 0 0 0-28.44 0c-3.9 4.38-5.52 10.14-5.52 16s1.62 11.58 5.52 16a19.08 19.08 0 0 0 14.22 6.24 20.93 20.93 0 0 0 14.22-5 17.11 17.11 0 0 0 5.52-12.78v-1.8h-19.74V72h25.68v29.7zM664.47 72.42V66.6h5.94v37.14a16.49 16.49 0 0 1-4.86 11.94 18.92 18.92 0 0 1-24.78 0 15 15 0 0 1-3.3-4.74l5.34-2.4a10.78 10.78 0 0 0 2.22 3.24 11.53 11.53 0 0 0 8.1 3.12 11.67 11.67 0 0 0 8.16-3.12 11.34 11.34 0 0 0 3.18-8v-8.5a13.71 13.71 0 0 1-11.34 6.42 17 17 0 0 1-12.36-5 19.47 19.47 0 0 1 0-25.74 17 17 0 0 1 12.36-5 13.72 13.72 0 0 1 11.34 6.46zM645 74.88a13 13 0 0 0-3.18 8.94 13.14 13.14 0 0 0 3.18 9 10.84 10.84 0 0 0 8.1 3.48 11 11 0 0 0 8.16-3.48 13.14 13.14 0 0 0 3.18-9 13 13 0 0 0-3.18-8.94 11 11 0 0 0-8.16-3.48 10.84 10.84 0 0 0-8.1 3.48z"/></g></svg>