<svg data-name="Ebene 1" xmlns="http://www.w3.org/2000/svg" viewBox="0 0 700 150"><path fill="#d7ffff" d="M0 0h700v150H0z"/><path d="M41.12 41.7h6l20.28 60h-8.58l-6.24-18.42H29.66l-6.24 18.42h-2.58zm0 7.68l-10.68 31.5H51.8zM98.76 85.32V77.1c0-2.28-2.82-3.18-3.78-5.16a5.84 5.84 0 0 1-.42-2.58v-1.68c0-1.74-.24-3.18-2.16-3.18h-3.18c-2 0-2.16 1.5-2.16 3.24v1.32l-2.34-.78c1-2.82 1.26-6.18 4.5-6.18h3.18c4.38 0 3.36 6.24 5.94 8.88s8.58 1.86 8.58 6.12v24.6h-8.16v-7.62c-3.54 1.5-2.16 8.22-6.36 8.22h-3.18c-3.78 0-3.48-5.28-5.94-7.44s-8.58-1-8.58-5.16 6-2.88 8.58-5.16 2.16-7.44 5.94-7.44h3.18c4.2 0 2.82 6.72 6.36 8.22zm-9.54-5.82c-2.88 0-1.38 4.08-2.58 6-1 1.62-3.78 2.1-3.78 4.2s2.76 2.58 3.78 4.2c1.2 1.92-.3 6 2.58 6h3.18c2.88 0 1.38-4.08 2.58-6 1-1.62 3.78-2.1 3.78-4.2S96 87.12 95 85.5c-1.2-1.92.3-6-2.58-6zM123.5 41.7h19.74c4.32 0 3.42 6.18 6 8.76s8.7 1.74 8.7 6.06-6.12 3.54-8.7 6.12c-1.86 1.86-1.92 5.52-3.36 7.5 1.86 2 1.8 6.36 3.9 8.52 2.76 2.82 9.36 2 9.36 6.66s-6.6 3.9-9.36 6.72-1.8 9.66-6.54 9.66H123.5zm8.1 27.3h11.64c3.54 0 1.44-4.92 2.7-7.32 1-1.92 3.84-2.82 3.84-5.16s-2.82-3.18-3.84-5.1c-1.26-2.4.84-7.32-2.7-7.32H131.6zm0 30.3h11.64c4 0 1.68-5.52 3.18-8.22 1.2-2.22 4.56-3.06 4.56-5.76s-3.36-3.48-4.56-5.7c-1.5-2.7.78-8.22-3.18-8.22H131.6zM172.46 44.7h8.1v31.08a7.87 7.87 0 0 0 1.92-1.8c2.64-3.72.06-11.88 5.82-11.88h3.9c5.76 0 3.66 8.22 6.54 11.88 2.64 3.36 9.36 3.36 9.36 8.22s-6.72 4.86-9.36 8.22c-2.88 3.66-.78 11.88-6.54 11.88h-3.9c-5.76 0-3.18-8.16-5.82-11.88a7.87 7.87 0 0 0-1.92-1.8v13.08h-8.1zm15.84 19.8c-2.4 0-2.88 1.56-2.88 3.6 0 1.32.18 2.76.18 4.14a6.4 6.4 0 0 1-.42 2.7c-1.2 2.7-4.62 4.2-4.62 7.26s3.42 4.56 4.62 7.26a6.4 6.4 0 0 1 .42 2.7c0 1.38-.18 2.82-.18 4.14 0 2 .48 3.6 2.88 3.6h3.9c2.46 0 2.88-1.62 2.88-3.66 0-1.26-.12-2.7-.12-4a6.69 6.69 0 0 1 .42-2.76c1.2-2.7 4.56-4.2 4.56-7.26s-3.36-4.56-4.56-7.26a6.69 6.69 0 0 1-.42-2.76c0-1.32.12-2.76.12-4 0-2-.42-3.66-2.88-3.66zM251.07 53.52v-2.16c0-4.14-.36-7.86-5-7.86h-7.38c-4.62 0-5 3.72-5 7.86v2.16c0 2.4-.06 4.8-1 6.6-2.28 4.38-8.7 6.36-8.7 11.58s6.42 7.2 8.7 11.58c1 1.8 1 4.2 1 6.6V92c0 4.14.36 7.86 5 7.86h7.38c4.62 0 5-3.72 5-7.86v-2.12c0-2.82.18-5.7 1.5-7.44l2.76 1.92c-4.08 5.7-.54 17.94-9.24 17.94h-7.38c-8.76 0-5.16-12.42-9.36-18.06-3.78-5.1-13.5-5.46-13.5-12.54s9.72-7.44 13.5-12.54c4.2-5.64.6-18.06 9.36-18.06h7.38c8.7 0 5.16 12.24 9.24 17.94L252.57 61c-1.32-1.78-1.5-4.66-1.5-7.48zM293 71.88c0-1.14.06-2.34.06-3.42 0-2.22-.42-4-2.94-4h-4c-2.52 0-2.94 1.68-2.94 3.84 0 1.14.12 2.4.12 3.6a7.88 7.88 0 0 1-.48 3c-1.26 2.7-4.8 4.14-4.8 7.26s3.54 4.56 4.8 7.26a7.88 7.88 0 0 1 .48 3c0 1.2-.12 2.46-.12 3.6 0 2.16.42 3.84 2.94 3.84h4c2.52 0 2.94-1.74 2.94-4 0-1.08-.06-2.28-.06-3.42a6.57 6.57 0 0 1 1.56-4.68l2.44 2.42c-3.3 3.54-1 12.12-6.9 12.12h-4c-5.76 0-3.72-8.22-6.66-11.88-2.76-3.36-9.6-3.3-9.6-8.22s6.84-4.86 9.6-8.22c2.94-3.66.9-11.88 6.66-11.88h4c5.88 0 3.6 8.58 6.9 12.12l-2.46 2.34a6.57 6.57 0 0 1-1.54-4.68zM316 41.7h21.6c8.58 0 5.1 12.18 9.3 17.7 3.78 5 13.44 5.28 13.44 12.3S350.68 79 346.9 84c-4.2 5.52-.72 17.7-9.3 17.7H316zm21.6 57.6c7.86 0 3.18-10.86 6-16.26 2.28-4.32 8.58-6.18 8.58-11.34s-6.3-7-8.58-11.34c-2.82-5.4 1.86-16.26-6-16.26h-13.5v55.2zM395.66 101.7V88.62a6.88 6.88 0 0 0-1.92 1.8c-2.64 3.72-.06 11.88-5.82 11.88H384c-5.76 0-3.6-8.22-6.48-11.88-2.64-3.36-9.42-3.36-9.42-8.22s6.78-4.86 9.42-8.22c2.88-3.66.72-11.88 6.48-11.88h3.9c5.76 0 3.18 8.16 5.82 11.88a6.88 6.88 0 0 0 1.92 1.8V44.7h8.16v57zM384 64.5c-2.46 0-2.88 1.62-2.88 3.66 0 1.26.12 2.7.12 4a6.68 6.68 0 0 1-.42 2.76c-1.2 2.7-4.56 4.2-4.56 7.26s3.36 4.56 4.56 7.26a6.68 6.68 0 0 1 .42 2.76c0 1.32-.12 2.76-.12 4 0 2 .42 3.66 2.88 3.66h3.9c2.46 0 2.88-1.62 2.88-3.66 0-1.26-.12-2.7-.12-4a6.68 6.68 0 0 1 .42-2.76c1.2-2.7 4.56-4.2 4.56-7.26s-3.36-4.56-4.56-7.26a6.68 6.68 0 0 1-.42-2.76c0-1.32.12-2.76.12-4 0-2-.42-3.66-2.88-3.66zM421.05 41.7h31.32v2.4h-23.22v26.4h19.14v2.4h-19.14v26.4h23.22v2.4h-31.32zM467.67 90.42c-2.76-3.36-9.6-3.3-9.6-8.22s6.84-4.86 9.6-8.22c2.94-3.66.9-11.88 6.66-11.88h4c5.76 0 3.72 8.22 6.66 11.88 2.76 3.36 9.6 3.3 9.6 8.22v1.2h-28.2c.72 2.34 3.54 3.72 4.62 6.06a7.87 7.87 0 0 1 .48 3c0 1.2-.12 2.46-.12 3.6 0 2.16.42 3.84 2.94 3.84h4c2.58 0 3-1.74 3-4 0-1.08-.12-2.28-.12-3.42a16 16 0 0 1 .12-1.74l2.82 1.2c-1.68 4-.72 10.32-5.82 10.32h-4c-5.74.04-3.7-8.18-6.64-11.84zm14-15.48a7.15 7.15 0 0 1-.48-3.06c0-1.14.06-2.34.06-3.42 0-2.22-.42-4-2.94-4h-4c-2.52 0-2.94 1.68-2.94 3.84 0 1.14.12 2.4.12 3.6a7.87 7.87 0 0 1-.48 3c-1.08 2.34-3.9 3.72-4.62 6.06h19.86c-.7-2.3-3.46-3.68-4.54-6.02zM507.35 41.7h31.32v2.4h-23.22v26.4h19.14v2.4h-19.14v28.8h-8.1zM543.46 62.7h4.26V53c0-2.58 3.6-2.1 5.1-3.66s1-5.22 3.6-5.22h.24c2.4 0 2.1 3.06 3.24 4.8l-2.94 2c0-.24-.06-.42-.06-.66 0-.9.66-2.22.66-3 0-.42-.24-.72-.9-.72h-.24c-.66 0-.9.3-.9.72 0 .78.66 2.1.66 3s-.3 1.8-.3 2.76v9.68h4.2v2.4h-4.2v36.6h-8.16V65.1h-4.26zM614.67 101.7V80.22a15.67 15.67 0 0 0-5.34 4c-4.2 5.64-.6 18.06-9.36 18.06h-7.37c-8.76 0-5.16-12.42-9.36-18.06-3.78-5.1-13.5-5.46-13.5-12.54s9.72-7.44 13.5-12.54c4.2-5.64.6-18.06 9.36-18.06h7.4c8.28 0 5.52 11.1 8.76 17.1l-2.94 1.56a15.73 15.73 0 0 1-.9-6.24v-2.2c0-4.14-.3-7.8-4.92-7.8h-7.4c-4.62 0-5 3.72-5 7.86v2.16c0 2.4-.06 4.8-1 6.6-2.28 4.38-8.7 6.36-8.7 11.58s6.42 7.2 8.7 11.58c1 1.8 1 4.2 1 6.6V92c0 4.14.36 7.86 5 7.86h7.4c4.62 0 5-3.72 5-7.86v-2.12c0-2.4.06-4.8 1-6.6 2.1-4 7.68-6 8.58-10.38h-18.26v-2.4h26.52v31.2zM671.12 107.94c0 4.62-6.6 3.6-9.42 6.3s-2 9.06-6.48 9.06h-3.9c-4.5 0-3.72-6.36-6.48-9.06-2-1.92-5.88-2-8-3.48l6.72-9.3v6.48c0 2.58 3.3 3.3 4.56 5.34 1.5 2.46-.54 7.62 3.18 7.62h3.9c3.72 0 1.68-5.16 3.18-7.62 1.26-2 4.56-2.76 4.56-5.34V88.26A6.66 6.66 0 0 0 661 90c-2.64 3.66-.18 11.7-5.82 11.7h-3.9c-5.7 0-3.6-8.1-6.48-11.7-2.7-3.36-9.42-3.24-9.42-8.1s6.72-4.74 9.42-8.1c2.88-3.6.78-11.7 6.48-11.7h3.9c5.64 0 3.18 8 5.82 11.7a6.65 6.65 0 0 0 2 1.74V62.7h8.16zm-19.8-43.44c-2.4 0-2.88 1.62-2.88 3.66 0 1.2.18 2.52.18 3.78a7 7 0 0 1-.48 2.82c-1.2 2.64-4.56 4.14-4.56 7.14s3.36 4.5 4.56 7.14a7 7 0 0 1 .48 2.82c0 1.26-.18 2.58-.18 3.78 0 2 .48 3.66 2.88 3.66h3.9c2.4 0 2.88-1.62 2.88-3.66 0-1.2-.18-2.52-.18-3.78a7 7 0 0 1 .48-2.86c1.2-2.6 4.6-4.1 4.6-7.1s-3.36-4.5-4.56-7.14a7 7 0 0 1-.48-2.82c0-1.26.18-2.58.18-3.78 0-2-.48-3.66-2.88-3.66z"/></svg>