<svg xmlns="http://www.w3.org/2000/svg" viewBox="0 0 700 150"><path fill="#d7ffff" d="M0 0h700v150H0z" data-name="Ebene 1"/><g data-name="Ebene 3"><path d="M39.74 47.7h7.2l18.84 54h-9.06l-3.84-10.86H33l-3.82 10.86h-8.34zM43 62.4L35.72 83h14.46zM82.26 78.06l-8.1-2.7a12.57 12.57 0 0 1 3.72-5.58A16.9 16.9 0 0 1 89 66a17.05 17.05 0 0 1 11.22 3.78 12.7 12.7 0 0 1 4.32 9.72v22.2H96v-2a10.16 10.16 0 0 1-7 2.64 18.68 18.68 0 0 1-11.16-3.18 9.9 9.9 0 0 1 0-16.44A18.68 18.68 0 0 1 89 79.5a10.16 10.16 0 0 1 7 2.64V79.5c0-3.6-3.42-5.7-7-5.7-3.08 0-6 1.56-6.74 4.26zM96 90.9c0-2.82-4.26-3.6-7-3.6a10.88 10.88 0 0 0-5 1 3.19 3.19 0 0 0-2 2.64c0 2.82 4.26 3.6 7 3.6s7-.82 7-3.64zM144.13 71a15.45 15.45 0 0 1 4.44 3 16.3 16.3 0 0 1 0 23.22 17.78 17.78 0 0 1-12.36 4.5h-17.28v-54h17.28a12.89 12.89 0 0 1 9.6 4.14 15.75 15.75 0 0 1 3.72 10.62 10.13 10.13 0 0 1-5.4 8.52zm-7.92-15.5h-8.7v13.92h8.7c3.3 0 4.74-3.78 4.74-7s-1.44-6.92-4.74-6.92zm-8.7 38.4h8.7a8.75 8.75 0 0 0 6.18-2.34 8.55 8.55 0 0 0 0-12 8.75 8.75 0 0 0-6.18-2.34h-8.7zM165.89 44.7h8.58V71a10.65 10.65 0 0 1 8.64-5 17 17 0 0 1 12.42 5.1 19.95 19.95 0 0 1 0 26.1 17 17 0 0 1-12.42 5.1 10.65 10.65 0 0 1-8.64-5v4.44h-8.58zm11 32a11.52 11.52 0 0 0-2.46 7.5 11.35 11.35 0 0 0 2.46 7.44 8 8 0 0 0 6.18 2.88 8.1 8.1 0 0 0 6.24-2.88 11.35 11.35 0 0 0 2.46-7.44 11.52 11.52 0 0 0-2.46-7.5 8.1 8.1 0 0 0-6.24-2.88 8 8 0 0 0-6.14 2.86zM254.73 94.56a25.93 25.93 0 0 1-37 0c-5-5.34-7.2-12.54-7.2-19.86s2.22-14.52 7.2-19.86a25.93 25.93 0 0 1 37 0 26.48 26.48 0 0 1 5.46 9.16l-8.1 2.82a18.7 18.7 0 0 0-3.54-6.42 16.46 16.46 0 0 0-24.6 0c-3.36 3.9-4.8 9.12-4.8 14.28s1.44 10.38 4.8 14.28a16.46 16.46 0 0 0 24.6 0 18.7 18.7 0 0 0 3.54-6.42l8.1 2.82a26.48 26.48 0 0 1-5.46 9.2zM300.89 97.2a18.34 18.34 0 0 1-25.38 0 18.46 18.46 0 0 1-4.92-13 18.61 18.61 0 0 1 4.92-13.08 18.34 18.34 0 0 1 25.38 0 17.25 17.25 0 0 1 4.11 7.42l-8.22 2.28a10.84 10.84 0 0 0-2.1-4.14 8.73 8.73 0 0 0-6.54-2.88 8.6 8.6 0 0 0-6.48 2.88 11.25 11.25 0 0 0-2.52 7.5 11.09 11.09 0 0 0 2.52 7.44 8.59 8.59 0 0 0 6.48 2.88 8.72 8.72 0 0 0 6.54-2.88 10.83 10.83 0 0 0 2.1-4.14l8.22 2.28a17.25 17.25 0 0 1-4.11 7.44zM317 47.7h17.58a24.82 24.82 0 0 1 18.18 7.56c4.86 5.22 7 12.3 7 19.44s-2.16 14.22-7 19.44a24.83 24.83 0 0 1-18.18 7.56H317zm17.58 46.2a15.85 15.85 0 0 0 12-5.4c3.3-3.78 4.62-8.76 4.62-13.8s-1.32-10-4.62-13.8a15.85 15.85 0 0 0-12-5.4h-9v38.4zM396.12 101.7v-4.44a10.75 10.75 0 0 1-8.7 5 16.89 16.89 0 0 1-12.36-5.1 19.95 19.95 0 0 1 0-26.1A16.89 16.89 0 0 1 387.42 66a10.75 10.75 0 0 1 8.7 5V44.7h8.58v57zm-14.88-25a11.52 11.52 0 0 0-2.46 7.5 11.35 11.35 0 0 0 2.46 7.44 8 8 0 0 0 6.18 2.88 8.1 8.1 0 0 0 6.24-2.88 11.35 11.35 0 0 0 2.46-7.44 11.52 11.52 0 0 0-2.46-7.5 8.1 8.1 0 0 0-6.24-2.88 8 8 0 0 0-6.18 2.86zM419.33 47.7h30.24v7.8H427.9v15.3h17.4v7.8h-17.4v15.3h21.66v7.8h-30.23zM484.41 90.18l7.2 4.5A14.27 14.27 0 0 1 489 97.8a18.68 18.68 0 0 1-12.72 4.5 17.43 17.43 0 0 1-12.66-5.1 19.59 19.59 0 0 1 0-26.1 18.34 18.34 0 0 1 25.38 0 18.66 18.66 0 0 1 5 13.08v3.9h-26.15a9.66 9.66 0 0 0 1.92 3.54 8.63 8.63 0 0 0 6.54 2.88 9.21 9.21 0 0 0 8.1-4.32zm-1.56-13.5a8.87 8.87 0 0 0-13.08 0 9.68 9.68 0 0 0-1.92 3.54h17a9.81 9.81 0 0 0-2-3.54zM506.43 47.7h30.24v7.8H515v15.3h17.4v7.8H515v23.1h-8.58zM557.29 55.56v11h5.28v7.8h-5.28v27.3h-8.58V74.4h-5.22v-7.8h5.22v-11a11.82 11.82 0 0 1 3.12-8.22 10.77 10.77 0 0 1 7.92-3.24A11 11 0 0 1 569 49l-7.2 4.5a2.32 2.32 0 0 0-2-1.56c-1.73-.04-2.51 2-2.51 3.62zM615.73 101.7v-9.24a20.12 20.12 0 0 1-2.34 3.24 19.52 19.52 0 0 1-14.76 6.6 25.1 25.1 0 0 1-18.48-7.74c-5-5.34-7.2-12.54-7.2-19.86s2.22-14.52 7.2-19.86a25.26 25.26 0 0 1 40.74 5.28l-7.5 4a18.63 18.63 0 0 0-2.46-3.66 16.46 16.46 0 0 0-24.6 0c-3.36 3.9-4.8 9.12-4.8 14.28S583 85.08 586.33 89a16.2 16.2 0 0 0 12.3 5.52 18 18 0 0 0 12.3-4.44 15.36 15.36 0 0 0 4.8-11.4v-.08h-17.1v-7.8h25.68v30.9zM653.7 112.5a8 8 0 0 0 6.24-3.12 13.15 13.15 0 0 0 2.46-8v-4.6a10.63 10.63 0 0 1-8.7 4.92 17 17 0 0 1-12.36-5 19.47 19.47 0 0 1 0-25.74 17 17 0 0 1 12.36-5 10.63 10.63 0 0 1 8.7 4.92V66.6h8.6v34.74a20.25 20.25 0 0 1-4.88 13.66 17.18 17.18 0 0 1-24.78 0 18.44 18.44 0 0 1-3.72-6.48l8.1-2.64c.96 3.44 4.02 6.62 7.98 6.62zm-6.18-35.88a10.72 10.72 0 0 0-2.46 7.2 10.88 10.88 0 0 0 2.46 7.26 8.12 8.12 0 0 0 6.18 2.82 8.24 8.24 0 0 0 6.24-2.82 10.88 10.88 0 0 0 2.46-7.26 10.72 10.72 0 0 0-2.46-7.2 8.24 8.24 0 0 0-6.24-2.82 8.12 8.12 0 0 0-6.18 2.82z"/></g></svg>