<svg data-name="Ebene 1" xmlns="http://www.w3.org/2000/svg" viewBox="0 0 700 150"><path fill="#d7ffff" d="M0 0h700v150H0z"/><path d="M34.88 47.7h.18l14.34 54h-4L41 85H28.76l-4.44 16.7h-3.78zm0 14.28l-5.16 19.44H40zM73.54 81.12V74.7a5.18 5.18 0 0 0-1.14-3.78 5.18 5.18 0 0 0-3.78-1.14h-2.4a5.19 5.19 0 0 0-3.78 1.14 3.64 3.64 0 0 0-1 2.16l-3.9-.42a7.29 7.29 0 0 1 1.92-4.5c1.74-1.68 4.32-2 6.78-2h2.4c2.46 0 5 .3 6.78 2s2 4.14 2 6.54v27h-3.9v-1.86c-.9 1.68-2.88 2.28-4.92 2.28h-2.4c-2.34 0-4.86-.12-6.78-1.5a5.85 5.85 0 0 1-2-4.92V85.26a5.85 5.85 0 0 1 2-4.92c1.92-1.38 4.44-1.5 6.78-1.5h2.4c2.06 0 4.04.6 4.94 2.28zm-7.32 1.32a7.33 7.33 0 0 0-3.78.66 2.35 2.35 0 0 0-1.14 2.16V95.7a2.35 2.35 0 0 0 1.14 2.16 7.33 7.33 0 0 0 3.78.66h2.4a7.33 7.33 0 0 0 3.78-.66 2.35 2.35 0 0 0 1.14-2.16V85.26a2.35 2.35 0 0 0-1.14-2.16 7.33 7.33 0 0 0-3.78-.66zM110 73.56v19.32c0 2.52-.36 5.1-2.22 6.78s-4.8 2-7.44 2H87.85v-54h12.48c2.1 0 4.38.12 6.06 1.38a5.46 5.46 0 0 1 1.8 4.56v8.8a6 6 0 0 1-1.08 3.84c2.28 1.56 2.89 4.44 2.89 7.32zm-18.25-8.82h8.58a5.93 5.93 0 0 0 3.06-.54 2.07 2.07 0 0 0 .9-1.8v-8.76a2.07 2.07 0 0 0-.9-1.8 5.93 5.93 0 0 0-3.06-.54h-8.58zm0 33.36h8.58a6.41 6.41 0 0 0 4.44-1.2 5.22 5.22 0 0 0 1.32-4V73.56a5.22 5.22 0 0 0-1.32-4 6.41 6.41 0 0 0-4.44-1.2h-8.58zM120 32.7h3.9v36.72a6.74 6.74 0 0 1 .72-1.26c1.14-1.5 3.12-2 5-2h2.82c2.64 0 5.46.24 7.44 2 1.8 1.62 2.22 4.2 2.22 6.66v18.66c0 2.46-.42 5-2.22 6.66-2 1.74-4.8 2-7.44 2h-2.74c-1.92 0-3.9-.48-5-2a6.74 6.74 0 0 1-.72-1.26v2.82H120zm9.66 37.08a6.7 6.7 0 0 0-4.44 1.14 5 5 0 0 0-1.32 3.9v18.66a5 5 0 0 0 1.32 3.9 6.7 6.7 0 0 0 4.44 1.14h2.82a6.7 6.7 0 0 0 4.52-1.14 5 5 0 0 0 1.32-3.9V74.82a5 5 0 0 0-1.32-3.9 6.7 6.7 0 0 0-4.44-1.14zM180.65 65v-5.78c0-2.4-.48-4.92-2.34-6.42-2.1-1.74-5-1.92-7.74-1.92h-5c-2.76 0-5.64.18-7.74 1.92-1.86 1.5-2.34 4-2.34 6.42v31c0 2.4.48 4.92 2.34 6.42 2.1 1.74 5 1.92 7.74 1.92h5c2.76 0 5.64-.18 7.74-1.92 1.86-1.5 2.34-4 2.34-6.42v-5.86h3.84v5.82c0 3.42-.6 7-3.18 9.18-2.88 2.46-6.9 2.76-10.74 2.76h-5c-3.84 0-7.86-.3-10.74-2.76-2.58-2.22-3.24-5.76-3.24-9.18v-31c0-3.42.66-7 3.24-9.18 2.88-2.46 6.9-2.76 10.74-2.76h5c3.84 0 7.86.3 10.74 2.76 2.58 2.22 3.18 5.76 3.18 9.18V65zM195.57 100.14c-1.86-1.62-2.28-4.2-2.28-6.66V74.82c0-2.46.42-5 2.28-6.66 2-1.8 4.92-2 7.62-2h2.94c2.7 0 5.58.18 7.62 2 1.86 1.62 2.22 4.2 2.22 6.66v3.54h-3.84v-3.54a5 5 0 0 0-1.38-3.9c-1.26-1.08-3-1.14-4.62-1.14h-2.94c-1.62 0-3.36.06-4.62 1.14a5 5 0 0 0-1.38 3.9v18.66a5 5 0 0 0 1.38 3.9c1.26 1.08 3 1.14 4.62 1.14h2.94c1.62 0 3.36-.06 4.62-1.14a5 5 0 0 0 1.38-3.9v-3.54H216v3.54c0 2.46-.36 5-2.22 6.66-2 1.8-4.92 2-7.62 2h-2.94c-2.73-.02-5.61-.2-7.65-2zM225.75 47.7h13.38c3.9 0 7.92.24 10.92 2.7 2.58 2.16 3.24 5.7 3.24 9.12v30.36c0 3.42-.66 7-3.24 9.12-3 2.46-7 2.7-10.92 2.7h-13.38zm13.38 50.4c2.82 0 5.76-.12 7.92-1.86 1.86-1.44 2.34-4 2.34-6.36V59.52c0-2.4-.48-4.92-2.34-6.36-2.16-1.74-5.1-1.86-7.92-1.86h-9.48v46.8zM281 101.7v-2.82a6.69 6.69 0 0 1-.72 1.26c-1.14 1.5-3.12 2-5 2h-2.88c-2.64 0-5.46-.24-7.44-2-1.8-1.62-2.22-4.2-2.22-6.66V74.82c0-2.46.42-5 2.22-6.66 2-1.74 4.8-2 7.44-2h2.88c1.92 0 3.9.48 5 2a6.69 6.69 0 0 1 .72 1.26V32.7h3.84v69zm-8.64-31.92a6.7 6.7 0 0 0-4.44 1.14 5 5 0 0 0-1.32 3.9v18.66a5 5 0 0 0 1.32 3.9 6.7 6.7 0 0 0 4.44 1.14h2.88a6.7 6.7 0 0 0 4.44-1.14 5 5 0 0 0 1.32-3.9V74.82a5 5 0 0 0-1.32-3.9 6.7 6.7 0 0 0-4.44-1.14zM295.5 47.7h19.44v3.6H299.4v15.12H313V70h-13.6v28.1h15.54v3.6H295.5zM326.12 100.14c-1.86-1.62-2.28-4.2-2.28-6.66V74.82c0-2.46.42-5 2.28-6.66 2-1.8 4.92-2 7.62-2h2.94c2.7 0 5.58.18 7.62 2 1.86 1.62 2.22 4.2 2.22 6.66V86h-18.78v7.5a5 5 0 0 0 1.38 3.9c1.26 1.08 3 1.14 4.62 1.14h2.94c1.62 0 3.36-.06 4.62-1.14a5 5 0 0 0 1.38-3.9V92h3.84v1.44c0 2.46-.36 5-2.22 6.66-2 1.8-4.92 2-7.62 2h-2.94c-2.74.02-5.58-.16-7.62-1.96zm15.18-29.22c-1.26-1.08-3-1.14-4.62-1.14h-2.94c-1.62 0-3.36.06-4.62 1.14a5 5 0 0 0-1.38 3.9v7.56h14.94v-7.56a5 5 0 0 0-1.38-3.9zM356.27 47.7h19.44v3.6h-15.54v15.12h13.62V70h-13.62v31.7h-3.9zM382.93 66.6h3.84V40.2c0-2.1 0-4.38 1.2-6.12a4.82 4.82 0 0 1 4.14-1.8h.72a4.81 4.81 0 0 1 4.14 1.8c1.2 1.74 1.26 4 1.26 6.12v1.38h-3.9v-1.74c0-1.56-.06-4-1.5-4h-.72c-1.38 0-1.44 2.1-1.44 3.66v27.1h3.78v3.6h-3.78v31.5h-3.9V70.2h-3.84zM432.88 101.7v-1.8c-2.82 2-6.54 2.22-10.08 2.22h-5c-3.84 0-7.86-.3-10.74-2.76-2.58-2.22-3.24-5.76-3.24-9.18v-31c0-3.42.66-7 3.24-9.18 2.88-2.46 6.9-2.76 10.74-2.76h5c3.84 0 7.86.3 10.74 2.76 2.58 2.22 3.18 5.76 3.18 9.18v4.56h-3.84v-4.52c0-2.4-.48-4.92-2.34-6.42-2.1-1.74-5-1.92-7.74-1.92h-5c-2.76 0-5.64.18-7.74 1.92-1.86 1.5-2.34 4-2.34 6.42v31c0 2.4.48 4.92 2.34 6.42 2.1 1.74 5 1.92 7.74 1.92h5c2.76 0 5.64-.18 7.74-1.92 1.86-1.5 2.34-4 2.34-6.42V70h-12.6v-3.6h16.44v35.3zM468.56 124.5c0 2.94-.18 6-2.16 8.16-1.8 2-4.68 2.46-7.44 2.46h-2.88c-2.76 0-5.64-.42-7.44-2.46-2-2.16-2.22-5.22-2.22-8.16V123h3.9v1.5c0 1.92.12 3.9 1.32 5.4a5.54 5.54 0 0 0 4.44 1.62H459a5.54 5.54 0 0 0 4.44-1.62c1.2-1.5 1.32-3.48 1.32-5.4v-26a6.74 6.74 0 0 1-.72 1.26c-1.14 1.5-3.12 2-5 2h-2.88c-2.64 0-5.46-.24-7.44-2-1.8-1.62-2.22-4.14-2.22-6.6v-18.4c0-2.46.42-5 2.22-6.6 2-1.74 4.8-2 7.44-2H459c1.92 0 3.9.48 5 2a6.74 6.74 0 0 1 .72 1.26V66.6h3.84zm-12.48-54.72a6.7 6.7 0 0 0-4.44 1.14 4.81 4.81 0 0 0-1.32 3.84v18.36a4.81 4.81 0 0 0 1.32 3.88 6.7 6.7 0 0 0 4.44 1.14H459a6.7 6.7 0 0 0 4.4-1.14 4.81 4.81 0 0 0 1.32-3.84v-18.4a4.82 4.82 0 0 0-1.32-3.84 6.7 6.7 0 0 0-4.4-1.14zM479 47.7h3.9v18.72h17V47.7h3.9v54H500V70h-17v31.7h-4zM523.4 66.18h2.1c2 0 4.08.24 5.52 1.62s1.62 3.36 1.62 5.34v28.56h-3.84V73.14a3.5 3.5 0 0 0-.78-2.58 3.44 3.44 0 0 0-2.52-.78h-2.1a6.73 6.73 0 0 0-3.78.78 2.94 2.94 0 0 0-1.14 2.58v28.56h-3.9v-69h3.9v35.94c.9-1.74 2.76-2.46 4.92-2.46zM543.21 47.7h3.9v54h-3.9zM561.11 51.48a2.76 2.76 0 0 1 .6 2 2.66 2.66 0 1 1-5.28 0 2.91 2.91 0 0 1 4.68-2zm-4 15.12H561v35.1h-3.84zM589.45 94.08c0 2.28-.36 4.68-2 6.18-1.86 1.68-4.5 1.86-7 1.86h-2.58c-2.52 0-5.16-.18-7-1.86-1.68-1.5-2.1-3.9-2.1-6.18v-4.2h3.9v4.2a4.39 4.39 0 0 0 1.2 3.42 6.14 6.14 0 0 0 4 1h2.58a6.14 6.14 0 0 0 4-1 4.39 4.39 0 0 0 1.2-3.42V47.7h3.84zM599.8 131.52h1.2c2.34 0 2.52-3 2.52-5.22V66.6h3.9v59.7c0 2.4-.12 4.86-1.5 6.78a5.93 5.93 0 0 1-4.92 2h-1.2a5.93 5.93 0 0 1-4.92-2 10 10 0 0 1-1.5-5.76l3.9-.06c.06 1.92.48 4.26 2.52 4.26zm7.74-80a2.75 2.75 0 0 1 .6 2 2.66 2.66 0 1 1-5.28 0 2.91 2.91 0 0 1 4.68-2zM621.84 47.7v20.52c1.86-2.28 3.72-4.5 5.58-6.78v.06l11.46-13.8h4.68l-14.64 17.64 14.16 36.36h-4.2l-12.78-33-4.26 5.16v27.84h-3.9v-54zM655.74 32.7v51.72L667 66.6h4.26l-9.12 14.46 9.12 20.64H667l-7.38-16.62-3.84 6.12v10.5h-3.9v-69z"/></svg>