<svg xmlns="http://www.w3.org/2000/svg" viewBox="0 0 700 150"><path fill="#d7ffff" d="M0 0h700v150H0z" data-name="Ebene 1"/><g data-name="Ebene 3"><path d="M48.06 47.7h6l9.72 54h-6L55.2 87.42H32.82l-7.74 14.28h-6.24zm1.5 8.7L35.7 82h18.48zM92 71.4a12 12 0 0 0-7.32 2.34 11.13 11.13 0 0 0-2.4 2.64l-4.86-2.64a15.85 15.85 0 0 1 3.66-3.84A19.57 19.57 0 0 1 93 66c4.08 0 7.92 1.2 10.5 3.9a10.63 10.63 0 0 1 2.82 7.44 12 12 0 0 1-.24 2.52l-4 21.84h-5.94l.6-3.06a16.19 16.19 0 0 1-10.32 3.66c-4 0-7.8-.78-10.62-3.12a8.24 8.24 0 0 1-3-6.48 7.36 7.36 0 0 1 .12-1.62A12.7 12.7 0 0 1 78.74 83a21.53 21.53 0 0 1 11.76-3.14c3.6 0 7 1.14 8.94 3.66l.66-3.66a6.33 6.33 0 0 0 .12-1.5c0-4.56-3.84-6.96-8.22-6.96zm-2.46 13.86c-4.44 0-10 1.8-10.68 5.82a2.92 2.92 0 0 0-.06.72c0 3.9 4.92 5.1 8.64 5.1 4.44 0 9.9-1.8 10.62-5.82a3 3 0 0 0 .06-.72c0-3.9-4.86-5.1-8.58-5.1zM146.63 72.06a13 13 0 0 1 4.2 2.94 12.18 12.18 0 0 1 3.12 8.34 15.55 15.55 0 0 1-.3 2.82 18.53 18.53 0 0 1-6.84 11.22 21.06 21.06 0 0 1-13.14 4.32h-17.28l9.72-54h17.28c3.9 0 7.44 1.26 9.72 4a11.23 11.23 0 0 1 2.52 7.3c0 6.52-3.9 10.9-9 13.06zm1.26 12.3a7.94 7.94 0 0 0-2-5.46 10.36 10.36 0 0 0-7.66-2.9h-11.28l-3.66 20.3h11.34c6.9 0 13.26-4.92 13.26-11.94zm1.68-24.3a6.62 6.62 0 0 0-7.2-7h-11.28l-3.18 17.52h11.34a10.45 10.45 0 0 0 10.32-10.52zM170.28 95.76l-1.08 5.94h-5.94l10.26-57h5.94l-5 27.84c.42-.48.78-1 1.26-1.44A16 16 0 0 1 187 66c4.68 0 8.88 1.74 11.46 5.1a14.48 14.48 0 0 1 2.82 9.12c0 11.82-9.06 22.08-20.82 22.08a10.81 10.81 0 0 1-10.18-6.54zm25-14.58a10.4 10.4 0 0 0-1.8-6.18 8.87 8.87 0 0 0-7.5-3.6c-8.1 0-13.86 7.62-13.86 15.72a10.4 10.4 0 0 0 1.8 6.18 8.87 8.87 0 0 0 7.5 3.6c8.06 0 13.82-7.68 13.82-15.72zM218.45 79.8a18.61 18.61 0 0 0 3.12 10.86c2.88 4 7.68 6.24 13.08 6.24A22.94 22.94 0 0 0 250 90.66a26.63 26.63 0 0 0 4.86-6.18L260 86.7a33.23 33.23 0 0 1-6.42 7.86 29.92 29.92 0 0 1-19.86 7.74c-7 0-13.26-2.64-17.1-7.74a22.63 22.63 0 0 1-4.14-13.8c0-17.82 13.44-33.66 31.2-33.66 7 0 13.26 2.64 17.1 7.74a20.75 20.75 0 0 1 3.54 7.86l-5.88 2.22a16.22 16.22 0 0 0-2.64-6.18c-2.88-4-7.68-6.24-13.08-6.24-14.14 0-24.27 13.26-24.27 27.3zM290.44 71.4c-8.16 0-14.22 7.44-14.22 15.6a10.44 10.44 0 0 0 1.92 6.3 9.4 9.4 0 0 0 7.74 3.6 13.52 13.52 0 0 0 9-3.6 16 16 0 0 0 3.3-4.26l5.22 2a21.92 21.92 0 0 1-4.92 6.18 20.65 20.65 0 0 1-13.56 5.1c-4.74 0-9.06-1.68-11.76-5.1a14.43 14.43 0 0 1-2.94-9.22c0-11.94 9.36-22 21.18-22 4.74 0 9.06 1.68 11.76 5.1a14.34 14.34 0 0 1 2.7 6.18l-5.94 2a9.18 9.18 0 0 0-9.48-7.88zM330.4 101.7h-16.8l9.72-54h16.8c7 0 13.38 2.52 17.34 7.56A22.2 22.2 0 0 1 361.78 69c0 17.7-13.78 32.7-31.38 32.7zM355.78 70a17.61 17.61 0 0 0-3.3-10.8c-3-4-7.92-6.06-13.38-6.06h-10.8l-7.8 43.2h10.86c13.92-.04 24.42-12.46 24.42-26.34zM400.71 72.54l5-27.84h5.94l-10.26 57h-5.94l1-5.94c-.42.48-.78 1-1.26 1.44a15.85 15.85 0 0 1-11.16 5.1c-4.68 0-8.94-1.74-11.52-5.1a14.47 14.47 0 0 1-2.82-9.12c0-11.82 9.06-22.08 20.82-22.08a10.81 10.81 0 0 1 10.2 6.54zm-1.8 8.64a10.4 10.4 0 0 0-1.8-6.18 8.87 8.87 0 0 0-7.5-3.6c-8.1 0-13.86 7.68-13.86 15.72a10.4 10.4 0 0 0 1.8 6.18 8.87 8.87 0 0 0 7.5 3.6c8.1 0 13.86-7.68 13.86-15.72zM426 47.7h30.24l-1 5.4H431L427.58 72h21.36l-1 5.4h-21.32l-3.42 18.9h24.36l-1 5.4H416.3zM479 66c4.74 0 9.12 1.68 11.82 5.1a14.43 14.43 0 0 1 2.94 9.24 20.82 20.82 0 0 1-.36 3.84l-.48 2.64h-29.13a10.86 10.86 0 0 0 1.92 6.48 9.52 9.52 0 0 0 7.8 3.6 14.71 14.71 0 0 0 8.94-2.9 11.36 11.36 0 0 0 2.4-2.4l4.5 3.06a18.81 18.81 0 0 1-3.3 3.24 22.26 22.26 0 0 1-13.5 4.38c-4.74 0-9.12-1.68-11.82-5.1a14.43 14.43 0 0 1-2.94-9.18c0-12 9.42-22 21.21-22zm6.84 9a9.52 9.52 0 0 0-7.8-3.6A13.66 13.66 0 0 0 469 75a15.73 15.73 0 0 0-4.2 6.48h23a10.87 10.87 0 0 0-1.93-6.48zM512.38 47.7h30.24l-1 5.4h-24.3L513.94 72h21.36l-1 5.4H513l-4.38 24.3h-5.94zM546.29 66.6H553l2.28-12.84a12.25 12.25 0 0 1 3.84-7 10.79 10.79 0 0 1 7.08-2.7 7.84 7.84 0 0 1 5.46 2l-4.44 4.44a2.27 2.27 0 0 0-2-1c-2.22 0-3.66 2.34-4 4.26l-2.27 12.84h6.66l-1 5.4h-6.72l-5.34 29.7h-5.94L552 72h-6.66zM603.9 52.5c-14.1 0-24.24 13.26-24.24 27.3a18.61 18.61 0 0 0 3.12 10.86c2.88 4 7.68 6.24 13.08 6.24a24.58 24.58 0 0 0 15.12-5 21.09 21.09 0 0 0 7.8-12.78l.36-1.74H599.4l1-5.4H626l-5.34 29.7h-5.94l1.86-10.44a25.13 25.13 0 0 1-4.2 4.56 26.78 26.78 0 0 1-17.52 6.48c-7 0-13.26-2.64-17.1-7.74a22.63 22.63 0 0 1-4.14-13.8c0-17.82 13.44-33.66 31.2-33.66 7 0 13.26 2.64 17.1 7.74a19.28 19.28 0 0 1 2.76 5.28l-5.64 2.76C617 56.58 611.1 52.5 603.9 52.5zM666.48 72.42l1.08-5.82h5.94l-6.72 37.14a20.15 20.15 0 0 1-7 11.94 20.84 20.84 0 0 1-13.2 4.62c-4.56 0-8.82-1.44-11.58-4.62a12.79 12.79 0 0 1-2.46-4.74l5.82-2.4c1 4 4.68 6.36 9.18 6.36a13.71 13.71 0 0 0 8.7-3.12 13.55 13.55 0 0 0 4.56-8l1.56-8.46c-.42.48-.78 1-1.26 1.44a16.09 16.09 0 0 1-11.22 5c-4.62 0-8.82-1.62-11.46-5a14.52 14.52 0 0 1-2.88-9.12c0-11.7 9.12-21.6 20.76-21.6a10.86 10.86 0 0 1 10.18 6.38zm-1.8 8.64a10.4 10.4 0 0 0-1.8-6.18 9.09 9.09 0 0 0-7.5-3.48c-7.92 0-13.8 7.26-13.8 15.24a10.4 10.4 0 0 0 1.8 6.18 9.21 9.21 0 0 0 7.56 3.48c7.92 0 13.74-7.3 13.74-15.24z"/></g></svg>