<svg xmlns="http://www.w3.org/2000/svg" viewBox="0 0 700 150"><path fill="#d7ffff" d="M0 0h700v150H0z" data-name="Ebene 1"/><g data-name="Ebene 3"><path d="M48.8 46.5h.72l27.72 55.2h-8.1l-8.58-17.1H30.68l-8.58 17.1H21zm-3.18 8.34L31.16 83.7h28.92zM95 70.5l9.75-6.5 9.66 6.48c3.48 2.34 9.72 6.48 9.72 6.48v24.74h-7.2v-3.24c-5 2.1-11.1 4.56-12.18 5l-9.72-4c-3.6-1.5-9.72-4-9.72-4v-7.68l19.44-8c1.08.48 7.14 2.94 12.18 5V77c-1.14-1.14-11-10.92-12.18-12.06l-8.82 8.64L94.25 71a8.85 8.85 0 0 0 .75-.5zm3.6 13.68l-6.12 3.6v7.68L98.63 99c2.1 1.2 6.12 3.6 6.12 3.6 1.2-.66 11-6.48 12.18-7.14v-7.68s-3.9-2.28-6.12-3.6l-6.06-3.54s-4.02 2.36-6.12 3.54zM138.84 46.5h21.54l10.56 4.5c3.9 1.68 10.56 4.5 10.56 4.5v8.7s-6.66 2.82-10.56 4.5l-9.54 4c2.1 1 7 3.18 9.78 4.5l10.74 4.92v9.68c-1.92.9-19.44 8.94-21.54 9.9h-21.54zm21.54.9H146v24.84h14.34c1.32-.78 12.66-7.32 13.92-8V55.5c-1.26-.72-12.56-7.32-13.88-8.1zM146 100.8h14.34l7.2-4.5 7.14-4.5v-9.66l-7.14-4.5-7.2-4.5H146zM237.89 77.16v13.2c-2 1.2-19.44 11.88-21.54 13.14-1.32-.78-8.58-5.22-14.34-8.76v7h-7.2v-54H202v25.04c5.76-3.54 13-8 14.34-8.76 2.11 1.26 19.57 11.98 21.55 13.14zm-35.88 0v13.2c1.32 1.14 13 11 14.34 12.24 1.38-1.14 13-11.1 14.34-12.24v-13.2c-1.32-1.14-13-11-14.34-12.24C215 66.06 203.33 76 202 77.16zM305.93 68.46v-4.32L281.09 45.6c-8.28 6.18-16.5 12.36-24.78 18.54v19.92s8 6 12.42 9.3l12.36 9.24 12.42-9.24c4.44-3.3 12.42-9.3 12.42-9.3v-4.32h7.2v4.32s-10.26 6.24-16 9.72l-16 9.72-16-9.72c-5.76-3.48-16-9.72-16-9.72V64.14s10.26-6.24 16-9.72l16-9.72 16 9.72c5.76 3.48 16 9.72 16 9.72v4.32zM352.69 96.48c2.64-2.16 7.44-6.12 7.44-6.12v-2.88h7.2v2.88c-2 1.2-19.92 11.88-22.08 13.14l-11-6.6c-4-2.4-11-6.54-11-6.54v-13.2s7-4.14 11-6.54l11-6.6c2.1 1.26 20 11.94 22.08 13.14V80h-7.2v-2.84s-4.8-4-7.44-6.12l-7.44-6.12s-4.86 4-7.44 6.12l-7.38 6.12v13.2l7.38 6.12c2.58 2.1 7.44 6.12 7.44 6.12zM380 46.5h20.94l16.32 9.12 16.32 9.12v18.72s-10.38 5.82-16.32 9.12l-16.32 9.12H380zm20.94 54.3l12.72-8.7 12.72-8.64V64.74L400.94 47.4H387.2v53.4zM480.68 101.7v-7c-5.76 3.54-13 8-14.28 8.76-2.1-1.26-19.56-11.94-21.54-13.14V77.16c2-1.2 19.44-11.88 21.54-13.14 1.32.78 8.52 5.22 14.28 8.76V47.7h7.2v54zm-28.62-24.54v13.2c1.32 1.14 13 11 14.34 12.24 1.38-1.14 13-11.1 14.28-12.24v-13.2c-1.32-1.14-12.9-11-14.28-12.24-1.4 1.14-13.02 11.08-14.34 12.24zM503.28 46.5h37.86v.9h-30.66v26.28h27.06v.9h-27.06v26.22h30.66v.9h-37.86zM578.46 96.48c2.64-2.16 7.44-6.12 7.44-6.12v-2.64h7.2v2.64c-2 1.2-19.92 11.88-22.08 13.14l-11-6.6c-4-2.4-11-6.54-11-6.54v-13.2s7-4.14 11-6.54L571 64c2.1 1.26 20 11.94 22.08 13.14v7.08H556.2v6.12l7.38 6.12c2.58 2.1 7.44 6.12 7.44 6.12zm0-25.44L571 64.92s-4.86 4-7.44 6.12l-7.38 6.12v6.18h29.7v-6.18s-4.78-3.96-7.42-6.16zM605.75 46.5h37.86v.9h-30.66v26.28H640v.9h-27.05v27.12h-7.2zM647.7 65.82h7.74v-14.1L665 45.9s3.12 1.92 4.74 2.94l4.74 2.88v1.68h-7.2v-1.68c-.24-.48-2.1-4.5-2.28-4.92-.18.42-2.1 4.44-2.34 4.92v14.1h7.8v.9h-7.8v35h-7.2v-35h-7.76z"/></g></svg>