<svg data-name="Ebene 2" xmlns="http://www.w3.org/2000/svg" viewBox="0 0 700 500"><path fill="#d7ffff" d="M0 0h700v500H0z"/><path d="M38.34 31.33h1.2l10.62 27h-1l-3.66-9.27H32.31l-3.63 9.27h-1zm.54 1.08l-6.21 15.75h12.42zM54.87 31.33h8.64a9.3 9.3 0 0 1 5.88 1.86A6.13 6.13 0 0 1 71.67 38a6 6 0 0 1-2.28 4.65 7.84 7.84 0 0 1-3 1.44 8.4 8.4 0 0 1 3.33 1.71 6.92 6.92 0 0 1 0 10.53 9.47 9.47 0 0 1-6.18 2h-8.67zm1 12.36h7.65a8.06 8.06 0 0 0 5.16-1.59 5.32 5.32 0 0 0 2-4.14 5.26 5.26 0 0 0-2-4.11 8.08 8.08 0 0 0-5.16-1.62h-7.66zm0 13.74h7.65a8.4 8.4 0 0 0 5.48-1.8 6.07 6.07 0 0 0 0-9.24 8.4 8.4 0 0 0-5.49-1.8h-7.65zM99.27 54.76a13 13 0 0 1-18.48 0 14.38 14.38 0 0 1-3.6-9.93 14.38 14.38 0 0 1 3.6-9.93 12.58 12.58 0 0 1 20.52 3l-.87.42a11.28 11.28 0 0 0-1.89-2.76 11.88 11.88 0 0 0-17 0 13.59 13.59 0 0 0-3.33 9.3 13.59 13.59 0 0 0 3.33 9.3 11.88 11.88 0 0 0 17 0 11.28 11.28 0 0 0 1.89-2.76l.87.42a12.45 12.45 0 0 1-2.04 2.94zM108 31.33h7.8a13.81 13.81 0 0 1 9.78 3.78 13.52 13.52 0 0 1 3.81 9.72 13.51 13.51 0 0 1-3.81 9.72 13.8 13.8 0 0 1-9.78 3.78H108zm7.8 26.1a12.71 12.71 0 0 0 9.09-3.54 12.56 12.56 0 0 0 3.51-9.06 12.56 12.56 0 0 0-3.51-9.06 12.71 12.71 0 0 0-9.09-3.54H109v25.2zM135.78 31.33h15.12v.9h-14.13v12.15h13.65v.9h-13.65v12.15h14.13v.9h-15.12zM156.66 31.33h15.12v.9h-14.13v12.15h13.65v.9h-13.65v13h-1zM200.52 58.33v-7a10.42 10.42 0 0 1-2.82 4.17 13.44 13.44 0 0 1-9 3.15 12.55 12.55 0 0 1-9.24-3.87 14.38 14.38 0 0 1-3.6-9.93 14.38 14.38 0 0 1 3.6-9.93 12.63 12.63 0 0 1 20.37 2.64l-.87.45a12.61 12.61 0 0 0-1.74-2.46 11.88 11.88 0 0 0-17 0 13.59 13.59 0 0 0-3.33 9.3 13.59 13.59 0 0 0 3.33 9.3 11.54 11.54 0 0 0 8.52 3.6 12.82 12.82 0 0 0 8.52-2.88 9.87 9.87 0 0 0 3.33-7.44v-2.15h-11.92v-.9h12.84v13.95zM208.29 31.33h1v13h17.31v-13h1v27h-1v-13h-17.32v13h-1zM235.26 31.33h1v27h-1zM256.74 51.91a6.27 6.27 0 0 1-2.25 4.83 10 10 0 0 1-11.7 0 5.94 5.94 0 0 1-1.47-1.74l.84-.48a5 5 0 0 0 1.35 1.62 8.93 8.93 0 0 0 10.26 0 5.41 5.41 0 0 0 2-4.2V31.33h1zM264.72 31.33v13.5l16.8-13.5H283l-11.73 9.42L283 58.33h-1.23l-11.32-16.92-5.73 4.59v12.33h-1v-27zM287.34 31.33h1v26.1h14.13v.9h-15.13zM308 31.33h1.2l12.12 26 12.12-26h1.2v27h-1V33.16l-11.71 25.17h-1.2L309 33.16v25.17h-1zM341.91 31.33h1.2l18.18 25.59V31.33h1v27h-1.2L342.9 32.74v25.59h-1zM390.51 34.9a14.39 14.39 0 0 1 3.6 9.93 14.39 14.39 0 0 1-3.6 9.93 13 13 0 0 1-18.48 0 14.38 14.38 0 0 1-3.6-9.93A14.38 14.38 0 0 1 372 34.9a13 13 0 0 1 18.48 0zm-17.76.63a13.59 13.59 0 0 0-3.33 9.3 13.59 13.59 0 0 0 3.33 9.3 11.88 11.88 0 0 0 17 0 13.58 13.58 0 0 0 3.33-9.3 13.59 13.59 0 0 0-3.33-9.3 11.88 11.88 0 0 0-17 0zM400.26 31.33h7.86a10.12 10.12 0 0 1 6.75 2.28 7.87 7.87 0 0 1 0 11.76 10.12 10.12 0 0 1-6.75 2.28h-6.87v10.68h-1zm1 15.42h6.87a9.08 9.08 0 0 0 6-2 6.93 6.93 0 0 0 0-10.44 9.07 9.07 0 0 0-6-2h-6.87zM444 34.9a14.39 14.39 0 0 1 3.6 9.93 14.62 14.62 0 0 1-3.36 9.69l3.48 3.81h-1.26l-2.88-3.15a13 13 0 0 1-18.06-.42 14.38 14.38 0 0 1-3.6-9.93 14.38 14.38 0 0 1 3.6-9.93 13 13 0 0 1 18.48 0zm-17.76.63a13.59 13.59 0 0 0-3.33 9.3 13.59 13.59 0 0 0 3.33 9.3 11.92 11.92 0 0 0 16.71.36l-3.12-3.42h1.26l2.49 2.73a13.7 13.7 0 0 0 3-9 13.59 13.59 0 0 0-3.33-9.3 11.88 11.88 0 0 0-17 0zM453.78 31.33h7.86a10.6 10.6 0 0 1 6.75 2.13 7.09 7.09 0 0 1 0 11 9.48 9.48 0 0 1-4.11 1.86l7.59 12h-1.23l-7.35-11.79a15.3 15.3 0 0 1-1.65.09h-6.87v11.7h-1zm1 14.4h6.87a9.56 9.56 0 0 0 6-1.89 6.17 6.17 0 0 0 0-9.72 9.56 9.56 0 0 0-6-1.89h-6.87zM476.7 53.86a6.07 6.07 0 0 0 1.65 2.07 9.3 9.3 0 0 0 5.88 1.8 9.58 9.58 0 0 0 6-1.71 6.05 6.05 0 0 0 2.19-4.77 5.85 5.85 0 0 0-4.68-5.76L481 45a7 7 0 0 1-5.61-6.78 6.69 6.69 0 0 1 2.34-5.25 11.67 11.67 0 0 1 12.87.09 6.58 6.58 0 0 1 1.53 1.77l-.9.42a6 6 0 0 0-1.35-1.53 10.48 10.48 0 0 0-11.43-.09 5.77 5.77 0 0 0-2.07 4.59 6 6 0 0 0 4.8 5.88l6.72.54a6.81 6.81 0 0 1 5.49 6.66 6.9 6.9 0 0 1-2.39 5.38 10.64 10.64 0 0 1-6.75 2 10.28 10.28 0 0 1-6.57-2.07 7 7 0 0 1-1.86-2.25zM496.62 31.33h19.26v.9h-9.12v26.1h-1v-26.1h-9.15zM539.37 50.59a7.59 7.59 0 0 1-2.7 5.79 11.84 11.84 0 0 1-13.89 0 7.59 7.59 0 0 1-2.7-5.79V31.33h1v19.26a6.67 6.67 0 0 0 2.43 5.13 10.64 10.64 0 0 0 12.45 0 6.67 6.67 0 0 0 2.43-5.13V31.33h1zM545 31.33l9.66 25.86 9.66-25.86h1l-10.11 27H554l-10.08-27zM568.47 31.33l9.75 25.86 4.68-12.39-5.1-13.47h1.08l4.53 12.06L588 31.33h1l-5 13.38 4.68 12.48 9.75-25.86h1l-10.17 27H588l-4.59-12.21-4.59 12.21h-1.2l-10.17-27zM602.73 31.33l8.76 12.51 8.79-12.51h1.14l-9.33 13.35 9.57 13.65h-1.17l-9-12.84-9 12.84h-1.14l9.57-13.65-9.36-13.35zM624.63 31.33l9.57 15.57 9.57-15.57h1.11l-10.2 16.59v10.41h-1V47.92l-10.2-16.59zM647.46 31.33h19.41v1.2l-18.42 24.9h18.42v.9h-19.41v-1.2l18.42-24.9h-18.42zM36.72 86a8.26 8.26 0 0 1 5.61 2 6.93 6.93 0 0 1 2.16 5.16v10.68h-1v-2.76a5.19 5.19 0 0 1-1.38 1.53 9 9 0 0 1-5.4 1.53 9.57 9.57 0 0 1-5.58-1.53 5 5 0 0 1-2.19-4 4.93 4.93 0 0 1 2.19-3.93 9.59 9.59 0 0 1 5.58-1.56 9 9 0 0 1 5.4 1.56 5.08 5.08 0 0 1 1.38 1.5v-3.03a6.05 6.05 0 0 0-1.89-4.5 7.08 7.08 0 0 0-4.89-1.77 7 7 0 0 0-5.46 2.37l-.75-.6A8.13 8.13 0 0 1 36.72 86zm-4.89 9.36a3.83 3.83 0 0 0 0 6.6 8.74 8.74 0 0 0 4.89 1.29 8.74 8.74 0 0 0 4.89-1.29 3.83 3.83 0 0 0 0-6.6 8.74 8.74 0 0 0-4.89-1.29 8.74 8.74 0 0 0-4.89 1.27zM51.06 75.33h1v15.84a8.68 8.68 0 0 1 1.65-2.64 8 8 0 0 1 6-2.55 8.51 8.51 0 0 1 6.21 2.55 10 10 0 0 1 0 13 8.51 8.51 0 0 1-6.21 2.55 8 8 0 0 1-6-2.55 8.67 8.67 0 0 1-1.65-2.64v4.89h-1zm3.12 13.83a9.22 9.22 0 0 0 0 11.79 7.78 7.78 0 0 0 11 0 9.22 9.22 0 0 0 0-11.79 7.78 7.78 0 0 0-11 0zM88.17 101.58a9.17 9.17 0 0 1-12.69 0 9.88 9.88 0 0 1 0-13 9.17 9.17 0 0 1 12.69 0 8.55 8.55 0 0 1 1.47 2.1l-.87.45a7.53 7.53 0 0 0-1.32-1.92 8.08 8.08 0 0 0-11.25 0 9 9 0 0 0 0 11.79 8.08 8.08 0 0 0 11.25 0 7.55 7.55 0 0 0 1.32-2l.87.45a8.55 8.55 0 0 1-1.47 2.13zM110.7 103.83v-4.89a8.69 8.69 0 0 1-1.65 2.64 8 8 0 0 1-6 2.55 8.45 8.45 0 0 1-6.18-2.55 10 10 0 0 1 0-13A8.45 8.45 0 0 1 103 86a8 8 0 0 1 6 2.55 8.69 8.69 0 0 1 1.65 2.64V75.33h1v28.5zM97.56 89.16a9.22 9.22 0 0 0 0 11.79 7.75 7.75 0 0 0 11 0 9.12 9.12 0 0 0 0-11.79 7.75 7.75 0 0 0-11 0zM132.6 102.06a9.82 9.82 0 0 1-6.36 2.07 8.72 8.72 0 0 1-6.33-2.55 9.79 9.79 0 0 1 0-13 9.17 9.17 0 0 1 12.69 0 9.33 9.33 0 0 1 2.49 6.54v.45h-16.68a8.28 8.28 0 0 0 2.19 5.43 7.72 7.72 0 0 0 5.64 2.28 8.61 8.61 0 0 0 5.64-1.83 6.24 6.24 0 0 0 1.35-1.59l.84.51a6.77 6.77 0 0 1-1.47 1.69zm-.72-12.9a8.11 8.11 0 0 0-11.28 0 8.28 8.28 0 0 0-2.19 5.43h15.66a8.28 8.28 0 0 0-2.19-5.43zM146.55 75a3.15 3.15 0 0 1 2.31 1 3.59 3.59 0 0 1 .9 2.49h-1a2.23 2.23 0 1 0-4.41 0v7.77h4.44v.9h-4.44v16.65h-1V87.18H139v-.9h4.41v-7.77a3.29 3.29 0 0 1 3.14-3.51zM161.91 112.23a9.31 9.31 0 0 0 5.49-1.56 5.11 5.11 0 0 0 2.16-4v-8a8.68 8.68 0 0 1-1.65 2.64 8.15 8.15 0 0 1-6 2.49 8.49 8.49 0 0 1-6.18-2.49 9.74 9.74 0 0 1 0-12.87 8.49 8.49 0 0 1 6.18-2.44 8.15 8.15 0 0 1 6 2.49 8.69 8.69 0 0 1 1.65 2.64v-4.85h1v20.37a5.93 5.93 0 0 1-2.43 4.68 11.56 11.56 0 0 1-12.39 0 6.32 6.32 0 0 1-1.11-1.08l.75-.6c1.34 1.74 4.04 2.58 6.53 2.58zm-5.49-23.1a8.89 8.89 0 0 0 0 11.55 7.82 7.82 0 0 0 11 0 8.8 8.8 0 0 0 0-11.55 7.82 7.82 0 0 0-11 0zM177.09 75.33h1V89.4a6 6 0 0 1 1.53-1.74 9.48 9.48 0 0 1 5.75-1.66 5.92 5.92 0 0 1 4.2 1.68 6.15 6.15 0 0 1 1.62 4.32v11.85h-1V92a5.35 5.35 0 0 0-1.35-3.69 4.68 4.68 0 0 0-3.48-1.41 9.16 9.16 0 0 0-5.25 1.41 4.55 4.55 0 0 0-2 3.69v11.85h-1zM198.84 78.42a.73.73 0 0 1 .75.78.71.71 0 0 1-.75.75.73.73 0 0 1-.78-.75.76.76 0 0 1 .78-.78zm-.51 7.86h1v17.55h-1zM205 112.23a4.66 4.66 0 0 0 3.21-1.17 4.1 4.1 0 0 0 1.26-3V86.28h1V108a4.91 4.91 0 0 1-1.53 3.66 6.05 6.05 0 0 1-8-.15l.69-.66a4.62 4.62 0 0 0 3.37 1.38zm4-33.81a.76.76 0 0 1 .78.78.73.73 0 0 1-.78.75.71.71 0 0 1-.75-.75.73.73 0 0 1 .7-.78zM218 75.33v22l12.78-11.1h1.35l-8.31 7.23 8.31 10.32h-1.44L223 94.26l-5 4.29v5.28h-1v-28.5zM236.49 75.33h1v28.5h-1zM243.87 86.28h1v3a5.71 5.71 0 0 1 1.41-1.65 8.57 8.57 0 0 1 5.4-1.68 5.33 5.33 0 0 1 4 1.68 5.58 5.58 0 0 1 1.26 2.25 5.63 5.63 0 0 1 1.68-2.25A8.57 8.57 0 0 1 264 86a5.33 5.33 0 0 1 4 1.68 6.29 6.29 0 0 1 1.49 4.32v11.85h-1V92a5.41 5.41 0 0 0-1.26-3.69 4.33 4.33 0 0 0-3.23-1.43 8 8 0 0 0-4.89 1.41 4.65 4.65 0 0 0-1.92 3.71v11.85h-1V92a5.44 5.44 0 0 0-1.29-3.69 4.27 4.27 0 0 0-3.24-1.41 8 8 0 0 0-4.89 1.41 4.68 4.68 0 0 0-1.91 3.69v11.85h-1zM275.67 86.28h1v3.21a5.85 5.85 0 0 1 1.71-1.83 10.61 10.61 0 0 1 6.17-1.66 6.5 6.5 0 0 1 4.5 1.68 5.9 5.9 0 0 1 1.74 4.32v11.85h-1V92a5.09 5.09 0 0 0-1.47-3.69 5.43 5.43 0 0 0-3.78-1.41 10.36 10.36 0 0 0-5.67 1.41 4.54 4.54 0 0 0-2.21 3.69v11.85h-1zM311.31 88.53a9.79 9.79 0 0 1 0 13 9.17 9.17 0 0 1-12.69 0 9.79 9.79 0 0 1 0-13 9.17 9.17 0 0 1 12.69 0zm-12 .63a9 9 0 0 0 0 11.79 8.11 8.11 0 0 0 11.28 0 8.93 8.93 0 0 0 0-11.79 8.11 8.11 0 0 0-11.28 0zM319.32 86.28h1v4.89a8.69 8.69 0 0 1 1.68-2.64 8 8 0 0 1 6-2.55 8.51 8.51 0 0 1 6.21 2.55 10 10 0 0 1 0 13 8.51 8.51 0 0 1-6.21 2.55 8 8 0 0 1-6-2.55 8.69 8.69 0 0 1-1.65-2.64v13.89h-1zm3.12 2.88a9.22 9.22 0 0 0 0 11.79 7.78 7.78 0 0 0 11 0 9.22 9.22 0 0 0 0-11.79 7.78 7.78 0 0 0-11 0zM357.51 112.83V98.94a8.68 8.68 0 0 1-1.65 2.64 8 8 0 0 1-6 2.55 8.45 8.45 0 0 1-6.18-2.55 10 10 0 0 1 0-13 8.45 8.45 0 0 1 6.18-2.58 8 8 0 0 1 6 2.55 8.69 8.69 0 0 1 1.65 2.64v-4.91h1v26.55zm-13.14-23.67a9.22 9.22 0 0 0 0 11.79 7.75 7.75 0 0 0 11 0 9.12 9.12 0 0 0 0-11.79 7.75 7.75 0 0 0-11 0zM364.86 86.28h1v3.18a5.76 5.76 0 0 1 1.26-1.68 7.26 7.26 0 0 1 5-1.8 8.65 8.65 0 0 1 3.39.66l-.36.84a7.39 7.39 0 0 0-3-.6 6.74 6.74 0 0 0-4.5 1.56 5.27 5.27 0 0 0-1.77 4v11.4h-1zM384.48 86.88a7.59 7.59 0 0 0-4.29 1 3.41 3.41 0 0 0-1.53 2.85 3.73 3.73 0 0 0 3.54 3.66l5.1.33a4.6 4.6 0 0 1 4.32 4.47 4.32 4.32 0 0 1-1.89 3.6 9.16 9.16 0 0 1-5.25 1.32c-2.7 0-5.55-1-6.66-3l.87-.45c.93 1.77 3.45 2.58 5.79 2.58a8.12 8.12 0 0 0 4.53-1.08 3.54 3.54 0 0 0 1.62-2.94 3.65 3.65 0 0 0-3.42-3.57l-5.1-.3a4.73 4.73 0 0 1-4.44-4.59 4.31 4.31 0 0 1 1.8-3.51 10.19 10.19 0 0 1 9.93.06 5 5 0 0 1 1.29 1.35l-.81.51c-.96-1.57-3.24-2.29-5.4-2.29zM394.5 86.28h4.89v-11h1v11h4.89v.9h-4.89v16.65h-1V87.18h-4.89zM424.32 103.83h-1v-3a5.71 5.71 0 0 1-1.32 1.62 8.21 8.21 0 0 1-5.25 1.68 8.71 8.71 0 0 1-5.43-1.68 5.56 5.56 0 0 1-2.13-4.32V86.28h1v11.85a4.71 4.71 0 0 0 1.86 3.69 7.53 7.53 0 0 0 4.71 1.41 7.61 7.61 0 0 0 4.74-1.41 4.67 4.67 0 0 0 1.83-3.69V86.28h1zM429.54 86.28l7.53 16.53 7.5-16.53h1l-8 17.55h-1.2l-8-17.55zM448.56 86.28l7.92 16.59 3.78-7.87-4.17-8.73h1.08l3.63 7.59 3.63-7.59h1l-4.14 8.64 3.81 7.95 8-16.59h1l-8.4 17.55h-1.2l-3.72-7.77-3.78 7.78h-1.2l-8.4-17.55zM477.48 86.28l6.66 7.92 6.63-7.92H492l-7.26 8.64 7.47 8.91H491l-6.9-8.19-6.87 8.19h-1.2l7.47-8.91-7.26-8.64zM495.33 86.28l7.53 16.2 7.5-16.2h1l-12.3 26.55h-1l4.26-9.18-8.07-17.37zM514 86.28h13.5v1.2L515 102.93h12.48v.9H514v-1.2l12.5-15.45H514zM44.73 125.39c1.92 3.06 2.13 6.81 2.13 10.44s-.21 7.38-2.13 10.44a7.58 7.58 0 0 1-6.54 3.36 7.53 7.53 0 0 1-6.51-3.36c-1.92-3.06-2.13-6.81-2.13-10.44s.21-7.38 2.13-10.44a7.53 7.53 0 0 1 6.51-3.39 7.58 7.58 0 0 1 6.54 3.39zm-12.33.69c-1.71 2.91-1.86 6.39-1.86 9.75s.15 6.84 1.86 9.75a6.9 6.9 0 0 0 11.58 0c1.71-2.91 1.89-6.39 1.89-9.75s-.18-6.83-1.87-9.75a6.9 6.9 0 0 0-11.58 0zM58.17 123.32l-6 4.2v-1.14l5.82-4h1.2v27h-1zM69.6 125.63l-.81-.57a5.55 5.55 0 0 1 1.21-1.29 10.6 10.6 0 0 1 11.64 0 5.67 5.67 0 0 1 2.25 4.5c0 5.4-3.93 9.63-7.83 13.41-2.31 2.25-4.59 4.5-6.9 6.75h14.75v.9H67.77v-.9l7.83-7.65c3.63-3.54 7.32-7.47 7.32-12.51a4.76 4.76 0 0 0-2-3.84 8.44 8.44 0 0 0-5.1-1.5c-2.47 0-5.02.93-6.22 2.7zM90.54 145.73a5.47 5.47 0 0 0 1.08 1.27 8.34 8.34 0 0 0 10.2 0 6 6 0 0 0 2-4.5 5.91 5.91 0 0 0-2-4.47 7.59 7.59 0 0 0-5.1-1.74H95v-.9h1.77a7.58 7.58 0 0 0 5.1-1.74 5.91 5.91 0 0 0 2-4.47 6 6 0 0 0-2-4.5 8.34 8.34 0 0 0-10.2 0 5.47 5.47 0 0 0-1.08 1.26l-.81-.51A6.51 6.51 0 0 1 90.9 124a9.55 9.55 0 0 1 11.64 0 6.86 6.86 0 0 1 2.25 5.16 6.53 6.53 0 0 1-2.25 5 7.6 7.6 0 0 1-3.09 1.59 7.73 7.73 0 0 1 3.09 1.65 6.73 6.73 0 0 1 2.25 5.1 6.86 6.86 0 0 1-2.25 5.16 9.55 9.55 0 0 1-11.64 0 6.51 6.51 0 0 1-1.17-1.41zM123.57 149.33h-1v-7.65H110v-1.2l12.36-18.15h1.2v18.45h4.59v.9h-4.59zm-1-25.65l-11.67 17.1h11.67zM140.7 148.73a7.71 7.71 0 0 0 5.49-2.13 7.59 7.59 0 0 0 2.16-5.43 7.76 7.76 0 0 0-2.07-5.46 7.41 7.41 0 0 0-5.31-2.13 8.25 8.25 0 0 0-7.38 4.53h-1v-15.78h16.23v.9h-15.23v13.59a8.66 8.66 0 0 1 7.38-4.14 8.38 8.38 0 0 1 6 2.37 8.66 8.66 0 0 1 2.37 6.12 8.47 8.47 0 0 1-2.43 6.09 8.75 8.75 0 0 1-6.21 2.37 8.85 8.85 0 0 1-6.6-2.79l.75-.63a7.72 7.72 0 0 0 5.85 2.52zM169.56 125.93a6.16 6.16 0 0 0-1.2-1.29 9.72 9.72 0 0 0-11 0 5.68 5.68 0 0 0-2.16 4.41v9a7.41 7.41 0 0 1 1.65-2.43 8.45 8.45 0 0 1 6-2.25 9.09 9.09 0 0 1 6.24 2.25 8.29 8.29 0 0 1 0 11.73 9.64 9.64 0 0 1-12.45 0 8 8 0 0 1-2.43-5.85v-12.45a6.55 6.55 0 0 1 2.43-5.07 10.91 10.91 0 0 1 12.45 0 7.07 7.07 0 0 1 1.26 1.41zm-1.2 20.76a7.35 7.35 0 0 0 0-10.41 8.54 8.54 0 0 0-11 0 7.35 7.35 0 0 0 0 10.41 8.45 8.45 0 0 0 11 0zM176 122.33h16.14v1.2l-12.33 25.8h-1.08l12.48-26.1H176zM199.86 147.53a7.15 7.15 0 0 1 0-10.74 8.5 8.5 0 0 1 3.57-1.77 6.83 6.83 0 0 1-2.55-1.47 6.37 6.37 0 0 1-2-4.74 6.63 6.63 0 0 1 2-4.89 8.11 8.11 0 0 1 10.41 0 6.63 6.63 0 0 1 2 4.89 6.37 6.37 0 0 1-2 4.74 7 7 0 0 1-2.58 1.47 8.62 8.62 0 0 1 3.6 1.77 7.15 7.15 0 0 1 0 10.74 10.28 10.28 0 0 1-12.45 0zm11.73-.63a6.25 6.25 0 0 0 2.16-4.74 6.18 6.18 0 0 0-2.16-4.71 9.2 9.2 0 0 0-11 0 6.18 6.18 0 0 0-2.16 4.71 6.25 6.25 0 0 0 2.16 4.74 9.19 9.19 0 0 0 11 0zm-10-22.32a5.7 5.7 0 0 0-1.74 4.23 5.77 5.77 0 0 0 1.74 4.26 6.4 6.4 0 0 0 4.47 1.65 6.48 6.48 0 0 0 4.5-1.65 5.77 5.77 0 0 0 1.74-4.26 5.7 5.7 0 0 0-1.74-4.23 6.48 6.48 0 0 0-4.5-1.65 6.41 6.41 0 0 0-4.46 1.65zM221.31 145.73a6.15 6.15 0 0 0 1.2 1.29 9.72 9.72 0 0 0 11 0 5.68 5.68 0 0 0 2.16-4.41v-9A7.44 7.44 0 0 1 234 136a8.53 8.53 0 0 1-6 2.25 9 9 0 0 1-6.21-2.25 8.29 8.29 0 0 1 0-11.73 9.64 9.64 0 0 1 12.45 0 8 8 0 0 1 2.43 5.85v12.45a6.55 6.55 0 0 1-2.43 5.07 10.91 10.91 0 0 1-12.45 0 7.2 7.2 0 0 1-1.29-1.41zm1.2-20.76a7.35 7.35 0 0 0 0 10.41 8.54 8.54 0 0 0 11 0 7.35 7.35 0 0 0 0-10.41 8.45 8.45 0 0 0-11 0zM257.07 144.86a6.08 6.08 0 0 0 1.65 2.07 9.31 9.31 0 0 0 5.88 1.8 9.58 9.58 0 0 0 6-1.71 6.05 6.05 0 0 0 2.19-4.77 5.85 5.85 0 0 0-4.68-5.76l-6.72-.54a7 7 0 0 1-5.61-6.78 6.69 6.69 0 0 1 2.34-5.25 9.85 9.85 0 0 1 6-1.89v-5.1h1V122a10 10 0 0 1 5.88 2 6.58 6.58 0 0 1 1.53 1.77l-.84.51a5.61 5.61 0 0 0-1.41-1.62 10.48 10.48 0 0 0-11.43-.09 5.77 5.77 0 0 0-2.07 4.59 6 6 0 0 0 4.8 5.88l6.72.54a6.81 6.81 0 0 1 5.49 6.66 6.9 6.9 0 0 1-2.43 5.43 10.15 10.15 0 0 1-6.24 2v5.1h-1v-5.1a10.21 10.21 0 0 1-6.09-2.07 7.05 7.05 0 0 1-1.86-2.25zM278.46 135.38h4.29v-6a8 8 0 0 1 1.83-5.28 6.16 6.16 0 0 1 4.62-2.1 6.37 6.37 0 0 1 5.61 3.48l-.9.45a5.3 5.3 0 0 0-.78-1.23 5.19 5.19 0 0 0-7.86 0 7.17 7.17 0 0 0-1.53 4.65v6h9v.9h-9v5.85a8.29 8.29 0 0 1-1.47 5 5.12 5.12 0 0 1-1.41 1.26h14.79v.9h-17.19v-.9a3.8 3.8 0 0 0 3.09-1.77 8 8 0 0 0 1.2-4.53v-5.85h-4.29zM303.6 147.83a.75.75 0 1 1-.75.75.74.74 0 0 1 .75-.75zm-.51-25.5h1v21.45h-1zM318.39 135.38h.48a6.82 6.82 0 0 0 4.74-1.74 6.09 6.09 0 0 0 1.83-4.47 6.16 6.16 0 0 0-1.83-4.5 7.33 7.33 0 0 0-9.48 0 5.77 5.77 0 0 0-1 1.26l-.84-.51a6.36 6.36 0 0 1 1.14-1.41 8.48 8.48 0 0 1 10.89 0 7 7 0 0 1 2.1 5.16 6.9 6.9 0 0 1-2.1 5.1 7.76 7.76 0 0 1-4.95 2v7.5h-1zm.48 12.45a.75.75 0 1 1-.75.75.74.74 0 0 1 .75-.75zM335 131.33a.75.75 0 1 1-.75.75.74.74 0 0 1 .75-.75zm-.51 5.55h1v21.45h-1zM352.23 136.88v7.5h-.51a6.5 6.5 0 0 0-4.71 1.86 6.82 6.82 0 0 0-1.86 4.83 6.75 6.75 0 0 0 1.86 4.8 6.49 6.49 0 0 0 4.71 1.86 6.68 6.68 0 0 0 4.5-1.65l.66.72a7.82 7.82 0 0 1-5.16 1.83 7.7 7.7 0 0 1-5.43-13 7.46 7.46 0 0 1 4.95-2.13v-6.6zm-.51-5.55a.75.75 0 0 1 0 1.5.75.75 0 0 1 0-1.5zM361.71 139.43h5.43l1.29-7.2h-5.88v-.9h6l1.56-9h1l-1.59 9h6.9l1.56-9h1l-1.56 9h5.28v.9h-5.43l-1.29 7.2h5.88v.9h-6l-1.56 9h-1l1.59-9H368l-1.56 9h-1l1.56-9h-5.28zm14.58-7.2h-6.87l-1.26 7.2H375zM397.44 124.1a7.59 7.59 0 0 1 0 9.06 5.05 5.05 0 0 1-7.68 0 7.59 7.59 0 0 1 0-9.06 5 5 0 0 1 7.68 0zm16.32-3.1H415l-24.48 29.7h-1.26zm-23.28 3.75a6.79 6.79 0 0 0 0 7.8 3.92 3.92 0 0 0 3.12 1.5 4 4 0 0 0 3.15-1.5 6.93 6.93 0 0 0 0-7.8 4 4 0 0 0-3.15-1.5 3.92 3.92 0 0 0-3.12 1.48zm24 13.77a7.59 7.59 0 0 1 0 9.06 5.05 5.05 0 0 1-7.68 0 7.59 7.59 0 0 1 0-9.06 5 5 0 0 1 7.68 0zm-7 .63a6.8 6.8 0 0 0 0 7.8 3.93 3.93 0 0 0 3.12 1.5 4 4 0 0 0 3.15-1.5 6.94 6.94 0 0 0 0-7.8 4 4 0 0 0-3.15-1.5 3.92 3.92 0 0 0-3.08 1.48zM440.76 126a6.16 6.16 0 0 0-1.32-1.32 11.32 11.32 0 0 0-12.06 0 5.63 5.63 0 0 0-2.34 4.5 5.57 5.57 0 0 0 2.34 4.47 9.88 9.88 0 0 0 6 1.74h12.21v.9h-2.85v13h-9.36a11 11 0 0 1-6.72-2 6.1 6.1 0 0 1 0-10 9.47 9.47 0 0 1 3.54-1.59 9.67 9.67 0 0 1-3.54-1.59 6.27 6.27 0 0 1-2.64-5 6.57 6.57 0 0 1 2.64-5.16 12.45 12.45 0 0 1 13.47 0 6.87 6.87 0 0 1 1.38 1.41zm-7.35 10.29a10.18 10.18 0 0 0-6 1.71 5.49 5.49 0 0 0-2.34 4.38 5.43 5.43 0 0 0 2.34 4.35 10.17 10.17 0 0 0 6 1.71h8.37v-12.16zM453.69 153.17a27.05 27.05 0 0 1 0-27.48 16.61 16.61 0 0 1 4-4.92l.51.69a15.46 15.46 0 0 0-3.87 4.83 27 27 0 0 0 0 26.28 15.46 15.46 0 0 0 3.87 4.83l-.51.69a16.62 16.62 0 0 1-4-4.92zM462.42 157.4a15.4 15.4 0 0 0 3.84-4.83 27 27 0 0 0 0-26.28 15.39 15.39 0 0 0-3.84-4.83l.51-.69a16.61 16.61 0 0 1 4 4.92 27.23 27.23 0 0 1 0 27.48 16.62 16.62 0 0 1-4 4.92zM477.66 121h6.69v.9h-5.7v35.55h5.7v.9h-6.69zM494.94 121v37.35h-6.69v-.9h5.7v-35.57h-5.7V121zM505.89 151v-5.76a6.2 6.2 0 0 0-1.08-3.78 3.63 3.63 0 0 0-2.85-1.5v-1a3.62 3.62 0 0 0 2.85-1.5 6.2 6.2 0 0 0 1.08-3.78v-5.76c0-3 2.49-5.43 4.83-6.84l.45.78c-2.07 1.26-4.29 3.42-4.29 6.06v5.76c0 2.52-1 4.83-2.88 5.76 1.83.93 2.88 3.24 2.88 5.76v5.8c0 2.64 2.22 4.8 4.29 6.06l-.45.78c-2.34-1.46-4.83-3.92-4.83-6.84zM521.28 127.91v5.76a6.22 6.22 0 0 0 1.11 3.78 3.57 3.57 0 0 0 2.82 1.5v1a3.57 3.57 0 0 0-2.82 1.5 6.22 6.22 0 0 0-1.11 3.78V151c0 3.18-2.82 5.76-5.34 7.14l-.42-.78c2.25-1.23 4.77-3.54 4.77-6.36v-5.76a7.21 7.21 0 0 1 1.38-4.5 4.72 4.72 0 0 1 1.53-1.26 4.72 4.72 0 0 1-1.53-1.26 7.22 7.22 0 0 1-1.38-4.5v-5.76c0-2.82-2.52-5.13-4.77-6.36l.42-.78c2.52 1.33 5.34 3.91 5.34 7.09zM546.08 132.68V130h1v10.8a9 9 0 0 0 5.19-1.38 4.41 4.41 0 0 0 2-3.57 13.64 13.64 0 0 0-3.33-9.3 11.84 11.84 0 0 0-17 0 14.75 14.75 0 0 0 0 18.6 11.49 11.49 0 0 0 8.52 3.6 17.72 17.72 0 0 0 8.54-1.85l.45.81a18.52 18.52 0 0 1-9 1.92 12.48 12.48 0 0 1-9.21-3.87 15.49 15.49 0 0 1 0-19.86 12.89 12.89 0 0 1 18.42 0 14.39 14.39 0 0 1 3.6 9.93A5.26 5.26 0 0 1 553 140a10 10 0 0 1-5.91 1.65h-1V139a4.89 4.89 0 0 1-4.29 2.7 5 5 0 0 1-3.8-1.7 6.63 6.63 0 0 1 0-8.4 5 5 0 0 1 3.8-1.6 4.89 4.89 0 0 1 4.28 2.68zm-7.38-.42a5.91 5.91 0 0 0 0 7.14 4.15 4.15 0 0 0 6.18 0 5.91 5.91 0 0 0 0-7.14 4.15 4.15 0 0 0-6.18 0zM570.63 148.73a4.41 4.41 0 0 0 3.57-1.92 8.53 8.53 0 0 0 1.41-5 7 7 0 0 0-2-5 7.21 7.21 0 0 0-5.1-1.92h-1.77V134h1.77a3.56 3.56 0 0 0 2.85-1.56 6.87 6.87 0 0 0 1.11-4 5.55 5.55 0 0 0-1.53-4 5.62 5.62 0 0 0-4-1.56 5.34 5.34 0 0 0-5.52 5.55v20.85h-1v-20.8a6.22 6.22 0 0 1 6.51-6.45 6.62 6.62 0 0 1 4.71 1.8 6.47 6.47 0 0 1 1.8 4.65 7.52 7.52 0 0 1-1.38 4.65 4.35 4.35 0 0 1-1.29 1.17 7.74 7.74 0 0 1 3.54 1.92 7.82 7.82 0 0 1 2.28 5.61 9 9 0 0 1-1.68 5.61 5.43 5.43 0 0 1-4.29 2.19 6.32 6.32 0 0 1-5.1-2.64l.78-.54a5.28 5.28 0 0 0 4.33 2.28zM590.31 122.33v6.6l5.46-3.24v1.11l-5.25 3.09 5.25 5.94h-1.17l-4.8-5.4-4.8 5.4h-1.17l5.28-5.94-5.28-3.09v-1.11l5.49 3.24v-6.6zM31.14 193.33a.75.75 0 1 1-.75.75.74.74 0 0 1 .75-.75zM40.2 177.28a.75.75 0 1 1-.75.75.74.74 0 0 1 .75-.75zm0 16a.75.75 0 1 1-.75.75.74.74 0 0 1 .75-.7zM52.44 191.32l-5.85 8.79h-.93l5.55-8.79zM63.42 191.32l-5.88 8.79h-.9l5.55-8.79zm-.63-14a.75.75 0 1 1 0 1.5.75.75 0 0 1 0-1.5zM77.73 194.83h-1.08l-6.75-8.76 6.75-8.79h1.08L71 186.07zM83.88 194.83H82.8l6.75-8.76-6.75-8.79h1.08l6.75 8.79zM103.71 194.83h-1.08l-6.93-8.76 6.93-8.79h1.08l-6.93 8.79zm8 0h-1.08l-6.93-8.76 6.93-8.79h1.08l-6.9 8.79zM117.87 194.83h-1.08l6.93-8.76-6.93-8.79h1.08l6.93 8.79zm8 0h-1.07l6.93-8.76-6.93-8.79h1.11l6.9 8.79zM143.43 167.83h.75l-3.33 8.76h-1zm8 0l-3.33 8.76h-1l3.6-8.76zM163.95 167.83h1l-3.57 8.76h-.78zm8.28 0l-3.6 8.76h-.75l3.3-8.76zM184.62 191.47h1l-3.57 8.76h-.78zm8.28 0l-3.6 8.76h-.75l3.3-8.76zM200.28 167.83v8.76h-1v-8.76zm8.91 8.76h-1v-8.76h1zM219.3 167.83l-3.63 8.76h-.75l3.36-8.76zM226.59 184h-1.14l9.18-16.2h1.11l9.18 16.2h-1.14l-8.61-15.21zM249.12 197.08h17.25v.9h-17.25zM270.78 194.83V198h13.14v-3.15h1v4h-15.13v-4zM294.51 167.83l-3.36 8.76h-1l3.63-8.76zM300.84 188.68a4.92 4.92 0 0 1 1.35-3.48 5 5 0 0 1 3.48-1.35c2.91 0 4.65 3.51 7.56 3.51a3.87 3.87 0 0 0 2.79-1.11 4 4 0 0 0 1.08-2.82h1a4.67 4.67 0 0 1-4.86 4.83c-2.91 0-4.65-3.51-7.56-3.51a3.8 3.8 0 0 0-2.76 1.11 4 4 0 0 0-1.08 2.82zM334.89 166.48H336l-13 29.7h-1.08zM341.88 166.48h1v29.7h-1zM348.78 166.48h1.11l12.93 29.7h-1.11zM366.3 185.59h17.25v.93H366.3zM387.39 185.59h31.92v.93h-31.92zM425.4 177.28h1v17.55h-1zM432.06 203.23a4.66 4.66 0 0 0 3.21-1.17 4.1 4.1 0 0 0 1.26-3v-21.78h1V199a4.91 4.91 0 0 1-1.53 3.66 6.05 6.05 0 0 1-8-.15l.69-.66a4.61 4.61 0 0 0 3.37 1.38zM460.35 193.84v1.08l-17.25-8.34v-1l17.25-8.34v1.08l-16.14 7.8zM465 182.11h17.25v.9H465zm0 7h17.25v.9H465zM487 178.27v-1.08l17.25 8.34v1L487 194.92v-1.08l16.14-7.77zM518 177.28v8.31h8.13v.93H518v8.31h-1v-8.31h-8.13v-.93H517v-8.31zM530.81 185.59h8.79v.93h-8.79zM557.66 177.28H562v-5.16a6.19 6.19 0 0 1 1.65-4.38 6.09 6.09 0 0 1 8.46 0 6.15 6.15 0 0 1 .93 1.26l-.87.45a5.33 5.33 0 0 0-.75-1.08 5.07 5.07 0 0 0-7.08 0 5.45 5.45 0 0 0-1.35 3.75v5.16h10.81v17.55h-1v-16.65H563v16.65h-1v-16.65h-4.38zM578.75 177.28h4.38v-7.77a3.4 3.4 0 0 1 1-2.49 4 4 0 0 1 5.28 0 3.4 3.4 0 0 1 1 2.49h-1a2.53 2.53 0 0 0-.75-1.86 2.92 2.92 0 0 0-3.84 0 2.53 2.53 0 0 0-.75 1.86v7.77h4.32v.9h-4.32v16.65h-1v-16.65h-4.38zm16.2-11h1v28.5h-1zM620.78 166.93a4.51 4.51 0 0 0-3.39 1.44 5.53 5.53 0 0 0-1.32 3.75v5.16h10.44v17.55h-1v-16.65h-9.45v16.65h-1v-16.65h-8.85v16.65h-1v-16.65h-4.35v-.9h4.35v-6.72a5.09 5.09 0 0 1 1-3.27A3.52 3.52 0 0 1 609 166a3.45 3.45 0 0 1 1.8.48l-.48.81a2.51 2.51 0 0 0-1.32-.39c-1.83 0-2.79 1.86-2.79 3.63v6.72h8.85v-5.16a6.27 6.27 0 0 1 1.59-4.38 5.79 5.79 0 0 1 8.22 0 6 6 0 0 1 .9 1.26l-.87.45a4.61 4.61 0 0 0-4.12-2.49zM646.34 169.51v7.77h4.44v.9h-4.44v16.65h-1v-16.65h-8.58v16.65h-1v-16.65h-4.35v-.9h4.35v-7.77a3.39 3.39 0 0 1 1-2.49 3.77 3.77 0 0 1 2.61-1 3.85 3.85 0 0 1 2.64 1 3.39 3.39 0 0 1 1 2.49h-1a2.53 2.53 0 0 0-.75-1.86 2.77 2.77 0 0 0-1.92-.72 2.56 2.56 0 0 0-2.64 2.58v7.77h8.58v-7.77a3.39 3.39 0 0 1 1-2.49 3.77 3.77 0 0 1 2.61-1 3.85 3.85 0 0 1 2.64 1 3.4 3.4 0 0 1 1 2.49h-1a2.53 2.53 0 0 0-.75-1.86 2.77 2.77 0 0 0-1.92-.72 2.56 2.56 0 0 0-2.52 2.58zm9.72-3.18h1v28.5h-1zM38.34 213.33h1.2l10.62 27h-1l-3.66-9.27H32.31l-3.63 9.27h-1zm.54 1.08l-6.21 15.75h12.42zm-2.79-8.49l3.93 5.4h-.93l-4.23-5.4zM63 213.33h1.2l10.62 27h-1.05l-3.66-9.27H57l-3.63 9.27h-1zm.54 1.08l-6.21 15.75h12.42zm4.11-8.49l-4.23 5.4h-.93l3.93-5.4zM87.66 213.33h1.2l10.62 27h-1l-3.66-9.27H81.63L78 240.33h-1zm.54 1.08L82 230.16h12.41zm-4.38-3.09h-1l4.74-5.4h1.35l4.74 5.4h-1l-4.41-4.71zM112.32 213.33h1.2l10.62 27h-1l-3.66-9.27h-13.19l-3.63 9.27h-1zm.54 1.08l-6.21 15.75h12.42zm-5.73-3.24a3.83 3.83 0 0 1 1.08-2.73 4 4 0 0 1 2.82-1c1.65 0 2.1 2.58 3.75 2.58a3.28 3.28 0 0 0 2.25-.84 2.94 2.94 0 0 0 .84-2.13h.81a3.76 3.76 0 0 1-1.08 2.7 4 4 0 0 1-2.82 1.08c-1.65 0-2.1-2.58-3.75-2.58a3.18 3.18 0 0 0-2.22.81 3 3 0 0 0-.87 2.16zM137 213.33h1.2l10.62 27h-1.05l-3.66-9.27H131l-3.63 9.27h-1zm.54 1.08l-6.21 15.75h12.42zm-3.72-7.14a.73.73 0 0 1 .78.75.76.76 0 0 1-.78.78.73.73 0 0 1-.82-.8.71.71 0 0 1 .8-.73zm7.53 0a.71.71 0 0 1 .75.75.73.73 0 0 1-.75.78.76.76 0 0 1-.78-.78.73.73 0 0 1 .76-.75zM161.64 213.33h1.2l10.62 27h-1l-3.66-9.27h-13.19l-3.61 9.27h-1zm.54 1.08L156 230.16h12.42zm2.31-7.95a3 3 0 0 1 0 4.32 3.23 3.23 0 0 1-2.25.84 3.3 3.3 0 0 1-2.28-.84 3.12 3.12 0 0 1 0-4.32 3.3 3.3 0 0 1 2.28-.84 3.23 3.23 0 0 1 2.25.84zm-2.25-.24a2.4 2.4 0 1 0 2.49 2.4 2.39 2.39 0 0 0-2.49-2.4zM186.3 213.33h1.2l10.62 27h-1.05l-3.66-9.27h-13.14l-3.63 9.27h-1zm.54 1.08l-6.21 15.75H193zm4.2-4.86a8.91 8.91 0 0 1-4.14.81 9 9 0 0 1-4.17-.81 2.57 2.57 0 0 1-1.62-2.13h.81c0 .75.66 1.23 1.38 1.53a9.17 9.17 0 0 0 3.6.6 9 9 0 0 0 3.57-.6c.72-.3 1.38-.78 1.38-1.53h.81a2.57 2.57 0 0 1-1.66 2.13zM215.58 246.15c0-2 2.61-2.34 4-3.66l2.16-2.16-3.66-9.27h-13.15l-3.63 9.27h-1l10.65-27h1.2l10.62 27h-.24l-2.85 2.88c-1.14 1.08-3.33 1.26-3.33 2.94 0 2 2.49 2.73 4.38 2.73a5.64 5.64 0 0 0 3.3-.9l.42.63a6.43 6.43 0 0 1-3.72 1c-2.33-.01-5.15-1.03-5.15-3.46zm-4.08-31.74l-6.21 15.75h12.42zM241.62 213.33h15.27v.9h-13.77v12.15h13.26v.9h-13.26v12.15h13.77v.9h-14.76v-9.66H232l-6 9.66h-1zm.51 16.44v-15.54l-9.57 15.54zM283.65 236.76a13 13 0 0 1-18.48 0 15.49 15.49 0 0 1 0-19.86 12.58 12.58 0 0 1 20.52 3l-.87.42a11.28 11.28 0 0 0-1.89-2.76 11.88 11.88 0 0 0-17 0 14.65 14.65 0 0 0 0 18.6 11.88 11.88 0 0 0 17 0 11.28 11.28 0 0 0 1.89-2.76l.87.42a12.45 12.45 0 0 1-2.04 2.94zm-5.19-30.84l-4.23 5.4h-.9l3.9-5.4zM313.35 236.76a13 13 0 0 1-18.48 0 15.49 15.49 0 0 1 0-19.86 12.58 12.58 0 0 1 20.52 3l-.87.42a11.28 11.28 0 0 0-1.89-2.76 11.88 11.88 0 0 0-17 0 14.65 14.65 0 0 0 0 18.6 11.88 11.88 0 0 0 17 0 11.28 11.28 0 0 0 1.89-2.76l.87.42a12.45 12.45 0 0 1-2.04 2.94zm-3.81-30.84l-4.77 5.4h-1.32l-4.77-5.4h1l4.44 4.68 4.44-4.68zM333.81 249.6a6.2 6.2 0 0 1-4.26-1.41l.54-.54a5.37 5.37 0 0 0 3.72 1.23c1.89 0 4.35-.75 4.35-2.73s-2.46-2.76-4.35-2.76h-.75l.3-2.76a12.59 12.59 0 0 1-8.79-3.87 15.49 15.49 0 0 1 0-19.86 12.58 12.58 0 0 1 20.52 3l-.87.42a11.28 11.28 0 0 0-1.89-2.76 11.88 11.88 0 0 0-17 0 14.65 14.65 0 0 0 0 18.6 11.88 11.88 0 0 0 17 0 11.28 11.28 0 0 0 1.89-2.76l.87.42a12.17 12.17 0 0 1-11 6.84l-.21 2c2.31 0 5.07 1.08 5.07 3.48s-2.8 3.46-5.14 3.46zM351.75 213.33h7.8a13.81 13.81 0 0 1 9.78 3.78 14.3 14.3 0 0 1 0 19.44 13.81 13.81 0 0 1-9.78 3.78h-7.8zm7.8 26.1a12.71 12.71 0 0 0 9.09-3.54 13.45 13.45 0 0 0 0-18.12 12.71 12.71 0 0 0-9.09-3.54h-6.81v25.2zm6-33.51l-4.77 5.4h-1.32l-4.77-5.4h1l4.44 4.68 4.44-4.68zM398.85 217.11a14.3 14.3 0 0 1 0 19.44 13.88 13.88 0 0 1-9.81 3.78h-7.8v-13h-3.12v-.9h3.12v-13H389a13.88 13.88 0 0 1 9.85 3.68zM389 239.43a12.6 12.6 0 1 0 0-25.2h-6.78v12.15h9.69v.9h-9.69v12.15zM409 213.33h15.12v.9H410v12.15h13.65v.9H410v12.15h14.13v.9H409zm4.74-7.41l3.93 5.4h-.93l-4.23-5.4zM429.93 213.33H445v.9h-14.08v12.15h13.65v.9h-13.65v12.15H445v.9h-15.07zm11.64-7.41l-4.23 5.4h-.93l3.93-5.4zM450.81 213.33h15.12v.9H451.8v12.15h13.65v.9H451.8v12.15h14.13v.9h-15.12zm3.15-2h-1l4.74-5.4h1.35l4.74 5.4h-1l-4.44-4.71zM471.69 213.33h15.12v.9h-14.13v12.15h13.65v.9h-13.65v12.15h14.13v.9h-15.12zm3.81-6.06a.73.73 0 0 1 .78.75.78.78 0 1 1-1.56 0 .73.73 0 0 1 .78-.75zm7.53 0a.71.71 0 0 1 .75.75.73.73 0 0 1-.75.78.76.76 0 0 1-.78-.78.73.73 0 0 1 .75-.75zM492.57 213.33h15.12v.9h-14.13v12.15h13.65v.9h-13.65v12.15h14.13v.9h-15.12zm13-7.41l-4.74 5.4h-1.35l-4.74-5.4h1l4.41 4.68 4.44-4.68zM521.49 246.15c0-2 2.61-2.34 4-3.66l2.16-2.16h-14.2v-27h15.12v.9h-14.13v12.15h13.65v.9h-13.65v12.15h14.13v.9h-.09l-2.88 2.88c-1.14 1.08-3.3 1.26-3.3 2.94 0 2 2.46 2.73 4.35 2.73A5.73 5.73 0 0 0 530 248l.42.63a6.52 6.52 0 0 1-3.75 1c-2.36-.03-5.18-1.05-5.18-3.48zM532.4 205.92l3.93 5.4h-.93l-4.23-5.4zm2.34 7.41h1v27h-1zM548.37 205.92l-4.23 5.4h-.93l3.93-5.4zm-4.56 7.41h1v27h-1zM548.93 211.32h-1l4.74-5.4H554l4.74 5.4h-1l-4.41-4.71zm3.93 2h1v27h-1zM558.65 207.27a.73.73 0 0 1 .78.75.76.76 0 0 1-.78.78.73.73 0 0 1-.75-.78.71.71 0 0 1 .75-.75zm3.27 6.06h1v27h-1zm4.26-6.06a.71.71 0 0 1 .75.75.73.73 0 0 1-.75.78.76.76 0 0 1-.78-.78.73.73 0 0 1 .78-.75zM571 213.33h1v27h-1zm12.18 26.4a6.45 6.45 0 0 0 4.44-1.62 5.8 5.8 0 0 0 1.74-4.2v-20.58h1v20.58a6.57 6.57 0 0 1-2 4.83 8 8 0 0 1-10.35 0 5.81 5.81 0 0 1-1.32-1.77l.87-.45a6.09 6.09 0 0 0 5.6 3.21zM34.77 251.42l-4.23 5.4h-.9l3.9-5.4zm-4.56 7.41h1v26.1h14.12v.9H30.21zM50.88 258.83h1v26.1H66v.9H50.88zm11.73 0L59 267.59h-.75l3.36-8.76zM72 285.83v-10.56l-2.52 1.62v-1l2.52-1.64v-15.42h1v14.79l9.09-5.85v1L73 274.64v10.29h14.12v.9zM92.64 258.83h1.2L112 284.42v-25.59h1v27h-1.2l-18.17-25.59v25.59h-1zm14.25-7.41l-4.23 5.4h-.9l3.9-5.4zM120.24 258.83h1.2l18.18 25.59v-25.59h1v27h-1.2l-18.18-25.59v25.59h-1zm4.41-2.16a3.86 3.86 0 0 1 1.11-2.73 4 4 0 0 1 2.79-1c1.65 0 2.1 2.58 3.75 2.58a3.28 3.28 0 0 0 2.25-.84 3 3 0 0 0 .87-2.13h.78a3.76 3.76 0 0 1-1.08 2.7 4 4 0 0 1-2.82 1.08c-1.65 0-2.1-2.58-3.75-2.58a3.18 3.18 0 0 0-2.22.81 3 3 0 0 0-.87 2.16zM147.84 258.83H149l18.18 25.59v-25.59h1v27H167l-18.18-25.59v25.59h-1zm15.63-7.41l-4.77 5.4h-1.35l-4.74-5.4h1l4.39 4.68 4.44-4.68zM189.93 294.23a5.23 5.23 0 0 0 3.51-1.17 4 4 0 0 0 1.38-3v-4.2h-.21l-18.18-25.59v25.59h-1v-27h1.2l18.18 25.59v-25.62h1V290a4.87 4.87 0 0 1-1.65 3.66 6.35 6.35 0 0 1-4.23 1.44 6.43 6.43 0 0 1-4.41-1.59l.66-.69a5.37 5.37 0 0 0 3.75 1.41zM224 262.4a15.49 15.49 0 0 1 0 19.86 13 13 0 0 1-18.48 0 15.49 15.49 0 0 1 0-19.86 13 13 0 0 1 18.48 0zm-17.76.63a14.65 14.65 0 0 0 0 18.6 11.88 11.88 0 0 0 17 0 14.65 14.65 0 0 0 0-18.6 11.88 11.88 0 0 0-17 0zm5.7-11.61l3.9 5.4H215l-4.26-5.4zM254.79 262.4a15.49 15.49 0 0 1 0 19.86 13 13 0 0 1-18.48 0 15.49 15.49 0 0 1 0-19.86 13 13 0 0 1 18.48 0zM237 263a14.65 14.65 0 0 0 0 18.6 11.88 11.88 0 0 0 17 0 14.65 14.65 0 0 0 0-18.6 11.88 11.88 0 0 0-17 0zm12.57-11.61l-4.23 5.4h-.9l3.9-5.4zM285.54 262.4a15.49 15.49 0 0 1 0 19.86 13 13 0 0 1-18.48 0 15.49 15.49 0 0 1 0-19.86 13 13 0 0 1 18.48 0zm-17.76.63a14.65 14.65 0 0 0 0 18.6 11.88 11.88 0 0 0 17 0 14.65 14.65 0 0 0 0-18.6 11.88 11.88 0 0 0-17 0zm4.08-6.21h-1l4.77-5.4H277l4.77 5.4h-1l-4.44-4.71zM316.29 262.4a15.49 15.49 0 0 1 0 19.86 13 13 0 0 1-18.48 0 15.49 15.49 0 0 1 0-19.86 13 13 0 0 1 18.48 0zm-17.76.63a14.65 14.65 0 0 0 0 18.6 11.88 11.88 0 0 0 17 0 14.65 14.65 0 0 0 0-18.6 11.88 11.88 0 0 0-17 0zm2.76-6.36a3.83 3.83 0 0 1 1.08-2.73 4 4 0 0 1 2.79-1c1.65 0 2.13 2.58 3.78 2.58a3.21 3.21 0 0 0 2.22-.84 3 3 0 0 0 .87-2.13h.78a3.76 3.76 0 0 1-1.08 2.7 4 4 0 0 1-2.79 1.08c-1.65 0-2.13-2.58-3.78-2.58a3.18 3.18 0 0 0-2.22.81 3 3 0 0 0-.87 2.16zM347 262.4a15.49 15.49 0 0 1 0 19.86 13 13 0 0 1-18.48 0 15.49 15.49 0 0 1 0-19.86 13 13 0 0 1 18.48 0zm-17.76.63a14.65 14.65 0 0 0 0 18.6 11.88 11.88 0 0 0 17 0 14.65 14.65 0 0 0 0-18.6 11.88 11.88 0 0 0-17 0zm4.76-10.26a.71.71 0 0 1 .75.75.73.73 0 0 1-.75.78.76.76 0 0 1-.78-.78.73.73 0 0 1 .78-.75zm7.5 0a.73.73 0 0 1 .78.75.76.76 0 0 1-.78.78.73.73 0 0 1-.75-.78.71.71 0 0 1 .8-.75zM377.79 262.4a15.49 15.49 0 0 1 0 19.86 13 13 0 0 1-18.48 0 15.49 15.49 0 0 1 0-19.86 13 13 0 0 1 18.48 0zM360 263a14.65 14.65 0 0 0 0 18.6 11.88 11.88 0 0 0 17 0 14.65 14.65 0 0 0 0-18.6 11.88 11.88 0 0 0-17 0zm7.92-11.61h1.2l-3.9 5.4h-.9zm7.47 0l-3.93 5.4h-.87l3.6-5.4zM405 262.4a12.8 12.8 0 0 1 2 3.72v-7.29h11.46v.9H408v12.15h10v.9h-10v12.15h10.47v.9H407v-7.29a12.8 12.8 0 0 1-2 3.72 9.7 9.7 0 0 1-15.51 0 17.79 17.79 0 0 1 0-19.86 9.7 9.7 0 0 1 15.51 0zm-14.82.63a17.2 17.2 0 0 0 0 18.6 8.7 8.7 0 0 0 14.1 0 17.21 17.21 0 0 0 0-18.6 8.7 8.7 0 0 0-14.1 0zM445.08 262.28l3.33-3.45h1.2l-4 4.08a14.69 14.69 0 0 1 3.15 9.42 14.39 14.39 0 0 1-3.6 9.93 13 13 0 0 1-18.39.12l-3.33 3.45h-1.2l4-4.08a14.67 14.67 0 0 1-3.12-9.42 14.38 14.38 0 0 1 3.6-9.93 13 13 0 0 1 18.39-.12zm-17.67.75a13.59 13.59 0 0 0-3.33 9.3 13.81 13.81 0 0 0 2.82 8.7L444.39 263a11.88 11.88 0 0 0-17 .06zm8.52 22.2a11.53 11.53 0 0 0 8.52-3.6 13.58 13.58 0 0 0 3.33-9.3 13.82 13.82 0 0 0-2.82-8.7l-17.49 18.06a11.46 11.46 0 0 0 8.46 3.54zM454.92 258.83h7.86a10.6 10.6 0 0 1 6.75 2.13 7.09 7.09 0 0 1 0 11 9.48 9.48 0 0 1-4.11 1.86l7.59 12h-1.23L464.43 274a15.3 15.3 0 0 1-1.65.09h-6.87v11.7h-1zm1 14.4h6.87a9.56 9.56 0 0 0 6-1.89 6.17 6.17 0 0 0 0-9.72 9.56 9.56 0 0 0-6-1.89h-6.87zm9.81-21.81l-4.23 5.4h-.93l3.93-5.4zM477.48 258.83h7.86a10.6 10.6 0 0 1 6.75 2.13 7.09 7.09 0 0 1 0 11 9.48 9.48 0 0 1-4.11 1.86l7.59 12h-1.23L487 274a15.3 15.3 0 0 1-1.65.09h-6.87v11.7h-1zm1 14.4h6.87a9.57 9.57 0 0 0 6-1.89 6.17 6.17 0 0 0 0-9.72 9.57 9.57 0 0 0-6-1.89h-6.87zm11.16-21.81l-4.74 5.4h-1.35l-4.74-5.4h1l4.41 4.68 4.44-4.68zM500.4 281.36a6.07 6.07 0 0 0 1.65 2.07 9.3 9.3 0 0 0 5.88 1.8 9.58 9.58 0 0 0 6-1.71 6.05 6.05 0 0 0 2.19-4.77 5.85 5.85 0 0 0-4.68-5.76l-6.72-.54a7 7 0 0 1-5.61-6.78 6.69 6.69 0 0 1 2.34-5.25 11.67 11.67 0 0 1 12.87.09 6.58 6.58 0 0 1 1.53 1.77l-.9.42a6 6 0 0 0-1.35-1.53 10.48 10.48 0 0 0-11.43-.09 5.77 5.77 0 0 0-2.07 4.59 6 6 0 0 0 4.8 5.88l6.72.54a6.81 6.81 0 0 1 5.49 6.66 6.9 6.9 0 0 1-2.43 5.43 10.64 10.64 0 0 1-6.75 2 10.28 10.28 0 0 1-6.57-2.07 7 7 0 0 1-1.86-2.25zm11.6-29.94l-4.23 5.4h-.93l3.93-5.4zM523.59 281.36a6.07 6.07 0 0 0 1.65 2.07 9.3 9.3 0 0 0 5.88 1.8 9.58 9.58 0 0 0 6-1.71 6.05 6.05 0 0 0 2.19-4.77 5.85 5.85 0 0 0-4.68-5.76l-6.72-.54a7 7 0 0 1-5.61-6.78 6.69 6.69 0 0 1 2.34-5.25 11.67 11.67 0 0 1 12.87.09 6.58 6.58 0 0 1 1.53 1.77l-.9.42a6 6 0 0 0-1.35-1.53 10.48 10.48 0 0 0-11.43-.09 5.77 5.77 0 0 0-2.07 4.59 6 6 0 0 0 4.8 5.88l6.72.54a6.81 6.81 0 0 1 5.49 6.66 6.9 6.9 0 0 1-2.43 5.43 10.64 10.64 0 0 1-6.75 2 10.28 10.28 0 0 1-6.57-2.07 7 7 0 0 1-1.86-2.25zm13-29.94l-4.74 5.4h-1.35l-4.74-5.4h1l4.41 4.68 4.44-4.68zM554.31 295.1a6.12 6.12 0 0 1-4.23-1.41l.54-.54a5.29 5.29 0 0 0 3.69 1.23c1.89 0 4.38-.75 4.38-2.73s-2.49-2.76-4.38-2.76h-.72l.3-2.76a10.07 10.07 0 0 1-6.15-2.07 7 7 0 0 1-1.86-2.25l.9-.45a6.07 6.07 0 0 0 1.65 2.07 9.3 9.3 0 0 0 5.88 1.8 9.58 9.58 0 0 0 6-1.71 6.05 6.05 0 0 0 2.19-4.77 5.85 5.85 0 0 0-4.68-5.76l-6.72-.54a7 7 0 0 1-5.61-6.78 6.69 6.69 0 0 1 2.34-5.25 11.67 11.67 0 0 1 12.87.09 6.58 6.58 0 0 1 1.53 1.77l-.9.42a6 6 0 0 0-1.35-1.53 10.48 10.48 0 0 0-11.43-.09 5.77 5.77 0 0 0-2.07 4.59 6 6 0 0 0 4.8 5.88l6.72.54a6.81 6.81 0 0 1 5.49 6.66 6.9 6.9 0 0 1-2.43 5.43 10.39 10.39 0 0 1-6.45 2l-.21 2c2.31 0 5.07 1.08 5.07 3.48s-2.82 3.44-5.16 3.44zM566.7 258.83H586v.9h-9.12v26.1h-1v-26.1h-9.18zm15.06-7.41l-4.74 5.4h-1.35l-4.77-5.4h1l4.44 4.68 4.44-4.68zM597 295.1a6.12 6.12 0 0 1-4.23-1.41l.54-.54a5.29 5.29 0 0 0 3.69 1.23c1.89 0 4.38-.75 4.38-2.73s-2.49-2.76-4.38-2.76h-.72l.33-3.06h-.09v-26.1h-9.15v-.9h19.26v.9h-9.12v26.1h-.18l-.24 2.34c2.31 0 5.07 1.08 5.07 3.48s-2.82 3.45-5.16 3.45zM49.38 323.59a7.59 7.59 0 0 1-2.7 5.79 10.74 10.74 0 0 1-6.93 2.25 10.82 10.82 0 0 1-7-2.25 7.59 7.59 0 0 1-2.7-5.79v-19.26h1v19.26a6.67 6.67 0 0 0 2.43 5.13 9.66 9.66 0 0 0 6.24 2 9.58 9.58 0 0 0 6.21-2 6.67 6.67 0 0 0 2.43-5.13v-19.26h1zM36.9 296.92l3.93 5.4h-.93l-4.23-5.4zM75.69 323.59a7.59 7.59 0 0 1-2.7 5.79 10.74 10.74 0 0 1-6.93 2.25 10.82 10.82 0 0 1-7-2.25 7.59 7.59 0 0 1-2.7-5.79v-19.26h1v19.26a6.67 6.67 0 0 0 2.43 5.13 10.64 10.64 0 0 0 12.45 0 6.67 6.67 0 0 0 2.43-5.13v-19.26h1zm-5.58-26.67l-4.23 5.4H65l3.93-5.4zM102 323.59a7.59 7.59 0 0 1-2.7 5.79 11.84 11.84 0 0 1-13.89 0 7.59 7.59 0 0 1-2.7-5.79v-19.26h1v19.26a6.67 6.67 0 0 0 2.43 5.13 10.64 10.64 0 0 0 12.45 0 6.67 6.67 0 0 0 2.43-5.13v-19.26h1zm-14.07-21.27h-1l4.74-5.4H93l4.77 5.4h-1l-4.41-4.71zM128.31 323.59a7.59 7.59 0 0 1-2.7 5.79 11.84 11.84 0 0 1-13.89 0 7.59 7.59 0 0 1-2.7-5.79v-19.26h1v19.26a6.67 6.67 0 0 0 2.43 5.13 10.64 10.64 0 0 0 12.45 0 6.67 6.67 0 0 0 2.43-5.13v-19.26h1zm-13.41-25.32a.73.73 0 0 1 .78.75.76.76 0 0 1-.78.78.73.73 0 0 1-.75-.78.71.71 0 0 1 .75-.75zm7.53 0a.73.73 0 0 1 .78.75.78.78 0 1 1-1.56 0 .73.73 0 0 1 .78-.75zM154.62 323.59a7.59 7.59 0 0 1-2.7 5.79 11.84 11.84 0 0 1-13.89 0 7.59 7.59 0 0 1-2.7-5.79v-19.26h1v19.26a6.67 6.67 0 0 0 2.43 5.13 10.64 10.64 0 0 0 12.45 0 6.67 6.67 0 0 0 2.43-5.13v-19.26h1zm-10.23-26.67h1.2l-3.93 5.4h-.9zm7.47 0l-3.93 5.4H147l3.6-5.4zM180.93 323.59a7.59 7.59 0 0 1-2.7 5.79 11.84 11.84 0 0 1-13.89 0 7.59 7.59 0 0 1-2.7-5.79v-19.26h1v19.26a6.67 6.67 0 0 0 2.43 5.13 10.64 10.64 0 0 0 12.45 0 6.67 6.67 0 0 0 2.43-5.13v-19.26h1zm-7.38-26.13a3 3 0 0 1 0 4.32 3.23 3.23 0 0 1-2.25.84 3.3 3.3 0 0 1-2.28-.84 3.12 3.12 0 0 1 0-4.32 3.3 3.3 0 0 1 2.28-.84 3.23 3.23 0 0 1 2.25.84zm-2.25-.24a2.4 2.4 0 1 0 2.49 2.4 2.39 2.39 0 0 0-2.49-2.4zM186.51 304.33l9.57 15.57 9.57-15.57h1.11l-10.2 16.59v10.41h-1v-10.41l-10.2-16.59zm13.62-7.41l-4.23 5.4h-.9l3.93-5.4zM209.7 304.33l9.57 15.57 9.57-15.57h1.11l-10.2 16.59v10.41h-1v-10.41l-10.2-16.59zm5.79-6.06a.73.73 0 0 1 .78.75.76.76 0 0 1-.78.78.73.73 0 0 1-.75-.78.71.71 0 0 1 .75-.75zm7.53 0a.71.71 0 0 1 .75.75.73.73 0 0 1-.75.78.76.76 0 0 1-.78-.78.73.73 0 0 1 .76-.75zM232.53 304.33h19.41v1.2l-18.42 24.9h18.42v.9h-19.41v-1.2l18.42-24.9h-18.42zm13.77-7.41l-4.23 5.4h-.93l3.93-5.4zM255.3 304.33h19.41v1.2l-18.42 24.9h18.42v.9H255.3v-1.2l18.42-24.9H255.3zm15.12-7.41l-4.74 5.4h-1.35l-4.74-5.4h1l4.41 4.68 4.44-4.68zM278.07 304.33h19.41v1.2l-18.42 24.9h18.42v.9h-19.41v-1.2l18.42-24.9h-18.42zm9.69-6.06a.73.73 0 0 1 .78.75.76.76 0 0 1-.78.78.73.73 0 0 1-.76-.8.71.71 0 0 1 .76-.73zM302.76 304.33h1v5h6.87a11 11 0 0 1 6.75 2 6.42 6.42 0 0 1 0 10.38 11 11 0 0 1-6.75 2h-6.87v7.65h-1zm1 18.45h6.87a9.9 9.9 0 0 0 6-1.77 5.51 5.51 0 0 0 0-9.06 9.9 9.9 0 0 0-6-1.77h-6.87zM36.72 359a8.26 8.26 0 0 1 5.61 2 6.93 6.93 0 0 1 2.16 5.16v10.68h-1v-2.76a5.19 5.19 0 0 1-1.38 1.53 9 9 0 0 1-5.4 1.53 9.57 9.57 0 0 1-5.58-1.53 5 5 0 0 1-2.19-4 4.93 4.93 0 0 1 2.19-3.93 9.59 9.59 0 0 1 5.58-1.56 9 9 0 0 1 5.4 1.56 5.08 5.08 0 0 1 1.38 1.5v-3.06a6.05 6.05 0 0 0-1.89-4.5 7.08 7.08 0 0 0-4.89-1.77 7 7 0 0 0-5.46 2.37l-.75-.6a8.13 8.13 0 0 1 6.22-2.62zm-4.89 9.36a3.83 3.83 0 0 0 0 6.6 8.74 8.74 0 0 0 4.89 1.29 8.74 8.74 0 0 0 4.89-1.29 3.83 3.83 0 0 0 0-6.6 8.74 8.74 0 0 0-4.89-1.29 8.74 8.74 0 0 0-4.89 1.27zm2.07-18.27l3.9 5.4h-.9l-4.23-5.4zM57.81 359a8.26 8.26 0 0 1 5.61 2 6.93 6.93 0 0 1 2.16 5.16v10.68h-1v-2.76a5.19 5.19 0 0 1-1.38 1.53 9 9 0 0 1-5.4 1.53 9.57 9.57 0 0 1-5.58-1.53 5 5 0 0 1-2.19-4 4.93 4.93 0 0 1 2.19-3.93 9.59 9.59 0 0 1 5.58-1.56 9 9 0 0 1 5.4 1.56 5.08 5.08 0 0 1 1.38 1.5v-3.06a6.05 6.05 0 0 0-1.89-4.5 7.55 7.55 0 0 0-10.35.6l-.75-.6a8.13 8.13 0 0 1 6.22-2.62zm-4.89 9.36a3.83 3.83 0 0 0 0 6.6 8.74 8.74 0 0 0 4.89 1.29 8.74 8.74 0 0 0 4.89-1.29 3.83 3.83 0 0 0 0-6.6 8.74 8.74 0 0 0-4.89-1.29 8.74 8.74 0 0 0-4.89 1.27zm9-18.27l-4.23 5.4h-.93l3.9-5.4zM78.9 359a8.26 8.26 0 0 1 5.61 2 6.93 6.93 0 0 1 2.16 5.16v10.68h-1v-2.76a5.19 5.19 0 0 1-1.38 1.53 9 9 0 0 1-5.4 1.53 9.57 9.57 0 0 1-5.58-1.53 5 5 0 0 1-2.19-4 4.93 4.93 0 0 1 2.19-3.93 9.59 9.59 0 0 1 5.58-1.56 9 9 0 0 1 5.4 1.56 5.08 5.08 0 0 1 1.38 1.5v-3.06a6 6 0 0 0-1.89-4.5 7.55 7.55 0 0 0-10.35.6l-.75-.6A8.13 8.13 0 0 1 78.9 359zm-4.9 9.34a3.83 3.83 0 0 0 0 6.6 9.91 9.91 0 0 0 9.78 0 3.83 3.83 0 0 0 0-6.6 9.91 9.91 0 0 0-9.78 0zm.45-12.87h-1l4.77-5.4h1.35l4.74 5.4h-1l-4.44-4.68zM100 359a8.26 8.26 0 0 1 5.61 2 6.93 6.93 0 0 1 2.16 5.16v10.68h-1v-2.76a5.19 5.19 0 0 1-1.38 1.53 9 9 0 0 1-5.4 1.53 9.57 9.57 0 0 1-5.58-1.53 5 5 0 0 1-2.19-4 4.93 4.93 0 0 1 2.19-3.93 9.59 9.59 0 0 1 5.58-1.56 9 9 0 0 1 5.4 1.56 5.08 5.08 0 0 1 1.38 1.5v-3.06a6 6 0 0 0-1.89-4.5 7.55 7.55 0 0 0-10.35.6l-.75-.6A8.13 8.13 0 0 1 100 359zm-4.89 9.36a3.83 3.83 0 0 0 0 6.6 9.91 9.91 0 0 0 9.78 0 3.83 3.83 0 0 0 0-6.6 9.91 9.91 0 0 0-9.78 0zm-.87-13a3.76 3.76 0 0 1 1.08-2.7 4 4 0 0 1 2.82-1.08c1.65 0 2.1 2.58 3.75 2.58a3.21 3.21 0 0 0 2.22-.84 3 3 0 0 0 .87-2.13h.81a3.86 3.86 0 0 1-1.11 2.73 4 4 0 0 1-2.79 1c-1.65 0-2.1-2.58-3.75-2.58a3.28 3.28 0 0 0-2.25.84 3 3 0 0 0-.87 2.13zM121.08 359a8.26 8.26 0 0 1 5.61 2 6.93 6.93 0 0 1 2.16 5.16v10.68h-1v-2.76a5.19 5.19 0 0 1-1.38 1.53 9 9 0 0 1-5.4 1.53 9.57 9.57 0 0 1-5.58-1.53 5 5 0 0 1-2.19-4 4.93 4.93 0 0 1 2.19-3.93 9.59 9.59 0 0 1 5.58-1.56 9 9 0 0 1 5.4 1.56 5.08 5.08 0 0 1 1.38 1.5v-3.06a6 6 0 0 0-1.89-4.5 7.55 7.55 0 0 0-10.35.6l-.75-.6a8.13 8.13 0 0 1 6.22-2.62zm-4.89 9.36a3.83 3.83 0 0 0 0 6.6 9.91 9.91 0 0 0 9.78 0 3.83 3.83 0 0 0 0-6.6 9.91 9.91 0 0 0-9.78 0zm1.14-16.92a.76.76 0 0 1 .78.78.78.78 0 0 1-1.56 0 .76.76 0 0 1 .78-.8zm7.53 0a.73.73 0 0 1 .75.78.71.71 0 0 1-.75.75.73.73 0 0 1-.78-.75.76.76 0 0 1 .78-.8zM142.17 359a8.26 8.26 0 0 1 5.61 2 6.93 6.93 0 0 1 2.16 5.16v10.68h-1v-2.76a5.19 5.19 0 0 1-1.38 1.53 9 9 0 0 1-5.4 1.53 9.57 9.57 0 0 1-5.58-1.53 5 5 0 0 1-2.19-4 4.93 4.93 0 0 1 2.19-3.93 9.59 9.59 0 0 1 5.58-1.56 9 9 0 0 1 5.4 1.56 5.08 5.08 0 0 1 1.38 1.5v-3.06a6.05 6.05 0 0 0-1.89-4.5 7.55 7.55 0 0 0-10.35.6l-.75-.6a8.13 8.13 0 0 1 6.22-2.62zm-4.89 9.36a3.83 3.83 0 0 0 0 6.6 9.91 9.91 0 0 0 9.78 0 3.83 3.83 0 0 0 0-6.6 9.91 9.91 0 0 0-9.78 0zm7.17-17.73a3.12 3.12 0 0 1 0 4.32 3.3 3.3 0 0 1-2.28.84 3.23 3.23 0 0 1-2.25-.84 3 3 0 0 1 0-4.32 3.23 3.23 0 0 1 2.25-.84 3.3 3.3 0 0 1 2.28.82zm-2.28-.24a2.4 2.4 0 1 0 2.49 2.4 2.39 2.39 0 0 0-2.49-2.42zM163.26 359a8.26 8.26 0 0 1 5.61 2 6.93 6.93 0 0 1 2.16 5.16v10.68h-1v-2.76a5.19 5.19 0 0 1-1.38 1.53 9 9 0 0 1-5.4 1.53 9.57 9.57 0 0 1-5.58-1.53 5 5 0 0 1-2.19-4 4.93 4.93 0 0 1 2.19-3.93 9.59 9.59 0 0 1 5.58-1.56 9 9 0 0 1 5.4 1.56 5.08 5.08 0 0 1 1.38 1.5v-3.06a6.05 6.05 0 0 0-1.89-4.5 7.55 7.55 0 0 0-10.35.6l-.75-.6a8.13 8.13 0 0 1 6.22-2.62zm-4.89 9.36a3.83 3.83 0 0 0 0 6.6 9.91 9.91 0 0 0 9.78 0 3.83 3.83 0 0 0 0-6.6 9.91 9.91 0 0 0-9.78 0zm9.06-14.64a9 9 0 0 1-4.17.81 8.89 8.89 0 0 1-4.14-.81 2.53 2.53 0 0 1-1.62-2.1h.78c0 .75.69 1.23 1.41 1.53a9 9 0 0 0 3.57.6 9.17 9.17 0 0 0 3.6-.6c.72-.3 1.38-.78 1.38-1.53h.76a2.53 2.53 0 0 1-1.57 2.08zM178.89 362.25l-.75-.6a8.13 8.13 0 0 1 6.21-2.67 8.26 8.26 0 0 1 5.61 2 6.93 6.93 0 0 1 2.16 5.16v10.23l.09.45-2.85 2.88c-1.14 1.08-3.33 1.26-3.33 2.94 0 2 2.46 2.73 4.35 2.73a5.73 5.73 0 0 0 3.33-.9l.42.63a6.52 6.52 0 0 1-3.75 1c-2.34 0-5.16-1-5.16-3.45 0-2 2.61-2.34 4-3.66l2.16-2.16h-.24v-2.76a5.19 5.19 0 0 1-1.38 1.53 9 9 0 0 1-5.4 1.53 9.57 9.57 0 0 1-5.58-1.53 5 5 0 0 1-2.19-4 4.93 4.93 0 0 1 2.19-3.93 9.59 9.59 0 0 1 5.58-1.56 9 9 0 0 1 5.4 1.56 5.08 5.08 0 0 1 1.38 1.5v-3.06a6.05 6.05 0 0 0-1.89-4.5 7.55 7.55 0 0 0-10.35.6zm.57 6.09a3.83 3.83 0 0 0 0 6.6 9.91 9.91 0 0 0 9.78 0 3.83 3.83 0 0 0 0-6.6 9.91 9.91 0 0 0-9.78 0zM223.92 372.87l.87.45a7.29 7.29 0 0 1-1.29 1.74 7.69 7.69 0 0 1-5.43 2.07 7.05 7.05 0 0 1-5.43-2.55 7.52 7.52 0 0 1-1.23-2 5.25 5.25 0 0 1-1.83 3 7.66 7.66 0 0 1-4.89 1.53 7.75 7.75 0 0 1-4.92-1.53 5.11 5.11 0 0 1-1.92-4 5.05 5.05 0 0 1 1.92-3.93 7.77 7.77 0 0 1 4.92-1.56 7.23 7.23 0 0 1 4.68 1.56 5.48 5.48 0 0 1 1.14 1.35v-2.91a6.51 6.51 0 0 0-1.62-4.5 5.66 5.66 0 0 0-4.2-1.77 5.75 5.75 0 0 0-4.68 2.34l-.78-.57a6.78 6.78 0 0 1 5.46-2.67 6.58 6.58 0 0 1 4.89 2 6.77 6.77 0 0 1 1.65 3 8.59 8.59 0 0 1 1.41-2.43 7.06 7.06 0 0 1 10.86 0 10.14 10.14 0 0 1 2.13 6.54v.45H211.5a9 9 0 0 0 1.83 5.43 6.08 6.08 0 0 0 4.74 2.28 6.52 6.52 0 0 0 5.85-3.32zm-23.43-4.53a4.12 4.12 0 0 0 0 6.6 7.48 7.48 0 0 0 8.4 0 4.17 4.17 0 0 0 0-6.6 7.48 7.48 0 0 0-8.4 0zm22.32-6.18a6.07 6.07 0 0 0-9.48 0 9 9 0 0 0-1.83 5.43h13.14a9 9 0 0 0-1.83-5.43zM245.25 374.58a9.17 9.17 0 0 1-12.69 0 9.88 9.88 0 0 1 0-13 9.17 9.17 0 0 1 12.69 0 8.55 8.55 0 0 1 1.47 2.1l-.87.45a7.53 7.53 0 0 0-1.32-1.92 8.08 8.08 0 0 0-11.25 0 9 9 0 0 0 0 11.79 8.08 8.08 0 0 0 11.25 0 7.55 7.55 0 0 0 1.32-1.92l.87.45a8.55 8.55 0 0 1-1.47 2.05zM243 350.07l-4.23 5.4h-.93l3.93-5.4zM266.67 374.58a9.17 9.17 0 0 1-12.69 0 9.88 9.88 0 0 1 0-13 9.17 9.17 0 0 1 12.69 0 8.55 8.55 0 0 1 1.47 2.1l-.87.45a7.53 7.53 0 0 0-1.32-1.92 8.08 8.08 0 0 0-11.25 0 9 9 0 0 0 0 11.79 8.08 8.08 0 0 0 11.25 0 7.55 7.55 0 0 0 1.32-1.92l.87.45a8.55 8.55 0 0 1-1.47 2.05zm-.93-24.51l-4.74 5.4h-1.35l-4.74-5.4h1l4.41 4.68 4.44-4.68zM281.73 386.1a6.12 6.12 0 0 1-4.23-1.41l.54-.54a5.29 5.29 0 0 0 3.69 1.23c1.89 0 4.38-.75 4.38-2.73s-2.49-2.76-4.38-2.76H281l.3-2.76a8.73 8.73 0 0 1-5.91-2.55 9.88 9.88 0 0 1 0-13 9.17 9.17 0 0 1 12.69 0 8.55 8.55 0 0 1 1.47 2.1l-.87.45a7.53 7.53 0 0 0-1.32-1.92 8.08 8.08 0 0 0-11.25 0 9 9 0 0 0 0 11.79 8.08 8.08 0 0 0 11.25 0 7.55 7.55 0 0 0 1.32-1.92l.87.45a8.55 8.55 0 0 1-1.47 2.1 8.76 8.76 0 0 1-6.06 2.55l-.21 2c2.31 0 5.07 1.08 5.07 3.48s-2.81 3.44-5.15 3.44zM310.62 376.83v-4.89a8.69 8.69 0 0 1-1.65 2.64 8 8 0 0 1-6 2.55 8.45 8.45 0 0 1-6.18-2.55 10 10 0 0 1 0-13A8.45 8.45 0 0 1 303 359a8 8 0 0 1 6 2.55 8.69 8.69 0 0 1 1.65 2.64v-15.86h1v28.5zm-13.14-14.67a9.22 9.22 0 0 0 0 11.79 7.75 7.75 0 0 0 11 0 9.12 9.12 0 0 0 0-11.79 7.75 7.75 0 0 0-11 0zm20.79-13.83l-3.6 8.76h-.78l3.36-8.76zM322.5 355l6.27-2.07a23.42 23.42 0 0 0-5.79-4.59h1.41a22.8 22.8 0 0 1 5.25 4.29l5.82-1.92v1l-5.19 1.71a23 23 0 0 1 5.34 14.7 9.13 9.13 0 0 1-2.55 6.51 9.78 9.78 0 0 1-13.17 0 9.62 9.62 0 0 1 0-13 9.32 9.32 0 0 1 6.57-2.55 8.78 8.78 0 0 1 6.36 2.55 8.34 8.34 0 0 1 1.26 1.65 22.76 22.76 0 0 0-4.68-9.54l-6.9 2.28zm9.84 7.17a8.68 8.68 0 0 0-11.73 0 8.76 8.76 0 0 0 0 11.79 8.68 8.68 0 0 0 11.73 0 8.76 8.76 0 0 0 0-11.79zM355.92 375.06a9.82 9.82 0 0 1-6.36 2.07 8.72 8.72 0 0 1-6.33-2.55 9.79 9.79 0 0 1 0-13 9.17 9.17 0 0 1 12.69 0 9.33 9.33 0 0 1 2.49 6.54v.45h-16.68a8.28 8.28 0 0 0 2.19 5.43 7.72 7.72 0 0 0 5.64 2.28 8.62 8.62 0 0 0 5.64-1.83 6.25 6.25 0 0 0 1.35-1.59l.84.51a6.78 6.78 0 0 1-1.47 1.69zm-.72-12.9a8.11 8.11 0 0 0-11.28 0 8.28 8.28 0 0 0-2.19 5.43h15.66a8.28 8.28 0 0 0-2.19-5.43zm-8.46-12.09l3.93 5.4h-.93l-4.23-5.4zM378.06 375.06a9.82 9.82 0 0 1-6.36 2.07 8.71 8.71 0 0 1-6.33-2.55 9.79 9.79 0 0 1 0-13 9.17 9.17 0 0 1 12.69 0 9.33 9.33 0 0 1 2.49 6.54v.45h-16.68a8.28 8.28 0 0 0 2.19 5.43 7.72 7.72 0 0 0 5.64 2.28 8.62 8.62 0 0 0 5.64-1.83 6.25 6.25 0 0 0 1.35-1.59l.84.51a6.78 6.78 0 0 1-1.47 1.69zm-.72-12.9a8.12 8.12 0 0 0-11.28 0 8.28 8.28 0 0 0-2.19 5.43h15.66a8.28 8.28 0 0 0-2.19-5.43zm-1.56-12.09l-4.23 5.4h-.93l3.93-5.4zM400.2 375.06a9.82 9.82 0 0 1-6.36 2.07 8.71 8.71 0 0 1-6.33-2.55 9.79 9.79 0 0 1 0-13 9.17 9.17 0 0 1 12.69 0 9.33 9.33 0 0 1 2.49 6.54v.45H386a8.28 8.28 0 0 0 2.2 5.43 7.72 7.72 0 0 0 5.64 2.28 8.62 8.62 0 0 0 5.64-1.83 6.25 6.25 0 0 0 1.35-1.59l.84.51a6.78 6.78 0 0 1-1.47 1.69zm-.72-12.9a8.12 8.12 0 0 0-11.28 0 8.28 8.28 0 0 0-2.19 5.43h15.66a8.28 8.28 0 0 0-2.19-5.43zm-10-6.69h-1l4.74-5.4h1.35l4.74 5.4h-1l-4.44-4.68zM422.34 375.06a9.82 9.82 0 0 1-6.36 2.07 8.71 8.71 0 0 1-6.33-2.55 9.79 9.79 0 0 1 0-13 9.17 9.17 0 0 1 12.69 0 9.33 9.33 0 0 1 2.49 6.54v.45h-16.68a8.28 8.28 0 0 0 2.19 5.43 7.72 7.72 0 0 0 5.64 2.28 8.62 8.62 0 0 0 5.64-1.83 6.25 6.25 0 0 0 1.35-1.59l.84.51a6.78 6.78 0 0 1-1.47 1.69zm-.72-12.9a8.12 8.12 0 0 0-11.28 0 8.28 8.28 0 0 0-2.19 5.43h15.66a8.28 8.28 0 0 0-2.19-5.43zm-10-6.69h-1l4.74-5.4h1.35l4.74 5.4h-1l-4.45-4.68zM444.48 375.06a9.82 9.82 0 0 1-6.36 2.07 8.71 8.71 0 0 1-6.33-2.55 9.79 9.79 0 0 1 0-13 9.17 9.17 0 0 1 12.69 0 9.33 9.33 0 0 1 2.49 6.54v.45h-16.68a8.28 8.28 0 0 0 2.19 5.43 7.72 7.72 0 0 0 5.64 2.28 8.62 8.62 0 0 0 5.64-1.83 6.25 6.25 0 0 0 1.35-1.59l.84.51a6.78 6.78 0 0 1-1.47 1.69zm-.72-12.9a8.12 8.12 0 0 0-11.28 0 8.28 8.28 0 0 0-2.19 5.43h15.66a8.28 8.28 0 0 0-2.19-5.43zm-.21-12.09l-4.74 5.4h-1.35l-4.74-5.4h1l4.41 4.68 4.44-4.68zM454.14 382.65c0-2 2.61-2.34 4-3.66l1.86-1.86a8.76 8.76 0 0 1-6.06-2.55 9.79 9.79 0 0 1 0-13 9.17 9.17 0 0 1 12.69 0 9.33 9.33 0 0 1 2.49 6.54v.45h-16.69a8.28 8.28 0 0 0 2.19 5.43 7.72 7.72 0 0 0 5.64 2.28h.63l.12-.09v.09a8.5 8.5 0 0 0 4.89-1.8 6.25 6.25 0 0 0 1.35-1.59l.84.51a6.78 6.78 0 0 1-1.47 1.74 9.6 9.6 0 0 1-5.79 2.07l-2.58 2.58c-1.14 1.08-3.3 1.26-3.3 2.94 0 2 2.46 2.73 4.35 2.73a5.73 5.73 0 0 0 3.33-.9l.42.63a6.52 6.52 0 0 1-3.75 1c-2.3-.09-5.16-1.11-5.16-3.54zm11.76-20.49a8.12 8.12 0 0 0-11.28 0 8.28 8.28 0 0 0-2.19 5.43h15.66a8.28 8.28 0 0 0-2.19-5.43zM473 350.07l3.93 5.4H476l-4.23-5.4zm2.34 9.21h1v17.55h-1zM489.27 350.07l-4.23 5.4h-.93l3.93-5.4zm-4.56 9.21h1v17.55h-1zM490.1 355.47h-1l4.74-5.4h1.35l4.74 5.4h-1l-4.41-4.68zm3.93 3.81h1v17.55h-1zM500.09 351.42a.76.76 0 0 1 .78.78.73.73 0 0 1-.78.75.71.71 0 0 1-.75-.75.73.73 0 0 1 .75-.78zm3.27 7.86h1v17.55h-1zm4.26-7.86a.73.73 0 0 1 .75.78.71.71 0 0 1-.75.75.73.73 0 0 1-.78-.75.76.76 0 0 1 .78-.78zM514 359.28v17.55h-1v-17.55zm.39-7.89a.73.73 0 0 1 .78.75.78.78 0 1 1-1.56 0 .73.73 0 0 1 .77-.75zm5.94 33.84a5.12 5.12 0 0 0 3.39-1.17 4 4 0 0 0 1.32-3v-21.78h1V381a4.81 4.81 0 0 1-1.59 3.66 6.14 6.14 0 0 1-4.11 1.44 6 6 0 0 1-4.26-1.59l.66-.69a5 5 0 0 0 3.57 1.41zm4.35-33.84a.71.71 0 0 1 .75.75.73.73 0 0 1-.75.78.76.76 0 0 1-.78-.78.73.73 0 0 1 .76-.75zM34.62 386.69l-4.23 5.4h-.93l3.9-5.4zm-4.83 7.14h1v28.5h-1zM37.17 393.83h1v28.5h-1zm7.65 0l-3.6 8.76h-.78l3.36-8.76zM46.35 393.83h1v12l4.44-2.55v1l-4.44 2.58v15.42h-1v-14.8L41.91 410v-1l4.44-2.55zM55.56 404.78h1V408a5.85 5.85 0 0 1 1.71-1.83 10.61 10.61 0 0 1 6.18-1.68 6.5 6.5 0 0 1 4.5 1.68 5.9 5.9 0 0 1 1.74 4.32v11.85h-1v-11.86a5.09 5.09 0 0 0-1.47-3.69 5.43 5.43 0 0 0-3.78-1.41 10.36 10.36 0 0 0-5.67 1.41 4.54 4.54 0 0 0-2.22 3.69v11.85h-1zm11.64-9.21L63 401h-1l3.93-5.4zM76.86 404.78h1V408a5.85 5.85 0 0 1 1.71-1.83 10.61 10.61 0 0 1 6.18-1.68 6.5 6.5 0 0 1 4.5 1.68 5.9 5.9 0 0 1 1.75 4.31v11.85h-1v-11.85a5.09 5.09 0 0 0-1.47-3.69 5.43 5.43 0 0 0-3.78-1.41 10.36 10.36 0 0 0-5.67 1.41 4.54 4.54 0 0 0-2.22 3.69v11.85h-1zm1.8-4a3.76 3.76 0 0 1 1.08-2.7 4 4 0 0 1 2.82-1.08c1.65 0 2.1 2.58 3.75 2.58a3.21 3.21 0 0 0 2.22-.84 3 3 0 0 0 .87-2.13h.81a3.86 3.86 0 0 1-1.11 2.73 4 4 0 0 1-2.79 1c-1.65 0-2.1-2.58-3.75-2.58a3.28 3.28 0 0 0-2.25.84 3 3 0 0 0-.87 2.13zM98.16 404.78h1V408a5.85 5.85 0 0 1 1.71-1.83 10.61 10.61 0 0 1 6.18-1.68 6.5 6.5 0 0 1 4.5 1.68 5.9 5.9 0 0 1 1.74 4.32v11.85h-1v-11.86a5.09 5.09 0 0 0-1.47-3.69 5.43 5.43 0 0 0-3.78-1.41 10.36 10.36 0 0 0-5.67 1.41 4.54 4.54 0 0 0-2.22 3.69v11.85h-1zm13-9.21l-4.74 5.4h-1.35l-4.77-5.4h1l4.41 4.68 4.44-4.68zM129.72 430.73a3.76 3.76 0 0 0 2.79-1.17 4.42 4.42 0 0 0 1.08-3v-16a5.09 5.09 0 0 0-1.47-3.69 5.43 5.43 0 0 0-3.78-1.41 10.36 10.36 0 0 0-5.67 1.41 4.54 4.54 0 0 0-2.22 3.69v11.85h-1v-17.63h1V408a5.85 5.85 0 0 1 1.71-1.83 10.61 10.61 0 0 1 6.18-1.68 6.5 6.5 0 0 1 4.5 1.68 5.9 5.9 0 0 1 1.74 4.32v16a5.27 5.27 0 0 1-1.35 3.66 5 5 0 0 1-7.14-.15l.72-.63a3.76 3.76 0 0 0 2.91 1.36zM155.1 407a9.79 9.79 0 0 1 0 13 9.17 9.17 0 0 1-12.69 0 9.79 9.79 0 0 1 0-13 9.17 9.17 0 0 1 12.69 0zm-12 .63a9 9 0 0 0 0 11.79 8.11 8.11 0 0 0 11.28 0 8.93 8.93 0 0 0 0-11.79 8.11 8.11 0 0 0-11.28 0zm2.82-12.09l3.93 5.4h-.93l-4.23-5.4zM177.45 407a9.79 9.79 0 0 1 0 13 9.17 9.17 0 0 1-12.69 0 9.79 9.79 0 0 1 0-13 9.17 9.17 0 0 1 12.69 0zm-12 .63a9 9 0 0 0 0 11.79 8.11 8.11 0 0 0 11.28 0 8.93 8.93 0 0 0 0-11.79 8.11 8.11 0 0 0-11.28 0zm9.72-12.09l-4.23 5.4H170l3.93-5.4zM199.8 407a9.79 9.79 0 0 1 0 13 9.17 9.17 0 0 1-12.69 0 9.79 9.79 0 0 1 0-13 9.17 9.17 0 0 1 12.69 0zm-12 .63a9 9 0 0 0 0 11.79 8.11 8.11 0 0 0 11.28 0 8.93 8.93 0 0 0 0-11.79 8.11 8.11 0 0 0-11.28 0zM189 401h-1l4.74-5.4h1.35l4.74 5.4h-1l-4.44-4.68zM222.15 407a9.79 9.79 0 0 1 0 13 9.17 9.17 0 0 1-12.69 0 9.79 9.79 0 0 1 0-13 9.17 9.17 0 0 1 12.69 0zm-12 .63a9 9 0 0 0 0 11.79 8.11 8.11 0 0 0 11.28 0 8.93 8.93 0 0 0 0-11.79 8.11 8.11 0 0 0-11.28 0zm-.12-6.84a3.76 3.76 0 0 1 1.08-2.7 4 4 0 0 1 2.82-1.08c1.65 0 2.1 2.58 3.75 2.58a3.21 3.21 0 0 0 2.22-.84 3 3 0 0 0 .87-2.13h.81a3.86 3.86 0 0 1-1.11 2.73 4 4 0 0 1-2.79 1c-1.65 0-2.1-2.58-3.75-2.58a3.28 3.28 0 0 0-2.25.84 3 3 0 0 0-.87 2.13zM244.5 407a9.79 9.79 0 0 1 0 13 9.17 9.17 0 0 1-12.69 0 9.79 9.79 0 0 1 0-13 9.17 9.17 0 0 1 12.69 0zm-12 .63a9 9 0 0 0 0 11.79 8.11 8.11 0 0 0 11.28 0 8.93 8.93 0 0 0 0-11.79 8.11 8.11 0 0 0-11.28 0zm1.89-10.74a.76.76 0 0 1 .78.78.78.78 0 0 1-1.56 0 .76.76 0 0 1 .78-.75zm7.53 0a.73.73 0 0 1 .75.78.71.71 0 0 1-.75.75.73.73 0 0 1-.78-.75.76.76 0 0 1 .78-.75zM266.85 407a9.79 9.79 0 0 1 0 13 9.17 9.17 0 0 1-12.69 0 9.79 9.79 0 0 1 0-13 9.17 9.17 0 0 1 12.69 0zm-12 .63a9 9 0 0 0 0 11.79 8.11 8.11 0 0 0 11.28 0 8.93 8.93 0 0 0 0-11.79 8.11 8.11 0 0 0-11.28 0zm5-12.09h1.2l-3.9 5.4h-.9zm7.47 0l-3.9 5.4h-.9l3.6-5.4zM301.92 420.56a8 8 0 0 1-5.55 2.07 7.3 7.3 0 0 1-5.55-2.55 8.61 8.61 0 0 1-1.68-3.09 8.55 8.55 0 0 1-1.65 3.09 7.35 7.35 0 0 1-11.13 0 10.93 10.93 0 0 1 0-13 7.35 7.35 0 0 1 11.13 0 8.56 8.56 0 0 1 1.65 3.09 8.62 8.62 0 0 1 1.68-3.09 7.31 7.31 0 0 1 11.1 0 10 10 0 0 1 2.16 6.54v.38h-14.43a8.84 8.84 0 0 0 1.89 5.43 6.26 6.26 0 0 0 4.83 2.28 6.8 6.8 0 0 0 4.83-1.83 5.66 5.66 0 0 0 1.14-1.53l.87.45a6.57 6.57 0 0 1-1.29 1.76zm-24.84-12.9a10.14 10.14 0 0 0 0 11.79 6.29 6.29 0 0 0 9.69 0 10.14 10.14 0 0 0 0-11.79 6.29 6.29 0 0 0-9.69 0zm24.12 0a6.26 6.26 0 0 0-9.66 0 8.84 8.84 0 0 0-1.89 5.43h13.44a8.84 8.84 0 0 0-1.89-5.43zM323.61 406.91l2.19-2.13h1.26l-2.85 2.76a9.43 9.43 0 0 1 2 6 9.26 9.26 0 0 1-2.49 6.51 8.78 8.78 0 0 1-6.36 2.55 8.87 8.87 0 0 1-6.24-2.43l-2.19 2.13h-1.23l2.85-2.76A9.89 9.89 0 0 1 311 407a8.72 8.72 0 0 1 6.33-2.55 8.87 8.87 0 0 1 6.28 2.46zm-11.88.75a9.08 9.08 0 0 0-.48 11.22l11.67-11.31a8.12 8.12 0 0 0-11.19.09zm5.64 14.07a7.72 7.72 0 0 0 5.64-2.28 8.45 8.45 0 0 0 2.22-5.88 8.7 8.7 0 0 0-1.74-5.34l-11.67 11.31a7.77 7.77 0 0 0 5.55 2.19zM331.74 404.78h1V408a5.76 5.76 0 0 1 1.26-1.68 7.26 7.26 0 0 1 5-1.8 8.64 8.64 0 0 1 3.39.66l-.39.82a7.39 7.39 0 0 0-3-.6 6.75 6.75 0 0 0-4.5 1.56 5.27 5.27 0 0 0-1.77 4v11.4h-1zm9.72-9.21l-4.23 5.4h-.93l3.9-5.4zM345.48 404.78h1V408a5.76 5.76 0 0 1 1.26-1.68 7.26 7.26 0 0 1 5-1.8 8.65 8.65 0 0 1 3.39.66l-.36.84a7.39 7.39 0 0 0-3-.6 6.75 6.75 0 0 0-4.5 1.56 5.27 5.27 0 0 0-1.77 4v11.4h-1zm11.07-9.21l-4.74 5.4h-1.35l-4.77-5.4h1l4.44 4.68 4.44-4.68zM365.1 405.38a7.59 7.59 0 0 0-4.29 1 3.41 3.41 0 0 0-1.53 2.85 3.73 3.73 0 0 0 3.54 3.66l5.1.33a4.6 4.6 0 0 1 4.32 4.47 4.32 4.32 0 0 1-1.89 3.6 9.16 9.16 0 0 1-5.25 1.32c-2.7 0-5.55-1-6.66-3l.87-.45c.93 1.77 3.45 2.58 5.79 2.58a8.12 8.12 0 0 0 4.53-1.08 3.54 3.54 0 0 0 1.62-2.94 3.65 3.65 0 0 0-3.42-3.57l-5.1-.3a4.73 4.73 0 0 1-4.44-4.59 4.31 4.31 0 0 1 1.8-3.51 10.19 10.19 0 0 1 9.93.06 5 5 0 0 1 1.29 1.35l-.81.51c-.96-1.57-3.24-2.29-5.4-2.29zm4.08-9.81l-4.23 5.4H364l3.9-5.4zM383.25 405.38a7.59 7.59 0 0 0-4.29 1 3.41 3.41 0 0 0-1.53 2.85 3.73 3.73 0 0 0 3.54 3.66l5.1.33a4.6 4.6 0 0 1 4.32 4.47 4.32 4.32 0 0 1-1.89 3.6 9.16 9.16 0 0 1-5.25 1.32c-2.7 0-5.55-1-6.66-3l.87-.45c.93 1.77 3.45 2.58 5.79 2.58a8.12 8.12 0 0 0 4.53-1.08 3.54 3.54 0 0 0 1.62-2.94 3.65 3.65 0 0 0-3.42-3.57l-5.1-.3a4.73 4.73 0 0 1-4.44-4.59 4.31 4.31 0 0 1 1.8-3.51 10.19 10.19 0 0 1 9.93.06 5 5 0 0 1 1.29 1.35l-.81.51c-.96-1.57-3.24-2.29-5.4-2.29zm5.43-9.81l-4.77 5.4h-1.32l-4.77-5.4h1l4.44 4.68 4.44-4.68zM401.4 431.6a6.12 6.12 0 0 1-4.23-1.41l.54-.54a5.29 5.29 0 0 0 3.69 1.23c1.89 0 4.38-.75 4.38-2.73s-2.49-2.76-4.38-2.76h-.72l.3-2.76c-2.55-.09-5.19-1.08-6.24-3l.87-.45c.93 1.77 3.45 2.58 5.79 2.58a8.12 8.12 0 0 0 4.53-1.08 3.54 3.54 0 0 0 1.62-2.94 3.65 3.65 0 0 0-3.42-3.57l-5.1-.3a4.73 4.73 0 0 1-4.44-4.59 4.31 4.31 0 0 1 1.8-3.51 10.19 10.19 0 0 1 9.93.06 5 5 0 0 1 1.29 1.35l-.81.51c-1-1.56-3.24-2.28-5.4-2.28a7.59 7.59 0 0 0-4.29 1 3.41 3.41 0 0 0-1.53 2.85 3.73 3.73 0 0 0 3.54 3.66l5.1.33a4.6 4.6 0 0 1 4.32 4.47 4.32 4.32 0 0 1-1.89 3.6 8.9 8.9 0 0 1-5 1.32l-.21 2c2.31 0 5.07 1.08 5.07 3.48s-2.77 3.48-5.11 3.48zM411.42 404.78h4.89v-11h1v11h4.89v.9h-4.9v16.65h-1v-16.65h-4.89zm16.26-11l-3.68 8.81h-.78l3.36-8.76zM429.51 425.39h-.75l.33-3.06H429v-16.65h-4.89v-.9H429v-11h1v11h4.89v.9H430v16.65h-.15l-.27 2.34c2.31 0 5.1 1.08 5.1 3.48a3.11 3.11 0 0 1-1.47 2.49 6.54 6.54 0 0 1-3.69 1 6.2 6.2 0 0 1-4.26-1.41l.54-.54a5.37 5.37 0 0 0 3.72 1.23c1.89 0 4.35-.75 4.35-2.73s-2.47-2.8-4.36-2.8zM44.67 467.83h-1v-3a5.69 5.69 0 0 1-1.32 1.62 8.21 8.21 0 0 1-5.25 1.68 8.71 8.71 0 0 1-5.43-1.68 5.56 5.56 0 0 1-2.13-4.32v-11.85h1v11.85a4.7 4.7 0 0 0 1.86 3.69 7.53 7.53 0 0 0 4.71 1.41 7.62 7.62 0 0 0 4.74-1.41 4.68 4.68 0 0 0 1.83-3.69v-11.85h1zm-10.38-26.76l3.9 5.4h-.9l-4.23-5.4zM66 467.83h-1v-3a5.69 5.69 0 0 1-1.32 1.62 8.21 8.21 0 0 1-5.25 1.68 8.71 8.71 0 0 1-5.43-1.68 5.56 5.56 0 0 1-2.13-4.32v-11.85h1v11.85a4.7 4.7 0 0 0 1.86 3.69 7.53 7.53 0 0 0 4.71 1.41 7.62 7.62 0 0 0 4.74-1.41 4.68 4.68 0 0 0 1.82-3.69v-11.85h1zm-3.48-26.76l-4.23 5.4h-.93l3.9-5.4zM87.27 467.83h-1v-3a5.69 5.69 0 0 1-1.27 1.62 8.21 8.21 0 0 1-5.25 1.68 8.71 8.71 0 0 1-5.43-1.68 5.56 5.56 0 0 1-2.13-4.32v-11.85h1v11.85a4.7 4.7 0 0 0 1.81 3.69 7.53 7.53 0 0 0 4.71 1.41 7.62 7.62 0 0 0 4.74-1.41 4.68 4.68 0 0 0 1.83-3.69v-11.85h1zm-12-21.36h-1l4.77-5.4h1.36l4.74 5.4h-1l-4.44-4.68zM108.57 467.83h-1v-3a5.69 5.69 0 0 1-1.32 1.62 8.21 8.21 0 0 1-5.25 1.68 8.71 8.71 0 0 1-5.43-1.68 5.56 5.56 0 0 1-2.13-4.32v-11.85h1v11.85a4.7 4.7 0 0 0 1.86 3.69 7.53 7.53 0 0 0 4.71 1.41 7.62 7.62 0 0 0 4.74-1.41 4.68 4.68 0 0 0 1.83-3.69v-11.85h1zm-11.31-25.41a.76.76 0 0 1 .78.78.78.78 0 0 1-1.56 0 .76.76 0 0 1 .78-.78zm7.53 0a.73.73 0 0 1 .75.78.71.71 0 0 1-.75.75.73.73 0 0 1-.78-.75.76.76 0 0 1 .78-.78zM129.87 467.83h-1v-3a5.69 5.69 0 0 1-1.32 1.62 8.21 8.21 0 0 1-5.25 1.68 8.71 8.71 0 0 1-5.43-1.68 5.56 5.56 0 0 1-2.13-4.32v-11.85h1v11.85a4.7 4.7 0 0 0 1.86 3.69 7.53 7.53 0 0 0 4.71 1.41 7.62 7.62 0 0 0 4.74-1.41 4.68 4.68 0 0 0 1.83-3.69v-11.85h1zm-8.16-26.76h1.2l-3.9 5.4h-.9zm7.47 0l-3.9 5.4h-.9l3.6-5.4zM151.17 467.83h-1v-3a5.69 5.69 0 0 1-1.32 1.62 8.21 8.21 0 0 1-5.25 1.68 8.71 8.71 0 0 1-5.43-1.68 5.56 5.56 0 0 1-2.13-4.32v-11.85h1v11.85a4.7 4.7 0 0 0 1.86 3.69 7.53 7.53 0 0 0 4.71 1.41 7.62 7.62 0 0 0 4.74-1.41 4.68 4.68 0 0 0 1.83-3.69v-11.85h1zm-5.28-26.22a3.12 3.12 0 0 1 0 4.32 3.3 3.3 0 0 1-2.28.84 3.22 3.22 0 0 1-2.25-.84 3 3 0 0 1 0-4.32 3.22 3.22 0 0 1 2.25-.84 3.3 3.3 0 0 1 2.28.84zm-2.28-.24a2.4 2.4 0 1 0 2.49 2.4 2.39 2.39 0 0 0-2.49-2.4zM156.39 450.28l7.53 16.2 7.5-16.2h1.05l-12.3 26.55h-1l4.26-9.18-8.07-17.37zm11.61-9.21l-4.23 5.4h-.93l3.9-5.4zM175.38 450.28l7.53 16.2 7.5-16.2h1.05l-12.3 26.55h-1l4.26-9.18-8.07-17.37zm3.75-7.86a.73.73 0 0 1 .75.78.71.71 0 0 1-.75.75.73.73 0 0 1-.78-.75.76.76 0 0 1 .78-.78zm7.5 0a.76.76 0 0 1 .78.78.73.73 0 0 1-.78.75.71.71 0 0 1-.75-.75.73.73 0 0 1 .75-.78zM194.07 450.28h13.5v1.2l-12.48 15.45h12.48v.9h-13.5v-1.2l12.48-15.45h-12.48zm10.83-9.21l-4.26 5.4h-.9l3.9-5.4zM211 450.28h13.5v1.2L212 466.93h12.48v.9H211v-1.2l12.48-15.45H211zm12.18-9.21l-4.77 5.4H217l-4.77-5.4h1l4.44 4.68 4.44-4.68zM227.85 450.28h13.5v1.2l-12.48 15.45h12.48v.9h-13.5v-1.2l12.48-15.45h-12.48zm6.75-7.86a.76.76 0 0 1 .78.78.78.78 0 0 1-1.56 0 .76.76 0 0 1 .78-.78zM246.24 440.83h1v14.34a8.69 8.69 0 0 1 1.65-2.64 8 8 0 0 1 6-2.55 8.51 8.51 0 0 1 6.21 2.55 10 10 0 0 1 0 13 8.51 8.51 0 0 1-6.21 2.55 8 8 0 0 1-6-2.55 8.69 8.69 0 0 1-1.65-2.64v13.89h-1zm3.12 12.33a9.22 9.22 0 0 0 0 11.79 7.78 7.78 0 0 0 11 0 9.22 9.22 0 0 0 0-11.79 7.78 7.78 0 0 0-11 0z"/></svg>