<svg xmlns="http://www.w3.org/2000/svg" viewBox="0 0 700 150"><path fill="#d7ffff" d="M0 0h700v150H0z" data-name="Ebene 1"/><g data-name="Ebene 3"><path d="M31.88 47.7h1.2l11.46 54h-1.38l-3.9-18.42H25.58l-3.9 18.42h-1.26zm.54 3.24l-6.6 31.14H39zM65.36 89.4V80c-.66-1.26-6.3-11.64-7-12.84 0 0-1.2 2.16-2.34 4.26L55.4 71l3-5c.78 1.26 7.5 12.66 8.28 14v21.7h-1.32V93c-2.22 3-6.36 8.52-7 9.3-2.76-3.72-5.58-7.38-8.34-11.1 2.76-3.72 5.58-7.44 8.34-11.16.64.78 4.78 6.36 7 9.36zm-14 1.8c.66 1 6.36 9 7 9.9l3.48-5c1.2-1.74 3.48-4.92 3.48-4.92s-2.28-3.24-3.48-5l-3.48-5c-.62.96-6.36 9.06-6.98 10.02zM78.22 47.7h9.24l4.32 6.54c1.5 2.28 4.32 6.6 4.32 6.6l-4.32 6.54-4 5.94c1.8 2.76 8 12.66 8.88 13.92-.9 1.38-8.4 13.14-9.24 14.46h-9.2zm9.24 1.2h-7.92v23.82h7.92c.66-1.08 6.6-10.74 7.32-11.88-.72-1.14-6.66-10.84-7.32-11.94zm7.92 38.34s-2.58-4.38-4-6.66l-4-6.66h-7.84v26.58h7.92c.72-1.2 7.14-12 7.92-13.26zM124.44 84.18c-.9 1.74-8.4 16.5-9.24 18.12-.66-1.26-5.46-10.74-7.92-15.54v14.94H106v-57h1.32v36.9c2.46-4.8 7.26-14.34 7.92-15.6.76 1.62 8.3 16.44 9.2 18.18zm-17.16 0c.78 1.62 7.2 15.42 7.92 16.92.72-1.5 7.14-15.3 7.92-16.92-.78-1.62-7.2-15.48-7.92-17-.72 1.52-7.14 15.38-7.92 17zM151.16 86.16l.84.42-7.86 15.72c-1.26-2.52-12.36-24.9-13.68-27.6 1.32-2.64 12.42-25.08 13.68-27.6L152 62.82l-.84.42-7-14.94C143 50.7 133 72.12 131.78 74.7c1.2 2.52 11.22 24 12.36 26.4zM174.14 91.38l.84.42-5.52 10.5c-.84-1.62-8.52-16.38-9.42-18.12.9-1.74 8.58-16.5 9.42-18.18L175 76.5l-.84.42-4.68-9.72-4 8.46-4.08 8.52s2.7 5.58 4.08 8.46l4 8.46zM186.73 47.7h8.46l7.26 13.5c2.46 4.62 7.26 13.5 7.26 13.5-1.38 2.58-13.2 24.54-14.52 27h-8.46zm21.66 27l-6.6-12.9c-2.4-4.68-6.6-12.9-6.6-12.9h-7.14v51.6h7.14c1.2-2.34 11.94-23.28 13.2-25.8zM232.6 101.7V86.76c-2.4 4.8-7.2 14.28-7.86 15.54-.84-1.62-8.34-16.38-9.24-18.12.9-1.74 8.4-16.56 9.24-18.18.66 1.26 5.46 10.8 7.86 15.6V44.7h1.32v57zm-15.78-17.52c.78 1.62 7.2 15.42 7.92 16.92.72-1.5 7.08-15.3 7.86-16.92-.78-1.62-7.14-15.48-7.86-17-.74 1.52-7.14 15.38-7.92 17zM245.89 47.7h16.26v1.2h-14.94v25.2h14.28v1.2h-14.28v25.2h14.94v1.2h-16.26zM280.44 92.52l.78.42-4.92 9.36-9.42-18.12c.9-1.74 8.58-16.5 9.42-18.18.78 1.5 7.5 14.28 9.18 17.58l.3.6v.6H268.5c.72 1.5 2.7 5.58 3.78 7.86l4 8.46s2.67-5.52 4.16-8.58zM276.3 67.2l-4 8.46a2305.3 2305.3 0 0 1-3.78 7.92h15.66c-1.52-3.12-7.18-14.94-7.88-16.38zM294.82 47.7h16.26v1.2h-14.95v25.2h14.28v1.2h-14.28v26.4h-1.32zM313.49 66.6h5.1V53.82c.36-1 3.48-8.88 3.84-9.72 0 0 1 2.58 1.74 4.38l-.72.3c-.48-1.56-1-3.48-1-3.48-.24.72-2.28 7.68-2.52 8.52V66.6H325v1.2h-5.1v33.9h-1.32V67.8h-5.1zM356.39 101.7V77.34c-3.36 6.72-11.34 22.86-12.42 25-1.26-2.52-12.36-24.9-13.68-27.6 1.32-2.64 12.42-25.08 13.68-27.6l7.74 15.48-.84.36L344 48.3c-1.14 2.4-11.16 23.82-12.36 26.4 1.2 2.52 11.22 24 12.36 26.4 1.08-2.28 10.08-21.48 12.12-25.8H344v-1.2h13.74v27.6zM383.65 81.3V66.6H385v42.54s-3.06 4.62-4.62 7.08l-4.56 7.08-4.62-7.08c-.72-1.08-1.74-2.64-2.64-4l.84-.6 6.42 10.5c.72-1.2 7.08-11.7 7.86-13V86.46c-2.4 4.74-7.2 14-7.86 15.24l-4.62-8.94c-1.56-3.06-4.62-8.88-4.62-8.88L375.79 66c.66 1.26 5.46 10.56 7.86 15.3zm-11.82-5.76c-1.32 2.82-4 8.34-4 8.34.78 1.62 7.2 15.12 7.92 16.62.72-1.5 7.08-15 7.86-16.62 0 0-2.64-5.52-4-8.34l-3.9-8.34zM396.72 47.7H398v26.4h18.12V47.7h1.32v54h-1.32V75.3H398v26.4h-1.32zM430.74 101.7h-1.32v-57h1.32v31.14c1-1.26 2.28-2.94 3.12-4.08l4.38-5.76c.6 1 5.7 10.44 6.3 11.58v24.12h-1.32V77.58l-2.52-5.22c-.9-1.92-2.46-5.16-2.46-5.16-.72 1-6.78 9.36-7.5 10.38zM456.34 47.7h1.32v54h-1.32zM470.14 53.1l-1.08-1.1c.36-.36.72-.78 1.08-1.14 0 0 .42.36.6.54l.54.6zm-.66 13.5h1.32v35.1h-1.32zM478.31 91.56l.9-.48 5.52 10 7.32-13.32V47.7h1.32v40.08c-.84 1.38-7.86 13.2-8.64 14.52zM507 111.9c-.54 1.08-5.28 10.38-5.82 11.4 0 0-2-3.84-3-5.88l.78-.36c.84 1.86 2.22 5 2.22 5l2.28-5.1c.78-1.74 2.22-5.1 2.22-5.1V66.6H507zm-.44-59.9c-.36.36-.78.72-1.14 1.08-.36-.36-.78-.72-1.14-1.08 0 0 .36-.42.54-.6l.6-.54zM520.09 47.7v27c2.1-3.18 4.2-6.36 6.36-9.48l11.76-17.52h1.44l-12.72 18.9 12.66 35.1h-1.38L526.09 68l-6 8.88v24.82h-1.32v-54zM548.51 44.7v44.16L562 66.6h1.44l-8.82 14.46 8.82 20.64h-1.56l-8.1-19.2-5.28 8.64v10.56h-1.32v-57zM572.09 47.7h1.32v52.8h14.94v1.2h-16.26zM594.16 44.7h1.32v57h-1.32zM607.39 47.7h1.2l13.14 51.24L634.8 47.7h1.2v54h-1.32V53l-12.42 48.7h-1.2L608.59 53v48.7h-1.2zM675.27 77.58v24.12h-1.32V77.58l-2.4-5.22c-.84-1.92-2.34-5.16-2.34-5.16-.66 1-6.36 9.36-7 10.38v24.12h-1.32V77.58c-.48-1-4.32-9.42-4.74-10.38-.66 1-6.36 9.36-7 10.38v24.12h-1.32V66.6h1.32v9.12c.9-1.26 2.1-2.88 2.88-4l4.1-5.72c.48.84 4.08 7.68 5.52 10.5.9-1.26 2.4-3.42 3.36-4.74l4.2-5.76c.54 1.08 5.46 10.5 6.06 11.58z"/></g></svg>