<svg xmlns="http://www.w3.org/2000/svg" viewBox="0 0 700 500"><path fill="#d7ffff" d="M0 0h700v500H0z" data-name="Ebene 2"/><g data-name="Ebene 1"><path d="M77.12 52.57h126.72c28.6 0 56.32 9.24 76.56 29 19.8 19.36 29.92 46.64 29.92 74.8a79.06 79.06 0 0 1-29.92 62c-6.16 5.28-13.2 9.24-20.68 12.76a118.14 118.14 0 0 1 34.76 21.56c23.32 20.68 35.64 50.6 35.64 81.84s-12.32 61.6-35.64 82.28c-24.64 22.44-57.2 31.68-90.64 31.68H77.12zm43.56 168.08h83.16c17.16 0 33.44-5.72 45.32-17.6 11.88-12.32 17.6-29.48 17.6-46.64s-5.72-33.88-17.6-46.2c-11.88-11.88-28.16-18-45.32-18h-83.16zm0 188.32h83.16c22 0 43.12-6.16 59.4-20.68a72.9 72.9 0 0 0 23.32-53.68 71.94 71.94 0 0 0-23.32-53.24c-16.28-14.52-37.4-21.12-59.4-21.12h-83.16zM595 420.85C569.47 443.29 535.59 453 501.71 453c-34.76 0-68.64-12.32-92.84-37.4-24.64-25.52-36.52-59.84-36.52-95.48s11.88-70.4 36.52-95.92c24.2-25.08 58.08-37.4 92.84-37.4s69.08 12.32 93.28 37.4c24.64 25.52 36.52 60.28 36.52 95.92v19.36H417.67c3.08 17.6 10.12 34.32 22.44 47.52 15.84 17.16 38.28 26.4 61.6 26.4 22.44 0 44.88-6.16 62-21.12a79.38 79.38 0 0 0 14.52-17.6l37 22.44A103.62 103.62 0 0 1 595 420.85zm-31.25-168.08c-15.84-17.16-38.72-26.4-62-26.4s-45.76 9.24-61.6 26.4c-12.32 13.2-19.36 29.92-22.44 47.52h168.48c-3.08-17.6-10.12-34.29-22.44-47.52z"/></g></svg>