<svg xmlns="http://www.w3.org/2000/svg" viewBox="0 0 700 150"><path fill="#d7ffff" d="M0 0h700v150H0z" data-name="Ebene 1"/><g data-name="Ebene 3"><path d="M48.08 50.7h2.16l27 51H75.5L66 83.76H32.3l-9.48 17.94H21zm1.08 1.2L33.08 82.26h32.16zM90.34 74.4l-.72-.78c1.8-1.74 5.28-5 5.28-5h17.94l5.22 5c1.86 1.74 5.22 5 5.22 5v23.08h-1.5v-5.82c-2.76 1.8-8.16 5.28-8.94 5.82H94.9l-5.22-3.42-5.22-3.36v-7.08l5.22-3.36 5.22-3.42h17.94c.78.54 6.18 4 8.94 5.82v-8.34c-.84-.78-8.1-7.68-8.94-8.52H94.9s-3 2.98-4.56 4.38zm4.56 8.16S92 84.3 90.46 85.2L86 87.84v7.08c.84.48 8.1 4.74 8.94 5.28h17.94c.84-.48 8.1-4.8 8.94-5.28v-7.08c-.84-.48-8.1-4.74-8.94-5.28zM137.28 50.7h31.56l5.4 4c1.92 1.44 5.4 4.08 5.4 4.08v8.76c-.84.66-7.26 5.46-9.84 7.38 1.26 1 3.48 2.58 4.8 3.66l5.76 4.42v9.78l-11.52 8.88h-31.56zm31.56 1.5h-30v22h30c.9-.66 8.4-6 9.24-6.6v-8.8c-.84-.6-8.34-5.94-9.24-6.6zm0 48c1-.72 9.06-6.72 10-7.38V83c-.9-.66-9.06-6.66-10-7.38h-30v24.58zM235.94 79.08v12.06c-1.08 1-10.44 9.54-11.52 10.56h-20c-.84-.84-7-6.36-10-9.12v9.12h-1.56v-63h1.56v38.94c3-2.76 9.12-8.22 10-9.06h20c1.08 1.02 10.44 9.48 11.52 10.5zM204.38 70c-1 .84-9 8.22-10 9.06v12.08c1 .84 9 8.22 10 9.06h20c1-.84 9.06-8.22 10-9.06V79.08c-1-.84-9.06-8.22-10-9.06zM309.08 85.8v-.12h1.5v.12c-1.56 1.5-15.12 14.4-16.74 15.9H263.3c-1.56-1.5-15.18-14.4-16.74-15.9V66.6c1.56-1.5 15.12-14.4 16.74-15.9h30.54c1.56 1.5 15.18 14.4 16.74 15.9v.12h-1.5v-.12s-4.92-4.68-7.62-7.2l-7.62-7.2H263.3c-1.44 1.38-13.8 13-15.24 14.4v19.2c1.44 1.38 13.8 13 15.24 14.4h30.54c1.44-1.38 13.8-13.02 15.24-14.4zM352.35 101.7h-20.51l-11.76-10.56V79.08c1.08-1 10.62-9.48 11.76-10.5h20.52s3.9 3.36 5.94 5.22l5.88 5.28v.06h-1.5v-.06L352.35 70h-20.51l-10.26 9.06v12.08l5.16 4.56c1.8 1.56 5.1 4.5 5.1 4.5h20.52l10.32-9.06v-.06h1.5v.06c-1.09 1.02-10.69 9.54-11.83 10.56zM429.11 66.6v19.2c-6 5.28-11.94 10.62-17.94 15.9h-35.64v-51h35.64c1.68 1.5 16.26 14.4 17.94 15.9zm-17.94 33.6l8.22-7.2 8.22-7.2V66.6l-8.22-7.2-8.22-7.2h-34.08v48zM481.31 101.7v-9.18c-3 2.76-9.18 8.34-10 9.18h-20c-1.08-1-10.44-9.54-11.52-10.56V79.08c1.08-1 10.44-9.48 11.52-10.5h20c.84.84 7 6.42 10 9.12v-39h1.5v63zm-30-31.7c-1 .84-9.06 8.22-10 9.06v12.08c1 .84 9.06 8.22 10 9.06h20c1-.84 9.06-8.22 10-9.06V79.08c-1-.84-9.06-8.22-10-9.06zM497.46 50.7h37.86v1.5H499v23.22h35.52v1.5H499v23.28h36.3v1.5h-37.84zM576.72 101.7H556.2l-11.76-10.56V79.08c1.08-1 10.62-9.48 11.76-10.5h20.52s3.9 3.36 5.94 5.22l5.88 5.28v6.78h-42.6v5.28l5.16 4.56c1.8 1.56 5.1 4.5 5.1 4.5h20.52l9.72-8.52.66.72zm-30.78-22.62v5.28H587v-5.28L576.72 70H556.2zM600.31 50.7h37.86v1.5h-36.3v23.22h35.52v1.5h-35.52v24.78h-1.56zM642.5 68.58h13.44V47c.48-.78 4.44-7.5 4.86-8.28h6.72l4.08 7-1.08.6-3-6.06h-6.72c-.3.6-3.06 6.12-3.36 6.78v21.6h13.44V70h-13.44v31.7h-1.5V70H642.5z"/></g></svg>