<svg xmlns="http://www.w3.org/2000/svg" viewBox="0 0 700 150"><path fill="#d7ffff" d="M0 0h700v150H0z" data-name="Ebene 1"/><g data-name="Ebene 3"><path d="M25.76 97.68V72.62c0-6.34 3-11.74 7.56-13.75C39.8 56 49.81 56 58.24 56h2.09c8.71 0 18.94 0 25.49 2.88 4.82 2.16 7.63 7.85 7.63 14v25c0 1.58-.65 2.38-1.37 2.38s-1.51-.86-1.51-2.52V75.21H28.64v22.62c0 1.08-.5 2.38-1.37 2.38s-1.51-1.45-1.51-2.53zm64.59-27.43a9.07 9.07 0 0 0-5.11-6.55C79.12 61 68.6 61 59.75 61h-.07C51 61 40.23 61 34 63.69a9.15 9.15 0 0 0-5.11 6.55zM117.89 97.68V80.33c0-6.12 1.37-12.89 6.41-16.06 5.54-3.46 13.75-3.6 21-3.6h2.45c7.49 0 16.06.07 21.67 3.6 5.26 3.31 6.48 10.44 6.48 16.27v17.29c0 1.58-.65 2.38-1.37 2.38s-1.53-.87-1.53-2.53V82.92h-52.2v14.91c0 1.08-.5 2.38-1.37 2.38s-1.54-1.45-1.54-2.53zM172.9 78c-.29-3.74-1.3-7-4.46-9-5-3.17-13.83-3.31-21.53-3.31-7.49 0-16.35.07-21.53 3.31-3.1 1.94-4.25 5.18-4.54 9zM200.33 97.11V58.94c0-1.58.79-2.45 1.37-2.45h22.47c9.07 0 20.09.07 26.86 1.44 3 .65 8 1.87 8 8a7 7 0 0 1-3 6.12c1 .22 2 .36 3 .65 4.75 1.37 9.86 5.11 9.86 12.31a12.4 12.4 0 0 1-8.64 12.17c-7.56 2.45-19.37 2.52-29.23 2.52h-29.25c-.93-.07-1.44-1.37-1.44-2.59zm50.4-28.23c3.1-.65 5.33-2.52 5.47-3.1-.14-.58-2.3-2.3-5.4-3-6.48-1.3-17.57-1.37-26.64-1.37h-21v8.78h20.88c8.96.06 20.07.06 26.7-1.31zm-47.52 6.34v19.51h26.43c10.08 0 22.61-.07 30-2.45 4.18-1.37 6.48-5 6.48-7.42 0-2.23-2.52-5.83-7.42-7.2-8.14-2.3-22-2.45-33.56-2.45zM288.42 97.11V63.62c0-1.58.79-2.45 1.37-2.45h19.3c7.85 0 17.43 0 23.33 1.73a9.17 9.17 0 0 1 7 9.22 8.83 8.83 0 0 1-3 7c.94.14 1.87.36 2.74.58 3.6.79 8.71 2.74 8.71 9.22 0 6.12-4.46 8.28-7.63 9.07-6.48 1.66-16.71 1.73-25.2 1.73h-25.2c-.91-.09-1.42-1.39-1.42-2.61zm43.49-20.81c3.17-.94 4.68-3.38 4.68-4.32 0-.72-1.22-3.24-4.54-4.18-5.47-1.58-15-1.66-22.9-1.66H291.3V78h17.79c7.63 0 17.21 0 22.83-1.71zm-40.61 6.62v11.81h22.61c8.64 0 19.44 0 25.85-1.66 3.53-.94 5.33-3.46 5.33-4.32 0-.65-1.94-3.24-6.19-4.18-7-1.58-18.72-1.66-28.59-1.66zM429.6 61.46h-25.13c-10.87 0-24.19.07-31.9 2.74-4.68 1.58-6.91 5.76-6.91 8.64 0 7.06 1.37 13.68 7.06 17.14 7.71 4.68 20.67 4.75 31.61 4.75h25.2c.94 0 1.44 1.3 1.44 2.59s-.43 2.38-1.37 2.38h-26.86c-10.58 0-22.83-.14-30.89-5-7-4.25-9.07-13.61-9.07-22a13.65 13.65 0 0 1 9.14-13.32c8.21-2.81 21.46-2.81 32.4-2.81h25.2c.65 0 1.44.94 1.44 2.59s-.71 2.3-1.36 2.3zM505.36 66.14h-21.1c-9.94 0-21.67.14-28.51 3.31-4.61 2.16-6.26 6.91-6.26 11.09s1.73 8.86 6.12 10.87c7 3.24 18.87 3.31 28.59 3.31h21.1c.94 0 1.44 1.3 1.44 2.59s-.43 2.38-1.37 2.38h-22.62c-9.43 0-20.59-.14-27.79-3.46-5.33-2.45-8.28-8.86-8.28-15.91 0-6.77 2.74-13.18 8.21-15.7 7.34-3.38 18.87-3.46 28.66-3.46h21.75c.65 0 1.44.94 1.44 2.59s-.74 2.39-1.38 2.39zM528.71 97.11V58.94c0-1.58.79-2.45 1.37-2.45h24.63c10.95 0 24.27 0 32.48 2.81a13.93 13.93 0 0 1 9.22 13.54c0 8.42-2.09 17.57-9 21.82-8.06 4.9-20.3 5-31 5h-26.18c-1.08.04-1.52-1.66-1.52-2.55zm26-2.38c10.95 0 24-.14 31.68-4.82 5.76-3.46 7.13-10.22 7.13-17.28 0-2.81-2.16-6.84-6.84-8.42-7.7-2.66-21-2.74-31.83-2.74h-23.26v33.26zM617.1 97.11V63.62c0-1.58.79-2.45 1.37-2.45h21.31c9.79 0 21.24.07 28.59 3.46 5.54 2.59 8.28 9.14 8.28 15.91 0 7-2.88 13.25-8.21 15.7-7.2 3.31-18.43 3.46-27.87 3.46h-22c-1.04 0-1.47-1.7-1.47-2.59zm22-2.38c9.72 0 21.53-.07 28.51-3.31 4.46-2.09 6.26-6.77 6.26-11.09 0-4.11-1.58-8.79-6.12-10.87-6.84-3.17-18.65-3.31-28.59-3.31H620v28.58z"/></g></svg>