<svg data-name="Ebene 1" xmlns="http://www.w3.org/2000/svg" viewBox="0 0 700 150"><path fill="#d7ffff" d="M0 0h700v150H0z"/><path d="M24.29 96.51a4.76 4.76 0 0 1 .25-1.51l6.89-19.57c2.44-7 5.29-15.71 12-21.76s14.87-6.3 20.5-6.3H64c5.38 0 14.78 0 18.14 8.06a17.38 17.38 0 0 1 1.26 6.47c0 6-2.6 12-4.28 16.72l-6.8 19.57a5.21 5.21 0 0 1-5 3.44 5.15 5.15 0 0 1-5.21-5 5.28 5.28 0 0 1 .25-1.6l4.54-12.94H40.17l-5.63 16.1a5.36 5.36 0 0 1-5 3.44 5.15 5.15 0 0 1-5.25-5.12zM70.32 72c1.43-4.45 2.35-8.48 2.35-11a4.91 4.91 0 0 0-.25-1.76c-.25-.59-2.1-1.76-8.48-1.76-5.29 0-9.83.42-13.27 3.53-2.77 2.52-5 6.47-6.8 11zM84.1 96.51a4.76 4.76 0 0 1 .25-1.51l5.55-15.8c1.6-4.62 3.61-10.84 9.41-15 5.46-3.95 11.34-4.2 15.62-4.2h4.2c4.28 0 10.16.42 13.52 5.46a11.85 11.85 0 0 1 1.93 6.64c0 4-1.76 7.9-2.6 10.33l-5.54 15.79a5.21 5.21 0 0 1-5 3.44 5.15 5.15 0 0 1-5.21-5 5.43 5.43 0 0 1 .34-1.6l3.19-9.16H98.63l-4.28 12.29a5.36 5.36 0 0 1-5 3.44 5.15 5.15 0 0 1-5.25-5.12zm39-20.75a20.6 20.6 0 0 0 .76-4.54v-.34S122 70 116.44 70c-4.62 0-8.06.08-10.75 2.1a11.75 11.75 0 0 0-3 3.61zM138.63 93.06l14.11-40.32a5.54 5.54 0 0 1 5-3.44h16c4.45 0 9.49.34 13.44 3.44a10.06 10.06 0 0 1 3.7 7.73 20.41 20.41 0 0 1-1.51 6.8 23.88 23.88 0 0 1-4.62 8.23 16.52 16.52 0 0 1-4.75 3.7c-5.21 2.6-10.84 2.86-15.37 2.86 4.54 0 10.16-.25 15.37-2.86a16.52 16.52 0 0 0 4.79-3.7 10.07 10.07 0 0 1 3.7 7.73 13.33 13.33 0 0 1-.76 4.2 16.5 16.5 0 0 1-9.66 10.16c-5.21 1.93-11.17 2.1-16.13 2.1h-18.27a5.06 5.06 0 0 1-5.29-5 4.89 4.89 0 0 1 .25-1.63zm5 6.64a6.31 6.31 0 0 1-2.18-.42 6.31 6.31 0 0 0 2.22.42zm9.91-17.64l-2.69 7.56H159c5.46 0 11.93-.17 15.37-1.43 1.18-.42 3.7-2.6 3.7-5-2.6-.92-9.66-1.18-16-1.18zm21.63-11.76c1.6-.84 3.28-3 4.37-6.22a14 14 0 0 0 .76-3.78c-1.34-.59-5.63-.92-10.25-.92h-8.57L157.11 72h5c4.89 0 10.12-.19 13.06-1.7zM194.63 93.06l9.74-27.72a5.44 5.44 0 0 1 5-3.44h13.94c3.61 0 7.73.25 11.17 2a8.21 8.21 0 0 1 4.45 7.48 11.91 11.91 0 0 1-.84 4.12 15.67 15.67 0 0 1-2.18 4 9.39 9.39 0 0 1 2.6 6.3 11.92 11.92 0 0 1-.59 3.53 14.17 14.17 0 0 1-8.76 8.67c-4.45 1.51-9.32 1.68-13.52 1.68h-16a5.06 5.06 0 0 1-5.29-5 4.89 4.89 0 0 1 .28-1.62zm5 6.64a6.31 6.31 0 0 1-2.18-.42 6.31 6.31 0 0 0 2.22.42zm8.57-13.86l-1.34 3.78h5.8c4.62 0 10.25-.17 12.94-1.09a4.31 4.31 0 0 0 2.1-2 61.33 61.33 0 0 0-10-.67zM226 74.75a4.46 4.46 0 0 0 2-2.35 55.33 55.33 0 0 0-8.23-.42h-6.72l-1.34 3.78H215c4.08 0 8.78-.17 11-1.01zM301 59.38h-16.3c-7 0-12.68.25-17.22 3.53-4.7 3.44-7 9.16-9.24 15.71a25.06 25.06 0 0 0-1.6 7.64 2.86 2.86 0 0 0 .25 1.43c1.09 1.18 6.8 1.93 13.69 1.93h16.3a5 5 0 1 1 0 10.08h-16.3c-1.34 0-3 .08-4.7.08-5.54 0-12.18-.59-16.72-5.21a11.47 11.47 0 0 1-3.28-8.48c0-3.95 1.43-7.81 2.44-10.67 2.18-6.3 4.87-14.78 12.85-20.58 7.56-5.46 16.21-5.54 22.85-5.54h17a5 5 0 1 1 0 10.08zM348.13 72h-13.94c-6 0-11.84.25-15.29 2.1-2.44 1.34-4.28 4.54-5.63 8.32a17.94 17.94 0 0 0-1.09 5.29v.5c1.26.84 6.72 1.43 12.35 1.43h13.94a5 5 0 1 1 0 10.08h-13.94c-1.34 0-2.94.08-4.62.08-5.54 0-12.94-1.09-16.38-5.88a10.92 10.92 0 0 1-2-6.55 23.75 23.75 0 0 1 1.76-8.15c1.51-4.45 4.2-10.42 10.58-13.86 6.13-3.28 13-3.44 18.73-3.44h15.54a5 5 0 1 1 0 10.08zM368 52.74a5.54 5.54 0 0 1 5-3.44h17.64c6 0 13.94.5 18.23 6.8a14.43 14.43 0 0 1 2.52 8.4c0 5.21-2.27 10.33-3.61 14.11-1.86 5.55-4.78 12.69-11.78 16.8-6.8 4-14.28 4.28-20.24 4.28H359a5.18 5.18 0 0 1-5.29-5c0-1.6.25-1.6.25-1.6zm5.21 36.88c6.47 0 12.94-.17 17.22-2.77 3.36-2 5.63-6.13 7.48-11.42 1.76-5 2.69-9.07 2.69-11.59a3.71 3.71 0 0 0-.42-2.18c-.92-1.34-5.21-2.27-12.85-2.27h-10.56l-10.59 30.23zM421.67 65.34a5.44 5.44 0 0 1 5-3.44h16c5.12 0 11.09.34 15.37 4a11.37 11.37 0 0 1 3.61 8.32 24.29 24.29 0 0 1-1.85 8.15c-1.68 4.79-4.45 10.58-10.5 13.86s-12.51 3.47-17.8 3.47H417a5.18 5.18 0 0 1-5.29-5c0-1.6.25-1.6.25-1.6zm7.22 24.28c5.8 0 11.68-.17 15.29-2.1 2.35-1.26 4.28-4.28 5.71-8.32a18.82 18.82 0 0 0 1.11-5.29 3 3 0 0 0-.08-.5c-1.09-.76-6.22-1.43-12.26-1.43h-8.23l-6.21 17.64zM505.11 99.7h-36a5.18 5.18 0 0 1-5.29-5c0-1.6.25-1.6.25-1.6l14.11-40.32a5.54 5.54 0 0 1 5-3.44h36a5 5 0 1 1 0 10.08H487L482.6 72h23.6a5 5 0 1 1 0 10.08h-27.13l-2.69 7.56h28.73a5 5 0 1 1 0 10.08zM555.75 99.7h-30.66a5.18 5.18 0 0 1-5.29-5c0-1.6.25-1.6.25-1.6l9.74-27.72a5.44 5.44 0 0 1 5-3.44h30.66a5 5 0 1 1 0 10.08h-26.92l-1.34 3.78h18.31a5 5 0 1 1 0 10.08h-21.84l-1.34 3.78h23.44a5 5 0 1 1 0 10.08zM570.64 96.51a4.76 4.76 0 0 1 .26-1.51l14.78-42.25a5.54 5.54 0 0 1 5-3.44h36a5 5 0 1 1 0 10.08h-32.26L590 72h23.6a5 5 0 1 1 0 10.08h-27.08l-5.63 16.13a5.36 5.36 0 0 1-5 3.44 5.15 5.15 0 0 1-5.25-5.14zM625.68 96.51a4.76 4.76 0 0 1 .25-1.51l10.42-29.65a5.44 5.44 0 0 1 5-3.44H672A5 5 0 1 1 672 72h-26.92l-1.34 3.78h18.31a5 5 0 1 1 0 10.08h-21.84l-4.28 12.35a5.36 5.36 0 0 1-5 3.44 5.15 5.15 0 0 1-5.25-5.14z"/></svg>