<svg xmlns="http://www.w3.org/2000/svg" viewBox="0 0 700 500"><path fill="#d7ffff" d="M0 0h700v500H0z" data-name="Ebene 2"/><g data-name="Ebene 1"><path d="M30.51 51.9v-9.68c0-3.13.07-6.73 1.76-9.14s4.73-2.63 7.13-2.63 5.54.36 7.16 2.63 1.76 5.76 1.76 8.67V51.9a.8.8 0 0 1-1.58 0v-8.57H32.09v8.57a.8.8 0 0 1-1.58 0zm16.2-10c0-3-.14-6.16-1.48-8.06-1.12-1.58-3.35-2-5.83-2s-4.61.32-5.79 2c-1.3 1.87-1.48 5-1.48 8.06zM69 42.29a11.84 11.84 0 0 1 2.16.58 4.47 4.47 0 0 1 2.56 4.25 4.43 4.43 0 0 1-2.27 4.21c-1.91.94-4.61 1-6.87 1h-7.9a.76.76 0 0 1-.79-.72V31.46a.78.78 0 0 1 .79-.72h5.9c2.27 0 4.9 0 6.7 1.26s2 3.38 2 5c-.02 2-.42 4.21-2.28 5.29zm-.61-1.37c1-.68 1.33-2.12 1.33-3.89s-.29-3.17-1.33-3.89c-1.33-.9-3.74-1-6.16-1h-4.76v9.72h4.72c2.3.03 4.81 0 6.15-.94zm-10.92 2.41v7.56h6.12c2.48 0 5.44 0 7.06-.79a3.21 3.21 0 0 0 1.44-3 3.11 3.11 0 0 0-1.66-3c-1.66-.68-4.61-.83-7.38-.83zM95.34 32.18h-6.48c-3 0-5.76.11-7.42 1.94s-1.8 5.36-1.8 8.5c0 2.74.14 5.25 1.76 6.7s4.61 1.58 7.45 1.58h6.48a.72.72 0 1 1 0 1.44h-7.15c-2.59 0-5.72-.07-7.88-2s-2.23-5-2.23-7.7v-.79c0-2.92.11-6.23 2.2-8.57s5.69-2.52 8.64-2.52h6.48a.72.72 0 1 1 0 1.44zM103.41 31.46a.78.78 0 0 1 .79-.72h6.16c3 0 6.48.07 8.68 2.52s2.2 5.65 2.2 8.57v.79c0 2.66 0 5.72-2.23 7.7s-5.29 2-7.88 2h-6.93a.76.76 0 0 1-.79-.72zm6.95 19.44c2.84 0 5.76 0 7.49-1.58s1.76-4 1.76-6.7c0-3.13 0-6.52-1.8-8.5s-4.43-1.94-7.45-1.94H105v18.71zM142.86 52.33H128a.76.76 0 0 1-.79-.72V31.46a.78.78 0 0 1 .79-.72h14.9a.72.72 0 1 1 0 1.44h-14.15v9.72h12a.72.72 0 1 1 0 1.44h-12v7.56h14.11a.72.72 0 1 1 0 1.44zM150.93 51.9V31.46a.78.78 0 0 1 .79-.72h14.9a.72.72 0 1 1 0 1.44h-14.11v9.72h12a.72.72 0 1 1 0 1.44h-12v8.56a.8.8 0 0 1-1.58 0zM190.06 32.18h-6.16c-3 0-5.76.11-7.42 1.94s-1.8 5.36-1.8 8.5c0 2.74.14 5.25 1.76 6.7s4.61 1.58 7.45 1.58h5.36v-7.57h-5.35a.72.72 0 1 1 0-1.44h6.16a.78.78 0 0 1 .79.72v9a.76.76 0 0 1-.79.72h-6.84c-2.59 0-5.72-.07-7.88-2s-2.23-5-2.23-7.7v-.79c0-2.92.11-6.23 2.2-8.57s5.69-2.52 8.64-2.52h6.16a.72.72 0 1 1 0 1.44zM198.45 51.9V31.17a.8.8 0 0 1 1.58 0v10.72h14.61V31.17a.8.8 0 0 1 1.58 0V51.9a.8.8 0 0 1-1.58 0v-8.57H200v8.57a.8.8 0 0 1-1.58 0zM224.66 51.9V31.17a.8.8 0 0 1 1.58 0V51.9a.8.8 0 0 1-1.58 0zM232.18 51.22h.82c2.7 0 5-.11 6.52-1.62s1.58-4.36 1.58-7V31.46a.8.8 0 0 1 1.58 0V43.33c0 2.41-.11 5.18-2 7.16s-5.08 2.12-7.67 2.12h-.9a.78.78 0 0 1-.79-.72.75.75 0 0 1 .86-.67zM250.29 51.9V31.17a.8.8 0 0 1 1.58 0v11.12l4.13-3.67s.07 0 .11-.07l9-7.88a.86.86 0 0 1 .54-.22.8.8 0 0 1 .83.72.63.63 0 0 1-.25.5l-8.57 7.52 8.67 12.35a.67.67 0 0 1 .14.4.77.77 0 0 1-.83.68.73.73 0 0 1-.65-.32l-8.5-12.09-4.64 4.07v7.62a.8.8 0 0 1-1.58 0zM287.8 52.33h-14.58a.76.76 0 0 1-.79-.72V31.46a.8.8 0 0 1 1.58 0v19.43h13.79a.72.72 0 1 1 0 1.44zM315.59 31.17V51.9a.8.8 0 0 1-1.58 0V34.12l-9 16a1.05 1.05 0 0 1-.79.4.69.69 0 0 1-.65-.4l-9-16V51.9a.8.8 0 0 1-1.58 0V31.17a.78.78 0 0 1 .79-.72.87.87 0 0 1 .72.4l9.83 17.39 9.83-17.39a.78.78 0 0 1 .68-.4.81.81 0 0 1 .75.72zM323.19 51.9V31.17a.78.78 0 0 1 .79-.72.9.9 0 0 1 .65.29l14.76 17V31.17a.8.8 0 0 1 1.58 0v18.5a.31.31 0 0 1 0 .25v2a.8.8 0 0 1-1.58 0V50l-14.62-16.78V51.9a.8.8 0 0 1-1.58 0zM365.88 33c2.05 2.45 2.09 6 2.09 9.21v1.01c0 2.45-.07 5.29-2.16 7.27s-5.4 2.09-8.17 2.09h-.86c-2.56 0-5.62-.07-7.7-2.09s-2.16-5-2.16-7.7v-.22-.83c0-3 .11-6.37 2.12-8.75s5.47-2.59 8.39-2.59c2.76.05 6.29.12 8.45 2.6zm-15.55.83c-1.73 2.05-1.76 5.54-1.76 8.75 0 2.81.11 5.4 1.73 6.95s4.39 1.66 7.16 1.66 5.58-.11 7.2-1.66 1.73-4.28 1.73-6.95c0-3.35-.07-6.77-1.76-8.75s-4.36-2-7.16-2-5.59.24-7.14 2.04zM375.53 51.9a.8.8 0 0 1-1.58 0V31.46a.78.78 0 0 1 .79-.72h9.32c2 0 4.36 0 6 1.3s1.69 3.42 1.69 5-.11 3.78-1.69 5-3.74 1.3-5.54 1.3h-9zm8.24-10c2 0 4.07 0 5.22-.94.94-.72 1.15-2.2 1.15-3.92s-.14-3.17-1.14-3.93-3.1-.94-5.22-.94h-8.24v9.72zM415 33c2.05 2.45 2.09 6 2.09 9.21v1.01c0 2.27-.07 4.82-1.69 6.77l1.48 1.4a.56.56 0 0 1 .22.47.8.8 0 0 1-.83.72.78.78 0 0 1-.58-.22L414.33 51c-2.12 1.55-5 1.58-7.52 1.58h-.86c-2.56 0-5.62-.07-7.7-2.09s-2.16-5-2.16-7.7v-.22-.83c0-3 .11-6.37 2.12-8.75s5.47-2.59 8.39-2.59c2.73.05 6.26.12 8.4 2.6zm-4.7 12.46a1 1 0 0 1 .61.22l3.42 3.28c1.15-1.62 1.19-4 1.19-6.33 0-3.35-.07-6.77-1.76-8.75s-4.36-2-7.16-2-5.58.22-7.13 2c-1.73 2.05-1.76 5.54-1.76 8.75 0 2.81.11 5.4 1.73 6.95s4.39 1.66 7.16 1.66c2.59 0 5-.07 6.66-1.19l-3.49-3.38a.73.73 0 0 1-.22-.5.75.75 0 0 1 .75-.71zM424.67 51.9a.8.8 0 0 1-1.58 0V31.46a.78.78 0 0 1 .79-.72h9.32c2 0 4.36 0 6 1.3s1.69 3.42 1.69 5-.11 3.78-1.69 5a8 8 0 0 1-4.79 1.26l6.37 8.21a.69.69 0 0 1 .14.43.77.77 0 0 1-.83.68.87.87 0 0 1-.65-.32l-6.95-9h-7.81zM438.13 41c.94-.72 1.15-2.2 1.15-3.92s-.14-3.17-1.15-3.92-3.1-.94-5.22-.94h-8.24v9.72h8.28c1.98-.05 4.05-.08 5.18-.94zM459.95 43.33h-8.21a6.77 6.77 0 0 1-4.32-1.08c-1.3-1-1.37-2.74-1.37-4.1v-.72c0-1.66.07-3.6 1.26-5s3.42-1.66 5.11-1.66h9a.72.72 0 1 1 0 1.44h-9c-1.73 0-3.06.14-3.82 1-.9 1.08-1 3.1-1 4.93 0 1.4.18 2.52.86 3.06s2.38.68 3.92.68h7.74a5.06 5.06 0 0 1 3.1.72 2.86 2.86 0 0 1 1 2.48v.58c0 1.69 0 3.64-.76 5a3.86 3.86 0 0 1-3.53 1.66h-13.1a.72.72 0 1 1 0-1.44h13.1A2.29 2.29 0 0 0 462 50c.54-1 .61-2.92.61-4.72s-.61-1.95-2.66-1.95zM468.16 30.74h19.44a.76.76 0 0 1 .79.72.73.73 0 0 1-.79.68h-8.93V51.9a.8.8 0 0 1-1.58 0V32.14h-8.93a.71.71 0 0 1-.76-.68.75.75 0 0 1 .76-.72zM494.33 31.17v11.44c0 2.74.11 5.47 1.48 7s3.49 1.58 5.83 1.58 4.61-.14 5.87-1.58c1.4-1.62 1.44-4.43 1.44-7V31.17a.8.8 0 0 1 1.58 0v12.2c0 2.38-.11 5.18-1.8 7.13s-4.72 2.12-7.13 2.12-5.26 0-7.09-2.12-1.8-5-1.8-7.56V31.17a.8.8 0 0 1 1.58 0zM517 30.45a.8.8 0 0 1 .76.47l7.63 18.93 7.67-18.93a.77.77 0 0 1 .72-.47.79.79 0 0 1 .83.68.7.7 0 0 1 0 .25l-8.42 20.77a.82.82 0 0 1-.72.47.76.76 0 0 1-.76-.47l-8.42-20.77a.46.46 0 0 1 0-.22.76.76 0 0 1 .71-.71zM539.15 30.45a.82.82 0 0 1 .76.5l6.66 18.65 5.9-16.52a.75.75 0 0 1 .72-.5.8.8 0 0 1 .83.61l5.87 16.41 6.65-18.6a.75.75 0 0 1 .72-.5.77.77 0 0 1 .83.68.61.61 0 0 1 0 .25l-7.42 20.73a.85.85 0 0 1-.76.5.79.79 0 0 1-.76-.5l-5.9-16.49-5.9 16.49a.85.85 0 0 1-.76.5.79.79 0 0 1-.76-.5l-7.42-20.73a.46.46 0 0 1 0-.22.74.74 0 0 1 .74-.76zM572.92 30.45a1 1 0 0 1 .68.32l7.4 9.54 7.45-9.54a.87.87 0 0 1 .65-.32.77.77 0 0 1 .83.68.69.69 0 0 1-.14.43l-7.81 10 7.81 10a.7.7 0 0 1 .14.43.77.77 0 0 1-.83.68.87.87 0 0 1-.65-.32L581 42.76l-7.4 9.54a1 1 0 0 1-.68.32.75.75 0 0 1-.76-.68.77.77 0 0 1 .11-.43l7.81-10-7.81-10a.76.76 0 0 1-.11-.43.75.75 0 0 1 .76-.63zM597.47 31.17v4.36c0 2.2.22 4.1 1.48 5.15s3.89 1.22 6.26 1.22 4.9-.07 6.26-1.22 1.44-3.1 1.44-5.15v-4.36a.8.8 0 0 1 1.58 0v4.36c0 2 0 4.57-1.94 6.19-1.76 1.48-4.28 1.62-6.55 1.62v8.56a.8.8 0 0 1-1.58 0v-8.57c-2.16 0-4.72-.11-6.55-1.62s-2-4.07-2-6.19v-4.35a.8.8 0 0 1 1.58 0zM622.85 30.74H639a.76.76 0 0 1 .79.72.51.51 0 0 1-.14.4l-15.3 19H639a.72.72 0 1 1 0 1.44h-16.2a.81.81 0 0 1-.79-.72.66.66 0 0 1 .18-.4l15.3-19h-14.64a.72.72 0 1 1 0-1.44zM30.51 93.9v-8c0-2.16.07-4.57 1.58-6.26s4-1.8 5.87-1.8h.25c2.05 0 4.54 0 6.12 1.8s1.55 3.92 1.55 5.87v8.39a.8.8 0 0 1-1.58 0V87H32.09v6.9a.8.8 0 0 1-1.58 0zm13.79-8.39c0-1.91-.14-3.82-1.19-5s-2.77-1.3-4.9-1.3-3.82.11-4.9 1.3-1.15 3-1.19 5zM53.44 78.85a.78.78 0 0 1 .79-.72h5.15a13.32 13.32 0 0 1 5.69.86 3.77 3.77 0 0 1 1.8 3.53 3.94 3.94 0 0 1-1.51 3.42 11 11 0 0 1 1.3.4 3.76 3.76 0 0 1 2.3 3.6 3.71 3.71 0 0 1-2 3.56 15 15 0 0 1-5.87.83h-6.86a.76.76 0 0 1-.79-.72zm10.83 6a2.62 2.62 0 0 0 1-2.38 2.55 2.55 0 0 0-1-2.34c-1.08-.58-3.24-.61-5.29-.61H55v5.94h4c1.89.05 4.13.05 5.28-.56zM55 87v5.94h5.15c2.12 0 4.68 0 6-.65a2.41 2.41 0 0 0 1.15-2.3A2.47 2.47 0 0 0 66 87.6a19.87 19.87 0 0 0-6.15-.6zM88.36 79.58h-5.44c-2.66 0-5.22.07-6.69 1.26s-1.55 3.28-1.55 5.4.22 4.32 1.55 5.4c1.51 1.26 4.18 1.26 6.69 1.26h5.44a.72.72 0 1 1 0 1.44h-6.19c-2.3 0-5.08-.11-7-1.69s-2.05-4.18-2.05-6.41 0-4.75 2.05-6.41 5-1.69 7.49-1.69h5.72a.72.72 0 1 1 0 1.44zM96.43 78.85a.78.78 0 0 1 .79-.72h5.44c2.52 0 5.51.07 7.49 1.69s2.05 4.32 2.05 6.41-.11 4.82-2.05 6.41-4.72 1.69-7 1.69h-5.9a.76.76 0 0 1-.79-.72zm5.94 14c2.52 0 5.18 0 6.7-1.26 1.33-1.08 1.55-3.13 1.55-5.4s-.18-4.28-1.55-5.4-4-1.26-6.7-1.26H98v13.36zM131.34 94.33h-12.63a.76.76 0 0 1-.79-.72V78.85a.78.78 0 0 1 .79-.72h12.63a.72.72 0 1 1 0 1.44H119.5v5.94h9.68a.72.72 0 1 1 0 1.44h-9.68v5.94h11.84a.72.72 0 1 1 0 1.44zM139.41 93.9v-15a.78.78 0 0 1 .79-.72h12.63a.72.72 0 1 1 0 1.44H141v5.94h9.68a.72.72 0 1 1 0 1.44H141v6.9a.8.8 0 0 1-1.58 0zM174 79.58h-5.11c-2.66 0-5.22.07-6.69 1.26s-1.55 3.28-1.55 5.4.22 4.32 1.55 5.4c1.51 1.26 4.18 1.26 6.69 1.26h4.32V87h-4.32a.72.72 0 1 1 0-1.44H174a.78.78 0 0 1 .79.72v7.38a.76.76 0 0 1-.79.72h-5.87c-2.3 0-5.08-.11-7-1.69s-2.05-4.18-2.05-6.41 0-4.75 2.05-6.41 5-1.69 7.49-1.69H174a.72.72 0 1 1 0 1.44zM182.39 93.9V78.57a.8.8 0 0 1 1.58 0v6.95h12.2v-6.95a.8.8 0 0 1 1.58 0V93.9a.8.8 0 0 1-1.58 0V87H184v6.9a.8.8 0 0 1-1.58 0zM205.68 93.9V78.57a.8.8 0 0 1 1.58 0V93.9a.8.8 0 0 1-1.58 0zM212.7 93.22h.76c2.3 0 4.25-.07 5.44-1.3s1.3-3.53 1.3-5.69v-7.38a.8.8 0 0 1 1.58 0v8.06c0 2-.07 4.28-1.69 5.94s-4.32 1.76-6.48 1.76h-.9a.78.78 0 0 1-.79-.72.75.75 0 0 1 .78-.67zM229.33 93.9V78.57a.8.8 0 0 1 1.58 0v8l3.56-2.63 7.9-5.94a1 1 0 0 1 .5-.18.79.79 0 0 1 .79.72.64.64 0 0 1-.29.54l-7.31 5.44 7.42 9a.75.75 0 0 1 .18.43.77.77 0 0 1-.83.68.76.76 0 0 1-.61-.29l-7.34-8.89-4 2.92v5.53a.8.8 0 0 1-1.58 0zM262.78 94.33h-12.64a.76.76 0 0 1-.79-.72V78.85a.8.8 0 0 1 1.58 0v14h11.84a.72.72 0 1 1 0 1.44zM267.93 93.9V78.57a.78.78 0 0 1 .79-.72.84.84 0 0 1 .68.32l8.39 12.27 8.42-12.27a.84.84 0 0 1 1.08-.22.66.66 0 0 1 .36.61V93.9a.8.8 0 0 1-1.58 0V81.05l-7.6 11.09s0 .11-.25.25a.77.77 0 0 1-.43.11.81.81 0 0 1-.65-.36l-7.63-11.09V93.9a.8.8 0 0 1-1.58 0zM295.25 93.9V78.57a.78.78 0 0 1 .79-.72 1 1 0 0 1 .61.22L309 90V78.57a.8.8 0 0 1 1.58 0V93.91a.8.8 0 0 1-1.58 0v-1.84l-12.2-11.7V93.9a.8.8 0 0 1-1.58 0zM326.57 77.85c2.23 0 5 .07 6.88 1.73s2 4.36 2 6.66v.25c0 2.12 0 4.68-2 6.41s-4.86 1.73-7.31 1.73h-1c-2.23 0-4.93-.07-6.84-1.73s-2-4.36-2-6.66V86c0-2.12 0-4.68 2-6.41s4.86-1.73 7.31-1.73zm-7.13 2.74c-1.4 1.22-1.51 3.46-1.51 5.65s.18 4.46 1.51 5.65 4 1.33 6.44 1.33 5-.07 6.44-1.33 1.51-3.46 1.51-5.65-.18-4.46-1.51-5.65-4-1.33-6.44-1.33-5.03.06-6.44 1.32zM342.7 93.9a.8.8 0 0 1-1.58 0v-15a.78.78 0 0 1 .79-.72h8c1.69 0 3.67 0 5.08.86a3.74 3.74 0 0 1 1.62 3.53 3.83 3.83 0 0 1-1.61 3.52 9.39 9.39 0 0 1-4.64.86h-7.66zm6.84-8.39c1.69 0 3.6 0 4.61-.61a2.64 2.64 0 0 0 .9-2.38 2.68 2.68 0 0 0-.9-2.34c-.94-.54-2.77-.61-4.61-.61h-6.84v5.94zM371 77.85c2.23 0 5 .07 6.88 1.73s2 4.36 2 6.66v.25c0 1.91 0 4.17-1.48 5.87l1.22 1a.63.63 0 0 1 .25.5.76.76 0 0 1-.79.72 1 1 0 0 1-.58-.22l-1.22-1.08c-1.91 1.26-4.46 1.3-6.7 1.3h-1c-2.23 0-4.93-.07-6.84-1.73s-2-4.36-2-6.66V86c0-2.12 0-4.68 2-6.41s4.86-1.73 7.31-1.73zm2.63 10.62a.85.85 0 0 1 .58.22l3 2.66c.94-1.26 1-3.2 1-5.11 0-2.34-.18-4.46-1.51-5.65s-4-1.33-6.44-1.33-5 .07-6.44 1.33-1.51 3.46-1.51 5.65.18 4.46 1.51 5.65 4 1.33 6.44 1.33c2.23 0 4.36-.07 5.8-.9l-3-2.66a.73.73 0 0 1-.22-.5.78.78 0 0 1 .78-.69zM387.12 93.9a.8.8 0 0 1-1.58 0v-15a.78.78 0 0 1 .79-.72h8c1.69 0 3.67 0 5.08.86a3.74 3.74 0 0 1 1.62 3.53 3.83 3.83 0 0 1-1.62 3.56 8.11 8.11 0 0 1-3.92.83l5.4 6.59a.75.75 0 0 1 .18.43.83.83 0 0 1-1.44.4L393.56 87h-6.44zm11.45-9a2.64 2.64 0 0 0 .9-2.38 2.68 2.68 0 0 0-.9-2.34c-.94-.54-2.77-.61-4.61-.61h-6.84v5.94H394c1.69 0 3.59-.03 4.57-.61zM419.81 79.58h-8.1c-1.55 0-2.77 0-3.46.65s-.76 1.8-.76 3.06a2 2 0 0 0 .65 1.76 8.45 8.45 0 0 0 3.56.47h7.09a4.53 4.53 0 0 1 2.7.61 2.55 2.55 0 0 1 .94 2.34v.32a8.34 8.34 0 0 1-.72 4.14 3.59 3.59 0 0 1-3.2 1.4h-11.8a.72.72 0 1 1 0-1.44h11.81c.83 0 1.51-.14 1.8-.65a8.47 8.47 0 0 0 .54-3.78c0-.61-.11-1.08-.32-1.22a4.36 4.36 0 0 0-2-.29H411a7.31 7.31 0 0 1-3.67-.72 3.21 3.21 0 0 1-1.37-3v-.4a4.43 4.43 0 0 1 1.22-3.64c1.22-1.08 3-1.12 4.39-1.12h8.28a.72.72 0 1 1 0 1.44zM426.07 78.13h17.35a.76.76 0 0 1 .79.72.73.73 0 0 1-.79.68h-7.88V93.9a.8.8 0 0 1-1.58 0V79.54h-7.88a.71.71 0 0 1-.76-.68.75.75 0 0 1 .75-.73zM450.12 78.57v7.67c0 2.27.11 4.46 1.22 5.69s2.92 1.3 4.9 1.3 3.85-.14 4.9-1.3 1.19-3.53 1.19-5.69v-7.67a.8.8 0 0 1 1.58 0V87c0 1.94-.07 4.25-1.55 5.87s-4.07 1.8-6.12 1.8H456c-1.87 0-4.28 0-5.87-1.8s-1.58-4.1-1.58-6.26v-8a.8.8 0 0 1 1.58 0zM470.14 77.85a.87.87 0 0 1 .72.43l6.84 13.89 6.88-13.89a.69.69 0 0 1 .68-.43.79.79 0 0 1 .83.68 1.07 1.07 0 0 1-.07.32l-7.6 15.33a.92.92 0 0 1-.79.43.67.67 0 0 1-.65-.43l-7.6-15.33a.71.71 0 0 1 0-.29.76.76 0 0 1 .76-.71zM490.15 77.85a.76.76 0 0 1 .72.43L497 92l5.1-11.6a.74.74 0 0 1 .68-.43.82.82 0 0 1 .83.58L508.69 92l6.08-13.71a.73.73 0 0 1 .72-.43.79.79 0 0 1 .83.68 1.15 1.15 0 0 1-.07.29l-6.8 15.37a1 1 0 0 1-.83.43.67.67 0 0 1-.65-.43l-5.15-11.6-5.15 11.59a.92.92 0 0 1-.79.43.72.72 0 0 1-.68-.43l-6.8-15.37a.55.55 0 0 1 0-.25.76.76 0 0 1 .75-.72zM520.64 77.85a.89.89 0 0 1 .65.25l6.66 7.06 6.7-7.06a.82.82 0 0 1 1.4.43.64.64 0 0 1-.18.47L529 86.23l6.88 7.23a.64.64 0 0 1 .18.47.82.82 0 0 1-1.4.43l-6.7-7.06-6.66 7.06a.89.89 0 0 1-.65.25.75.75 0 0 1-.76-.68.68.68 0 0 1 .18-.47l6.84-7.23-6.84-7.23a.68.68 0 0 1-.18-.47.75.75 0 0 1 .75-.68zM543.32 78.57v2.92c0 1.51.36 2.7 1.15 3.24 1.19.76 3.38.79 5.33.79 2.12 0 4.21-.07 5.33-.79.86-.58 1.12-1.87 1.12-3.24v-2.92a.79.79 0 0 1 1.58 0v2.92c0 1.4-.14 3.28-1.76 4.36a10.34 10.34 0 0 1-5.48 1.15v6.9a.8.8 0 0 1-1.58 0V87c-1.76 0-3.89-.11-5.44-1.12s-1.8-2.81-1.8-4.36v-2.95a.8.8 0 0 1 1.58 0zM566.22 78.13H580a.76.76 0 0 1 .79.72.6.6 0 0 1-.18.43l-12.7 13.61H580a.72.72 0 1 1 0 1.44h-13.78a.84.84 0 0 1-.79-.72.62.62 0 0 1 .22-.43l12.67-13.61h-12.1a.72.72 0 1 1 0-1.44zM42.06 122.15c1.37 2.38 1.37 6 1.37 9.07v1.23c0 2.34-.11 5-1.44 7s-3.78 2.2-5.87 2.2c-1.91 0-4.43-.22-5.83-2.2s-1.44-4.86-1.44-7.42v-.4-.9c0-2.88.07-6.23 1.4-8.57 1.15-2.05 3.64-2.7 5.87-2.7s4.72.54 5.94 2.69zm-10.37.61c-1.19 2.09-1.19 5.76-1.19 8.85 0 2.66.07 5.51 1.15 7.05.9 1.26 2.63 1.55 4.5 1.55s3.71-.32 4.54-1.55c1.12-1.62 1.15-4.54 1.15-7.05 0-3.2 0-6.84-1.19-8.85-.83-1.44-2.63-1.91-4.5-1.91s-3.7.54-4.45 1.91zM49.45 128a.77.77 0 0 1 .14-.43l6.48-7.85a.7.7 0 0 1 .58-.29.86.86 0 0 1 .83.72v20.75a.8.8 0 0 1-1.58 0v-18.61l-5 6.12a.85.85 0 0 1-.65.29.78.78 0 0 1-.8-.7zM68.81 119.74H75c1.62 0 3.6 0 4.93 1.37a5.8 5.8 0 0 1 1.33 4.32v.86c0 1.58 0 3.38-1.3 4.68a6.22 6.22 0 0 1-4.54 1.37h-.54c-2 0-3.71.29-4.57 1.48-1 1.4-1.19 3.85-1.19 6.08h11.79a.72.72 0 1 1 0 1.44h-12.6a.78.78 0 0 1-.79-.72v-.83c0-2.27.07-4.9 1.44-6.77s3.85-2.12 5.9-2.12c1.58 0 3 0 3.89-.86s.9-2.27.9-4 0-3.13-.9-4-2.16-.86-3.89-.86h-6a.72.72 0 1 1 0-1.44zM87.71 139.89h6c1.69 0 3.17 0 4-.68s.83-1.8.83-3.1-.14-2.56-.83-3.1-2.41-.68-4-.68h-2.3a.72.72 0 1 1 0-1.44h2.3c1.51 0 2.59-.11 3.2-.83s.79-2.48.79-4-.07-3.2-.79-4-1.84-.83-3.2-.83h-6a.72.72 0 1 1 0-1.44h6.23c1.3 0 3.13 0 4.28 1.4s1.12 3 1.12 4.57v1a6.25 6.25 0 0 1-1.12 4.21 3.16 3.16 0 0 1-.5.47 4.38 4.38 0 0 1 1 .61c1.3 1 1.37 2.7 1.37 4.1 0 1.22 0 3-1.37 4.1s-3.2 1.12-4.75 1.12h-6.3a.72.72 0 1 1 0-1.44zM114.17 120.17a.7.7 0 0 1 0 .29l-7.6 14.83h7.67V128a.8.8 0 0 1 1.58 0v7.31h4.07a.73.73 0 0 1 .79.68.76.76 0 0 1-.79.72h-4.07v4.21a.8.8 0 0 1-1.58 0v-4.21h-8.89c-.32-.07-.83-.22-.83-.72a.85.85 0 0 1 .07-.29l8.1-15.8a.87.87 0 0 1 .72-.43.76.76 0 0 1 .76.7zM125.51 139.89h7.31c1.37 0 2.34-.07 2.88-.65s.65-1.87.65-3.13-.07-2.52-.65-3.13-1.62-.65-2.88-.65h-7a.76.76 0 0 1-.79-.72v-11.15a.78.78 0 0 1 .79-.72h9.72a.72.72 0 1 1 0 1.44h-8.93v9.72h6.73a4.68 4.68 0 0 1 3.56 1.15 5.26 5.26 0 0 1 1.1 3.85v.83a4.73 4.73 0 0 1-1.08 3.46c-1.08 1.12-2.7 1.15-4 1.15h-7.42a.72.72 0 1 1 0-1.44zM150.71 130.89a7.45 7.45 0 0 1 4.64 1.12c1.4 1 1.48 2.81 1.48 4.25s0 3.13-1.48 4.25-3.38 1.12-5.08 1.12h-1c-1.48 0-3.35-.07-4.68-1.12s-1.48-2.81-1.48-4.25v-.36c0-4.36 0-9.47 1.55-12.78 1.22-2.59 4.14-3.67 6.77-3.67h3a.76.76 0 0 1 .79.72.73.73 0 0 1-.79.68h-3c-2.2 0-4.39.86-5.29 2.81s-1.26 5.08-1.37 8.24c1.4-1 3.31-1 4.93-1zm-5.08 2.2c-.79.61-.94 1.84-.94 3.17s.22 2.66.94 3.2c.94.72 2.7.76 4.36.76s3.46-.07 4.32-.76.94-1.87.94-3.2-.22-2.63-.94-3.17c-.94-.72-2.66-.76-4.32-.76s-3.49.08-4.35.76zM162 119.74h12.92a.76.76 0 0 1 .79.72v.22l-8 20.48a.72.72 0 0 1-.72.47.79.79 0 0 1-.83-.68.62.62 0 0 1 0-.25l7.67-19.51H162a.72.72 0 1 1 0-1.44zM191.72 131.33a5.24 5.24 0 0 1 1.28.67c1.44 1 1.58 2.77 1.58 4.25s-.07 3.2-1.58 4.28-3.56 1.08-5.33 1.08h-.68c-1 0-4-.18-5.33-1.12s-1.58-2.81-1.58-4.28.07-3.17 1.58-4.25a4.47 4.47 0 0 1 1.37-.68 5.09 5.09 0 0 1-.47-.43c-1.19-1.3-1.22-3.13-1.22-4.72v-1a6.33 6.33 0 0 1 1.22-4.36c1.26-1.37 3.2-1.4 4.75-1.4h.36c1.37 0 3.2 0 4.43 1.4s1.22 3.13 1.22 4.72v1c.05 1.63-.24 3.79-1.6 4.84zm-9 1.76c-.79.58-1 1.84-1 3.17s.22 2.63 1 3.17c1 .72 2.92.79 4.68.79s3.74-.11 4.72-.79c.79-.58 1-1.83 1-3.17s-.22-2.63-1-3.17c-1-.72-3-.76-4.72-.76s-3.75.08-4.72.76zm4.68-2.2c1.62 0 2.84-.07 3.56-.86s.83-2.56.83-4.14-.07-3.28-.83-4.14-2.09-.9-3.56-.9-2.81.11-3.53.9-.86 2.56-.86 4.14.11 3.28.86 4.14 2.01.86 3.49.86zM206.48 119.45c1.55 0 3.46.07 4.82 1.37s1.44 3.38 1.44 5.08v.86c0 4-.11 8.46-1.58 11.45-1.26 2.56-4.18 3.42-6.73 3.42h-3a.76.76 0 0 1-.79-.72.74.74 0 0 1 .79-.68h3c2.2 0 4.36-.76 5.29-2.59a17.87 17.87 0 0 0 1.33-6.44c-1.4 1.12-3.38 1.15-5 1.15h-.79c-1.55 0-3.46-.07-4.82-1.37s-1.4-3.38-1.4-5.08v-.58c0-1.48.07-3.24 1.44-4.5s3.53-1.37 5.26-1.37zm-4.9 2.34c-.94.9-1 2.45-1 4.1s.07 3.28 1 4.1 2.56.9 4.28.9 3.38-.07 4.28-.9 1-2.48 1-4.1-.11-3.28-1-4.1-2.56-.94-4.28-.94-3.38.15-4.28.94zM240.82 121.18h-4.07v9.72h.94c1.4 0 3.17 0 4.36 1.12a4.63 4.63 0 0 1 1.22 3.67v.43c0 1.33 0 3-1.19 4.1a5.69 5.69 0 0 1-4 1.12h-1.33v.72a.8.8 0 0 1-1.58 0v-.72h-5.65a.72.72 0 1 1 0-1.44h5.65v-7.56h-1.3a5.7 5.7 0 0 1-4-1.12c-1.22-1.12-1.19-2.74-1.19-4.07v-.76c0-1.66.11-3.6 1.15-5s3-1.66 4.61-1.66h.72V119a.8.8 0 0 1 1.58 0v.72h4.07a.72.72 0 1 1 0 1.44zm-5.65 0h-.72c-1.55 0-2.7.18-3.31 1-.83 1.12-.83 3.13-.83 5 0 1.4.11 2.48.76 3.06s2 .68 3.38.68h.72zm1.58 18.72h.76c1.4 0 2.66 0 3.38-.68s.76-1.69.76-3.1-.07-2.48-.76-3.1-1.84-.68-3.38-.68h-.76zM250.94 139.89h12a.72.72 0 1 1 0 1.44H248.4a.72.72 0 0 1-.79-.72.74.74 0 0 1 .79-.72 1.59 1.59 0 0 0 1.4-1.26 26.59 26.59 0 0 0 .54-6.34h-1.94a.74.74 0 0 1-.79-.68.78.78 0 0 1 .79-.72h1.94V125a5.86 5.86 0 0 1 1-3.92c1.08-1.26 2.81-1.33 4.18-1.33H260a.72.72 0 1 1 0 1.44h-4.46c-1.4 0-2.38.11-2.92.76s-.72 2.3-.72 3.74v5.22h5.94a.76.76 0 0 1 .79.72.73.73 0 0 1-.79.68h-5.94c.04 2.76.1 5.93-.96 7.58zM267.86 140.61a1 1 0 0 1 1-1 1 1 0 0 1 1.08 1 1 1 0 0 1-1.08 1 1 1 0 0 1-1-1zm.25-6v-14.44a.8.8 0 0 1 1.58 0v14.43a.8.8 0 0 1-1.58 0zM282.54 134.6a.8.8 0 0 1-1.58 0v-.43a3.13 3.13 0 0 1 .86-2.45 4.15 4.15 0 0 1 3-.83h.18c1.51 0 2.81 0 3.6-.86s.86-2.3.86-4 0-3.13-.86-4-1.94-.86-3.6-.86h-8.5a.72.72 0 1 1 0-1.44h8.5c1.55 0 3.53 0 4.82 1.37a6 6 0 0 1 1.22 4.28v.94c0 1.58 0 3.38-1.22 4.64s-3 1.37-4.39 1.37H285c-2.1 0-2.46.29-2.46 2.27zm-1.87 6a1 1 0 0 1 1.08-1 1 1 0 0 1 1.08 1 1 1 0 0 1-1.08 1 1.07 1.07 0 0 1-1.08-.99zM299.68 127.47a1 1 0 0 1-1.08 1 1 1 0 0 1-1-1 1 1 0 0 1 1-1 1.07 1.07 0 0 1 1.08 1zm-.29 6v14.43a.8.8 0 0 1-1.58 0v-14.41a.8.8 0 0 1 1.58 0zM314.69 133.49a.8.8 0 0 1 1.58 0 3.35 3.35 0 0 1-.86 2.77 3.72 3.72 0 0 1-2.63.76h-.54c-1.66 0-2.88.07-3.6.86s-.86 2.52-.86 4.1.07 3.24.86 4.07 2.09.86 3.6.86h8.49a.72.72 0 1 1 0 1.44h-8.89c-1.37 0-3.2-.07-4.43-1.4s-1.22-3.1-1.22-4.68v-1a6.07 6.07 0 0 1 1.22-4.32c1.3-1.37 3.28-1.37 4.82-1.37 1.96.03 2.46-.11 2.46-2.09zm1.87-6a1 1 0 0 1-1.08 1 1 1 0 0 1-1.08-1 1 1 0 0 1 1.08-1 1.07 1.07 0 0 1 1.08.98zM327.51 135.75h3.78l1.33-6.7h-5.11a.74.74 0 0 1-.79-.68.78.78 0 0 1 .79-.72h5.4l1.51-7.63a.73.73 0 0 1 .76-.58c.43 0 .9.29.79.83l-1.44 7.38h5.69l1.51-7.63a.73.73 0 0 1 .76-.58c.43 0 .9.29.79.83l-1.48 7.38h3.53a.76.76 0 0 1 .79.72.73.73 0 0 1-.79.68h-3.78l-1.33 6.7h5.11a.76.76 0 0 1 .79.72.73.73 0 0 1-.79.68h-5.4l-1.51 7.67a.73.73 0 0 1-.76.58.75.75 0 0 1-.79-.83l1.44-7.42h-5.69l-1.51 7.67a.73.73 0 0 1-.76.58.75.75 0 0 1-.79-.83l1.48-7.42h-3.53a.74.74 0 0 1-.79-.68.78.78 0 0 1 .79-.72zm11.09 0l1.33-6.7h-5.69l-1.33 6.7zM361 124.59a4 4 0 0 1-1 3.06 5.09 5.09 0 0 1-3.67 1h-.68a4.48 4.48 0 0 1-3.28-1 4.42 4.42 0 0 1-1-3.42v-.18-.54a4 4 0 0 1 1-3.06 5.09 5.09 0 0 1 3.67-1h.68a4.48 4.48 0 0 1 3.28 1 4.42 4.42 0 0 1 1 3.42v.18c-.05.19 0 .37 0 .54zm-2.2-3.17a4 4 0 0 0-2.66-.58 4 4 0 0 0-2.66.58 3.77 3.77 0 0 0-.58 2.63c0 1.22.07 2.12.58 2.63a4 4 0 0 0 2.66.58 4 4 0 0 0 2.66-.58 3.77 3.77 0 0 0 .58-2.63c-.01-1.22-.09-2.12-.59-2.62zm-4.8 19.52a.89.89 0 0 1 .14-.43l15.55-20.73a.87.87 0 0 1 .65-.32.74.74 0 0 1 .79.68.69.69 0 0 1-.14.43l-15.51 20.73a.86.86 0 0 1-.65.32.79.79 0 0 1-.83-.68zm19.91-3.38a4 4 0 0 1-1 3.06 5.09 5.09 0 0 1-3.67 1h-.68a4.49 4.49 0 0 1-3.28-1 4.42 4.42 0 0 1-1-3.42v-.72a4 4 0 0 1 1-3.06 5.09 5.09 0 0 1 3.67-1h.68a4.49 4.49 0 0 1 3.28 1 4.39 4.39 0 0 1 1 3.42v.16c0 .19.03.37.03.55zm-2.2-3.17a4 4 0 0 0-2.66-.58 4 4 0 0 0-2.66.58 6 6 0 0 0 0 5.26 4 4 0 0 0 2.66.58 4 4 0 0 0 2.66-.58 3.78 3.78 0 0 0 .58-2.63c.03-1.23-.04-2.13-.54-2.63zM391.66 121.18h-6.16c-1.94 0-3.6.07-4.57.9s-1 2.34-1 4 .14 3.17 1 4 2.77.9 4.57.9h.18a.72.72 0 1 1 0 1.44h-.18c-1.87 0-3.71.07-4.64.72-.76.54-1 1.76-1 3.06s.25 2.56 1 3.06c1 .72 2.88.72 4.64.72h6.41c1.26 0 2.09-.07 2.56-.61s.65-1.91.65-3.17v-3.9h-3.46a.74.74 0 0 1-.79-.68.78.78 0 0 1 .79-.72h8.46a.76.76 0 0 1 .79.72.73.73 0 0 1-.79.68h-3.42v4.46a4.83 4.83 0 0 1-1 3.38c-1 1.15-2.63 1.19-3.82 1.19h-7.16a8.55 8.55 0 0 1-4.86-1.08c-1.4-1-1.58-2.7-1.58-4.14s.07-3.1 1.58-4.14a4.76 4.76 0 0 1 .72-.43 3.8 3.8 0 0 1-.79-.54c-1.51-1.3-1.51-3.28-1.51-5v-.29c0-1.51.07-3.38 1.55-4.68s3.63-1.33 5.43-1.33h6.41a.72.72 0 1 1 0 1.44zM411.24 120.85c-2.09 0-4 .79-4.72 2.38-1.26 2.59-1.26 7.13-1.26 10.83s0 8.28 1.26 10.8c.83 1.66 2.74 2.38 4.72 2.38a.73.73 0 0 1 .79.68.76.76 0 0 1-.79.72c-2.34 0-5-.86-6.16-3.2-1.4-2.88-1.44-7.24-1.44-11v-.36-.94c0-3.53.07-7.67 1.44-10.47 1.08-2.23 3.67-3.2 6.16-3.2a.78.78 0 0 1 .79.72.74.74 0 0 1-.79.66zM419.81 119.45c2.48 0 5.08 1 6.16 3.2 1.37 2.81 1.44 6.95 1.44 10.47V134.42c0 3.78 0 8.13-1.4 11-1.15 2.34-3.82 3.2-6.16 3.2a.76.76 0 0 1-.79-.72.73.73 0 0 1 .79-.68c2 0 3.89-.72 4.72-2.38 1.22-2.52 1.26-6.95 1.26-10.8s0-8.24-1.26-10.83c-.76-1.58-2.63-2.38-4.72-2.38a.74.74 0 0 1-.79-.68.78.78 0 0 1 .75-.7zM439.32 121.18h-4.39v25.74h4.39a.72.72 0 1 1 0 1.44h-5.18a.78.78 0 0 1-.79-.72v-27.18a.76.76 0 0 1 .79-.72h5.18a.72.72 0 1 1 0 1.44zM447.89 119.74H453a.76.76 0 0 1 .79.72v27.18a.78.78 0 0 1-.79.72h-5.15a.72.72 0 1 1 0-1.44h4.36v-25.74h-4.36a.72.72 0 1 1 0-1.44zM463 140.4v.79c0 2 .11 4 .9 5s2 1 3.49 1a.73.73 0 0 1 .79.68.76.76 0 0 1-.79.72c-1.48 0-3.56-.07-4.79-1.66s-1.19-3.6-1.19-5.44v-.36c0-1.87 0-4.18-.58-5.44a1.9 1.9 0 0 0-1.84-1 .74.74 0 0 1-.79-.68.76.76 0 0 1 .79-.72 1.93 1.93 0 0 0 1.84-1c.54-1.19.58-3.42.58-5.44v-.76a8.32 8.32 0 0 1 1.19-5c1.15-1.51 3.17-1.66 4.79-1.66a.78.78 0 0 1 .79.72.74.74 0 0 1-.79.68c-1.62 0-2.84.22-3.49 1-.86 1.12-.9 3.17-.9 5v.32c0 2.59-.07 5.69-1.69 6.84 1.62 1.12 1.69 4.1 1.69 6.41zM482 134.06c-1.62-1.15-1.69-4.25-1.69-6.84v-.32c0-1.83 0-3.89-.86-5-.65-.83-1.87-1-3.49-1a.74.74 0 0 1-.79-.68.78.78 0 0 1 .79-.72c1.62 0 3.64.14 4.79 1.66a8.33 8.33 0 0 1 1.19 5v.76c0 2 .07 4.25.61 5.44a1.93 1.93 0 0 0 1.84 1 .76.76 0 0 1 .79.72.74.74 0 0 1-.79.68 1.9 1.9 0 0 0-1.84 1c-.58 1.26-.61 3.56-.61 5.44v.36c0 1.84 0 4-1.19 5.44s-3.31 1.66-4.79 1.66a.76.76 0 0 1-.79-.72.73.73 0 0 1 .79-.68c1.48 0 2.81-.14 3.49-1s.86-3 .86-5v-.79c.01-2.38.12-5.36 1.69-6.41zM499.08 134.93a5 5 0 0 1-3.53-1 3.69 3.69 0 0 1-1-2.92v-.5a4.39 4.39 0 0 1 1-3.42 4.27 4.27 0 0 1 3.13-1h4.43a.76.76 0 0 1 .79.72v7.34a4.78 4.78 0 0 0 .5 2.7c.36.43 1.08.47 2 .47s1.73-.07 2.05-.47a4.56 4.56 0 0 0 .47-2.7v-3.67c0-3.1-.07-6.08-1.87-7.85s-4.86-1.84-7.85-1.84-6 .07-7.85 1.84-1.87 4.9-1.87 7.85.07 6.08 1.87 7.85 4.86 1.83 7.85 1.83a.74.74 0 0 1 .79.68.76.76 0 0 1-.79.72h-.65c-2.77 0-6.08-.07-8.35-2.3s-2.34-5.54-2.34-8.5v-.29-.72c0-2.74.11-5.87 2.34-8.06s5.79-2.3 8.82-2.3h.83c2.77 0 6.08.07 8.35 2.3s2.3 5.54 2.3 8.49v4.61a4.29 4.29 0 0 1-.83 2.92 4.17 4.17 0 0 1-3.31 1.08h-.25a3.78 3.78 0 0 1-3-1.08 4.38 4.38 0 0 1-.83-2.81zm3.24-7.34h-3.1a3.89 3.89 0 0 0-2.52.5 3.41 3.41 0 0 0-.58 2.45 3.45 3.45 0 0 0 .58 2.45 3.82 3.82 0 0 0 2.52.5h3.1zM516.5 140.9v-8c0-2.16.07-4.57 1.58-6.26s4-1.8 5.87-1.8h.68c1.83 0 4 0 5.47.86a3.88 3.88 0 0 1 1.76 3.67 4 4 0 0 1-1.55 3.56 9.75 9.75 0 0 1 1.22.4 3.79 3.79 0 0 1 2.2 3.6 3.7 3.7 0 0 1-2.2 3.56 17.72 17.72 0 0 1-6.41.83H522a.72.72 0 1 1 0-1.44h2.2c2.3 0 5.15 0 6.66-.65a2.43 2.43 0 0 0 1.3-2.3 2.48 2.48 0 0 0-1.3-2.34 18.62 18.62 0 0 0-5.79-.65h-.86a.72.72 0 1 1 0-1.44c1.87 0 4 0 5.08-.65a2.79 2.79 0 0 0 1-2.48 2.72 2.72 0 0 0-1-2.45c-1-.58-3.09-.68-5.08-.68s-3.82.11-4.9 1.3-1.22 3.42-1.22 5.69v7.67a.8.8 0 0 1-1.58 0zM539.54 123.41h.25l4.79 1.33c.4.11.58.36.58.61a.79.79 0 0 1-.79.76.61.61 0 0 1-.25 0l-4.79-1.33c-.22-.07-.58-.29-.58-.65a.75.75 0 0 1 .79-.72zm1.33 7.92a.65.65 0 0 1 .14-.4l3.2-4.14a.87.87 0 0 1 .65-.32.8.8 0 0 1 .83.72.66.66 0 0 1-.18.4l-3.2 4.14a.85.85 0 0 1-.65.29.79.79 0 0 1-.79-.69zm5.83-11.88v4.86a.8.8 0 0 1-1.58 0v-4.86a.8.8 0 0 1 1.58 0zm3.46 12.55a.85.85 0 0 1-.65-.29l-3.2-4.14a.66.66 0 0 1-.18-.4.8.8 0 0 1 .83-.72.87.87 0 0 1 .65.32l3.2 4.14a.65.65 0 0 1 .14.4.79.79 0 0 1-.79.69zm2.92-7.88c0 .36-.36.58-.58.65l-4.79 1.33a.7.7 0 0 1-.25 0 .76.76 0 0 1-.79-.72.7.7 0 0 1 .58-.65l4.79-1.33h.25a.75.75 0 0 1 .79.73zM30.26 182.61a1 1 0 0 1 1-1 1 1 0 0 1 1.08 1 1 1 0 0 1-1.08 1 1 1 0 0 1-1-1zM39.44 173.33a1 1 0 0 1 1-1 1.07 1.07 0 0 1 1.08 1 1 1 0 0 1-1.08 1 1 1 0 0 1-1-1zm0 9.29a1 1 0 0 1 1-1 1 1 0 0 1 1.08 1 1 1 0 0 1-1.08 1 1 1 0 0 1-1-1.01zM48.91 189.52l1.62-9.29a.71.71 0 0 1 .76-.61.73.73 0 0 1 .79.83l-1.62 9.29a.75.75 0 0 1-.76.61.77.77 0 0 1-.79-.83zM59.71 189.52l1.62-9.29a.71.71 0 0 1 .76-.61.73.73 0 0 1 .79.83l-1.62 9.29a.75.75 0 0 1-.76.61.77.77 0 0 1-.79-.83zM61 173.33a1 1 0 0 1 1-1 1.07 1.07 0 0 1 1.08 1 1 1 0 0 1-1.08 1 1 1 0 0 1-1-1zM76.12 167.53a.6.6 0 0 1-.11.36l-4.64 7.34 4.64 7a.71.71 0 0 1-.72 1.08.76.76 0 0 1-.65-.36l-4.86-7.38a.85.85 0 0 1-.11-.36.7.7 0 0 1 .11-.36l4.86-7.67a.81.81 0 0 1 .68-.36.76.76 0 0 1 .8.71zM82.89 166.85a.81.81 0 0 1 .68.36l4.86 7.67a.69.69 0 0 1 .11.36.85.85 0 0 1-.11.36l-4.86 7.4a.76.76 0 0 1-.65.36.8.8 0 0 1-.83-.72.81.81 0 0 1 .11-.36l4.64-7-4.64-7.34a.61.61 0 0 1-.11-.36.76.76 0 0 1 .8-.73zM99.34 167.57a.53.53 0 0 1 0 .25l-3.13 7.42 3.1 7.13a1.12 1.12 0 0 1 .07.29.79.79 0 0 1-.83.68.72.72 0 0 1-.68-.47l-3.24-7.38a.53.53 0 0 1-.07-.25.61.61 0 0 1 0-.25l3.24-7.67a.84.84 0 0 1 .76-.47.76.76 0 0 1 .78.72zm6.48 0a.53.53 0 0 1 0 .25l-3.13 7.42 3.1 7.13a1.1 1.1 0 0 1 .07.29.79.79 0 0 1-.83.68.72.72 0 0 1-.68-.47l-3.24-7.38a.52.52 0 0 1-.07-.25.61.61 0 0 1 0-.25l3.24-7.67a.84.84 0 0 1 .76-.47.76.76 0 0 1 .78.72zM112.59 166.85a.84.84 0 0 1 .76.47l3.24 7.67a.74.74 0 0 1 0 .5l-3.24 7.38a.72.72 0 0 1-.68.47.79.79 0 0 1-.83-.68 1.12 1.12 0 0 1 .07-.29l3.1-7.13-3.13-7.42a.53.53 0 0 1 0-.25.76.76 0 0 1 .71-.72zm6.48 0a.84.84 0 0 1 .76.47l3.24 7.67a.61.61 0 0 1 0 .25.52.52 0 0 1-.07.25l-3.24 7.38a.72.72 0 0 1-.68.47.79.79 0 0 1-.83-.68 1.1 1.1 0 0 1 .07-.29l3.1-7.13-3.13-7.42a.53.53 0 0 1 0-.25.76.76 0 0 1 .78-.72zM128.57 161.45a.79.79 0 0 1 .79.65l1 8.21a.72.72 0 0 1-.79.79.75.75 0 0 1-.79-.65l-1-8.21a.74.74 0 0 1 .79-.79zm4.86 0a.79.79 0 0 1 .79.65l1 8.21a.72.72 0 0 1-.79.79.75.75 0 0 1-.79-.65l-1-8.21a.74.74 0 0 1 .79-.79zM141.14 162.24l-1 8.21a.75.75 0 0 1-.79.65.72.72 0 0 1-.79-.79l1-8.21a.79.79 0 0 1 .79-.65.74.74 0 0 1 .79.79zm4.86 0l-1 8.21a.75.75 0 0 1-.79.65.72.72 0 0 1-.79-.79l1-8.21a.79.79 0 0 1 .79-.65.74.74 0 0 1 .79.79zM149.38 189.85l1-8.21a.75.75 0 0 1 .79-.65.72.72 0 0 1 .79.79L151 190a.79.79 0 0 1-.79.65.74.74 0 0 1-.83-.8zm4.86 0l1-8.21a.75.75 0 0 1 .76-.64.72.72 0 0 1 .79.79l-1 8.21a.79.79 0 0 1-.79.65.74.74 0 0 1-.76-.8zM163.85 162.17v8.21a.8.8 0 0 1-1.58 0v-8.21a.8.8 0 0 1 1.58 0zm4.86 0v8.21a.8.8 0 0 1-1.58 0v-8.21a.8.8 0 0 1 1.58 0zM175.51 170.27l1.62-8.24a.73.73 0 0 1 .76-.58c.43 0 .94.29.83.83l-1.62 8.21a.8.8 0 0 1-.79.61.75.75 0 0 1-.8-.83zM182.25 166.42a.74.74 0 0 1 .29-.54l5.69-4.25a.86.86 0 0 1 .5-.18.92.92 0 0 1 .5.18l5.69 4.25a.64.64 0 0 1 .29.54.82.82 0 0 1-.83.72 1 1 0 0 1-.5-.18l-5.15-3.89-5.15 3.93a.82.82 0 0 1-1.33-.54zM196.29 187.54h25.91a.73.73 0 0 1 .79.68.76.76 0 0 1-.79.72h-25.91a.78.78 0 0 1-.79-.72.74.74 0 0 1 .79-.68zM225.7 183.76v5.15h4.9v-5.15a.8.8 0 0 1 1.58 0v5.87a.76.76 0 0 1-.79.72h-6.49a.78.78 0 0 1-.79-.72v-5.87a.8.8 0 0 1 1.58 0zM237.32 161.45a.77.77 0 0 1 .79.58l1.62 8.24c.11.54-.4.83-.83.83a.74.74 0 0 1-.76-.61l-1.62-8.21a.73.73 0 0 1 .8-.83zM243.3 174.51c0-3.46 1.62-7.38 5.33-7.38 2.45 0 3.56 2.27 4.28 3.78.83 1.76 1.73 2.88 2.81 2.88 2.23 0 3.74-2.7 3.74-5.94a.8.8 0 0 1 1.58 0c0 3.28-1.48 7.38-5.33 7.38-2.34 0-3.49-2.12-4.28-3.78s-1.69-2.88-2.81-2.88c-2.16 0-3.74 2.56-3.74 5.94a.8.8 0 0 1-1.58 0zM264.61 189.92a.32.32 0 0 1 0-.18l9.76-27.74a.72.72 0 0 1 .72-.5.77.77 0 0 1 .83.68.45.45 0 0 1 0 .22l-9.72 27.79a.82.82 0 0 1-.76.5.74.74 0 0 1-.83-.77zM284.27 162.17v27.75a.8.8 0 0 1-1.58 0v-27.75a.8.8 0 0 1 1.58 0zM291.86 161.45a.82.82 0 0 1 .76.5l9.72 27.79a.45.45 0 0 1 0 .22.77.77 0 0 1-.83.68.72.72 0 0 1-.72-.5l-9.72-27.79a.32.32 0 0 1 0-.18.74.74 0 0 1 .79-.72zM306.7 172.61h13a.76.76 0 0 1 .79.72.73.73 0 0 1-.79.68h-13a.71.71 0 0 1-.76-.68.75.75 0 0 1 .76-.72zM322.36 172.61h27.54a.76.76 0 0 1 .79.72.73.73 0 0 1-.79.68h-27.54a.71.71 0 0 1-.76-.68.75.75 0 0 1 .76-.72zM355.4 182.9v-15.33a.8.8 0 0 1 1.58 0v15.33a.8.8 0 0 1-1.58 0zM362.42 182.22h.76c2.3 0 4.25-.07 5.44-1.3s1.3-3.53 1.3-5.69v-7.38a.8.8 0 0 1 1.58 0v8.06c0 2-.07 4.28-1.69 5.94s-4.32 1.76-6.48 1.76h-.9a.78.78 0 0 1-.79-.72.75.75 0 0 1 .78-.67zM392.81 167.53a.78.78 0 0 1-.36.61l-12 7.09 12 6.8a.59.59 0 0 1 .4.54.85.85 0 0 1-.83.76 1 1 0 0 1-.43-.14l-13-7.38s-.07 0-.22-.18a.75.75 0 0 1-.14-.4.65.65 0 0 1 .36-.58l13-7.7a.77.77 0 0 1 .43-.11.78.78 0 0 1 .79.69zM399.57 169.65h17.82a.76.76 0 0 1 .79.72.73.73 0 0 1-.79.68h-17.82a.74.74 0 0 1-.79-.68.78.78 0 0 1 .79-.72zm0 8.1h17.82a.76.76 0 0 1 .79.72.73.73 0 0 1-.79.68h-17.82a.74.74 0 0 1-.79-.68.78.78 0 0 1 .79-.72zM425 166.85a.77.77 0 0 1 .43.11l13 7.7a.65.65 0 0 1 .36.58c0 .29-.29.5-.36.58l-13 7.38a1 1 0 0 1-.43.14.85.85 0 0 1-.83-.76.59.59 0 0 1 .4-.54l12-6.8-12-7.09a.69.69 0 0 1 .43-1.3zM445.47 174.55h8.1v-7.7a.8.8 0 0 1 1.58 0v7.7h8.13a.69.69 0 1 1 0 1.37h-8.13v7.7a.8.8 0 0 1-1.58 0v-7.7h-8.1a.69.69 0 1 1 0-1.37zM468.41 172.61h8.1a.76.76 0 0 1 .79.72.73.73 0 0 1-.79.68h-8.1a.71.71 0 0 1-.76-.68.75.75 0 0 1 .76-.72zM492.45 182.9v-15a.78.78 0 0 1 .79-.72h12.63a.72.72 0 1 1 0 1.44H494v5.94h9.68a.72.72 0 1 1 0 1.44H494v6.95a.8.8 0 0 1-1.58 0zm20.73 0v-15.33a.8.8 0 0 1 1.58 0v15.33a.8.8 0 0 1-1.58 0zM522.69 182.9v-15a.78.78 0 0 1 .79-.72h12.63a.72.72 0 1 1 0 1.44h-11.83v5.94H534a.72.72 0 1 1 0 1.44h-9.68v6.95a.8.8 0 0 1-1.58 0zm33.84.43h-12.64a.76.76 0 0 1-.79-.72v-14.76a.8.8 0 0 1 1.58 0v14h11.84a.72.72 0 1 1 0 1.44zM561.68 182.9v-15a.78.78 0 0 1 .79-.72h12.63a.72.72 0 1 1 0 1.44h-11.84v5.94h9.68a.72.72 0 1 1 0 1.44h-9.68v6.95a.8.8 0 0 1-1.58 0zm20.41 0v-15a.78.78 0 0 1 .79-.72h12.63a.72.72 0 1 1 0 1.44h-11.84v5.94h9.68a.72.72 0 1 1 0 1.44h-9.68v6.95a.8.8 0 0 1-1.58 0zm20.73 0v-15.33a.79.79 0 0 1 1.58 0v15.33a.8.8 0 0 1-1.58 0zM612.33 182.9v-15a.78.78 0 0 1 .79-.72h12.63a.72.72 0 1 1 0 1.44h-11.83v5.94h9.68a.72.72 0 1 1 0 1.44h-9.68v6.95a.8.8 0 0 1-1.58 0zm20.41 0v-15a.78.78 0 0 1 .79-.72h12.63a.72.72 0 1 1 0 1.44h-11.83v5.94H644a.72.72 0 1 1 0 1.44h-9.68v6.95a.8.8 0 0 1-1.58 0zm33.83.43h-12.63a.76.76 0 0 1-.79-.72v-14.76a.8.8 0 0 1 1.58 0v14h11.84a.72.72 0 1 1 0 1.44zM30.51 234.9v-9.68c0-3.13.07-6.73 1.76-9.14s4.72-2.63 7.13-2.63 5.54.36 7.16 2.63 1.76 5.76 1.76 8.67V234.9a.8.8 0 0 1-1.58 0v-8.57H32.09v8.57a.8.8 0 0 1-1.58 0zm16.2-10c0-3-.14-6.16-1.48-8.06-1.12-1.58-3.35-2-5.83-2s-4.61.32-5.79 2c-1.3 1.87-1.48 5-1.48 8.06zm-11.38-18.65a1.06 1.06 0 0 1 .54.18L42 211a.68.68 0 0 1 .32.54.83.83 0 0 1-.83.72 1 1 0 0 1-.5-.18l-6.16-4.61a.81.81 0 0 1-.29-.58.75.75 0 0 1 .79-.64zM55.89 234.9v-9.68c0-3.13.07-6.73 1.76-9.14s4.72-2.63 7.13-2.63 5.54.36 7.16 2.63 1.76 5.76 1.76 8.67V234.9a.8.8 0 0 1-1.58 0v-8.57H57.47v8.57a.8.8 0 0 1-1.58 0zm16.2-10c0-3-.14-6.16-1.48-8.06-1.12-1.58-3.35-2-5.83-2s-4.61.32-5.8 2c-1.3 1.87-1.48 5-1.48 8.06zM61.9 211.58a.74.74 0 0 1 .29-.54l6.16-4.61a1 1 0 0 1 .5-.18.82.82 0 0 1 .83.72.68.68 0 0 1-.32.54l-6.16 4.61a1.07 1.07 0 0 1-.54.18.78.78 0 0 1-.76-.72zM81.27 234.9v-9.68c0-3.13.07-6.73 1.76-9.14s4.72-2.63 7.13-2.63 5.54.36 7.16 2.63 1.76 5.76 1.76 8.67V234.9a.8.8 0 0 1-1.58 0v-8.57H82.85v8.57a.8.8 0 0 1-1.58 0zm16.2-10c0-3-.14-6.16-1.48-8.06-1.12-1.58-3.35-2-5.83-2s-4.61.32-5.8 2c-1.3 1.87-1.48 5-1.48 8.06zm-12.92-13.32a.62.62 0 0 1 .18-.47l4.86-4.64a.77.77 0 0 1 .58-.22 1 1 0 0 1 .61.22l4.86 4.64a.57.57 0 0 1 .22.47.8.8 0 0 1-.83.72.83.83 0 0 1-.58-.25L90.16 208l-4.25 4a1 1 0 0 1-.61.25.81.81 0 0 1-.75-.67zM106.65 234.9v-9.68c0-3.13.07-6.73 1.76-9.14s4.72-2.63 7.13-2.63 5.54.36 7.16 2.63 1.76 5.76 1.76 8.67V234.9a.8.8 0 0 1-1.58 0v-8.57h-14.65v8.57a.8.8 0 0 1-1.58 0zm16.2-10c0-3-.14-6.16-1.48-8.06-1.12-1.58-3.35-2-5.83-2s-4.61.32-5.79 2c-1.3 1.87-1.48 5-1.48 8.06zm-14.54-13.32c0-2.52 1.62-5 4.32-5 1.87 0 2.92 1.58 3.6 2.52.83 1.15 1.51 1.8 2.23 1.8 1.51 0 2.77-1.58 2.77-3.6a.8.8 0 0 1 1.58 0c0 2.34-1.51 5-4.36 5-1.76 0-2.81-1.44-3.56-2.52s-1.51-1.8-2.27-1.8c-1.4 0-2.74 1.44-2.74 3.6a.8.8 0 0 1-1.58 0zM132 234.9v-9.68c0-3.13.07-6.73 1.76-9.14s4.72-2.63 7.13-2.63 5.54.36 7.16 2.63 1.76 5.76 1.76 8.67V234.9a.8.8 0 0 1-1.58 0v-8.57h-14.62v8.57a.8.8 0 0 1-1.58 0zm16.2-10c0-3-.14-6.16-1.48-8.06-1.12-1.58-3.35-2-5.83-2s-4.61.32-5.8 2c-1.3 1.87-1.48 5-1.48 8.06zM137 210.57a1 1 0 0 1 1-1 1.07 1.07 0 0 1 1.08 1 1 1 0 0 1-1.08 1 1 1 0 0 1-1-1zm5.83 0a1 1 0 0 1 1-1 1.07 1.07 0 0 1 1.08 1 1 1 0 0 1-1.08 1 1 1 0 0 1-1.04-1zM157.41 234.9v-9.68c0-3.13.07-6.73 1.76-9.14a5.73 5.73 0 0 1 3.6-2.27 4.34 4.34 0 0 1-.79-3.06V210a3.68 3.68 0 0 1 .9-2.77 4.61 4.61 0 0 1 3.38-1h.54a3.86 3.86 0 0 1 3 1 4.23 4.23 0 0 1 .9 3.13v.76a3.8 3.8 0 0 1-.83 2.7 6 6 0 0 1 3.64 2.27c1.66 2.34 1.76 5.76 1.76 8.67V234.91a.8.8 0 0 1-1.58 0v-8.57H159v8.57a.8.8 0 0 1-1.58 0zm16.2-10c0-3-.14-6.16-1.48-8.06-1.12-1.58-3.28-2-5.76-2h-.07c-2.41 0-4.64.32-5.8 2-1.3 1.87-1.48 5-1.48 8.06zm-5-16.74a3.33 3.33 0 0 0-2.27-.5c-1.15 0-1.84.11-2.23.5a3.61 3.61 0 0 0-.5 2.41c0 1.15.07 2 .5 2.41a3.23 3.23 0 0 0 2.23.47c1.15 0 1.87-.07 2.27-.47a3.61 3.61 0 0 0 .5-2.41 3.54 3.54 0 0 0-.54-2.41zM182.79 234.9v-9.68c0-3.13.07-6.73 1.76-9.14s4.72-2.63 7.13-2.63 5.54.36 7.16 2.63 1.76 5.76 1.76 8.67V234.9a.8.8 0 0 1-1.58 0v-8.57h-14.65v8.57a.8.8 0 0 1-1.58 0zm16.2-10c0-3-.14-6.16-1.48-8.06-1.12-1.58-3.35-2-5.83-2s-4.61.32-5.79 2c-1.3 1.87-1.48 5-1.48 8.06zM187.61 207c0 1.44.14 2.59.79 3.2s1.87.68 3.28.68 2.66-.07 3.31-.68.76-1.91.76-3.2a.8.8 0 0 1 1.58 0v.54a4.65 4.65 0 0 1-1.19 3.64c-1.19 1.12-2.88 1.15-4.28 1.15h-.76a5.42 5.42 0 0 1-3.92-1.15C186 210 186 208.34 186 207a.8.8 0 0 1 1.58 0zM208.17 234.9v-9.68c0-3.13.07-6.73 1.76-9.14s4.72-2.63 7.13-2.63 5.54.36 7.16 2.63 1.76 5.76 1.76 8.67V234.9a.77.77 0 0 1-.76.72c-.9.9-2.59 2.74-2.59 3.89a1.26 1.26 0 0 0 .43 1.08 9.47 9.47 0 0 0 3.1.32h.84a.72.72 0 1 1 0 1.44h-1.55a7.3 7.3 0 0 1-3.13-.54 2.43 2.43 0 0 1-1.26-2.3c0-2.12 2.52-4.46 3.35-5.18v-8h-14.66v8.57a.8.8 0 0 1-1.58 0zm16.2-10c0-3-.14-6.16-1.48-8.06-1.12-1.58-3.35-2-5.83-2s-4.61.32-5.8 2c-1.3 1.87-1.48 5-1.48 8.06zM233.55 234.9v-9.29c0-3.35.18-7.13 3-9.43s7.13-2.45 10.73-2.45h14.9a.72.72 0 1 1 0 1.44h-13.26v9.72H260a.72.72 0 1 1 0 1.44h-11.08v7.56h13.28a.72.72 0 1 1 0 1.44h-14.07a.78.78 0 0 1-.79-.72v-8.28h-12.2v8.57a.8.8 0 0 1-1.58 0zm13.79-10v-9.72c-3.6 0-7.38.14-9.68 2-2.05 1.66-2.45 4.57-2.48 7.7zM286 215.18h-6.48c-3 0-5.76.11-7.42 1.94s-1.8 5.36-1.8 8.5c0 2.74.14 5.25 1.76 6.7s4.61 1.58 7.45 1.58H286a.72.72 0 1 1 0 1.44h-7.2c-2.59 0-5.72-.07-7.88-2s-2.23-5-2.23-7.7v-.79c0-2.92.11-6.23 2.2-8.57s5.69-2.52 8.64-2.52H286a.72.72 0 1 1 0 1.44zm-10.51-3.6a.74.74 0 0 1 .29-.54l6.16-4.61a1 1 0 0 1 .5-.18.82.82 0 0 1 .83.72.64.64 0 0 1-.29.54l-6.16 4.61a1.07 1.07 0 0 1-.54.18.81.81 0 0 1-.83-.72zM309.72 215.18h-6.48c-3 0-5.76.11-7.42 1.94s-1.8 5.36-1.8 8.5c0 2.74.14 5.25 1.76 6.7s4.61 1.58 7.45 1.58h6.48a.72.72 0 1 1 0 1.44h-7.16c-2.59 0-5.72-.07-7.88-2s-2.23-5-2.23-7.7v-.79c0-2.92.11-6.23 2.2-8.57s5.69-2.52 8.64-2.52h6.48a.72.72 0 1 1 0 1.44zm-12.49-8.93a1 1 0 0 1 .61.22l4.28 4.07 4.28-4.07a.77.77 0 0 1 .58-.22.8.8 0 0 1 .83.72.62.62 0 0 1-.25.47L302.7 212a1 1 0 0 1-.61.25.75.75 0 0 1-.54-.25l-4.86-4.61a.73.73 0 0 1-.22-.5.78.78 0 0 1 .76-.64zM333.48 215.18H327c-3 0-5.76.11-7.42 1.94s-1.8 5.36-1.8 8.5c0 2.74.14 5.25 1.76 6.7s4.5 1.58 7.27 1.58a.5.5 0 0 1 .32 0h6.33a.72.72 0 1 1 0 1.44h-5.9l-.58 1.4a5.32 5.32 0 0 1 2.38.5 2.84 2.84 0 0 1 0 4.57 6.78 6.78 0 0 1-3.17.54h-1.62a.72.72 0 1 1 0-1.44h1.3a7.21 7.21 0 0 0 2.66-.29 1.35 1.35 0 0 0 .4-1.12c0-.65-.22-1-.4-1.08a7 7 0 0 0-2.66-.29.76.76 0 0 1-.79-.72v-.25l.76-1.84c-2.52 0-5.4-.18-7.45-2s-2.23-5-2.23-7.7v-.79c0-2.92.11-6.23 2.2-8.57s5.69-2.52 8.64-2.52h6.48a.72.72 0 1 1 0 1.44zM341.55 214.46a.78.78 0 0 1 .79-.72h6.15c3 0 6.48.07 8.68 2.52s2.2 5.65 2.2 8.57v.79c0 2.66 0 5.72-2.23 7.7s-5.29 2-7.88 2h-6.87a.76.76 0 0 1-.79-.72zm6.95 19.44c2.84 0 5.76 0 7.49-1.58s1.76-4 1.76-6.7c0-3.13 0-6.52-1.8-8.5s-4.43-1.94-7.45-1.94h-5.36v18.72zm-3.74-27.64a1 1 0 0 1 .61.22l4.28 4.07 4.28-4.07a.77.77 0 0 1 .58-.22.8.8 0 0 1 .83.72.62.62 0 0 1-.25.47l-4.87 4.55a1 1 0 0 1-.61.25.75.75 0 0 1-.54-.25l-4.86-4.61a.73.73 0 0 1-.22-.5.78.78 0 0 1 .76-.64zM362.07 224.89h3.24v-10.43a.78.78 0 0 1 .79-.72h7.31c2.7 0 5.9.22 7.77 2.56s1.94 5.62 1.94 8.5V225.92c0 2.56 0 5.4-1.94 7.38s-4.79 2.05-7.13 2.05h-7.95a.76.76 0 0 1-.79-.72v-8.33h-3.24a.74.74 0 0 1-.79-.68.78.78 0 0 1 .79-.73zm11.34 9c2.56 0 5 0 6.51-1.55s1.58-4 1.58-6.73c0-3.1 0-6.55-1.62-8.53-1.33-1.69-3.74-1.91-6.48-1.91h-6.52v9.72h6.52a.76.76 0 0 1 .79.72.73.73 0 0 1-.79.68h-6.52v7.6zM404.76 235.33h-14.9a.76.76 0 0 1-.79-.72v-20.15a.78.78 0 0 1 .79-.72h14.9a.72.72 0 1 1 0 1.44h-14.11v9.72h12a.72.72 0 1 1 0 1.44h-12v7.56h14.11a.72.72 0 1 1 0 1.44zm-11.52-29.08a1.06 1.06 0 0 1 .54.18l6.16 4.61a.64.64 0 0 1 .29.54.79.79 0 0 1-.79.72 1.08 1.08 0 0 1-.54-.18l-6.16-4.61a.79.79 0 0 1-.25-.58.75.75 0 0 1 .75-.68zM428.52 235.33h-14.9a.76.76 0 0 1-.79-.72v-20.15a.78.78 0 0 1 .79-.72h14.9a.72.72 0 1 1 0 1.44h-14.11v9.72h12a.72.72 0 1 1 0 1.44h-12v7.56h14.11a.72.72 0 1 1 0 1.44zm-10.33-23.76a.71.71 0 0 1 .25-.54l6.16-4.61a1.07 1.07 0 0 1 .54-.18.79.79 0 0 1 .79.72.64.64 0 0 1-.29.54l-6.16 4.61a1.06 1.06 0 0 1-.54.18.78.78 0 0 1-.75-.71zM452.28 235.33h-14.9a.76.76 0 0 1-.79-.72v-20.15a.78.78 0 0 1 .79-.72h14.9a.72.72 0 1 1 0 1.44h-14.11v9.72h12a.72.72 0 1 1 0 1.44h-12v7.56h14.11a.72.72 0 1 1 0 1.44zm-13.1-23.76a.64.64 0 0 1 .22-.47l4.86-4.64a.7.7 0 0 1 .54-.22 1 1 0 0 1 .61.22l4.86 4.64a.62.62 0 0 1 .25.47.8.8 0 0 1-.83.72.83.83 0 0 1-.58-.25l-4.28-4.04-4.29 4a.86.86 0 0 1-.58.25.85.85 0 0 1-.78-.67zM476 235.33h-14.9a.76.76 0 0 1-.79-.72v-20.15a.78.78 0 0 1 .79-.72H476a.72.72 0 1 1 0 1.44h-14.07v9.72h12a.72.72 0 1 1 0 1.44h-12v7.56H476a.72.72 0 1 1 0 1.44zm-11.45-24.76a1 1 0 0 1 1.08-1 1.07 1.07 0 0 1 1.08 1 1 1 0 0 1-1.08 1 1 1 0 0 1-1.04-1zm5.83 0a1 1 0 0 1 1.08-1 1.07 1.07 0 0 1 1.08 1 1 1 0 0 1-1.08 1 1 1 0 0 1-1.04-1zM499.8 235.33h-14.9a.76.76 0 0 1-.79-.72v-20.15a.78.78 0 0 1 .79-.72h14.9a.72.72 0 1 1 0 1.44h-14.11v9.72h12a.72.72 0 1 1 0 1.44h-12v7.56h14.11a.72.72 0 1 1 0 1.44zm-12.31-29.08a.85.85 0 0 1 .58.22l4.28 4.07 4.28-4.07a.77.77 0 0 1 .58-.22.8.8 0 0 1 .83.72.62.62 0 0 1-.25.47l-4.87 4.56a1 1 0 0 1-.61.25.75.75 0 0 1-.54-.25l-4.86-4.61a.73.73 0 0 1-.22-.5.81.81 0 0 1 .8-.64zM523.56 235.33h-1.15c-.72.68-2.92 2.84-2.92 4.18a1.26 1.26 0 0 0 .43 1.08 9.47 9.47 0 0 0 3.1.32h.83a.72.72 0 1 1 0 1.44h-1.55a7.3 7.3 0 0 1-3.13-.54 2.43 2.43 0 0 1-1.26-2.3c0-1.51 1.26-3.1 2.3-4.18h-11.56a.76.76 0 0 1-.79-.72v-20.15a.78.78 0 0 1 .79-.72h14.9a.72.72 0 1 1 0 1.44h-14.1v9.72h12a.72.72 0 1 1 0 1.44h-12v7.56h14.11a.72.72 0 1 1 0 1.44zM529.17 206.25a1.06 1.06 0 0 1 .54.18l6.16 4.61a.64.64 0 0 1 .29.54.83.83 0 0 1-.83.72 1 1 0 0 1-.5-.18l-6.16-4.61a.81.81 0 0 1-.29-.58.78.78 0 0 1 .79-.68zm3.28 28.65v-20.73a.8.8 0 0 1 1.58 0v20.73a.8.8 0 0 1-1.58 0zM541.13 211.58a.74.74 0 0 1 .29-.54l6.16-4.61a1 1 0 0 1 .5-.18.82.82 0 0 1 .83.72.64.64 0 0 1-.29.54l-6.16 4.61a1.07 1.07 0 0 1-.54.18.81.81 0 0 1-.79-.72zm2.12 23.33v-20.74a.8.8 0 0 1 1.58 0v20.73a.8.8 0 0 1-1.58 0zM549.19 211.58a.64.64 0 0 1 .22-.47l4.86-4.64a.7.7 0 0 1 .54-.22 1 1 0 0 1 .61.22l4.86 4.64a.62.62 0 0 1 .25.47.8.8 0 0 1-.83.72.83.83 0 0 1-.58-.25l-4.28-4.05-4.28 4a1 1 0 0 1-.61.25.81.81 0 0 1-.76-.67zM554 234.9v-20.73a.8.8 0 0 1 1.58 0v20.73a.8.8 0 0 1-1.58 0zM561.65 210.57a1 1 0 0 1 1.08-1 1.07 1.07 0 0 1 1.08 1 1 1 0 0 1-1.08 1 1 1 0 0 1-1.08-1zm3.2 24.33v-20.73a.8.8 0 0 1 1.58 0v20.73a.8.8 0 0 1-1.58 0zm2.63-24.33a1 1 0 0 1 1.08-1 1.07 1.07 0 0 1 1.08 1 1 1 0 0 1-1.08 1 1 1 0 0 1-1.08-1zM575.65 234.9v-20.73a.8.8 0 0 1 1.58 0v20.73a.8.8 0 0 1-1.58 0zm6.44-.68h.83c2.7 0 5-.11 6.51-1.62s1.58-4.36 1.58-7v-11.14a.8.8 0 0 1 1.58 0v11.88c0 2.41-.11 5.18-2 7.16s-5.08 2.12-7.67 2.12h-.9a.78.78 0 0 1-.79-.72.75.75 0 0 1 .86-.68zM28.42 263.58a.74.74 0 0 1 .29-.54l6.16-4.61a1 1 0 0 1 .5-.18.82.82 0 0 1 .83.72.68.68 0 0 1-.32.54l-6.16 4.61a1.07 1.07 0 0 1-.54.18.78.78 0 0 1-.76-.72zm17.46 23.76H31.3a.76.76 0 0 1-.79-.72v-20.16a.8.8 0 0 1 1.58 0v19.44h13.79a.72.72 0 1 1 0 1.44zM66.4 287.33H51.82a.76.76 0 0 1-.79-.72v-20.15a.8.8 0 0 1 1.58 0v19.44H66.4a.72.72 0 1 1 0 1.44zm-8.17-13.07l1.62-8.26a.73.73 0 0 1 .76-.58c.43 0 .9.29.79.83l-1.62 8.21a.78.78 0 0 1-1.55-.22zM68.31 278.69a.63.63 0 0 1 .25-.5l3-2.52v-9.21a.8.8 0 0 1 1.58 0v7.88l4.1-3.42a.87.87 0 0 1 .54-.22.8.8 0 0 1 .83.72.68.68 0 0 1-.29.5l-5.18 4.36v9.61h12.48a.72.72 0 1 1 0 1.44H72.34a.76.76 0 0 1-.79-.72v-9l-1.87 1.58a.93.93 0 0 1-.58.22.85.85 0 0 1-.79-.72zM93.69 286.9v-20.73a.78.78 0 0 1 .79-.72.9.9 0 0 1 .65.29l14.76 17v-16.57a.8.8 0 0 1 1.58 0v18.5a.31.31 0 0 1 0 .25v2a.8.8 0 0 1-1.58 0V285l-14.62-16.78v18.68a.8.8 0 0 1-1.58 0zm6-23.33a.74.74 0 0 1 .31-.57l6.16-4.61a1 1 0 0 1 .5-.18.82.82 0 0 1 .83.72.68.68 0 0 1-.32.54l-6.17 4.65a1.07 1.07 0 0 1-.54.18.78.78 0 0 1-.76-.72zM119.07 286.9v-20.73a.78.78 0 0 1 .79-.72.9.9 0 0 1 .65.29l14.76 17v-16.57a.8.8 0 0 1 1.58 0v18.5a.31.31 0 0 1 0 .25v2a.8.8 0 0 1-1.58 0V285l-14.61-16.81v18.71a.8.8 0 0 1-1.58 0zm1.66-23.33c0-2.52 1.62-5 4.32-5 1.87 0 2.92 1.58 3.6 2.52.83 1.15 1.51 1.8 2.23 1.8 1.51 0 2.77-1.58 2.77-3.6a.8.8 0 0 1 1.58 0c0 2.34-1.51 5-4.36 5-1.76 0-2.81-1.44-3.56-2.52S125.8 260 125 260c-1.4 0-2.74 1.44-2.74 3.6a.8.8 0 0 1-1.58 0zM144.45 286.9v-20.73a.78.78 0 0 1 .79-.72.9.9 0 0 1 .65.29l14.76 17v-16.57a.8.8 0 0 1 1.58 0v18.5a.31.31 0 0 1 0 .25v2a.8.8 0 0 1-1.58 0V285L146 268.22v18.68a.8.8 0 0 1-1.58 0zm4-28.65a1 1 0 0 1 .61.22l4.25 4.07 4.28-4.07a.77.77 0 0 1 .58-.22.8.8 0 0 1 .83.72.57.57 0 0 1-.22.47L154 264a1 1 0 0 1-.61.25.83.83 0 0 1-.58-.25l-4.86-4.61a.71.71 0 0 1-.18-.5.78.78 0 0 1 .71-.64zM169.83 286.9v-20.73a.78.78 0 0 1 .79-.72.9.9 0 0 1 .65.29l14.76 17v-16.57a.8.8 0 0 1 1.58 0v18.5a.31.31 0 0 1 0 .25v2c0 1.87 0 4.36-1.84 5.9s-4.46 1.55-6.73 1.55h-3.17a.72.72 0 1 1 0-1.44h2.84c2.41 0 4.64-.07 5.94-1.15s1.37-2.92 1.37-4.86V285l-14.61-16.81v18.71a.8.8 0 0 1-1.58 0zM212.52 268c2.05 2.45 2.09 6 2.09 9.21v1.01c0 2.45-.07 5.29-2.16 7.27s-5.4 2.09-8.17 2.09h-.86c-2.56 0-5.62-.07-7.7-2.09s-2.16-5-2.16-7.7v-.22-.83c0-3 .11-6.37 2.12-8.75s5.47-2.59 8.39-2.59c2.76.05 6.29.12 8.45 2.6zm-15.55.83c-1.73 2.05-1.76 5.54-1.76 8.75 0 2.81.11 5.4 1.73 6.95s4.39 1.66 7.16 1.66 5.58-.11 7.2-1.66 1.73-4.28 1.73-6.95c0-3.35-.07-6.77-1.76-8.75s-4.36-2-7.16-2-5.59.24-7.11 2.04zm3.03-10.58a1.06 1.06 0 0 1 .54.18l6.16 4.61a.68.68 0 0 1 .32.54.83.83 0 0 1-.83.72 1 1 0 0 1-.5-.18l-6.16-4.61a.81.81 0 0 1-.29-.58.75.75 0 0 1 .76-.68zM237.9 268c2.05 2.45 2.09 6 2.09 9.21v1.01c0 2.45-.07 5.29-2.16 7.27s-5.4 2.09-8.17 2.09h-.86c-2.56 0-5.62-.07-7.7-2.09s-2.16-5-2.16-7.7v-.22-.83c0-3 .11-6.37 2.12-8.75s5.47-2.59 8.39-2.59c2.76.05 6.29.12 8.45 2.6zm-15.55.83c-1.73 2.05-1.76 5.54-1.76 8.75 0 2.81.11 5.4 1.73 6.95s4.39 1.66 7.16 1.66 5.58-.11 7.2-1.66 1.73-4.28 1.73-6.95c0-3.35-.07-6.77-1.76-8.75s-4.36-2-7.16-2-5.59.24-7.14 2.04zm4.25-5.29a.74.74 0 0 1 .29-.54l6.16-4.61a1 1 0 0 1 .5-.18.82.82 0 0 1 .83.72.68.68 0 0 1-.32.54l-6.15 4.61a1.07 1.07 0 0 1-.54.18.78.78 0 0 1-.77-.68zM263.28 268c2.05 2.45 2.09 6 2.09 9.21v1.01c0 2.45-.07 5.29-2.16 7.27s-5.4 2.09-8.17 2.09h-.86c-2.56 0-5.62-.07-7.7-2.09s-2.16-5-2.16-7.7v-.22-.83c0-3 .11-6.37 2.12-8.75s5.47-2.59 8.39-2.59c2.76.05 6.29.12 8.45 2.6zm-15.55.83c-1.73 2.05-1.76 5.54-1.76 8.75 0 2.81.11 5.4 1.73 6.95s4.39 1.66 7.16 1.66 5.58-.11 7.2-1.66 1.73-4.28 1.73-6.95c0-3.35-.07-6.77-1.76-8.75s-4.36-2-7.16-2-5.59.24-7.14 2.04zm1.51-5.29a.62.62 0 0 1 .18-.47l4.86-4.64a.77.77 0 0 1 .58-.22 1 1 0 0 1 .61.22l4.86 4.64a.57.57 0 0 1 .22.47.8.8 0 0 1-.83.72.83.83 0 0 1-.58-.25l-4.28-4.01-4.25 4a1 1 0 0 1-.61.25.81.81 0 0 1-.76-.67zM288.66 268c2.05 2.45 2.09 6 2.09 9.21v1.01c0 2.45-.07 5.29-2.16 7.27s-5.4 2.09-8.17 2.09h-.86c-2.56 0-5.62-.07-7.7-2.09s-2.16-5-2.16-7.7v-.22-.83c0-3 .11-6.37 2.12-8.75s5.47-2.59 8.39-2.59c2.79.05 6.29.12 8.45 2.6zm-15.55.83c-1.73 2.05-1.76 5.54-1.76 8.75 0 2.81.11 5.4 1.73 6.95s4.39 1.66 7.16 1.66 5.58-.11 7.2-1.66 1.73-4.28 1.73-6.95c0-3.35-.07-6.77-1.76-8.75s-4.36-2-7.16-2-5.59.24-7.14 2.04zm-.11-5.29c0-2.52 1.62-5 4.32-5 1.87 0 2.92 1.58 3.6 2.52.83 1.15 1.51 1.8 2.23 1.8 1.51 0 2.77-1.58 2.77-3.6a.8.8 0 0 1 1.58 0c0 2.34-1.51 5-4.36 5-1.76 0-2.81-1.44-3.56-2.52s-1.51-1.8-2.27-1.8c-1.4 0-2.74 1.44-2.74 3.6a.8.8 0 0 1-1.58 0zM314 268c2.05 2.45 2.09 6 2.09 9.21v1.01c0 2.45-.07 5.29-2.16 7.27s-5.4 2.09-8.17 2.09H305c-2.56 0-5.62-.07-7.7-2.09s-2.16-5-2.16-7.7v-.22-.83c0-3 .11-6.37 2.12-8.75s5.47-2.59 8.39-2.59c2.7.05 6.23.12 8.35 2.6zm-15.55.83c-1.73 2.05-1.76 5.54-1.76 8.75 0 2.81.11 5.4 1.73 6.95s4.39 1.66 7.16 1.66 5.58-.11 7.2-1.66 1.73-4.28 1.73-6.95c0-3.35-.07-6.77-1.76-8.75s-4.36-2-7.16-2-5.59.24-7.1 2.04zm3.17-6.3a1 1 0 0 1 1-1 1.07 1.07 0 0 1 1.08 1 1 1 0 0 1-1.08 1 1 1 0 0 1-.96-.96zm5.83 0a1 1 0 0 1 1-1 1.07 1.07 0 0 1 1.08 1 1 1 0 0 1-1.08 1 1 1 0 0 1-.96-.96zM339.42 268c2.05 2.45 2.09 6 2.09 9.21v1.01c0 2.45-.07 5.29-2.16 7.27s-5.4 2.09-8.17 2.09h-.86c-2.56 0-5.62-.07-7.7-2.09s-2.16-5-2.16-7.7v-.22-.83c0-3 .11-6.37 2.12-8.75s5.47-2.59 8.39-2.59c2.76.05 6.29.12 8.45 2.6zm-15.55.83c-1.73 2.05-1.76 5.54-1.76 8.75 0 2.81.11 5.4 1.73 6.95s4.39 1.66 7.16 1.66 5.58-.11 7.2-1.66 1.73-4.28 1.73-6.95c0-3.35-.07-6.77-1.76-8.75s-4.36-2-7.16-2-5.59.24-7.14 2.04zm7.92-9.93a.86.86 0 0 1-.11.43l-3.56 4.67a.87.87 0 0 1-.65.32.8.8 0 0 1-.83-.72.6.6 0 0 1 .14-.4l3.56-4.61a1 1 0 0 1 .68-.32.75.75 0 0 1 .77.66zm7.13 0a.85.85 0 0 1-.11.43l-3.57 4.67a.87.87 0 0 1-.65.32.8.8 0 0 1-.83-.72.6.6 0 0 1 .14-.4l3.56-4.61a1 1 0 0 1 .68-.32.75.75 0 0 1 .78.66zM376.14 287.33h-18.61c-3.1 0-6.73-.07-9.14-2s-2.48-5.11-2.48-7.7v-.29c0-3.17 0-6.7 2.45-9.11s5.9-2.48 8.89-2.48h18.93a.72.72 0 1 1 0 1.44h-13.32v9.72H374a.72.72 0 1 1 0 1.44h-11.14v7.56h13.28a.72.72 0 1 1 0 1.44zm-14.87-20.16h-3.42c-3.2 0-6.37 0-8.35 2s-2 5.15-2 8.46c0 2.63.18 5.29 1.94 6.7s5.15 1.58 8.42 1.58h3.42zM382.62 286.94a.68.68 0 0 1 .18-.47l1.4-1.55c-1.58-2-1.62-4.68-1.62-7.09v-.22-.83c0-3 .11-6.37 2.12-8.75s5.47-2.59 8.39-2.59c2.45 0 5.51 0 7.67 1.84l1.48-1.58a.82.82 0 0 1 1.4.43.69.69 0 0 1-.22.47l-1.62 1.76c1.8 2.41 1.8 5.83 1.8 8.89v1.01c0 2.45-.07 5.29-2.16 7.27s-5.4 2.09-8.17 2.09h-.86c-2.34 0-5.11-.07-7.16-1.62l-1.3 1.37a.81.81 0 0 1-.61.25.75.75 0 0 1-.72-.68zm3.38-18.07c-1.73 2.05-1.76 5.54-1.76 8.75 0 2.38.07 4.61 1.08 6.19l14.47-15.44c-1.62-1.37-4.14-1.51-6.66-1.51-2.99-.01-5.61.21-7.13 2.01zm.32 16.05c1.69 1.26 4.25 1.3 6.8 1.3 2.92 0 5.58-.11 7.2-1.66s1.73-4.28 1.73-6.95c0-3 0-6-1.3-8.1zM411.17 286.9a.8.8 0 0 1-1.58 0v-20.44a.78.78 0 0 1 .79-.72h9.32c2 0 4.36 0 6 1.3s1.69 3.42 1.69 5-.11 3.78-1.69 5a8 8 0 0 1-4.79 1.26l6.37 8.21a.69.69 0 0 1 .14.43.77.77 0 0 1-.83.68.87.87 0 0 1-.65-.32l-6.95-9h-7.81zm13.46-10.9c.94-.72 1.15-2.2 1.15-3.92s-.14-3.17-1.15-3.92-3.1-.94-5.22-.94h-8.24v9.72h8.28c1.98-.05 4.03-.08 5.18-.94zm-9.86-12.38a.74.74 0 0 1 .29-.54l6.16-4.61a1 1 0 0 1 .5-.18.82.82 0 0 1 .83.72.64.64 0 0 1-.29.54l-6.16 4.61a1.07 1.07 0 0 1-.54.18.81.81 0 0 1-.79-.76zM434.93 286.9a.8.8 0 0 1-1.58 0v-20.44a.78.78 0 0 1 .79-.72h9.32c2 0 4.36 0 6 1.3s1.69 3.42 1.69 5-.11 3.78-1.69 5a8 8 0 0 1-4.79 1.26l6.33 8.2a.69.69 0 0 1 .14.43.77.77 0 0 1-.83.68.87.87 0 0 1-.65-.32l-6.95-9h-7.81zm13.46-10.9c.94-.72 1.15-2.2 1.15-3.92s-.14-3.17-1.15-3.92-3.1-.94-5.22-.94h-8.24v9.72h8.28c1.98-.05 4.03-.08 5.18-.94zm-11.84-17.71a1 1 0 0 1 .61.22l4.28 4.07 4.28-4.07a.77.77 0 0 1 .58-.22.8.8 0 0 1 .83.72.61.61 0 0 1-.25.47L442 264a1 1 0 0 1-.61.25.75.75 0 0 1-.54-.25l-4.85-4.56a.73.73 0 0 1-.22-.5.78.78 0 0 1 .77-.69zM470.21 278.33H462a6.77 6.77 0 0 1-4.32-1.08c-1.3-1-1.37-2.74-1.37-4.1v-.72c0-1.66.07-3.6 1.26-5s3.42-1.66 5.11-1.66h9a.72.72 0 1 1 0 1.44h-9c-1.73 0-3.06.14-3.82 1-.9 1.08-1 3.1-1 4.93 0 1.4.18 2.52.86 3.06s2.38.68 3.92.68h7.74a5.06 5.06 0 0 1 3.1.72 2.86 2.86 0 0 1 1 2.48v.58c0 1.69 0 3.64-.76 5a3.86 3.86 0 0 1-3.53 1.66H457.1a.72.72 0 1 1 0-1.44h13.1a2.29 2.29 0 0 0 2.09-.86c.54-1 .61-2.92.61-4.72s-.64-1.97-2.69-1.97zm-7.92-14.76a.74.74 0 0 1 .29-.54l6.16-4.61a1 1 0 0 1 .5-.18.82.82 0 0 1 .83.72.64.64 0 0 1-.29.54l-6.16 4.61a1.07 1.07 0 0 1-.54.18.81.81 0 0 1-.79-.71zM494 278.33h-8.21a6.77 6.77 0 0 1-4.32-1.08c-1.3-1-1.37-2.74-1.37-4.1v-.72c0-1.66.07-3.6 1.26-5s3.42-1.66 5.11-1.66h9a.72.72 0 1 1 0 1.44h-9c-1.73 0-3.06.14-3.82 1-.9 1.08-1 3.1-1 4.93 0 1.4.18 2.52.86 3.06s2.38.68 3.92.68h7.74a5.06 5.06 0 0 1 3.1.72 2.86 2.86 0 0 1 1 2.48v.58c0 1.69 0 3.64-.76 5a3.86 3.86 0 0 1-3.53 1.66h-13.1a.72.72 0 1 1 0-1.44H494a2.29 2.29 0 0 0 2.09-.86c.54-1 .61-2.92.61-4.72s-.7-1.97-2.7-1.97zm-9.9-20.08a1 1 0 0 1 .61.22l4.28 4.07 4.28-4.07a.77.77 0 0 1 .58-.22.8.8 0 0 1 .83.72.61.61 0 0 1-.25.47l-4.89 4.56a1 1 0 0 1-.61.25.75.75 0 0 1-.54-.25l-4.86-4.61a.73.73 0 0 1-.22-.5.78.78 0 0 1 .76-.64zM517.73 278.33h-8.21a6.77 6.77 0 0 1-4.32-1.08c-1.3-1-1.37-2.74-1.37-4.1v-.72c0-1.66.07-3.6 1.26-5s3.42-1.66 5.11-1.66h9a.72.72 0 1 1 0 1.44h-9c-1.73 0-3.06.14-3.82 1-.9 1.08-1 3.1-1 4.93 0 1.4.18 2.52.86 3.06s2.38.68 3.92.68h7.74a5.06 5.06 0 0 1 3.1.72 2.86 2.86 0 0 1 1 2.48v.58c0 1.69 0 3.64-.76 5a3.86 3.86 0 0 1-3.53 1.66h-4.41l-.58 1.4a5.31 5.31 0 0 1 2.38.5 2.84 2.84 0 0 1 0 4.57 6.78 6.78 0 0 1-3.17.54h-1.62a.72.72 0 1 1 0-1.44h1.3a7.21 7.21 0 0 0 2.66-.29 1.35 1.35 0 0 0 .4-1.12c0-.65-.22-1-.4-1.08a7 7 0 0 0-2.66-.29.76.76 0 0 1-.79-.72v-.25l.76-1.84h-7a.72.72 0 1 1 0-1.44h7.92a.5.5 0 0 1 .32 0h4.86a2.29 2.29 0 0 0 2.09-.86c.54-1 .61-2.92.61-4.72s-.6-1.95-2.65-1.95zM525.94 265.74h19.44a.76.76 0 0 1 .79.72.73.73 0 0 1-.79.68h-8.93v19.76a.8.8 0 0 1-1.58 0v-19.76h-8.93a.71.71 0 0 1-.76-.68.75.75 0 0 1 .76-.72zm4.86-7.49a1 1 0 0 1 .61.22l4.25 4.07 4.28-4.07a.77.77 0 0 1 .58-.22.8.8 0 0 1 .83.72.57.57 0 0 1-.22.47l-4.86 4.56a1 1 0 0 1-.61.25.83.83 0 0 1-.58-.25l-4.86-4.61a.72.72 0 0 1-.18-.5.78.78 0 0 1 .75-.64zM548.08 265.74h19.44a.76.76 0 0 1 .79.72.73.73 0 0 1-.79.68h-8.93v19.76a.8.8 0 0 1-1.58 0v-19.76h-8.93a.71.71 0 0 1-.76-.68.75.75 0 0 1 .76-.72zm11.59 23.72a.68.68 0 0 1-.07.29l-2.12 4.17a.69.69 0 0 1-.68.43.77.77 0 0 1-.83-.68 1 1 0 0 1 .07-.32l2.12-4.18a.87.87 0 0 1 .72-.43.76.76 0 0 1 .79.72zM32.09 318.17v11.45c0 2.74.11 5.47 1.48 7s3.49 1.58 5.83 1.58 4.61-.14 5.87-1.58c1.4-1.62 1.44-4.43 1.44-7v-11.45a.8.8 0 0 1 1.58 0V330.38c0 2.38-.11 5.18-1.8 7.13s-4.72 2.12-7.13 2.12-5.26 0-7.09-2.12-1.8-5-1.8-7.56v-11.78a.8.8 0 0 1 1.58 0zm3.24-7.92a1.06 1.06 0 0 1 .54.18L42 315a.68.68 0 0 1 .32.54.83.83 0 0 1-.83.72 1 1 0 0 1-.5-.18l-6.16-4.61a.81.81 0 0 1-.29-.58.75.75 0 0 1 .79-.64zM57.47 318.17v11.45c0 2.74.11 5.47 1.48 7s3.49 1.58 5.83 1.58 4.61-.14 5.87-1.58c1.4-1.62 1.44-4.43 1.44-7v-11.45a.8.8 0 0 1 1.58 0V330.38c0 2.38-.11 5.18-1.8 7.13s-4.72 2.12-7.13 2.12-5.26 0-7.09-2.12-1.8-5-1.8-7.56v-11.78a.8.8 0 0 1 1.58 0zm4.43-2.59a.74.74 0 0 1 .29-.54l6.16-4.61a1 1 0 0 1 .5-.18.82.82 0 0 1 .83.72.68.68 0 0 1-.32.54l-6.16 4.61a1.07 1.07 0 0 1-.54.18.78.78 0 0 1-.76-.72zM82.85 318.17v11.45c0 2.74.11 5.47 1.48 7s3.49 1.58 5.83 1.58 4.61-.14 5.87-1.58c1.4-1.62 1.44-4.43 1.44-7v-11.45a.8.8 0 0 1 1.58 0V330.38c0 2.38-.11 5.18-1.8 7.13s-4.72 2.12-7.13 2.12-5.26 0-7.09-2.12-1.8-5-1.8-7.56v-11.78a.8.8 0 0 1 1.58 0zm1.69-2.59a.62.62 0 0 1 .18-.47l4.86-4.64a.77.77 0 0 1 .58-.22 1 1 0 0 1 .61.22l4.86 4.64a.57.57 0 0 1 .22.47.8.8 0 0 1-.83.72.83.83 0 0 1-.58-.25L90.16 312l-4.25 4a1 1 0 0 1-.61.25.81.81 0 0 1-.75-.67zM108.23 318.17v11.45c0 2.74.11 5.47 1.48 7s3.49 1.58 5.83 1.58 4.61-.14 5.87-1.58c1.4-1.62 1.44-4.43 1.44-7v-11.45a.8.8 0 0 1 1.58 0V330.38c0 2.38-.11 5.18-1.8 7.13s-4.72 2.12-7.13 2.12-5.26 0-7.09-2.12-1.8-5-1.8-7.56v-11.78a.8.8 0 0 1 1.58 0zm3.35-3.6a1 1 0 0 1 1-1 1.07 1.07 0 0 1 1.08 1 1 1 0 0 1-1.08 1 1 1 0 0 1-1-1zm5.83 0a1 1 0 0 1 1-1 1.07 1.07 0 0 1 1.08 1 1 1 0 0 1-1.08 1 1 1 0 0 1-1-1zM133.61 318.17v11.45c0 2.74.11 5.47 1.48 7s3.49 1.58 5.83 1.58 4.61-.14 5.87-1.58c1.4-1.62 1.44-4.43 1.44-7v-11.45a.8.8 0 0 1 1.58 0V330.38c0 2.38-.11 5.18-1.8 7.13s-4.72 2.12-7.13 2.12-5.26 0-7.09-2.12-1.8-5-1.8-7.56v-11.78a.8.8 0 0 1 1.58 0zm8.1-7.24a.86.86 0 0 1-.11.43L138 316a.87.87 0 0 1-.65.32.8.8 0 0 1-.83-.72.6.6 0 0 1 .14-.4l3.56-4.61a1 1 0 0 1 .68-.32.75.75 0 0 1 .81.66zm7.13 0a.85.85 0 0 1-.11.43l-3.56 4.64a.87.87 0 0 1-.65.32.8.8 0 0 1-.83-.72.6.6 0 0 1 .14-.4l3.56-4.61a1 1 0 0 1 .68-.32.75.75 0 0 1 .77.66zM159 318.17v11.45c0 2.74.11 5.47 1.48 7s3.49 1.58 5.83 1.58 4.61-.14 5.87-1.58c1.4-1.62 1.44-4.43 1.44-7v-11.45a.8.8 0 0 1 1.58 0V330.38c0 2.38-.11 5.18-1.8 7.13s-4.72 2.12-7.13 2.12-5.26 0-7.09-2.12-1.8-5-1.8-7.56v-11.78a.8.8 0 0 1 1.58 0zm11.66-3.06a3.76 3.76 0 0 1-.9 2.81 4.58 4.58 0 0 1-3.38.94h-.54a3.83 3.83 0 0 1-3-.94 4.32 4.32 0 0 1-.9-3.17V314a3.68 3.68 0 0 1 .9-2.77 4.61 4.61 0 0 1 3.38-1h.54a3.86 3.86 0 0 1 3 1 4.23 4.23 0 0 1 .9 3.13zm-2.09-3a3.33 3.33 0 0 0-2.27-.5c-1.15 0-1.84.11-2.23.5a3.61 3.61 0 0 0-.5 2.41c0 1.15.07 2 .5 2.41a3.23 3.23 0 0 0 2.23.47c1.15 0 1.87-.07 2.27-.47a3.61 3.61 0 0 0 .5-2.41 3.54 3.54 0 0 0-.5-2.36zM184.37 318.17v4.36c0 2.2.22 4.1 1.48 5.15s3.89 1.22 6.26 1.22 4.9-.07 6.26-1.22 1.44-3.1 1.44-5.15v-4.36a.8.8 0 0 1 1.58 0v4.36c0 2 0 4.57-1.94 6.19-1.76 1.48-4.28 1.62-6.55 1.62v8.57a.8.8 0 0 1-1.58 0v-8.57c-2.16 0-4.72-.11-6.55-1.62s-2-4.07-2-6.19v-4.36a.8.8 0 0 1 1.58 0zm4.82-2.59a.74.74 0 0 1 .29-.54l6.16-4.61a1 1 0 0 1 .5-.18.82.82 0 0 1 .83.72.68.68 0 0 1-.32.54l-6.15 4.61a.93.93 0 0 1-.5.18.81.81 0 0 1-.8-.72zM210.54 318.17v4.36c0 2.2.22 4.1 1.48 5.15s3.89 1.22 6.26 1.22 4.9-.07 6.26-1.22 1.44-3.1 1.44-5.15v-4.36a.8.8 0 0 1 1.58 0v4.36c0 2 0 4.57-1.94 6.19-1.76 1.48-4.28 1.62-6.55 1.62v8.57a.8.8 0 0 1-1.58 0v-8.57c-2.16 0-4.72-.11-6.55-1.62s-2-4.07-2-6.19v-4.36a.8.8 0 0 1 1.58 0zm3.74-3.6a1 1 0 0 1 1.08-1 1.07 1.07 0 0 1 1.08 1 1 1 0 0 1-1.08 1 1 1 0 0 1-1.07-1zm5.83 0a1 1 0 0 1 1.08-1 1.07 1.07 0 0 1 1.08 1 1 1 0 0 1-1.08 1 1 1 0 0 1-1.07-1zM235.92 317.74h16.2a.76.76 0 0 1 .79.72.51.51 0 0 1-.14.4l-15.3 19h14.65a.72.72 0 1 1 0 1.44h-16.2a.81.81 0 0 1-.79-.72.66.66 0 0 1 .18-.4l15.3-19h-14.69a.72.72 0 1 1 0-1.44zm5.22-2.16a.74.74 0 0 1 .29-.54l6.16-4.61a1 1 0 0 1 .5-.18.82.82 0 0 1 .83.72.68.68 0 0 1-.32.54l-6.16 4.61a1.07 1.07 0 0 1-.54.18.78.78 0 0 1-.76-.72zM261.3 317.74h16.2a.76.76 0 0 1 .79.72.51.51 0 0 1-.14.4l-15.3 19h14.65a.72.72 0 1 1 0 1.44h-16.2a.81.81 0 0 1-.79-.72.66.66 0 0 1 .18-.4l15.3-19H261.3a.72.72 0 1 1 0-1.44zm3.24-7.49a1 1 0 0 1 .61.22l4.25 4.07 4.28-4.07a.77.77 0 0 1 .58-.22.8.8 0 0 1 .83.72.57.57 0 0 1-.22.47L270 316a1 1 0 0 1-.61.25.83.83 0 0 1-.58-.25l-4.81-4.56a.71.71 0 0 1-.18-.5.78.78 0 0 1 .72-.69zM286.68 317.74h16.2a.76.76 0 0 1 .79.72.51.51 0 0 1-.14.4l-15.3 19h14.65a.72.72 0 1 1 0 1.44h-16.2a.81.81 0 0 1-.79-.72.66.66 0 0 1 .18-.4l15.3-19h-14.69a.72.72 0 1 1 0-1.44zm7.05-4.61a1 1 0 0 1 1-1 1.07 1.07 0 0 1 1.08 1 1 1 0 0 1-1.08 1 1 1 0 0 1-.99-1zM311.27 338.9v-20.44a.8.8 0 0 1 1.58 0v3.67h8.64c1.94 0 4.18 0 5.76.94a5.1 5.1 0 0 1 0 7.77 11.14 11.14 0 0 1-5.33.94h-9.07v7.13a.8.8 0 0 1-1.58 0zm1.58-8.53h8.24c1.91 0 4.18 0 5.33-.72a4 4 0 0 0 0-5.4c-1.12-.65-3.24-.72-5.33-.72h-8.24zM30.51 381.9v-8c0-2.16.07-4.57 1.58-6.26s4-1.8 5.87-1.8h.25c2.05 0 4.54 0 6.12 1.8s1.55 3.92 1.55 5.87v8.39a.8.8 0 0 1-1.58 0V375H32.09v6.95a.8.8 0 0 1-1.58 0zm13.79-8.39c0-1.91-.14-3.82-1.19-5s-2.77-1.3-4.9-1.3-3.82.11-4.9 1.3-1.15 3-1.19 5zm-10.15-14.86a.92.92 0 0 1 .5.18l6.16 4.61a.68.68 0 0 1 .32.54.83.83 0 0 1-.83.72 1 1 0 0 1-.5-.18l-6.16-4.61a.81.81 0 0 1-.29-.58.78.78 0 0 1 .8-.68zM53.44 381.9v-8c0-2.16.07-4.57 1.58-6.26s4-1.8 5.87-1.8h.25c2.05 0 4.54 0 6.12 1.8s1.55 3.92 1.55 5.87v8.39a.8.8 0 0 1-1.58 0V375H55v6.95a.8.8 0 0 1-1.58 0zm13.79-8.39c0-1.91-.14-3.82-1.19-5s-2.77-1.3-4.9-1.3-3.82.11-4.9 1.3-1.15 3-1.19 5zm-9-9.54a.73.73 0 0 1 .29-.54l6.16-4.61a1 1 0 0 1 .5-.18.82.82 0 0 1 .83.72.68.68 0 0 1-.32.54l-6.16 4.61a.93.93 0 0 1-.5.18.81.81 0 0 1-.8-.69zM76.37 381.9v-8c0-2.16.07-4.57 1.58-6.26s4-1.8 5.87-1.8h.25c2.05 0 4.54 0 6.12 1.8s1.55 3.92 1.55 5.87v8.39a.8.8 0 0 1-1.58 0V375H78v6.95a.8.8 0 0 1-1.58 0zm13.79-8.39c0-1.91-.14-3.82-1.19-5s-2.77-1.3-4.9-1.3-3.82.11-4.9 1.3-1.15 3-1.19 5zM78.43 364a.64.64 0 0 1 .22-.47l4.86-4.64a.7.7 0 0 1 .54-.22 1 1 0 0 1 .61.22l4.86 4.64a.56.56 0 0 1 .22.47.76.76 0 0 1-.79.72.83.83 0 0 1-.58-.25l-4.28-4.07-4.28 4.07a1 1 0 0 1-.61.25.81.81 0 0 1-.77-.72zM99.31 381.9v-8c0-2.16.07-4.57 1.58-6.26s4-1.8 5.87-1.8h.24c2.05 0 4.54 0 6.12 1.8s1.55 3.92 1.55 5.87v8.39a.8.8 0 0 1-1.58 0V375h-12.2v6.95a.8.8 0 0 1-1.58 0zm.43-17.9c0-2.52 1.66-5 4.36-5 1.87 0 2.88 1.58 3.56 2.52.83 1.15 1.55 1.8 2.27 1.8 1.51 0 2.77-1.58 2.77-3.6a.8.8 0 0 1 1.58 0c0 2.34-1.51 5-4.36 5-1.76 0-2.84-1.44-3.6-2.52s-1.48-1.8-2.23-1.8c-1.4 0-2.77 1.44-2.77 3.6a.8.8 0 0 1-1.58 0zm13.35 9.54c0-1.91-.14-3.82-1.19-5s-2.77-1.3-4.9-1.3-3.82.11-4.9 1.3-1.15 3-1.19 5zM122.24 381.9v-8c0-2.16.07-4.57 1.58-6.26s4-1.8 5.87-1.8h.25c2.05 0 4.54 0 6.12 1.8s1.55 3.92 1.55 5.87v8.39a.8.8 0 0 1-1.58 0V375h-12.2v6.95a.8.8 0 0 1-1.58 0zm13.76-8.39c0-1.91-.14-3.82-1.19-5s-2.77-1.3-4.9-1.3-3.82.11-4.9 1.3-1.15 3-1.19 5zM125.95 363a1 1 0 0 1 1.08-1 1.07 1.07 0 0 1 1.08 1 1 1 0 0 1-1.08 1 1 1 0 0 1-1.08-1zm5.83 0a1 1 0 0 1 1.08-1 1.07 1.07 0 0 1 1.08 1 1 1 0 0 1-1.08 1 1 1 0 0 1-1.08-1zM145.17 381.9v-8c0-2.16.07-4.57 1.58-6.26a5.15 5.15 0 0 1 2.56-1.48 4.43 4.43 0 0 1-.79-3v-.76a3.72 3.72 0 0 1 .94-2.77 4.53 4.53 0 0 1 3.35-1h.54a3.86 3.86 0 0 1 3 1 4.23 4.23 0 0 1 .9 3.13v.76a3.85 3.85 0 0 1-.79 2.66 5.1 5.1 0 0 1 2.59 1.48c1.48 1.62 1.55 3.92 1.55 5.87v8.39a.8.8 0 0 1-1.58 0V375h-12.2v6.95a.8.8 0 0 1-1.58 0zm13.83-8.39c0-1.91-.14-3.82-1.19-5s-2.74-1.3-4.82-1.3h-.61c-1.76 0-3.38.22-4.36 1.3s-1.15 3-1.19 5zm-3.85-13a3.22 3.22 0 0 0-2.23-.5c-1.15 0-1.84.11-2.23.5a3.6 3.6 0 0 0-.54 2.41 3.51 3.51 0 0 0 .54 2.41 3.28 3.28 0 0 0 2.23.47c1.15 0 1.84-.07 2.23-.47a3.61 3.61 0 0 0 .5-2.41c-.04-1.1-.11-1.92-.55-2.36zM168.1 381.9v-8c0-2.16.07-4.57 1.58-6.26s4-1.8 5.87-1.8h.25c2.05 0 4.54 0 6.12 1.8s1.55 3.92 1.55 5.87v8.39a.8.8 0 0 1-1.58 0V375h-12.2v6.95a.8.8 0 0 1-1.58 0zm13.79-8.39c0-1.91-.14-3.82-1.19-5s-2.77-1.3-4.9-1.3-3.82.11-4.9 1.3-1.15 3-1.19 5zm-10.15-14.15c0 1.44.11 2.59.76 3.2s1.91.68 3.31.68 2.66-.07 3.31-.68.76-1.91.76-3.2a.8.8 0 0 1 1.58 0v.54a4.65 4.65 0 0 1-1.19 3.63c-1.19 1.12-2.84 1.15-4.25 1.15h-.79a5.33 5.33 0 0 1-3.89-1.15c-1.22-1.15-1.19-2.81-1.19-4.17a.8.8 0 0 1 1.58 0zM191 381.9v-8c0-2.16.07-4.57 1.58-6.26s4-1.8 5.87-1.8h.25c2.05 0 4.54 0 6.12 1.8s1.55 3.92 1.55 5.87v8.39a.77.77 0 0 1-.76.72c-.9.9-2.63 2.74-2.63 3.89a1.26 1.26 0 0 0 .47 1.08 9.47 9.47 0 0 0 3.1.32h.79a.72.72 0 1 1 0 1.44h-1.55a7.14 7.14 0 0 1-3.1-.54 2.46 2.46 0 0 1-1.3-2.3c0-2.12 2.56-4.46 3.38-5.18V375h-12.2v6.95a.8.8 0 0 1-1.58 0zm13.79-8.39c0-1.91-.14-3.82-1.19-5s-2.77-1.3-4.9-1.3-3.82.11-4.9 1.3-1.15 3-1.19 5zM214 381.9v-7.67c0-2.41.5-5.08 2.77-6.48 2.48-1.51 6-1.62 9.07-1.62h13.25a.72.72 0 1 1 0 1.44h-11.55v5.94h9.36a.72.72 0 1 1 0 1.44h-9.36v5.94h11.52a.72.72 0 1 1 0 1.44h-12.32a.78.78 0 0 1-.79-.72V375h-10.4v6.95a.8.8 0 0 1-1.58 0zm12-8.39v-5.94c-3.06 0-6.37.14-8.31 1.33-1.37.83-1.94 2.59-2.05 4.61zM260.55 367.58h-5.44c-2.66 0-5.22.07-6.69 1.26s-1.55 3.28-1.55 5.4.22 4.32 1.55 5.4c1.51 1.26 4.18 1.26 6.69 1.26h5.44a.72.72 0 1 1 0 1.44h-6.19c-2.3 0-5.08-.11-7-1.69s-2.05-4.18-2.05-6.41 0-4.75 2.05-6.41 5-1.69 7.49-1.69h5.72a.72.72 0 1 1 0 1.44zm-9.36-3.6a.73.73 0 0 1 .29-.54l6.16-4.61a1 1 0 0 1 .5-.18.82.82 0 0 1 .83.72.68.68 0 0 1-.32.54l-6.16 4.61a1.07 1.07 0 0 1-.54.18.78.78 0 0 1-.76-.7zM282 367.58h-5.4c-2.66 0-5.22.07-6.69 1.26s-1.55 3.28-1.55 5.4.22 4.32 1.55 5.4c1.51 1.26 4.18 1.26 6.69 1.26h5.4a.72.72 0 1 1 0 1.44h-6.19c-2.3 0-5.08-.11-7-1.69s-2.05-4.18-2.05-6.41 0-4.75 2.05-6.41 5-1.69 7.49-1.69h5.7a.72.72 0 1 1 0 1.44zm-11.34-8.93a1 1 0 0 1 .61.22l4.25 4.07 4.28-4.07a.77.77 0 0 1 .58-.22.8.8 0 0 1 .83.72.57.57 0 0 1-.22.47l-4.86 4.61a1 1 0 0 1-.61.25.83.83 0 0 1-.58-.25l-4.86-4.61a.71.71 0 0 1-.18-.5.78.78 0 0 1 .8-.69zM303.53 367.58h-5.44c-2.66 0-5.22.07-6.69 1.26s-1.55 3.28-1.55 5.4.22 4.32 1.55 5.4 4.07 1.26 6.52 1.26a.5.5 0 0 1 .32 0h5.29a.72.72 0 1 1 0 1.44h-4.9l-.58 1.4a5.46 5.46 0 0 1 2.41.5 2.84 2.84 0 0 1 0 4.57 6.93 6.93 0 0 1-3.2.54h-1.62a.72.72 0 1 1 0-1.44h1.3a7.42 7.42 0 0 0 2.7-.29 1.35 1.35 0 0 0 .4-1.12c0-.65-.22-1-.4-1.08a7.17 7.17 0 0 0-2.7-.29.76.76 0 0 1-.79-.72c0-.22.07-.25.07-.25l.76-1.84c-2.23 0-4.82-.18-6.66-1.69s-2.05-4.18-2.05-6.41 0-4.75 2.05-6.41 5-1.69 7.49-1.69h5.72a.72.72 0 1 1 0 1.44zM311.6 366.85a.78.78 0 0 1 .79-.72h5.44c2.52 0 5.51.07 7.49 1.69s2.05 4.32 2.05 6.41-.11 4.82-2.05 6.41-4.72 1.69-7 1.69h-5.9a.76.76 0 0 1-.79-.72zm2.09-8.21a1 1 0 0 1 .61.22l4.25 4.07 4.28-4.07a.77.77 0 0 1 .58-.22.8.8 0 0 1 .83.72.57.57 0 0 1-.22.47l-4.86 4.61a1 1 0 0 1-.61.25.83.83 0 0 1-.58-.25l-4.86-4.61a.71.71 0 0 1-.18-.5.78.78 0 0 1 .75-.68zm3.85 22.25c2.52 0 5.18 0 6.7-1.26 1.33-1.08 1.55-3.13 1.55-5.4s-.18-4.28-1.55-5.4-4-1.26-6.7-1.26h-4.36v13.32zM329.85 373.55h3.24v-6.7a.78.78 0 0 1 .79-.72h6.41c2.27 0 5 0 6.77 1.69s1.8 4 1.8 5.94v.47c0 2.2 0 4.71-1.8 6.41s-4.28 1.69-6.34 1.69h-6.84a.76.76 0 0 1-.79-.72v-6.7h-3.24a.69.69 0 1 1 0-1.37zm10.15 7.34c2.27 0 4.54 0 5.87-1.26s1.37-3.17 1.37-5.4-.07-4.21-1.37-5.4-3.46-1.26-5.87-1.26h-5.36v6H340a.69.69 0 1 1 0 1.37h-5.36v6zM368 382.33h-12.63a.76.76 0 0 1-.79-.72v-14.76a.78.78 0 0 1 .79-.72H368a.72.72 0 1 1 0 1.44h-11.84v5.94h9.68a.72.72 0 1 1 0 1.44h-9.68v5.94H368a.72.72 0 1 1 0 1.44zm-10.37-23.68a.92.92 0 0 1 .5.18l6.16 4.61a.68.68 0 0 1 .32.54.82.82 0 0 1-.83.72 1 1 0 0 1-.5-.18l-6.16-4.61a.82.82 0 0 1-.29-.58.78.78 0 0 1 .81-.68zM389.5 382.33h-12.64a.76.76 0 0 1-.79-.72v-14.76a.78.78 0 0 1 .79-.72h12.64a.72.72 0 1 1 0 1.44h-11.85v5.94h9.68a.72.72 0 1 1 0 1.44h-9.68v5.94h11.85a.72.72 0 1 1 0 1.44zM380.28 364a.73.73 0 0 1 .29-.54l6.16-4.61a1 1 0 0 1 .5-.18.82.82 0 0 1 .83.72.68.68 0 0 1-.32.54l-6.16 4.61a.93.93 0 0 1-.5.18.81.81 0 0 1-.8-.72zM411 382.33h-12.65a.76.76 0 0 1-.79-.72v-14.76a.78.78 0 0 1 .79-.72H411a.72.72 0 1 1 0 1.44h-11.86v5.94h9.68a.72.72 0 1 1 0 1.44h-9.68v5.94H411a.72.72 0 1 1 0 1.44zM399 364a.64.64 0 0 1 .22-.47l4.86-4.64a.7.7 0 0 1 .54-.22 1 1 0 0 1 .61.22l4.86 4.64a.56.56 0 0 1 .22.47.8.8 0 0 1-.83.72.75.75 0 0 1-.54-.25l-4.28-4.07-4.28 4.07a1 1 0 0 1-.61.25.81.81 0 0 1-.77-.72zM432.48 382.33h-12.64a.76.76 0 0 1-.79-.72v-14.76a.78.78 0 0 1 .79-.72h12.63a.72.72 0 1 1 0 1.44h-11.83v5.94h9.68a.72.72 0 1 1 0 1.44h-9.68v5.94h11.84a.72.72 0 1 1 0 1.44zm-12-18.36a.64.64 0 0 1 .22-.47l4.86-4.64a.7.7 0 0 1 .54-.22 1 1 0 0 1 .61.22l4.86 4.64a.56.56 0 0 1 .22.47.8.8 0 0 1-.83.72.75.75 0 0 1-.54-.25l-4.28-4.07-4.28 4.07a1 1 0 0 1-.61.25.81.81 0 0 1-.72-.69zM454 382.33h-12.66a.76.76 0 0 1-.79-.72v-14.76a.78.78 0 0 1 .79-.72H454a.72.72 0 1 1 0 1.44h-11.87v5.94h9.68a.72.72 0 1 1 0 1.44h-9.68v5.94H454a.72.72 0 1 1 0 1.44zm-11.19-23.68a1 1 0 0 1 .61.22l4.28 4.07 4.28-4.07a.7.7 0 0 1 .54-.22.8.8 0 0 1 .83.72.57.57 0 0 1-.22.47l-4.86 4.61a1 1 0 0 1-.61.25.75.75 0 0 1-.54-.25l-4.86-4.61a.73.73 0 0 1-.22-.5.78.78 0 0 1 .74-.69zM475.46 382.33h-.94c-.72.68-2.92 2.84-2.92 4.18a1.26 1.26 0 0 0 .47 1.08 9.47 9.47 0 0 0 3.1.32h.83a.72.72 0 1 1 0 1.44h-1.55a7.13 7.13 0 0 1-3.1-.54 2.46 2.46 0 0 1-1.3-2.3c0-1.51 1.26-3.1 2.3-4.18h-9.5a.76.76 0 0 1-.79-.72v-14.76a.78.78 0 0 1 .79-.72h12.63a.72.72 0 1 1 0 1.44h-11.86v5.94h9.68a.72.72 0 1 1 0 1.44h-9.68v5.94h11.84a.72.72 0 1 1 0 1.44zM480.58 358.65a1.06 1.06 0 0 1 .54.18l6.16 4.61a.68.68 0 0 1 .32.54.82.82 0 0 1-.83.72 1 1 0 0 1-.5-.18l-6.16-4.61a.81.81 0 0 1-.29-.58.75.75 0 0 1 .76-.68zm3.31 23.25v-15.33a.8.8 0 0 1 1.58 0v15.33a.8.8 0 0 1-1.58 0zM491.59 364a.74.74 0 0 1 .29-.54l6.16-4.61a1 1 0 0 1 .5-.18.82.82 0 0 1 .83.72.68.68 0 0 1-.32.54l-6.16 4.61a1.07 1.07 0 0 1-.54.18.78.78 0 0 1-.76-.72zm2.12 17.93v-15.36a.8.8 0 0 1 1.58 0v15.33a.8.8 0 0 1-1.58 0zM498.68 364a.62.62 0 0 1 .18-.47l4.86-4.64a.77.77 0 0 1 .58-.22 1 1 0 0 1 .61.22l4.86 4.64a.57.57 0 0 1 .22.47.8.8 0 0 1-.83.72.83.83 0 0 1-.58-.25l-4.25-4.07-4.28 4.07a1 1 0 0 1-.61.25.81.81 0 0 1-.76-.72zm4.86 17.93v-15.36a.8.8 0 0 1 1.58 0v15.33a.8.8 0 0 1-1.58 0zM510.17 363a1 1 0 0 1 1-1 1.07 1.07 0 0 1 1.08 1 1 1 0 0 1-1.08 1 1 1 0 0 1-1-1zm3.2 18.93v-15.36a.8.8 0 0 1 1.58 0v15.33a.8.8 0 0 1-1.58 0zM516 363a1 1 0 0 1 1-1 1.07 1.07 0 0 1 1.08 1 1 1 0 0 1-1.08 1 1 1 0 0 1-1-1zM523.2 381.9v-15.33a.8.8 0 0 1 1.58 0v15.33a.8.8 0 0 1-1.58 0zm5.94-.68h.76c2.3 0 4.25-.07 5.44-1.3s1.29-3.53 1.29-5.69v-7.38a.8.8 0 0 1 1.58 0v8.06c0 2-.07 4.28-1.69 5.94s-4.32 1.76-6.48 1.76h-.9a.78.78 0 0 1-.79-.72.75.75 0 0 1 .79-.67zM28.42 407a.73.73 0 0 1 .29-.54l6.16-4.61a1 1 0 0 1 .5-.18.82.82 0 0 1 .83.72.68.68 0 0 1-.32.54l-6.16 4.61a1.07 1.07 0 0 1-.54.18.78.78 0 0 1-.76-.72zm15.51 18.36H31.3a.76.76 0 0 1-.79-.72v-14.79a.8.8 0 0 1 1.58 0v14h11.85a.72.72 0 1 1 0 1.44zM62.51 425.33H49.88a.76.76 0 0 1-.79-.72v-14.76a.8.8 0 0 1 1.58 0v14h11.84a.72.72 0 1 1 0 1.44zm-7.45-7.67l1.62-8.24a.73.73 0 0 1 .76-.58c.43 0 .94.29.83.83l-1.62 8.21a.8.8 0 0 1-.79.61.75.75 0 0 1-.8-.82zM64.42 418.85a.63.63 0 0 1 .25-.5l3-2.52v-6a.8.8 0 0 1 1.58 0v4.64l3.17-2.63a.86.86 0 0 1 .54-.22.8.8 0 0 1 .83.72.68.68 0 0 1-.29.5l-4.25 3.56v7.45h10.36a.72.72 0 1 1 0 1.44H68.45a.76.76 0 0 1-.79-.72v-6.84l-1.87 1.58a.93.93 0 0 1-.58.22.85.85 0 0 1-.79-.68zM87.68 424.9v-15.33a.78.78 0 0 1 .79-.72 1 1 0 0 1 .61.22L101.46 421v-11.43a.8.8 0 0 1 1.58 0V424.92a.8.8 0 0 1-1.58 0v-1.84l-12.2-11.7v13.52a.8.8 0 0 1-1.58 0zm4.78-17.9a.73.73 0 0 1 .29-.54l6.16-4.61a1 1 0 0 1 .5-.18.82.82 0 0 1 .83.72.68.68 0 0 1-.32.54l-6.16 4.61a.93.93 0 0 1-.5.18.81.81 0 0 1-.8-.72zM110.61 424.9v-15.33a.78.78 0 0 1 .79-.72 1 1 0 0 1 .61.22L124.4 421v-11.43a.8.8 0 0 1 1.58 0V424.92a.8.8 0 0 1-1.58 0v-1.84l-12.2-11.7v13.52a.8.8 0 0 1-1.58 0zM111 407c0-2.52 1.66-5 4.36-5 1.87 0 2.88 1.58 3.56 2.52.83 1.15 1.55 1.8 2.27 1.8 1.51 0 2.77-1.58 2.77-3.6a.8.8 0 0 1 1.58 0c0 2.34-1.51 5-4.36 5-1.76 0-2.84-1.44-3.6-2.52s-1.48-1.8-2.23-1.8c-1.4 0-2.77 1.44-2.77 3.6a.8.8 0 0 1-1.58 0zM133.54 424.9v-15.33a.78.78 0 0 1 .79-.72 1 1 0 0 1 .61.22L147.33 421v-11.43a.8.8 0 0 1 1.58 0V424.92a.8.8 0 0 1-1.58 0v-1.84l-12.2-11.7v13.52a.8.8 0 0 1-1.58 0zm2.81-23.25a1 1 0 0 1 .61.22l4.28 4.07 4.28-4.07a.77.77 0 0 1 .58-.22.76.76 0 0 1 .79.72.57.57 0 0 1-.22.47l-4.86 4.61a1 1 0 0 1-.61.25.75.75 0 0 1-.54-.25l-4.86-4.61a.73.73 0 0 1-.22-.5.78.78 0 0 1 .77-.69zM156.47 424.9v-15.33a.78.78 0 0 1 .79-.72 1 1 0 0 1 .61.22L170.26 421v-11.43a.8.8 0 0 1 1.58 0v15.98c0 1.73-.07 3.74-1.58 5.22s-4 1.58-5.94 1.58h-2.74a.72.72 0 1 1 0-1.44h2.59c2.09 0 3.85-.07 4.9-1.12s1.19-3 1.19-4.9v-1.84l-12.2-11.7v13.55a.8.8 0 0 1-1.58 0zM187.79 408.85c2.23 0 5 .07 6.88 1.73s2 4.36 2 6.66v.25c0 2.12 0 4.68-2 6.41s-4.86 1.73-7.31 1.73h-1c-2.23 0-4.93-.07-6.84-1.73s-2-4.36-2-6.66V417c0-2.12 0-4.68 2-6.41s4.86-1.73 7.31-1.73zm-7.13 2.74c-1.4 1.22-1.51 3.46-1.51 5.65s.18 4.46 1.51 5.65 4 1.33 6.44 1.33 5-.07 6.44-1.33 1.51-3.46 1.51-5.65-.18-4.46-1.51-5.65-4-1.33-6.44-1.33-5.03.06-6.44 1.32zm2.38-9.93a.92.92 0 0 1 .5.18l6.16 4.61a.68.68 0 0 1 .32.54.83.83 0 0 1-.83.72 1 1 0 0 1-.5-.18l-6.16-4.61a.81.81 0 0 1-.29-.58.78.78 0 0 1 .76-.69zM210.72 408.85c2.23 0 5 .07 6.88 1.73s2 4.36 2 6.66v.25c0 2.12 0 4.68-2 6.41s-4.86 1.73-7.31 1.73h-1c-2.23 0-4.93-.07-6.84-1.73s-2-4.36-2-6.66V417c0-2.12 0-4.68 2-6.41s4.86-1.73 7.31-1.73zm-7.13 2.74c-1.4 1.22-1.51 3.46-1.51 5.65s.18 4.46 1.51 5.65 4 1.33 6.44 1.33 5-.07 6.44-1.33 1.51-3.46 1.51-5.65-.18-4.46-1.51-5.65-4-1.33-6.44-1.33-5.03.06-6.43 1.32zm3.53-4.61a.73.73 0 0 1 .29-.54l6.16-4.61a1 1 0 0 1 .5-.18.82.82 0 0 1 .83.72.68.68 0 0 1-.32.54l-6.16 4.61a.93.93 0 0 1-.5.18.81.81 0 0 1-.8-.7zM233.66 408.85c2.23 0 5 .07 6.88 1.73s2 4.36 2 6.66v.25c0 2.12 0 4.68-2 6.41s-4.86 1.73-7.31 1.73h-1c-2.23 0-4.93-.07-6.84-1.73s-2-4.36-2-6.66V417c0-2.12 0-4.68 2-6.41s4.86-1.73 7.31-1.73zm-7.13 2.74c-1.4 1.22-1.51 3.46-1.51 5.65s.18 4.46 1.51 5.65 4 1.33 6.44 1.33 5-.07 6.44-1.33 1.51-3.46 1.51-5.65-.18-4.46-1.51-5.65-4-1.33-6.44-1.33-5.04.06-6.44 1.32zm.79-4.61a.64.64 0 0 1 .22-.47l4.86-4.64a.7.7 0 0 1 .54-.22 1 1 0 0 1 .61.22l4.86 4.64a.56.56 0 0 1 .22.47.76.76 0 0 1-.79.72.83.83 0 0 1-.58-.25l-4.26-4.07-4.28 4.07a1 1 0 0 1-.61.25.81.81 0 0 1-.79-.7zM256.59 408.85c2.23 0 5 .07 6.88 1.73s2 4.36 2 6.66v.25c0 2.12 0 4.68-2 6.41s-4.86 1.73-7.31 1.73h-1c-2.23 0-4.93-.07-6.84-1.73s-2-4.36-2-6.66V417c0-2.12 0-4.68 2-6.41s4.86-1.73 7.31-1.73zm-7.13 2.74c-1.4 1.22-1.51 3.46-1.51 5.65s.18 4.46 1.51 5.65 4 1.33 6.44 1.33 5-.07 6.44-1.33 1.51-3.46 1.51-5.65-.18-4.46-1.51-5.65-4-1.33-6.44-1.33-5.04.06-6.44 1.32zm-.83-4.61c0-2.52 1.66-5 4.36-5 1.87 0 2.88 1.58 3.56 2.52.83 1.15 1.55 1.8 2.27 1.8 1.51 0 2.77-1.58 2.77-3.6a.8.8 0 0 1 1.58 0c0 2.34-1.51 5-4.36 5-1.76 0-2.84-1.44-3.6-2.52s-1.48-1.8-2.23-1.8c-1.4 0-2.77 1.44-2.77 3.6a.8.8 0 0 1-1.58 0zM279.52 408.85c2.23 0 5 .07 6.88 1.73s2 4.36 2 6.66v.25c0 2.12 0 4.68-2 6.41s-4.86 1.73-7.31 1.73h-1c-2.23 0-4.93-.07-6.84-1.73s-2-4.36-2-6.66V417c0-2.12 0-4.68 2-6.41s4.86-1.73 7.31-1.73zm-7.13 2.74c-1.4 1.22-1.51 3.46-1.51 5.65s.18 4.46 1.51 5.65 4 1.33 6.44 1.33 5-.07 6.44-1.33 1.51-3.46 1.51-5.65-.18-4.46-1.51-5.65-4-1.33-6.44-1.33-5.03.06-6.44 1.32zm2.45-5.62a1 1 0 0 1 1.08-1 1.07 1.07 0 0 1 1.08 1 1 1 0 0 1-1.08 1 1 1 0 0 1-1.08-.97zm5.83 0a1 1 0 0 1 1.08-1 1.07 1.07 0 0 1 1.08 1 1 1 0 0 1-1.08 1 1 1 0 0 1-1.08-.97zM302.45 408.85c2.23 0 5 .07 6.88 1.73s2 4.36 2 6.66v.25c0 2.12 0 4.68-2 6.41s-4.86 1.73-7.31 1.73h-1c-2.23 0-4.93-.07-6.84-1.73s-2-4.36-2-6.66V417c0-2.12 0-4.68 2-6.41s4.86-1.73 7.31-1.73zm-7.13 2.74c-1.4 1.22-1.51 3.46-1.51 5.65s.18 4.46 1.51 5.65 4 1.33 6.44 1.33 5-.07 6.44-1.33 1.51-3.46 1.51-5.65-.18-4.46-1.51-5.65-4-1.33-6.44-1.33-5.03.06-6.44 1.32zm7.23-9.25a.88.88 0 0 1-.14.43l-3.56 4.61a.87.87 0 0 1-.65.32.8.8 0 0 1-.83-.72.66.66 0 0 1 .18-.4l3.56-4.61a.87.87 0 0 1 .65-.32.79.79 0 0 1 .8.68zm7.13 0a.88.88 0 0 1-.14.43l-3.54 4.6a.87.87 0 0 1-.65.32.8.8 0 0 1-.83-.72.66.66 0 0 1 .18-.4l3.56-4.61a.87.87 0 0 1 .65-.32.79.79 0 0 1 .78.69zM342.08 425.33h-16.45c-2.77 0-6-.07-8.17-1.66s-2.3-4.28-2.3-6.44.22-4.93 2.3-6.44 5.15-1.66 7.7-1.66h16.92a.72.72 0 1 1 0 1.44h-11.51v5.94h9.36a.72.72 0 1 1 0 1.44h-9.36v5.94h11.52a.72.72 0 1 1 0 1.44zM329 410.58h-3c-2.77 0-5.79 0-7.52 1.3-1.4 1-1.73 3.06-1.73 5.36s.29 4.28 1.73 5.36c1.69 1.22 4.61 1.3 7.52 1.3h3zM348.32 424.94a.82.82 0 0 1 .22-.54l1.22-1c-1.44-1.69-1.44-4.07-1.44-6.12V417c0-2.12 0-4.68 2-6.41s4.86-1.73 7.31-1.73h.94c2 0 4.43.07 6.26 1.3l1.22-1.08a1 1 0 0 1 .58-.22.76.76 0 0 1 .79.72.63.63 0 0 1-.25.5l-1.22 1c1.44 1.69 1.48 4.07 1.48 6.12v.25c0 2.12 0 4.68-2 6.41s-4.86 1.73-7.31 1.73h-1c-2 0-4.43-.07-6.26-1.3l-1.22 1.08a.85.85 0 0 1-.58.22.78.78 0 0 1-.74-.65zm3.1-13.35c-1.4 1.22-1.51 3.46-1.51 5.65 0 2 .11 3.89 1 5.11l12.74-11.2c-1.51-.86-3.67-.9-5.79-.9-2.6 0-5.05.07-6.45 1.33zm.61 11.73c1.51.86 3.71.9 5.83.9 2.59 0 5-.07 6.44-1.33s1.51-3.46 1.51-5.65c0-2-.14-3.89-1-5.11zM374.67 424.9a.8.8 0 0 1-1.58 0v-15a.78.78 0 0 1 .79-.72h8c1.69 0 3.67 0 5.08.86a3.74 3.74 0 0 1 1.62 3.53 3.83 3.83 0 0 1-1.62 3.56 8.11 8.11 0 0 1-3.92.83l5.4 6.59a.75.75 0 0 1 .18.43.83.83 0 0 1-1.44.4l-6.07-7.38h-6.44zm11.45-9a2.64 2.64 0 0 0 .9-2.38 2.68 2.68 0 0 0-.9-2.34c-.94-.54-2.77-.61-4.61-.61h-6.84v5.94h6.88c1.68 0 3.59-.03 4.56-.61zm-9-8.93a.74.74 0 0 1 .29-.54l6.16-4.61a1 1 0 0 1 .5-.18.82.82 0 0 1 .83.72.68.68 0 0 1-.32.54l-6.16 4.61a1.06 1.06 0 0 1-.54.18.78.78 0 0 1-.73-.69zM396.16 424.9a.8.8 0 0 1-1.58 0v-15a.78.78 0 0 1 .79-.72h8c1.69 0 3.67 0 5.08.86a3.74 3.74 0 0 1 1.62 3.53 3.83 3.83 0 0 1-1.62 3.56 8.11 8.11 0 0 1-3.92.83l5.4 6.59a.75.75 0 0 1 .18.43.83.83 0 0 1-1.44.4L402.6 418h-6.44zm.5-23.25a1 1 0 0 1 .61.22l4.25 4.07 4.28-4.07a.77.77 0 0 1 .58-.22.8.8 0 0 1 .83.72.57.57 0 0 1-.22.47l-4.86 4.61a1 1 0 0 1-.61.25.83.83 0 0 1-.58-.25l-4.86-4.61a.72.72 0 0 1-.18-.5.78.78 0 0 1 .76-.69zm10.94 14.25a2.64 2.64 0 0 0 .9-2.38 2.68 2.68 0 0 0-.9-2.34c-.94-.54-2.77-.61-4.61-.61h-6.84v5.94H403c1.73 0 3.63-.03 4.6-.61zM428.84 410.58h-8.1c-1.55 0-2.77 0-3.46.65s-.76 1.8-.76 3.06a2 2 0 0 0 .65 1.76 8.45 8.45 0 0 0 3.56.47h7.09a4.53 4.53 0 0 1 2.7.61 2.55 2.55 0 0 1 .94 2.34v.32a8.34 8.34 0 0 1-.72 4.14 3.59 3.59 0 0 1-3.2 1.4h-11.8a.72.72 0 1 1 0-1.44h11.81c.83 0 1.51-.14 1.8-.65a8.47 8.47 0 0 0 .54-3.78c0-.61-.11-1.08-.32-1.22a4.36 4.36 0 0 0-2-.29H420a7.31 7.31 0 0 1-3.67-.72 3.21 3.21 0 0 1-1.37-3v-.4a4.43 4.43 0 0 1 1.22-3.64c1.22-1.08 3-1.12 4.39-1.12h8.28a.72.72 0 1 1 0 1.44zm-8.71-3.6a.74.74 0 0 1 .29-.54l6.16-4.61a1 1 0 0 1 .5-.18.82.82 0 0 1 .83.72.68.68 0 0 1-.32.54l-6.16 4.61a1.06 1.06 0 0 1-.54.18.78.78 0 0 1-.76-.7zM450.34 410.58h-8.1c-1.55 0-2.77 0-3.46.65s-.76 1.8-.76 3.06a2 2 0 0 0 .65 1.76 8.45 8.45 0 0 0 3.56.47h7.09a4.53 4.53 0 0 1 2.7.61 2.55 2.55 0 0 1 .94 2.34v.32a8.34 8.34 0 0 1-.72 4.14 3.59 3.59 0 0 1-3.2 1.4h-11.81a.72.72 0 1 1 0-1.44H449c.83 0 1.51-.14 1.8-.65a8.47 8.47 0 0 0 .54-3.78c0-.61-.11-1.08-.32-1.22a4.36 4.36 0 0 0-2-.29h-7.56a7.31 7.31 0 0 1-3.67-.72 3.21 3.21 0 0 1-1.37-3v-.4a4.43 4.43 0 0 1 1.22-3.64c1.22-1.08 3-1.12 4.39-1.12h8.28a.72.72 0 1 1 0 1.44zm-10.69-8.93a1 1 0 0 1 .61.22l4.25 4.07 4.28-4.07a.77.77 0 0 1 .58-.22.8.8 0 0 1 .83.72.57.57 0 0 1-.22.47l-4.86 4.61a1 1 0 0 1-.61.25.83.83 0 0 1-.58-.25l-4.86-4.61a.72.72 0 0 1-.18-.5.78.78 0 0 1 .76-.69zM471.83 410.58h-8.1c-1.55 0-2.77 0-3.46.65s-.76 1.8-.76 3.06a2 2 0 0 0 .65 1.76 8.45 8.45 0 0 0 3.56.47h7.09a4.53 4.53 0 0 1 2.7.61 2.55 2.55 0 0 1 .94 2.34v.32a8.34 8.34 0 0 1-.72 4.14 3.59 3.59 0 0 1-3.2 1.4h-4l-.58 1.4a5.47 5.47 0 0 1 2.41.5 2.84 2.84 0 0 1 0 4.57 6.93 6.93 0 0 1-3.2.54h-1.62a.72.72 0 1 1 0-1.44h1.3a7.42 7.42 0 0 0 2.7-.29 1.35 1.35 0 0 0 .4-1.12c0-.65-.22-1-.4-1.08a7.17 7.17 0 0 0-2.7-.29.76.76 0 0 1-.79-.72c0-.22.07-.25.07-.25l.72-1.84h-6.16a.72.72 0 1 1 0-1.44h7.09a.61.61 0 0 1 .36 0h4.36c.83 0 1.51-.14 1.8-.65a8.47 8.47 0 0 0 .54-3.78c0-.61-.11-1.08-.32-1.22a4.36 4.36 0 0 0-2-.29H463a7.31 7.31 0 0 1-3.67-.72 3.21 3.21 0 0 1-1.37-3v-.4a4.43 4.43 0 0 1 1.22-3.64c1.22-1.08 3-1.12 4.39-1.12h8.28a.72.72 0 1 1 0 1.44zM478.09 409.13h17.35a.76.76 0 0 1 .79.72.73.73 0 0 1-.79.68h-7.88v14.37a.8.8 0 0 1-1.58 0v-14.36h-7.88a.71.71 0 0 1-.76-.68.75.75 0 0 1 .75-.73zm3.82-7.49a.85.85 0 0 1 .58.22l4.28 4.07 4.28-4.07a.77.77 0 0 1 .58-.22.8.8 0 0 1 .83.72.62.62 0 0 1-.25.47l-4.86 4.61a.87.87 0 0 1-.58.25.83.83 0 0 1-.58-.25l-4.86-4.61a.73.73 0 0 1-.22-.5.81.81 0 0 1 .8-.68zM498.11 409.13h17.35a.76.76 0 0 1 .79.72.73.73 0 0 1-.79.68h-7.88v14.37a.8.8 0 0 1-1.58 0v-14.36h-7.88a.71.71 0 0 1-.76-.68.75.75 0 0 1 .75-.73zm10.4 18.32a.53.53 0 0 1 0 .25l-1.91 4.17a.72.72 0 0 1-.68.47.79.79 0 0 1-.83-.68.87.87 0 0 1 .07-.29l1.87-4.17a.83.83 0 0 1 .72-.47.76.76 0 0 1 .76.73zM32.09 452.57v7.67c0 2.27.11 4.46 1.22 5.69s2.92 1.3 4.9 1.3 3.85-.14 4.9-1.3 1.19-3.53 1.19-5.69v-7.67a.8.8 0 0 1 1.58 0V461c0 1.94-.07 4.25-1.55 5.87s-4.07 1.8-6.12 1.8H38c-1.87 0-4.28 0-5.87-1.8s-1.58-4.1-1.58-6.26v-8a.8.8 0 0 1 1.58 0zm2.05-7.92a.92.92 0 0 1 .5.18l6.16 4.61a.68.68 0 0 1 .32.54.83.83 0 0 1-.83.72 1 1 0 0 1-.5-.18l-6.16-4.61a.81.81 0 0 1-.29-.58.78.78 0 0 1 .81-.68zM55 452.57v7.67c0 2.27.11 4.46 1.22 5.69s2.92 1.3 4.9 1.3 3.85-.14 4.9-1.3 1.19-3.53 1.19-5.69v-7.67a.8.8 0 0 1 1.58 0V461c0 1.94-.07 4.25-1.55 5.87s-4.07 1.8-6.12 1.8h-.25c-1.87 0-4.28 0-5.87-1.8s-1.58-4.1-1.58-6.26v-8a.8.8 0 0 1 1.58 0zm3.2-2.59a.73.73 0 0 1 .29-.54l6.16-4.61a1 1 0 0 1 .5-.18.82.82 0 0 1 .83.72.68.68 0 0 1-.32.54l-6.16 4.61a.93.93 0 0 1-.5.18.81.81 0 0 1-.77-.7zM78 452.57v7.67c0 2.27.11 4.46 1.22 5.69s2.92 1.3 4.9 1.3 3.85-.14 4.9-1.3 1.19-3.53 1.19-5.69v-7.67a.8.8 0 0 1 1.58 0V461c0 1.94-.07 4.25-1.55 5.87s-4.07 1.8-6.12 1.8h-.25c-1.87 0-4.28 0-5.87-1.8s-1.58-4.1-1.58-6.26v-8a.8.8 0 0 1 1.58 0zm.47-2.59a.64.64 0 0 1 .22-.47l4.86-4.64a.7.7 0 0 1 .54-.22 1 1 0 0 1 .61.22l4.86 4.64a.56.56 0 0 1 .22.47.76.76 0 0 1-.79.72.83.83 0 0 1-.58-.25l-4.28-4.07-4.28 4.07a1 1 0 0 1-.61.25.81.81 0 0 1-.81-.7zM100.89 452.57v7.67c0 2.27.11 4.46 1.22 5.69s2.92 1.3 4.9 1.3 3.85-.14 4.9-1.3 1.19-3.53 1.19-5.69v-7.67a.8.8 0 0 1 1.58 0V461c0 1.94-.07 4.25-1.55 5.87s-4.07 1.8-6.12 1.8h-.25c-1.87 0-4.28 0-5.87-1.8s-1.58-4.1-1.58-6.26v-8a.8.8 0 0 1 1.58 0zM103 449a1 1 0 0 1 1.08-1 1.07 1.07 0 0 1 1.08 1 1 1 0 0 1-1.08 1 1 1 0 0 1-1.08-1zm5.83 0a1 1 0 0 1 1.08-1 1.07 1.07 0 0 1 1.08 1 1 1 0 0 1-1.08 1 1 1 0 0 1-1.07-1zM123.82 452.57v7.67c0 2.27.11 4.46 1.22 5.69s2.92 1.3 4.9 1.3 3.85-.14 4.9-1.3 1.19-3.53 1.19-5.69v-7.67a.8.8 0 0 1 1.58 0V461c0 1.94-.07 4.25-1.55 5.87s-4.07 1.8-6.12 1.8h-.25c-1.87 0-4.28 0-5.87-1.8s-1.58-4.1-1.58-6.26v-8a.8.8 0 0 1 1.58 0zm6.91-7.24a.88.88 0 0 1-.14.43l-3.59 4.61a.87.87 0 0 1-.65.32.8.8 0 0 1-.83-.72.66.66 0 0 1 .18-.4l3.56-4.61a.87.87 0 0 1 .65-.32.79.79 0 0 1 .82.69zm7.13 0a.88.88 0 0 1-.14.43l-3.56 4.61a.87.87 0 0 1-.65.32.8.8 0 0 1-.83-.72.66.66 0 0 1 .18-.4l3.56-4.61a.87.87 0 0 1 .65-.32.79.79 0 0 1 .79.69zM146.75 452.57v7.67c0 2.27.11 4.46 1.22 5.69s2.92 1.3 4.9 1.3 3.85-.14 4.9-1.3 1.19-3.53 1.19-5.69v-7.67a.8.8 0 0 1 1.58 0V461c0 1.94-.07 4.25-1.55 5.87s-4.07 1.8-6.12 1.8h-.25c-1.87 0-4.28 0-5.87-1.8s-1.58-4.1-1.58-6.26v-8a.8.8 0 0 1 1.58 0zm10.44-3.06a3.77 3.77 0 0 1-.9 2.81 4.5 4.5 0 0 1-3.35.94h-.54a3.83 3.83 0 0 1-3-.94 4.35 4.35 0 0 1-.94-3.17v-.76a3.72 3.72 0 0 1 .94-2.77 4.53 4.53 0 0 1 3.35-1h.54a3.86 3.86 0 0 1 3 1 4.23 4.23 0 0 1 .9 3.13zm-2.09-3a3.22 3.22 0 0 0-2.23-.5c-1.15 0-1.84.11-2.23.5a3.6 3.6 0 0 0-.54 2.41 3.51 3.51 0 0 0 .54 2.41 3.23 3.23 0 0 0 2.23.47c1.15 0 1.84-.07 2.23-.47a3.61 3.61 0 0 0 .5-2.41c.01-1.1-.06-1.92-.5-2.36zM169.69 452.57v2.92c0 1.51.36 2.7 1.15 3.24 1.19.76 3.38.79 5.33.79 2.12 0 4.21-.07 5.33-.79.86-.58 1.12-1.87 1.12-3.24v-2.92a.8.8 0 0 1 1.58 0v2.92c0 1.4-.14 3.28-1.76 4.36A10.34 10.34 0 0 1 177 461v6.95a.8.8 0 0 1-1.58 0V461c-1.76 0-3.89-.11-5.44-1.12s-1.8-2.81-1.8-4.36v-2.92a.8.8 0 0 1 1.58 0zm3.56-2.59a.73.73 0 0 1 .29-.54l6.16-4.61a1 1 0 0 1 .5-.18.82.82 0 0 1 .83.72.64.64 0 0 1-.29.54l-6.16 4.61a1.07 1.07 0 0 1-.54.18.81.81 0 0 1-.79-.7zM193.37 452.57v2.92c0 1.51.36 2.7 1.15 3.24 1.19.76 3.38.79 5.33.79 2.12 0 4.21-.07 5.33-.79.86-.58 1.12-1.87 1.12-3.24v-2.92a.8.8 0 0 1 1.58 0v2.92c0 1.4-.14 3.28-1.76 4.36a10.34 10.34 0 0 1-5.47 1.12v6.95a.8.8 0 0 1-1.58 0V461c-1.76 0-3.89-.11-5.44-1.12s-1.8-2.81-1.8-4.36v-2.92a.8.8 0 0 1 1.58 0zm2.48-3.6a1 1 0 0 1 1.08-1 1.07 1.07 0 0 1 1.08 1 1 1 0 0 1-1.08 1 1 1 0 0 1-1.07-.97zm5.83 0a1 1 0 0 1 1.08-1 1.07 1.07 0 0 1 1.08 1 1 1 0 0 1-1.08 1 1 1 0 0 1-1.07-.97zM216.27 452.13h13.79a.76.76 0 0 1 .79.72.6.6 0 0 1-.18.43L218 466.89h12.09a.72.72 0 1 1 0 1.44h-13.82a.84.84 0 0 1-.79-.72.62.62 0 0 1 .22-.43l12.67-13.61h-12.1a.72.72 0 1 1 0-1.44zm4-2.16a.73.73 0 0 1 .29-.54l6.16-4.61a1 1 0 0 1 .5-.18.82.82 0 0 1 .83.72.68.68 0 0 1-.32.54l-6.16 4.61a.93.93 0 0 1-.5.18.81.81 0 0 1-.81-.69zM239.2 452.13H253a.76.76 0 0 1 .79.72.6.6 0 0 1-.18.43l-12.71 13.61H253a.72.72 0 1 1 0 1.44h-13.8a.84.84 0 0 1-.79-.72.62.62 0 0 1 .22-.43l12.67-13.61h-12.1a.72.72 0 1 1 0-1.44zm2-7.49a1 1 0 0 1 .61.22l4.28 4.07 4.28-4.07a.77.77 0 0 1 .58-.22.76.76 0 0 1 .79.72.57.57 0 0 1-.22.47l-4.86 4.61a1 1 0 0 1-.61.25.75.75 0 0 1-.54-.25l-4.86-4.61a.73.73 0 0 1-.22-.5.78.78 0 0 1 .79-.68zM262.13 452.13h13.79a.76.76 0 0 1 .79.72.6.6 0 0 1-.18.43l-12.71 13.61h12.09a.72.72 0 1 1 0 1.44h-13.78a.84.84 0 0 1-.79-.72.62.62 0 0 1 .22-.43l12.67-13.61h-12.1a.72.72 0 1 1 0-1.44zm5.83-4.61a1 1 0 0 1 1.08-1 1.07 1.07 0 0 1 1.08 1 1 1 0 0 1-1.08 1 1.07 1.07 0 0 1-1.04-.99zM284.27 467.9v-15a.8.8 0 0 1 1.58 0v2.41h7.24a12.16 12.16 0 0 1 5 .68 3.2 3.2 0 0 1 1.66 3.1 3.29 3.29 0 0 1-1.66 3.1 11 11 0 0 1-4.61.72h-7.67v5a.8.8 0 0 1-1.58 0zm1.58-6.44h6.84c1.66 0 3.67 0 4.68-.54a2 2 0 0 0 .83-1.87 1.93 1.93 0 0 0-.83-1.84 13 13 0 0 0-4.68-.54h-6.84z"/></g></svg>