<svg xmlns="http://www.w3.org/2000/svg" viewBox="0 0 700 500"><path fill="#d7ffff" d="M0 0h700v500H0z" data-name="Ebene 2"/><g data-name="Ebene 1"><path d="M37.22 29.55c1.3 0 4.7.13 6.68.34 3.07.34 4.2.8 4.79 1.34 1.39 1.26 3.74 7.27 5.25 11l5.54 13.95c0 .08-.25.13-.71.13-.88 0-3.36-.21-3.44-.46L50 42.41H37.17l5.54 13.82s-.21.13-.71.13a13.45 13.45 0 0 1-3.44-.46L33 41.95c-1.43-3.57-3.61-9-3.61-10.75s4.8-1.65 7.83-1.65zm12.56 12.27c-1.51-3.78-3.91-9.7-5.21-10.88a4 4 0 0 0-1.76-.76h-2.98c-.8 0-6 0-6.26 1.13v.29c0 1.6 2 6.68 3.4 10.25zM78.11 47.32s-.21.13-.71.13H67.1l3.53 8.78s-.21.13-.71.13a13.45 13.45 0 0 1-3.44-.46l-6.81-17c0-.08.34-.13.71-.13h13.57a18.24 18.24 0 0 1 2.94.29c.63.13.76.25-.21.25H63.87l3 7.56h7.77c.7-.01 3.47.13 3.47.45zM91.85 56.23s-.21.13-.71.13a13.45 13.45 0 0 1-3.44-.46l-6.81-17c0-.08.34-.13.71-.13h7.9c2.06 0 7.39 0 8.91.8.88.46 1.55 2.35 2.1 3.7a12.16 12.16 0 0 1 1 3.23.67.67 0 0 1-.17.46c-.46.42-3.15.5-5 .5l9.37 8.78c.08.08-.25.13-.71.13a12.69 12.69 0 0 1-3.4-.46l-9-8.44h-4.2zm.92-9.37c1.81 0 4.12 0 4.45-.29.08-.08.08-.21.08-.38a13.05 13.05 0 0 0-1-3.28c-.5-1.3-1.3-3.15-2-3.57h-9.22l3 7.56zM111.46 55.89l-7.1-17.81c0-.08.25-.13.71-.13.88 0 3.36.21 3.44.46l7.1 17.81s-.21.13-.71.13a13.45 13.45 0 0 1-3.44-.46zM122.41 55.89l-7.1-17.81c0-.08.25-.13.71-.13.88 0 3.36.21 3.44.46l2.9 7.31L128.5 38c0-.08.34-.08.71-.08 1.22 0 3.57.34 3.44.5l-5.42 6.76 12.52 11c.08.08-.21.13-.71.13a12.69 12.69 0 0 1-3.4-.46l-10-8.7-1.81 2.23 2.69 6.8s-.21.13-.71.13a13.45 13.45 0 0 1-3.4-.42zM143.61 55.89L140.08 47c-1-2.52-2.56-6.34-2.56-7.69a.82.82 0 0 1 0-.34c.38-1 4.37-1 6.81-1 1.18 0 4.41.08 6.22.29 2.6.29 3.53.67 4 1 1.13.92 2.81 5.25 3.91 8l3.54 8.97c0 .08-.25.13-.71.13-.88 0-3.36-.21-3.44-.46l-3.36-8.44h-10.25l3.53 8.78s-.21.13-.71.13a13.45 13.45 0 0 1-3.45-.48zm10.71-9c-1.09-2.77-2.86-7-3.86-7.86s-1.64-.46-3.49-.46c-.71 0-5 0-5.25.8a.62.62 0 0 0 0 .29c0 1.22 1.34 4.71 2.35 7.23zM168.69 55.89L165.17 47c-1-2.52-2.56-6.34-2.56-7.69a.82.82 0 0 1 0-.34c.38-1 4.37-1 6.81-1 1.18 0 4.41.08 6.22.29 2.6.29 3.53.67 4 1 1.13.92 2.81 5.25 3.91 8l3.57 8.91c0 .08-.25.13-.71.13-.88 0-3.36-.21-3.44-.46l-3.36-8.44h-10.29l3.53 8.78s-.21.13-.71.13a13.45 13.45 0 0 1-3.45-.42zm10.71-9c-1.09-2.77-2.86-7-3.86-7.86s-1.64-.46-3.49-.46c-.71 0-5 0-5.25.8a.62.62 0 0 0 0 .29c0 1.22 1.34 4.71 2.35 7.23zM193.81 55.89l-7.1-17.81c0-.08.25-.13.67-.13a13 13 0 0 1 1.3.08 7.5 7.5 0 0 1 2.14.34l14.62 10.84L201 38.08c0-.08.25-.13.71-.13.88 0 3.36.21 3.44.46l6 15 1.09 2.77s-.21.13-.71.13a13.45 13.45 0 0 1-3.44-.46L207 53.12l-14.58-10.8L198 56.23s-.21.13-.71.13a13.45 13.45 0 0 1-3.48-.47zM228.09 39.3h-8.57c-1.6 0-3.36 0-3.61.42v.29a17 17 0 0 0 1.3 4.07 8.47 8.47 0 0 0 1.47 2.77h8.61a48.34 48.34 0 0 1 5.42.38 2.22 2.22 0 0 1 1 .29c.55.29.92 1.43 1.26 2.23a28.53 28.53 0 0 1 1.72 5c0 .76-2.1.76-3.44.76H221a18.24 18.24 0 0 1-2.94-.29c-.63-.13-.76-.25.21-.25H231c.71 0 1.51 0 1.51-.55a29.71 29.71 0 0 0-1.72-5 8.65 8.65 0 0 0-1-2h-7.94a35.27 35.27 0 0 1-6.26-.5 4.13 4.13 0 0 1-.84-.25c-.8-.38-1.26-1.85-1.72-2.94a16.49 16.49 0 0 1-1.3-4.07.82.82 0 0 1 0-.34c.38-.55 3.44-.59 5.21-.59h8.4a18.36 18.36 0 0 1 2.94.29c.86.2.56.28-.19.28zM244.21 61.4l-2.69-10.88c0-.08.29-.08.71-.08.84 0 3.4.21 3.44.46l2.69 10.88s-.25.08-.76.08a13.37 13.37 0 0 1-3.39-.46zM269.2 29.55c1.3 0 4.7.13 6.68.34 3.07.34 4.2.8 4.79 1.34 1.39 1.26 3.74 7.27 5.25 11l5.54 13.95c0 .08-.25.13-.71.13-.88 0-3.36-.21-3.44-.46L282 42.41h-12.84l5.54 13.82s-.21.13-.71.13a13.45 13.45 0 0 1-3.44-.46L265 41.95c-1.43-3.57-3.61-9-3.61-10.75s4.78-1.65 7.81-1.65zm12.56 12.27c-1.51-3.78-3.91-9.7-5.21-10.88a4 4 0 0 0-1.76-.76h-2.98c-.8 0-6 0-6.26 1.13v.29c0 1.6 2 6.68 3.4 10.25zM298.16 55.09l-6.51-16.21c0-.08.25-.13.71-.13.88 0 3.36.21 3.44.46L302.15 55h8.57c.34 0 3.44.13 3.44.46 0 .08-.29.08-.71.08h-11.84a11.29 11.29 0 0 1-3.45-.45zM328.28 47.16a16.87 16.87 0 0 1 2.73.5c1.39.5 1.89 2.31 2.48 3.74a9.81 9.81 0 0 1 .92 3c0 .29 0 .55-.25.67-.71.46-4.54.46-7 .46h-6.64a12.33 12.33 0 0 1-3.28-.38c-.08 0-.13 0-.13-.08l-6.51-16.21c0-.08.34-.13.71-.13h4.71a67.43 67.43 0 0 1 8.11.38 5.88 5.88 0 0 1 1.76.42c1.05.5 1.68 2.31 2.23 3.7a11.23 11.23 0 0 1 1 3.11c0 .61-.25.66-.84.82zm-3.49-.63a.52.52 0 0 0 .17-.46 11.2 11.2 0 0 0-.92-3.15c-.5-1.3-1.3-3.15-2.06-3.57H314.84l3 7.56h1.47c2.16-.05 5.06-.05 5.48-.38zm-6.72.92l3.07 7.55h2.6c2.44 0 5.8 0 6.3-.34a.66.66 0 0 0 .21-.54 10.72 10.72 0 0 0-.92-3.07c-.55-1.34-1.26-3.11-2.14-3.57h-5.17zM341 55.89L337.49 47c-1-2.52-2.56-6.34-2.56-7.69a.82.82 0 0 1 0-.34c.38-1 4.37-1 6.81-1 1.18 0 4.41.08 6.22.29 2.6.29 3.53.67 4 1 1.13.92 2.81 5.25 3.91 8l3.57 8.91c0 .08-.25.13-.71.13-.88 0-3.36-.21-3.44-.46l-3.36-8.44h-10.29l3.53 8.78s-.21.13-.71.13a13.45 13.45 0 0 1-3.46-.42zm10.71-9c-1.09-2.77-2.86-7-3.87-7.86s-1.64-.46-3.49-.46c-.71 0-5 0-5.25.8a.62.62 0 0 0 0 .29c0 1.22 1.34 4.71 2.35 7.23zM366.13 55.89L359 38.08c0-.08.25-.13.67-.13A13 13 0 0 1 361 38a7.5 7.5 0 0 1 2.14.34l14.62 10.84-4.45-11.13c0-.08.25-.13.71-.13.88 0 3.36.21 3.44.46l6 15 1.09 2.77s-.21.13-.71.13a13.45 13.45 0 0 1-3.45-.46l-1.09-2.77-14.58-10.8 5.54 13.9s-.21.13-.71.13a13.45 13.45 0 0 1-3.42-.39zM391.41 55.89l-7.1-17.81c0-.08.25-.13.71-.13.88 0 3.36.21 3.45.46l7.1 17.81s-.21.13-.71.13a13.45 13.45 0 0 1-3.45-.46zM402.33 55.89L398.8 47c-1-2.52-2.56-6.34-2.56-7.69a.84.84 0 0 1 0-.34c.38-1 4.37-1 6.81-1 1.18 0 4.41.08 6.22.29 2.6.29 3.53.67 4 1 1.13.92 2.81 5.25 3.91 8l3.57 8.91c0 .08-.25.13-.71.13-.88 0-3.36-.21-3.45-.46l-3.36-8.44H403l3.53 8.78s-.21.13-.71.13a13.45 13.45 0 0 1-3.49-.42zm10.71-9c-1.09-2.77-2.86-7-3.87-7.86s-1.64-.46-3.49-.46c-.71 0-5 0-5.25.8a.62.62 0 0 0 0 .29c0 1.22 1.34 4.71 2.35 7.23zM427.45 55.89l-7.1-17.81c0-.08.25-.13.67-.13a13 13 0 0 1 1.3.08 7.48 7.48 0 0 1 2.14.34l14.62 10.84-4.45-11.13c0-.08.25-.13.71-.13.88 0 3.36.21 3.45.46l6 15 1.09 2.77s-.21.13-.71.13a13.46 13.46 0 0 1-3.45-.46l-1.09-2.77-14.58-10.8 5.54 13.9s-.21.13-.71.13a13.44 13.44 0 0 1-3.43-.42zM453.56 61.4l-2.69-10.88c0-.08.29-.08.71-.08.84 0 3.4.21 3.44.46l2.69 10.88s-.25.08-.76.08a13.37 13.37 0 0 1-3.39-.46zM48.47 83.41l1.39.13a9.62 9.62 0 0 1 2.6.63c1.51.76 2.6 3.78 3.49 6 .71 1.72 1.64 4 1.64 5.25a1 1 0 0 1-.21.67c-.71.71-5.63.76-8.53.76h-7.18a12.33 12.33 0 0 1-3.28-.38c-.08 0-.13 0-.13-.08l-9.87-24.66c0-.08.34-.13.71-.13h5.5c2 0 6 .08 8.4.38a8.93 8.93 0 0 1 2.65.59c1.18.63 2.18 3.32 2.94 5.21A18 18 0 0 1 50 82.36c0 .84-.56.92-1.53 1.05zm-9.24-.34c2.52 0 6 0 6.47-.46.13-.08.17-.29.17-.54a17.09 17.09 0 0 0-1.43-4.62c-.76-1.93-1.89-4.87-3.11-5.21-.67 0-2.48-.08-4-.08h-4.74L37 83.07zm-2.06.59l5.08 12.6h3.65c2.86 0 6.76 0 7.35-.59a.87.87 0 0 0 .17-.63c0-1.18-.92-3.49-1.64-5.25-.88-2.18-2.18-5.29-3.36-5.88a1.37 1.37 0 0 0-.42-.13c-.59 0-3.53-.13-6.09-.13zM69.14 97.48s-.21.13-.71.13a13.45 13.45 0 0 1-3.43-.47l-6.81-17c0-.08.34-.13.71-.13h7.9c2.06 0 7.39 0 8.91.8.88.46 1.55 2.35 2.1 3.7a12.16 12.16 0 0 1 1 3.23.67.67 0 0 1-.17.46c-.46.42-3.15.5-5 .5L83 97.48c.08.08-.25.13-.71.13a12.69 12.69 0 0 1-3.4-.46l-9-8.44h-4.2zm.92-9.37c1.81 0 4.12 0 4.45-.29.08-.08.08-.21.08-.38a13.05 13.05 0 0 0-1-3.28c-.5-1.3-1.3-3.15-2-3.57h-9.21l3 7.56zM88.34 96.34l-6.51-16.21c0-.08.34-.13.71-.13h13.57a18.24 18.24 0 0 1 2.89.3c.63.13.76.25-.21.25H86l3 7.56h7.77a18.24 18.24 0 0 1 2.94.29c.63.13.76.29-.21.29H89.26l3.07 7.56h10.29c.34 0 3.4.13 3.4.46 0 .08-.29.08-.71.08H91.78a11.29 11.29 0 0 1-3.44-.45zM121.73 80.47s-.17.08-.76.08h-7l6.76 16.93c0 .08-.25.13-.71.13-.88 0-3.36-.21-3.44-.46L110 80.55h-4.49a16.6 16.6 0 0 1-2.9-.25c-.42-.08-.55-.17-.55-.21s.67-.08.8-.08h15.46c1.47-.01 3.41.2 3.41.46zM142.77 79.88a5.17 5.17 0 0 1 1.89.67c1.3.92 3 5.17 4.12 8 1 2.44 2.44 6 2.44 7.48a1 1 0 0 1-.13.55c-.59 1-5.54 1-8.53 1h-1.05a48 48 0 0 1-9-.67 5.15 5.15 0 0 1-1.89-.67c-1.3-.92-3-5.17-4.12-8-1-2.44-2.44-6-2.44-7.48a1 1 0 0 1 .13-.55c.59-1 5.54-1 8.53-1a66.64 66.64 0 0 1 10.05.67zm-7.52-.08c-2.81 0-6.39 0-6.89.8a.9.9 0 0 0-.13.5c0 1.47 1.43 5 2.39 7.48 1.13 2.86 2.94 7.14 4.12 8a2.68 2.68 0 0 0 .92.38c.21 0 1.34.08 4.2.08h.14c2.81 0 6.38 0 6.89-.8a.9.9 0 0 0 .13-.5c0-1.47-1.43-5-2.39-7.48-1.13-2.86-2.94-7.14-4.12-8a2.56 2.56 0 0 0-1.05-.38c-.29 0-2.18-.08-4.07-.08zM158 97.14l-7.1-17.81c0-.08.25-.13.67-.13a13 13 0 0 1 1.3.08 7.5 7.5 0 0 1 2.14.34l14.62 10.84-4.45-11.13c0-.08.25-.13.71-.13.88 0 3.36.21 3.44.46l6 15 1.09 2.77s-.21.13-.71.13a13.45 13.45 0 0 1-3.44-.46l-1.09-2.77-14.58-10.8 5.54 13.9s-.21.13-.71.13a13.45 13.45 0 0 1-3.43-.42zM184.12 102.65l-2.69-10.88c0-.08.29-.08.71-.08.84 0 3.4.21 3.44.46l2.7 10.85s-.25.08-.76.08a13.37 13.37 0 0 1-3.4-.43zM230.2 96.72s-.21.08-.71.08h-8.07c-3 0-10.42-.13-12.39-1.76-1.6-1.34-4.16-7.73-5.8-11.85-1.3-3.19-3.23-7.93-3.23-9.78a1.16 1.16 0 0 1 .08-.59c.63-1.22 6.13-1.22 9.62-1.22h7.18a18.36 18.36 0 0 1 2.94.29c.84.17.55.25-.21.25h-7.44c-3.23 0-7.39 0-7.94 1a1.87 1.87 0 0 0-.08.55c0 1.81 1.85 6.6 3.15 9.79 1.64 4.12 4.29 10.59 5.8 11.85a4.16 4.16 0 0 0 1.68.71 31.61 31.61 0 0 0 4.79.17h7.18c.72.05 3.45.22 3.45.51zM237.74 97.48s-.21.13-.71.13a13.45 13.45 0 0 1-3.44-.46l-6.81-17c0-.08.34-.13.71-.13h7.9c2.06 0 7.39 0 8.91.8.88.46 1.55 2.35 2.1 3.7a12.16 12.16 0 0 1 1 3.23.67.67 0 0 1-.17.46c-.46.42-3.15.5-5 .5l9.37 8.78c.08.08-.25.13-.71.13a12.69 12.69 0 0 1-3.4-.46l-9-8.44h-4.2zm.92-9.37c1.81 0 4.12 0 4.45-.29.08-.08.08-.21.08-.38a13.05 13.05 0 0 0-1-3.28c-.5-1.3-1.3-3.15-2-3.57H231l3 7.56zM268.77 79.88a5.17 5.17 0 0 1 1.89.67c1.3.92 3 5.17 4.12 8 1 2.44 2.44 6 2.44 7.48a1 1 0 0 1-.13.55c-.59 1-5.54 1-8.53 1h-1.05a48 48 0 0 1-9-.67 5.15 5.15 0 0 1-1.89-.67c-1.3-.92-3-5.17-4.12-8-1-2.44-2.44-6-2.44-7.48a1 1 0 0 1 .13-.55c.59-1 5.54-1 8.53-1a66.64 66.64 0 0 1 10.05.67zm-7.52-.08c-2.81 0-6.39 0-6.89.8a.9.9 0 0 0-.13.5c0 1.47 1.43 5 2.39 7.48 1.13 2.86 2.94 7.14 4.12 8a2.68 2.68 0 0 0 .92.38c.21 0 1.34.08 4.2.08h.14c2.81 0 6.38 0 6.89-.8a.9.9 0 0 0 .13-.5c0-1.47-1.43-5-2.39-7.48-1.13-2.86-2.94-7.14-4.12-8a2.56 2.56 0 0 0-1.05-.38c-.29 0-2.18-.08-4.07-.08zM283.94 97.14l-3.53-8.91c-1-2.52-2.56-6.34-2.56-7.69a.82.82 0 0 1 0-.34c.38-1 4.37-1 6.81-1 1.18 0 4.41.08 6.22.29 2.6.29 3.53.67 4 1 1.13.92 2.81 5.25 3.91 8l3.57 8.91c0 .08-.25.13-.71.13-.88 0-3.36-.21-3.44-.46l-3.36-8.44h-10.28l3.53 8.78s-.21.13-.71.13a13.45 13.45 0 0 1-3.45-.4zm10.71-9c-1.09-2.77-2.86-7-3.86-7.86s-1.64-.46-3.49-.46c-.71 0-5 0-5.25.8a.62.62 0 0 0 0 .29c0 1.22 1.34 4.71 2.35 7.23zM318 80.47s-.17.08-.76.08h-7L317 97.48c0 .08-.25.13-.71.13-.88 0-3.36-.21-3.44-.46l-6.64-16.59h-4.49a16.6 16.6 0 0 1-2.9-.25c-.42-.08-.55-.17-.55-.21s.67-.08.8-.08h15.46c1.53-.02 3.47.19 3.47.45zM327.83 97.14l-7.1-17.81c0-.08.25-.13.71-.13.88 0 3.36.21 3.44.46L332 97.48s-.21.13-.71.13a13.45 13.45 0 0 1-3.46-.47zM338.75 97.14l-3.53-8.91c-1-2.52-2.56-6.34-2.56-7.69a.82.82 0 0 1 0-.34c.38-1 4.37-1 6.81-1 1.18 0 4.41.08 6.22.29 2.6.29 3.53.67 4 1 1.13.92 2.81 5.25 3.91 8l3.57 8.91c0 .08-.25.13-.71.13-.88 0-3.36-.21-3.45-.46l-3.36-8.44h-10.27l3.53 8.78s-.21.13-.71.13a13.45 13.45 0 0 1-3.45-.4zm10.71-9c-1.09-2.77-2.86-7-3.86-7.86s-1.64-.46-3.49-.46c-.71 0-5 0-5.25.8a.62.62 0 0 0 0 .29c0 1.22 1.34 4.71 2.35 7.23zM363.87 97.14l-7.1-17.81c0-.08.25-.13.67-.13a13 13 0 0 1 1.3.08 7.48 7.48 0 0 1 2.14.34l14.62 10.84-4.45-11.13c0-.08.25-.13.71-.13.88 0 3.36.21 3.45.46l6 15 1.09 2.77s-.21.13-.71.13a13.46 13.46 0 0 1-3.45-.46l-1.09-2.77-14.58-10.8L368 97.48s-.21.13-.71.13a13.44 13.44 0 0 1-3.42-.47zM390 102.65l-2.69-10.88c0-.08.29-.08.71-.08.84 0 3.4.21 3.44.46l2.68 10.85s-.25.08-.76.08a13.37 13.37 0 0 1-3.38-.43zM436.06 96.72s-.21.08-.71.08h-8.06c-3 0-10.42-.13-12.39-1.76-1.6-1.34-4.16-7.73-5.8-11.85-1.3-3.19-3.19-7.94-3.19-9.79a1.16 1.16 0 0 1 .08-.59c.63-1.22 6.13-1.22 9.62-1.22h7.18a18.36 18.36 0 0 1 2.94.29c.84.17.55.25-.21.25h-7.44c-3.23 0-7.39 0-7.94 1a1.87 1.87 0 0 0-.08.55c0 1.81 1.85 6.6 3.15 9.79 1.64 4.12 4.29 10.59 5.8 11.85a4.15 4.15 0 0 0 1.68.71 31.6 31.6 0 0 0 4.79.17h7.18c.67.06 3.4.23 3.4.52zM432.55 80.09c0-.08.29-.08.71-.08h14.28a12.27 12.27 0 0 1 3.44.46l-7.56 15.79h10.63c.67 0 3.44.17 3.44.46 0 0-.21.08-.71.08H442.5c-.42 0-3.57-.21-3.44-.46l7.56-15.79H436c-.35 0-3.45-.13-3.45-.46zM461.59 96.34l-6.51-16.21c0-.08.34-.13.71-.13h13.57a18.23 18.23 0 0 1 2.94.29c.63.13.76.25-.21.25h-12.81l3 7.56h7.77a18.22 18.22 0 0 1 2.94.29c.63.13.76.29-.21.29h-10.27l3.07 7.56h10.29c.34 0 3.4.13 3.4.46 0 .08-.29.08-.71.08H465a11.3 11.3 0 0 1-3.41-.44zM501.75 96.72s-.21.08-.71.08h-6.09a68.63 68.63 0 0 1-10.5-.67 5.12 5.12 0 0 1-1.68-.55c-1.34-.84-2.81-4.7-3.86-7.35-.88-2.18-2.14-5.29-2.14-6.72a1.18 1.18 0 0 1 .13-.63c.67-.88 5.84-.88 8.86-.88h6.09a18.34 18.34 0 0 1 2.94.29c.84.17.55.25-.21.25h-6.18c-2.94 0-6.8 0-7.35.76a1 1 0 0 0-.12.55c0 1.39 1.22 4.54 2.1 6.72 1.05 2.6 2.69 6.51 3.87 7.27a2.27 2.27 0 0 0 .84.29c.25 0 2.27.13 4.5.13h6.13c.63 0 3.38.17 3.38.46zM505.66 97.14l-7.1-17.81c0-.08.25-.13.71-.13.88 0 3.36.21 3.45.46l3.36 8.44h10.29l-3.53-8.78c0-.08.25-.13.71-.13.88 0 3.36.21 3.44.46l7.1 17.81c0 .08-.25.13-.71.13-.88 0-3.36-.21-3.44-.46l-3.36-8.44h-10.29l3.53 8.78s-.21.13-.71.13a13.46 13.46 0 0 1-3.45-.46zM531.77 102.65l-2.69-10.88c0-.08.29-.08.71-.08.84 0 3.4.21 3.44.46l2.7 10.85s-.25.08-.76.08a13.38 13.38 0 0 1-3.4-.43zM38.27 137.59L28.39 113c0-.08.34-.13.71-.13h7.31c1.47 0 3.36 0 5.54.17 3.82.25 6 .8 6.81 1.39 1.55 1.18 3.74 6.76 5.17 10.38s3.78 9.41 3.78 11.38a1.56 1.56 0 0 1-.08.5c-.55 1.39-6 1.39-9.54 1.39h-6.38a11.29 11.29 0 0 1-3.44-.49zm7.69-.08c3.11 0 7.1 0 7.56-1.22a1.58 1.58 0 0 0 0-.46c0-1.93-2.23-7.64-3.74-11.38s-3.7-9.2-5.17-10.33c-.84-.67-2-.71-4.16-.71h-7.9l9.66 24.11zM65.44 138.39l-3.53-8.91c-1-2.52-2.56-6.34-2.56-7.69a.82.82 0 0 1 0-.34c.38-1 4.37-1 6.81-1 1.18 0 4.41.08 6.22.29 2.6.29 3.53.67 4 1 1.13.92 2.81 5.25 3.91 8l3.57 8.91c0 .08-.25.13-.71.13-.88 0-3.36-.21-3.44-.46l-3.36-8.44H66.06l3.53 8.78s-.21.13-.71.13a13.45 13.45 0 0 1-3.44-.4zm10.71-9c-1.09-2.77-2.86-7-3.86-7.86s-1.65-.53-3.49-.53c-.71 0-5 0-5.25.8a.62.62 0 0 0 0 .29c0 1.22 1.34 4.71 2.35 7.23zM90.55 138.39l-7.1-17.81c0-.08.25-.13.67-.13a13 13 0 0 1 1.3.08 7.5 7.5 0 0 1 2.14.34l14.62 10.84-4.45-11.13c0-.08.25-.13.71-.13.88 0 3.36.21 3.44.46l6 15 1.09 2.77s-.21.13-.71.13a13.45 13.45 0 0 1-3.44-.46l-1.09-2.77-14.58-10.8 5.54 13.9s-.21.13-.71.13a13.45 13.45 0 0 1-3.43-.42zM115.83 138.39l-7.1-17.81c0-.08.25-.13.71-.13.88 0 3.36.21 3.44.46l7.1 17.81s-.21.13-.71.13a13.45 13.45 0 0 1-3.44-.46zM135.94 121.8h-8.57c-1.6 0-3.36 0-3.61.42v.29a17 17 0 0 0 1.3 4.07 8.47 8.47 0 0 0 1.47 2.77h8.61a48.34 48.34 0 0 1 5.42.38 2.22 2.22 0 0 1 1 .29c.55.29.92 1.43 1.26 2.23a28.53 28.53 0 0 1 1.72 5c0 .76-2.1.76-3.44.76h-12.26a18.24 18.24 0 0 1-2.94-.29c-.63-.13-.76-.25.21-.25h12.73c.71 0 1.51 0 1.51-.55a29.71 29.71 0 0 0-1.72-5 8.65 8.65 0 0 0-1-2h-7.94a35.27 35.27 0 0 1-6.26-.5 4.13 4.13 0 0 1-.84-.25c-.8-.38-1.26-1.85-1.72-2.94a16.49 16.49 0 0 1-1.3-4.07.82.82 0 0 1 0-.34c.38-.55 3.44-.59 5.21-.59h8.4a18.36 18.36 0 0 1 2.94.29c.88.2.57.28-.18.28zM150.64 138.39l-7.1-17.81c0-.08.25-.13.71-.13.88 0 3.36.21 3.44.46l3.36 8.44h10.29l-3.53-8.78c0-.08.25-.13.71-.13.88 0 3.36.21 3.44.46l7.1 17.81c0 .08-.25.13-.71.13-.88 0-3.36-.21-3.44-.46l-3.36-8.44h-10.28l3.53 8.78s-.21.13-.71.13a13.45 13.45 0 0 1-3.45-.46zM176.75 143.9l-2.69-10.9c0-.08.29-.08.71-.08.84 0 3.4.21 3.44.46l2.69 10.88s-.25.08-.76.08a13.37 13.37 0 0 1-3.39-.44zM202.79 137.59L192.92 113c0-.08.34-.13.71-.13h7.31c1.47 0 3.36 0 5.54.17 3.82.25 6 .8 6.81 1.39 1.55 1.18 3.74 6.76 5.17 10.38s3.78 9.41 3.78 11.38a1.56 1.56 0 0 1-.08.5c-.55 1.39-6 1.39-9.54 1.39h-6.39a11.29 11.29 0 0 1-3.44-.49zm7.69-.08c3.11 0 7.1 0 7.56-1.22a1.58 1.58 0 0 0 0-.46c0-1.93-2.23-7.64-3.74-11.38s-3.7-9.2-5.17-10.33c-.84-.67-2-.71-4.16-.71h-7.9l9.66 24.11zM243.17 137.17c0-1.3-1.51-5.17-2.52-7.69l-3.57-8.91c0-.08.25-.13.71-.13.88 0 3.36.21 3.44.46l3.53 8.91c1 2.52 2.56 6.3 2.56 7.69a.82.82 0 0 1 0 .34c-.38.92-4.29 1-6.81 1h-1.05c-2.1 0-7.73-.17-9.16-1.34-1.09-.92-2.77-5.21-3.91-8l-3.57-8.91s.21-.13.71-.13a13.45 13.45 0 0 1 3.44.46l3.53 8.91c1.13 2.77 2.9 7.14 3.91 8 .84.71 1.68.46 3.4.46h.34c2.21-.02 5.02.1 5.02-1.12zM264.21 121.72s-.17.08-.76.08h-7l6.76 16.93c0 .08-.25.13-.71.13-.88 0-3.36-.21-3.44-.46l-6.64-16.59H248a16.6 16.6 0 0 1-2.9-.25c-.42-.08-.55-.17-.55-.21s.67-.08.8-.08h15.46c1.47-.02 3.4.19 3.4.45zM291.66 138s-.21.08-.71.08h-6.09a68.63 68.63 0 0 1-10.5-.67 5.12 5.12 0 0 1-1.68-.55c-1.34-.84-2.81-4.7-3.86-7.35-.88-2.18-2.14-5.29-2.14-6.72a1.18 1.18 0 0 1 .13-.63c.67-.88 5.84-.88 8.86-.88h6.09a18.34 18.34 0 0 1 2.94.29c.84.17.55.25-.21.25h-6.19c-2.94 0-6.81 0-7.35.76a1 1 0 0 0-.13.55c0 1.39 1.22 4.54 2.1 6.72 1.05 2.6 2.69 6.51 3.86 7.27a2.27 2.27 0 0 0 .84.29c.25 0 2.27.13 4.5.13h6.13c.68-.03 3.41.14 3.41.46zM295.57 138.39l-7.1-17.81c0-.08.25-.13.71-.13.88 0 3.36.21 3.44.46l3.36 8.44h10.29l-3.53-8.78c0-.08.25-.13.71-.13.88 0 3.36.21 3.44.46l7.1 17.81c0 .08-.25.13-.71.13-.88 0-3.36-.21-3.44-.46l-3.36-8.44H296.2l3.53 8.78s-.21.13-.71.13a13.45 13.45 0 0 1-3.45-.46zM321.68 143.9L319 133c0-.08.29-.08.71-.08.84 0 3.4.21 3.44.46l2.69 10.88s-.25.08-.76.08a13.37 13.37 0 0 1-3.4-.44zM347.72 137.59L337.85 113c0-.08.34-.13.71-.13h15.92a18.12 18.12 0 0 1 2.94.29c.63.13.76.25-.21.25H342l4.37 10.92h10.12a18.22 18.22 0 0 1 2.94.29c.63.13.76.29-.21.29h-12.59l5.08 12.6h12.64c.34 0 3.4.13 3.4.46 0 .08-.29.08-.71.08h-15.88a11.3 11.3 0 0 1-3.44-.46zM371.23 138.39l-7.1-17.81c0-.08.25-.13.67-.13a13 13 0 0 1 1.3.08 7.49 7.49 0 0 1 2.14.34l14.62 10.84-4.45-11.13c0-.08.25-.13.71-.13.88 0 3.36.21 3.44.46l6 15 1.09 2.77s-.21.13-.71.13a13.44 13.44 0 0 1-3.44-.46l-1.09-2.77-14.58-10.8 5.54 13.9s-.21.13-.71.13a13.46 13.46 0 0 1-3.43-.42zM406.69 121.8h-5.38c-2.94 0-6.81 0-7.35.76a1 1 0 0 0-.13.55c0 1.39 1.22 4.54 2.1 6.72 1 2.6 2.69 6.51 3.86 7.27a2.27 2.27 0 0 0 .84.29c.25 0 2.27.13 4.5.13h4.58l-3-7.56h-2.1a17.66 17.66 0 0 1-2.9-.29c-.63-.13-.76-.29.21-.29h5.33c.55 0 3.28.21 3.4.46l3.28 8.11s-.13.13-.71.13h-5.33a68.62 68.62 0 0 1-10.5-.67 5.12 5.12 0 0 1-1.68-.55c-1.34-.84-2.82-4.7-3.86-7.35-.88-2.18-2.14-5.29-2.14-6.72a1.18 1.18 0 0 1 .13-.63c.67-.88 5.84-.88 8.86-.88h5.3a18.35 18.35 0 0 1 2.94.29c.8.15.5.23-.25.23zM420.25 137.59l-6.51-16.21c0-.08.25-.13.71-.13.88 0 3.36.21 3.45.46l6.34 15.79h8.57c.34 0 3.45.13 3.45.46 0 .08-.29.08-.71.08H423.7a11.29 11.29 0 0 1-3.45-.45zM439.69 138.39l-7.1-17.81c0-.08.25-.13.71-.13.88 0 3.36.21 3.45.46l7.1 17.81s-.21.13-.71.13a13.46 13.46 0 0 1-3.45-.46zM459.8 121.8h-8.57c-1.6 0-3.36 0-3.61.42v.29a17 17 0 0 0 1.3 4.07 8.46 8.46 0 0 0 1.47 2.77H459a48.32 48.32 0 0 1 5.42.38 2.22 2.22 0 0 1 1 .29c.55.29.92 1.43 1.26 2.23a28.52 28.52 0 0 1 1.72 5c0 .76-2.1.76-3.44.76H452.7a18.23 18.23 0 0 1-2.94-.29c-.63-.13-.76-.25.21-.25h12.73c.71 0 1.51 0 1.51-.55a29.67 29.67 0 0 0-1.72-5 8.65 8.65 0 0 0-1-2h-7.94a35.27 35.27 0 0 1-6.26-.5 4.13 4.13 0 0 1-.84-.25c-.8-.38-1.26-1.85-1.72-2.94a16.49 16.49 0 0 1-1.3-4.07.84.84 0 0 1 0-.34c.38-.55 3.45-.59 5.21-.59h8.4a18.36 18.36 0 0 1 2.94.29c.87.2.58.28-.18.28zM474.51 138.39l-7.1-17.81c0-.08.25-.13.71-.13.88 0 3.36.21 3.44.46l3.36 8.44h10.29l-3.53-8.78c0-.08.25-.13.71-.13.88 0 3.36.21 3.45.46l7.1 17.81c0 .08-.25.13-.71.13-.88 0-3.36-.21-3.45-.46l-3.36-8.44h-10.29l3.53 8.78s-.21.13-.71.13a13.44 13.44 0 0 1-3.44-.46zM500.62 143.9l-2.69-10.9c0-.08.29-.08.71-.08.84 0 3.4.21 3.44.46l2.69 10.88s-.25.08-.76.08a13.36 13.36 0 0 1-3.39-.44zM38.27 178.84l-9.87-24.62c0-.08.34-.13.71-.13H45a18.13 18.13 0 0 1 2.94.29c.63.13.76.25-.21.25H32.59L37 165.57h10.09a18.24 18.24 0 0 1 2.94.29c.63.13.76.29-.21.29H37.17l5.08 12.6H54.9c.34 0 3.4.13 3.4.46 0 .08-.29.08-.71.08H41.71a11.29 11.29 0 0 1-3.44-.45zM71.29 163h-8.57c-1.6 0-3.36 0-3.61.42v.29a17 17 0 0 0 1.3 4.07 8.47 8.47 0 0 0 1.47 2.77h8.61a48.34 48.34 0 0 1 5.42.38 2.22 2.22 0 0 1 1 .29c.55.29.92 1.43 1.26 2.23a28.53 28.53 0 0 1 1.72 5c0 .76-2.1.76-3.44.76H64.19a18.24 18.24 0 0 1-2.94-.29c-.63-.13-.76-.25.21-.25h12.73c.71 0 1.51 0 1.51-.55a29.71 29.71 0 0 0-1.72-5 8.65 8.65 0 0 0-1-2H65a35.27 35.27 0 0 1-6.26-.5 4.13 4.13 0 0 1-.84-.25c-.8-.38-1.26-1.85-1.72-2.94a16.49 16.49 0 0 1-1.3-4.07.82.82 0 0 1 0-.34c.38-.55 3.44-.59 5.21-.59h8.4a18.36 18.36 0 0 1 2.94.29c.91.28.57.28-.14.28zM94.74 163s-.17.08-.76.08H87L93.77 180c0 .08-.25.13-.71.13-.88 0-3.36-.21-3.44-.46L83 163h-4.52a16.6 16.6 0 0 1-2.9-.25c-.42-.08-.55-.17-.55-.21s.67-.08.8-.08h15.46c1.51.04 3.45.25 3.45.54zM115.78 162.38a5.17 5.17 0 0 1 1.89.67c1.3.92 3 5.17 4.12 8 1 2.44 2.44 6 2.44 7.48a1 1 0 0 1-.13.55c-.59 1-5.54 1-8.53 1h-1.05a48 48 0 0 1-9-.67 5.15 5.15 0 0 1-1.89-.67c-1.3-.92-3-5.17-4.12-8-1-2.44-2.44-6-2.44-7.48a1 1 0 0 1 .13-.55c.59-1 5.54-1 8.53-1a66.64 66.64 0 0 1 10.05.67zm-7.52-.08c-2.81 0-6.39 0-6.89.8a.9.9 0 0 0-.13.5c0 1.47 1.43 5 2.39 7.48 1.13 2.86 2.94 7.14 4.12 8a2.68 2.68 0 0 0 .92.38c.21 0 1.34.08 4.2.08h.17c2.81 0 6.38 0 6.89-.8a.9.9 0 0 0 .13-.5c0-1.47-1.43-5-2.39-7.48-1.13-2.86-2.94-7.14-4.12-8a2.56 2.56 0 0 0-1.05-.38c-.29 0-2.18-.08-4.07-.08zM131 179.64l-7.1-17.81c0-.08.25-.13.67-.13a13 13 0 0 1 1.3.08 7.5 7.5 0 0 1 2.14.34L142.66 173l-4.45-11.13c0-.08.25-.13.71-.13.88 0 3.36.21 3.44.46l6 15 1.09 2.77s-.21.13-.71.13a13.45 13.45 0 0 1-3.44-.46l-1.09-2.77-14.58-10.8 5.54 13.9s-.21.13-.71.13a13.45 13.45 0 0 1-3.46-.46zM156.3 179.64l-7.1-17.81c0-.08.25-.13.71-.13.88 0 3.36.21 3.44.46l7.1 17.81s-.21.13-.71.13a13.45 13.45 0 0 1-3.44-.46zM167.22 179.64l-3.53-8.91c-1-2.52-2.56-6.34-2.56-7.69a.82.82 0 0 1 0-.34c.38-1 4.37-1 6.81-1 1.18 0 4.41.08 6.22.29 2.6.29 3.53.67 4 1 1.13.92 2.81 5.25 3.91 8l3.57 8.91c0 .08-.25.13-.71.13-.88 0-3.36-.21-3.44-.46l-3.36-8.44h-10.28l3.53 8.78s-.21.13-.71.13a13.45 13.45 0 0 1-3.45-.4zm10.71-9c-1.09-2.77-2.86-7-3.86-7.86s-1.64-.46-3.49-.46c-.71 0-5 0-5.25.8a.62.62 0 0 0 0 .29c0 1.22 1.34 4.71 2.35 7.23zM192.34 179.64l-7.1-17.81c0-.08.25-.13.67-.13a13 13 0 0 1 1.3.08 7.48 7.48 0 0 1 2.14.34L204 173l-4.45-11.13c0-.08.25-.13.71-.13.88 0 3.36.21 3.44.46l6 15 1.09 2.77s-.21.13-.71.13a13.45 13.45 0 0 1-3.44-.46l-1.09-2.77-14.55-10.8 5.5 13.93s-.21.13-.71.13a13.45 13.45 0 0 1-3.45-.49zM218.45 185.15l-2.69-10.88c0-.08.29-.08.71-.08.84 0 3.4.21 3.44.46l2.69 10.88s-.25.08-.76.08a13.37 13.37 0 0 1-3.39-.46zM256.75 166s-.21.13-.71.13h-12.65l5.55 13.87s-.21.13-.71.13a13.45 13.45 0 0 1-3.44-.46l-10.17-25.41c0-.08.34-.13.71-.13h15.92a18.13 18.13 0 0 1 2.94.29c.63.13.76.25-.21.25h-15.16l4.37 10.92h10.12c.69-.02 3.44.15 3.44.41zM267.08 179.64l-3.53-8.91c-1-2.52-2.56-6.34-2.56-7.69a.82.82 0 0 1 0-.34c.38-1 4.37-1 6.81-1 1.18 0 4.41.08 6.22.29 2.6.29 3.53.67 4 1 1.13.92 2.81 5.25 3.91 8l3.57 8.91c0 .08-.25.13-.71.13-.88 0-3.36-.21-3.44-.46L278 171.2h-10.29l3.53 8.78s-.21.13-.71.13a13.45 13.45 0 0 1-3.45-.47zm10.71-9c-1.09-2.77-2.86-7-3.86-7.86s-1.64-.46-3.49-.46c-.71 0-5 0-5.25.8a.62.62 0 0 0 0 .29c0 1.22 1.34 4.71 2.35 7.23zM296.38 180s-.21.13-.71.13a13.45 13.45 0 0 1-3.44-.46l-6.81-17c0-.08.34-.13.71-.13H294c2.06 0 7.39 0 8.91.8.88.46 1.55 2.35 2.1 3.7a12.16 12.16 0 0 1 1 3.23.67.67 0 0 1-.17.46c-.46.42-3.15.5-5 .5l9.36 8.77c.08.08-.25.13-.71.13a12.69 12.69 0 0 1-3.4-.46l-9-8.44h-4.2zm.92-9.37c1.81 0 4.12 0 4.45-.29.08-.08.08-.21.08-.38a13.05 13.05 0 0 0-1-3.28c-.5-1.3-1.3-3.15-2-3.57h-9.28l3 7.56zM327.41 162.38a5.17 5.17 0 0 1 1.89.67c1.3.92 3 5.17 4.12 8 1 2.44 2.44 6 2.44 7.48a1 1 0 0 1-.13.55c-.59 1-5.54 1-8.53 1h-1.05a48 48 0 0 1-9-.67 5.15 5.15 0 0 1-1.89-.67c-1.3-.92-3-5.17-4.12-8-1-2.44-2.44-6-2.44-7.48a1 1 0 0 1 .13-.55c.59-1 5.54-1 8.53-1a66.64 66.64 0 0 1 10.05.67zm-7.52-.08c-2.81 0-6.39 0-6.89.8a.9.9 0 0 0-.13.5c0 1.47 1.43 5 2.39 7.48 1.13 2.86 2.94 7.14 4.12 8a2.68 2.68 0 0 0 .92.38c.21 0 1.34.08 4.2.08h.17c2.81 0 6.38 0 6.89-.8a.9.9 0 0 0 .13-.5c0-1.47-1.43-5-2.39-7.48-1.13-2.86-2.94-7.14-4.12-8a2.56 2.56 0 0 0-1.05-.38c-.29 0-2.18-.08-4.07-.08zM342.36 178.84l-6.51-16.21c0-.08.34-.13.71-.13h13.57a18.24 18.24 0 0 1 2.94.29c.63.13.76.25-.21.25h-12.81l3 7.56h7.77a18.25 18.25 0 0 1 2.94.29c.63.13.76.29-.21.29h-10.26l3.07 7.56h10.29c.34 0 3.4.13 3.4.46 0 .08-.29.08-.71.08h-13.53a11.29 11.29 0 0 1-3.45-.44zM373.61 163H365c-1.6 0-3.36 0-3.61.42v.29a17.08 17.08 0 0 0 1.3 4.07 8.47 8.47 0 0 0 1.47 2.77h8.61a48.35 48.35 0 0 1 5.42.38 2.21 2.21 0 0 1 1 .29c.55.29.92 1.43 1.26 2.23a28.54 28.54 0 0 1 1.72 5c0 .76-2.1.76-3.45.76h-12.21a18.24 18.24 0 0 1-2.94-.29c-.63-.13-.76-.25.21-.25h12.73c.71 0 1.51 0 1.51-.55a29.76 29.76 0 0 0-1.72-5 8.65 8.65 0 0 0-1-2h-7.94a35.27 35.27 0 0 1-6.26-.5 4.13 4.13 0 0 1-.84-.25c-.8-.38-1.26-1.85-1.72-2.94a16.5 16.5 0 0 1-1.3-4.07.8.8 0 0 1 0-.34c.38-.55 3.44-.59 5.21-.59h8.4a18.35 18.35 0 0 1 2.94.29c.87.28.58.28-.18.28zM388 178.84l-6.51-16.21c0-.08.34-.13.71-.13h13.57a18.26 18.26 0 0 1 2.94.29c.63.13.76.25-.21.25h-12.76l3 7.56h7.77a18.23 18.23 0 0 1 2.94.29c.63.13.76.29-.21.29H389l3.07 7.56h10.29c.34 0 3.4.13 3.4.46 0 .08-.29.08-.71.08h-13.56a11.29 11.29 0 0 1-3.49-.44zM410.79 185.15l-2.69-10.88c0-.08.29-.08.71-.08.84 0 3.4.21 3.44.46l2.69 10.88s-.25.08-.76.08a13.36 13.36 0 0 1-3.39-.46zM449.09 166s-.21.13-.71.13h-12.64l5.54 13.87s-.21.13-.71.13a13.45 13.45 0 0 1-3.44-.46L427 154.23c0-.08.34-.13.71-.13h15.92a18.12 18.12 0 0 1 2.94.29c.63.13.76.25-.21.25h-15.2l4.37 10.92h10.12c.67.01 3.44.18 3.44.44zM459.61 179.64l-7.1-17.81c0-.08.25-.13.71-.13.88 0 3.36.21 3.45.46l7.1 17.81s-.21.13-.71.13a13.45 13.45 0 0 1-3.45-.46zM470.56 179.64l-7.1-17.81c0-.08.25-.13.67-.13a13 13 0 0 1 1.3.08 7.5 7.5 0 0 1 2.14.34L482.19 173l-4.45-11.13c0-.08.25-.13.71-.13.88 0 3.36.21 3.44.46l6 15L489 180s-.21.13-.71.13a13.45 13.45 0 0 1-3.45-.46l-1.09-2.77-14.58-10.8 5.54 13.9s-.21.13-.71.13a13.45 13.45 0 0 1-3.44-.49zM495.67 179.64l-7.1-17.81c0-.08.25-.13.67-.13a13 13 0 0 1 1.3.08 7.48 7.48 0 0 1 2.14.34L507.31 173l-4.45-11.13c0-.08.25-.13.71-.13.88 0 3.36.21 3.45.46l6 15 1.09 2.77s-.21.13-.71.13a13.46 13.46 0 0 1-3.45-.46l-1.09-2.77-14.58-10.8 5.54 13.9s-.21.13-.71.13a13.44 13.44 0 0 1-3.44-.46zM520.95 179.64l-7.1-17.81c0-.08.25-.13.71-.13.88 0 3.36.21 3.44.46l7.1 17.81s-.21.13-.71.13a13.44 13.44 0 0 1-3.44-.46zM541.06 163h-8.57c-1.6 0-3.36 0-3.61.42v.29a17.08 17.08 0 0 0 1.3 4.07 8.47 8.47 0 0 0 1.47 2.77h8.61a48.35 48.35 0 0 1 5.42.38 2.21 2.21 0 0 1 1 .29c.55.29.92 1.43 1.26 2.23a28.54 28.54 0 0 1 1.72 5c0 .76-2.1.76-3.45.76H534a18.24 18.24 0 0 1-3-.21c-.63-.13-.76-.25.21-.25H544c.71 0 1.51 0 1.51-.55a29.76 29.76 0 0 0-1.72-5 8.65 8.65 0 0 0-1-2h-7.99a35.27 35.27 0 0 1-6.26-.5 4.13 4.13 0 0 1-.84-.25c-.8-.38-1.26-1.85-1.72-2.94a16.5 16.5 0 0 1-1.3-4.07.8.8 0 0 1 0-.34c.38-.55 3.44-.59 5.21-.59h8.4a18.35 18.35 0 0 1 2.94.29c.88.2.59.2-.17.2zM555.76 179.64l-7.1-17.81c0-.08.25-.13.71-.13.88 0 3.36.21 3.44.46l3.36 8.44h10.29l-3.53-8.78c0-.08.25-.13.71-.13.88 0 3.36.21 3.44.46L574.2 180c0 .08-.25.13-.71.13-.88 0-3.36-.21-3.44-.46l-3.36-8.44h-10.3l3.53 8.78s-.21.13-.71.13a13.45 13.45 0 0 1-3.45-.5zM581.87 185.15l-2.69-10.88c0-.08.29-.08.71-.08.84 0 3.4.21 3.45.46l2.66 10.87s-.25.08-.76.08a13.37 13.37 0 0 1-3.37-.45zM50.53 207.28s-.21.13-.71.13H37.17l5.54 13.82s-.21.13-.71.13a13.45 13.45 0 0 1-3.44-.46l-10.17-25.42c0-.08.34-.13.71-.13H45a18.13 18.13 0 0 1 2.94.29c.63.13.76.25-.21.25H32.59L37 206.82h10.09c.67 0 3.44.18 3.44.46zM64.89 221.23s-.21.13-.71.13a13.45 13.45 0 0 1-3.44-.46l-6.81-17c0-.08.34-.13.71-.13h7.9c2.06 0 7.39 0 8.91.8.88.46 1.55 2.35 2.1 3.7a12.16 12.16 0 0 1 1 3.23.67.67 0 0 1-.17.46c-.46.42-3.15.5-5 .5l9.37 8.78c.08.08-.25.13-.71.13a12.69 12.69 0 0 1-3.4-.46l-9-8.44h-4.2zm.92-9.37c1.81 0 4.12 0 4.45-.29.08-.08.08-.21.08-.38a13.05 13.05 0 0 0-1-3.28c-.5-1.3-1.3-3.15-2-3.57h-9.21l3 7.56zM84.09 220.09l-6.51-16.21c0-.08.34-.13.71-.13h13.57a18.24 18.24 0 0 1 2.94.29c.63.13.76.25-.21.25H81.78l3 7.56h7.77a18.24 18.24 0 0 1 2.94.29c.63.13.76.29-.21.29H85l3.08 7.57h10.29c.34 0 3.4.13 3.4.46 0 .08-.29.08-.71.08H87.53a11.29 11.29 0 0 1-3.44-.45zM106.18 220.89l-7.1-17.81c0-.08.25-.13.67-.13a13 13 0 0 1 1.3.08 7.48 7.48 0 0 1 2.14.34l14.62 10.84-4.45-11.13c0-.08.25-.13.71-.13.88 0 3.36.21 3.44.46l6 15 1.09 2.77s-.21.13-.71.13a13.45 13.45 0 0 1-3.44-.46l-1.09-2.77-14.58-10.8 5.54 13.9s-.21.13-.71.13a13.45 13.45 0 0 1-3.43-.42zM149.61 220.47s-.21.08-.71.08h-6.09a68.63 68.63 0 0 1-10.5-.67 5.12 5.12 0 0 1-1.68-.55c-1.34-.84-2.81-4.7-3.86-7.35-.88-2.18-2.14-5.29-2.14-6.72a1.18 1.18 0 0 1 .13-.63c.67-.88 5.84-.88 8.86-.88h6.09a18.34 18.34 0 0 1 2.94.29c.84.17.55.25-.21.25h-6.17c-2.94 0-6.81 0-7.35.76a1 1 0 0 0-.13.55c0 1.39 1.22 4.54 2.1 6.72 1 2.6 2.69 6.51 3.86 7.27a2.27 2.27 0 0 0 .84.29c.25 0 2.27.13 4.5.13h6.13c.66-.01 3.39.17 3.39.46zM153.52 220.89l-7.1-17.81c0-.08.25-.13.71-.13.88 0 3.36.21 3.44.46l3.36 8.44h10.29l-3.53-8.78c0-.08.25-.13.71-.13.88 0 3.36.21 3.44.46l7.1 17.81c0 .08-.25.13-.71.13-.88 0-3.36-.21-3.44-.46l-3.36-8.44h-10.28l3.53 8.78s-.21.13-.71.13a13.45 13.45 0 0 1-3.45-.46zM179.63 226.4l-2.69-10.88c0-.08.29-.08.71-.08.84 0 3.4.21 3.44.46l2.69 10.88s-.25.08-.76.08a13.37 13.37 0 0 1-3.39-.46zM217.94 207.28s-.21.13-.71.13h-12.65l5.54 13.82s-.21.13-.71.13a13.45 13.45 0 0 1-3.44-.46l-10.17-25.42c0-.08.34-.13.71-.13h15.92a18.13 18.13 0 0 1 2.94.29c.63.13.76.25-.21.25H200l4.37 10.92h10.12c.68.01 3.45.19 3.45.47zM232.3 221.23s-.21.13-.71.13a13.45 13.45 0 0 1-3.44-.46l-6.81-17c0-.08.34-.13.71-.13h7.9c2.06 0 7.39 0 8.91.8.88.46 1.55 2.35 2.1 3.7a12.16 12.16 0 0 1 1 3.23.67.67 0 0 1-.17.46c-.46.42-3.15.5-5 .5l9.37 8.78c.08.08-.25.13-.71.13a12.69 12.69 0 0 1-3.4-.46l-9-8.44h-4.2zm.92-9.37c1.81 0 4.12 0 4.45-.29.08-.08.08-.21.08-.38a13.05 13.05 0 0 0-1-3.28c-.5-1.3-1.3-3.15-2-3.57h-9.28l3 7.56zM251.91 220.89l-7.1-17.81c0-.08.25-.13.71-.13.88 0 3.36.21 3.44.46l7.1 17.81s-.21.13-.71.13a13.45 13.45 0 0 1-3.44-.46zM272 204.3h-8.57c-1.6 0-3.36 0-3.61.42v.29a17 17 0 0 0 1.3 4.07 8.47 8.47 0 0 0 1.47 2.77h8.61a48.34 48.34 0 0 1 5.42.38 2.22 2.22 0 0 1 1 .29c.55.29.92 1.43 1.26 2.23a28.53 28.53 0 0 1 1.72 5c0 .76-2.1.76-3.44.76h-12.24a18.24 18.24 0 0 1-2.94-.29c-.63-.13-.76-.25.21-.25h12.73c.71 0 1.51 0 1.51-.55a29.71 29.71 0 0 0-1.72-5 8.65 8.65 0 0 0-1-2h-7.94a35.27 35.27 0 0 1-6.26-.5 4.13 4.13 0 0 1-.84-.25c-.8-.38-1.26-1.85-1.72-2.94a16.49 16.49 0 0 1-1.3-4.07.82.82 0 0 1 0-.34c.38-.55 3.44-.59 5.21-.59h8.4a18.36 18.36 0 0 1 2.94.29c.87.2.58.28-.2.28zM286.88 220.89l-7.1-17.81c0-.08.25-.13.71-.13.88 0 3.36.21 3.44.46l7.1 17.81s-.21.13-.71.13a13.45 13.45 0 0 1-3.44-.46zM297.81 220.89l-3.53-8.89c-1-2.52-2.56-6.34-2.56-7.69a.82.82 0 0 1 0-.34c.38-1 4.37-1 6.81-1 1.18 0 4.41.08 6.22.29 2.6.29 3.53.67 4 1 1.13.92 2.81 5.25 3.91 8l3.57 8.91c0 .08-.25.13-.71.13-.88 0-3.36-.21-3.44-.46l-3.36-8.44h-10.28l3.53 8.78s-.21.13-.71.13a13.45 13.45 0 0 1-3.45-.42zm10.71-9c-1.09-2.77-2.86-7-3.86-7.86s-1.64-.46-3.49-.46c-.71 0-5 0-5.25.8a.62.62 0 0 0 0 .29c0 1.22 1.34 4.71 2.35 7.23zM322.92 220.89l-7.1-17.81c0-.08.25-.13.67-.13a13 13 0 0 1 1.3.08 7.48 7.48 0 0 1 2.14.34l14.62 10.84-4.45-11.13c0-.08.25-.13.71-.13.88 0 3.36.21 3.44.46l6 15 1.09 2.77s-.21.13-.71.13a13.45 13.45 0 0 1-3.44-.46l-1.09-2.77-14.58-10.8 5.54 13.9s-.21.13-.71.13a13.45 13.45 0 0 1-3.43-.42zM349 226.4l-2.69-10.88c0-.08.29-.08.71-.08.84 0 3.4.21 3.44.46l2.69 10.88s-.25.08-.76.08a13.37 13.37 0 0 1-3.39-.46zM383.77 195.9h-6.64c-3.23 0-7.39 0-7.94 1a1.87 1.87 0 0 0-.08.55c0 1.81 1.85 6.6 3.15 9.79 1.64 4.12 4.29 10.59 5.8 11.85a4.15 4.15 0 0 0 1.68.71 31.6 31.6 0 0 0 4.79.17h5.63l-5-12.6H382a18.26 18.26 0 0 1-2.94-.29c-.63-.13-.71-.29.25-.29h6.38c.55 0 3.28.21 3.4.46l5.29 13.15s-.13.13-.71.13h-7.31c-3 0-10.42-.13-12.39-1.76-1.6-1.34-4.16-7.73-5.8-11.85-1.3-3.19-3.19-7.94-3.19-9.79a1.16 1.16 0 0 1 .08-.59c.63-1.22 6.13-1.22 9.62-1.22H381a18.34 18.34 0 0 1 2.94.29c.88.2.58.29-.17.29zM401.37 220.89l-3.53-8.89c-1-2.52-2.56-6.34-2.56-7.69a.82.82 0 0 1 0-.34c.38-1 4.37-1 6.8-1 1.18 0 4.41.08 6.22.29 2.6.29 3.53.67 4 1 1.13.92 2.81 5.25 3.91 8l3.57 8.91c0 .08-.25.13-.71.13-.88 0-3.36-.21-3.44-.46l-3.36-8.44H402l3.53 8.78s-.21.13-.71.13a13.46 13.46 0 0 1-3.45-.42zm10.71-9c-1.09-2.77-2.86-7-3.87-7.86s-1.64-.46-3.49-.46c-.71 0-5 0-5.25.8a.64.64 0 0 0 0 .29c0 1.22 1.34 4.71 2.35 7.23zM426.21 220.09l-6.51-16.21c0-.08.34-.13.71-.13H434a18.22 18.22 0 0 1 2.94.29c.63.13.76.25-.21.25H423.9l3 7.56h7.77a18.24 18.24 0 0 1 2.94.29c.63.13.76.29-.21.29h-10.26l3.07 7.56h10.29c.34 0 3.4.13 3.4.46 0 .08-.29.08-.71.08h-13.53a11.29 11.29 0 0 1-3.45-.44zM447.85 220.09l-6.51-16.21c0-.08.25-.13.71-.13.88 0 3.36.21 3.44.46l6.35 15.79h8.57c.34 0 3.44.13 3.44.46 0 .08-.29.08-.71.08H451.3a11.29 11.29 0 0 1-3.45-.45zM467.29 220.89l-7.1-17.81c0-.08.25-.13.71-.13.88 0 3.36.21 3.45.46l7.1 17.81s-.21.13-.71.13a13.45 13.45 0 0 1-3.45-.46zM496.4 220.47s-.21.08-.71.08h-6.09a68.63 68.63 0 0 1-10.5-.67 5.12 5.12 0 0 1-1.68-.55c-1.34-.84-2.82-4.7-3.87-7.35-.88-2.18-2.14-5.29-2.14-6.72a1.18 1.18 0 0 1 .13-.63c.67-.88 5.84-.88 8.86-.88h6.09a18.35 18.35 0 0 1 2.94.29c.84.17.55.25-.21.25H483c-2.94 0-6.81 0-7.35.76a1 1 0 0 0-.13.55c0 1.39 1.22 4.54 2.1 6.72 1 2.6 2.69 6.51 3.86 7.27a2.27 2.27 0 0 0 .84.29c.25 0 2.27.13 4.5.13H493c.67-.01 3.4.17 3.4.46zM501.46 226.4l-2.69-10.88c0-.08.29-.08.71-.08.84 0 3.4.21 3.44.46l2.69 10.88s-.25.08-.76.08a13.36 13.36 0 0 1-3.39-.46zM47 237.15h-6.68c-3.23 0-7.39 0-7.94 1a1.87 1.87 0 0 0-.08.55c0 1.81 1.85 6.6 3.15 9.79 1.64 4.12 4.29 10.59 5.8 11.85a4.16 4.16 0 0 0 1.68.71 31.61 31.61 0 0 0 4.79.17h5.63l-5-12.6h-3.2a18.25 18.25 0 0 1-2.94-.29c-.63-.13-.71-.29.25-.29h6.38c.55 0 3.28.21 3.4.46l5.29 13.15s-.13.13-.71.13h-7.3c-3 0-10.42-.13-12.39-1.76-1.6-1.34-4.16-7.73-5.8-11.85-1.3-3.19-3.19-7.94-3.19-9.79a1.16 1.16 0 0 1 .08-.59c.63-1.22 6.13-1.22 9.62-1.22h6.39a18.36 18.36 0 0 1 2.94.29c.83.2.55.29-.17.29zM64.32 261.34l-6.51-16.21c0-.08.34-.13.71-.13h13.57a18.24 18.24 0 0 1 2.94.29c.63.13.76.25-.21.25H62l3 7.56h7.77a18.24 18.24 0 0 1 2.94.29c.63.13.76.29-.21.29H65.25l3.07 7.56H78.6c.34 0 3.4.13 3.4.46 0 .08-.29.08-.71.08H67.77a11.29 11.29 0 0 1-3.45-.44zM90.41 262.48s-.21.13-.71.13a13.45 13.45 0 0 1-3.44-.46l-6.81-17c0-.08.34-.13.71-.13h7.9c2.06 0 7.39 0 8.91.8.88.46 1.55 2.35 2.1 3.7a12.16 12.16 0 0 1 1 3.23.67.67 0 0 1-.17.46c-.46.42-3.15.5-5 .5l9.37 8.78c.08.08-.25.13-.71.13a12.69 12.69 0 0 1-3.4-.46l-9-8.44h-4.2zm.92-9.37c1.81 0 4.12 0 4.45-.29.08-.08.08-.21.08-.38a13.05 13.05 0 0 0-1-3.28c-.5-1.3-1.3-3.15-2-3.57h-9.21l3 7.56zM109.87 262.14l-7.1-17.81c0-.08.25-.13.67-.13a13 13 0 0 1 1.3.08 6.84 6.84 0 0 1 2.14.38l12 11.64 2.73-12c0-.08.29-.13.67-.13s1 0 1.43.08a5.84 5.84 0 0 1 2.06.38l7.1 17.81c0 .08-.25.13-.71.13-.88 0-3.36-.21-3.44-.46l-4.41-11-1.93 8.61c0 .08-.25.08-.59.08a17.45 17.45 0 0 1-3.57-.42l-8.82-8.61 4.6 11.71s-.21.13-.71.13a13.45 13.45 0 0 1-3.42-.47zM139.51 262.14l-3.51-8.9c-1-2.52-2.56-6.34-2.56-7.69a.82.82 0 0 1 0-.34c.38-1 4.37-1 6.81-1 1.18 0 4.41.08 6.22.29 2.6.29 3.53.67 4 1 1.13.92 2.81 5.25 3.91 8l3.57 8.91c0 .08-.25.13-.71.13-.88 0-3.36-.21-3.44-.46l-3.36-8.44h-10.3l3.53 8.78s-.21.13-.71.13a13.45 13.45 0 0 1-3.45-.41zm10.71-9c-1.09-2.77-2.86-7-3.86-7.86s-1.64-.46-3.49-.46c-.71 0-5 0-5.25.8a.62.62 0 0 0 0 .29c0 1.22 1.34 4.71 2.35 7.23zM164.63 262.14l-7.1-17.81c0-.08.25-.13.67-.13a13 13 0 0 1 1.3.08 7.5 7.5 0 0 1 2.14.34l14.62 10.84-4.45-11.13c0-.08.25-.13.71-.13.88 0 3.36.21 3.44.46l6 15 1.09 2.77s-.21.13-.71.13a13.45 13.45 0 0 1-3.44-.46l-1.09-2.77-14.58-10.8 5.54 13.9s-.21.13-.71.13a13.45 13.45 0 0 1-3.43-.42zM190.74 267.65L188 256.77c0-.08.29-.08.71-.08.84 0 3.4.21 3.44.46L194.9 268s-.25.08-.76.08a13.37 13.37 0 0 1-3.4-.43zM225.47 237.15h-6.64c-3.23 0-7.39 0-7.94 1a1.87 1.87 0 0 0-.08.55c0 1.81 1.85 6.6 3.15 9.79 1.64 4.12 4.29 10.59 5.8 11.85a4.16 4.16 0 0 0 1.68.71 31.61 31.61 0 0 0 4.79.17h5.63l-5-12.6h-3.15a18.25 18.25 0 0 1-2.94-.29c-.63-.13-.71-.29.25-.29h6.38c.55 0 3.28.21 3.4.46l5.29 13.15s-.13.13-.71.13H228c-3 0-10.42-.13-12.39-1.76-1.6-1.34-4.16-7.73-5.8-11.85-1.3-3.19-3.19-7.94-3.19-9.79a1.16 1.16 0 0 1 .08-.59c.63-1.22 6.13-1.22 9.62-1.22h6.39a18.36 18.36 0 0 1 2.94.29c.87.2.58.29-.18.29zM247.29 262.48s-.21.13-.71.13a13.45 13.45 0 0 1-3.44-.46l-6.81-17c0-.08.34-.13.71-.13h7.9c2.06 0 7.39 0 8.91.8.88.46 1.55 2.35 2.1 3.7a12.16 12.16 0 0 1 1 3.23.67.67 0 0 1-.17.46c-.46.42-3.15.5-5 .5l9.37 8.78c.08.08-.25.13-.71.13a12.69 12.69 0 0 1-3.4-.46l-9-8.44h-4.2zm.92-9.37c1.81 0 4.12 0 4.45-.29.08-.08.08-.21.08-.38a13.05 13.05 0 0 0-1-3.28c-.5-1.3-1.3-3.15-2-3.57h-9.28l3 7.56zM266.48 261.34L260 245.13c0-.08.34-.13.71-.13h13.57a18.24 18.24 0 0 1 2.94.29c.63.13.76.25-.21.25h-12.84l3 7.56H275a18.24 18.24 0 0 1 2.94.29c.63.13.76.29-.21.29h-10.32l3.07 7.56h10.29c.34 0 3.4.13 3.4.46 0 .08-.29.08-.71.08h-13.53a11.29 11.29 0 0 1-3.45-.44zM288.12 261.34l-6.51-16.21c0-.08.34-.13.71-.13h13.57a18.24 18.24 0 0 1 2.94.29c.63.13.76.25-.21.25h-12.81l3 7.56h7.77a18.24 18.24 0 0 1 2.94.29c.63.13.76.29-.21.29H289l3.07 7.56h10.33c.34 0 3.4.13 3.4.46 0 .08-.29.08-.71.08h-13.52a11.29 11.29 0 0 1-3.45-.44zM310.21 262.14l-7.1-17.81c0-.08.25-.13.67-.13a13 13 0 0 1 1.3.08 7.5 7.5 0 0 1 2.14.34l14.62 10.84-4.45-11.13c0-.08.25-.13.71-.13.88 0 3.36.21 3.44.46l6 15 1.09 2.77s-.21.13-.71.13a13.45 13.45 0 0 1-3.44-.46l-1.09-2.77-14.58-10.8 5.54 13.9s-.21.13-.71.13a13.45 13.45 0 0 1-3.43-.42zM335.06 261.34l-6.51-16.21c0-.08.25-.13.71-.13.88 0 3.36.21 3.44.46l6.3 15.8h8.57c.34 0 3.44.13 3.44.46 0 .08-.29.08-.71.08h-11.8a11.29 11.29 0 0 1-3.44-.46zM354.33 262.14l-3.53-8.91c-1-2.52-2.56-6.34-2.56-7.69a.82.82 0 0 1 0-.34c.38-1 4.37-1 6.81-1 1.18 0 4.41.08 6.22.29 2.6.29 3.53.67 4 1 1.13.92 2.81 5.25 3.91 8l3.57 8.91c0 .08-.25.13-.71.13-.88 0-3.36-.21-3.45-.46l-3.36-8.44H355l3.53 8.78s-.21.13-.71.13a13.44 13.44 0 0 1-3.49-.4zm10.71-9c-1.09-2.77-2.86-7-3.86-7.86s-1.64-.46-3.49-.46c-.71 0-5 0-5.25.8a.61.61 0 0 0 0 .29c0 1.22 1.34 4.71 2.35 7.23zM379.45 262.14l-7.1-17.81c0-.08.25-.13.67-.13a13 13 0 0 1 1.3.08 7.5 7.5 0 0 1 2.14.34l14.62 10.84-4.45-11.13c0-.08.25-.13.71-.13.88 0 3.36.21 3.44.46l6 15 1.09 2.77s-.21.13-.71.13a13.45 13.45 0 0 1-3.44-.46l-1.09-2.77-14.58-10.8 5.54 13.9s-.21.13-.71.13a13.45 13.45 0 0 1-3.43-.42zM404.3 261.34l-6.51-16.21c0-.08.34-.13.71-.13h5.33c2.9 0 10.33 0 12.18 1.22 1.34.88 2.81 4.75 3.87 7.35.88 2.23 2.14 5.29 2.14 6.72a1.28 1.28 0 0 1-.13.63c-.67.88-5.92.88-8.86.88h-5.29a11.29 11.29 0 0 1-3.44-.46zm6.39-.08c2.81 0 6.51 0 7.06-.76a1 1 0 0 0 .13-.54c0-1.39-1.22-4.5-2.1-6.72-1-2.6-2.69-6.51-3.86-7.27a2.73 2.73 0 0 0-.84-.29c-.25 0-2.23-.13-4.5-.13H402l6.3 15.71zM429.12 262.14L422 244.33c0-.08.25-.13.71-.13.88 0 3.36.21 3.45.46l7.1 17.81s-.21.13-.71.13a13.45 13.45 0 0 1-3.43-.46zM458.23 261.72s-.21.08-.71.08h-6.09a68.63 68.63 0 0 1-10.5-.67 5.12 5.12 0 0 1-1.68-.55c-1.34-.84-2.82-4.7-3.87-7.35-.88-2.18-2.14-5.29-2.14-6.72a1.18 1.18 0 0 1 .13-.63c.67-.88 5.84-.88 8.86-.88h6.09a18.35 18.35 0 0 1 2.94.29c.84.17.55.25-.21.25h-6.17c-2.94 0-6.81 0-7.35.76a1 1 0 0 0-.13.55c0 1.39 1.22 4.54 2.1 6.72 1 2.6 2.69 6.51 3.86 7.27a2.27 2.27 0 0 0 .84.29c.25 0 2.27.13 4.5.13h6.13c.67 0 3.4.17 3.4.46zM463.29 267.65l-2.69-10.88c0-.08.29-.08.71-.08.84 0 3.4.21 3.44.46l2.69 10.85s-.25.08-.76.08a13.36 13.36 0 0 1-3.39-.43zM38.56 303.39L28.1 277.18c0-.08.25-.12.71-.12.88 0 3.36.21 3.44.46l4.75 11.8h12.78l-4.88-12.14c0-.08.25-.12.71-.12.88 0 3.36.21 3.44.46l4.87 12.27 5.54 13.95c0 .08-.25.13-.71.13-.88 0-3.36-.21-3.44-.46L50 289.91H37.17l5.54 13.82s-.21.13-.71.13a13.45 13.45 0 0 1-3.44-.47zM79.72 302.17c0-1.3-1.51-5.17-2.52-7.69l-3.57-8.91c0-.08.25-.13.71-.13.88 0 3.36.21 3.44.46l3.53 8.91c1 2.52 2.56 6.3 2.56 7.69a.82.82 0 0 1 0 .34c-.38.92-4.29 1-6.81 1H76c-2.1 0-7.73-.17-9.16-1.34-1.09-.92-2.77-5.21-3.91-8l-3.57-8.91s.21-.13.71-.13a13.45 13.45 0 0 1 3.44.46l3.49 8.9c1.13 2.77 2.9 7.14 3.91 8 .84.71 1.68.46 3.4.46h.34c2.26-.01 5.07.11 5.07-1.11zM91.53 303.39l-7.1-17.81c0-.08.25-.13.67-.13a13 13 0 0 1 1.3.08 7.48 7.48 0 0 1 2.14.34l14.62 10.84-4.45-11.13c0-.08.25-.13.71-.13.88 0 3.36.21 3.44.46l6 15 1.09 2.77s-.21.13-.71.13a13.45 13.45 0 0 1-3.44-.46l-1.09-2.77-14.58-10.8 5.54 13.9s-.21.13-.71.13a13.45 13.45 0 0 1-3.43-.42zM127 286.8h-5.38c-2.94 0-6.81 0-7.35.76a1 1 0 0 0-.13.55c0 1.39 1.22 4.54 2.1 6.72 1 2.6 2.69 6.51 3.86 7.27a2.27 2.27 0 0 0 .84.29c.25 0 2.27.13 4.5.13H130l-3-7.56h-2.1a17.67 17.67 0 0 1-2.9-.29c-.63-.13-.76-.29.21-.29h5.33c.55 0 3.28.21 3.4.46l3.28 8.11s-.13.13-.71.13h-5.33a68.63 68.63 0 0 1-10.5-.67 5.12 5.12 0 0 1-1.68-.55c-1.34-.84-2.81-4.7-3.86-7.35-.88-2.18-2.14-5.29-2.14-6.72a1.18 1.18 0 0 1 .13-.63c.67-.88 5.84-.88 8.86-.88h5.29a18.36 18.36 0 0 1 2.94.29c.78.15.52.23-.22.23zM140.63 303.39l-3.53-8.91c-1-2.52-2.56-6.34-2.56-7.69a.82.82 0 0 1 0-.34c.38-1 4.37-1 6.81-1 1.18 0 4.41.08 6.22.29 2.6.29 3.53.67 4 1 1.13.92 2.81 5.25 3.91 8l3.57 8.91c0 .08-.25.13-.71.13-.88 0-3.36-.21-3.44-.46l-3.36-8.44h-10.28l3.53 8.78s-.21.13-.71.13a13.45 13.45 0 0 1-3.45-.4zm10.71-9c-1.09-2.77-2.86-7-3.86-7.86s-1.64-.53-3.48-.53c-.71 0-5 0-5.25.8a.62.62 0 0 0 0 .29c0 1.22 1.34 4.71 2.35 7.23zM169.93 303.73s-.21.13-.71.13a13.45 13.45 0 0 1-3.44-.46l-6.81-17c0-.08.34-.13.71-.13h7.9c2.06 0 7.39 0 8.91.8.88.46 1.55 2.35 2.1 3.7a12.16 12.16 0 0 1 1 3.23.67.67 0 0 1-.17.46c-.46.42-3.15.5-5 .5l9.37 8.78c.08.08-.25.13-.71.13a12.69 12.69 0 0 1-3.4-.46l-9-8.44h-4.2zm.92-9.37c1.81 0 4.12 0 4.45-.29.08-.08.08-.21.08-.38a13.05 13.05 0 0 0-1-3.28c-.5-1.3-1.3-3.15-2-3.57h-9.28l3 7.56zM189.54 303.39l-7.1-17.81c0-.08.25-.13.71-.13.88 0 3.36.21 3.44.46l7.1 17.81s-.21.13-.71.13a13.45 13.45 0 0 1-3.44-.46zM200.47 303.39l-3.53-8.91c-1-2.52-2.56-6.34-2.56-7.69a.82.82 0 0 1 0-.34c.38-1 4.37-1 6.81-1 1.18 0 4.41.08 6.22.29 2.6.29 3.53.67 4 1 1.13.92 2.81 5.25 3.91 8l3.57 8.91c0 .08-.25.13-.71.13-.88 0-3.36-.21-3.44-.46l-3.36-8.44H201.1l3.53 8.78s-.21.13-.71.13a13.45 13.45 0 0 1-3.45-.4zm10.71-9c-1.09-2.77-2.86-7-3.86-7.86s-1.64-.46-3.49-.46c-.71 0-5 0-5.25.8a.62.62 0 0 0 0 .29c0 1.22 1.34 4.71 2.35 7.23zM225.58 303.39l-7.1-17.81c0-.08.25-.13.67-.13a13 13 0 0 1 1.3.08 7.48 7.48 0 0 1 2.14.34l14.62 10.84-4.45-11.13c0-.08.25-.13.71-.13.88 0 3.36.21 3.44.46l6 15 1.09 2.77s-.21.13-.71.13a13.45 13.45 0 0 1-3.44-.46l-1.09-2.77-14.58-10.8 5.54 13.9s-.21.13-.71.13a13.45 13.45 0 0 1-3.43-.42zM251.69 308.9L249 298c0-.08.29-.08.71-.08.84 0 3.4.21 3.44.46l2.69 10.88s-.25.08-.76.08a13.37 13.37 0 0 1-3.39-.44zM278.87 303.39l-10.46-26.21c0-.08.25-.12.71-.12.88 0 3.36.21 3.44.46L283 303.73s-.21.13-.71.13a13.45 13.45 0 0 1-3.42-.47zM308.47 303s-.21.08-.71.08h-6.09a68.63 68.63 0 0 1-10.5-.67 5.12 5.12 0 0 1-1.68-.55c-1.34-.84-2.81-4.7-3.86-7.35-.88-2.18-2.14-5.29-2.14-6.72a1.18 1.18 0 0 1 .13-.63c.67-.88 5.84-.88 8.86-.88h6.09a18.34 18.34 0 0 1 2.94.29c.84.17.55.25-.21.25h-6.17c-2.94 0-6.81 0-7.35.76a1 1 0 0 0-.13.55c0 1.39 1.22 4.54 2.1 6.72 1 2.6 2.69 6.51 3.86 7.27a2.27 2.27 0 0 0 .84.29c.25 0 2.27.13 4.5.13h6.13c.66-.03 3.39.14 3.39.46zM312.08 302.59l-6.51-16.21c0-.08.34-.13.71-.13h13.57a18.24 18.24 0 0 1 2.94.29c.63.13.76.25-.21.25h-12.81l3 7.56h7.77a18.24 18.24 0 0 1 2.94.29c.63.13.76.29-.21.29H313l3.07 7.56h10.29c.34 0 3.4.13 3.4.46 0 .08-.29.08-.71.08h-13.52a11.29 11.29 0 0 1-3.45-.44zM333.72 302.59l-6.51-16.21c0-.08.25-.13.71-.13.88 0 3.36.21 3.44.46l6.34 15.79h8.57c.34 0 3.44.13 3.44.46 0 .08-.29.08-.71.08h-11.83a11.29 11.29 0 0 1-3.45-.45zM353 303.39l-3.53-8.91c-1-2.52-2.56-6.34-2.56-7.69a.82.82 0 0 1 0-.34c.38-1 4.37-1 6.81-1 1.18 0 4.41.08 6.22.29 2.6.29 3.53.67 4 1 1.13.92 2.81 5.25 3.91 8l3.57 8.91c0 .08-.25.13-.71.13-.88 0-3.36-.21-3.45-.46l-3.36-8.44h-10.27l3.53 8.78s-.21.13-.71.13a13.45 13.45 0 0 1-3.45-.4zm10.71-9c-1.09-2.77-2.86-7-3.87-7.86s-1.64-.46-3.49-.46c-.71 0-5 0-5.25.8a.62.62 0 0 0 0 .29c0 1.22 1.34 4.71 2.35 7.23zM378.12 303.39L371 285.58c0-.08.25-.13.67-.13a13 13 0 0 1 1.3.08 7.48 7.48 0 0 1 2.14.34l14.62 10.84-4.45-11.13c0-.08.25-.13.71-.13.88 0 3.36.21 3.45.46l6 15 1.09 2.77s-.21.13-.71.13a13.46 13.46 0 0 1-3.45-.46l-1.09-2.77-14.58-10.8 5.54 13.9s-.21.13-.71.13a13.44 13.44 0 0 1-3.41-.42zM403 302.59l-6.51-16.21c0-.08.34-.13.71-.13h5.34c2.9 0 10.33 0 12.18 1.22 1.34.88 2.81 4.75 3.87 7.35.88 2.23 2.14 5.29 2.14 6.72a1.28 1.28 0 0 1-.13.63c-.67.88-5.92.88-8.86.88h-5.29a11.29 11.29 0 0 1-3.45-.46zm6.38-.08c2.81 0 6.51 0 7.06-.76a1 1 0 0 0 .13-.54c0-1.39-1.22-4.5-2.1-6.72-1.05-2.6-2.69-6.51-3.87-7.27a2.73 2.73 0 0 0-.84-.29c-.25 0-2.23-.13-4.49-.13h-4.58l6.3 15.71zM427.79 303.39l-7.1-17.81c0-.08.25-.13.71-.13.88 0 3.36.21 3.44.46l7.1 17.81s-.21.13-.71.13a13.45 13.45 0 0 1-3.44-.46zM456.89 303s-.21.08-.71.08h-6.09a68.63 68.63 0 0 1-10.5-.67 5.12 5.12 0 0 1-1.68-.55c-1.34-.84-2.81-4.7-3.86-7.35-.88-2.18-2.14-5.29-2.14-6.72a1.18 1.18 0 0 1 .13-.63c.67-.88 5.84-.88 8.86-.88h6.1a18.34 18.34 0 0 1 2.94.29c.84.17.55.25-.21.25h-6.18c-2.94 0-6.8 0-7.35.76a1 1 0 0 0-.12.55c0 1.39 1.22 4.54 2.1 6.72 1.05 2.6 2.69 6.51 3.87 7.27a2.27 2.27 0 0 0 .84.29c.25 0 2.27.13 4.5.13h6.13c.64-.03 3.37.14 3.37.46zM462 308.9l-2.74-10.9c0-.08.29-.08.71-.08.84 0 3.4.21 3.44.46l2.69 10.88s-.25.08-.76.08a13.37 13.37 0 0 1-3.34-.44zM489.13 303.39l-10.46-26.21c0-.08.25-.12.71-.12.88 0 3.36.21 3.45.46l10.46 26.21s-.21.13-.71.13a13.45 13.45 0 0 1-3.45-.47zM504.75 303.73s-.21.13-.71.13a13.45 13.45 0 0 1-3.44-.46l-6.81-17c0-.08.34-.13.71-.13h7.9c2.06 0 7.39 0 8.91.8.88.46 1.55 2.35 2.1 3.7a12.15 12.15 0 0 1 1 3.23.67.67 0 0 1-.17.46c-.46.42-3.15.5-5 .5l9.37 8.78c.08.08-.25.13-.71.13a12.69 12.69 0 0 1-3.4-.46l-9-8.44h-4.2zm.92-9.37c1.81 0 4.12 0 4.45-.29.08-.08.08-.21.08-.38a13.05 13.05 0 0 0-1-3.28c-.5-1.3-1.3-3.15-2-3.57H498l3 7.56zM524.36 303.39l-7.1-17.81c0-.08.25-.13.71-.13.88 0 3.36.21 3.45.46l7.1 17.81s-.21.13-.71.13a13.45 13.45 0 0 1-3.45-.46zM544.47 286.8h-8.57c-1.6 0-3.36 0-3.61.42v.29a17 17 0 0 0 1.3 4.07 8.44 8.44 0 0 0 1.47 2.77h8.61a48.32 48.32 0 0 1 5.42.38 2.23 2.23 0 0 1 1 .29c.54.29.92 1.43 1.26 2.23a28.54 28.54 0 0 1 1.72 5c0 .76-2.1.76-3.45.76h-12.25a18.22 18.22 0 0 1-2.94-.29c-.63-.13-.76-.25.21-.25h12.73c.71 0 1.51 0 1.51-.55a29.67 29.67 0 0 0-1.72-5 8.65 8.65 0 0 0-1-2h-7.94a35.26 35.26 0 0 1-6.26-.5 4.11 4.11 0 0 1-.84-.25c-.8-.38-1.26-1.85-1.72-2.94a16.46 16.46 0 0 1-1.3-4.07.82.82 0 0 1 0-.34c.38-.55 3.44-.59 5.21-.59h8.4a18.37 18.37 0 0 1 2.94.29c.87.2.58.28-.18.28zM559.18 303.39l-7.1-17.81c0-.08.25-.13.71-.13.88 0 3.36.21 3.44.46l3.36 8.44h10.29l-3.53-8.78c0-.08.25-.13.71-.13.88 0 3.36.21 3.44.46l7.1 17.81c0 .08-.25.13-.71.13-.88 0-3.36-.21-3.44-.46l-3.36-8.44h-10.28l3.53 8.78s-.21.13-.71.13a13.45 13.45 0 0 1-3.45-.46zM585.29 308.9L582.6 298c0-.08.29-.08.71-.08.84 0 3.4.21 3.45.46l2.69 10.88s-.25.08-.76.08a13.37 13.37 0 0 1-3.4-.44zM39.4 344.64l-10.46-26.21c0-.08.25-.12.71-.12.88 0 3.36.21 3.44.46L43.56 345s-.21.13-.71.13a13.45 13.45 0 0 1-3.45-.49zM59.26 328s-.17.08-.76.08h-7L58.3 345c0 .08-.25.13-.71.13-.88 0-3.36-.21-3.44-.46L47.5 328H43a16.6 16.6 0 0 1-2.9-.25c-.42-.08-.55-.17-.55-.21s.67-.08.8-.08h15.47c1.51.04 3.44.25 3.44.54zM68.56 344.64l-3.56-8.9c-1-2.52-2.56-6.34-2.56-7.69a.82.82 0 0 1 0-.34c.38-1 4.37-1 6.81-1 1.18 0 4.41.08 6.22.29 2.6.29 3.53.67 4 1 1.13.92 2.81 5.25 3.91 8l3.62 9c0 .08-.25.13-.71.13-.88 0-3.36-.21-3.44-.46l-3.36-8.44h-10.3l3.53 8.77s-.21.13-.71.13a13.45 13.45 0 0 1-3.45-.49zm10.71-9c-1.09-2.77-2.86-7-3.86-7.86s-1.64-.46-3.49-.46c-.71 0-5 0-5.25.8a.62.62 0 0 0 0 .29c0 1.22 1.34 4.71 2.35 7.23zM93.41 343.84l-6.51-16.21c0-.08.25-.13.71-.13.88 0 3.36.21 3.44.46l6.34 15.79H106c.34 0 3.44.13 3.44.46 0 .08-.29.08-.71.08H96.85a11.29 11.29 0 0 1-3.44-.45zM112.85 344.64l-7.1-17.81c0-.08.25-.13.71-.13.88 0 3.36.21 3.44.46L117 345s-.21.13-.71.13a13.45 13.45 0 0 1-3.44-.49zM123.77 344.64l-3.53-8.91c-1-2.52-2.56-6.34-2.56-7.69a.82.82 0 0 1 0-.34c.38-1 4.37-1 6.81-1 1.18 0 4.41.08 6.22.29 2.6.29 3.53.67 4 1 1.13.92 2.81 5.25 3.91 8l3.57 8.91c0 .08-.25.13-.71.13-.88 0-3.36-.21-3.44-.46l-3.36-8.44H124.4l3.53 8.78s-.21.13-.71.13a13.45 13.45 0 0 1-3.45-.4zm10.71-9c-1.09-2.77-2.86-7-3.86-7.86s-1.64-.46-3.49-.46c-.71 0-5 0-5.25.8a.62.62 0 0 0 0 .29c0 1.22 1.34 4.71 2.35 7.23zM148.89 344.64l-7.1-17.81c0-.08.25-.13.67-.13a13 13 0 0 1 1.3.08 7.48 7.48 0 0 1 2.14.34L160.52 338l-4.45-11.13c0-.08.25-.13.71-.13.88 0 3.36.21 3.44.46l6 15 1.09 2.77s-.21.13-.71.13a13.45 13.45 0 0 1-3.44-.46l-1.09-2.77-14.58-10.8L153 345s-.21.13-.71.13a13.45 13.45 0 0 1-3.4-.49zM175 350.15l-2.69-10.88c0-.08.29-.08.71-.08.84 0 3.4.21 3.44.46l2.69 10.88s-.25.08-.76.08a13.37 13.37 0 0 1-3.39-.46zM201.33 344.64l-10.46-26.21c0-.08.25-.12.67-.12a12.45 12.45 0 0 1 1.3.08 6.52 6.52 0 0 1 2.14.38l20 17.81-7.27-18.15c0-.08.25-.12.71-.12.88 0 3.36.21 3.44.46l9.37 23.4 1.09 2.77s-.21.13-.71.13a13.45 13.45 0 0 1-3.44-.46l-1.17-2.78L197.13 324l8.36 21s-.21.13-.71.13a13.45 13.45 0 0 1-3.45-.49zM240.93 327.38a5.17 5.17 0 0 1 1.89.67c1.3.92 3 5.17 4.12 8 1 2.44 2.44 6 2.44 7.48a1 1 0 0 1-.13.55c-.59 1-5.54 1-8.53 1h-1.05a48 48 0 0 1-9-.67 5.15 5.15 0 0 1-1.89-.67c-1.3-.92-3-5.17-4.12-8-1-2.44-2.44-6-2.44-7.48a1 1 0 0 1 .13-.55c.59-1 5.54-1 8.53-1a66.64 66.64 0 0 1 10.05.67zm-7.52-.08c-2.81 0-6.39 0-6.89.8a.9.9 0 0 0-.13.5c0 1.47 1.43 5 2.39 7.48 1.13 2.86 2.94 7.14 4.12 8a2.68 2.68 0 0 0 .92.38c.21 0 1.34.08 4.2.08h.17c2.81 0 6.38 0 6.89-.8a.9.9 0 0 0 .13-.5c0-1.47-1.43-5-2.39-7.48-1.13-2.86-2.94-7.14-4.12-8a2.56 2.56 0 0 0-1.05-.38c-.29 0-2.18-.08-4.07-.08zM260.34 345s-.21.13-.71.13a13.45 13.45 0 0 1-3.44-.46l-6.81-17c0-.08.34-.13.71-.13H258c2.06 0 7.39 0 8.91.8.88.46 1.55 2.35 2.1 3.7a12.16 12.16 0 0 1 1 3.23.67.67 0 0 1-.17.46c-.46.42-3.15.5-5 .5l9.37 8.78c.08.08-.25.13-.71.13a12.69 12.69 0 0 1-3.4-.46l-9-8.44h-4.2zm.92-9.37c1.81 0 4.12 0 4.45-.29.08-.08.08-.21.08-.38a13.05 13.05 0 0 0-1-3.28c-.5-1.3-1.3-3.15-2-3.57h-9.28l3 7.56zM273.66 327.17L284.12 340l.13-10.38c0-.08.25-.08.63-.08h.12a11.18 11.18 0 0 1 3.4.46l8.15 10 .21-13.15c0-.08.25-.13.63-.13a12.51 12.51 0 0 1 3.53.46l-.25 17.82c0 .08-.25.13-.59.13a15.91 15.91 0 0 1-3.57-.46l-8.15-10-.17 10.33c0 .08-.25.13-.59.13a15.92 15.92 0 0 1-3.57-.46l-14.53-17.84c0-.08.21-.13.76-.13a15.14 15.14 0 0 1 3.4.47zM311.46 343.84l-6.51-16.21c0-.08.34-.13.71-.13h13.57a18.24 18.24 0 0 1 2.94.29c.63.13.76.25-.21.25h-12.81l3 7.56h7.77a18.24 18.24 0 0 1 2.94.29c.63.13.76.29-.21.29h-10.27l3.07 7.56h10.29c.34 0 3.4.13 3.4.46 0 .08-.29.08-.71.08H314.9a11.29 11.29 0 0 1-3.44-.44zM343.64 328h-5.38c-2.94 0-6.81 0-7.35.76a1 1 0 0 0-.13.55c0 1.39 1.22 4.54 2.1 6.72 1.05 2.6 2.69 6.51 3.86 7.27a2.27 2.27 0 0 0 .84.29c.25 0 2.27.13 4.5.13h4.58l-3-7.56h-2.1a17.67 17.67 0 0 1-2.9-.29c-.63-.13-.76-.29.21-.29h5.33c.55 0 3.28.21 3.4.46l3.28 8.11s-.13.13-.71.13h-5.33a68.63 68.63 0 0 1-10.5-.67 5.12 5.12 0 0 1-1.68-.55c-1.34-.84-2.81-4.7-3.86-7.35-.88-2.18-2.14-5.29-2.14-6.72a1.18 1.18 0 0 1 .13-.63c.67-.88 5.84-.88 8.86-.88h5.29a18.36 18.36 0 0 1 2.94.29c.81.23.52.23-.24.23zM357.64 344.64l-7.1-17.81c0-.08.25-.13.71-.13.88 0 3.36.21 3.44.46l7.1 17.81s-.21.13-.71.13a13.45 13.45 0 0 1-3.44-.46zM368.56 344.64l-3.56-8.9c-1-2.52-2.56-6.34-2.56-7.69a.8.8 0 0 1 0-.34c.38-1 4.37-1 6.8-1 1.18 0 4.41.08 6.22.29 2.61.29 3.53.67 4 1 1.13.92 2.81 5.25 3.91 8l3.63 9c0 .08-.25.13-.71.13-.88 0-3.36-.21-3.44-.46l-3.36-8.44h-10.3l3.53 8.78s-.21.13-.71.13a13.45 13.45 0 0 1-3.45-.5zm10.71-9c-1.09-2.77-2.86-7-3.86-7.86s-1.64-.46-3.49-.46c-.71 0-5 0-5.25.8a.62.62 0 0 0 0 .29c0 1.22 1.34 4.71 2.35 7.23zM393.68 344.64l-7.1-17.81c0-.08.25-.13.67-.13a13 13 0 0 1 1.3.08 7.49 7.49 0 0 1 2.14.34L405.31 338l-4.45-11.13c0-.08.25-.13.71-.13.88 0 3.36.21 3.44.46l6 15 1.09 2.77s-.21.13-.71.13a13.44 13.44 0 0 1-3.44-.46l-1.09-2.77-14.58-10.8 5.54 13.9s-.21.13-.71.13a13.46 13.46 0 0 1-3.43-.46zM419.79 350.15l-2.69-10.88c0-.08.29-.08.71-.08.84 0 3.4.21 3.44.46l2.69 10.88s-.25.08-.76.08a13.38 13.38 0 0 1-3.39-.46zM450.28 345s-.21.13-.71.13a13.44 13.44 0 0 1-3.44-.46L436 319.23c0-.08.34-.13.71-.13H446c2.18 0 8.44.17 9.79 1 1 .63 2 3.32 2.77 5.17a18.57 18.57 0 0 1 1.47 4.75c0 .21 0 .38-.08.46-.5.67-4.45.67-6.59.67h-8.65zm.63-14.41c2 0 4.54 0 4.92-.46a.63.63 0 0 0 .08-.42 19.05 19.05 0 0 0-1.47-4.75c-.76-1.93-1.85-4.92-3-5.25h-11.3l4.37 10.92zM481.37 327.38a5.17 5.17 0 0 1 1.89.67c1.3.92 3 5.17 4.12 8 1 2.44 2.44 6 2.44 7.48a1 1 0 0 1-.13.55c-.59 1-5.54 1-8.53 1h-1a48 48 0 0 1-9-.67 5.15 5.15 0 0 1-1.89-.67c-1.3-.92-3-5.17-4.12-8-1-2.44-2.44-6-2.44-7.48a1 1 0 0 1 .13-.55c.59-1 5.54-1 8.53-1a66.66 66.66 0 0 1 10 .67zm-7.52-.08c-2.81 0-6.39 0-6.89.8a.9.9 0 0 0-.13.5c0 1.47 1.43 5 2.39 7.48 1.13 2.86 2.94 7.14 4.12 8a2.66 2.66 0 0 0 .92.38c.21 0 1.34.08 4.2.08h.17c2.81 0 6.38 0 6.89-.8a.9.9 0 0 0 .13-.5c0-1.47-1.43-5-2.39-7.48-1.13-2.86-2.94-7.14-4.12-8a2.56 2.56 0 0 0-1.05-.38c-.29 0-2.18-.08-4.07-.08zM496.32 343.84l-6.51-16.21c0-.08.25-.13.71-.13.88 0 3.36.21 3.45.46l6.34 15.79h8.57c.34 0 3.44.13 3.44.46 0 .08-.29.08-.71.08h-11.84a11.3 11.3 0 0 1-3.45-.45zM515.76 344.64l-7.1-17.81c0-.08.25-.13.71-.13.88 0 3.36.21 3.45.46l7.1 17.81s-.21.13-.71.13a13.46 13.46 0 0 1-3.45-.46zM535.87 328h-8.57c-1.6 0-3.36 0-3.61.42v.29a17 17 0 0 0 1.3 4.07 8.46 8.46 0 0 0 1.47 2.77H535a48.32 48.32 0 0 1 5.42.38 2.22 2.22 0 0 1 1 .29c.55.29.92 1.43 1.26 2.23a28.52 28.52 0 0 1 1.72 5c0 .76-2.1.76-3.44.76h-12.19a18.23 18.23 0 0 1-2.94-.29c-.63-.13-.76-.25.21-.25h12.73c.71 0 1.51 0 1.51-.55a29.67 29.67 0 0 0-1.72-5 8.65 8.65 0 0 0-1-2h-7.94a35.27 35.27 0 0 1-6.26-.5 4.13 4.13 0 0 1-.84-.25c-.8-.38-1.26-1.85-1.72-2.94a16.49 16.49 0 0 1-1.3-4.07.84.84 0 0 1 0-.34c.38-.55 3.45-.59 5.21-.59h8.4a18.36 18.36 0 0 1 2.94.29c.87.28.58.28-.18.28zM550.57 344.64l-7.1-17.81c0-.08.25-.13.71-.13.88 0 3.36.21 3.45.46l3.36 8.44h10.29l-3.53-8.78c0-.08.25-.13.71-.13.88 0 3.36.21 3.44.46L569 345c0 .08-.25.13-.71.13-.88 0-3.36-.21-3.45-.46l-3.36-8.44H551.2l3.53 8.78s-.21.13-.71.13a13.45 13.45 0 0 1-3.45-.5zM576.68 350.15L574 339.27c0-.08.29-.08.71-.08.84 0 3.4.21 3.44.46l2.69 10.88s-.25.08-.76.08a13.37 13.37 0 0 1-3.4-.46zM42.72 386.23s-.21.13-.71.13a13.45 13.45 0 0 1-3.44-.46l-10.18-25.42c0-.08.34-.13.71-.13h9.37c2.18 0 8.44.17 9.79 1 1 .63 2 3.32 2.77 5.17a18.58 18.58 0 0 1 1.47 4.75c0 .21 0 .38-.08.46-.5.67-4.45.67-6.6.67h-8.65zm.63-14.41c2 0 4.54 0 4.92-.46a.63.63 0 0 0 .08-.42 19.09 19.09 0 0 0-1.47-4.75c-.76-1.93-1.85-4.92-3-5.25H32.59L37 371.82zM73.81 368.63a5.17 5.17 0 0 1 1.89.67c1.3.92 3 5.17 4.12 8 1 2.44 2.44 6 2.44 7.48a1 1 0 0 1-.13.55c-.59 1-5.54 1-8.53 1h-1.05a48 48 0 0 1-9-.67 5.15 5.15 0 0 1-1.89-.67c-1.3-.92-3-5.17-4.12-8-1-2.44-2.44-6-2.44-7.48a1 1 0 0 1 .13-.55c.59-1 5.54-1 8.53-1a66.64 66.64 0 0 1 10.05.67zm-7.52-.08c-2.81 0-6.39 0-6.89.8a.9.9 0 0 0-.13.5c0 1.47 1.43 5 2.39 7.48 1.13 2.86 2.94 7.14 4.12 8a2.68 2.68 0 0 0 .92.38c.21 0 1.34.08 4.2.08h.17c2.81 0 6.38 0 6.89-.8a.9.9 0 0 0 .13-.5c0-1.47-1.43-5-2.39-7.48-1.13-2.86-2.94-7.14-4.12-8a2.56 2.56 0 0 0-1.05-.38c-.29 0-2.18-.08-4.07-.08zM93.21 386.23s-.21.13-.71.13a13.45 13.45 0 0 1-3.44-.46l-6.81-17c0-.08.34-.13.71-.13h7.9c2.06 0 7.39 0 8.91.8.88.46 1.55 2.35 2.1 3.7a12.16 12.16 0 0 1 1 3.23.67.67 0 0 1-.17.46c-.46.42-3.15.5-5 .5l9.37 8.78c.08.08-.25.13-.71.13a12.69 12.69 0 0 1-3.4-.46l-9-8.44h-4.2zm.92-9.37c1.81 0 4.12 0 4.45-.29.08-.08.08-.21.08-.38a13.05 13.05 0 0 0-1-3.28c-.5-1.3-1.3-3.15-2-3.57h-9.21l3 7.56zM122.17 369.22s-.17.08-.76.08h-7l6.76 16.93c0 .08-.25.13-.71.13-.88 0-3.36-.21-3.44-.46l-6.64-16.59h-4.49A16.6 16.6 0 0 1 103 369c-.42-.08-.55-.17-.55-.21s.67-.08.8-.08h15.46c1.53.04 3.46.29 3.46.51zM145.12 384.67c0-1.3-1.51-5.17-2.52-7.69l-3.6-8.9c0-.08.25-.13.71-.13.88 0 3.36.21 3.44.46l3.53 8.91c1 2.52 2.56 6.3 2.56 7.69a.82.82 0 0 1 0 .34c-.38.92-4.29 1-6.81 1h-1.05c-2.1 0-7.73-.17-9.16-1.34-1.09-.92-2.77-5.21-3.91-8l-3.57-8.91s.21-.13.71-.13a13.45 13.45 0 0 1 3.44.46l3.53 8.91c1.13 2.77 2.9 7.14 3.91 8 .84.71 1.68.46 3.4.46h.34c2.23-.03 5.05.09 5.05-1.13zM167.22 369.3h-5.38c-2.94 0-6.81 0-7.35.76a1 1 0 0 0-.13.55c0 1.39 1.22 4.54 2.1 6.72 1 2.6 2.69 6.51 3.86 7.27a2.27 2.27 0 0 0 .84.29c.25 0 2.27.13 4.5.13h4.58l-3-7.56h-2.1a17.67 17.67 0 0 1-2.9-.29c-.63-.13-.76-.29.21-.29h5.33c.55 0 3.28.21 3.4.46l3.28 8.11s-.13.13-.71.13h-5.35a68.63 68.63 0 0 1-10.5-.67 5.12 5.12 0 0 1-1.68-.55c-1.34-.84-2.81-4.7-3.86-7.35-.88-2.18-2.14-5.29-2.14-6.72a1.18 1.18 0 0 1 .13-.63c.67-.88 5.84-.88 8.86-.88h5.29a18.36 18.36 0 0 1 2.94.29c.83.15.56.23-.22.23zM194.14 384.67c0-1.3-1.51-5.17-2.52-7.69l-3.62-8.9c0-.08.25-.13.71-.13.88 0 3.36.21 3.44.46l3.53 8.91c1 2.52 2.56 6.3 2.56 7.69a.82.82 0 0 1 0 .34c-.38.92-4.29 1-6.81 1h-1.03c-2.1 0-7.73-.17-9.16-1.34-1.09-.92-2.77-5.21-3.91-8l-3.57-8.91s.21-.13.71-.13a13.45 13.45 0 0 1 3.44.46l3.53 8.91c1.13 2.77 2.9 7.14 3.91 8 .84.71 1.68.46 3.4.46h.34c2.24-.03 5.05.09 5.05-1.13zM205.67 385.09l-6.51-16.21c0-.08.34-.13.71-.13h13.57a18.24 18.24 0 0 1 2.94.29c.63.13.76.25-.21.25h-12.81l3 7.56h7.77a18.24 18.24 0 0 1 2.94.29c.63.13.76.29-.21.29H206.6l3.07 7.56H220c.34 0 3.4.13 3.4.46 0 .08-.29.08-.71.08h-13.57a11.29 11.29 0 0 1-3.45-.44zM236.92 369.3h-8.57c-1.6 0-3.36 0-3.61.42v.29a17 17 0 0 0 1.3 4.07 8.47 8.47 0 0 0 1.47 2.77h8.61a48.34 48.34 0 0 1 5.42.38 2.22 2.22 0 0 1 1 .29c.55.29.92 1.43 1.26 2.23a28.53 28.53 0 0 1 1.72 5c0 .76-2.1.76-3.44.76h-12.26a18.24 18.24 0 0 1-2.94-.29c-.63-.13-.76-.25.21-.25h12.73c.71 0 1.51 0 1.51-.55a29.71 29.71 0 0 0-1.72-5 8.65 8.65 0 0 0-1-2h-7.94a35.27 35.27 0 0 1-6.26-.5 4.13 4.13 0 0 1-.84-.25c-.8-.38-1.26-1.85-1.72-2.94a16.49 16.49 0 0 1-1.3-4.07.82.82 0 0 1 0-.34c.38-.55 3.44-.59 5.21-.59h8.4a18.36 18.36 0 0 1 2.94.29c.9.2.58.28-.18.28zM251.35 385.09l-6.51-16.21c0-.08.34-.13.71-.13h13.57a18.24 18.24 0 0 1 2.94.29c.63.13.76.25-.21.25H249l3 7.56h7.77a18.24 18.24 0 0 1 2.94.29c.63.13.76.29-.21.29h-10.22l3.07 7.56h10.29c.34 0 3.4.13 3.4.46 0 .08-.29.08-.71.08H254.8a11.29 11.29 0 0 1-3.45-.44zM274.1 391.4l-2.69-10.88c0-.08.29-.08.71-.08.84 0 3.4.21 3.44.46l2.69 10.88s-.25.08-.76.08a13.37 13.37 0 0 1-3.39-.46zM304.59 386.23s-.21.13-.71.13a13.45 13.45 0 0 1-3.44-.46l-10.17-25.41c0-.08.34-.13.71-.13h9.37c2.18 0 8.44.17 9.79 1 1 .63 2 3.32 2.77 5.17a18.58 18.58 0 0 1 1.47 4.75c0 .21 0 .38-.08.46-.46.59-3.65.67-5.84.67l12.31 13.82c.08.08-.25.13-.71.13a11.18 11.18 0 0 1-3.4-.46l-12.06-13.48H299zm.63-14.41c2 0 4.54 0 4.92-.46a.63.63 0 0 0 .08-.42 19.09 19.09 0 0 0-1.47-4.75c-.76-1.93-1.85-4.92-3-5.25h-11.3l4.37 10.92zM339.32 384.67c0-1.3-1.51-5.17-2.52-7.69l-3.57-8.91c0-.08.25-.13.71-.13.88 0 3.36.21 3.44.46l3.53 8.91c1 2.52 2.56 6.3 2.56 7.69a.82.82 0 0 1 0 .34c-.38.92-4.29 1-6.81 1h-1.05c-2.1 0-7.73-.17-9.16-1.34-1.09-.92-2.77-5.21-3.91-8l-3.57-8.91s.21-.13.71-.13a13.45 13.45 0 0 1 3.44.46l3.53 8.91c1.13 2.77 2.9 7.14 3.91 8 .84.71 1.68.46 3.4.46h.34c2.21-.02 5.02.1 5.02-1.12zM351.13 385.89L344 368.08c0-.08.25-.13.67-.13a13 13 0 0 1 1.3.08 6.85 6.85 0 0 1 2.14.38l12 11.64 2.73-12c0-.08.29-.13.67-.13s1 0 1.43.08a5.84 5.84 0 0 1 2.06.38l7.1 17.81c0 .08-.25.13-.71.13-.88 0-3.36-.21-3.44-.46l-4.41-11-1.93 8.61c0 .08-.25.08-.59.08a17.45 17.45 0 0 1-3.57-.42l-8.82-8.61 4.66 11.72s-.21.13-.71.13a13.45 13.45 0 0 1-3.45-.48zM380.78 385.89l-3.53-8.89c-1-2.52-2.56-6.34-2.56-7.69a.82.82 0 0 1 0-.34c.38-1 4.37-1 6.81-1 1.18 0 4.41.08 6.22.29 2.6.29 3.53.67 4 1 1.13.92 2.81 5.25 3.91 8l3.57 8.91c0 .08-.25.13-.71.13-.88 0-3.36-.21-3.45-.46l-3.36-8.44h-10.27l3.53 8.78s-.21.13-.71.13a13.44 13.44 0 0 1-3.45-.42zm10.71-9c-1.09-2.77-2.86-7-3.86-7.86s-1.64-.46-3.49-.46c-.71 0-5 0-5.25.8a.61.61 0 0 0 0 .29c0 1.22 1.34 4.71 2.35 7.23zM405.89 385.89l-7.1-17.81c0-.08.25-.13.67-.13a13 13 0 0 1 1.3.08 7.48 7.48 0 0 1 2.14.34l14.62 10.84-4.45-11.13c0-.08.25-.13.71-.13.88 0 3.36.21 3.45.46l6 15 1.09 2.77s-.21.13-.71.13a13.46 13.46 0 0 1-3.45-.46l-1.09-2.77-14.58-10.8 5.54 13.9s-.21.13-.71.13a13.44 13.44 0 0 1-3.43-.42zM440.21 369.22s-.17.08-.76.08h-7l6.76 16.93c0 .08-.25.13-.71.13-.88 0-3.36-.21-3.44-.46l-6.64-16.59H424a16.59 16.59 0 0 1-2.9-.25c-.42-.08-.55-.17-.55-.21s.67-.08.8-.08h15.46c1.47-.02 3.4.23 3.4.45zM459.22 369.3h-8.57c-1.6 0-3.36 0-3.61.42v.29a17 17 0 0 0 1.3 4.07 8.46 8.46 0 0 0 1.47 2.77h8.61a48.32 48.32 0 0 1 5.42.38 2.22 2.22 0 0 1 1 .29c.55.29.92 1.43 1.26 2.23a28.52 28.52 0 0 1 1.72 5c0 .76-2.1.76-3.44.76h-12.25a18.23 18.23 0 0 1-2.94-.29c-.63-.13-.76-.25.21-.25h12.73c.71 0 1.51 0 1.51-.55a29.67 29.67 0 0 0-1.72-5 8.65 8.65 0 0 0-1-2H453a35.27 35.27 0 0 1-6.26-.5 4.13 4.13 0 0 1-.84-.25c-.8-.38-1.26-1.85-1.72-2.94a16.49 16.49 0 0 1-1.3-4.07.84.84 0 0 1 0-.34c.38-.55 3.45-.59 5.21-.59h8.4a18.36 18.36 0 0 1 2.94.29c.84.2.57.28-.21.28zM492.26 385.47s-.21.08-.71.08h-6.09a68.63 68.63 0 0 1-10.5-.67 5.12 5.12 0 0 1-1.68-.55c-1.34-.84-2.81-4.7-3.86-7.35-.88-2.18-2.14-5.29-2.14-6.72a1.18 1.18 0 0 1 .13-.63c.67-.88 5.84-.88 8.86-.88h6.09a18.34 18.34 0 0 1 2.94.29c.84.17.55.25-.21.25h-6.19c-2.94 0-6.8 0-7.35.76a1 1 0 0 0-.12.55c0 1.39 1.22 4.54 2.1 6.72 1.05 2.6 2.69 6.51 3.87 7.27a2.27 2.27 0 0 0 .84.29c.25 0 2.27.13 4.5.13h6.13c.66-.01 3.39.17 3.39.46zM496.17 385.89l-7.1-17.81c0-.08.25-.13.71-.13.88 0 3.36.21 3.45.46l3.36 8.44h10.29l-3.53-8.78c0-.08.25-.13.71-.13.88 0 3.36.21 3.44.46l7.1 17.81c0 .08-.25.13-.71.13-.88 0-3.36-.21-3.44-.46l-3.36-8.44H496.8l3.53 8.78s-.21.13-.71.13a13.46 13.46 0 0 1-3.45-.46zM522.29 391.4l-2.69-10.88c0-.08.29-.08.71-.08.84 0 3.4.21 3.44.46l2.69 10.88s-.25.08-.76.08a13.38 13.38 0 0 1-3.39-.46zM42.72 427.48s-.21.13-.71.13a13.45 13.45 0 0 1-3.44-.46l-10.18-25.42c0-.08.34-.13.71-.13h9.37c2.18 0 8.44.17 9.79 1 1 .63 2 3.32 2.77 5.17a18.58 18.58 0 0 1 1.47 4.75c0 .21 0 .38-.08.46-.46.59-3.65.67-5.84.67l12.31 13.82c.08.08-.25.13-.71.13a11.18 11.18 0 0 1-3.4-.46l-12.06-13.48h-5.55zm.63-14.41c2 0 4.54 0 4.92-.46a.63.63 0 0 0 .08-.42 19.09 19.09 0 0 0-1.47-4.75c-.76-1.93-1.85-4.92-3-5.25H32.59L37 413.07zM76 409.88a5.17 5.17 0 0 1 1.89.67c1.3.92 3 5.17 4.12 8 1 2.44 2.44 6 2.44 7.48a1 1 0 0 1-.13.55c-.59 1-5.54 1-8.53 1h-1.08a48 48 0 0 1-9-.67 5.15 5.15 0 0 1-1.89-.67c-1.3-.92-3-5.17-4.12-8-1-2.44-2.44-6-2.44-7.48a1 1 0 0 1 .13-.55c.59-1 5.54-1 8.53-1a66.64 66.64 0 0 1 10.08.67zm-7.52-.08c-2.81 0-6.39 0-6.89.8a.9.9 0 0 0-.13.5c0 1.47 1.43 5 2.39 7.48 1.13 2.86 2.94 7.14 4.12 8a2.68 2.68 0 0 0 .92.38c.21 0 1.34.08 4.2.08h.17c2.81 0 6.38 0 6.89-.8a.9.9 0 0 0 .13-.5c0-1.47-1.43-5-2.39-7.48-1.13-2.86-2.94-7.14-4.12-8a2.56 2.56 0 0 0-1.05-.38c-.29 0-2.18-.08-4.07-.08zM91.21 427.14l-7.1-17.81c0-.08.25-.13.67-.13a13 13 0 0 1 1.3.08 6.84 6.84 0 0 1 2.14.38l12 11.64 2.73-12c0-.08.29-.13.67-.13s1 0 1.43.08a5.84 5.84 0 0 1 2.06.38l7.1 17.81c0 .08-.25.13-.71.13-.88 0-3.36-.21-3.44-.46l-4.41-11-1.93 8.61c0 .08-.25.08-.59.08a17.45 17.45 0 0 1-3.57-.42l-8.82-8.61 4.66 11.72s-.21.13-.71.13a13.45 13.45 0 0 1-3.48-.48zM120.86 427.14l-3.53-8.91c-1-2.52-2.56-6.34-2.56-7.69a.82.82 0 0 1 0-.34c.38-1 4.37-1 6.81-1 1.18 0 4.41.08 6.22.29 2.6.29 3.53.67 4 1 1.13.92 2.81 5.25 3.91 8l3.57 8.91c0 .08-.25.13-.71.13-.88 0-3.36-.21-3.44-.46l-3.36-8.44h-10.28l3.53 8.78s-.21.13-.71.13a13.45 13.45 0 0 1-3.45-.4zm10.71-9c-1.09-2.77-2.86-7-3.86-7.86s-1.64-.46-3.49-.46c-.71 0-5 0-5.25.8a.62.62 0 0 0 0 .29c0 1.22 1.34 4.71 2.35 7.23zM146 427.14l-7.1-17.81c0-.08.25-.13.67-.13a13 13 0 0 1 1.3.08 7.5 7.5 0 0 1 2.14.34l14.62 10.84-4.45-11.13c0-.08.25-.13.71-.13.88 0 3.36.21 3.44.46l6 15 1.09 2.77s-.21.13-.71.13a13.45 13.45 0 0 1-3.44-.46l-1.09-2.77-14.58-10.8 5.54 13.9s-.21.13-.71.13a13.45 13.45 0 0 1-3.43-.42zM171.25 427.14l-7.1-17.81c0-.08.25-.13.71-.13.88 0 3.36.21 3.44.46l7.1 17.81s-.21.13-.71.13a13.45 13.45 0 0 1-3.44-.46zM182.17 427.14l-3.53-8.91c-1-2.52-2.56-6.34-2.56-7.69a.82.82 0 0 1 0-.34c.38-1 4.37-1 6.81-1 1.18 0 4.41.08 6.22.29 2.6.29 3.53.67 4 1 1.13.92 2.81 5.25 3.91 8l3.57 8.91c0 .08-.25.13-.71.13-.88 0-3.36-.21-3.44-.46l-3.36-8.44H182.8l3.53 8.78s-.21.13-.71.13a13.45 13.45 0 0 1-3.45-.4zm10.71-9c-1.09-2.77-2.86-7-3.86-7.86s-1.64-.46-3.49-.46c-.71 0-5 0-5.25.8a.62.62 0 0 0 0 .29c0 1.22 1.34 4.71 2.35 7.23zM207.29 427.14l-7.1-17.81c0-.08.25-.13.67-.13a13 13 0 0 1 1.3.08 7.48 7.48 0 0 1 2.14.34l14.62 10.84-4.45-11.13c0-.08.25-.13.71-.13.88 0 3.36.21 3.44.46l6 15 1.09 2.77s-.21.13-.71.13a13.45 13.45 0 0 1-3.44-.46l-1.09-2.77-14.58-10.8 5.54 13.9s-.21.13-.71.13a13.45 13.45 0 0 1-3.43-.42zM233.4 432.65l-2.69-10.88c0-.08.29-.08.71-.08.84 0 3.4.21 3.44.46l2.7 10.85s-.25.08-.76.08a13.37 13.37 0 0 1-3.4-.43zM255.24 401.6h9.33a18.35 18.35 0 0 1 2.94.29c.84.17.55.25-.21.25h-9.41c-.42 0-3.91 0-4.16.63a.45.45 0 0 0 0 .25c0 1 1.22 4 2 5.92.59 1.51 1.51 3.78 2.23 4.12h10c.5 0 1.55 0 2.65.08 2.56.17 3.65.55 3.91.76.59.42 1.3 2.31 1.81 3.57 1.13 2.81 2.94 7.39 2.94 8.32s-1.85 1-3.57 1H262a18.25 18.25 0 0 1-2.94-.29c-.63-.13-.76-.25.21-.25h14.07c.8 0 1.68-.08 1.68-.84 0-.92-1.81-5.46-2.94-8.28a12.73 12.73 0 0 0-1.72-3.49h-9a38.73 38.73 0 0 1-4.83-.29 8.49 8.49 0 0 1-2.77-.59c-.84-.5-1.68-2.65-2.27-4.16-.76-1.93-2-4.83-2-5.92s3.61-1.08 5.75-1.08zM286.1 426.34l-6.51-16.21c0-.08.25-.13.71-.13.88 0 3.36.21 3.44.46l6.34 15.79h8.57c.34 0 3.44.13 3.44.46 0 .08-.29.08-.71.08h-11.83a11.29 11.29 0 0 1-3.45-.45zM316.82 409.88a5.17 5.17 0 0 1 1.89.67c1.3.92 3 5.17 4.12 8 1 2.44 2.44 6 2.44 7.48a1 1 0 0 1-.13.55c-.59 1-5.54 1-8.53 1h-1.05a48 48 0 0 1-9-.67 5.15 5.15 0 0 1-1.89-.67c-1.3-.92-3-5.17-4.12-8-1-2.44-2.44-6-2.44-7.48a1 1 0 0 1 .13-.55c.59-1 5.54-1 8.53-1a66.64 66.64 0 0 1 10.05.67zm-7.52-.08c-2.81 0-6.39 0-6.89.8a.9.9 0 0 0-.13.5c0 1.47 1.43 5 2.39 7.48 1.13 2.86 2.94 7.14 4.12 8a2.68 2.68 0 0 0 .92.38c.21 0 1.34.08 4.2.08h.17c2.81 0 6.38 0 6.89-.8a.9.9 0 0 0 .13-.5c0-1.47-1.43-5-2.39-7.48-1.13-2.86-2.94-7.14-4.12-8a2.56 2.56 0 0 0-1.05-.38c-.29 0-2.18-.08-4.07-.08zM325.73 409.67l11.6 13.33.92-13.69c0-.08.29-.13.67-.13 1.18 0 3.49.25 3.49.46l-1.22 17.81c0 .08-.21.13-.55.13a15.92 15.92 0 0 1-3.57-.46l-15.5-17.81c0-.08.21-.13.76-.13a15.14 15.14 0 0 1 3.4.49zM352.92 427.14l-3.53-8.91c-1-2.52-2.56-6.34-2.56-7.69a.82.82 0 0 1 0-.34c.38-1 4.37-1 6.81-1 1.18 0 4.41.08 6.22.29 2.6.29 3.53.67 4 1 1.13.92 2.81 5.25 3.91 8l3.57 8.91c0 .08-.25.13-.71.13-.88 0-3.36-.21-3.45-.46l-3.36-8.44h-10.27l3.53 8.78s-.21.13-.71.13a13.45 13.45 0 0 1-3.45-.4zm10.71-9c-1.09-2.77-2.86-7-3.87-7.86s-1.64-.46-3.49-.46c-.71 0-5 0-5.25.8a.62.62 0 0 0 0 .29c0 1.22 1.34 4.71 2.35 7.23zM378 427.14l-7.1-17.81c0-.08.25-.13.71-.13.88 0 3.36.21 3.44.46L378 417l6.13-7.69c0-.08.34-.08.71-.08 1.22 0 3.57.34 3.44.5l-5.42 6.76 12.52 11c.08.08-.21.13-.71.13a12.69 12.69 0 0 1-3.4-.46l-10-8.7-1.81 2.23 2.69 6.8s-.21.13-.71.13a13.44 13.44 0 0 1-3.44-.48zM400.92 432.65l-2.69-10.88c0-.08.29-.08.71-.08.84 0 3.4.21 3.45.46l2.69 10.85s-.25.08-.76.08a13.37 13.37 0 0 1-3.4-.43zM422.76 401.6h9.33a18.37 18.37 0 0 1 2.94.29c.84.17.55.25-.21.25h-9.42c-.42 0-3.91 0-4.16.63a.45.45 0 0 0 0 .25c0 1 1.22 4 2 5.92.59 1.51 1.51 3.78 2.23 4.12h10c.5 0 1.55 0 2.65.08 2.56.17 3.65.55 3.91.76.59.42 1.3 2.31 1.81 3.57 1.13 2.81 2.94 7.39 2.94 8.32s-1.85 1-3.57 1h-13.65a18.24 18.24 0 0 1-2.94-.29c-.63-.13-.76-.25.21-.25h14.07c.8 0 1.68-.08 1.68-.84 0-.92-1.81-5.46-2.94-8.28a12.71 12.71 0 0 0-1.72-3.49h-9a38.72 38.72 0 0 1-4.83-.29 8.49 8.49 0 0 1-2.77-.59c-.84-.5-1.68-2.65-2.27-4.16-.76-1.93-2-4.83-2-5.92s3.56-1.08 5.71-1.08zM453.62 426.34l-6.51-16.21c0-.08.25-.13.71-.13.88 0 3.36.21 3.44.46l6.34 15.79h8.57c.34 0 3.44.13 3.44.46 0 .08-.29.08-.71.08h-11.83a11.29 11.29 0 0 1-3.45-.45zM484.34 409.88a5.17 5.17 0 0 1 1.89.67c1.3.92 3 5.17 4.12 8 1 2.44 2.44 6 2.44 7.48a1 1 0 0 1-.13.55c-.59 1-5.54 1-8.53 1h-1.05a48 48 0 0 1-9-.67 5.15 5.15 0 0 1-1.89-.67c-1.3-.92-3-5.17-4.12-8-1-2.44-2.44-6-2.44-7.48a1 1 0 0 1 .13-.55c.59-1 5.54-1 8.53-1a66.65 66.65 0 0 1 10.05.67zm-7.52-.08c-2.81 0-6.39 0-6.89.8a.9.9 0 0 0-.12.5c0 1.47 1.43 5 2.39 7.48 1.13 2.86 2.94 7.14 4.12 8a2.68 2.68 0 0 0 .92.38c.21 0 1.34.08 4.2.08h.17c2.81 0 6.38 0 6.89-.8a.9.9 0 0 0 .13-.5c0-1.47-1.43-5-2.39-7.48-1.13-2.86-2.94-7.14-4.12-8a2.56 2.56 0 0 0-1-.38c-.29 0-2.18-.08-4.08-.08zM493.25 409.67l11.6 13.33.92-13.69c0-.08.29-.13.67-.13 1.18 0 3.49.25 3.49.46l-1.22 17.81c0 .08-.21.13-.55.13a15.93 15.93 0 0 1-3.57-.46l-15.5-17.81c0-.08.21-.13.76-.13a15.15 15.15 0 0 1 3.4.49zM520.19 426.34l-6.51-16.21c0-.08.34-.13.71-.13H528a18.22 18.22 0 0 1 2.94.29c.63.13.76.25-.21.25h-12.85l3 7.56h7.77a18.24 18.24 0 0 1 2.94.29c.63.13.76.29-.21.29h-10.27l3.07 7.56h10.29c.34 0 3.4.13 3.4.46 0 .08-.29.08-.71.08h-13.53a11.29 11.29 0 0 1-3.44-.44zM542.28 427.14l-7.1-17.81c0-.08.25-.13.67-.13a13 13 0 0 1 1.3.08 7.48 7.48 0 0 1 2.14.34l14.62 10.84-4.45-11.13c0-.08.25-.13.71-.13.88 0 3.36.21 3.45.46l6 15 1.09 2.77s-.21.13-.71.13a13.46 13.46 0 0 1-3.45-.46l-1.09-2.77-14.58-10.8 5.54 13.9s-.21.13-.71.13a13.44 13.44 0 0 1-3.43-.42zM567.55 427.14l-7.1-17.81c0-.08.25-.13.71-.13.88 0 3.36.21 3.44.46l7.1 17.81s-.21.13-.71.13a13.44 13.44 0 0 1-3.44-.46zM578.47 427.14l-3.53-8.91c-1-2.52-2.56-6.34-2.56-7.69a.82.82 0 0 1 0-.34c.38-1 4.37-1 6.81-1 1.18 0 4.41.08 6.22.29 2.6.29 3.53.67 4 1 1.13.92 2.81 5.25 3.91 8l3.57 8.91c0 .08-.25.13-.71.13-.88 0-3.36-.21-3.45-.46l-3.36-8.44H579.1l3.53 8.78s-.21.13-.71.13a13.44 13.44 0 0 1-3.45-.4zm10.71-9c-1.09-2.77-2.86-7-3.86-7.86s-1.64-.46-3.49-.46c-.71 0-5 0-5.25.8a.61.61 0 0 0 0 .29c0 1.22 1.34 4.71 2.35 7.23zM603.59 427.14l-7.1-17.81c0-.08.25-.13.67-.13a13 13 0 0 1 1.3.08 7.5 7.5 0 0 1 2.14.34l14.62 10.84-4.45-11.13c0-.08.25-.13.71-.13.88 0 3.36.21 3.44.46l6 15 1.09 2.77s-.21.13-.71.13a13.45 13.45 0 0 1-3.44-.46l-1.09-2.77-14.58-10.8 5.54 13.9s-.21.13-.71.13a13.45 13.45 0 0 1-3.43-.42zM629.7 432.65l-2.7-10.88c0-.08.29-.08.71-.08.84 0 3.4.21 3.44.46l2.71 10.85s-.25.08-.76.08a13.36 13.36 0 0 1-3.4-.43zM34.06 442.85h9.33a18.36 18.36 0 0 1 2.94.29c.84.17.55.25-.21.25h-9.41c-.42 0-3.91 0-4.16.63a.45.45 0 0 0 0 .25c0 1 1.22 4 2 5.92.59 1.51 1.51 3.78 2.23 4.12h10c.5 0 1.55 0 2.65.08 2.56.17 3.65.55 3.91.76.59.42 1.3 2.31 1.81 3.57 1.13 2.81 2.94 7.39 2.94 8.32s-1.85 1-3.57 1H40.87a18.25 18.25 0 0 1-2.94-.29c-.63-.13-.76-.25.21-.25h14.07c.8 0 1.68-.08 1.68-.84 0-.92-1.81-5.46-2.94-8.28a12.73 12.73 0 0 0-1.72-3.49h-9a38.73 38.73 0 0 1-4.83-.29 8.49 8.49 0 0 1-2.77-.59c-.84-.5-1.68-2.65-2.27-4.16-.76-1.93-2-4.83-2-5.92s3.56-1.08 5.7-1.08zM69.38 468.73s-.21.13-.71.13a13.45 13.45 0 0 1-3.44-.46l-6.81-17c0-.08.34-.13.71-.13H67c2.06 0 7.39 0 8.91.8.88.46 1.55 2.35 2.1 3.7A12.16 12.16 0 0 1 79 459a.67.67 0 0 1-.17.46c-.5.46-3.74.5-5.59.5h-7.39zm.92-9.37c1.81 0 4.12 0 4.45-.29.08-.08.08-.21.08-.38a13.05 13.05 0 0 0-1-3.28c-.5-1.3-1.3-3.15-2-3.57h-9.21l3 7.56zM87.91 468.39l-3.53-8.91c-1-2.52-2.56-6.34-2.56-7.69a.82.82 0 0 1 0-.34c.38-1 4.37-1 6.81-1 1.18 0 4.41.08 6.22.29 2.6.29 3.53.67 4 1 1.13.92 2.81 5.25 3.91 8l3.57 8.91c0 .08-.25.13-.71.13-.88 0-3.36-.21-3.44-.46l-3.36-8.44H88.54l3.53 8.78s-.21.13-.71.13a13.45 13.45 0 0 1-3.45-.4zm10.71-9c-1.09-2.77-2.86-7-3.86-7.86s-1.64-.46-3.49-.46c-.71 0-5 0-5.25.8a.62.62 0 0 0 0 .29c0 1.22 1.34 4.71 2.35 7.23zM113 468.39l-7.1-17.81c0-.08.25-.13.67-.13a13 13 0 0 1 1.3.08 7.48 7.48 0 0 1 2.14.34l14.62 10.84-4.45-11.13c0-.08.25-.13.71-.13.88 0 3.36.21 3.44.46l6 15 1.09 2.77s-.21.13-.71.13a13.45 13.45 0 0 1-3.44-.46l-1.09-2.77-14.58-10.8 5.54 13.9s-.21.13-.71.13a13.45 13.45 0 0 1-3.43-.42zM138.3 468.39l-7.1-17.81c0-.08.25-.13.71-.13.88 0 3.36.21 3.44.46l7.1 17.81s-.21.13-.71.13a13.45 13.45 0 0 1-3.44-.46zM158.41 451.8h-8.57c-1.6 0-3.36 0-3.61.42v.29a17 17 0 0 0 1.3 4.07 8.47 8.47 0 0 0 1.47 2.77h8.61a48.34 48.34 0 0 1 5.42.38 2.22 2.22 0 0 1 1 .29c.55.29.92 1.43 1.26 2.23a28.53 28.53 0 0 1 1.72 5c0 .76-2.1.76-3.44.76h-12.26a18.24 18.24 0 0 1-2.94-.29c-.63-.13-.76-.25.21-.25h12.73c.71 0 1.51 0 1.51-.55a29.71 29.71 0 0 0-1.72-5 8.65 8.65 0 0 0-1-2h-7.94a35.27 35.27 0 0 1-6.26-.5 4.13 4.13 0 0 1-.84-.25c-.8-.38-1.26-1.85-1.72-2.94a16.49 16.49 0 0 1-1.3-4.07.82.82 0 0 1 0-.34c.38-.55 3.44-.59 5.21-.59h8.4a18.36 18.36 0 0 1 2.94.29c.87.2.57.28-.18.28zM173.11 468.39L166 450.58c0-.08.25-.13.71-.13.88 0 3.36.21 3.44.46l3.36 8.44h10.29l-3.53-8.78c0-.08.25-.13.71-.13.88 0 3.36.21 3.44.46l7.1 17.81c0 .08-.25.13-.71.13-.88 0-3.36-.21-3.44-.46l-3.37-8.43h-10.26l3.53 8.78s-.21.13-.71.13a13.45 13.45 0 0 1-3.45-.47zM199.22 473.9l-2.69-10.9c0-.08.29-.08.71-.08.84 0 3.4.21 3.44.46l2.69 10.88s-.25.08-.76.08a13.37 13.37 0 0 1-3.39-.44zM221.06 442.85h9.33a18.36 18.36 0 0 1 2.94.29c.84.17.55.25-.21.25h-9.41c-.42 0-3.91 0-4.16.63a.45.45 0 0 0 0 .25c0 1 1.22 4 2 5.92.59 1.51 1.51 3.78 2.23 4.12h10c.5 0 1.55 0 2.65.08 2.56.17 3.65.55 3.91.76.59.42 1.3 2.31 1.81 3.57 1.13 2.81 2.94 7.39 2.94 8.32s-1.85 1-3.57 1h-13.66a18.25 18.25 0 0 1-2.94-.29c-.63-.13-.76-.25.21-.25h14.07c.8 0 1.68-.08 1.68-.84 0-.92-1.81-5.46-2.94-8.28a12.73 12.73 0 0 0-1.72-3.49h-9a38.73 38.73 0 0 1-4.83-.29 8.49 8.49 0 0 1-2.77-.59c-.84-.5-1.68-2.65-2.27-4.16-.76-1.93-2-4.83-2-5.92s3.57-1.08 5.71-1.08zM246 450.92l10.46 12.81.13-10.38c0-.08.25-.08.63-.08h.13a11.18 11.18 0 0 1 3.4.46l8.15 10 .21-13.15c0-.08.25-.13.63-.13a12.51 12.51 0 0 1 3.53.46l-.25 17.81c0 .08-.25.13-.59.13a15.91 15.91 0 0 1-3.57-.46l-8.15-10-.17 10.33c0 .08-.25.13-.59.13a15.92 15.92 0 0 1-3.57-.46l-14.53-17.81c0-.08.21-.13.76-.13a15.14 15.14 0 0 1 3.39.47zM283.84 467.59l-6.51-16.21c0-.08.34-.13.71-.13h13.57a18.24 18.24 0 0 1 2.94.29c.63.13.76.25-.21.25h-12.81l3 7.56h7.77a18.24 18.24 0 0 1 2.94.29c.63.13.76.29-.21.29h-10.26l3.07 7.56h10.29c.34 0 3.4.13 3.4.46 0 .08-.29.08-.71.08h-13.53a11.29 11.29 0 0 1-3.45-.44zM305.48 467.59L299 451.38c0-.08.34-.13.71-.13H305c2.9 0 10.33 0 12.18 1.22 1.34.88 2.81 4.75 3.86 7.35.88 2.23 2.14 5.29 2.14 6.72a1.28 1.28 0 0 1-.13.63c-.67.88-5.92.88-8.86.88h-5.29a11.29 11.29 0 0 1-3.42-.46zm6.38-.08c2.81 0 6.51 0 7.06-.76a1 1 0 0 0 .13-.54c0-1.39-1.22-4.5-2.1-6.72-1.05-2.6-2.69-6.51-3.86-7.27a2.73 2.73 0 0 0-.84-.29c-.25 0-2.23-.13-4.5-.13h-4.58l6.3 15.71zM330.31 468.39l-7.1-17.81c0-.08.25-.13.71-.13.88 0 3.36.21 3.44.46l7.1 17.81s-.21.13-.71.13a13.45 13.45 0 0 1-3.44-.46zM350.42 451.8h-8.57c-1.6 0-3.36 0-3.61.42v.29a17 17 0 0 0 1.3 4.07 8.47 8.47 0 0 0 1.47 2.77h8.61a48.32 48.32 0 0 1 5.42.38 2.22 2.22 0 0 1 1 .29c.55.29.92 1.43 1.26 2.23a28.52 28.52 0 0 1 1.72 5c0 .76-2.1.76-3.44.76h-12.26a18.24 18.24 0 0 1-2.94-.29c-.63-.13-.76-.25.21-.25h12.73c.71 0 1.51 0 1.51-.55a29.67 29.67 0 0 0-1.72-5 8.65 8.65 0 0 0-1-2h-7.94a35.27 35.27 0 0 1-6.26-.5 4.13 4.13 0 0 1-.84-.25c-.8-.38-1.26-1.85-1.72-2.94a16.49 16.49 0 0 1-1.3-4.07.82.82 0 0 1 0-.34c.38-.55 3.44-.59 5.21-.59h8.4a18.36 18.36 0 0 1 2.94.29c.87.2.57.28-.18.28zM365.12 468.39L358 450.58c0-.08.25-.13.71-.13.88 0 3.36.21 3.45.46l3.36 8.44h10.29l-3.53-8.78c0-.08.25-.13.71-.13.88 0 3.36.21 3.44.46l7.1 17.81c0 .08-.25.13-.71.13-.88 0-3.36-.21-3.45-.46l-3.37-8.43h-10.25l3.53 8.78s-.21.13-.71.13a13.45 13.45 0 0 1-3.45-.47zM406.28 468.39l-3.53-8.91c-1-2.52-2.56-6.34-2.56-7.69a.8.8 0 0 1 0-.34c.38-1 4.37-1 6.8-1 1.18 0 4.41.08 6.22.29 2.61.29 3.53.67 4 1 1.13.92 2.81 5.25 3.91 8l3.57 8.91c0 .08-.25.13-.71.13-.88 0-3.36-.21-3.44-.46l-3.36-8.44h-10.27l3.53 8.78s-.21.13-.71.13a13.45 13.45 0 0 1-3.45-.4zm10.71-9c-1.09-2.77-2.86-7-3.86-7.86s-1.64-.46-3.49-.46c-.71 0-5 0-5.25.8a.62.62 0 0 0 0 .29c0 1.22 1.34 4.71 2.35 7.23zM431.39 468.39l-7.1-17.81c0-.08.25-.13.67-.13a13 13 0 0 1 1.3.08 7.49 7.49 0 0 1 2.14.34l14.6 10.84-4.45-11.13c0-.08.25-.13.71-.13.88 0 3.36.21 3.44.46l6 15 1.09 2.77s-.21.13-.71.13a13.44 13.44 0 0 1-3.44-.46l-1.09-2.77L430 454.82l5.54 13.9s-.21.13-.71.13a13.46 13.46 0 0 1-3.44-.46zM456.24 467.59l-6.51-16.21c0-.08.34-.13.71-.13h5.33c2.9 0 10.33 0 12.18 1.22 1.34.88 2.81 4.75 3.86 7.35.88 2.23 2.14 5.29 2.14 6.72a1.28 1.28 0 0 1-.12.63c-.67.88-5.92.88-8.86.88h-5.29a11.29 11.29 0 0 1-3.44-.46zm6.38-.08c2.81 0 6.51 0 7.06-.76a1 1 0 0 0 .13-.54c0-1.39-1.22-4.5-2.1-6.72-1-2.6-2.69-6.51-3.86-7.27a2.73 2.73 0 0 0-.84-.29c-.25 0-2.23-.13-4.5-.13h-4.58l6.3 15.71zM505.76 443.31s-.17.08-.76.08h-8.07l10.12 25.33c0 .08-.25.13-.71.13-.88 0-3.36-.21-3.45-.46l-10-25h-5.59a16.59 16.59 0 0 1-2.9-.25c-.42-.08-.55-.17-.55-.21s.67-.08.8-.08h17.64c1.54 0 3.47.21 3.47.46zM530.43 467.17c0-1.3-1.51-5.17-2.52-7.69l-3.57-8.91c0-.08.25-.13.71-.13.88 0 3.36.21 3.44.46l3.53 8.91c1 2.52 2.56 6.3 2.56 7.69a.8.8 0 0 1 0 .34c-.38.92-4.29 1-6.8 1h-1.05c-2.1 0-7.73-.17-9.16-1.34-1.09-.92-2.77-5.21-3.91-8l-3.57-8.91s.21-.13.71-.13a13.45 13.45 0 0 1 3.44.46l3.53 8.91c1.13 2.77 2.9 7.14 3.91 8 .84.71 1.68.46 3.4.46h.34c2.2-.02 5.01.1 5.01-1.12zM546.41 468.73s-.21.13-.71.13a13.45 13.45 0 0 1-3.44-.46l-6.81-17c0-.08.34-.13.71-.13h7.9c2.06 0 7.39 0 8.91.8.88.46 1.55 2.35 2.1 3.7a12.15 12.15 0 0 1 1 3.23.67.67 0 0 1-.17.46c-.46.42-3.15.5-5 .5l9.37 8.78c.08.08-.25.13-.71.13a12.69 12.69 0 0 1-3.4-.46l-9-8.44h-4.2zm.92-9.37c1.81 0 4.12 0 4.45-.29.08-.08.08-.21.08-.38a13.05 13.05 0 0 0-1-3.28c-.5-1.3-1.3-3.15-2-3.57h-9.28l3 7.56zM565.87 468.39l-7.1-17.81c0-.08.25-.13.71-.13.88 0 3.36.21 3.44.46l2.9 7.31 6.13-7.69c0-.08.34-.08.71-.08 1.22 0 3.57.34 3.45.5l-5.42 6.76 12.52 11c.08.08-.21.13-.71.13a12.69 12.69 0 0 1-3.4-.46l-10-8.7-1.81 2.23 2.69 6.8s-.21.13-.71.13a13.45 13.45 0 0 1-3.4-.45zM587.35 468.39l-7.1-17.81c0-.08.25-.13.71-.13.88 0 3.36.21 3.44.46l7.1 17.81s-.21.13-.71.13a13.45 13.45 0 0 1-3.44-.46zM607.46 451.8h-8.57c-1.6 0-3.36 0-3.61.42v.29a17 17 0 0 0 1.3 4.07 8.49 8.49 0 0 0 1.47 2.77h8.61a48.35 48.35 0 0 1 5.42.38 2.21 2.21 0 0 1 1 .29c.55.29.92 1.43 1.26 2.23a28.52 28.52 0 0 1 1.72 5c0 .76-2.1.76-3.44.76h-12.26a18.26 18.26 0 0 1-2.94-.29c-.63-.13-.76-.25.21-.25h12.73c.71 0 1.51 0 1.51-.55a29.76 29.76 0 0 0-1.72-5 8.65 8.65 0 0 0-1-2h-7.95a35.29 35.29 0 0 1-6.26-.5 4.15 4.15 0 0 1-.84-.25c-.8-.38-1.26-1.85-1.72-2.94a16.53 16.53 0 0 1-1.3-4.07.82.82 0 0 1 0-.34c.38-.55 3.45-.59 5.21-.59h8.4a18.34 18.34 0 0 1 2.94.29c.88.2.58.28-.17.28zM622.16 468.39l-7.1-17.81c0-.08.25-.13.71-.13.88 0 3.36.21 3.45.46l3.36 8.44h10.29l-3.53-8.78c0-.08.25-.13.71-.13.88 0 3.36.21 3.44.46l7.1 17.81c0 .08-.25.13-.71.13-.88 0-3.36-.21-3.44-.46l-3.36-8.44h-10.29l3.53 8.78s-.21.13-.71.13a13.46 13.46 0 0 1-3.45-.46zM646.93 468.52c-1-.21-1.89-.84-1.89-1.3s.5-.63 1.68-.63a19 19 0 0 1 3.15.34c1 .21 1.85.84 1.85 1.3s-.46.63-1.64.63a19 19 0 0 1-3.15-.34z"/></g></svg>