<svg data-name="Ebene 1" xmlns="http://www.w3.org/2000/svg" viewBox="0 0 700 150"><path fill="#d7ffff" d="M0 0h700v150H0z"/><path d="M26 99.45V77c0-7.81.08-16.63 3.86-22.18 3.44-5 9.83-5.71 15.46-5.71 6 0 12.26.92 15.54 5.71 3.77 5.48 3.85 13.97 3.85 21.18v23.45c0 .34-.42.42-.5.42a.44.44 0 0 1-.42-.42v-22H26.91v22a.46.46 0 0 1-.5.42.38.38 0 0 1-.41-.42zM63.79 76.6c0-7.39 0-16-3.7-21.42-3-4.37-8.9-5.29-14.78-5.29-5.54 0-11.59.76-14.7 5.29-3.61 5.21-3.7 13.69-3.7 21.42zM88 99.45V80.8c0-5.37 0-11.34 3.28-15.12s8.74-3.95 13.27-3.95c4.87 0 10.08.34 13.19 3.95s3.36 9.24 3.36 14.2l-.08.92v18.65a.44.44 0 0 1-.42.42c-.08 0-.5-.08-.5-.42V81.22H89v18.23a.46.46 0 0 1-.5.42.38.38 0 0 1-.5-.42zm32.09-19.07c0-5 0-10.75-3.11-14.28-2.86-3.28-7.56-3.61-12.43-3.61-4.54 0-9.58.17-12.52 3.61S89 75.09 89 80.38zM167.86 76.85c3.95.25 7.81.76 10.58 2 3.7 1.6 5.29 5.54 5.29 9.24 0 3.86-1.34 7.56-4.62 9.24-4.37 2.18-11.17 2.35-16.8 2.35h-17.55a.38.38 0 0 1-.42-.42V49.72a.45.45 0 0 1 .42-.42h13.1c5.63 0 12 .08 16 2.86 3.61 2.52 4.12 7.14 4.12 11.17 0 4.28-.67 8.82-4.12 11.26a15.67 15.67 0 0 1-6 2.26zm-9.74-.25c5.29 0 11.42 0 15.2-2.6 3.11-2.1 3.78-6.38 3.78-10.67 0-4-.59-8.32-3.78-10.58-3.7-2.52-9.83-2.6-15.46-2.6h-12.6V76.6zm-12.85.84v21.42h16.13c5.8 0 12.94.08 17.22-2.1 2.86-1.43 4.2-5 4.2-8.65 0-3.53-1.51-7.06-4.79-8.48-4.79-2.1-13.1-2.18-20.16-2.18zM204 62.32a.45.45 0 0 1 .42-.42h11.34c4.79 0 10.33 0 13.78 1.93 2.86 1.6 3.61 4.87 3.61 7.73 0 3.11-.92 6.3-3.61 7.73a13 13 0 0 1-4.2 1.34 27.31 27.31 0 0 1 8.15 1.68c3.19 1.34 4.62 4.62 4.62 7.73 0 3.28-1.26 6.38-4 7.73-3.78 1.85-9.58 1.93-14.36 1.93h-15.34a.38.38 0 0 1-.42-.42zm11.93 18.06c4.45 0 9.83 0 13.1-1.76 2.18-1.18 3.19-4 3.19-7.06 0-2.77-.76-5.71-3.19-7.06-3.11-1.68-8.48-1.76-13.27-1.76h-10.85v17.64zm-11 .84v17.64h13.86c5 0 11.17 0 14.87-1.76 2.35-1.18 3.53-3.95 3.53-7.06 0-2.94-1.34-5.88-4.12-7.06-3.86-1.68-10.33-1.76-16.21-1.76zM294.7 50.14h-14.62c-7.06 0-14.11.34-18.31 5.29-4.62 5.38-4.62 14-4.62 21.59 0 6.64.08 13.36 4.54 17.56s11.68 4.28 18.14 4.28h14.87a.42.42 0 1 1 0 .84h-15.37c-6.3 0-13.61-.17-18.31-4.62s-4.79-11.51-4.79-18.08v-.92c0-7.31.08-15.71 4.79-21.17 4.54-5.29 12-5.63 19.07-5.63h14.61a.42.42 0 0 1 0 .84zM345.87 62.74h-12.18c-6.22 0-12.6.08-16.55 3.53S313 75.51 313 80.8c0 5.54.34 11.17 4.12 14.53 4 3.53 10.5 3.53 16.3 3.53h12.43a.42.42 0 1 1 0 .84h-13.1c-5.63 0-12-.17-16.3-3.86-4.12-3.61-4.37-9.49-4.37-15 0-5.21.08-11.26 4.37-15s11.09-3.86 17.22-3.86h12.18a.42.42 0 1 1 0 .84zM368.43 49.72a.45.45 0 0 1 .42-.42h14.36c7.06 0 14.62.34 19.15 5.63 4.7 5.46 4.79 13.86 4.79 21.17v.9c0 6.55-.08 13.52-4.79 18.06s-12 4.62-18.31 4.62h-15.2a.39.39 0 0 1-.42-.42zm15.12 49.14c6.47 0 13.61 0 18.14-4.28s4.54-10.92 4.54-17.56c0-7.56 0-16.21-4.62-21.59-4.2-5-11.34-5.29-18.4-5.29h-13.86v48.72zM428.43 62.32a.45.45 0 0 1 .42-.42h12c6.13 0 12.94.08 17.22 3.86s4.37 9.83 4.37 15c0 5.54-.25 11.42-4.37 15-4.28 3.7-10.67 3.86-16.3 3.86h-12.92a.39.39 0 0 1-.42-.42zm12.68 36.54c5.8 0 12.26 0 16.3-3.53 3.78-3.36 4.12-9 4.12-14.53 0-5.29-.17-11.09-4.12-14.53s-10.33-3.53-16.55-3.53h-11.51v36.12zM518 99.7h-34.26a.39.39 0 0 1-.42-.42V49.72a.45.45 0 0 1 .42-.42H518a.42.42 0 0 1 0 .84h-33.76V76.6H513a.42.42 0 1 1 0 .84h-28.76v21.42H518a.42.42 0 1 1 0 .84zM570 99.7h-29a.39.39 0 0 1-.42-.42v-37a.45.45 0 0 1 .42-.42h29a.42.42 0 1 1 0 .84h-28.51v17.68h23.44a.42.42 0 1 1 0 .84h-23.44v17.64H570a.42.42 0 1 1 0 .84zM592.52 99.45V49.72a.45.45 0 0 1 .42-.42h34.27a.42.42 0 0 1 0 .84h-33.77V76.6h28.73a.42.42 0 0 1 0 .84h-28.73v22a.46.46 0 0 1-.5.42.38.38 0 0 1-.42-.41zM647 99.45V62.32a.45.45 0 0 1 .42-.42h29a.42.42 0 1 1 0 .84h-28.51v17.64h23.44a.42.42 0 0 1 0 .84h-23.44v18.23a.46.46 0 0 1-.5.42.38.38 0 0 1-.41-.42z"/></svg>