<svg data-name="Ebene 1" xmlns="http://www.w3.org/2000/svg" viewBox="0 0 700 150"><path fill="#d7ffff" d="M0 0h700v150H0z"/><path d="M25.53 97.93l1.93-21.76c.67-7.31 1.26-15.88 6-21.76C37.79 49 45 48.29 50.48 48.29h.17c6.13 0 13.52 1.09 17.39 7s4.12 14.45 4.12 21.67v23a2.69 2.69 0 0 1-5.38 0V82.14l-34.1-3.19-1.78 19.4a2.67 2.67 0 0 1-2.69 2.27 2.58 2.58 0 0 1-2.68-2.69zm41.24-20.74c-.08-7.22-.5-15-3.36-19.32-2.27-3.44-7-4.62-12.77-4.62l-.17.08c-5.29 0-10.08.76-12.68 4-2.94 3.7-4 10.08-4.7 16.63zM90.27 82.9c0-5.46-.08-12.1 4.28-16.8 4.54-5 11.34-5 16.21-5.21h1.09c3.78 0 8.06.84 10.5 4.45 3.11 4.54 3.36 11 3.44 15.79l.76 15.46a2.66 2.66 0 0 1-5.29.17l-.67-13-24.95 1.49-.08 10.67a2.69 2.69 0 0 1-5.38 0zm30-4.12c-.25-4.2-.84-8.48-2.44-10.75-1-1.43-3-2.18-6-2.18-5.46 0-10.5.59-13.19 3.53-2.27 2.44-2.86 6.3-3 10.84zM144.19 99.61l2.1-45.95a2.63 2.63 0 0 1 2.77-2.35h.25l11.84 1.34c5 .59 11 1.09 15.29 4.28 3.95 2.94 4.54 7.64 4.54 11.17a10.25 10.25 0 0 1-2.86 7.14c5.8 1.43 8.23 6 8.23 11.34 0 3.44-.92 7.14-4.2 9.49-4.45 3.19-10.84 3.61-15.54 4.12l-19.32 2h-.5a2.51 2.51 0 0 1-2.6-2.58zm6.22-18.73l-.67 16 16.21-1.68c4.87-.5 10.33-1.26 12.94-3.11 1.26-.92 2.1-2.94 2.1-5.63 0-3.11-1.26-5.54-3.36-6.22a24.08 24.08 0 0 0-7.14-.84c-3.28 0-7.06.25-10.5.59zm22.93-8.32a4.89 4.89 0 0 0 2.27-4.45c0-3.19-.76-6-2.52-7.31-2.52-1.85-7.48-2.6-12.6-3.19l-8.9-1-.92 19.32 8.82-.84c4.95-.42 10.91-1.01 13.85-2.52zM202.8 97.93l.25-34.27a2.65 2.65 0 0 1 1.95-2.43l12-3.11a28.09 28.09 0 0 1 7.06-1.18 8.89 8.89 0 0 1 6.72 2.6c2.6 2.77 3.11 6.8 3.11 10.42 0 1.68-.08 3.36-.17 4.79-.08 3.28 0 8.06-3.44 10.92a10.27 10.27 0 0 1-6.3 2c-3.78 0-7.64-1.51-10.33-2.44 2.69.92 6.55 2.44 10.33 2.44a10.27 10.27 0 0 0 6.3-2l.84.25c.76.25 5.54.5 5.54 4.28 0 2.94-1.09 6.13-4.2 7.81-3.95 2.1-9.07 2-12.85 2.1l-14 .34h-.08a2.47 2.47 0 0 1-2.73-2.52zm5.46-14.45l-.08 11.93 11.34-.25c3.86-.08 8.32-.34 10.33-1.43a3 3 0 0 0 1.34-2.35c-4.79-1.93-11.09-3.95-17.56-6.13zm16.13-.84a3.48 3.48 0 0 0 1.76-.34c1.76-.92 2.27-5.8 2.27-10.42 0-3.95-.34-7.64-1.68-9.07a3.69 3.69 0 0 0-2.69-.84 25.56 25.56 0 0 0-5.63.92l-10.08 2.6v12.7l7.14 2.44c3.28 1.09 6.72 2.02 8.91 2.02zM296 51.65a2.59 2.59 0 0 1-2.1 2.35l-17.47 3.78c-6.72 1.43-12.6 2.86-16.46 6.72s-4.7 10.33-4.7 17.13c0 5 .92 8.9 3.78 10.84s7.81 2.52 13 2.52c2.6 0 5.38-.08 8-.25l11.43-.74h.17a2.57 2.57 0 0 1 2.69 2.52 2.45 2.45 0 0 1-2.52 2.44l-11.42.67c-2.77.17-6 .42-9.16.42-5.46 0-11.09-.67-15.37-3.53-5-3.36-6-9.16-6-14.45 0-1.26 0-2.44.08-3.61.34-5.63 1.09-12.35 6-17.3 5.21-5.29 12.68-6.8 19.24-8.23l17.47-3.7c.17 0 .34-.08.5-.08a2.68 2.68 0 0 1 2.84 2.5zM308 79.29c0-5.29.17-12.1 5.46-16.38 3.36-2.77 7.64-3.44 11.84-3.44 2.77 0 5.54.25 8.06.5l12 1.26a2.62 2.62 0 0 1 2.44 2.44 2.68 2.68 0 0 1-2.77 2.52h-.25l-12-1.26c-2.52-.25-5-.42-7.22-.42-3.61 0-6.55.5-8.57 2.1-3.36 2.77-3.61 8.48-3.61 14.53 0 5.29.42 9.49 3 11.68 2 1.68 5.21 2.1 8.82 2.1 1.6 0 3.28-.08 5-.17l16.38-1.09h.25a2.49 2.49 0 0 1 2.6 2.52 2.45 2.45 0 0 1-2.52 2.44l-16.38 1c-1.76.08-3.78.34-5.88.34-4 0-8.48-.59-11.84-3.44C308.3 92.72 308 87 308 82.14zM364.39 53.08a2.54 2.54 0 0 1 2.44-2.44l14.45-1.09c1.85-.17 3.86-.25 5.88-.25 5.54 0 11.26.92 15.12 5.71s4.54 11.26 4.54 17.47c0 2.6-.08 5.21-.17 7.56-.34 7.73-.42 17.72-6.55 22.93a13.41 13.41 0 0 1-8.82 3c-4.62 0-9.41-1.68-13-2.86L365.66 99a2.53 2.53 0 0 1-1.76-2.35zM380 98.44c4.2 1.34 8.23 2.44 11.42 2.44a7.66 7.66 0 0 0 5-1.51c4.45-3.7 4.87-16.13 4.87-25.62 0-6.22-.59-12.26-3.36-15.71-2.35-2.94-6.3-3.78-11.09-3.78-1.68 0-3.36.08-5.21.25l-11.93.92-.5 39.48zM422 65.26v-.42c0-1.76 1.68-2.27 3-2.27h.17l13.94 2.35C448.8 66.6 463.5 68.2 463.5 79c0 4.2-4.37 6.22-6 7.31-5.12 3.19-13 7-19.4 10.08l-7.45 3.61a2.37 2.37 0 0 1-1.26.34A2.78 2.78 0 0 1 427 99c-.34-.59-.25-.84-.25-.84zm13.52 26.79c6.3-3.11 14.2-6.89 18.9-9.83 2.35-1.51 3.7-2.86 3.7-3.19a5.61 5.61 0 0 0-3-4.87c-3.7-1.93-10.67-3.28-17-4.37L427.8 68l3.78 26zM515.06 99.78l-33.68-1a2.63 2.63 0 0 1-2.6-2.35l-1.93-45.86a2.5 2.5 0 0 1 2.67-2.57h.17l37.13 1.76a2.48 2.48 0 1 1-.08 5h-.17l-34.27-1.68 1 23.27 24.95-4.7h.67a2.54 2.54 0 0 1 2.6 2.52 2.4 2.4 0 0 1-2.18 2.35l-25.79 4.87.5 12.52 31.16.92a2.52 2.52 0 0 1 2.6 2.44 2.6 2.6 0 0 1-2.69 2.52zM568.75 99.53L535.9 101h-.17a2.43 2.43 0 0 1-2.6-2.52l.76-19.4V79l.59-14.28a2.62 2.62 0 0 1 2.77-2.35h.17l30.91 2.44a2.36 2.36 0 0 1 2.44 2.35 2.63 2.63 0 0 1-2.69 2.6c-.08 0-.17-.08-.25-.08l-28.06-2.18-.42 9.32 20.83 1.68a2.42 2.42 0 0 1 2.44 2.5 2.57 2.57 0 0 1-2.69 2.52h-.25l-20.5-1.68-.59 14.16 29.82-1.43h.17a2.53 2.53 0 0 1 2.69 2.43 2.71 2.71 0 0 1-2.52 2.53zM585.92 99.45l1-46.2a2.63 2.63 0 0 1 2.69-2.44l35 .25a2.38 2.38 0 0 1 2.6 2.44 2.52 2.52 0 0 1-2.65 2.5l-32.34-.17-.34 17.3 29 4a2.36 2.36 0 0 1 2.27 2.35 2.56 2.56 0 0 1-2.6 2.6c-.17 0-.34-.08-.5-.08l-28.31-3.95-.42 21.42a2.7 2.7 0 0 1-5.38-.08zM640.64 96.84l.59-15.84v-.08L641.9 62a2.64 2.64 0 0 1 2.77-2.44h.17L674 61.9a2.42 2.42 0 0 1 2.44 2.44 2.49 2.49 0 0 1-2.6 2.52h-.25l-26.37-2.1-.5 13.52 19.4-1.09c.08 0 .17-.08.25-.08a2.52 2.52 0 1 1 .08 5l-19.91 1.18-.61 13.71a2.53 2.53 0 0 1-2.6 2.44 2.62 2.62 0 0 1-2.69-2.6z"/></svg>