<svg data-name="Ebene 1" xmlns="http://www.w3.org/2000/svg" viewBox="0 0 700 150"><path fill="#d7ffff" d="M0 0h700v150H0z"/><path d="M26 99.19l7.8-22.34c2.69-7.73 5.88-16.55 11.59-22.09 5.12-5 11.84-5.63 17.47-5.63 5.88 0 12.1.84 13.78 5.8a13.36 13.36 0 0 1 .59 4.2c0 5.46-2.44 12.18-4.45 18v.08L65 99.53a.54.54 0 0 1-.59.42c-.34 0-.76-.34-.59-.76l7.56-21.59H34.81l-7.65 21.93a.64.64 0 0 1-.59.34.55.55 0 0 1-.57-.68zm45.77-22.76c2-5.8 4.28-12.35 4.28-17.39a13.28 13.28 0 0 0-.5-3.78c-1.43-4.12-6.72-5-12.68-5-5.54 0-11.84.67-16.63 5.29-5.29 5.12-8.32 13.36-11 20.92zM88.25 99.19l6.55-18.56c1.85-5.37 3.95-11.34 8.57-15.12s10-3.78 14.53-3.78c4.79 0 10.08.17 12.1 4a8.41 8.41 0 0 1 .84 3.86c0 3.53-1.51 7.64-2.77 11.26a.08.08 0 0 1-.07.15l-6.47 18.56a.54.54 0 0 1-.59.42.54.54 0 0 1-.5-.76l6.22-17.81H95.72l-6.3 18.14a.64.64 0 0 1-.59.34.55.55 0 0 1-.58-.7zm29.65-36.37c-4.54 0-9.58.08-13.78 3.53-4 3.36-6.13 8.65-8 13.86h30.91c1.26-3.61 2.52-7.48 2.52-10.67.03-6.21-5.18-6.72-11.65-6.72zM192.61 56.77a22.59 22.59 0 0 1-1.51 6.89c-1.51 4.28-3.7 8.74-8 11.09-4 2.27-10.25 2.86-16 2.86a49.76 49.76 0 0 0 10.42-.84 24.17 24.17 0 0 1 8.4 2 5.7 5.7 0 0 1 3 5.46 13.66 13.66 0 0 1-.76 4c-1.34 3.86-4 7.56-7.81 9.16-5.12 2.18-12 2.27-17.64 2.27h-17.3c-.08 0-.08-.08-.17-.08a.48.48 0 0 1-.5-.5v-.17L162 49.72a.73.73 0 0 1 .59-.42H176c7.28 0 16.61 0 16.61 7.47zm-47.8 42.34zm8.74-21.5l-7.31 20.92H162c5.8 0 12.85 0 17.89-2.1 3.36-1.43 6-4.87 7.22-8.57a11.38 11.38 0 0 0 .67-3.61 4.8 4.8 0 0 0-2.35-4.54c-4-2-12.18-2.1-19.24-2.1zm29-3.78c3.86-2.1 6-6.3 7.48-10.58a22 22 0 0 0 1.43-6.47A4.94 4.94 0 0 0 190 53c-2.6-2.44-8.57-2.52-14.28-2.52H163l-9.07 26h12.68c5.25-.05 11.3-.05 15.92-2.65zM204.43 99.11v-.17l12.85-36.62a.73.73 0 0 1 .59-.42h11.51c6.22 0 14.78-.25 14.78 5.88a13.29 13.29 0 0 1-.84 4c-1.09 3.11-3.11 6.22-6.22 7.64a16.55 16.55 0 0 1-3.61 1.18 18.26 18.26 0 0 1 6.3 1.51 5 5 0 0 1 2.69 4.79 10.69 10.69 0 0 1-.59 3.19 12.77 12.77 0 0 1-6.64 7.64c-4.37 1.85-10.16 1.93-15 1.93H205.1c-.08 0-.08-.08-.17-.08a.48.48 0 0 1-.5-.47zm0 0zm7.39-17.72l-6 17.14h13.61c5 0 11 0 15.29-1.76a11.91 11.91 0 0 0 6-7 8.91 8.91 0 0 0 .5-2.86 3.85 3.85 0 0 0-2-3.78c-3.19-1.6-9.74-1.76-15.62-1.76zm24.78-2.94c2.69-1.18 4.62-3.95 5.63-7a12.59 12.59 0 0 0 .76-3.7 3.37 3.37 0 0 0-1.34-3c-2.44-1.6-7.64-1.68-12.52-1.68h-10.84l-6 17.14h10.84c4.31 0 9.6 0 13.47-1.76zM280.06 98.52h14.62a.59.59 0 1 1 0 1.18H278.8c-6.13 0-13.27-.17-16.46-4.7a9.23 9.23 0 0 1-1.6-5.63c0-3.86 1.51-8.32 3-12.52 2.6-7.56 5.71-16.3 12.52-21.92 6.38-5.21 13.94-5.63 21-5.63h14.64a.59.59 0 0 1 0 1.18h-14.62c-7.06 0-14.28.25-20.24 5.21-6.55 5.38-9.49 13.94-12.1 21.5-1.51 4.37-2.94 8.65-2.94 12.26 0 8.99 9.41 9.07 18.06 9.07zM312.26 90.79c0-3.11 1.26-6.72 2.44-10.16 1.85-5.21 4-11.26 9.58-15s12.35-3.78 18.48-3.78h12.18a.59.59 0 0 1 0 1.18h-12.19c-6.13 0-12.6.08-17.81 3.53s-7.31 9.16-9.16 14.36c-1.26 3.53-2.27 7-2.27 9.83 0 7.81 8.74 7.73 16.38 7.73h12.26a.59.59 0 1 1 0 1.18h-13.51c-7.4.04-16.38-.55-16.38-8.87zM378.61 49.72a.73.73 0 0 1 .59-.42h14.36c7 0 14.62.34 17.39 5.8a12.17 12.17 0 0 1 1.18 5.54c0 5.13-2.18 11.17-4 16.55-2.27 6.55-4.87 13.52-11.09 18s-13.55 4.51-19.94 4.51H362a.62.62 0 0 1-.59-.59v-.17zm15 .76h-13.99l-16.8 48h13.94c6.47 0 13.44 0 19.49-4.28 5.88-4.2 8.4-10.84 10.67-17.39 1.93-5.46 4-11.42 4-16.3.08-9.28-7.92-10.04-17.35-10.04zM465 70.88c0 3.19-1.26 6.8-2.35 10.08-1.93 5.54-4.2 11.42-9.58 15-5.54 3.7-12.1 3.78-17.72 3.78h-12.78a.62.62 0 0 1-.59-.59v-.17l12.85-36.62a.73.73 0 0 1 .59-.42h12.1c8.06-.04 17.48.29 17.48 8.94zm-17.64-7.81h-11.52l-12.43 35.45h11.51c5.71 0 12.18 0 17.47-3.53 5-3.28 7.14-8.82 9.07-14.36 1.18-3.36 2.35-6.89 2.35-9.83 0-7.73-8.4-7.73-16.46-7.73zM512.09 99.7h-34.27a.62.62 0 0 1-.59-.59v-.17l17.22-49.22a.73.73 0 0 1 .59-.42h34.27a.59.59 0 0 1 0 1.18h-33.85l-9.07 26h28.39a.59.59 0 1 1 0 1.18H486l-7.31 20.92h33.43a.59.59 0 0 1 0 1.18zM560.66 99.7h-29a.62.62 0 0 1-.59-.59v-.17l12.85-36.62a.73.73 0 0 1 .59-.42h28.9a.59.59 0 0 1 0 1.18H545l-6 17.14h23a.59.59 0 0 1 0 1.18h-23.51l-6 17.14h28.14a.59.59 0 1 1 0 1.18zM580.1 99.19l17.3-49.48a.73.73 0 0 1 .59-.42h34.27a.59.59 0 0 1 0 1.18h-33.85l-9.07 26h28.39a.59.59 0 1 1 0 1.18h-28.81l-7.64 21.92a.64.64 0 0 1-.59.34.55.55 0 0 1-.59-.72zM633 99.19l12.94-36.88a.73.73 0 0 1 .59-.42h28.9a.59.59 0 0 1 0 1.18h-28.51l-6 17.14H664a.59.59 0 0 1 0 1.18h-23.55l-6.3 18.14a.64.64 0 0 1-.59.34.55.55 0 0 1-.56-.68z"/></svg>