<svg data-name="Ebene 1" xmlns="http://www.w3.org/2000/svg" viewBox="0 0 700 150"><path fill="#d7ffff" d="M0 0h700v150H0z"/><path d="M25 97.09V74.58c0-6.55.25-14.36 4.62-20.16 5-6.64 13.19-6.72 18.65-6.72 5.88 0 13.94.34 18.73 6.72 4.28 5.71 4.62 13 4.62 19.24v23.43a4.37 4.37 0 0 1-4.45 4.2 4.29 4.29 0 0 1-4.37-4.2V81.22h-29v15.87a4.38 4.38 0 0 1-4.45 4.2 4.3 4.3 0 0 1-4.35-4.2zm37.76-24.27c-.17-5.54-.76-10.67-2.86-13.44-1.85-2.44-5.8-3.28-11.59-3.28-5.54 0-9.58.76-11.51 3.28-2 2.69-2.69 7.73-2.86 13.44zM86.18 97.09V79.2c0-4.45.17-10.08 4.37-14.36s9.83-4.62 13.94-4.62c.76 0 1.51.08 2.18.08h1.26c4.45 0 10.42.17 14.78 4.54 4 4.12 4.45 9.49 4.45 13.61 0 .84-.08 1.6-.08 2.35v16.3a4.29 4.29 0 0 1-4.37 4.2 4.37 4.37 0 0 1-4.45-4.2V85H95v12.1a4.38 4.38 0 0 1-4.45 4.2 4.3 4.3 0 0 1-4.37-4.21zm20.5-28.39c-8.4 0-10.92.67-11.51 7.9h23c-.57-7.14-2.84-7.9-11.49-7.9zM186.85 86.26c0 4.37-2 9.07-6.8 11.17-4.62 2-10.25 2.27-15.12 2.27h-19.07a4.3 4.3 0 0 1-4.37-4.2v-42a4.3 4.3 0 0 1 4.37-4.2h14.78c4.79 0 10.5.17 15 3 5.38 3.36 5.71 9.32 5.71 12.94 0 2.86-.34 6.64-2.35 9.66a12 12 0 0 1 7.85 11.36zm-16-15.12c.84-.5 1.76-2.35 1.76-5.88 0-3.28-.84-5.29-1.76-5.88-2-1.26-7.06-1.68-12.52-1.68h-8v15.12h8c5.08 0 10.37-.34 12.47-1.68zm-20.5 10.08V91.3h11.05c5.54 0 12.18-.17 15-1.43.59-.25 1.68-1.43 1.68-3.61a3.73 3.73 0 0 0-2.1-3.53c-2.86-1.09-8.65-1.43-14.45-1.51zM198.91 66.1a4.3 4.3 0 0 1 4.37-4.2h13c3.95 0 8.57.08 12.35 1.85 4.54 2.1 5.63 6.64 5.63 9.74a11.84 11.84 0 0 1-1.18 5.29 10.51 10.51 0 0 1-.42 19.07c-4 1.68-8.65 1.85-12.77 1.85h-16.61a4.3 4.3 0 0 1-4.37-4.2zm25.87 9.41s.67-.42.67-2a3.17 3.17 0 0 0-.67-2.18c-1.68-.76-6.3-1-10.84-1h-6.22v6.3h6.22c4.21-.03 9.06-.28 10.84-1.12zM207.73 85v6.3h8.9c4.7 0 10.33-.17 12.6-1.09a2.27 2.27 0 0 0 .92-2.1 2.08 2.08 0 0 0-1.26-1.93c-2.69-.92-9.74-1.18-15-1.18zM292.77 57.7h-16c-7.22 0-12.6.34-15.54 3.36-3.11 3.11-3.44 9.07-3.44 16 0 5.71.84 9.74 3.11 11.51 3 2.35 9.24 2.77 15.88 2.77h16a4.2 4.2 0 1 1 0 8.4h-19.16c-5.8 0-12.94-.25-18.4-4.62-6.13-4.79-6.3-12.52-6.3-18.06v-2.73c0-6 .34-13.44 5.88-19 5.8-5.8 13.94-6 20.41-6h17.56a4.2 4.2 0 1 1 0 8.4zM345.18 70.3h-13.61c-6.22 0-11.84.42-14.28 2.1-1.6 1.09-2.44 4.12-2.44 8.4 0 4.54.92 7.39 2.44 8.4 2.52 1.76 8.4 2.1 14.28 2.1h13.61a4.2 4.2 0 1 1 0 8.4h-16.8c-5.12 0-11.34-.34-16.3-3.78-5.54-3.86-6-10.42-6-15.12 0-4.37.25-11.09 6-15.12 5-3.53 11.68-3.78 17.14-3.78h16a4.2 4.2 0 1 1 0 8.4zM362 53.5a4.31 4.31 0 0 1 4.37-4.2h16c6.47 0 14.62.25 20.41 6 5.54 5.54 5.88 12.94 5.88 19V77c0 5.54-.17 13.27-6.3 18.06-5.46 4.37-12.6 4.62-18.4 4.62h-17.62A4.26 4.26 0 0 1 362 95.5zm18.73 37.8c6.64 0 12.94-.42 16-2.77 2.27-1.76 3.11-5.8 3.11-11.51 0-6.89-.34-12.85-3.44-16-2.94-3-8.4-3.36-15.62-3.36h-9.91V91.3zM421 66.1a4.3 4.3 0 0 1 4.37-4.2h14.36c5.46 0 12.1.25 17.14 3.78 5.79 4 6 10.75 6 15.12 0 4.7-.5 11.26-6 15.12-5 3.44-11.17 3.78-16.3 3.78h-15.2a4.26 4.26 0 0 1-4.37-4.2zm16.38 25.2c5.88 0 11.76-.34 14.28-2.1 1.51-1 2.44-3.86 2.44-8.4 0-4.28-.84-7.31-2.44-8.4-2.44-1.68-8.06-2.1-14.28-2.1h-7.56v21zM514.78 99.7h-35.7a4.26 4.26 0 0 1-4.37-4.2v-42a4.31 4.31 0 0 1 4.37-4.2h35.7a4.2 4.2 0 1 1 0 8.4h-31.25v15.12h26.21a4.2 4.2 0 1 1 0 8.4h-26.21V91.3h31.25a4.2 4.2 0 1 1 0 8.4zM566.39 99.7H536a4.26 4.26 0 0 1-4.37-4.2V66.1a4.3 4.3 0 0 1 4.37-4.2h30.41a4.2 4.2 0 1 1 0 8.4h-26v6.3h20.92a4.2 4.2 0 1 1 0 8.4h-20.89v6.3h26a4.2 4.2 0 1 1 0 8.4zM583.35 97.09V53.5a4.3 4.3 0 0 1 4.37-4.2h35.7a4.2 4.2 0 1 1 0 8.4h-31.25v15.12h26.21a4.2 4.2 0 1 1 0 8.4h-26.21v15.87a4.38 4.38 0 0 1-4.45 4.2 4.3 4.3 0 0 1-4.37-4.2zM637.45 97.09v-31a4.3 4.3 0 0 1 4.37-4.2h30.41a4.2 4.2 0 1 1 0 8.4h-26v6.3h20.92a4.2 4.2 0 1 1 0 8.4h-20.88v12.1a4.38 4.38 0 0 1-4.45 4.2 4.3 4.3 0 0 1-4.37-4.2z"/></svg>