<svg data-name="Ebene 1" xmlns="http://www.w3.org/2000/svg" viewBox="0 0 700 150"><path fill="#d7ffff" d="M0 0h700v150H0z"/><path d="M24.72 97.19V49.81a2.65 2.65 0 0 1 2.69-2.52h37.8a2.6 2.6 0 0 1 2.69 2.52v47.38a2.69 2.69 0 0 1-5.38 0V68.46H30.1v28.73a2.69 2.69 0 0 1-5.38 0zm37.8-33.77V52.33H30.1v11.09zM84.87 97.19V49.81a2.65 2.65 0 0 1 2.69-2.52h32.17a2.6 2.6 0 0 1 2.69 2.52v47.38a2.69 2.69 0 0 1-5.38 0V76H90.25v21.19a2.69 2.69 0 0 1-5.38 0zM117 71V52.33H90.25V71zM139.31 50.82A2.65 2.65 0 0 1 142 48.3h31.84a2.6 2.6 0 0 1 2.69 2.52v12.6h2.86a2.6 2.6 0 0 1 2.69 2.52v30.24a2.64 2.64 0 0 1-2.69 2.52H142a2.61 2.61 0 0 1-2.69-2.52zm31.84 2.52h-26.46v10.08h26.46zm-26.46 15.12v25.2h32v-25.2zM197.53 50.82a2.65 2.65 0 0 1 2.69-2.52h27.3a2.6 2.6 0 0 1 2.69 2.52V71h2.1a2.6 2.6 0 0 1 2.69 2.5v22.68a2.64 2.64 0 0 1-2.69 2.52h-32.09a2.61 2.61 0 0 1-2.69-2.52zm27.3 2.52h-21.92V71h21.92zM202.91 76v17.66h26.71V76zM290.25 53.34h-36.12v40.32h36.12a2.53 2.53 0 1 1 0 5h-38.81a2.65 2.65 0 0 1-2.69-2.52V50.82a2.6 2.6 0 0 1 2.69-2.52h38.81a2.53 2.53 0 1 1 0 5zM344.24 53.34h-31.41v40.32h31.42a2.53 2.53 0 1 1 0 5h-34.1a2.65 2.65 0 0 1-2.69-2.52V50.82a2.6 2.6 0 0 1 2.69-2.52h34.1a2.53 2.53 0 1 1 0 5zM363.37 50.82a2.65 2.65 0 0 1 2.69-2.52h37.8a2.6 2.6 0 0 1 2.69 2.52v45.36a2.64 2.64 0 0 1-2.69 2.52h-37.8a2.6 2.6 0 0 1-2.69-2.52zm37.8 42.84V53.34h-32.42v40.32zM421.82 50.82a2.65 2.65 0 0 1 2.69-2.52h33.1a2.6 2.6 0 0 1 2.69 2.52v45.36a2.64 2.64 0 0 1-2.69 2.52h-33.1a2.6 2.6 0 0 1-2.69-2.52zm33.1 42.84V53.34H427.2v40.32zM513.06 98.7H478a2.6 2.6 0 0 1-2.69-2.52V50.82A2.65 2.65 0 0 1 478 48.3h35.11a2.53 2.53 0 1 1 0 5h-32.47v10.12H508a2.52 2.52 0 1 1 0 5h-27.36v25.2h32.42a2.53 2.53 0 1 1 0 5zM564.7 98.7h-29.82a2.6 2.6 0 0 1-2.69-2.52V50.82a2.65 2.65 0 0 1 2.69-2.52h29.82a2.53 2.53 0 1 1 0 5h-27.13V71h22.09a2.53 2.53 0 1 1 0 5h-22.09v17.66h27.13a2.53 2.53 0 1 1 0 5zM583.82 97.19V50.82a2.65 2.65 0 0 1 2.69-2.52h35.11a2.53 2.53 0 1 1 0 5H589.2v10.12h27.38a2.52 2.52 0 1 1 0 5H589.2v28.77a2.69 2.69 0 0 1-5.38 0zM640.75 97.19V50.82a2.65 2.65 0 0 1 2.69-2.52h29.82a2.53 2.53 0 1 1 0 5h-27.13V71h22.09a2.53 2.53 0 1 1 0 5h-22.09v21.19a2.69 2.69 0 0 1-5.38 0z"/></svg>