<svg data-name="Ebene 1" xmlns="http://www.w3.org/2000/svg" viewBox="0 0 700 150"><path fill="#d7ffff" d="M0 0h700v150H0z"/><path d="M25.2 95.59V73.25c0-6.38.25-14 4.79-19.91 5.29-6.89 13.94-7 19.32-7 5.8 0 14.28.34 19.4 7 4.45 5.8 4.79 13 4.79 19.07v23.18a5.21 5.21 0 0 1-5.29 5 5.14 5.14 0 0 1-5.21-5V81.06H35.7v14.53a5.22 5.22 0 0 1-5.29 5 5.14 5.14 0 0 1-5.21-5zM62.92 71c-.25-5-.92-9.41-2.69-11.68-1.6-2-5-2.86-10.92-2.86-5.54 0-9.24.76-10.84 2.86S36 65.85 35.78 71zM86.1 95.59V78.12c0-4.37.25-10.08 4.7-14.45S100.88 59 105 59h4c4.45 0 10.42.25 15 4.7 4.37 4.28 4.79 9.66 4.79 13.69 0 .92-.08 1.68-.08 2.44v15.76a5.14 5.14 0 0 1-5.21 5 5.21 5.21 0 0 1-5.29-5V84.84H96.6v10.75a5.22 5.22 0 0 1-5.29 5 5.14 5.14 0 0 1-5.21-5zm31.84-20.83c-.25-1.93-.67-3.36-1.43-4.12-1.18-1.18-3.95-1.6-9.07-1.6-4.79 0-7.9.34-9.16 1.6-.76.76-1.18 2.1-1.43 4.12zM141.14 53.34a5.14 5.14 0 0 1 5.21-5h15c4.7 0 10.25.17 14.87 3 5.71 3.53 6 9.74 6 13.36a19.12 19.12 0 0 1-1.76 8.74 12.41 12.41 0 0 1 7.22 11.42c0 4.62-2.27 9.58-7.31 11.68-4.7 2-10.16 2.18-15 2.18h-19.03a5.14 5.14 0 0 1-5.21-5zm29.4 16.13c.34-.17 1.26-1.43 1.26-4.79 0-3.11-.84-4.54-1.26-4.79-1.68-1-6.47-1.51-11.84-1.51h-7.06V71h7.06c5.03 0 10.07-.44 11.84-1.53zm-18.9 11.59v7.56h10.08c5.46 0 12-.25 14.53-1.34a2.74 2.74 0 0 0 1-2.44 2.47 2.47 0 0 0-1.43-2.35c-2.6-.92-8.06-1.34-13.69-1.43zM198.13 65.94a5.14 5.14 0 0 1 5.21-5h13.19c4.79 0 11.26.59 14.53 3.36a10.78 10.78 0 0 1 3.78 8.57 12.06 12.06 0 0 1-.84 4.54 11 11 0 0 1 5.46 9.41 10.69 10.69 0 0 1-6.8 10.16c-4 1.6-8.65 1.76-12.68 1.76h-16.64a5.14 5.14 0 0 1-5.21-5zm26 8a2.25 2.25 0 0 0 .25-1.09 2.49 2.49 0 0 0-.25-1c-1.51-.59-5.88-.84-10.25-.84h-5.21v3.78h5.21c3.9-.03 8.52-.2 10.2-.87zm-15.5 10.9v3.78h7.81c4.62 0 10.25-.25 12.26-1a1.22 1.22 0 0 0 .25-.84.91.91 0 0 0-.59-.84c-2.44-.84-9.66-1.09-14.53-1.09zM292.62 58.38h-16.38c-7.22 0-12.35.5-15 3-2.77 2.69-3.19 7.9-3.19 14.62 0 5.46.92 8.82 2.69 10.16 2.69 2 8.82 2.44 15.46 2.44h16.38a5 5 0 1 1 0 10.08h-19.79c-5.71 0-12.85-.42-18.48-4.62-6.47-4.87-6.72-12.6-6.72-18.06v-2.75c0-5.8.42-13.27 6.22-18.9 6-5.71 14.11-6 20.5-6h18.31a5 5 0 1 1 0 10.08zM345.13 71h-13.95c-6.22 0-11.76.5-13.94 1.93-1 .67-1.93 2.94-1.93 6.89 0 4.2 1 6.3 1.93 6.89 2.27 1.51 8.15 1.93 13.94 1.93h13.94a5 5 0 1 1 0 10.08h-17.55c-5 0-11.17-.25-16.21-3.61-5.88-3.86-6.55-10.67-6.55-15.29 0-4.2.34-11.26 6.55-15.29 5.21-3.44 11.68-3.61 17.05-3.61h16.72a5 5 0 1 1 0 10.08zM360.91 53.34a5.14 5.14 0 0 1 5.21-5h16.38c6.38 0 14.53.34 20.5 6 5.8 5.63 6.22 13.1 6.22 18.9V76c0 5.46-.25 13.19-6.72 18.06-5.63 4.2-12.77 4.62-18.48 4.62h-17.9a5.1 5.1 0 0 1-5.21-5zm19.57 35.28c6.64 0 12.85-.42 15.54-2.44 1.76-1.34 2.69-4.7 2.69-10.16 0-6.72-.42-11.93-3.19-14.62-2.6-2.52-7.81-3-15-3h-9.07v30.22zM419.66 65.94a5.14 5.14 0 0 1 5.21-5h14.78c5.38 0 11.84.17 17.05 3.61 6.22 4 6.55 11.09 6.55 15.29 0 4.62-.67 11.42-6.55 15.29-5 3.36-11.17 3.61-16.21 3.61h-15.62a5.1 5.1 0 0 1-5.21-5zm17.22 22.68c5.8 0 11.68-.42 13.94-1.93.92-.59 1.93-2.69 1.93-6.89 0-3.95-.92-6.22-1.93-6.89-2.18-1.43-7.73-1.93-13.94-1.93h-6.72v17.64zM514.32 98.7h-36a5.1 5.1 0 0 1-5.21-5V53.34a5.14 5.14 0 0 1 5.21-5h36a5 5 0 1 1 0 10.08h-30.75V71h25.7a5 5 0 1 1 0 10.08h-25.7v7.56h30.74a5 5 0 1 1 0 10.08zM565.76 98.7H535a5.1 5.1 0 0 1-5.21-5V65.94a5.14 5.14 0 0 1 5.21-5h30.74a5 5 0 1 1 0 10.08H540.3v3.78h20.41a5 5 0 1 1 0 10.08H540.3v3.78h25.45a5 5 0 1 1 0 10.08zM581.83 95.59V53.34a5.14 5.14 0 0 1 5.21-5h36a5 5 0 1 1 0 10.08h-30.71V71H618a5 5 0 1 1 0 10.08h-25.7v14.51a5.22 5.22 0 0 1-5.29 5 5.14 5.14 0 0 1-5.18-5zM635.75 95.59V65.94a5.14 5.14 0 0 1 5.21-5h30.74a5 5 0 1 1 0 10.08h-25.45v3.78h20.41a5 5 0 1 1 0 10.08h-20.41v10.71a5.22 5.22 0 0 1-5.29 5 5.14 5.14 0 0 1-5.21-5z"/></svg>