<svg data-name="Ebene 1" xmlns="http://www.w3.org/2000/svg" viewBox="0 0 700 150"><path fill="#d7ffff" d="M0 0h700v150H0z"/><path d="M25.31 98.19a2.33 2.33 0 0 1 .08-.76l7.48-21.17c2.6-7.39 5.63-16.13 11.76-21.92 5.8-5.38 13.1-6 18.82-6s13.52.59 15.88 7a14.44 14.44 0 0 1 .84 5c0 5.71-2.6 12.1-4.45 17.47l-7.4 21.13a2.69 2.69 0 0 1-2.6 1.68 2.48 2.48 0 0 1-2.6-2.44 2.33 2.33 0 0 1 .08-.76l6.3-17.89H37.32l-6.8 19.4a2.81 2.81 0 0 1-2.52 1.78 2.56 2.56 0 0 1-2.69-2.52zM71.26 74.5c1.76-5.29 3.36-10.75 3.36-14.7a7.77 7.77 0 0 0-.42-2.94c-.92-2.6-4.7-3.53-10.75-3.53-5.38 0-10.84.59-15 4.45S41.44 68 39.08 74.5zM87 98.19a2.33 2.33 0 0 1 .08-.76L93.2 80c1.8-5 3.8-11 8.91-15s10.84-4.12 15.2-4.12h1.6c4.45 0 10.33.25 13 4.87a9.48 9.48 0 0 1 1.26 5c0 3.78-1.68 7.73-2.77 10.84l-6 17.39a2.69 2.69 0 0 1-2.6 1.68 2.55 2.55 0 0 1-2.69-2.44 2.45 2.45 0 0 1 .17-.76l5-14.11H97.74L92.2 98.94a2.81 2.81 0 0 1-2.52 1.76A2.56 2.56 0 0 1 87 98.19zm38.89-19.91a28.21 28.21 0 0 0 1.76-8 4.54 4.54 0 0 0-.5-2.27c-.92-1.68-4-2.1-9.24-2.1-4.54 0-8.74 0-12.35 2.86-2.86 2.18-4.54 5.63-6 9.49zM143.39 97.18a2.45 2.45 0 0 1 .17-.76l15.88-45.36A2.78 2.78 0 0 1 162 49.3h15.12c4.79 0 10.33.25 13.78 3.19a7.27 7.27 0 0 1 2.52 5.88 20.77 20.77 0 0 1-1.51 6.8c-1.34 3.86-3.44 8.32-7.56 10.92.67.25 1.26.5 1.85.76 3.11 1.43 4.12 4.2 4.12 7a12.72 12.72 0 0 1-.76 4 15.77 15.77 0 0 1-8.57 9.58c-5.21 2.1-11.59 2.27-16.88 2.27h-17.94a2.59 2.59 0 0 1-2.78-2.52zm11.68-17.64l-5.29 15.12H162c5.71 0 12.52 0 16.8-1.76 2.35-.92 4.62-3.53 5.71-6.55a7.06 7.06 0 0 0 .42-2.44 2.87 2.87 0 0 0-1.26-2.69c-3.11-1.51-11.17-1.68-17.81-1.68zm25.54-7.22c2.86-1.51 4.79-4.79 6.13-8.65a16.43 16.43 0 0 0 1.09-5.29c0-1.09-.17-1.85-.59-2.18-1.68-1.43-6.89-1.85-12.6-1.85h-10.75l-7.06 20.15h9c5.17 0 10.83-.09 14.78-2.19zM202 97.18a2.45 2.45 0 0 1 .17-.76l11.42-32.76a2.88 2.88 0 0 1 2.6-1.76h13.19c4 0 8.57.17 11.68 2.1a5.87 5.87 0 0 1 2.86 5.29 12 12 0 0 1-.76 4.12 14.48 14.48 0 0 1-4.7 6.64 6.57 6.57 0 0 1 4.28 6.38 10.83 10.83 0 0 1-.5 3.36 13.26 13.26 0 0 1-7.56 8.06c-4.45 1.68-9.83 1.85-14.28 1.85h-15.65a2.59 2.59 0 0 1-2.75-2.52zm10.4-13.86l-4 11.34h9.91c4.87 0 10.75-.08 14.36-1.43 1.93-.76 4.79-3.53 4.79-6.72a1.87 1.87 0 0 0-.92-1.85c-2.52-1.18-9.58-1.34-15.2-1.34zm21.42-6.38a9 9 0 0 0 4.62-7.39 2.25 2.25 0 0 0-.34-1.43c-1.51-.92-6.3-1.18-11.09-1.18h-8.9l-4 11.34h7.22c4.26 0 9.38 0 12.49-1.35zM309.66 54.34h-15.37c-7 0-13.36.25-18.82 4.45-5.8 4.54-8.4 11.84-10.92 19-1.43 4-2.35 7.64-2.35 10.33a5.51 5.51 0 0 0 1 3.53c2.18 2.69 8.4 3 15.2 3h15.37a2.53 2.53 0 1 1 0 5h-18.4c-5.71 0-12.68-.34-16.46-5a10.64 10.64 0 0 1-2.18-6.8c0-3.86 1.51-8 2.77-11.59 2.44-7 5.21-15.62 12.52-21.34 7.06-5.54 15.37-5.63 22.26-5.63h15.37a2.53 2.53 0 1 1 0 5zM353.27 66.94h-13c-6.13 0-12.18.17-16.55 2.86-4 2.44-6 7.06-7.73 11.76a26.79 26.79 0 0 0-1.76 7.81 4.24 4.24 0 0 0 .84 2.94c1.93 2 7.64 2.35 13.69 2.35h13a2.53 2.53 0 1 1 0 5h-16c-5 0-11.09-.42-14.7-4.2a8.66 8.66 0 0 1-2.27-6.22 28.5 28.5 0 0 1 2.1-9.24c1.68-4.79 4-10.84 9.91-14.45s13.1-3.7 19.07-3.7h13.44a2.53 2.53 0 1 1 0 5zM374.41 51.06a2.78 2.78 0 0 1 2.52-1.76h15.63c6.47 0 14.45.25 18.06 6.38a13.3 13.3 0 0 1 1.68 6.72c0 5.12-2.27 10.75-3.86 15.37-2.1 6-4.7 13-11.26 17.39S383 99.7 376.84 99.7h-15.79a2.6 2.6 0 0 1-2.69-2.52 1.13 1.13 0 0 1 .17-.76zm1 43.6c6.55 0 13.27 0 18.56-3.53 4.87-3.19 7.31-8.82 9.41-14.87 1.85-5.21 3.36-10.42 3.36-14.28a8.08 8.08 0 0 0-.84-3.95c-1.85-3.19-7.22-3.7-14.62-3.7h-12.42l-14.11 40.33zM430.11 63.66a2.89 2.89 0 0 1 2.6-1.76H447c5.46 0 11.84.34 15.46 4.2a8.79 8.79 0 0 1 2.27 6.22c0 3.19-1.26 6.64-2.18 9.24-1.76 5-4.2 11-9.83 14.45-5.8 3.53-12.43 3.7-17.89 3.7h-13.62a2.6 2.6 0 0 1-2.69-2.52 1.13 1.13 0 0 1 .17-.76zm3.11 31c5.79 0 11.93-.08 16.55-2.86 3.87-2.35 6-6.8 7.73-11.76a24.72 24.72 0 0 0 1.68-7.81 4.24 4.24 0 0 0-.84-2.94c-1.85-1.93-7.31-2.35-13.69-2.35h-10l-9.74 27.72zM510.68 99.7h-35a2.6 2.6 0 0 1-2.68-2.52 1.13 1.13 0 0 1 .17-.76L489 51.06a2.78 2.78 0 0 1 2.52-1.76h35a2.53 2.53 0 1 1 0 5h-33.1l-7.02 20.2h26.29a2.53 2.53 0 1 1 0 5h-28.05l-5.29 15.12h31.33a2.53 2.53 0 1 1 0 5zM559.85 99.7h-29.74a2.6 2.6 0 0 1-2.69-2.52 1.13 1.13 0 0 1 .17-.76L539 63.66a2.89 2.89 0 0 1 2.6-1.76h29.74a2.53 2.53 0 1 1 0 5h-27.8l-4 11.34h21a2.53 2.53 0 1 1 0 5h-22.7l-4 11.34h26c1.18 0 2.69 2.52 2.69 2.52a2.66 2.66 0 0 1-2.68 2.6zM577.62 98.19a2.33 2.33 0 0 1 .08-.76L594 51.06a2.78 2.78 0 0 1 2.52-1.76h35a2.53 2.53 0 1 1 0 5h-33.1l-7.02 20.2h26.29a2.53 2.53 0 1 1 0 5h-28.06l-6.8 19.4a2.81 2.81 0 0 1-2.52 1.76 2.56 2.56 0 0 1-2.69-2.47zM631.27 98.19a2.33 2.33 0 0 1 .08-.76l11.85-33.77a2.88 2.88 0 0 1 2.6-1.76h29.74a2.53 2.53 0 1 1 0 5h-27.8l-4 11.34h21a2.53 2.53 0 1 1 0 5H642l-5.54 15.62a2.81 2.81 0 0 1-2.52 1.76 2.56 2.56 0 0 1-2.67-2.43z"/></svg>