<svg data-name="Ebene 1" xmlns="http://www.w3.org/2000/svg" viewBox="0 0 700 150"><path fill="#d7ffff" d="M0 0h700v150H0z"/><path d="M24.72 97.19V74.51c0-7.06.17-15.12 4.28-20.83 4.28-5.88 11.76-6.38 17.3-6.38 6 0 13.27.76 17.39 6.38S68 66.95 68 73.5c0 .84-.08 1.68-.08 2.52v21.17a2.69 2.69 0 0 1-5.38 0V78.54H30.1v18.65a2.69 2.69 0 0 1-5.38 0zm37.8-23.69c-.08-6.5-.52-13.19-3.28-17.05-2.35-3.28-7.14-4.12-12.94-4.12-5.54 0-10.42.67-12.85 4.12-2.69 3.78-3.19 10.33-3.28 17.05zM86.32 97.19V78.62c0-4.79.17-10.33 3.86-14.36 3.86-4.2 9.49-4.37 13.69-4.37h1.43c4.7 0 10.67.08 14.7 4.37 3.61 3.95 3.86 9.16 3.86 13.52v19.4a2.69 2.69 0 0 1-5.38 0V82.32H91.7v14.87a2.69 2.69 0 0 1-5.38 0zm32.18-19.91c-.08-4-.59-7.64-2.6-9.74-2.1-2.27-5.8-2.6-10.75-2.6-4.7 0-8.65.17-10.84 2.6-1.93 2.1-2.44 5.54-2.52 9.74zM142.29 50.82A2.65 2.65 0 0 1 145 48.3h14.2c5 0 11.09.17 15.37 3 4.62 3 5 8.32 5 12.1s-.59 8.4-4 11.34a16.85 16.85 0 0 1 3.11 1c4.62 1.85 6.47 6.38 6.47 10.33s-1.6 8.32-5.71 10.25c-4.54 2.1-10.58 2.35-15.71 2.35H145a2.62 2.62 0 0 1-2.69-2.52zm29.15 20.66c1.85-1.18 2.69-4.12 2.69-8.06 0-3.7-.76-6.8-2.69-8.06-2.69-1.76-8.15-2-13.69-2h-10.09V73.5h10.08c5.21 0 10.84-.17 13.69-2.02zm-23.77 7.06v15.12h13.27c5.71 0 12.52-.08 16-1.68 1.6-.76 2.77-2.86 2.77-5.88 0-2.69-1.26-5-3.28-5.8-3.53-1.43-10-1.68-16.21-1.76zM200.72 63.42a2.65 2.65 0 0 1 2.69-2.52h12.52c4.28 0 9.07.17 12.77 2 3.86 1.93 4.7 5.88 4.7 8.74a10.48 10.48 0 0 1-2.4 7.07c.5.17.92.25 1.34.42a9.35 9.35 0 0 1 5.88 8.82c0 3.53-1.6 7.22-5.21 8.82-3.95 1.76-8.9 1.93-13.27 1.93h-16.3a2.62 2.62 0 0 1-2.69-2.52zM226.17 76c.92-.5 1.85-1.93 1.85-4.37 0-2.18-.76-3.95-1.85-4.45-2.27-1.09-7.14-1.26-11.84-1.26h-8.23v11.36h8.23c4.28 0 9.49-.09 11.84-1.28zm-20.08 6.3v11.36h11c4.87 0 10.75-.08 13.61-1.34 1.09-.5 2.1-2.1 2.1-4.37a4.3 4.3 0 0 0-2.52-4.2c-2.86-1.09-8.23-1.34-13.44-1.43zM293.29 53.34h-15.46c-7.14 0-13.1.25-16.63 4.12-3.86 4.12-4 11.42-4 18.56 0 6.22.5 11.42 3.78 14.28 3.7 3.19 10.25 3.36 16.88 3.36h15.46a2.53 2.53 0 1 1 0 5h-17.59c-6 0-13.27-.25-18.48-4.7-5.46-4.7-5.46-12-5.46-18 0-.76-.08-1.43-.08-2.18 0-6.47.34-14.11 5.38-19.57 5.46-5.88 13.86-6 20.66-6h15.54a2.53 2.53 0 1 1 0 5zM345.43 65.94h-13c-6.22 0-12 .25-15.12 2.69C314.6 70.73 314 75 314 79.8c0 5.12.67 9.16 3.28 11.17 3.19 2.52 9.24 2.69 15.12 2.69h13a2.53 2.53 0 1 1 0 5h-15.26c-5.29 0-11.68-.25-16.38-3.86-4.87-3.78-5.12-10-5.12-15 0-4.62 0-11.09 5.12-15 4.79-3.7 11.68-3.86 17.39-3.86h14.28a2.53 2.53 0 1 1 0 5zM364.77 50.82a2.65 2.65 0 0 1 2.69-2.52H382c6.8 0 15.2.08 20.66 6 5 5.46 5.38 13.1 5.38 19.57 0 .76-.08 1.43-.08 2.18 0 6 0 13.27-5.46 18-5.22 4.4-12.5 4.65-18.5 4.65h-16.54a2.6 2.6 0 0 1-2.69-2.52zm17.05 42.84c6.63 0 13.27-.17 17-3.36 3.28-2.86 3.78-8.06 3.78-14.28 0-7.14-.17-14.45-4-18.56-3.53-3.86-9.58-4.12-16.71-4.12h-11.74v40.32zM424.34 63.42A2.64 2.64 0 0 1 427 60.9h13.3c5.71 0 12.6.17 17.39 3.86 5.12 3.95 5.12 10.42 5.12 15 0 5-.25 11.26-5.12 15-4.7 3.61-11.09 3.86-16.38 3.86H427a2.6 2.6 0 0 1-2.69-2.52zM439 93.66c5.88 0 11.93-.17 15.12-2.69 2.6-2 3.28-6 3.28-11.17 0-4.79-.59-9.07-3.28-11.17-3.11-2.44-8.9-2.69-15.12-2.69h-9.32v27.72zM516.43 98.7h-35.11a2.6 2.6 0 0 1-2.69-2.52V50.82a2.65 2.65 0 0 1 2.69-2.52h35.11a2.53 2.53 0 1 1 0 5H484v20.2h27.38a2.53 2.53 0 1 1 0 5H484v15.16h32.42a2.53 2.53 0 1 1 0 5zM568.28 98.7h-29.82a2.6 2.6 0 0 1-2.69-2.52V63.42a2.64 2.64 0 0 1 2.69-2.52h29.82a2.53 2.53 0 1 1 0 5h-27.13v11.38h22.09a2.53 2.53 0 1 1 0 5h-22.09v11.38h27.13a2.53 2.53 0 1 1 0 5zM587.63 97.19V50.82a2.65 2.65 0 0 1 2.69-2.52h35.11a2.53 2.53 0 1 1 0 5H593v20.2h27.38a2.53 2.53 0 1 1 0 5H593v18.69a2.69 2.69 0 0 1-5.38 0zM642 97.19V63.42a2.64 2.64 0 0 1 2.69-2.52h29.82a2.53 2.53 0 1 1 0 5h-27.13v11.38h22.09a2.53 2.53 0 1 1 0 5h-22.09v14.91a2.69 2.69 0 0 1-5.38 0z"/></svg>