<svg data-name="Ebene 1" xmlns="http://www.w3.org/2000/svg" viewBox="0 0 700 150"><path fill="#d7ffff" d="M0 0h700v150H0z"/><path d="M25.74 98.94l7.73-22.18c2.68-7.76 5.87-16.54 11.67-22.09 5.21-5 11.93-5.71 17.64-5.71 5.88 0 12.35.84 14.11 6a13.88 13.88 0 0 1 .67 4.28c0 5.54-2.44 12.18-4.45 18L65.3 99.45a1 1 0 0 1-.84.67.94.94 0 0 1-1-.84c0-.08.08-.25.08-.34l7.39-21.08H35.06L27.5 99.45a1 1 0 0 1-.84.59.88.88 0 0 1-.92-1.1zm37-48.3c-5.54 0-11.59.67-16.3 5.12-5.12 5-8.23 13-10.84 20.41h35.92c2-5.71 4.2-12.1 4.2-17.05 0-7.12-5.3-8.48-12.94-8.48zM87.94 98.94l6.47-18.4c1.85-5.37 3.95-11.34 8.57-15.12s10.25-3.86 14.78-3.86c4.79 0 10.33.17 12.43 4.2a8.1 8.1 0 0 1 .84 4c0 3.61-1.51 7.73-2.77 11.26l-6.38 18.4a1.07 1.07 0 0 1-.92.67.86.86 0 0 1-.92-.84c0-.08.08-.25.08-.34l6-17.3h-30.2L89.7 99.45a1 1 0 0 1-.84.59.88.88 0 0 1-.92-1.1zm29.82-35.7c-4.54 0-9.41.08-13.52 3.44-3.86 3.19-6 8.23-7.73 13.27h30.24c1.26-3.53 2.44-7.31 2.44-10.33-.01-5.96-4.96-6.38-11.43-6.38zM192.7 56.94a21.56 21.56 0 0 1-1.51 6.89c-1.51 4.28-3.7 8.74-8.06 11.17a17.66 17.66 0 0 1-4.13 1.68 22.18 22.18 0 0 1 7 1.85 5.87 5.87 0 0 1 3.11 5.63 13.52 13.52 0 0 1-.67 4c-1.34 3.86-4 7.56-8 9.24-5.21 2.18-11.93 2.27-17.56 2.27h-17.47a.89.89 0 0 1-.92-1.09l17.05-48.72a1.07 1.07 0 0 1 .92-.59h13.69c7.23.03 16.55.11 16.55 7.67zm-48.21 41.92a.9.9 0 0 1 .92-.84.9.9 0 0 0-.92.84zm9.24-21L146.67 98h15.12c5.8 0 12.94 0 17.89-2.1 3.19-1.34 5.71-4.62 7-8.23a10.59 10.59 0 0 0 .59-3.44c0-1.93-.67-3.61-2.18-4.37-3.61-1.85-11.09-2-17.89-2zm28.39-4.2c3.7-2 5.88-6.13 7.31-10.33a21.75 21.75 0 0 0 1.34-6.38 4.46 4.46 0 0 0-1.26-3.53c-2.52-2.27-8.32-2.44-14-2.44h-12.38l-8.82 25.2h12.43c5.13 0 10.93-.09 15.38-2.52zM244.19 67.95a13.29 13.29 0 0 1-.84 4c-1.09 3.11-3.19 6.3-6.38 7.73a16.86 16.86 0 0 1-2.18.84 16.42 16.42 0 0 1 5 1.34 5.13 5.13 0 0 1 2.86 5A10.67 10.67 0 0 1 242 90a12.92 12.92 0 0 1-6.8 7.73c-4.45 1.85-10.16 1.93-15 1.93H205a.89.89 0 0 1-.92-1.09l12.68-36.12a1.07 1.07 0 0 1 .92-.59h11.93c6.18.04 14.58-.13 14.58 6.09zM204 98.86a.9.9 0 0 1 1-.86.9.9 0 0 0-.92.84zm7.9-17.22L206.22 98h12.85c5 0 11.09.08 15.29-1.68a11.44 11.44 0 0 0 5.88-6.72 8.43 8.43 0 0 0 .5-2.77 3.68 3.68 0 0 0-1.93-3.53c-3.11-1.51-9.32-1.68-15.12-1.68zm24.19-3.36a11.34 11.34 0 0 0 5.46-6.72 11.79 11.79 0 0 0 .67-3.53 3.16 3.16 0 0 0-1.18-2.86c-2.27-1.51-7.39-1.6-12.26-1.6h-10.5L212.52 80H223c4.39 0 9.52 0 13.13-1.72zM279.86 98h14.7a.84.84 0 1 1 0 1.68h-16.21c-6 0-13.19-.25-16.46-4.79a9.71 9.71 0 0 1-1.68-5.71c0-3.86 1.51-8.32 2.94-12.43 2.6-7.48 5.63-16.21 12.52-21.84 6.47-5.29 14.2-5.63 21.25-5.63h14.7a.84.84 0 1 1 0 1.68h-14.7c-7.06 0-14.11.25-20 5.12-6.38 5.21-9.32 13.69-11.93 21.17-1.51 4.28-2.94 8.57-2.94 12-.05 8.68 9.16 8.75 17.81 8.75zM311.7 90.54c0-3.11 1.18-6.64 2.35-10 1.85-5.21 3.95-11.17 9.58-14.87s12.6-3.78 18.73-3.78h12.35a.84.84 0 1 1 0 1.68h-12.35c-6.13 0-12.52.08-17.64 3.44-5 3.28-7.06 8.82-8.9 14-1.18 3.44-2.18 6.8-2.18 9.58 0 7.48 8.4 7.39 16 7.39H342a.84.84 0 1 1 0 1.68h-13.92c-7.39.04-16.38-.72-16.38-9.12zM378.06 49.88a1.07 1.07 0 0 1 .92-.59h14.36c7 0 14.78.25 17.72 5.88a11.66 11.66 0 0 1 1.26 5.71c0 5.12-2.18 11.09-4 16.38-2.27 6.47-4.87 13.44-11.17 17.89s-13.69 4.54-20 4.54h-15.2a.86.86 0 0 1-.92-.84v-.25zM393.35 51h-13.69l-16.47 47h13.44c6.47 0 13.52 0 19.4-4.2 5.71-4 8.15-10.58 10.42-17.05 1.93-5.38 3.95-11.34 3.95-16 0-9.1-7.73-9.75-17.05-9.75zM465.13 71.05c0 3.19-1.26 6.8-2.35 10-1.93 5.46-4.28 11.34-9.66 14.87-5.54 3.7-12.1 3.78-17.72 3.78h-12.94a.86.86 0 0 1-.92-.84v-.25l12.68-36.12a1.07 1.07 0 0 1 .92-.59h12.52c7.98 0 17.47.42 17.47 9.15zm-18.06-7.47h-11.25L423.72 98h11c5.8 0 12.1 0 17.3-3.44 4.79-3.19 7-8.57 8.9-14 1.18-3.28 2.27-6.72 2.27-9.58.01-7.49-8.14-7.4-16.12-7.4zM512 99.7h-34.35a.86.86 0 0 1-.92-.84v-.25l17.05-48.72a1.07 1.07 0 0 1 .92-.59h34.36a.84.84 0 1 1 0 1.68h-33.69l-8.82 25.2h28.05a.84.84 0 1 1 0 1.68H486L478.91 98H512a.84.84 0 1 1 0 1.68zM560.61 99.7h-29.07a.86.86 0 0 1-.92-.84v-.25l12.68-36.12a1.07 1.07 0 0 1 .92-.59h29.06a.84.84 0 1 1 0 1.68H544.9L539.1 80h22.76a.84.84 0 1 1 0 1.68h-23.35L532.8 98h27.8a.84.84 0 1 1 0 1.68zM580.06 98.94l17.14-49.06a1.07 1.07 0 0 1 .92-.59h34.36a.84.84 0 1 1 0 1.68h-33.69L590 76.18h28a.84.84 0 1 1 0 1.68h-28.62l-7.56 21.59a1 1 0 0 1-.84.59.88.88 0 0 1-.92-1.1zM633.41 98.94l12.77-36.46a1.07 1.07 0 0 1 .92-.59h29.06a.84.84 0 1 1 0 1.68h-28.39L642 80h22.76a.84.84 0 1 1 0 1.68h-23.37l-6.22 17.81a1 1 0 0 1-.84.59.88.88 0 0 1-.92-1.14z"/></svg>