<svg data-name="Ebene 1" xmlns="http://www.w3.org/2000/svg" viewBox="0 0 700 150"><path fill="#d7ffff" d="M0 0h700v150H0z"/><path d="M24.88 97.68V74.92c0-6.8.25-14.62 4.45-20.33C34 48.29 41.76 48 47.31 48c5.88 0 13.61.59 18.06 6.64 4.12 5.63 4.45 13 4.45 19.4v23.64a3.53 3.53 0 0 1-3.61 3.32 3.45 3.45 0 0 1-3.53-3.36V80.38H32v17.3a3.54 3.54 0 0 1-3.59 3.32 3.46 3.46 0 0 1-3.53-3.32zm37.8-24c-.08-6-.67-12-3.11-15.29-2.1-2.86-6.47-3.7-12.26-3.7-5.54 0-10 .76-12.18 3.7-2.35 3.19-2.94 9.07-3.11 15.29zM86.27 97.68V79.37c0-4.62.17-10.16 4.12-14.28s9.58-4.54 13.78-4.54h2.6c4.54 0 10.5.17 14.62 4.54 3.86 4 4.2 9.24 4.2 13.44 0 .76-.08 1.6-.08 2.27v16.88A3.45 3.45 0 0 1 122 101a3.53 3.53 0 0 1-3.61-3.36V84.16H93.41v13.52a3.54 3.54 0 0 1-3.62 3.32 3.46 3.46 0 0 1-3.52-3.32zm32.09-20.24c-.17-3.44-.76-6.3-2.27-7.9-1.85-1.93-5.12-2.27-10.16-2.27-4.7 0-8.32.25-10.25 2.27-1.51 1.6-2 4.37-2.18 7.9zM141.81 52.66a3.42 3.42 0 0 1 3.53-3.36h14.53c5 0 10.75.17 15.2 3 5 3.19 5.29 8.82 5.29 12.52 0 3.28-.42 7.39-3 10.5l1.51.5a11.33 11.33 0 0 1 7.06 10.84c0 4.2-1.85 8.74-6.3 10.75-4.62 2.1-10.33 2.27-15.37 2.27h-18.9a3.46 3.46 0 0 1-3.53-3.36zM171 71.81c1.34-.84 2.18-3.19 2.18-7 0-3.53-.76-6-2.18-7-2.35-1.51-7.56-1.85-13.1-1.85h-9v17.7h9c5.17 0 10.71-.25 13.1-1.85zm-22 8.57V93h12.18c5.63 0 12.26-.17 15.37-1.6 1.09-.5 2.27-2.1 2.27-4.7a4.88 4.88 0 0 0-2.69-4.62c-3.19-1.26-9.32-1.6-15.29-1.68zM238.51 88.61a9.86 9.86 0 0 1-5.71 9.24c-3.95 1.68-8.9 1.85-13.1 1.85h-16.47a3.46 3.46 0 0 1-3.53-3.36V65.26a3.42 3.42 0 0 1 3.53-3.36h12.85c4.12 0 8.82.17 12.52 1.93 4.2 2 5.12 6.22 5.12 9.16A11.2 11.2 0 0 1 232 79.2a10 10 0 0 1 6.51 9.41zm-13.18-12.35c.42-.25 1.26-1.26 1.26-3.28 0-1.85-.76-2.94-1.26-3.19-1.93-.92-6.64-1.18-11.26-1.18h-7.22v8.82h7.22c4.28.01 9.24-.16 11.26-1.17zm-18.48 7.9V93h9.91c4.79 0 10.58-.17 13.1-1.26.67-.25 1.51-1.26 1.51-3.11a3.24 3.24 0 0 0-1.93-3.11c-2.94-1.09-9.91-1.34-15.37-1.34zM292.86 56h-15.71c-7.14 0-12.77.34-16 3.78-3.57 3.63-3.82 10.22-3.82 17.22 0 6 .67 10.67 3.44 12.94 3.36 2.77 9.74 3 16.38 3h15.71a3.37 3.37 0 1 1 0 6.72h-18.31c-5.88 0-13.1-.34-18.48-4.7-5.8-4.79-5.88-12.18-5.88-18V74.5c0-6.22.34-13.69 5.63-19.24 5.63-5.8 13.78-6 20.33-6h16.72a3.37 3.37 0 1 1 0 6.72zM345.14 68.62h-13.27c-6.22 0-11.93.34-14.7 2.35-2.18 1.6-2.86 5.29-2.86 9.83 0 4.87.84 8.32 2.86 9.83C320 92.73 326 93 331.87 93h13.27a3.37 3.37 0 1 1 0 6.72h-16c-5.21 0-11.51-.34-16.3-3.86-5.21-3.86-5.63-10.16-5.63-15 0-4.45.17-11 5.63-15 5-3.61 11.59-3.86 17.22-3.86h15.12a3.37 3.37 0 1 1 0 6.72zM363.22 52.66a3.42 3.42 0 0 1 3.53-3.36h15.45c6.55 0 14.7.17 20.33 6 5.29 5.54 5.63 13 5.63 19.24V77c0 5.8-.08 13.19-5.88 18-5.37 4.37-12.6 4.7-18.48 4.7h-17.05a3.44 3.44 0 0 1-3.53-3.36zM381.11 93c6.64 0 13.1-.25 16.46-3 2.78-2.31 3.43-7 3.43-13 0-7-.25-13.61-3.78-17.22-3.28-3.44-9-3.78-16.13-3.78h-10.73v37zM422.51 65.26A3.42 3.42 0 0 1 426 61.9h13.9c5.63 0 12.26.25 17.22 3.86 5.46 4 5.63 10.58 5.63 15 0 4.87-.42 11.17-5.63 15-4.79 3.53-11.09 3.86-16.3 3.86H426a3.44 3.44 0 0 1-3.53-3.36zM438.05 93c5.88 0 11.84-.25 14.7-2.35 2-1.51 2.86-5 2.86-9.83 0-4.54-.67-8.23-2.86-9.83-2.77-2-8.48-2.35-14.7-2.35h-8.4V93zM515.33 99.7H480a3.44 3.44 0 0 1-3.53-3.36V52.66A3.42 3.42 0 0 1 480 49.3h35.36a3.37 3.37 0 1 1 0 6.72h-31.78v17.64h26.71a3.37 3.37 0 1 1 0 6.72h-26.71V93h31.75a3.37 3.37 0 1 1 0 6.72zM567.06 99.7H537a3.44 3.44 0 0 1-3.53-3.36V65.26A3.42 3.42 0 0 1 537 61.9h30.07a3.37 3.37 0 1 1 0 6.72H540.6v8.82H562a3.37 3.37 0 1 1 0 6.72h-21.4V93h26.46a3.37 3.37 0 1 1 0 6.72zM585.13 97.68v-45a3.42 3.42 0 0 1 3.53-3.36H624a3.37 3.37 0 1 1 0 6.68h-31.73v17.66H619a3.37 3.37 0 1 1 0 6.72h-26.73v17.3a3.54 3.54 0 0 1-3.61 3.36 3.46 3.46 0 0 1-3.53-3.36zM639.34 97.68V65.26a3.42 3.42 0 0 1 3.53-3.36h30.07a3.37 3.37 0 1 1 0 6.72h-26.46v8.82h21.42a3.37 3.37 0 1 1 0 6.72h-21.42v13.52a3.54 3.54 0 0 1-3.61 3.36 3.46 3.46 0 0 1-3.53-3.36z"/></svg>