<svg data-name="Ebene 1" xmlns="http://www.w3.org/2000/svg" viewBox="0 0 700 150"><path fill="#d7ffff" d="M0 0h700v150H0z"/><path d="M24.72 98.19v-23c0-7.81 10.67-9.74 11.84-11.26 1.26-1.68.08-15.62 9.74-15.62s8.7 14.26 9.75 15.6c1.35 1.77 11.85 3.62 11.85 11.26v23a2.69 2.69 0 0 1-5.38 0V77.61H30.1v20.58a2.69 2.69 0 0 1-5.38 0zm36.12-25.54c-2.1-.92-5.71-1.43-9.16-5.8-5.63-7.31-.84-13.52-5.38-13.52s.7 5.88-5.3 13.52c-3.28 4.2-7.06 4.7-9.16 5.8zM88.25 98.19V80.8c0-6.8 10-8.23 10.33-8.57.5-.59.92-11.34 8.48-11.34s8.24 11.11 8.49 11.34c.5.59 10.25 1.85 10.25 8.57v17.39a2.69 2.69 0 0 1-5.38 0V83.32h-26.8v14.87a2.69 2.69 0 0 1-5.38 0zm26.88-19.91a12.53 12.53 0 0 1-3.7-2.86c-5.21-5.63-1.76-9.49-4.37-9.49-2.77 0 1.09 3.53-4.37 9.49a10.82 10.82 0 0 1-3.86 2.86zM171 56.77h1.18c3.28 0 11.34.5 11.34 6.72S176 70.3 172.6 70.3c-1 0-1.76-.08-1.76-.08-.42.25-1.34 2.52-3.11 4.45 2.52 1.85 4 4.45 5 4.87a5.6 5.6 0 0 0 2.27.25c1.76 0 4-.17 6.3-.17 3.53 0 7.73 1.51 7.73 6.55 0 5.88-6.38 6.72-10.58 6.72-1.93 0-3.44-.17-3.61-.17-1.26 0-4 7-9.91 7H149a2.61 2.61 0 0 1-2.69-2.52V51.82A2.65 2.65 0 0 1 149 49.3h12.77c6.23 0 8.48 7.47 9.23 7.47zm-3.1 9.33a11.29 11.29 0 0 1 6-1.93 28.42 28.42 0 0 1 3.53.5c.5 0 .76-.25.76-1.18s-.25-1.26-.67-1.26a22.58 22.58 0 0 1-3.53.59 11.74 11.74 0 0 1-6-1.93c-5.21-3.19-4.45-6.55-6.13-6.55h-10.18v18.31h10.08c1.77 0 .51-3.11 6.14-6.55zm7.73 18.82a12.67 12.67 0 0 1-5.21-.92c-5.46-2.44-6.38-6.38-8.65-6.38h-10.09v17.04H165c1.93 0 1.51-3.36 7.22-6.3a13.21 13.21 0 0 1 6-1.51c2.27 0 3.86.76 4.7.76.59 0 .84-.34.84-1.43 0-1.51.17-1.6-1.93-1.6-1.75 0-3.69.33-6.21.33zM236.48 95a43.27 43.27 0 0 1-4.87-.5h-.08c-.92.42-3.61 5.21-8.57 5.21h-13.69a2.62 2.62 0 0 1-2.69-2.52V64.42a2.65 2.65 0 0 1 2.69-2.52h10.92c5.12 0 7.64 5.21 7.9 5.29a5.53 5.53 0 0 0 2 .17c.76 0 1.68-.08 2.6-.08h.08a7.18 7.18 0 0 1 5 1.51 5.08 5.08 0 0 1 1.51 3.86c0 4.2-4.12 5.8-7.48 5.8a24.59 24.59 0 0 1-3.7-.42c-.25 0-.92 1.26-1.93 2.35 1.76 1.34 2.94 2.77 3.61 3a3.29 3.29 0 0 0 1.09.17c1.6 0 4.12-.42 6.72-.42a7.17 7.17 0 0 1 4.79 1.43 5.49 5.49 0 0 1 1.62 4.39c0 4.28-3.82 6.05-7.52 6.05zm-2.77-22.68c-.59 0-1.85.25-3.36.25a10.73 10.73 0 0 1-4.87-1.09c-4.45-2.18-4.37-4.54-5.29-4.54H212v11.34h8.23c1 0 .42-2.1 5.29-4.54a10.57 10.57 0 0 1 4.7-1c1.34 0 2.6.17 3.28.17.34 0 .42.17.42-.25-.04-.18.08-.35-.21-.35zm4.62 15.88c-.92 0-3.19.59-6 .59a13.44 13.44 0 0 1-4.7-.76c-4.62-1.76-5.88-4.7-7.48-4.7H212v11.33h11c1.34 0 1.18-2.35 6.22-4.62a10.62 10.62 0 0 1 4.54-.84c1.93 0 3.61.34 4.54.34.42 0 .42 0 .42-.59s.03-.76-.39-.76zM297.92 54.34h-15.46c-4.45 0-.92 6.8-7.39 13.19-6.8 6.8-13.27 2.6-13.27 7.64s6.55.76 13.27 7.06 3.11 12.43 7.39 12.43h15.46a2.53 2.53 0 1 1 0 5h-15.46c-8.9 0-9.58-12.43-11.26-14-1.26-1.26-14.78-1.51-14.78-10.5s13-9.41 14.7-11.09c1.43-1.43 1.93-14.79 11.34-14.79h15.46a2.53 2.53 0 1 1 0 5zM344 66.94h-13c-2.77 0-.84 4.7-6.72 9.24a12.28 12.28 0 0 1-8 2.86c-.76 0-1.34-.08-1.85-.08-1.18 0-1.85.25-1.85 1.85s.84 1.85 2.35 1.85h1a12.52 12.52 0 0 1 8.32 2.77c6.22 4.87 3.86 9.24 6.72 9.24h13a2.53 2.53 0 1 1 0 5H331c-7.31 0-9.07-9.58-10.16-10.42-.59-.42-13.61-.17-13.61-8.48S320 73 320.82 72.31 323.6 61.9 331 61.9h13a2.53 2.53 0 1 1 0 5zM362.08 51.82a2.65 2.65 0 0 1 2.69-2.52h14.36c9.41 0 10 13.36 11.42 14.79 1.68 1.68 14.7 2.18 14.7 11.09s-13.52 9.24-14.79 10.5c-1.68 1.6-2.44 14-11.34 14h-14.36a2.6 2.6 0 0 1-2.69-2.52zm17.05 42.84c4.28 0 .76-6 7.48-12.43s13.27-2.1 13.27-7.06-6.47-.84-13.27-7.64c-6.47-6.38-3-13.19-7.48-13.19h-11.68v40.32zM421.92 64.42a2.64 2.64 0 0 1 2.69-2.52h12c7.39 0 9.32 9.74 10.16 10.42s13.61.25 13.61 8.48-13 8.06-13.61 8.48c-1.09.84-2.86 10.42-10.16 10.42h-12a2.6 2.6 0 0 1-2.69-2.52zm14.7 30.24c2.86 0 .5-4.37 6.72-9.24a12.53 12.53 0 0 1 8.32-2.77h1c1.51 0 2.35-.17 2.35-1.85s-.67-1.85-1.85-1.85c-.5 0-1.09.08-1.85.08a12.29 12.29 0 0 1-8-2.86c-5.88-4.54-3.95-9.24-6.72-9.24h-9.29v27.73zM514.79 99.7h-35.12a2.6 2.6 0 0 1-2.67-2.52V51.82a2.65 2.65 0 0 1 2.69-2.52h35.11a2.53 2.53 0 1 1 0 5h-32.44v18.35h27.38a2.62 2.62 0 0 1 2.69 2.52 2.55 2.55 0 0 1-2.69 2.44h-27.38v17.05h32.42a2.53 2.53 0 1 1 0 5zM566.54 99.7h-29.81a2.6 2.6 0 0 1-2.73-2.52V64.42a2.65 2.65 0 0 1 2.69-2.52h29.82a2.53 2.53 0 1 1 0 5h-27.1v11.38h22.09a2.53 2.53 0 1 1 0 5h-22.09v11.38h27.13a2.53 2.53 0 1 1 0 5zM587.29 98.19V51.82A2.65 2.65 0 0 1 590 49.3h35.11a2.53 2.53 0 1 1 0 5h-32.44v18.35h27.38a2.62 2.62 0 0 1 2.69 2.52 2.55 2.55 0 0 1-2.69 2.44h-27.38v20.58a2.69 2.69 0 0 1-5.38 0zM641.47 98.19V64.42a2.65 2.65 0 0 1 2.69-2.52H674a2.53 2.53 0 1 1 0 5h-27.15v11.38h22.09a2.53 2.53 0 1 1 0 5h-22.09v14.91a2.69 2.69 0 0 1-5.38 0z"/></svg>