<svg data-name="Ebene 1" xmlns="http://www.w3.org/2000/svg" viewBox="0 0 700 150"><path fill="#d7ffff" d="M0 0h700v150H0z"/><path d="M40.93 47.7c2.6 0 9.41.25 13.36.67 6.13.67 8.4 1.6 9.58 2.69 2.77 2.52 7.48 14.53 10.5 22.09h.08L85.54 101c.08.17-.5.25-1.43.25-1.76 0-6.72-.42-6.89-.92l-10.75-27H40.85L51.94 101c.08.08-.42.25-1.43.25-1.93 0-6.8-.59-6.89-.92L32.53 72.48c-2.86-7.14-7.22-18.06-7.22-21.5s9.57-3.28 15.62-3.28zM66 72.23c-3-7.56-7.81-19.4-10.42-21.76A7.93 7.93 0 0 0 52.1 49c-.42 0-2.94-.08-5.8-.08h-.17c-1.6 0-11.93.08-12.52 2.27-.08.17 0 .34 0 .59 0 3.19 3.95 13.36 6.8 20.5zM106.22 100.37l-7.05-17.81c-2-5-5.12-12.68-5.12-15.37a1.64 1.64 0 0 1 .08-.67c.76-1.93 8.74-2 13.61-2 2.35 0 8.82.17 12.43.59 5.21.59 7.06 1.34 8 2.1 2.27 1.85 5.63 10.5 7.81 16L143.1 101c.08.17-.5.25-1.43.25-1.76 0-6.72-.42-6.89-.92l-6.72-16.88h-20.58l7.06 17.55c.08.08-.42.25-1.43.25-1.93.04-6.8-.54-6.89-.88zm21.42-18.06c-2.18-5.54-5.71-14-7.73-15.71-1.76-1.43-3.28-.92-7-.92-1.43 0-9.91.08-10.5 1.6a1.25 1.25 0 0 0-.08.59c0 2.44 2.69 9.41 4.7 14.45zM183.76 72.9l2.77.25a19.19 19.19 0 0 1 5.21 1.26c3 1.51 5.21 7.56 7 11.93 1.43 3.44 3.28 8.06 3.28 10.5a2 2 0 0 1-.42 1.34c-1.43 1.43-11.26 1.51-17.05 1.51h-14.39a24.65 24.65 0 0 1-6.55-.76c-.17-.08-.25-.08-.25-.17l-19.75-49.21c-.08-.17.67-.25 1.43-.25h11c3.95 0 12.1.17 16.8.76a17.86 17.86 0 0 1 5.29 1.18c2.35 1.26 4.37 6.64 5.88 10.42 1.18 3 2.86 7.06 2.86 9.16 0 1.66-1.17 1.83-3.11 2.08zm-18.48-.67c5 0 11.93.08 12.94-.92.25-.17.34-.59.34-1.09 0-2-1.6-6.21-2.86-9.24-1.51-3.86-3.78-9.74-6.22-10.42-1.34-.08-5-.17-8-.17H152l8.74 21.84zm-4.12 1.18l10.16 25.2h7.31c5.71 0 13.52 0 14.7-1.18a1.74 1.74 0 0 0 .34-1.26c0-2.35-1.85-7-3.28-10.5-1.76-4.37-4.37-10.58-6.72-11.76a2.74 2.74 0 0 0-.84-.25c-1.18-.08-7.06-.25-12.18-.25zM245.37 82.9a33.74 33.74 0 0 1 5.46 1c2.77 1 3.78 4.62 5 7.48.84 2 1.85 4.45 1.85 6 0 .59-.08 1.09-.5 1.34-1.43.92-9.07.92-13.94.92h-13.33a24.65 24.65 0 0 1-6.55-.76c-.17-.08-.25-.08-.25-.17l-13-32.42c-.08-.17.67-.25 1.43-.25h9.41a134.81 134.81 0 0 1 16.21.76 11.76 11.76 0 0 1 3.53.84c2.1 1 3.36 4.62 4.45 7.39.84 2.1 1.93 4.7 1.93 6.21-.07 1.24-.52 1.41-1.7 1.66zm-7-1.26a1 1 0 0 0 .34-.92c0-1.51-1-4.2-1.85-6.3-1-2.6-2.6-6.3-4.12-7.14-1.51-.08-4.2-.08-6.38-.08h-7.9l6 15.12h2.94c4.36-.01 10.16-.01 11-.68zM225 83.49l6.13 15.12h5.21c4.87 0 11.59 0 12.6-.67a1.33 1.33 0 0 0 .42-1.09c0-1.51-1-4-1.85-6.13-1.09-2.69-2.52-6.22-4.28-7.14-2.27-.08-7-.08-10.33-.08zM319.42 99.53c0 .08-.42.17-1.43.17h-16.13c-6 0-20.83-.25-24.78-3.53-3.19-2.69-8.32-15.46-11.59-23.69-2.6-6.38-6.38-15.88-6.38-19.57a2.32 2.32 0 0 1 .17-1.18c1.26-2.44 12.26-2.44 19.24-2.44h14.36a36.69 36.69 0 0 1 5.88.59c1.68.34 1.09.5-.42.5h-14.88c-6.47 0-14.78 0-15.88 2.1a3.74 3.74 0 0 0-.17 1.09c0 3.61 3.7 13.19 6.3 19.57 3.28 8.23 8.57 21.17 11.59 23.69a8.29 8.29 0 0 0 3.36 1.43c1.18.25 3.7.34 9.58.34h14.36c1.4.01 6.82.34 6.82.93zM368.57 99.53c0 .08-.42.17-1.43.17H355c-3.19 0-14.78-.08-21-1.34a10.29 10.29 0 0 1-3.36-1.09c-2.69-1.68-5.63-9.41-7.73-14.7-1.76-4.37-4.28-10.58-4.28-13.44a2.36 2.36 0 0 1 .25-1.26c1.34-1.76 11.68-1.76 17.72-1.76h12.18a36.68 36.68 0 0 1 5.88.59c1.68.34 1.09.5-.42.5h-12.38c-5.88 0-13.61.08-14.7 1.51a1.91 1.91 0 0 0-.25 1.09c0 2.77 2.44 9.07 4.2 13.44 2.1 5.21 5.38 13 7.73 14.53a4.51 4.51 0 0 0 1.68.59c.5.08 4.54.25 9 .25h12.26c1.33 0 6.79.33 6.79.92zM381.35 98.77l-19.74-49.22c-.08-.17.67-.25 1.43-.25h14.62c2.94 0 6.72 0 11.09.34 7.64.5 12 1.6 13.61 2.77 3.11 2.35 7.48 13.52 10.33 20.75 3 7.48 7.56 18.82 7.56 22.76a3.13 3.13 0 0 1-.17 1C419 99.7 408 99.7 401 99.7h-12.76a22.57 22.57 0 0 1-6.89-.93zm15.37-.17c6.22 0 14.2-.08 15.12-2.44a3.16 3.16 0 0 0 .08-.92c0-3.86-4.45-15.29-7.48-22.76-2.86-7.22-7.39-18.4-10.33-20.66-1.68-1.34-4-1.43-8.32-1.43H370l19.32 48.22zM442.25 98.77l-13-32.42c-.08-.17.67-.25 1.43-.25h10.67c5.8 0 20.66 0 24.36 2.44 2.69 1.76 5.63 9.49 7.73 14.7 1.76 4.45 4.28 10.58 4.28 13.44a2.57 2.57 0 0 1-.25 1.26c-1.34 1.76-11.84 1.76-17.72 1.76h-10.61a22.58 22.58 0 0 1-6.89-.93zm12.75-.16c5.63 0 13-.08 14.11-1.51a1.9 1.9 0 0 0 .25-1.09c0-2.77-2.44-9-4.2-13.44-2.1-5.21-5.37-13-7.73-14.53a5.45 5.45 0 0 0-1.68-.59c-.5-.08-4.45-.25-9-.25h-9.16l12.6 31.42zM498.76 98.77L479 49.55c-.08-.17.67-.25 1.43-.25h31.84a36.48 36.48 0 0 1 5.88.59c1.26.25 1.51.5-.42.5h-30.31l8.74 21.84h20.24a36.47 36.47 0 0 1 5.88.59c1.26.25 1.51.59-.42.59h-25.28l10.16 25.2H532c.67 0 6.8.25 6.8.92 0 .17-.59.17-1.43.17h-31.72a22.58 22.58 0 0 1-6.89-.93zM551.61 98.77l-13-32.42c-.08-.17.67-.25 1.43-.25h27.13a36.47 36.47 0 0 1 5.88.59c1.26.25 1.51.5-.42.5H547l6 15.12h15.54a36.46 36.46 0 0 1 5.88.59c1.26.25 1.51.59-.42.59h-20.54l6.13 15.12h20.58c.67 0 6.8.25 6.8.92 0 .17-.59.17-1.43.17h-27a22.57 22.57 0 0 1-6.93-.93zM626.84 73.15c0 .08-.42.25-1.43.25h-25.28l11.08 27.6c.08.08-.42.25-1.43.25-1.93 0-6.8-.59-6.89-.92l-20.32-50.78c-.08-.17.67-.25 1.43-.25h31.84a36.46 36.46 0 0 1 5.88.59c1.26.25 1.51.5-.42.5H591l8.74 21.84h20.24c1.31 0 6.86.34 6.86.92zM677 83.23c0 .08-.42.25-1.43.25H655l7.06 17.52c.08.08-.42.25-1.43.25-1.93 0-6.8-.59-6.89-.92l-13.61-34c-.08-.17.67-.25 1.43-.25h27.13a36.46 36.46 0 0 1 5.88.59c1.26.25 1.51.5-.42.5h-25.61l6 15.12h15.54c1.39.02 6.92.36 6.92.94z"/></svg>