<svg data-name="Ebene 1" xmlns="http://www.w3.org/2000/svg" viewBox="0 0 700 150"><path fill="#d7ffff" d="M0 0h700v150H0z"/><path d="M25.64 97.6a4.19 4.19 0 0 1 .17-1L33 75.93c2.52-7.31 5.46-16 11.84-21.84C51 48.46 58.56 48 64.28 48s14 .42 16.72 7.39a15.38 15.38 0 0 1 .92 5.54c0 5.88-2.6 12-4.37 17.22l-7.23 20.54a3.64 3.64 0 0 1-3.44 2.31 3.46 3.46 0 0 1-3.53-3.36 2.59 2.59 0 0 1 .25-1.09l5.63-16.21H39l-6.48 18.35a3.72 3.72 0 0 1-3.36 2.31 3.47 3.47 0 0 1-3.52-3.4zm45.94-23.94c1.68-5 3-10 3-13.44a7.85 7.85 0 0 0-.34-2.6c-.76-1.85-3.86-2.94-10-2.94-5.38 0-10.5.59-14.45 4.2-3.7 3.36-6.3 8.9-8.48 14.78zM131.62 81.89l-5.88 16.8a3.64 3.64 0 0 1-3.44 2.35 3.46 3.46 0 0 1-3.53-3.36 2.48 2.48 0 0 1 .17-1.09l4.37-12.43H98.69l-5.12 14.53a3.72 3.72 0 0 1-3.36 2.31 3.47 3.47 0 0 1-3.53-3.44 4.19 4.19 0 0 1 .17-1l5.88-16.88c1.68-4.87 3.78-10.92 9.07-15 5.21-3.95 10.92-4.12 15.2-4.12h2.86c4.28 0 10.16.34 13 5.12a10.33 10.33 0 0 1 1.43 5.54c.02 3.78-1.5 7.78-2.67 10.67zm-6-4.45a26.8 26.8 0 0 0 1.38-6.72 3.47 3.47 0 0 0-.34-1.76c-.67-1.09-3.19-1.68-8.57-1.68-4.62 0-8.4.08-11.76 2.6-2.27 1.76-3.86 4.45-5.21 7.56zM142.13 96.34a4.26 4.26 0 0 1 .17-1.09l15.29-43.68A3.74 3.74 0 0 1 161 49.3h15.54c4.62 0 10 .25 13.61 3.28A8.08 8.08 0 0 1 193 59a22 22 0 0 1-1.51 6.89c-1.18 3.36-2.94 7.22-6.3 9.91a8.1 8.1 0 0 1 5 7.81 13.25 13.25 0 0 1-.76 4.12 16.27 16.27 0 0 1-9 9.74c-5.21 2-11.34 2.18-16.55 2.18h-18.14a3.38 3.38 0 0 1-3.61-3.31zm12.94-16L150.61 93h10.84c5.63 0 12.26-.08 16.3-1.68a9.62 9.62 0 0 0 4.87-5.71 7.33 7.33 0 0 0 .42-1.93c0-1.09-.5-1.6-.76-1.68-2.77-1.26-10.84-1.6-17.22-1.6zm24.19-8.74c2.94-1.6 6.47-7.56 6.47-12.52a2.64 2.64 0 0 0-.34-1.51c-1.26-1.09-6.22-1.6-11.84-1.6h-10l-6.13 17.64h7.64c5.12.05 10.58-.12 14.19-1.97zM199.76 96.34a4.26 4.26 0 0 1 .17-1.09l10.92-31.08a3.64 3.64 0 0 1 3.36-2.27h12.68c6.89 0 15.71.59 15.71 8.06a11.92 11.92 0 0 1-.84 4.12 15.78 15.78 0 0 1-3.53 5.71 7.22 7.22 0 0 1 3.44 6.47 10.84 10.84 0 0 1-.59 3.36 13.55 13.55 0 0 1-7.9 8.32c-4.45 1.68-9.66 1.76-14 1.76h-15.81a3.38 3.38 0 0 1-3.61-3.36zm11.59-12.18L208.24 93h8.57c4.79 0 10.5-.17 13.78-1.34a7.09 7.09 0 0 0 3.78-4.12c.59-1.76-.17-2.1-.17-2.1-2.18-.92-9.41-1.26-14.7-1.26zm20.24-8A7.18 7.18 0 0 0 235 72a5.63 5.63 0 0 0 .34-2.35c-1.34-.67-6-1-10.42-1h-8.15l-3.11 8.82h5.8c4.32-.03 9.36-.12 12.13-1.29zM307.06 56h-15.63c-7 0-13 .17-18.23 4.12-5.38 4.12-8 11.09-10.42 18-1.34 3.95-2.1 7.06-2.1 9.32a4.57 4.57 0 0 0 .76 2.94c1.85 2.1 7.81 2.6 14.62 2.6h15.71a3.37 3.37 0 1 1 0 6.72h-19.32c-5.63 0-12.52-.42-16.55-5.12a10.92 10.92 0 0 1-2.52-7.31c0-3.86 1.51-8 2.69-11.34 2.35-6.72 5-15.2 12.6-21 7.39-5.63 15.88-5.63 22.68-5.63h15.71a3.37 3.37 0 1 1 0 6.72zM351.81 68.62h-13.35c-6.13 0-11.93.25-16 2.6-3.53 2-5.46 6.22-7.06 10.67a21.29 21.29 0 0 0-1.51 6.89 3 3 0 0 0 .59 2.1c1.6 1.51 7.14 2.1 13.19 2.1h13.27a3.37 3.37 0 1 1 0 6.72h-17c-5 0-10.92-.34-14.7-4.12a9.34 9.34 0 0 1-2.69-6.89 28.13 28.13 0 0 1 2-9c1.6-4.62 4-10.67 10.08-14.2s13.19-3.61 19-3.61h14.2a3.36 3.36 0 1 1 0 6.72zM372.51 51.57A3.75 3.75 0 0 1 376 49.3h16.5c6.22 0 14.11.34 17.89 6.55a13.93 13.93 0 0 1 1.93 7.22c0 5.21-2.27 10.67-3.78 15-2 5.88-4.71 12.85-11.42 17.14s-14.2 4.45-20.33 4.45h-16.21a3.44 3.44 0 0 1-3.53-3.36c0-1.09.17-1.09.17-1.09zM374.94 93c6.55 0 13.19-.08 18.14-3.28 4.37-2.77 6.72-8 8.74-13.78C403.59 70.8 405 66 405 62.57a6.42 6.42 0 0 0-.76-3.36c-1.6-2.6-6.47-3.19-13.94-3.19h-11.83L365.54 93zM427.59 64.17a3.64 3.64 0 0 1 3.36-2.27h15c5.29 0 11.51.25 15.37 4.12A9.43 9.43 0 0 1 464 72.9c0 3.28-1.26 6.64-2.1 9-1.76 5-4.28 10.75-10.08 14.2s-12.47 3.6-17.82 3.6h-14a3.44 3.44 0 0 1-3.53-3.36c0-1.09.17-1.09.17-1.09zM432 93c5.8 0 11.93-.08 16.13-2.6 3.36-1.93 5.38-6 7.06-10.67a22.64 22.64 0 0 0 1.43-6.89 3 3 0 0 0-.5-2.1c-1.51-1.51-6.8-2.1-13.19-2.1h-9.41L425 93zM509.09 99.7h-35.36a3.44 3.44 0 0 1-3.53-3.36c0-1.09.17-1.09.17-1.09l15.29-43.68a3.74 3.74 0 0 1 3.44-2.27h35.28a3.37 3.37 0 1 1 0 6.72h-32.76l-6.13 17.64h25.37a3.36 3.36 0 1 1 0 6.72h-27.73L478.68 93h30.41a3.37 3.37 0 1 1 0 6.72zM558.74 99.7h-30.07a3.44 3.44 0 0 1-3.53-3.36c0-1.09.17-1.09.17-1.09l10.92-31.08a3.64 3.64 0 0 1 3.36-2.27h30.07a3.36 3.36 0 1 1 0 6.72h-27.47l-3.11 8.82h20.08a3.36 3.36 0 1 1 0 6.72h-22.43l-3.1 8.84h25.12a3.37 3.37 0 1 1 0 6.72zM575.51 97.6a4.17 4.17 0 0 1 .17-1l15.71-45a3.74 3.74 0 0 1 3.44-2.27h35.28a3.37 3.37 0 1 1 0 6.72h-32.76l-6.13 17.64h25.37a3.36 3.36 0 1 1 0 6.72h-27.73l-6.47 18.31A3.72 3.72 0 0 1 579 101a3.47 3.47 0 0 1-3.49-3.4zM629.74 97.6a4.22 4.22 0 0 1 .17-1l11.34-32.42a3.64 3.64 0 0 1 3.36-2.27h30.07a3.36 3.36 0 1 1 0 6.72h-27.47l-3.11 8.82h20.08a3.36 3.36 0 1 1 0 6.72h-22.43l-5.12 14.53a3.72 3.72 0 0 1-3.36 2.35 3.47 3.47 0 0 1-3.53-3.45z"/></svg>