<svg data-name="Ebene 1" xmlns="http://www.w3.org/2000/svg" viewBox="0 0 700 150"><path fill="#d7ffff" d="M0 0h700v150H0z"/><path d="M25 96.09a3.26 3.26 0 0 1 .17-1.26l7.06-20.16c2.52-7.14 5.46-15.88 12-21.84C50.58 47 58.4 46.7 64.11 46.7c5.46 0 14.45.17 17.47 7.73a16.28 16.28 0 0 1 1.09 6c0 5.88-2.6 12.1-4.28 17l-7.06 20.01a4.43 4.43 0 0 1-8.57-1.34 3.26 3.26 0 0 1 .17-1.26l5.12-14.62H39.58l-6 17.22a4.36 4.36 0 0 1-4.2 2.86A4.25 4.25 0 0 1 25 96.09zm46-24.27c1.51-4.7 2.69-9.32 2.69-12.26a5.69 5.69 0 0 0-.34-2.18c-.5-1.26-2.94-2.27-9.24-2.27-5.38 0-10.16.5-13.86 3.86-3.19 2.94-5.63 7.64-7.64 12.85zM85.27 96.09a3.26 3.26 0 0 1 .17-1.26l5.71-16.38c1.68-4.79 3.7-10.84 9.24-15 5.29-3.95 11.09-4.12 15.37-4.12h1.43c.67 0 1.34-.08 2.18-.08 4.28 0 10.16.42 13.27 5.38a11 11 0 0 1 1.68 6c0 3.95-1.68 7.81-2.6 10.5l-5.8 16.3a4.43 4.43 0 0 1-8.57-1.34 3.37 3.37 0 0 1 .25-1.26L121.4 84H98.55l-4.7 13.44a4.36 4.36 0 0 1-4.2 2.86 4.25 4.25 0 0 1-4.38-4.21zm39-20.5a24.1 24.1 0 0 0 1-5.63c0-.5 0-.92-.17-1.09-.34-.5-2.44-1.18-7.9-1.18-4.62 0-8.32.08-11.34 2.35a14.13 14.13 0 0 0-4.12 5.54zM140 94.5a3.48 3.48 0 0 1 .17-1.34l14.7-42a4.59 4.59 0 0 1 4.2-2.86h14.53c5.54 0 12.77.25 16.21 4.7a9.14 9.14 0 0 1 1.85 5.8 21.56 21.56 0 0 1-1.43 6.8 23.51 23.51 0 0 1-5.38 9 9.4 9.4 0 0 1 4.2 7.81 13.32 13.32 0 0 1-.76 4.2 16.43 16.43 0 0 1-9.29 9.9c-5.21 2-11.26 2.18-16.3 2.18h-18.31A4.2 4.2 0 0 1 140 94.5zm14-14.28l-3.47 10.08h9.41c5.54 0 12.1-.08 15.79-1.51a8.62 8.62 0 0 0 4.27-4.88c.5-1.51.17-2.27.08-2.27-2.44-1.09-10.67-1.43-16.8-1.43zM176.9 70c2-1 3.78-3.61 5-7.06a13.65 13.65 0 0 0 .84-4.37V58c-1-.76-5.8-1.34-11.17-1.34h-9.24L157 71.82h6.3c5.03 0 10.33-.17 13.6-1.82zM196.51 94.5a3.48 3.48 0 0 1 .17-1.34L207 63.75a4.59 4.59 0 0 1 4.2-2.86H225c4.87 0 11.09.67 13.61 4a7.84 7.84 0 0 1 1.51 4.79 11.48 11.48 0 0 1-.76 4 15.53 15.53 0 0 1-2.86 5 8.41 8.41 0 0 1 3 6.3 11.93 11.93 0 0 1-.67 3.44 13.94 13.94 0 0 1-8.23 8.48c-4.45 1.6-9.49 1.76-13.78 1.76h-16a4.2 4.2 0 0 1-4.31-4.16zM209.2 84l-2.2 6.3h7.14c4.7 0 10.33-.08 13.36-1.18 1-.34 3.19-2.18 3.19-4.12-2.27-.76-8.48-1-14-1zm19-9.58a6.11 6.11 0 0 0 3-4.45c-1.6-.5-5.54-.67-9.41-.67h-7.48l-2.18 6.3h4.54c4.21 0 8.99-.17 11.51-1.18zM303.19 56.7h-16c-7 0-12.85.17-17.72 3.78-5 3.78-7.39 10.16-9.74 16.88a27.05 27.05 0 0 0-1.85 8.48 3.3 3.3 0 0 0 .5 2.18c1.43 1.6 7.22 2.27 14.11 2.27h16a4.21 4.21 0 1 1 0 8.4h-20.16c-5.54 0-12.26-.42-16.55-5.12a11.19 11.19 0 0 1-2.94-7.9c0-3.95 1.43-7.9 2.52-11 2.27-6.55 5-15 12.77-20.75 7.48-5.54 16-5.63 22.76-5.63h16.3a4.21 4.21 0 1 1 0 8.4zM350.07 69.3h-13.61c-6.13 0-11.93.25-15.71 2.35-3 1.68-5 5.38-6.38 9.49a17.74 17.74 0 0 0-1.18 6 3.14 3.14 0 0 0 .17 1.43c1.26 1.09 6.72 1.76 12.77 1.76h13.61a4.21 4.21 0 1 1 0 8.4H322c-4.87 0-10.75-.42-14.78-4.12a9.67 9.67 0 0 1-3.11-7.48 26.73 26.73 0 0 1 1.93-8.65c1.6-4.54 4-10.5 10.25-14 6-3.44 13.19-3.53 18.9-3.53h14.87a4.2 4.2 0 1 1 0 8.4zM371.18 51.15a4.59 4.59 0 0 1 4.2-2.86h17.22c6.13 0 13.94.42 18 6.72a14 14 0 0 1 2.18 7.81c0 5.21-2.18 10.5-3.61 14.53-2 5.71-4.87 12.77-11.68 17s-14.28 4.37-20.33 4.37h-16.48a4.26 4.26 0 0 1-4.37-4.2c0-1.34.17-1.34.17-1.34zM375 90.3c6.55 0 13-.17 17.64-3 3.86-2.35 6.13-7.06 8.06-12.6 1.76-5 2.94-9.41 2.94-12.43a5.56 5.56 0 0 0-.59-2.86c-1.26-1.93-5.8-2.69-13.36-2.69h-11.12L366.81 90.3zM425.06 63.75a4.59 4.59 0 0 1 4.2-2.86h15.54c5.21 0 11.17.34 15.29 4.12a9.59 9.59 0 0 1 3.19 7.48 26.88 26.88 0 0 1-1.93 8.65c-1.68 4.79-4.37 10.67-10.33 14s-12.52 3.56-17.81 3.56h-14.28a4.26 4.26 0 0 1-4.37-4.2c0-1.34.17-1.34.17-1.34zm5.88 26.54c5.8 0 11.68-.17 15.62-2.35 2.86-1.6 4.87-5.12 6.38-9.49a17.73 17.73 0 0 0 1.26-6 2.86 2.86 0 0 0-.25-1.43c-1.18-1.09-6.38-1.76-12.77-1.76h-8.82l-7.31 21zM507.33 98.7h-35.62a4.26 4.26 0 0 1-4.37-4.2c0-1.34.17-1.34.17-1.34l14.7-42a4.59 4.59 0 0 1 4.2-2.86H522a4.21 4.21 0 1 1 0 8.4h-32.4l-5.29 15.12h24.44a4.21 4.21 0 1 1 0 8.4h-27.38l-3.53 10.08h29.48a4.21 4.21 0 1 1 0 8.4zM557.64 98.7h-30.32a4.26 4.26 0 0 1-4.37-4.2c0-1.34.17-1.34.17-1.34l10.33-29.4a4.59 4.59 0 0 1 4.2-2.86H568a4.2 4.2 0 1 1 0 8.4h-27.24l-2.18 6.3h19.24a4.2 4.2 0 1 1 0 8.4h-22.19l-2.18 6.3h24.19a4.21 4.21 0 1 1 0 8.4zM573.61 96.09a3.26 3.26 0 0 1 .17-1.26l15.29-43.68a4.59 4.59 0 0 1 4.2-2.86h35.62a4.21 4.21 0 1 1 0 8.4h-32.43l-5.29 15.12h24.44a4.21 4.21 0 1 1 0 8.4h-27.39l-6 17.22a4.36 4.36 0 0 1-4.2 2.86 4.25 4.25 0 0 1-4.41-4.2zM628.22 96.09a3.26 3.26 0 0 1 .17-1.26l10.92-31.08a4.59 4.59 0 0 1 4.2-2.86h30.32a4.2 4.2 0 1 1 0 8.4h-27.21l-2.18 6.3h19.24a4.2 4.2 0 1 1 0 8.4H641.5l-4.7 13.44a4.36 4.36 0 0 1-4.2 2.86 4.25 4.25 0 0 1-4.38-4.2z"/></svg>