<svg data-name="Ebene 1" xmlns="http://www.w3.org/2000/svg" viewBox="0 0 700 150"><path fill="#d7ffff" d="M0 0h700v150H0z"/><path d="M26 97.69a.76.76 0 0 1 .08-.42l7.56-21.76c2.6-7.56 5.71-16.38 11.68-22 5.54-5.21 12.6-5.88 18.31-5.88s13 .67 15 6.47a14.17 14.17 0 0 1 .76 4.7C79.4 64.43 76.88 71 75 76.52l-7.61 21.67a1.94 1.94 0 0 1-3.7-.42 1.19 1.19 0 0 1 .17-.5l6.8-19.57H36.73l-7.14 20.5a1.92 1.92 0 0 1-1.76 1.18A1.72 1.72 0 0 1 26 97.69zM63.61 50.9c-5.46 0-11.17.67-15.62 4.87-4.7 4.45-7.56 11.59-10.08 18.56h33.93c1.93-5.54 3.78-11.42 3.78-15.88 0-6.37-4.36-7.55-12.01-7.55zM88.11 97.69a.76.76 0 0 1 .08-.42l6.22-18c1.85-5.21 3.86-11.09 8.74-15s10.75-4 15.29-4h.17c4.62 0 10.75.08 13.19 4.54a9 9 0 0 1 1.09 4.45c0 3.7-1.6 7.73-2.77 11.09l-6.3 17.89a1.68 1.68 0 0 1-1.68 1.18 1.79 1.79 0 0 1-1.93-1.6 1.07 1.07 0 0 1 .08-.5l5.54-15.79H97.51l-5.8 16.72A1.92 1.92 0 0 1 90 99.37a1.72 1.72 0 0 1-1.89-1.68zm30.4-34.19c-4.54 0-9 .08-12.85 3.19-3.36 2.69-5.29 6.89-7 11.42h28.22C128 74.84 129 71.57 129 69c0-5.16-4-5.5-10.49-5.5zM144.66 97c0-.17-.08-.34 0-.5l16.46-47a2 2 0 0 1 1.88-1.2h14.53c7.06 0 16.3.67 16.3 8.4a22.35 22.35 0 0 1-1.51 6.8c-1.6 4.62-4.2 9.49-9.41 11.84a18.18 18.18 0 0 1 3.95 1.34 6.57 6.57 0 0 1 3.61 6.3 13.18 13.18 0 0 1-.76 4c-1.34 3.86-4.12 7.73-8.23 9.41-5.21 2.18-11.76 2.27-17.22 2.27h-17.75a1.68 1.68 0 0 1-1.85-1.66zm10.5-19.32l-6.22 17.64h13.61c5.8 0 12.68 0 17.3-1.93 2.77-1.18 5.12-4.12 6.3-7.39a8.28 8.28 0 0 0 .59-2.94 3.7 3.7 0 0 0-1.74-3.52c-3.44-1.68-11.42-1.85-18.31-1.85zM182 72c3.28-1.76 5.29-5.46 6.72-9.49a18.64 18.64 0 0 0 1.18-5.8 3.88 3.88 0 0 0-.92-2.94c-2.1-1.85-7.48-2.1-13.19-2.1h-11.47l-8 22.68h10.33c5.56-.01 11.11-.01 15.35-2.35zM244.82 67.62a12.3 12.3 0 0 1-.84 4 13.37 13.37 0 0 1-6.13 7.64A16.71 16.71 0 0 1 240 80a5.78 5.78 0 0 1 3.36 5.54 10.75 10.75 0 0 1-.59 3.28 13.22 13.22 0 0 1-7.14 7.9c-4.45 1.76-10 1.93-14.62 1.93h-15.42a1.68 1.68 0 0 1-1.84-1.65c0-.17-.08-.34 0-.5l12.1-34.44a1.93 1.93 0 0 1 1.76-1.18h12.77c6.13.02 14.44.44 14.44 6.74zM212.9 81.48L208 95.34h11.34c5 0 10.92 0 14.78-1.51a9.75 9.75 0 0 0 5.12-5.88 8.17 8.17 0 0 0 .42-2.27 2.78 2.78 0 0 0-1.31-2.68c-2.86-1.34-9.91-1.51-15.71-1.51zm22.76-4.87c2.52-1.09 5.38-4.87 5.38-8.82a2.53 2.53 0 0 0-.76-2.18c-1.85-1.18-6.8-1.34-11.59-1.34H219l-4.87 13.86h8.57c4.57-.01 9.52-.01 12.97-1.52zM279.82 95.34h15a1.69 1.69 0 1 1 0 3.36h-17.35c-5.88 0-12.94-.34-16.46-5a9.77 9.77 0 0 1-1.93-6.22c0-3.86 1.51-8.15 2.86-12 2.52-7.22 5.38-15.88 12.52-21.59 6.8-5.46 14.87-5.63 21.84-5.63h15a1.69 1.69 0 1 1 0 3.36h-15c-7 0-13.78.25-19.4 4.79-6 4.87-8.9 12.77-11.42 20.08-1.43 4.2-2.6 8.06-2.6 11.17-.02 7.85 8.38 7.68 16.94 7.68zM354.61 64.26h-12.69c-6.13 0-12.26.08-17 3.11-4.54 2.86-6.55 8-8.32 12.94a29 29 0 0 0-2 8.74 5.08 5.08 0 0 0 1.09 3.53c2.27 2.6 8.23 2.77 14.2 2.77h12.71a1.69 1.69 0 1 1 0 3.36h-15c-5.21 0-11.42-.25-14.78-4.12a8.08 8.08 0 0 1-1.98-5.59 30.37 30.37 0 0 1 2.16-9.71c1.76-5 3.95-10.92 9.74-14.62s13.1-3.78 19.15-3.78h12.68a1.69 1.69 0 1 1 0 3.36zM376.78 49.47a2 2 0 0 1 1.85-1.18h14.27c6.8 0 15.29 0 18.65 6.13a13 13 0 0 1 1.45 6.23c0 5.12-2.18 10.92-3.95 15.88-2.18 6.22-4.71 13.27-11.17 17.64s-14 4.54-20.24 4.54h-15.48a1.77 1.77 0 0 1-1.85-1.71v-.5zm16.13 2.18H380l-15.4 43.69h11.84c6.55 0 13.52 0 19.15-3.87 5.29-3.61 7.73-9.66 9.91-16 1.85-5.29 3.7-10.75 3.7-15.12 0-8.19-6.97-8.69-16.3-8.69zM432.77 62.07a1.93 1.93 0 0 1 1.76-1.18H448c5.63 0 12.26.17 15.71 4.12a8.43 8.43 0 0 1 1.93 5.71c0 3.19-1.26 6.72-2.27 9.58-1.85 5.21-4.2 11.09-9.74 14.62-5.71 3.61-12.35 3.78-17.89 3.78h-13.22a1.77 1.77 0 0 1-1.85-1.7v-.5zm1.68 33.26c5.79 0 12.18 0 17.05-3.11 4.37-2.77 6.47-7.73 8.32-12.94 1.09-3.19 2-6.3 2-8.74a5.22 5.22 0 0 0-1.08-3.54c-2.18-2.52-7.81-2.77-14.2-2.77h-10.66L425 95.34zM512.19 98.7H477.5a1.77 1.77 0 0 1-1.85-1.7v-.5l16.46-47a2 2 0 0 1 1.89-1.2h34.69a1.69 1.69 0 1 1 0 3.36H495.3l-8 22.68h27.13a1.69 1.69 0 1 1 0 3.36h-28.28l-6.22 17.64h32.26a1.69 1.69 0 1 1 0 3.36zM560.81 98.7h-29.4a1.77 1.77 0 0 1-1.85-1.7v-.5l12.1-34.44a1.93 1.93 0 0 1 1.76-1.18h29.4a1.69 1.69 0 1 1 0 3.36h-28.06l-4.87 13.86h21.92a1.69 1.69 0 1 1 0 3.36h-23.1l-4.87 13.86h27a1.69 1.69 0 1 1 0 3.36zM579.34 97.69a.76.76 0 0 1 .08-.42l16.63-47.8a2 2 0 0 1 1.85-1.18h34.69a1.69 1.69 0 1 1 0 3.36h-33.34l-8 22.68h27.15a1.69 1.69 0 1 1 0 3.36h-28.31l-7.14 20.5a1.92 1.92 0 0 1-1.76 1.18 1.72 1.72 0 0 1-1.85-1.68zM632.87 97.69a.76.76 0 0 1 .08-.42l12.26-35.2A1.93 1.93 0 0 1 647 60.9h29.4a1.69 1.69 0 1 1 0 3.36h-28.07l-4.87 13.86h21.92a1.69 1.69 0 1 1 0 3.36h-23.1l-5.8 16.72a1.92 1.92 0 0 1-1.76 1.18 1.72 1.72 0 0 1-1.85-1.69z"/></svg>