<svg data-name="Ebene 1" xmlns="http://www.w3.org/2000/svg" viewBox="0 0 700 150"><path fill="#d7ffff" d="M0 0h700v150H0z"/><path d="M26.57 99.19V77c0-7.73-.08-16.55 3.86-22.18C34 49.72 40.68 49 46.31 49c6 0 12.52.92 16 5.88 3.69 5.42 3.91 13.65 3.91 20.71L66.13 77v22.19a.93.93 0 0 1-1.85 0V77.86H28.42v21.33a1 1 0 0 1-1 .84.81.81 0 0 1-.85-.84zm37.72-23c0-7.22-.08-15.46-3.61-20.5-2.86-4.2-8.48-5-14.36-5-5.54 0-11.26.67-14.28 5-3.36 4.87-3.61 12.94-3.61 20.5zM88.37 99.19V80.8c0-5.37-.08-11.26 3.36-15.2s9.16-4 13.61-4c4.87 0 10.16.25 13.52 4s3.44 9.16 3.44 13.94v19.65a.93.93 0 0 1-1.85 0V81.64H90.22v17.55a1 1 0 0 1-1 .84.81.81 0 0 1-.85-.84zM120.46 80c0-4.87-.17-10.08-3-13.36-2.69-3.11-7.14-3.36-12.1-3.36-4.62 0-9.41.17-12.18 3.36S90.22 74.83 90.22 80zM144.56 50.14a.84.84 0 0 1 .84-.84h13.27c5.54 0 11.84 0 16 2.86 3.86 2.69 4.28 7.48 4.28 11.42 0 4.28-.67 8.9-4.28 11.42a11.76 11.76 0 0 1-3.44 1.6 29.49 29.49 0 0 1 7.9 1.85c3.95 1.68 5.54 5.8 5.54 9.49 0 3.86-1.43 7.73-4.87 9.49-4.45 2.18-11 2.27-16.55 2.27H145.4a.81.81 0 0 1-.84-.84zm29 23.52c2.86-1.93 3.53-5.88 3.53-10.08 0-3.95-.59-8.06-3.53-10.08-3.46-2.35-9.56-2.5-15.14-2.5h-12v25.2h12c5.29-.02 11.51-.02 15.12-2.54zm-27.13 4.2V98h15.27c5.8 0 13 0 17.14-2.1 2.6-1.26 3.95-4.37 3.95-8 0-3.36-1.51-6.72-4.54-8-4.37-1.85-11.68-2.1-18.4-2.1zM203.81 62.74a.84.84 0 0 1 .84-.84h11.42c4.7 0 10.25 0 13.78 1.93 3.11 1.68 3.78 5.12 3.78 8 0 3.19-.92 6.38-3.78 7.9a12.15 12.15 0 0 1-1.85.76 21.86 21.86 0 0 1 5.71 1.43 8.37 8.37 0 0 1 4.87 7.9c0 3.28-1.26 6.55-4.28 8-3.78 1.85-9.41 1.93-14.11 1.93h-15.54a.81.81 0 0 1-.84-.84zm25 15.54c1.93-1.09 2.94-3.53 2.94-6.47 0-2.69-.84-5.38-2.94-6.55-2.94-1.6-8.15-1.68-12.94-1.68h-10.22V80h10.25c4.45 0 9.83 0 12.94-1.72zm-23.18 3.36V98h13c5 0 11.26 0 14.78-1.68 2.1-1 3.28-3.53 3.28-6.55 0-2.77-1.26-5.46-3.78-6.47-3.61-1.51-9.91-1.68-15.62-1.68zM294.71 51h-14.78c-7.06 0-13.86.34-18 5-4.45 5.12-4.54 13.52-4.54 21 0 6.55.25 12.94 4.45 16.88C266.23 98 273.37 98 279.93 98h14.78a.84.84 0 1 1 0 1.68h-15.88c-6.22 0-13.52-.17-18.31-4.62s-5-11.59-5-18.06v-1.24c0-7.14.25-15.29 5-20.75S273 49.3 279.93 49.3h14.78a.84.84 0 1 1 0 1.68zM345.81 63.58h-12.35c-6.22 0-12.43.08-16.21 3.36s-3.95 8.65-3.95 13.86c0 5.46.42 10.84 3.95 13.86C321.19 98 327.58 98 333.46 98h12.35a.84.84 0 1 1 0 1.68H332.2c-5.46 0-11.93-.17-16.3-3.86s-4.45-9.58-4.45-15c0-5.12 0-11.26 4.45-15s11.51-3.86 17.56-3.86h12.35a.84.84 0 1 1 0 1.68zM367.6 50.14a.84.84 0 0 1 .84-.84h14.36c7 0 14.78.25 19.49 5.71s5 13.61 5 20.75l-.12 1.24c0 6.47 0 13.52-4.87 18.06S390.2 99.7 384 99.7h-15.56a.78.78 0 0 1-.84-.84zM382.81 98c6.55 0 13.78 0 18.14-4.12 4.2-3.95 4.37-10.33 4.37-16.88 0-7.48 0-15.88-4.45-21-4.12-4.7-11-5-18.06-5h-13.36v47zM427.49 62.74a.84.84 0 0 1 .84-.84h12c6 0 13.1 0 17.56 3.86s4.45 9.91 4.45 15c0 5.46-.17 11.34-4.45 15s-10.84 3.86-16.3 3.86h-13.26a.78.78 0 0 1-.84-.84zM440.35 98c5.88 0 12.26 0 16.21-3.36 3.53-3 3.95-8.4 3.95-13.86 0-5.21-.25-10.67-3.95-13.86s-10-3.36-16.21-3.36h-11V98zM517.4 99.7H483a.78.78 0 0 1-.84-.84V50.14a.84.84 0 0 1 .84-.84h34.4a.84.84 0 1 1 0 1.68H484v25.2h28.39a.84.84 0 1 1 0 1.68H484V98h33.4a.84.84 0 1 1 0 1.68zM569.18 99.7H540a.78.78 0 0 1-.84-.84V62.74a.84.84 0 0 1 .84-.84h29.15a.84.84 0 1 1 0 1.68H541V80h23.1a.84.84 0 1 1 0 1.68H541V98h28.14a.84.84 0 1 1 0 1.68zM591 99.19V50.14a.84.84 0 0 1 .84-.84h34.44a.84.84 0 1 1 0 1.68h-33.45v25.2h28.39a.84.84 0 1 1 0 1.68h-28.39v21.33a1 1 0 0 1-1 .84.81.81 0 0 1-.83-.84zM645.29 99.19V62.74a.84.84 0 0 1 .84-.84h29.15a.84.84 0 1 1 0 1.68h-28.15V80h23.1a.84.84 0 1 1 0 1.68h-23.1v17.51a1 1 0 0 1-1 .84.81.81 0 0 1-.84-.84z"/></svg>