<svg xmlns="http://www.w3.org/2000/svg" viewBox="0 0 700 500"><path fill="#d7ffff" d="M0 0h700v500H0z" data-name="Ebene 2"/><g data-name="Ebene 1"><path d="M30.06 144.9V35c0-4.09 3.9-5.84 6.23-5.84a6.52 6.52 0 0 1 5.65 3.12l51.43 88.84 51.43-88.84a5.88 5.88 0 0 1 5.46-2.92 7.42 7.42 0 0 1 3.12.58A5.2 5.2 0 0 1 156.5 35v109.9c0 3.7-3.51 5.84-6.23 5.84S144 148.6 144 144.9V58l-45.2 78.12c-.78 1.56-3.31 2.92-5.84 2.92a5.9 5.9 0 0 1-5.07-2.92L42.53 58v86.9a6.25 6.25 0 0 1-12.47 0zM238.52 29.18c14.61 0 34.09.19 46.37 14.42C296.38 56.84 297 76.13 297 92.69l-.19 3.12c0 1.17.19 2.53.19 3.7 0 13.05-.58 28.44-12.47 39.55-12.08 11.3-29.42 11.69-44 11.69h-7c-13.64 0-30.2-.78-41.89-11.69-12.08-11.3-12.47-27.86-12.47-41.89 0-.39.19-1 .19-1.36 0-1.75-.19-3.51-.19-5.46 0-15.59.58-33.7 11.88-46.76 12.08-14 31.37-14.42 47-14.42zm-37.6 21.62c-8.77 10.13-9.16 27.86-9.16 45 0 15 .78 27.86 8.57 35.26 8.38 7.79 22.6 8 37.6 8 15.78 0 29.81-.58 37.8-8 8.18-7.6 8.57-21 8.57-35.26 0-17.92-.78-35.26-9.16-45-8-9.16-21.82-9.94-37.21-9.94-16.17.01-29.41 1.14-37.01 9.94zM331.83 144.9a6.25 6.25 0 0 1-12.47 0V37.36c0-4.09 3.9-5.84 6.23-5.84h51.63c10.33 0 22.6.39 31.56 7.21 9.94 7.6 9.74 19.68 9.74 27.86 0 9-.39 20.65-9.74 27.86-6.62 5.07-14.81 6.62-22.41 7l31.17 40.13a5.72 5.72 0 0 1 1.17 3.31c0 3.12-3.12 5.84-6.43 5.84a6.44 6.44 0 0 1-5.07-2.53l-36-46.56h-39.38zm69-59.42c3.9-3.12 5.26-9.74 5.26-18.9 0-8.57-1-15.59-5.26-18.9-5.07-3.9-15-4.48-26.3-4.48h-42.7V90h42.87c10.52 0 20.84-.43 26.1-4.52zM529.77 148.41h-81.44a6 6 0 0 1-6.23-5.84V37.36c0-4.09 3.9-5.84 6.23-5.84h81.44a6.07 6.07 0 0 1 6.23 5.84 6.07 6.07 0 0 1-6.23 5.84h-75.2V90h63.51a5.86 5.86 0 1 1 0 11.69h-63.51v35.07h75.2c2.73 0 6.23 2.14 6.23 5.84s-3.5 5.81-6.23 5.81zM30.06 304.9v-52.6c0-16.37.39-35.07 9.94-48.32 9.94-13.64 27.28-14.81 40.13-14.81 13.83 0 30.78 1.75 40.33 14.81 9.35 12.86 9.94 30.78 9.94 46 0 1.95-.19 3.9-.19 5.84v49.1c0 3.7-3.51 5.84-6.23 5.84s-6.23-2.14-6.23-5.84v-43.27H42.53v43.25a6.25 6.25 0 0 1-12.47 0zm87.67-54.9c-.19-15-1.17-30.59-7.6-39.55-5.46-7.6-16.56-9.55-30-9.55-12.86 0-24.16 1.56-29.81 9.55-6.23 8.77-7.4 24-7.6 39.55zM161.56 304.9V195c0-4.09 3.9-5.84 6.23-5.84a6.53 6.53 0 0 1 4.87 2.14l76.57 85.92V195c0-3.7 3.51-5.84 6.23-5.84s6.23 2.14 6.23 5.84v97.41c0 .39.19.58.19 1s-.19.58-.19 1v10.49a6.25 6.25 0 0 1-12.47 0v-9.55L174 211v93.9a6.25 6.25 0 0 1-12.47 0zM293.06 197.36c0-4.09 3.9-5.84 6.23-5.84H333c15.78 0 35.26.19 47.93 13.83 11.69 12.66 12.47 30.39 12.47 45.39 0 1.75-.19 3.31-.19 5.07 0 13.83 0 30.78-12.66 41.69-12.08 10.33-29 10.91-42.86 10.91H299.3a6 6 0 0 1-6.23-5.84zm39.55 99.36c15.39 0 30.78-.39 39.35-7.79 7.6-6.62 8.77-18.7 8.77-33.12 0-16.56-.39-33.51-9.35-43.06-8.18-9-22.21-9.55-38.77-9.55h-27.08v93.52zM30.06 464.9V355c0-4.09 3.9-5.84 6.23-5.84a6.52 6.52 0 0 1 5.65 3.12l51.43 88.84 51.43-88.84a5.88 5.88 0 0 1 5.46-2.92 7.42 7.42 0 0 1 3.12.58 5.2 5.2 0 0 1 3.12 5.06v109.9c0 3.7-3.51 5.84-6.23 5.84S144 468.6 144 464.9V378l-45.2 78.12c-.78 1.56-3.31 2.92-5.84 2.92a5.9 5.9 0 0 1-5.07-2.92L42.53 378v86.9a6.25 6.25 0 0 1-12.47 0zM275.54 468.41H194.1a6 6 0 0 1-6.23-5.84V357.36c0-4.09 3.9-5.84 6.23-5.84h81.44a5.86 5.86 0 1 1 0 11.69h-75.2V410h63.51a5.86 5.86 0 1 1 0 11.69h-63.52v35.07h75.2c2.73 0 6.23 2.14 6.23 5.84s-3.5 5.81-6.22 5.81zM301.25 351.52h101.31a5.87 5.87 0 1 1 0 11.69h-44.42V464.9c0 3.7-3.51 5.84-6.23 5.84s-6.23-2.14-6.23-5.84V363.2h-44.43c-2.73 0-6.23-1.95-6.23-5.84s3.5-5.84 6.23-5.84zM424.57 464.9v-52.6c0-16.37.39-35.07 9.94-48.32 9.94-13.64 27.28-14.81 40.13-14.81 13.83 0 30.78 1.75 40.33 14.81 9.35 12.86 9.94 30.78 9.94 46 0 1.95-.2 3.9-.2 5.84v49.1c0 3.7-3.51 5.84-6.23 5.84s-6.23-2.14-6.23-5.84v-43.27H437v43.25a6.25 6.25 0 0 1-12.47 0zm87.67-54.9c-.2-15-1.17-30.59-7.6-39.55-5.46-7.6-16.56-9.55-30-9.55-12.86 0-24.16 1.56-29.81 9.55-6.23 8.77-7.4 24-7.6 39.55z"/></g></svg>