<svg data-name="Ebene 1" xmlns="http://www.w3.org/2000/svg" viewBox="0 0 700 150"><path fill="#d7ffff" d="M0 0h700v150H0z"/><path d="M25.56 98.69v-22.6c0-7.31.17-15.71 4.12-21.34s11-6.13 16.63-6.13c6 0 12.94.84 16.72 6.13 3.86 5.47 4.11 13.45 4.11 20.25 0 .67-.08 1.34-.08 2v21.69a1.86 1.86 0 0 1-3.7 0v-20h-34.1v20a1.86 1.86 0 0 1-3.7 0zm37.8-23.35c0-6.89-.34-14.36-3.44-18.82-2.6-3.7-7.81-4.62-13.61-4.62-5.54 0-10.75.76-13.52 4.62-3 4.37-3.44 11.68-3.44 18.82zM87.27 98.69V80c0-5 .17-10.67 3.7-14.62 3.7-4.12 9.32-4.2 13.69-4.2h.59c4.79 0 10.58.08 14.28 4.2 3.44 3.78 3.61 9.16 3.61 13.69v19.62a1.86 1.86 0 0 1-3.7 0V82.48H91v16.21a1.86 1.86 0 0 1-3.7 0zm32.17-19.57c-.08-4.45-.34-8.9-2.77-11.59s-6.47-3-11.42-3c-4.62 0-8.9.25-11.42 3-2.35 2.6-2.69 6.89-2.77 11.59zM173.83 76.26a27.51 27.51 0 0 1 5 1.34c4.28 1.85 6 6.13 6 9.91s-1.43 8-5.29 9.83c-4.45 2.18-10.75 2.35-16 2.35h-18.36a1.77 1.77 0 0 1-1.85-1.69V51a1.81 1.81 0 0 1 1.85-1.68H159c5.29 0 11.42.08 15.62 2.94s4.62 7.9 4.62 11.76c-.04 4.6-.96 9.72-5.41 12.24zm-1.43-3.19c2.35-1.6 3.11-5 3.11-9.07 0-3.86-.67-7.39-3.11-9.07-3.11-2.1-8.74-2.27-14.36-2.27H147v22.68h11c5.41 0 11.21-.09 14.4-2.27zM147 78.7v17.64h14.28c5.8 0 12.68 0 16.46-1.85 2-1 3.36-3.61 3.36-7 0-3-1.43-5.88-3.86-6.89-3.86-1.6-10.75-1.93-17.22-1.93zM202.18 63.58A1.81 1.81 0 0 1 204 61.9h12c4.45 0 9.66.17 13.27 2 3.44 1.85 4.2 5.46 4.2 8.23 0 2.94-.84 6.22-3.53 8a25.72 25.72 0 0 1 3 .92 8.78 8.78 0 0 1 5.38 8.4c0 3.36-1.34 6.8-4.7 8.32-3.86 1.76-9.16 1.93-13.69 1.93H204a1.78 1.78 0 0 1-1.82-1.7zm25.28 14.11c1.43-.76 2.35-2.86 2.35-5.54 0-2.44-.76-4.62-2.35-5.46-2.52-1.34-7.56-1.43-12.35-1.43h-9.24v13.86h9.24c4.45 0 9.66 0 12.35-1.43zm-21.59 4.79v13.86h12c5 0 10.92-.08 14.11-1.51 1.6-.76 2.69-2.69 2.69-5.38 0-2.44-1.26-4.7-3.19-5.46-3.19-1.26-8.9-1.51-14.36-1.51zM294 52.66h-15.15c-7.06 0-13.44.25-17.3 4.54-4.2 4.62-4.2 12.52-4.2 19.82 0 6.38.34 12.26 4.12 15.62 4 3.61 10.75 3.7 17.39 3.7H294a1.69 1.69 0 1 1 0 3.36h-16.75c-6 0-13.36-.17-18.4-4.7s-5.21-11.76-5.21-18c0-.59-.08-1.26-.08-1.85 0-6.8.25-14.53 5.12-20 5.12-5.71 13.27-5.88 20.16-5.88H294a1.69 1.69 0 1 1 0 3.36zM345.58 65.26H332.9c-6.22 0-12.18.17-15.62 2.94-3.19 2.6-3.61 7.64-3.61 12.6 0 5.29.5 10.08 3.61 12.6 3.53 2.94 9.74 2.94 15.62 2.94h12.68a1.69 1.69 0 1 1 0 3.36h-14.45c-5.38 0-11.84-.25-16.38-3.95S310 86 310 80.8c0-4.87 0-11.09 4.79-15 4.62-3.78 11.59-3.95 17.47-3.95h13.36a1.69 1.69 0 1 1 0 3.36zM366.08 51a1.81 1.81 0 0 1 1.85-1.68h14.36c6.89 0 15.12.17 20.24 5.88 4.87 5.46 5.13 13.19 5.13 20 0 .59-.08 1.26-.08 1.85 0 6.22-.08 13.36-5.21 18S390 99.7 384 99.7h-16a1.77 1.77 0 0 1-1.92-1.7zm16.21 45.36c6.64 0 13.44-.08 17.47-3.7 3.78-3.36 4.12-9.24 4.12-15.62 0-7.31 0-15.2-4.2-19.82-3.86-4.28-10.33-4.54-17.39-4.54h-12.51v43.66zM425.82 63.58a1.81 1.81 0 0 1 1.85-1.68h12.68c5.88 0 12.85.17 17.47 3.95 4.79 3.86 4.79 10.08 4.79 15 0 5.21-.25 11.26-4.79 15s-11 3.95-16.38 3.95h-13.77a1.77 1.77 0 0 1-1.85-1.8zm13.86 32.76c5.88 0 12.1 0 15.62-2.94 3.11-2.52 3.61-7.31 3.61-12.6 0-5-.42-10-3.61-12.6-3.44-2.77-9.41-2.94-15.62-2.94h-10.16v31.08zM517 99.7h-34.76a1.77 1.77 0 0 1-1.84-1.7V51a1.81 1.81 0 0 1 1.85-1.68H517a1.69 1.69 0 1 1 0 3.36h-32.91v22.66H512a1.69 1.69 0 1 1 0 3.36h-27.91v17.64H517a1.69 1.69 0 1 1 0 3.36zM568.85 99.7h-29.48a1.77 1.77 0 0 1-1.85-1.7V63.58a1.81 1.81 0 0 1 1.85-1.68h29.48a1.69 1.69 0 1 1 0 3.36h-27.63v13.86h22.6a1.69 1.69 0 1 1 0 3.36h-22.6v13.86h27.64a1.69 1.69 0 1 1 0 3.36zM589.36 98.69V51a1.81 1.81 0 0 1 1.85-1.68H626a1.69 1.69 0 1 1 0 3.36h-32.95v22.66h27.89a1.69 1.69 0 1 1 0 3.36h-27.89v20a1.86 1.86 0 0 1-3.7 0zM643.71 98.69V63.58a1.81 1.81 0 0 1 1.85-1.68H675a1.69 1.69 0 1 1 0 3.36h-27.59v13.86H670a1.69 1.69 0 1 1 0 3.36h-22.6v16.21a1.86 1.86 0 0 1-3.7 0z"/></svg>