<svg data-name="Ebene 1" xmlns="http://www.w3.org/2000/svg" viewBox="0 0 700 150"><path fill="#d7ffff" d="M0 0h700v150H0z"/><path d="M37.57 90.46h6v9.24H21.61v-9.24h5.88l20.83-47.88h10.84L80 90.46h5.88v9.24H70v-9.24h6l-5-11.34H42.53zM67 69.88L56.72 46.27 46.48 69.88zM110.27 66.94c-2.35 0-6.47.08-6.47 2.18v1h-3.36v-1c0-3.11.42-6.38 2.52-8.65 1.93-2.18 4.87-2.77 7.81-2.77H118c3.44 0 7.06.59 9.41 3.11s2.94 6.3 2.94 9.91v19.74h6.72v9.24h-26.64c-3.11 0-6.38-.59-8.48-2.86-2.27-2.44-2.69-5.88-2.69-9.16v-2.43c0-3.28.42-6.72 2.69-9.16 2.1-2.27 5.38-2.86 8.48-2.86H127v-2.51c0-3.61-5.63-3.78-9-3.78zm.17 23.52H127v-8h-16.57c-2.6 0-7.9 0-7.9 2.77v2.44c.01 2.79 5.3 2.79 7.9 2.79zM190.42 71.89c2.69 2 3.7 5.46 3.7 8.82v5c0 3.95-.76 8-3.7 10.67-3.11 2.86-7.48 3.36-11.68 3.36H150v-9.28h5.88V51.82H150v-9.24h28.39c3.95 0 8.15.5 11.09 3.19 2.77 2.52 3.44 6.38 3.44 10.08V60c0 3.19-.92 6.38-3.44 8.23a10.9 10.9 0 0 1-3.11 1.6 12.11 12.11 0 0 1 4.05 2.06zm-12-20.08h-18.83v13.53h18.82c4.45 0 10.84-.42 10.84-5.29v-4.2c-.01-4.03-7.06-4.03-10.84-4.03zm.34 22.76h-19.17v15.89h19.15c4.28 0 11.68-.17 11.68-4.79v-5c0-5.33-6.64-6.09-11.68-6.09zM234.81 57.7c3.7 0 7.39 1.26 9.49 4.2 2.69 3.78 2.94 8.57 2.94 13.19v7.22c0 4.62-.25 9.41-2.94 13.19-2.1 2.94-5.8 4.2-9.49 4.2h-27.3v-9.24h6.72V46.78h-6.72v-9.24h10.08V57.7zm0 32.76c2.52 0 5-.25 6.89-1.93 1.68-1.51 2.18-3.95 2.18-6.22v-7.22c0-2.27-.5-4.71-2.18-6.22-1.85-1.68-4.37-1.93-6.89-1.93h-17.22v23.52zM303.75 85v-2.44h3.7V85c0 4.12-.92 8.4-3.95 11.17-3.28 2.94-8 3.53-12.43 3.53h-11.93c-5.12 0-10.25-1.43-13.36-5.38-3.7-4.79-4.28-11.17-4.28-17.22V65.17c0-6 .59-12.43 4.28-17.22 3.11-3.95 8.23-5.37 13.36-5.37h11.93c4.45 0 9.16.59 12.43 3.53 3 2.77 3.95 7.06 3.95 11.17v2.44h-3.7v-2.44c0-5.21-7.9-5.46-12.68-5.46h-11.93c-3.86 0-7.81.59-10.58 3.19s-3.36 6.47-3.36 10.16V77.1c0 3.7.67 7.64 3.36 10.16s6.72 3.19 10.58 3.19h11.93c4.78.01 12.68-.24 12.68-5.45zM344.29 90.46c2.94 0 7.9-.17 7.9-2.35v-1h3.36v1c0 3.19-.59 6.64-2.94 8.82s-6 2.77-9.32 2.77h-8.48c-3.86 0-7.9-1.18-10.25-4.2-2.86-3.7-3.19-8.57-3.19-13.19v-7.22c0-4.62.34-9.49 3.19-13.19 2.35-3 6.38-4.2 10.25-4.2h8.48c3.36 0 6.89.5 9.32 2.77s2.94 5.63 2.94 8.82v1h-3.36v-1c0-2.18-5-2.35-7.9-2.35h-9.49c-2.69 0-5.54.25-7.64 1.93-1.76 1.43-2.44 3.86-2.44 6.22v7.22c0 2.35.67 4.79 2.44 6.22 2.1 1.68 5 1.93 7.64 1.93zM368.8 99.7v-9.24h7.39V51.82h-7.39v-9.24h34.44c5 0 9.91 1.43 12.85 5.38 3.61 4.87 4 11.17 4 17.22V77.1c0 6-.42 12.35-4 17.22-2.94 3.95-7.9 5.38-12.85 5.38zm34.44-9.24c3.7 0 7.39-.59 10-3.19s3.19-6.47 3.19-10.16V65.17c0-3.7-.59-7.56-3.19-10.16s-6.3-3.19-10-3.19h-23.36v38.64zM446.89 99.7c-3.7 0-7.39-1.26-9.49-4.2-2.69-3.78-2.94-8.57-2.94-13.19v-7.22c0-4.62.25-9.41 2.94-13.19 2.1-2.94 5.8-4.2 9.49-4.2h17.22V46.78h-6.72v-9.24h10.08v52.92h6.72v9.24zm0-32.76c-2.52 0-5 .25-6.89 1.93-1.68 1.51-2.18 3.95-2.18 6.22v7.22c0 2.27.5 4.7 2.18 6.22 1.85 1.68 4.37 1.93 6.89 1.93h17.22V66.94zM497.89 65.34h26.88v9.24h-26.88v15.88h32.76v-7.39h3.7V99.7h-47.54v-9.24h7.39V51.82h-7.39v-9.24h45.7v15.87h-3.7v-6.63h-30.92zM571.87 90.46c2.86 0 6.47-.08 6.47-.84v-.42h3.36v.42c0 2.94-.76 5.88-3 7.64-2.69 2.1-6.3 2.44-9.74 2.44h-8.4c-3.61 0-7.39-.84-9.74-3.53-2.6-3-3-7.22-3-11.26v-7.22c0-5.29.17-10.75 3-15.2a11.47 11.47 0 0 1 9.74-4.79h8.4a11.47 11.47 0 0 1 9.74 4.79c2.86 4.45 3 9.91 3 15.2v4.79h-30.58v2.44a4.9 4.9 0 0 0 2.27 4.2c2.1 1.26 4.7 1.34 7.14 1.34zm6-17.22a8.87 8.87 0 0 0-1.76-3.7c-1.76-2-4.54-2.6-7.22-2.6h-8.4c-2.69 0-5.38.59-7.14 2.6a9 9 0 0 0-1.85 3.7zM606 67.69h27.3v9.24H606v13.53h7.39v9.24H595v-9.24h7.39V51.82H595v-9.24h45.7v15.87H637v-6.63h-31zM672.07 46.78c-2.27 0-4.62.17-6.47 1.6a5.87 5.87 0 0 0-2.1 4.87v4.45h8.5v9.24h-8.5v23.52h7.39v9.24h-16.8v-9.24h6V66.94h-7.06V57.7h7.06v-4.45c0-4.2.34-8.57 2.86-11.93 2.1-2.77 5.63-3.78 9.07-3.78h6.72v9.24z"/></svg>