<svg xmlns="http://www.w3.org/2000/svg" viewBox="0 0 700 500"><defs><style>.cls-3{mix-blend-mode:multiply}</style></defs><g style="isolation:isolate"><path fill="#d7ffff" d="M0 0h700v500H0z" id="Ebene_2" data-name="Ebene 2"/><g id="Ebene_1" data-name="Ebene 1"><g class="cls-3"><path d="M180.24 137.47h8.54v12.6h-32.06v-12.6h10.92v-70h-10.92v-12.6h35.56l26.46 82.6 26.32-82.6h35.42v12.6H269.7v70h10.78v12.6h-34.72v-12.6h8.54v-70l-26.3 82.6h-21.44l-26.32-82.6zM307 150.07l-10.64-10.64v-18.48L307 110.31h30v-12h-24.42v6h-14v-8l10.64-10.64h31.08l10.64 10.64v41.16h9.8v12.6zm3.36-27.16v14.56h26.6v-14.56zM379.75 165.47v-67.2h-9.8v-12.6h23.8v81.76l-10.64 10.64h-20.16v-12.6zm-.56-109.62h15.12V71h-15.12zM474.19 139.43l-10.64 10.64h-38.92L414 139.43V96.31l10.64-10.64h38.92l10.64 10.64zm-14-41.16H428v39.2h32.2zM530.78 98.27H514v39.2h10.78v12.6h-34.6v-12.6H500v-39.2h-9.8v-12.6h44l10.64 10.64V105h-14z"/></g><g class="cls-3"><path d="M121.59 297.07v-8.4h10.92v-78.4h-10.92v-8.4h32.48v8.4h-10.78v78.4h39.76v-16.24h10.78v24.64zM219 267.81v20.86h35V281h9.8v8.82l-7.28 7.28h-40l-7.28-7.28v-49.87l7.28-7.28h40l7.28 7.28v27.86zm35-8.4v-18.34h-35v18.34zM287.77 297.07l-7.28-7.28v-23.1l7.28-7.28h33.32v-18.34h-28.84v9.1h-9.8v-10.22l7.28-7.28h33.88l7.28 7.28v48.72h9.8v8.4zm2.52-29.26v20.86h30.8v-20.86zM399.5 316.67v-19.6h-36.12l-7.28-7.28v-49.84l7.28-7.28h55.72v8.4h-9.8v76.72l-7.3 7.28h-43.4v-8.4zm-33.6-75.6v47.6h33.6v-47.6zM453.18 288.67h32.2v-47.6h-9.8v-8.4h19.6v56H505v8.4h-54.34l-7.28-7.28v-48.72h-9.8v-8.4h19.6zM530.76 267.81v20.86h35V281h9.8v8.82l-7.28 7.28h-40l-7.28-7.31v-49.84l7.28-7.28h40l7.28 7.28v27.86zm35-8.4v-18.34h-35v18.34z"/></g><g class="cls-3"><path d="M187.52 350.07h-58v86.8h58v-34.44h-24.64v-4.2h30.8v42.84H127.6l-4.2-4.2v-86.8l4.2-4.2h61.88l4.2 4.2v24.36h-6.16zM214.38 441.07l-3.92-3.92v-27.72l3.92-3.92h36.68v-24.64h-33.18v12.32h-5.6v-12.6l3.92-3.92h36.54l3.92 3.92v56.28h9.8v4.2zm1.68-31.36v27.16h35v-27.16zM366.74 376.67l3.92 3.92v56.28h9.8v4.2h-25.2v-4.2h9.8v-56h-31.5v56h8.82v4.2h-23.24v-4.2H328v-56h-31.5v56h9.8v4.2h-25.2v-4.2h9.8v-56h-9.8v-4.2zM405 380.87h-9.8v-4.2h15.4v60.2h9.8v4.2h-25.2v-4.2h9.8zM403.89 354h7.84v8h-7.84zM490.3 376.67l3.92 3.92v56.28H504v4.2h-26.16v-4.2h10.78v-56h-37.8v56h10.78v4.2h-26.18v-4.2h9.8v-56h-9.8v-4.2zM562.83 464.87v-23.8h-39.48l-3.92-3.92v-56.56l3.92-3.92h54.88v4.2h-9.8v84.28l-3.92 3.92h-43.68v-4.2zm-37.8-84v56h37.8v-56z"/></g></g></g></svg>