<svg data-name="Ebene 1" xmlns="http://www.w3.org/2000/svg" viewBox="0 0 700 150"><path fill="#d7ffff" d="M0 0h700v150H0z"/><path d="M27.8 99.7h-5.46l22.51-57.12h8.4L75.76 99.7h-7l-8.04-20.58H35.86zm30.91-25.62L48.29 47.62 37.88 74.08zM90.64 99.7l-4.37-4.37V81.47l4.37-4.37h19.91v-11H93.32v5.46h-5.88v-6.13l4.37-4.37h20.24l4.37 4.37V99.7zm1.51-17.56v12.52h18.4V82.14zM129 42.58h31l4.62 4.62v19.49l-2.77 2.77h.15l3.78 3.86v21.76l-4.54 4.62H129zm29.2 24.86V47.62h-22.6v19.82zm1.09 27.22V72.48H135.6v22.18zM178.37 38.38h5.88v22.68h21.67l4.37 4.37v29.9l-4.37 4.37h-27.55zm26 56.28V66.1h-20.12v28.56zM257.9 47.62h-29v47h29V82.56h6.47v12.52l-4.62 4.62h-32.67l-4.62-4.62V47.2l4.62-4.62h32.68l4.62 4.62v12.51h-6.48zM302.15 66.1h-19.74v28.56h19.74v-6.55H308v7.22l-4.37 4.37H280.9l-4.37-4.37v-29.9l4.37-4.37h22.76l4.34 4.37v7.22h-5.88zM320.49 42.58h37.13l4.62 4.62v47.88l-4.62 4.62h-37.13zm35.28 52.08v-47H327v47zM378.83 99.7l-4.37-4.37v-29.9l4.37-4.37h21.67V38.38h5.88V99.7zm1.51-33.6v28.56h20.16V66.1zM419.35 42.58h35.2v5H425.9v19.86h21.92v5H425.9v22.22h30.32v5h-36.87zM473.89 82.14v12.52h21V90h5.88v5.29l-4.37 4.41h-24l-4.4-4.37v-29.9l4.37-4.37h24l4.37 4.37v16.71zm21-5v-11h-21v11zM513.28 42.58h35.2v5h-28.65v22.21h22.26v5h-22.26V99.7h-6.55zM566.41 43.42v17.64h8.32v5h-8.32V99.7h-5.88V66.1h-6.89v-5h6.89V42.75l4.37-4.37h15.2v5zM625.52 47.62h-30.66v47h30.66V79h-12.93v-5H632v25.7h-39l-4.62-4.62V47.2l4.62-4.62h34.36L632 47.2v12.51h-6.47zM670.2 111.46V99.7h-21.68l-4.37-4.37v-29.9l4.37-4.37h27.55v51.07l-4.37 4.37h-26.12v-5zM650 66.1v28.56h20.2V66.1z"/></svg>