<svg data-name="Ebene 1" xmlns="http://www.w3.org/2000/svg" viewBox="0 0 700 150"><path fill="#d7ffff" d="M0 0h700v150H0z"/><path d="M34.86 94.66h5.21L39 99.7H22.68l1.09-5H29l31.9-52.12h8.48l9 52.08h5.21l-1.09 5H65.6l1.09-5h5.12l-2.68-15.54H44.35zm33.43-20.58l-4.62-26.46-16.21 26.46zM99 99.7l-3.44-4.45c1-4.62 2-9.16 3-13.78l5.38-4.37h19.74c.84-3.7 1.6-7.31 2.44-11h-17l-1.18 5.46h-6l1.34-6 5.38-4.45h20.16l3.44 4.45c-2.1 9.74-4.28 19.4-6.38 29.15h5.88l-1.09 5zm5.46-17.56c-.92 4.2-1.85 8.32-2.77 12.52h18.14l2.77-12.52zM188.18 69.46l3 3.86c-1.6 7.22-3.11 14.45-4.7 21.67l-5.71 4.7h-37.19l1.09-5h5.21l10.33-47H155l1.18-5h36l3.7 4.7c-1.43 6.47-2.86 12.85-4.28 19.32l-3.53 2.86zM180 94.66c1.6-7.39 3.28-14.78 4.87-22.18h-23.48l-4.87 22.18zm4.87-27.22c1.43-6.64 2.94-13.19 4.37-19.82h-22.39l-4.37 19.82zM242.43 61.06l3.44 4.45-6.55 29.74-5.38 4.45H200.6l1.09-5h5.88l11.26-51.24h-5.88l1.18-5H226l-5 22.68zm-9 33.6c2.1-9.49 4.2-19.07 6.3-28.56h-19.81l-6.3 28.56zM303.45 47.62H274.8c-3.44 15.71-6.89 31.33-10.33 47h28.64l2.69-12.1h6.55L299.67 95 294 99.7h-32.55l-3.7-4.7c3.53-16 7.06-31.75 10.58-47.71l5.63-4.7h32.59l3.61 4.7-2.76 12.42h-6.64zM348.43 66.1H329c-2.1 9.49-4.2 19.07-6.3 28.56h19.49l1.43-6.55h6l-1.51 7.14-5.46 4.45H320l-3.44-4.45 6.55-29.74 5.38-4.45h22.71l3.44 4.45-1.64 7.14h-6zM361.49 99.7l1.18-5h6.47l10.33-47H373l1.09-5h43.51l3.7 4.7c-3.53 16-7.06 31.75-10.58 47.71l-5.63 4.7zm42.76-5c3.44-15.71 6.89-31.33 10.33-47H386.1l-10.33 47zM432.48 99.7L429 95.25l6.55-29.74 5.45-4.45h21.5l3.86-17.64h-5.88l1.09-5h11.93L461 94.66h5.88l-1.09 5zm9-33.6c-2.1 9.49-4.2 19.07-6.3 28.56h19.91l6.22-28.56zM498.53 67.44h21.76l-1.09 5h-21.76l-4.87 22.18h23.52l1.43-6.47h6.64c-.67 3-1.34 6-2 9l-.5 2.52h-43.38l1.18-5h6.47l10.33-47h-6.47l1.09-5h41.58c-.34 1.68-.76 3.36-1.09 5l-1.26 5.8h-6.64l1.26-5.8H502.9zM546.45 82.14l-2.77 12.52h20.75l1-4.62h6l-1.09 5.21-5.46 4.45H541l-3.44-4.45 6.55-29.74 5.38-4.45h23.94l3.44 4.45-3.7 16.63zm21.84-5l2.35-11H550l-2.44 11zM603.8 69.79h22.1l-1.09 5h-22.1l-4.37 19.82h6.47l-1.18 5h-19.57l1.18-5h6.47l10.33-47h-6.47l1.09-5h41.58c-.76 3.61-1.6 7.22-2.35 10.84h-6.64l1.26-5.8h-21.83zM661.09 43.42c-1.26 5.88-2.6 11.76-3.86 17.64h8.23l-1.09 5h-8.23l-6.3 28.56h6.47l-1.09 5H637.4l1.09-5h5.29l6.3-28.56h-6.88l1.09-5h6.89c1.34-6 2.69-12.18 4-18.23l5.38-4.45h15.12l-1.09 5z"/></svg>