<svg data-name="Ebene 1" xmlns="http://www.w3.org/2000/svg" viewBox="0 0 700 150"><path fill="#d7ffff" d="M0 0h700v150H0z"/><path d="M31.41 97.18h5.12L36 99.7H22.67l.59-2.52h5.21l33.85-54.6H67l9.91 54.6h5.12l-.5 2.52H67.44l.5-2.52h5.21l-3.27-18.06h-27.3zM69.46 76.6l-5.71-31.5-19.57 31.5zM123 66.1a17.36 17.36 0 0 1-.59 4.12c-2 9-3.95 18-6 27h5.88l-.5 2.52h-24.4c-3.86 0-8-.17-8-4.28a13.8 13.8 0 0 1 .42-3.11l1.51-6.55c.5-2.18 1.09-4.62 3.11-6s4.54-1.43 6.89-1.43h15.88c.59-2.69 1.18-5.46 1.76-8.15a13.33 13.33 0 0 0 .5-3.11c0-3.19-2.86-3.53-5.8-3.53h-7.9c-1.43 0-3.11 0-4.28.92a5.3 5.3 0 0 0-1.74 3.5l-.67 3h-3.44l.67-3c.42-2 1.09-4.28 2.94-5.54 2-1.43 4.7-1.43 7.14-1.43h7.9c4.36.03 8.72.36 8.72 5.07zM98 97.18h15l3.61-16.3h-15.69a7.21 7.21 0 0 0-4.2.92c-1.26.92-1.68 2.52-2 3.95-.5 2.18-.92 4.37-1.43 6.55a9.54 9.54 0 0 0-.25 2.1C93 97 95.54 97.18 98 97.18zM179.17 48a23.37 23.37 0 0 1-.59 4c-.67 3.19-1.43 6.22-2.1 9.41-.59 2.6-1.51 5.54-3.95 7.06a11.86 11.86 0 0 1-4.2 1.43c3.36.42 5.8 1.76 5.8 5.38a20.3 20.3 0 0 1-.5 3.86l-2.27 10.33c-.67 3-1.6 6.3-4.28 8.15-2.94 2-7 2-10.5 2H130l.5-2.52h5.21l11.54-52H142l.59-2.52h26.12c5 0 10.46.25 10.46 5.42zm-16.38 23.22h-17.56l-5.71 26h17.56c2.52 0 5.29 0 7.39-1.51s2.6-3.86 3.11-6.13l2.27-10.33a17.81 17.81 0 0 0 .5-3.61c0-4.08-3.78-4.42-7.56-4.42zm5.38-26.12H151l-5.21 23.6H163c2.35 0 5 0 6.89-1.43s2.35-3.7 2.86-5.8c.67-3.19 1.43-6.22 2.1-9.41a13.09 13.09 0 0 0 .42-3c-.05-3.71-3.66-3.96-7.1-3.96zM212.17 61.06c3 0 6.22.17 7.56 2.52a6.86 6.86 0 0 1 .84 3.53 31.06 31.06 0 0 1-1 6.55c-1 4.45-1.93 9-2.94 13.44-.76 3.53-1.68 7.56-4.28 10.08-2.35 2.35-5.63 2.52-8.65 2.52h-25.13l.59-2.52H185l12.38-56.28h-5.88l.59-2.52h9.32l-5 22.68zm-8 36.12c2.1 0 4.37-.34 5.88-2 1.76-2 2.52-5.29 3.11-8.06 1-4.45 1.93-9 2.94-13.44A26.82 26.82 0 0 0 217 68a5.5 5.5 0 0 0-.42-2.44c-.76-1.68-2.86-2-5-2h-15.71l-7.39 33.6zM265.73 45.1h-13.1c-3.19 0-6.72.5-9.07 3.11-2.77 3.11-3.95 8.15-4.87 12.52-1.51 7-3 13.86-4.54 20.83a47 47 0 0 0-1.34 8.74 8.93 8.93 0 0 0 .67 3.78c1.18 2.6 4.45 3.11 7.64 3.11h13.19c2.69 0 5.54 0 7.81-1.76s2.86-4.45 3.44-7l1.26-5.88h3.78l-1.26 5.88c-.76 3.28-1.68 6.8-4.62 9-3.11 2.27-7.31 2.27-11 2.27h-13.1c-4.2 0-8.74-.34-10.58-3.61a10.86 10.86 0 0 1-1.09-5 47.24 47.24 0 0 1 1.43-9.49c1.51-7 3-13.86 4.54-20.83 1.09-5.12 2.44-10.92 6-14.53 3.28-3.28 8-3.61 12.18-3.61h13.19c3.7 0 7.9 0 10 2.27a5.6 5.6 0 0 1 1.34 4 26.29 26.29 0 0 1-.76 5l-1.26 5.88h-3.78l1.26-5.88a17.34 17.34 0 0 0 .59-4c.03-4.38-4-4.8-7.95-4.8zM315.61 65.68a15.48 15.48 0 0 1-.5 3.36l-.76 3.61h-3.44l.76-3.61a11.34 11.34 0 0 0 .34-2.35c0-2.94-2.86-3.11-5.63-3.11H297c-2.27 0-4.7.25-6.47 2-1.93 2-2.69 5.21-3.28 8.06-1 4.45-1.93 9-2.94 13.44a24.37 24.37 0 0 0-.76 5.38 5.5 5.5 0 0 0 .5 2.69c.92 1.76 3.28 2 5.54 2H299c1.85 0 3.95 0 5.46-1.09s1.93-2.77 2.27-4.37l.76-3.61h3.44l-.76 3.61c-.5 2.35-1.18 5-3.36 6.38-2.35 1.6-5.54 1.6-8.32 1.6h-9.32c-3.19 0-6.64-.08-8.23-2.52a6.84 6.84 0 0 1-.94-3.75 33.56 33.56 0 0 1 .92-6.3c1-4.45 1.93-9 2.94-13.44.76-3.53 1.68-7.56 4.45-10.08 2.6-2.44 6.13-2.52 9.32-2.52H307c4.16 0 8.61.17 8.61 4.62zM316.75 99.7l.59-2.52h6.47l11.51-52.08h-6.47l.5-2.52H361c4.12 0 8.48.34 10.25 3.61a9.93 9.93 0 0 1 1 4.87 50 50 0 0 1-1.51 9.66c-1.51 7-3 13.86-4.54 20.83-1.09 5-2.44 10.92-6 14.53-3.19 3.28-7.73 3.61-11.84 3.61zM349 97.18c3.11 0 6.47-.59 8.65-3.11 2.69-3.11 3.87-8.23 4.79-12.52 1.51-7 3-13.86 4.54-20.83a42.38 42.38 0 0 0 1.34-8.9 9.59 9.59 0 0 0-.59-3.61c-1.09-2.52-4.2-3.11-7.31-3.11H339.1l-11.51 52.08zM384.91 99.7c-3 0-6.3-.17-7.64-2.52a6.84 6.84 0 0 1-.76-3.53 30.75 30.75 0 0 1 .92-6.55c1-4.45 1.93-9 2.94-13.44.76-3.53 1.68-7.56 4.28-10.08 2.35-2.35 5.71-2.52 8.74-2.52h15.71l4.45-20.16h-5.88l.59-2.52h9.32l-12.94 58.8h5.88l-.59 2.52zm7.9-36.12c-2.1 0-4.29.34-5.8 2-1.76 2-2.6 5.29-3.19 8.06-1 4.45-1.93 9-2.94 13.44a26.84 26.84 0 0 0-.84 5.63 5.5 5.5 0 0 0 .42 2.44c.76 1.68 2.86 2 5 2h15.79l7.39-33.6zM435.07 68.7h23.27l-.59 2.52h-23.27l-5.71 26h27.89l1.43-6.47h3.78c-.67 3-1.34 6-2 9h-41.94l.59-2.52H425l11.49-52.13H430l.5-2.52h40.24c-.59 2.77-1.26 5.54-1.85 8.32h-3.78l1.26-5.8h-26.1zM475.82 80.88l-1.51 6.47a24.37 24.37 0 0 0-.76 5.38 5.87 5.87 0 0 0 .5 2.52c.84 1.68 3 1.93 5.12 1.93h9.32c1.93 0 4.2 0 5.8-.84a5.08 5.08 0 0 0 2.18-3.45l.59-2.86h3.44l-.59 2.86c-.42 2.1-1.34 4.37-3.28 5.46-2.35 1.34-5.8 1.34-8.65 1.34h-9.32c-3.11 0-6.38-.08-7.81-2.44a6.44 6.44 0 0 1-.92-3.61 34.59 34.59 0 0 1 .92-6.3c1-4.45 2-9 3-13.44.84-3.61 1.68-7.64 4.37-10.25 2.44-2.35 5.8-2.6 8.9-2.6h9.32c3.11 0 6.38.25 7.81 2.6a7.15 7.15 0 0 1 .76 3.61 30.78 30.78 0 0 1-.92 6.64l-1.6 7zm23.86-2.52l1-4.45a27.62 27.62 0 0 0 .84-5.71 5.89 5.89 0 0 0-.42-2.52c-.76-1.76-3.11-2.1-5.21-2.1h-9.32c-2.1 0-4.45.34-6 2.1-1.85 2.1-2.52 5.38-3.19 8.23l-1 4.45zM523.84 71.05h23.6l-.59 2.52h-23.6L518 97.18h6.47L524 99.7h-16.8l.59-2.52h6.47l11.51-52.08h-6.47l.5-2.52H560c-.59 2.77-1.26 5.54-1.85 8.32h-3.78l1.26-5.8h-26.08zM580.77 40.9c-2 0-4.2.34-5.63 1.93-1.68 1.93-2.35 5-2.94 7.56-.76 3.53-1.6 7.14-2.35 10.67h7.56l-.59 2.52h-7.48L562 97.18h6.47l-.59 2.52h-15.2l.59-2.52h5.29l7.39-33.6h-6.3l.5-2.52h6.3c.76-3.53 1.6-7.14 2.35-10.67.76-3.36 1.6-7.14 4.12-9.58 2.35-2.27 5.54-2.44 8.48-2.44h6.8l-.5 2.52zM626.17 53.83a20.36 20.36 0 0 0 .5-3.78 4.2 4.2 0 0 0-1-3.19c-1.68-1.76-5-1.76-8-1.76h-13.76c-3.19 0-6.64.5-9 3-2.77 3-3.78 7.81-4.7 11.93-1.51 7-3 13.86-4.54 20.83a46.55 46.55 0 0 0-1.43 9.32 10.05 10.05 0 0 0 .59 3.7c1.09 2.69 4.37 3.28 7.56 3.28h24.28l4.54-20.66h-14.7L607 74h18.5l-5 23.18-.59 2.52h-28c-4.28 0-8.74-.42-10.5-3.78a10.84 10.84 0 0 1-1-5 46.5 46.5 0 0 1 1.51-10c1.51-7 3-13.86 4.54-20.83 1.09-4.87 2.27-10.42 5.88-13.94 3.36-3.19 7.9-3.53 12.1-3.53h13.86c3.95 0 8.48 0 10.84 2.27a5.84 5.84 0 0 1 1.51 4.28 23.53 23.53 0 0 1-.67 4.71l-1.26 5.88h-3.78zM648.18 114c2 0 4.2-.08 5.8-1.68 1.76-1.68 2.35-4.45 2.86-6.89l1.26-5.71h-15.72c-3 0-6.3-.17-7.64-2.52a6.84 6.84 0 0 1-.76-3.53 30.75 30.75 0 0 1 .92-6.55c1-4.45 1.93-9 2.94-13.44.76-3.53 1.68-7.56 4.28-10.08 2.35-2.35 5.71-2.52 8.74-2.52h25l-.5 2.52h-5.88c-3.11 13.94-6.13 27.89-9.24 41.83-.67 3.19-1.43 6.72-3.95 8.9s-5.71 2.18-8.65 2.18h-18.4l.59-2.52zm2.1-50.4c-2.1 0-4.28.34-5.8 2-1.76 2-2.6 5.29-3.19 8.06-1 4.45-1.93 9-2.94 13.44a26.84 26.84 0 0 0-.84 5.63 5.5 5.5 0 0 0 .42 2.44c.76 1.68 2.86 2 5 2h15.79l7.39-33.6z"/></svg>