<svg xmlns="http://www.w3.org/2000/svg" viewBox="0 0 700 500"><path fill="#d7ffff" d="M0 0h700v500H0z" data-name="Ebene 2"/><g data-name="Ebene 1"><path d="M95.24 118.37c0 9 0 19.32-4.48 25.76-3.78 5.46-11.06 6.44-17.92 6.44h-11.2c-6.86 0-14.14-1-17.92-6.44-4.48-6.44-4.48-16.8-4.48-25.76v-26c0-9 0-19.32 4.48-25.76 3.78-5.46 11.06-6.44 17.92-6.44h11.2c6.86 0 14.14 1 17.92 6.44 4.48 6.44 4.48 16.8 4.48 25.76zm-14-26c0-5.32 0-11.76-1.68-15.68a7.24 7.24 0 0 0-6.72-3.92h-11.2a7.24 7.24 0 0 0-6.72 3.92c-1.68 3.88-1.68 10.31-1.68 15.64v26c0 5.32 0 11.76 1.68 15.68a7.24 7.24 0 0 0 6.72 3.99h11.2a7.24 7.24 0 0 0 6.72-4c1.68-3.92 1.68-10.36 1.68-15.68zM108.15 69.23l21-9.1h14V138h17.64v12.6h-49.28V138h17.64V73.85l-21 9.1zM262.11 145l-5.6 5.6h-48.72l-5.6-5.6V65.73l5.6-5.6h48.72l5.6 5.6zm-12.6-83.44h-34.72v87.64h34.72zM325.33 106.47V61.53h-34.72v21.28H278V65.73l5.6-5.6h48.72l5.6 5.6v36.54l-5.6 5.6h-41.71v41.3h34.72v-27.3h12.6v28.7H278v-38.5l5.6-5.6zM433.5 139.93l-10.64 10.64h-34.72l-10.64-10.64V70.77l10.64-10.64h34.72l10.64 10.64zm-14-67.2h-28V138h28zM459.85 138h28v-28.17h-19.6v-12.6h19.6v-24.5h-28v11.06h-14v-13l10.64-10.64h34.72l10.64 10.64v25.32l-7.42 7.42 7.42 7.42v29l-10.64 10.64h-34.72l-10.64-10.64v-14.7h14zM596.87 146.65l-3.92 3.92h-48.16l-3.92-3.92V64l3.92-3.92h48.16l3.92 3.92zm-5.6-82.32h-44.8v82h44.8zM607.63 121v-4.2l40.46-56.7h7.84v56.7h14.7v4.2h-14.7v25.34h10.78v4.2h-29.12v-4.2h12.74V121zm42.7-56.7l-37.52 52.5h37.52zM94.09 261.55c0 9.52-.42 19.32-5.74 27.3-3.92 5.88-10.92 8.68-18.06 8.68H54c-7.14 0-14.14-2.8-18.06-8.68-5.32-8-5.74-17.78-5.74-27.3v-18.48c0-9.52.42-19.32 5.74-27.3 3.92-5.88 10.92-8.68 18.06-8.68h16.29c7.14 0 14.14 2.8 18.06 8.68 5.32 8 5.74 17.78 5.74 27.3zm-5.6-18.48c0-5.6-.7-11.48-4.34-15.68-3.36-3.78-8.68-4.9-13.86-4.9H54c-5.18 0-10.5 1.12-13.86 4.9-3.64 4.2-4.34 10.08-4.34 15.68v18.48c0 5.6.7 11.48 4.34 15.68 3.36 3.78 8.68 4.9 13.86 4.9h16.29c5.18 0 10.5-1.12 13.86-4.9 3.64-4.2 4.34-10.08 4.34-15.68zM147.95 257.35h-38.5v-50.26h60.76v26.6h-5.6v-11.2H115V242h32.9c6.58 0 13.44 1.12 18.06 5.74s5.74 11.62 5.74 18.2v7.7c0 6.58-1.12 13.44-5.74 18.2s-11.48 5.74-18.06 5.74h-16.19c-6.58 0-13.44-1.12-18.06-5.74s-5.74-11.62-5.74-18.2v-3.92h5.6v3.92c0 7.84 10.92 8.54 18.2 8.54h16.24c7.28 0 18.2-.7 18.2-8.54v-7.7c0-7.94-10.92-8.59-18.2-8.59zM262.93 266.21c0 8.4 0 18.2-4.2 24.36-3.5 5.18-10.22 6.16-16.52 6.16h-14.56c-6.3 0-13-1-16.52-6.16-4.2-6.16-4.2-16-4.2-24.36v-29.4c0-8.4 0-18.2 4.2-24.36 3.5-5.18 10.22-6.16 16.52-6.16h14.56c6.3 0 13 1 16.52 6.16 4.2 6.16 4.2 16 4.2 24.36zm-9.8-29.4c0-6 0-13.16-2.24-17.64-1.54-3.08-5.18-4.48-8.68-4.48h-14.56c-3.5 0-7.14 1.4-8.68 4.48-2.24 4.48-2.24 11.62-2.24 17.64v29.4c0 6 0 13.16 2.24 17.64 1.54 3.08 5.18 4.48 8.68 4.48h14.56c3.5 0 7.14-1.4 8.68-4.48 2.24-4.48 2.24-11.62 2.24-17.64zM320.2 223.93c0-2.66-.14-5.6-2.1-7.42s-5.18-1.82-8-1.82h-14c-3.08 0-6.44 0-8.68 1.82s-2.24 4.76-2.24 7.42v24.36c2.8-2.52 7-2.8 10.92-2.8h14.56c5.88 0 12.32 0 16.52 3.78s4.2 9.52 4.2 15V278c0 5.46-.14 11.34-4.2 15s-10.64 3.78-16.52 3.78h-14.54c-5.88 0-12.32 0-16.52-3.78s-4.2-9.52-4.2-15v-54c0-5.18.28-10.78 4.2-14.14 4.2-3.5 10.64-3.5 16.52-3.5h14c5.6 0 11.9 0 15.82 3.5s4.06 9 4.06 14.14v6.16h-9.8zm-35 54c0 2.94.14 6.16 2.24 8.26s5.6 2.1 8.68 2.1h14.56c3.08 0 6.44 0 8.68-2.1s2.24-5.32 2.24-8.26v-13.68c0-2.94-.14-6.16-2.24-8.26s-5.6-2.1-8.68-2.1h-14.56c-3.08 0-6.44 0-8.68 2.1s-2.24 5.32-2.24 8.26zM428.47 272.35c0 7.28 0 17.5-3.08 20.86s-12.18 3.36-19 3.36h-17.82c-6.86 0-16 0-19-3.36s-3.22-13.58-3.22-20.86v-42c0-7.28.14-17.5 3.22-20.86s12.18-3.36 19-3.36h17.78c6.86 0 16 0 19 3.36s3.08 13.58 3.08 20.86zm-12.6-45.5c0-6.16-.14-13.44-1.26-16.1-1.26-2.94-4.9-3.22-8.26-3.22h-17.78c-3.36 0-7 .28-8.26 3.22-1.4 3.22-1.4 13-1.4 19.6v42c0 6.58 0 16.38 1.4 19.6 1.26 2.94 4.9 3.22 8.26 3.22h17.78c3.36 0 7-.28 8.26-3.22 1.12-2.66 1.26-9.94 1.26-16.1zM506.78 206.13v1.4l-29.54 89h-13.16l29.4-89h-36.26v18.2h-12.6v-19.6zM597.82 288.79l-7.28 7.28H549.1l-7.28-7.28v-75.88l7.28-7.28h41.44l7.28 7.28zM588 214h-36.4v73.64H588zM666.17 288.79l-7.28 7.28h-41.44l-7.28-7.28v-34.72l5-5-5-5v-31.16l7.28-7.28h41.44l7.28 7.28V244l-5.17 5 5.18 5zm-9.8-74.79H620v30.8h36.4zm0 39.2H620v34.44h36.4zM87 429.79l-13.15 10.78H39.41L31 429.79l15.12-68.88 13.16-10.78h34.45l8.4 10.78zm.42-67.06H60.13c-4.76 21.7-9.66 43.54-14.42 65.24H73c4.77-21.7 9.67-43.54 14.43-65.24zM115.85 428h25.9c2-8.68 3.78-17.36 5.74-26l-2 1.54h-29.22l-8.4-10.78c2.38-10.64 4.62-21.14 7-31.78L128 350.13h34.44l8.4 10.78c-4.06 18.34-8 36.54-12 54.74l-3.08 14.14-13.16 10.78h-33l-8.4-10.78 3.08-14.14h14.28zm40.32-65.24h-27.3l-6.3 28.14h27.3zM229.16 359.23l24.92-9.1h10.08l-18.06 82h17.64l-1.82 8.4h-45.36l1.82-8.4H236l16-72.38-24.92 9.1zM332.87 410c-1.82 8.4-4.06 18.2-9.52 24.36-4.62 5.18-11.76 6.16-18.06 6.16H291c-6.3 0-13-1-15.4-6.16a17.58 17.58 0 0 1-1.26-7.42c0-5.32 1.26-11.48 2.52-16.94 2.1-9.8 4.34-19.6 6.44-29.4 1.82-8.4 4.06-18.2 9.52-24.36 4.62-5.18 11.76-6.16 18.06-6.16h14.28c6.3 0 13 1 15.4 6.16a17.59 17.59 0 0 1 1.26 7.42c0 5.32-1.26 11.48-2.52 16.94-2.09 9.85-4.3 19.65-6.43 29.4zm-3.64-29.4c1-4.48 2.24-9.8 2.24-14a14.46 14.46 0 0 0-.42-3.64c-.84-3.08-4.2-4.48-7.7-4.48h-14.28c-3.5 0-7.42 1.4-9.66 4.48-3.08 4.48-4.76 11.62-6 17.64-2.1 9.8-4.34 19.6-6.44 29.4-1 4.48-2.24 9.8-2.24 14a14.44 14.44 0 0 0 .42 3.64c.84 3.08 4.2 4.48 7.7 4.48h14.28c3.5 0 7.42-1.4 9.66-4.48 3.08-4.48 4.76-11.62 6-17.64 2.1-9.75 4.34-19.55 6.44-29.35zM400.13 359.23l27.16-9.1h5.6L414 436.37h17.64l-1 4.2h-41l1-4.2h17.64l17.92-81.48L399 364zM452 359.23l27.16-9.1h5.6l-18.9 86.24h17.64l-1 4.2h-41l1-4.2h17.64L478 354.89 450.83 364zM553.93 359.23l22.82-9.1H591L573.95 428h17.64l-2.8 12.6h-49.56l2.66-12.6h17.64l13.86-63-22.68 9.1zM647.93 362.73H637c-2.24 0-4.9 0-6.86 1.26-1.68 1.12-2.24 2.94-2.66 4.76l-.84 4.06h-14.27l.84-4.06c1.26-5.46 2.8-11.34 7.7-14.84 5.32-3.78 12.6-3.78 18.9-3.78h10.92c6.3 0 13.58 0 17.22 3.78 1.82 1.82 2.38 4.2 2.38 6.86a40.49 40.49 0 0 1-1.12 8c-.84 3.78-1.68 7.42-2.52 11.2-1.54 6.72-3.08 14-8.68 18.76s-12.46 4.76-19 4.76H628c-2.52 0-5.18.28-7 2.24-2.1 2.24-2.94 5.88-3.64 9.1-1 4.34-2 8.82-2.94 13.16h27.3l3.22-14.7h14.42c-2 9.1-4.06 18.2-6 27.3h-56c1.82-8.54 3.78-17.22 5.6-25.76 1.54-6.86 3.22-14.42 8.82-19.18s12.46-4.76 19-4.76h10.92c2.52 0 5.18-.28 7-2.24 2.1-2.24 2.94-5.6 3.64-8.68.84-3.78 1.54-7.42 2.38-11.2a17 17 0 0 0 .42-2.38c.07-3.52-3.85-3.66-7.21-3.66z"/></g></svg>