<svg data-name="Ebene 1" xmlns="http://www.w3.org/2000/svg" viewBox="0 0 700 150"><path fill="#d7ffff" d="M0 0h700v150H0z"/><path d="M30.57 97.18h5.21v2.52H22.67v-2.52h5.21l21.92-54.6h4.62l21.92 54.6h5.21v2.52H67.19v-2.52h5.21l-7.31-18.06h-27.3zM64.08 76.6l-12.6-31.5L38.8 76.6zM99.56 99.7c-2.6 0-5.46 0-7.31-1.51-1.68-1.34-1.85-3.7-1.85-5.88v-6.56c0-2.18.17-4.62 1.85-6s4.2-1.43 6.55-1.43h16v-8.11c0-1.93 0-3.95-1.34-5.29s-3.53-1.34-5.46-1.34h-8c-1.43 0-3.11 0-4.12.92s-1 2.27-1 3.53V71h-3.39v-3c0-2 .08-4.28 1.68-5.54 1.68-1.43 4.45-1.43 6.8-1.43h8c2.86 0 6.13 0 8.15 1.85s2 4.62 2 7.31v27H124v2.51zm-.67-18.82a6.16 6.16 0 0 0-3.95.92c-1.09.92-1.18 2.52-1.18 3.95v6.55c0 1.43.08 2.94 1.18 3.87s3 1 4.62 1h15.2V80.88zM170.57 71.64c2.27 1.68 2.44 4.7 2.44 7.56v10.33c0 3-.08 6.3-2.44 8.15-2.52 2-6.55 2-10.08 2h-26.54v-2.5h5.21V45.1h-5.21v-2.52h26.12c3.36 0 7.22 0 9.58 1.93 2.18 1.76 2.35 4.79 2.35 7.56v9.41c0 2.6-.25 5.54-2.35 7.06A9.62 9.62 0 0 1 165.7 70a9.91 9.91 0 0 1 4.87 1.64zm-10.5-2.94c2.35 0 5 0 6.64-1.43s1.6-3.7 1.6-5.8v-9.4c0-2-.08-4.2-1.6-5.54-1.68-1.43-4.28-1.43-6.64-1.43h-17.22v23.6zm.42 28.48c2.52 0 5.29 0 7.06-1.51s1.76-3.86 1.76-6.13V79.2c0-2.35-.08-4.87-1.76-6.38s-4.54-1.6-7.06-1.6h-17.64v26zM208.15 61.06c3 0 6.3.17 8.15 2.52 2 2.52 2 6.55 2 10.08V87.1c0 3.53 0 7.56-2 10.08-1.85 2.35-5.12 2.52-8.15 2.52H183v-2.52h5.88V40.9H183v-2.52h9.24v22.68zm0 36.12c2.1 0 4.28-.34 5.46-2 1.34-2 1.34-5.29 1.34-8.06V73.66c0-2.77 0-6-1.34-8.06-1.18-1.68-3.36-2-5.46-2h-15.88v33.6zM266 53.83c0-2.52 0-5.21-1.85-7s-4.87-1.76-7.56-1.76H243.4c-3.19 0-6.64.5-8.4 3.11-2.1 3.11-2.1 8.15-2.1 12.52v20.85c0 4.37 0 9.41 2.1 12.52 1.76 2.6 5.21 3.11 8.4 3.11h13.19c2.69 0 5.71 0 7.56-1.76S266 91 266 88.44v-5.88h3.7v5.88c0 3.28-.08 6.8-2.6 9s-6.8 2.27-10.5 2.27h-13.2c-4.2 0-8.74-.34-11.34-3.61-2.86-3.61-2.86-9.41-2.86-14.53V60.72c0-5.12 0-10.92 2.86-14.53 2.6-3.28 7.14-3.61 11.34-3.61h13.19c3.7 0 7.9 0 10.5 2.27s2.6 5.71 2.6 9v5.88H266zM307.24 69c0-1.6-.08-3.36-1.34-4.37s-3.36-1.09-5.21-1.09h-9.41c-2.27 0-4.7.25-6 2-1.51 2-1.51 5.21-1.51 8.06v13.5c0 2.86 0 6 1.51 8.06 1.34 1.76 3.78 2 6 2h9.41c1.85 0 3.86 0 5.21-1.09s1.34-2.77 1.34-4.37v-3.59h3.36v3.61c0 2.35-.17 5-2 6.38-2 1.6-5.12 1.6-7.9 1.6h-9.41c-3.19 0-6.64-.08-8.74-2.52s-2.18-6.55-2.18-10.08V73.66c0-3.53 0-7.56 2.18-10.08s5.54-2.52 8.74-2.52h9.41c2.77 0 5.88 0 7.9 1.6 1.85 1.43 2 4 2 6.38v3.61h-3.36zM320.55 99.7v-2.52h6.55V45.1h-6.55v-2.52h31.75c4.12 0 8.57.34 11 3.61 2.61 3.44 2.7 8.81 2.7 13.69v22.51c0 4.87-.08 10.25-2.69 13.69-2.44 3.28-6.89 3.61-11 3.61zm31.75-2.52c3.11 0 6.3-.59 8-3.11 2-3.11 2-8.23 2-12.52V60.72c0-4.28 0-9.41-2-12.52-1.68-2.52-4.87-3.11-8-3.11h-21.5v52.09zM387.14 99.7c-3 0-6.3-.17-8.15-2.52-2-2.52-2-6.55-2-10.08V73.66c0-3.53 0-7.56 2-10.08 1.85-2.35 5.12-2.52 8.15-2.52H403V40.9h-5.88v-2.52h9.24v58.8h5.88v2.52zm0-36.12c-2.1 0-4.29.34-5.46 2-1.34 2-1.34 5.29-1.34 8.06V87.1c0 2.77 0 6 1.34 8.06 1.18 1.68 3.36 2 5.46 2H403V63.58zM432.18 68.7h23.27v2.52h-23.27v26h28v-6.51h3.7v9h-41.94v-2.53h6.55V45.1h-6.55v-2.52h40.24v8.32h-3.7v-5.8h-26.3zM477.38 80.88v6.47c0 2.69 0 6 1.43 7.9 1.26 1.68 3.53 1.93 5.63 1.93h9.41c1.93 0 4.2 0 5.63-.84a3.89 3.89 0 0 0 1.43-3.45V90h3.36v2.86c0 2.1-.34 4.37-2.1 5.46-2.1 1.34-5.46 1.34-8.32 1.34h-9.41c-3 0-6.38-.08-8.32-2.44-2.1-2.44-2.1-6.47-2.1-9.91v-13.4c0-3.61 0-7.64 2.1-10.25 1.93-2.35 5.21-2.6 8.32-2.6h9.41c3.11 0 6.38.25 8.32 2.6 2.1 2.6 2.1 6.64 2.1 10.25v7zm23.52-2.52v-4.45c0-2.86 0-6.13-1.43-8.23-1.18-1.76-3.44-2.1-5.63-2.1h-9.41c-2.18 0-4.45.34-5.63 2.1-1.43 2.1-1.43 5.38-1.43 8.23v4.45zM524.51 71.05h23.6v2.52h-23.6v23.6H531v2.53h-16.74v-2.52h6.55V45.1h-6.55v-2.52h40.24v8.32h-3.7v-5.8h-26.29zM576.59 40.9c-2 0-4.12.34-5.21 1.93-1.34 1.93-1.34 5-1.34 7.56v10.67h7.56v2.52H570v33.6h6.47v2.52h-15.09v-2.52h5.29v-33.6h-6.3v-2.52h6.3V50.39c0-3.36 0-7.14 2-9.58 1.85-2.27 5-2.44 7.9-2.44h6.89v2.53zM626.19 53.83c0-2.6-.17-5.29-2.1-7-2.1-1.76-5.37-1.76-8.32-1.76h-13.94c-3.19 0-6.55.5-8.32 3-2.1 3-2.1 7.81-2.1 11.93v20.88c0 4.54 0 9.74 2.1 13 1.68 2.69 5.12 3.28 8.32 3.28h24.36V76.51H611.4V74h18.48v25.7h-28.05c-4.2 0-8.74-.42-11.26-3.78-2.86-3.78-2.86-9.74-2.86-15V60c0-4.87 0-10.42 2.86-13.94 2.6-3.19 7.06-3.53 11.26-3.53h13.94c3.95 0 8.4 0 11.26 2.27 2.6 2.1 2.86 5.63 2.86 9v5.88h-3.7zM660 114c2 0 4.2-.08 5.46-1.68s1.34-4.45 1.34-6.89V99.7h-15.86c-3 0-6.3-.17-8.15-2.52-2-2.52-2-6.55-2-10.08V73.66c0-3.53 0-7.56 2-10.08 1.85-2.35 5.12-2.52 8.15-2.52h25.12v2.52h-5.88v41.83c0 3.19 0 6.72-2 8.9S663 116.5 660 116.5h-18.4V114zm-9.07-50.4c-2.1 0-4.28.34-5.46 2-1.34 2-1.34 5.29-1.34 8.06V87.1c0 2.77 0 6 1.34 8.06 1.18 1.68 3.36 2 5.46 2h15.88V63.58z"/></svg>