<svg xmlns="http://www.w3.org/2000/svg" viewBox="0 0 700 500"><path fill="#d7ffff" d="M0 0h700v500H0z" data-name="Ebene 2"/><g data-name="Ebene 1"><path d="M38.44 57.55h2.42v2.34h-7.33v-2.34h2.42l9.52-24.18h3.9l9.52 24.18h2.41v2.34h-8v-2.34h2.38l-2.81-7.21H41.29zM51.9 48l-4.84-12.29L42.23 48zM73.88 33.76a2.9 2.9 0 0 0-2.42.74 4.65 4.65 0 0 0-.62 3V42h3.86v2.34h-3.86v13.21h3v2.34h-8.19v-2.34h2.46V44.29h-3.2V42h3.2v-4.54c0-1.72 0-3.63 1.17-4.84s2.93-1.21 4.6-1.21h3.32v2.34zM90.36 46.12a1.81 1.81 0 0 0-.47-1.48 3 3 0 0 0-1.79-.35h-3.59v13.26h3v2.34h-8.46v-2.34h2.73V44.29h-2.73V42h9c1.4 0 3 0 4 .82s1 2.11 1 3.35v1.21h-2.69zM100.08 44.29h-2.73V42h5.46v15.6h2.73v2.34h-8.19v-2.39h2.73zm-.31-9.83h3.35v3.39h-3.35zM110.14 33.76v-2.34h5.46v17.47l5.54-4.6h-2.18V42h8v2.34h-2.16l-6.71 5.58 8.42 7.68h2.18v2.34h-8.42v-2.39h2.18l-6.86-6.28v6.28h2.18v2.34h-7.64v-2.34h2.73V33.76zM137.93 59.89c-1.36 0-2.92 0-3.9-.82s-1-2.07-1-3.28v-2.3c0-1.21 0-2.5 1-3.28s2.54-.82 3.9-.82h6.44v-2.72a2.32 2.32 0 0 0-.58-1.91 4.1 4.1 0 0 0-2.42-.47h-3.2a2.21 2.21 0 0 0-1.44.31 1.44 1.44 0 0 0-.39 1.21v1h-2.74v-1a3.87 3.87 0 0 1 .94-3.08c.9-.78 2.34-.78 3.63-.78h3.2c1.6 0 3.47 0 4.6.94s1.13 2.38 1.13 3.78v10.88h2.73v2.34zm0-8.15a2.74 2.74 0 0 0-1.72.35 1.75 1.75 0 0 0-.43 1.4v2.3a1.75 1.75 0 0 0 .43 1.4 2.73 2.73 0 0 0 1.72.35h6.44v-5.8zM159.35 59.89c-1.36 0-2.92 0-3.9-.82s-1-2.07-1-3.28v-2.3c0-1.21 0-2.5 1-3.28s2.54-.82 3.9-.82h6.44v-2.72a2.32 2.32 0 0 0-.58-1.91 4.1 4.1 0 0 0-2.42-.47h-3.2a2.21 2.21 0 0 0-1.44.31 1.44 1.44 0 0 0-.39 1.21v1H155v-1a3.87 3.87 0 0 1 .94-3.08c.9-.78 2.34-.78 3.63-.78h3.2c1.6 0 3.47 0 4.6.94s1.13 2.38 1.13 3.78v10.88h2.73v2.34zm0-8.15a2.74 2.74 0 0 0-1.72.35 1.75 1.75 0 0 0-.43 1.4v2.3a1.75 1.75 0 0 0 .43 1.4 2.73 2.73 0 0 0 1.72.35h6.44v-5.8zM187.73 42c1.64 0 3.35 0 4.41 1.25s1.13 3.28 1.13 5.07v9.28H196v2.34h-8.46v-2.39h3v-9.28a6 6 0 0 0-.58-3.2 2.48 2.48 0 0 0-2.22-.78h-6.55v13.26h3v2.34h-8.46v-2.34h2.73V44.29h-2.73V42zM212.48 45.93a1.48 1.48 0 0 0-.48-1.33 4.46 4.46 0 0 0-2.11-.31h-3.63a5 5 0 0 0-2.22.31 1.53 1.53 0 0 0-.58 1.33v2.18a1.53 1.53 0 0 0 .58 1.33 5 5 0 0 0 2.22.31H210c1.56 0 3.35 0 4.45.78s1.09 2 1.09 3.2v2.18c0 1.21-.12 2.5-1.09 3.2s-2.89.78-4.45.78h-3.74c-1.56 0-3.31 0-4.41-.78a3.73 3.73 0 0 1-1.13-3.2v-1.09h2.73v1.09a1.53 1.53 0 0 0 .58 1.33 5 5 0 0 0 2.22.31H210a5.13 5.13 0 0 0 2.26-.31 1.5 1.5 0 0 0 .55-1.33v-2.18a1.5 1.5 0 0 0-.55-1.33 5.13 5.13 0 0 0-2.26-.31h-3.74c-1.56 0-3.31 0-4.41-.78a3.73 3.73 0 0 1-1.13-3.2v-2.18a3.72 3.72 0 0 1 1.13-3.2c1.09-.78 2.85-.78 4.41-.78h3.63c1.48 0 3.24 0 4.29.78s1.05 2 1.05 3.2V47h-2.73zM224 56.5v3.39l-1.56 3.9h-1.83l1.56-3.9h-1.56V56.5zM248 57.55h2.42v2.34h-7.33v-2.34h2.42L255 33.37h3.9l9.52 24.18h2.42v2.34h-8v-2.34h2.38l-2.81-7.21h-11.57zM261.45 48l-4.84-12.29L251.78 48zM277.8 33.76h-2.73v-2.34h5.46v26.13h2.73v2.34h-8.19v-2.34h2.73zM299.86 42c1.64 0 3.35 0 4.41 1.25s1.13 3.28 1.13 5.07v5.3c0 1.79 0 3.82-1.13 5.07s-2.77 1.25-4.41 1.25h-12v-2.39h2.73V33.76h-2.73v-2.34h5.46V42zm0 15.6a2.48 2.48 0 0 0 2.22-.78 6 6 0 0 0 .58-3.2v-5.3a6 6 0 0 0-.58-3.2 2.48 2.48 0 0 0-2.22-.78h-6.55v13.21zM315.36 59.89c-1.36 0-2.92 0-3.9-.82s-1-2.07-1-3.28v-2.3c0-1.21 0-2.5 1-3.28s2.54-.82 3.9-.82h6.44v-2.72a2.32 2.32 0 0 0-.58-1.91 4.1 4.1 0 0 0-2.42-.47h-3.2a2.21 2.21 0 0 0-1.44.31 1.44 1.44 0 0 0-.39 1.21v1H311v-1a3.87 3.87 0 0 1 .94-3.08c.9-.78 2.34-.78 3.63-.78h3.2c1.6 0 3.47 0 4.6.94s1.13 2.38 1.13 3.78v10.88h2.73v2.34zm0-8.15a2.74 2.74 0 0 0-1.72.35 1.75 1.75 0 0 0-.43 1.4v2.3a1.75 1.75 0 0 0 .43 1.4 2.73 2.73 0 0 0 1.72.35h6.44v-5.8zM343.73 42c1.64 0 3.35 0 4.41 1.25s1.13 3.28 1.13 5.07v9.28H352v2.34h-8.46v-2.39h3v-9.28a6 6 0 0 0-.58-3.2 2.48 2.48 0 0 0-2.22-.78h-6.55v13.26h3v2.34h-8.46v-2.34h2.73V44.29h-2.73V42zM359.22 44.29h-2.73V42h5.46v15.6h2.73v2.34h-8.19v-2.39h2.73zm-.31-9.83h3.35v3.39h-3.36zM374.33 59.89c-1.37 0-2.92 0-3.9-.82s-1-2.07-1-3.28v-2.3c0-1.21 0-2.5 1-3.28s2.54-.82 3.9-.82h6.44v-2.72a2.32 2.32 0 0 0-.58-1.91 4.1 4.1 0 0 0-2.42-.47h-3.2a2.21 2.21 0 0 0-1.44.31 1.44 1.44 0 0 0-.39 1.21v1H370v-1a3.87 3.87 0 0 1 .94-3.08c.9-.78 2.34-.78 3.63-.78h3.2c1.6 0 3.47 0 4.6.94s1.13 2.38 1.13 3.78v10.88h2.73v2.34zm0-8.15a2.74 2.74 0 0 0-1.72.35 1.75 1.75 0 0 0-.43 1.4v2.3a1.75 1.75 0 0 0 .43 1.4 2.73 2.73 0 0 0 1.72.35h6.44v-5.8zM402.7 42c1.64 0 3.35 0 4.41 1.25s1.13 3.28 1.13 5.07v9.28H411v2.34h-8.46v-2.39h3v-9.28a6 6 0 0 0-.58-3.2 2.48 2.48 0 0 0-2.22-.78h-6.55v13.26h3v2.34h-8.46v-2.34h2.73V44.29h-2.73V42zM419.1 56.5v3.39l-1.56 3.9h-1.83l1.56-3.9h-1.56V56.5zM457.6 46.79c1.17.78 1.37 2.3 1.37 3.71v4.13c0 1.6-.12 3.28-1.37 4.21s-3.59 1.05-5.54 1.05h-12.52v-2.34H442V35.71h-2.42v-2.34h12.32c1.83 0 3.94 0 5.27 1 1.17.9 1.33 2.5 1.33 4V42c0 1.33-.23 2.73-1.33 3.43a4.48 4.48 0 0 1-1.52.62 5.24 5.24 0 0 1 1.95.74zm-5.38-1.87a4.09 4.09 0 0 0 2.54-.55 2.88 2.88 0 0 0 .7-2.34v-3.71a2.51 2.51 0 0 0-.7-2.11 5.26 5.26 0 0 0-2.89-.51H445v9.2zm-.16 12.64a5.41 5.41 0 0 0 3.12-.59 2.71 2.71 0 0 0 .78-2.34v-4.14a3.12 3.12 0 0 0-.78-2.57 4.88 4.88 0 0 0-3.12-.66H445v10.3zM475.12 46.12a1.81 1.81 0 0 0-.47-1.48 3 3 0 0 0-1.79-.35h-3.59v13.26h3v2.34h-8.47v-2.34h2.73V44.29h-2.73V42h9c1.4 0 3 0 4 .82s1 2.11 1 3.35v1.21h-2.73zM492.15 57.55c1.29 0 2.69 0 2.69-1.29v-.86h2.73v.86a3.19 3.19 0 0 1-1.13 2.89c-1.13.74-3 .74-4.52.74H488c-1.64 0-3.39 0-4.52-1.17s-1.13-3-1.13-4.68v-5.3c0-1.91 0-4.06 1.13-5.42S486.34 42 488 42h3.9c1.68 0 3.47.08 4.52 1.36s1.13 3.51 1.13 5.42v3h-12.46V54a4.47 4.47 0 0 0 .59 2.81 2.88 2.88 0 0 0 2.34.7zm2.69-8.15v-.66a6.9 6.9 0 0 0-.58-3.55 2.63 2.63 0 0 0-2.34-.9H488a2.63 2.63 0 0 0-2.34.9 6.89 6.89 0 0 0-.59 3.55v.66zM507.56 55.05A3.38 3.38 0 0 0 508 57a2.07 2.07 0 0 0 1.72.59h3.51v2.34h-3.51c-1.4 0-3 0-3.9-1.05s-1-2.69-1-4.17V44.29H502V42h2.77v-5.63h2.77V42h4.88v2.34h-4.87zM533.1 53.57c0 1.79 0 3.82-1.17 5.07s-2.93 1.25-4.6 1.25h-4.06c-1.68 0-3.47 0-4.6-1.25s-1.17-3.28-1.17-5.07v-5.3c0-1.79 0-3.82 1.17-5.07s2.93-1.2 4.61-1.2h4.06c1.68 0 3.47 0 4.6 1.25s1.17 3.28 1.17 5.07zm-2.73-5.3a5.32 5.32 0 0 0-.62-3.2 2.91 2.91 0 0 0-2.42-.78h-4.06a2.91 2.91 0 0 0-2.42.78 5.31 5.31 0 0 0-.62 3.2v5.3a5.32 5.32 0 0 0 .63 3.2 2.91 2.91 0 0 0 2.42.78h4.06a2.91 2.91 0 0 0 2.42-.78 5.32 5.32 0 0 0 .62-3.2zM549.85 42c1.64 0 3.35 0 4.41 1.25s1.13 3.28 1.13 5.07v9.28h2.73v2.34h-8.46v-2.39h3v-9.28a6 6 0 0 0-.59-3.2 2.48 2.48 0 0 0-2.22-.78h-6.55v13.26h3v2.34h-8.46v-2.34h2.73V44.29h-2.73V42zM566.25 56.5v3.39l-1.56 3.9h-1.83l1.56-3.9h-1.56V56.5zM51.47 80.06a3.54 3.54 0 0 0-.7-2.69 4.1 4.1 0 0 0-2.85-.66h-5.38c-1.37 0-2.85.23-3.59 1.33-.9 1.33-.9 3.39-.9 5.23V92c0 1.83 0 3.9.9 5.23.74 1.09 2.22 1.33 3.59 1.33h5.38a4.1 4.1 0 0 0 2.85-.66 3.54 3.54 0 0 0 .7-2.69v-2.28h3v2.27c0 1.68-.08 3.47-1.33 4.56s-3.39 1.13-5.27 1.13h-5.33c-2.18 0-4.56-.12-6-1.79s-1.52-4.6-1.52-7.1v-8.74c0-2.5 0-5.3 1.52-7.1s3.78-1.79 6-1.79h5.38c1.87 0 3.94 0 5.27 1.13s1.33 2.89 1.33 4.56v2.26h-3zM70.52 87.12a1.81 1.81 0 0 0-.52-1.48 3 3 0 0 0-1.79-.35h-3.54v13.26h3v2.34h-8.46v-2.34h2.73V85.29h-2.73V83h9c1.4 0 3 0 4 .82s1 2.11 1 3.35v1.21h-2.69zM93.37 94.57c0 1.79 0 3.82-1.17 5.07s-2.92 1.25-4.6 1.25h-4.06c-1.68 0-3.47 0-4.6-1.25s-1.17-3.28-1.17-5.07v-5.3c0-1.79 0-3.82 1.17-5.07s2.92-1.2 4.6-1.2h4.06c1.68 0 3.47 0 4.6 1.25s1.17 3.28 1.17 5.07zm-2.73-5.3a5.32 5.32 0 0 0-.62-3.2 2.92 2.92 0 0 0-2.42-.78h-4.06a2.92 2.92 0 0 0-2.42.78 5.32 5.32 0 0 0-.62 3.2v5.3a5.32 5.32 0 0 0 .62 3.2 2.92 2.92 0 0 0 2.42.78h4.06a2.92 2.92 0 0 0 2.4-.78 5.32 5.32 0 0 0 .62-3.2zM103.32 100.89c-1.36 0-2.92 0-3.9-.82s-1-2.07-1-3.28v-2.3c0-1.21 0-2.5 1-3.28s2.54-.82 3.9-.82h6.44v-2.72a2.32 2.32 0 0 0-.58-1.91 4.1 4.1 0 0 0-2.42-.47h-3.2a2.21 2.21 0 0 0-1.44.31 1.44 1.44 0 0 0-.39 1.21v1H99v-1a3.87 3.87 0 0 1 .94-3.08c.9-.78 2.34-.78 3.63-.78h3.2c1.6 0 3.47 0 4.6.94s1.13 2.38 1.13 3.78v10.88h2.73v2.34zm0-8.15a2.74 2.74 0 0 0-1.72.35 1.75 1.75 0 0 0-.43 1.4v2.3a1.75 1.75 0 0 0 .43 1.4 2.73 2.73 0 0 0 1.72.35h6.44v-5.8zM123.49 96.05a3.37 3.37 0 0 0 .39 1.91 2.07 2.07 0 0 0 1.72.59h3.51v2.34h-3.51c-1.4 0-3 0-3.9-1.05s-1-2.69-1-4.17V85.29H118V83h2.77v-5.63h2.77V83h4.87v2.34h-4.87zM136 85.29h-2.73V83h5.46v15.6h2.73v2.34h-8.19v-2.39H136zm-.31-9.83h3.35v3.39h-3.35zM151.15 100.89c-1.36 0-2.92 0-3.9-.82s-1-2.07-1-3.28v-2.3c0-1.21 0-2.5 1-3.28s2.54-.82 3.9-.82h6.44v-2.72a2.32 2.32 0 0 0-.58-1.91 4.1 4.1 0 0 0-2.42-.47h-3.2a2.21 2.21 0 0 0-1.44.31 1.44 1.44 0 0 0-.39 1.21v1h-2.73v-1a3.87 3.87 0 0 1 .94-3.08c.9-.78 2.34-.78 3.63-.78h3.2c1.6 0 3.47 0 4.6.94s1.13 2.38 1.13 3.78v10.88H163v2.34zm0-8.15a2.74 2.74 0 0 0-1.72.35 1.75 1.75 0 0 0-.43 1.4v2.3a1.75 1.75 0 0 0 .43 1.4 2.73 2.73 0 0 0 1.72.35h6.44v-5.8zM179.52 83c1.64 0 3.35 0 4.41 1.25s1.13 3.28 1.13 5.07v9.28h2.73v2.34h-8.46v-2.39h3v-9.28a6 6 0 0 0-.58-3.2 2.48 2.48 0 0 0-2.22-.78H173v13.26h3v2.34h-8.46v-2.34h2.73V85.29h-2.73V83zM195.93 97.5v3.39l-1.56 3.9h-1.83l1.56-3.9h-1.56V97.5zM232.9 80.06a3.54 3.54 0 0 0-.7-2.69 4.1 4.1 0 0 0-2.85-.66H224c-1.37 0-2.85.23-3.59 1.33-.9 1.33-.9 3.39-.9 5.23V92c0 1.83 0 3.9.9 5.23.74 1.09 2.22 1.33 3.59 1.33h5.38a4.1 4.1 0 0 0 2.85-.66 3.54 3.54 0 0 0 .7-2.69v-2.28h3v2.27c0 1.68-.08 3.47-1.33 4.56s-3.39 1.13-5.27 1.13H224c-2.18 0-4.56-.12-6-1.79s-1.52-4.6-1.52-7.1v-8.74c0-2.5 0-5.3 1.52-7.1s3.78-1.79 6-1.79h5.38c1.87 0 3.94 0 5.27 1.13s1.33 2.89 1.33 4.56v2.26h-3zM256.74 83v2.34L244.1 98.55h10.26v-3h2.73v5.34h-16.38v-2.34l12.64-13.26h-9.09V88h-2.73v-5zM271.83 98.55c1.29 0 2.69 0 2.69-1.29v-.86h2.73v.86a3.19 3.19 0 0 1-1.13 2.89c-1.13.74-3 .74-4.52.74h-3.9c-1.64 0-3.39 0-4.52-1.17S262 96.72 262 95v-5.3c0-1.91 0-4.06 1.13-5.42S266 83 267.7 83h3.9c1.68 0 3.47.08 4.52 1.36s1.13 3.51 1.13 5.42v3h-12.48V95a4.48 4.48 0 0 0 .58 2.81 2.88 2.88 0 0 0 2.34.7zm2.69-8.15v-.66a6.9 6.9 0 0 0-.58-3.55 2.63 2.63 0 0 0-2.34-.9h-3.9a2.63 2.63 0 0 0-2.34.9 6.9 6.9 0 0 0-.58 3.55v.66zM294.27 87.12a1.77 1.77 0 0 0-.47-1.48 3.24 3.24 0 0 0-1.87-.35h-3.67a3 3 0 0 0-2.54.78 5.32 5.32 0 0 0-.62 3.2v5.3a5.32 5.32 0 0 0 .62 3.2 3 3 0 0 0 2.54.78h3.67a3.23 3.23 0 0 0 1.87-.35 1.76 1.76 0 0 0 .47-1.48v-1.21H297v1.21c0 1.25-.08 2.57-1 3.36s-2.61.82-4.06.82h-3.67c-1.72 0-3.55 0-4.72-1.25s-1.17-3.28-1.17-5.07v-5.3c0-1.79 0-3.82 1.17-5.07s3-1.25 4.72-1.25h3.67c1.44 0 3 0 4.06.82s1 2.11 1 3.35v1.21h-2.73zM313.86 83c1.64 0 3.35 0 4.41 1.25s1.13 3.28 1.13 5.07v9.28h2.73v2.34h-8.46v-2.39h3v-9.28a6 6 0 0 0-.58-3.2 2.48 2.48 0 0 0-2.22-.78h-6.55v13.26h3v2.34h-8.46v-2.34h2.73V74.76h-2.73v-2.34h5.46V83zM330.27 97.5v3.39l-1.56 3.9h-1.83l1.56-3.9h-1.56V97.5zM350.08 100.89v-2.34h3V76.71h-3v-2.34H365c2.18 0 4.56.12 6 1.79s1.48 4.6 1.48 7.1V92c0 2.5 0 5.3-1.48 7.1s-3.78 1.79-6 1.79zM365 98.55c1.37 0 2.81-.23 3.55-1.33.9-1.33.9-3.39.9-5.23v-8.73c0-1.83 0-3.9-.9-5.23-.74-1.09-2.18-1.33-3.55-1.33h-8.89v21.85zM382.49 100.89c-1.36 0-2.92 0-3.9-.82s-1-2.07-1-3.28v-2.3c0-1.21 0-2.5 1-3.28s2.54-.82 3.9-.82h6.44v-2.72a2.32 2.32 0 0 0-.58-1.91 4.1 4.1 0 0 0-2.42-.47h-3.2a2.21 2.21 0 0 0-1.44.31 1.44 1.44 0 0 0-.39 1.21v1h-2.73v-1a3.87 3.87 0 0 1 .94-3.08c.9-.78 2.34-.78 3.63-.78h3.2c1.6 0 3.47 0 4.6.94s1.13 2.38 1.13 3.78v10.88h2.73v2.34zm0-8.15a2.74 2.74 0 0 0-1.72.35 1.75 1.75 0 0 0-.43 1.4v2.3a1.75 1.75 0 0 0 .43 1.4 2.73 2.73 0 0 0 1.72.35h6.44v-5.8zM410.86 83c1.64 0 3.35 0 4.41 1.25s1.13 3.28 1.13 5.07v9.28h2.73v2.34h-8.46v-2.39h3v-9.28a6 6 0 0 0-.58-3.2 2.48 2.48 0 0 0-2.22-.78h-6.55v13.26h3v2.34h-8.46v-2.34h2.73V85.29h-2.73V83zM426.35 85.29h-2.73V83h5.46v15.6h2.73v2.34h-8.19v-2.39h2.73zm-.35-9.83h3.35v3.39H426zM448.4 86.93a1.48 1.48 0 0 0-.51-1.33 4.46 4.46 0 0 0-2.11-.31h-3.63a5 5 0 0 0-2.22.31 1.53 1.53 0 0 0-.58 1.33v2.18a1.53 1.53 0 0 0 .58 1.33 5 5 0 0 0 2.22.31h3.74c1.56 0 3.35 0 4.45.78s1.09 2 1.09 3.2v2.18c0 1.21-.12 2.5-1.09 3.2s-2.89.78-4.45.78h-3.74c-1.56 0-3.31 0-4.41-.78a3.72 3.72 0 0 1-1.13-3.2v-1.09h2.73v1.09a1.53 1.53 0 0 0 .58 1.33 5 5 0 0 0 2.22.31h3.74a5.14 5.14 0 0 0 2.26-.31 1.5 1.5 0 0 0 .55-1.33v-2.18a1.5 1.5 0 0 0-.55-1.33 5.14 5.14 0 0 0-2.26-.31h-3.74c-1.56 0-3.31 0-4.41-.78a3.72 3.72 0 0 1-1.13-3.2v-2.18a3.72 3.72 0 0 1 1.13-3.2c1.09-.78 2.85-.78 4.41-.78h3.63c1.48 0 3.24 0 4.29.78s1.05 2 1.05 3.2V88h-2.71zM468.31 83c1.64 0 3.35 0 4.41 1.25s1.13 3.28 1.13 5.07v9.28h2.73v2.34h-8.46v-2.39h3v-9.28a6 6 0 0 0-.58-3.2 2.48 2.48 0 0 0-2.22-.78h-6.55v13.26h3v2.34h-8.47v-2.34h2.7V74.76h-2.7v-2.34h5.46V83zM484.72 97.5v3.39l-1.56 3.9h-1.83l1.56-3.9h-1.56V97.5zM504.53 100.89v-2.34h3V76.71h-3v-2.34h14.94c2.18 0 4.56.12 6 1.79s1.48 4.6 1.48 7.1V92c0 2.5 0 5.3-1.48 7.1s-3.78 1.79-6 1.79zm14.94-2.34c1.37 0 2.81-.23 3.55-1.33.9-1.33.9-3.39.9-5.23v-8.73c0-1.83 0-3.9-.9-5.23-.74-1.09-2.18-1.33-3.55-1.33h-8.89v21.85zM537.12 94.57a6 6 0 0 0 .55 3.2 2.47 2.47 0 0 0 2.14.78h6.28V85.29h-2.73V83h5.46v15.6h2.73v2.34h-11.74c-1.6 0-3.31 0-4.33-1.25s-1.09-3.28-1.09-5.07v-9.33h-2.73V83h5.46zM560.07 96.05a3.37 3.37 0 0 0 .39 1.91 2.07 2.07 0 0 0 1.72.59h3.51v2.34h-3.51c-1.4 0-3 0-3.9-1.05s-1-2.69-1-4.17V85.29h-2.77V83h2.77v-5.63h2.77V83h4.88v2.34h-4.88zM581.9 87.12a1.77 1.77 0 0 0-.47-1.48 3.24 3.24 0 0 0-1.87-.35h-3.66a3 3 0 0 0-2.54.78 5.32 5.32 0 0 0-.62 3.2v5.3a5.33 5.33 0 0 0 .62 3.2 3 3 0 0 0 2.54.78h3.67a3.24 3.24 0 0 0 1.87-.35 1.77 1.77 0 0 0 .47-1.48v-1.21h2.73v1.21c0 1.25-.08 2.57-1 3.36s-2.61.82-4.06.82h-3.68c-1.72 0-3.55 0-4.72-1.25S570 96.37 570 94.57v-5.3c0-1.79 0-3.82 1.17-5.07s3-1.25 4.72-1.25h3.67c1.44 0 3 0 4.06.82s1 2.11 1 3.35v1.21h-2.72zM601.5 83c1.64 0 3.35 0 4.41 1.25s1.09 3.22 1.09 5.02v9.28h2.73v2.34h-8.46v-2.34h3v-9.28a6 6 0 0 0-.58-3.2 2.48 2.48 0 0 0-2.22-.78h-6.55v13.26h3v2.34h-8.46v-2.34h2.73V74.76h-2.73v-2.34h5.46V83zM617.9 97.5v3.39l-1.56 3.9h-1.83l1.56-3.9h-1.56V97.5zM40.35 126.91h10.18v2.34H40.35v10.3h11.08v-3h3v5.34H34.31v-2.34h3v-21.84h-3v-2.34h19.34v5h-3v-2.69h-10.3zM71 124c1.64 0 3.35 0 4.41 1.25s1.13 3.28 1.13 5.07v9.28h2.73v2.34h-8.48v-2.34h3v-9.28a6 6 0 0 0-.58-3.2 2.48 2.48 0 0 0-2.22-.78h-6.56v13.26h3v2.34H59v-2.34h2.7v-13.31H59V124zM93.14 147.35a2.86 2.86 0 0 0 2.26-.66 4.13 4.13 0 0 0 .55-2.61v-2.18H89.4c-1.64 0-3.35 0-4.41-1.25s-1.13-3.28-1.13-5.07v-5.3c0-1.79 0-3.82 1.13-5.07S87.76 124 89.4 124h12v2.34h-2.72v17.78c0 1.6 0 3.35-1.09 4.49s-2.85 1.13-4.45 1.13h-8.58v-2.34zm-3.74-21.06a2.48 2.48 0 0 0-2.22.78 6 6 0 0 0-.58 3.2v5.3a6 6 0 0 0 .58 3.2 2.48 2.48 0 0 0 2.22.78h6.55v-13.26zM107.34 115.76h-2.73v-2.34h5.46v26.13h2.73v2.34h-8.19v-2.34h2.73zM120.13 126.29h-2.73V124h5.46v15.6h2.73v2.34h-8.19v-2.34h2.73zm-.31-9.83h3.35v3.39h-3.35zM142.18 127.93a1.48 1.48 0 0 0-.51-1.33 4.46 4.46 0 0 0-2.11-.31h-3.63a5 5 0 0 0-2.22.31 1.53 1.53 0 0 0-.58 1.33v2.18a1.53 1.53 0 0 0 .58 1.33 5 5 0 0 0 2.22.31h3.74c1.56 0 3.35 0 4.45.78s1.09 2 1.09 3.2v2.18c0 1.21-.12 2.5-1.09 3.2s-2.89.78-4.45.78h-3.74c-1.56 0-3.31 0-4.41-.78a3.73 3.73 0 0 1-1.13-3.2v-1.09h2.73v1.09a1.53 1.53 0 0 0 .58 1.33 5 5 0 0 0 2.22.31h3.74a5.13 5.13 0 0 0 2.26-.31 1.5 1.5 0 0 0 .55-1.33v-2.18a1.5 1.5 0 0 0-.55-1.33 5.13 5.13 0 0 0-2.26-.31h-3.74c-1.56 0-3.31 0-4.41-.78a3.73 3.73 0 0 1-1.13-3.2v-2.18a3.72 3.72 0 0 1 1.13-3.2c1.09-.78 2.85-.78 4.41-.78h3.63c1.48 0 3.24 0 4.29.78s1.05 2 1.05 3.2V129h-2.73zM162.09 124c1.64 0 3.35 0 4.41 1.25s1.13 3.28 1.13 5.07v9.28h2.73v2.34h-8.46v-2.34h3v-9.28a6 6 0 0 0-.58-3.2 2.48 2.48 0 0 0-2.22-.78h-6.55v13.26h3v2.34h-8.46v-2.34h2.73v-23.84h-2.73v-2.34h5.46V124zM178.49 138.5v3.39l-1.56 3.9h-1.83l1.56-3.9h-1.56v-3.39zM204.35 126.91h10.18v2.34h-10.18v10.3h11.08v-3h3v5.34H198.3v-2.34h3v-21.84h-3v-2.34h19.34v5h-3v-2.69h-10.3zM235 127.93a1.48 1.48 0 0 0-.51-1.33 4.46 4.46 0 0 0-2.11-.31h-3.63a5 5 0 0 0-2.22.31 1.53 1.53 0 0 0-.58 1.33v2.18a1.53 1.53 0 0 0 .58 1.33 5 5 0 0 0 2.22.31h3.74c1.56 0 3.35 0 4.45.78s1.09 2 1.09 3.2v2.18c0 1.21-.12 2.5-1.09 3.2s-2.89.78-4.45.78h-3.74c-1.56 0-3.31 0-4.41-.78a3.73 3.73 0 0 1-1.13-3.2v-1.09h2.73v1.09a1.53 1.53 0 0 0 .58 1.33 5 5 0 0 0 2.22.31h3.74a5.13 5.13 0 0 0 2.26-.31 1.5 1.5 0 0 0 .55-1.33v-2.18a1.5 1.5 0 0 0-.55-1.33 5.13 5.13 0 0 0-2.26-.31h-3.74c-1.56 0-3.31 0-4.41-.78a3.73 3.73 0 0 1-1.13-3.2v-2.18a3.72 3.72 0 0 1 1.13-3.2c1.09-.78 2.85-.78 4.41-.78h3.63c1.48 0 3.24 0 4.29.78s1.05 2 1.05 3.2V129H235zM248 137.05a3.37 3.37 0 0 0 .39 1.91 2.07 2.07 0 0 0 1.72.59h3.51v2.34h-3.51c-1.4 0-3 0-3.9-1.05s-1-2.69-1-4.17v-10.38h-2.77V124h2.77v-5.58H248V124h4.88v2.34H248zM273.55 135.57c0 1.79 0 3.82-1.17 5.07s-2.93 1.25-4.6 1.25h-4.06c-1.68 0-3.47 0-4.6-1.25s-1.17-3.28-1.17-5.07v-5.3c0-1.79 0-3.82 1.17-5.07s2.88-1.2 4.61-1.2h4.06c1.68 0 3.47 0 4.6 1.25s1.17 3.28 1.17 5.07zm-2.73-5.3a5.32 5.32 0 0 0-.62-3.2 2.92 2.92 0 0 0-2.42-.78h-4.06a2.92 2.92 0 0 0-2.42.78 5.32 5.32 0 0 0-.62 3.2v5.3a5.32 5.32 0 0 0 .62 3.2 2.92 2.92 0 0 0 2.42.78h4.06a2.92 2.92 0 0 0 2.42-.78 5.32 5.32 0 0 0 .62-3.2zM290.3 124c1.64 0 3.35 0 4.41 1.25s1.13 3.28 1.13 5.07v9.28h2.73v2.34h-8.47v-2.34h3v-9.28a6 6 0 0 0-.58-3.2 2.48 2.48 0 0 0-2.22-.78h-6.55v13.26h3v2.34h-8.46v-2.34H281v-13.31h-2.73V124zM305.78 126.29h-2.73V124h5.46v15.6h2.73v2.34h-8.19v-2.34h2.73zm-.31-9.83h3.35v3.39h-3.35zM320.9 141.89c-1.36 0-2.92 0-3.9-.82s-1-2.07-1-3.28v-2.3c0-1.21 0-2.5 1-3.28s2.54-.82 3.9-.82h6.44v-2.73a2.32 2.32 0 0 0-.58-1.91 4.1 4.1 0 0 0-2.42-.47h-3.2a2.21 2.21 0 0 0-1.44.31 1.44 1.44 0 0 0-.39 1.21v1h-2.73v-1a3.87 3.87 0 0 1 .94-3.08c.9-.78 2.34-.78 3.63-.78h3.2c1.6 0 3.47 0 4.6.94s1.13 2.38 1.13 3.78v10.88h2.73v2.34zm0-8.15a2.74 2.74 0 0 0-1.72.35 1.75 1.75 0 0 0-.43 1.4v2.3a1.75 1.75 0 0 0 .43 1.4 2.73 2.73 0 0 0 1.72.35h6.44v-5.81zM349.27 124c1.64 0 3.35 0 4.41 1.25s1.13 3.28 1.13 5.07v9.28h2.73v2.34h-8.46v-2.34h3v-9.28a6 6 0 0 0-.59-3.2 2.48 2.48 0 0 0-2.22-.78h-6.55v13.26h3v2.34h-8.46v-2.34H340v-13.31h-2.73V124zM365.67 138.5v3.39l-1.56 3.9h-1.83l1.56-3.9h-1.56v-3.39zM391.53 128h10.33v2.34h-10.33v9.21h3v2.34h-9v-2.34h3v-21.84h-3v-2.34h19.34v5h-3v-2.69h-10.3zM412.53 141.89c-1.36 0-2.92 0-3.9-.82s-1-2.07-1-3.28v-2.3c0-1.21 0-2.5 1-3.28s2.54-.82 3.9-.82H419v-2.73a2.33 2.33 0 0 0-.58-1.91 4.11 4.11 0 0 0-2.42-.47h-3.2a2.21 2.21 0 0 0-1.44.31 1.44 1.44 0 0 0-.39 1.21v1h-2.77v-1a3.87 3.87 0 0 1 .94-3.08c.9-.78 2.34-.78 3.63-.78H416c1.6 0 3.47 0 4.6.94s1.13 2.38 1.13 3.78v10.88h2.73v2.34zm0-8.15a2.74 2.74 0 0 0-1.71.35 1.75 1.75 0 0 0-.43 1.4v2.3a1.75 1.75 0 0 0 .43 1.4 2.73 2.73 0 0 0 1.71.35H419v-5.81zM440.2 128.12a1.81 1.81 0 0 0-.47-1.48 3 3 0 0 0-1.79-.35h-3.59v13.26h3v2.34h-8.46v-2.34h2.73v-13.26h-2.73V124h9c1.4 0 3 0 4 .82s1 2.11 1 3.35v1.21h-2.69zM463.05 135.57c0 1.79 0 3.82-1.17 5.07s-2.92 1.25-4.6 1.25h-4.06c-1.68 0-3.47 0-4.6-1.25s-1.17-3.28-1.17-5.07v-5.3c0-1.79 0-3.82 1.17-5.07s2.93-1.25 4.6-1.25h4.06c1.68 0 3.47 0 4.6 1.25s1.17 3.28 1.17 5.07zm-2.73-5.3a5.32 5.32 0 0 0-.62-3.2 2.92 2.92 0 0 0-2.42-.78h-4.06a2.91 2.91 0 0 0-2.42.78 5.32 5.32 0 0 0-.62 3.2v5.3a5.32 5.32 0 0 0 .62 3.2 2.91 2.91 0 0 0 2.42.78h4.06a2.92 2.92 0 0 0 2.42-.78 5.32 5.32 0 0 0 .62-3.2zM478 139.55c1.29 0 2.69 0 2.69-1.29v-.86h2.73v.86a3.19 3.19 0 0 1-1.13 2.89c-1.13.74-3 .74-4.53.74h-3.9c-1.64 0-3.39 0-4.52-1.17s-1.13-3-1.13-4.68v-5.3c0-1.91 0-4.06 1.13-5.42s2.85-1.36 4.52-1.36h3.9c1.68 0 3.47.08 4.53 1.36s1.13 3.51 1.13 5.42v3H470.9V136a4.48 4.48 0 0 0 .58 2.81 2.88 2.88 0 0 0 2.34.7zm2.69-8.15v-.66a6.9 6.9 0 0 0-.58-3.55 2.63 2.63 0 0 0-2.34-.9h-3.9a2.63 2.63 0 0 0-2.34.9 6.91 6.91 0 0 0-.58 3.55v.66zM500.28 127.93a1.48 1.48 0 0 0-.51-1.33 4.46 4.46 0 0 0-2.11-.31H494a5 5 0 0 0-2.22.31 1.53 1.53 0 0 0-.58 1.33v2.18a1.53 1.53 0 0 0 .58 1.33 5 5 0 0 0 2.22.31h3.74c1.56 0 3.35 0 4.45.78s1.09 2 1.09 3.2v2.18c0 1.21-.12 2.5-1.09 3.2s-2.89.78-4.45.78H494c-1.56 0-3.32 0-4.41-.78a3.73 3.73 0 0 1-1.13-3.2v-1.09h2.73v1.09a1.53 1.53 0 0 0 .58 1.33 5 5 0 0 0 2.22.31h3.74a5.13 5.13 0 0 0 2.26-.31 1.5 1.5 0 0 0 .55-1.33v-2.18a1.5 1.5 0 0 0-.55-1.33 5.13 5.13 0 0 0-2.26-.31H494c-1.56 0-3.32 0-4.41-.78a3.73 3.73 0 0 1-1.13-3.2v-2.18a3.72 3.72 0 0 1 1.13-3.2c1.09-.78 2.85-.78 4.41-.78h3.63c1.48 0 3.24 0 4.29.78s1.05 2 1.05 3.2V129h-2.73zM518.23 139.55c1.29 0 2.69 0 2.69-1.29v-.86h2.73v.86a3.19 3.19 0 0 1-1.13 2.89c-1.13.74-3 .74-4.52.74h-3.9c-1.64 0-3.39 0-4.52-1.17s-1.13-3-1.13-4.68v-5.3c0-1.91 0-4.06 1.13-5.42s2.85-1.36 4.52-1.36h3.9c1.68 0 3.47.08 4.52 1.36s1.13 3.51 1.13 5.42v3h-12.48V136a4.48 4.48 0 0 0 .58 2.81 2.88 2.88 0 0 0 2.34.7zm2.69-8.15v-.66a6.89 6.89 0 0 0-.59-3.55 2.63 2.63 0 0 0-2.34-.9h-3.9a2.63 2.63 0 0 0-2.34.9 6.9 6.9 0 0 0-.58 3.55v.66zM532.18 138.5v3.39l-1.56 3.9h-1.83l1.56-3.9h-1.56v-3.39zM40.35 169h10.34v2.34H40.35v9.21h3v2.34h-9v-2.34h3v-21.84h-3v-2.34h19.3v5h-3v-2.69h-10.3zM59.58 167.29h-2.73V165h5.46v15.6H65v2.34h-8.15v-2.34h2.73zm-.31-9.83h3.35v3.39h-3.35zM81.65 165c1.64 0 3.35 0 4.41 1.25s1.13 3.28 1.13 5.07v9.28h2.73v2.34h-8.47v-2.34h3v-9.28a6 6 0 0 0-.58-3.2 2.48 2.48 0 0 0-2.22-.78H75.1v13.26h3v2.34h-8.47v-2.34h2.73v-13.31h-2.73V165zM106.42 165c1.64 0 3.35 0 4.41 1.25s1.13 3.28 1.13 5.07v9.28h2.73v2.34h-8.46v-2.34h3v-9.28a6 6 0 0 0-.58-3.2 2.48 2.48 0 0 0-2.22-.78h-6.57v13.26h3v2.34H94.4v-2.34h2.73v-13.31H94.4V165zM121.9 167.29h-2.73V165h5.46v15.6h2.73v2.34h-8.19v-2.34h2.73zm-.31-9.83h3.35v3.39h-3.35zM144 168.93a1.48 1.48 0 0 0-.51-1.33 4.46 4.46 0 0 0-2.11-.31h-3.63a5 5 0 0 0-2.22.31 1.53 1.53 0 0 0-.58 1.33v2.18a1.53 1.53 0 0 0 .58 1.33 5 5 0 0 0 2.22.31h3.74c1.56 0 3.35 0 4.45.78s1.09 2 1.09 3.2v2.18c0 1.21-.12 2.5-1.09 3.2s-2.89.78-4.45.78h-3.74c-1.56 0-3.31 0-4.41-.78a3.73 3.73 0 0 1-1.13-3.2v-1.09h2.73v1.09a1.53 1.53 0 0 0 .58 1.33 5 5 0 0 0 2.22.31h3.74a5.13 5.13 0 0 0 2.26-.31 1.5 1.5 0 0 0 .55-1.33v-2.18a1.5 1.5 0 0 0-.55-1.33 5.13 5.13 0 0 0-2.26-.31h-3.74c-1.56 0-3.31 0-4.41-.78a3.73 3.73 0 0 1-1.13-3.2v-2.18a3.72 3.72 0 0 1 1.13-3.2c1.09-.78 2.85-.78 4.41-.78h3.63c1.48 0 3.24 0 4.29.78s1.05 2 1.05 3.2V170H144zM163.87 165c1.64 0 3.35 0 4.41 1.25s1.13 3.28 1.13 5.07v9.28h2.73v2.34h-8.46v-2.34h3v-9.28a6 6 0 0 0-.58-3.2 2.48 2.48 0 0 0-2.22-.78h-6.55v13.26h3v2.34h-8.46v-2.34h2.73v-23.84h-2.73v-2.34h5.46V165zM180.27 179.5v3.39l-1.56 3.9h-1.83l1.56-3.9h-1.56v-3.39zM206.13 169h10.33v2.34h-10.33v9.21h3v2.34h-9v-2.34h3v-21.84h-3v-2.34h19.34v5h-3v-2.69h-10.3zM233.55 169.12a1.81 1.81 0 0 0-.47-1.48 3 3 0 0 0-1.79-.35h-3.59v13.26h3v2.34h-8.46v-2.34H225v-13.26h-2.73V165h9c1.4 0 3 0 4 .82s1 2.11 1 3.35v1.21h-2.73zM250.58 180.55c1.29 0 2.69 0 2.69-1.29v-.86H256v.86a3.19 3.19 0 0 1-1.13 2.89c-1.13.74-3 .74-4.52.74h-3.9c-1.64 0-3.39 0-4.52-1.17s-1.13-3-1.13-4.68v-5.3c0-1.91 0-4.06 1.13-5.42s2.85-1.36 4.52-1.36h3.9c1.68 0 3.47.08 4.52 1.36s1.13 3.51 1.13 5.42v3h-12.47V177a4.48 4.48 0 0 0 .58 2.81 2.88 2.88 0 0 0 2.34.7zm2.69-8.15v-.66a6.9 6.9 0 0 0-.58-3.55 2.63 2.63 0 0 0-2.34-.9h-3.9a2.63 2.63 0 0 0-2.34.9 6.9 6.9 0 0 0-.58 3.55v.66zM272.87 165c1.64 0 3.35 0 4.41 1.25s1.13 3.28 1.13 5.07v9.28h2.73v2.34h-8.46v-2.34h3v-9.28a6 6 0 0 0-.58-3.2 2.48 2.48 0 0 0-2.22-.78h-6.55v13.26h3v2.34h-8.46v-2.34h2.73v-13.31h-2.73V165zM297.65 169.12a1.77 1.77 0 0 0-.47-1.48 3.24 3.24 0 0 0-1.87-.35h-3.67a3 3 0 0 0-2.54.78 5.32 5.32 0 0 0-.62 3.2v5.3a5.32 5.32 0 0 0 .62 3.2 3 3 0 0 0 2.54.78h3.67a3.23 3.23 0 0 0 1.87-.35 1.76 1.76 0 0 0 .47-1.48v-1.21h2.73v1.21c0 1.25-.08 2.57-1 3.36s-2.61.82-4.06.82h-3.67c-1.72 0-3.55 0-4.72-1.25s-1.17-3.28-1.17-5.07v-5.3c0-1.79 0-3.82 1.17-5.07s3-1.25 4.72-1.25h3.67c1.44 0 3 0 4.06.82s1 2.11 1 3.35v1.21h-2.73zM317.24 165c1.64 0 3.35 0 4.41 1.25s1.13 3.28 1.13 5.07v9.28h2.73v2.34H317v-2.34h3v-9.28a6 6 0 0 0-.58-3.2 2.48 2.48 0 0 0-2.22-.78h-6.55v13.26h3v2.34h-8.46v-2.34H308v-23.84h-2.73v-2.34h5.46V165zM333.65 179.5v3.39l-1.56 3.9h-1.83l1.56-3.9h-1.56v-3.39zM359.5 169h10.34v2.34H359.5v9.21h3v2.34h-9v-2.34h3v-21.84h-3v-2.34h19.3v5h-3v-2.69h-10.3zM386.92 169.12a1.81 1.81 0 0 0-.47-1.48 3 3 0 0 0-1.79-.35h-3.59v13.26h3v2.34h-8.46v-2.34h2.73v-13.26h-2.73V165h9c1.4 0 3 0 4 .82s1 2.11 1 3.35v1.21h-2.73zM396.64 167.29h-2.73V165h5.46v15.6h2.73v2.34h-8.19v-2.34h2.73zm-.31-9.83h3.35v3.39h-3.35zM418.7 168.93a1.48 1.48 0 0 0-.51-1.33 4.46 4.46 0 0 0-2.11-.31h-3.63a5 5 0 0 0-2.22.31 1.53 1.53 0 0 0-.58 1.33v2.18a1.53 1.53 0 0 0 .58 1.33 5 5 0 0 0 2.22.31h3.74c1.56 0 3.35 0 4.45.78s1.09 2 1.09 3.2v2.18c0 1.21-.12 2.5-1.09 3.2s-2.89.78-4.45.78h-3.74c-1.56 0-3.31 0-4.41-.78a3.72 3.72 0 0 1-1.13-3.2v-1.09h2.73v1.09a1.53 1.53 0 0 0 .58 1.33 5 5 0 0 0 2.22.31h3.74a5.14 5.14 0 0 0 2.26-.31 1.5 1.5 0 0 0 .55-1.33v-2.18a1.5 1.5 0 0 0-.55-1.33 5.14 5.14 0 0 0-2.26-.31h-3.74c-1.56 0-3.31 0-4.41-.78a3.72 3.72 0 0 1-1.13-3.2v-2.18a3.72 3.72 0 0 1 1.13-3.2c1.09-.78 2.85-.78 4.41-.78h3.63c1.48 0 3.24 0 4.29.78s1.05 2 1.05 3.2V170h-2.71zM429.32 167.29h-2.73V165h5.46v15.6h2.73v2.34h-8.19v-2.34h2.73zm-.31-9.83h3.35v3.39H429zM444.43 182.89c-1.36 0-2.92 0-3.9-.82s-1-2.07-1-3.28v-2.3c0-1.21 0-2.5 1-3.28s2.54-.82 3.9-.82h6.44v-2.73a2.32 2.32 0 0 0-.58-1.91 4.1 4.1 0 0 0-2.42-.47h-3.2a2.21 2.21 0 0 0-1.44.31 1.44 1.44 0 0 0-.39 1.21v1h-2.73v-1a3.87 3.87 0 0 1 .94-3.08c.9-.78 2.34-.78 3.63-.78h3.2c1.6 0 3.47 0 4.6.94s1.13 2.38 1.13 3.78v10.88h2.73v2.34zm0-8.15a2.74 2.74 0 0 0-1.72.35 1.75 1.75 0 0 0-.43 1.4v2.3a1.75 1.75 0 0 0 .43 1.4 2.73 2.73 0 0 0 1.72.35h6.44v-5.81zM472.81 165c1.64 0 3.35 0 4.41 1.25s1.13 3.28 1.13 5.07v9.28h2.73v2.34h-8.46v-2.34h3v-9.28a6 6 0 0 0-.58-3.2 2.48 2.48 0 0 0-2.22-.78h-6.55v13.26h3v2.34h-8.46v-2.34h2.73v-13.31h-2.73V165zM489.21 179.5v3.39l-1.56 3.9h-1.83l1.56-3.9h-1.56v-3.39zM527 162.06a3.23 3.23 0 0 0-.82-2.69 5.8 5.8 0 0 0-3.43-.66h-5.66c-1.29 0-2.69.19-3.43 1.25-.86 1.25-.86 3.28-.86 5v8.74c0 1.91 0 4.13.86 5.5a3.88 3.88 0 0 0 3.43 1.37H527v-7.27h-5.85V171H530v11.93h-12.95c-2.14 0-4.48-.16-5.81-1.83-1.44-1.83-1.48-4.8-1.48-7.37V165c0-2.42 0-5.15 1.48-6.86s3.67-1.72 5.81-1.72h5.66c2 0 4.37 0 5.81 1.13s1.44 2.85 1.44 4.56v2.26h-3zM540 182.89c-1.37 0-2.92 0-3.9-.82s-1-2.07-1-3.28v-2.3c0-1.21 0-2.5 1-3.28s2.54-.82 3.9-.82h6.44v-2.73a2.32 2.32 0 0 0-.58-1.91 4.1 4.1 0 0 0-2.42-.47h-3.2a2.21 2.21 0 0 0-1.44.31 1.44 1.44 0 0 0-.39 1.21v1h-2.73v-1a3.87 3.87 0 0 1 .94-3.08c.9-.78 2.34-.78 3.63-.78h3.2c1.6 0 3.47 0 4.6.94s1.13 2.38 1.13 3.78v10.88h2.73v2.34zm0-8.15a2.74 2.74 0 0 0-1.72.35 1.75 1.75 0 0 0-.43 1.4v2.3a1.75 1.75 0 0 0 .43 1.4 2.73 2.73 0 0 0 1.72.35h6.44v-5.81zM566.28 180.55c1.29 0 2.69 0 2.69-1.29v-.86h2.73v.86a3.19 3.19 0 0 1-1.13 2.89c-1.13.74-3 .74-4.52.74h-3.9c-1.64 0-3.39 0-4.53-1.17s-1.13-3-1.13-4.68v-5.3c0-1.91 0-4.06 1.13-5.42s2.85-1.36 4.53-1.36H566c1.68 0 3.47.08 4.52 1.36s1.13 3.51 1.13 5.42v3h-12.43V177a4.48 4.48 0 0 0 .58 2.81 2.88 2.88 0 0 0 2.34.7zm2.72-8.15v-.66a6.91 6.91 0 0 0-.58-3.55 2.63 2.63 0 0 0-2.34-.9h-3.9a2.63 2.63 0 0 0-2.34.9 6.9 6.9 0 0 0-.58 3.55v.66zM579.29 156.76h-2.73v-2.34H582v26.13h2.73v2.34h-8.19v-2.34h2.73zM592.07 167.29h-2.73V165h5.46v15.6h2.73v2.34h-8.19v-2.34h2.73zm-.31-9.83h3.35v3.39h-3.35zM614.14 169.12a1.77 1.77 0 0 0-.47-1.48 3.24 3.24 0 0 0-1.87-.35h-3.67a3 3 0 0 0-2.54.78 5.32 5.32 0 0 0-.62 3.2v5.3a5.32 5.32 0 0 0 .62 3.2 3 3 0 0 0 2.54.78h3.67a3.23 3.23 0 0 0 1.87-.35 1.76 1.76 0 0 0 .47-1.48v-1.21h2.73v1.21c0 1.25-.08 2.57-1 3.36s-2.61.82-4.06.82h-3.67c-1.72 0-3.55 0-4.72-1.25s-1.17-3.28-1.17-5.07v-5.3c0-1.79 0-3.82 1.17-5.07s3-1.25 4.72-1.25h3.67c1.44 0 3 0 4.06.82s1 2.11 1 3.35v1.21h-2.73zM625.38 179.5v3.39l-1.56 3.9H622l1.56-3.9H622v-3.39zM52.25 203.06a3.22 3.22 0 0 0-.82-2.69 5.8 5.8 0 0 0-3.43-.66h-5.66c-1.29 0-2.69.19-3.43 1.25-.86 1.25-.86 3.28-.86 5v8.74c0 1.91 0 4.13.86 5.5a3.88 3.88 0 0 0 3.43 1.37h9.91v-7.27H46.4V212h8.85v11.93H42.34c-2.15 0-4.48-.16-5.81-1.83-1.44-1.83-1.48-4.8-1.48-7.37V206c0-2.42 0-5.15 1.48-6.86s3.67-1.72 5.81-1.72H48c2 0 4.37 0 5.81 1.13s1.44 2.85 1.44 4.56v2.26h-3zM70.23 221.55c1.29 0 2.69 0 2.69-1.29v-.86h2.73v.86a3.19 3.19 0 0 1-1.13 2.89c-1.13.74-3 .74-4.52.74h-3.9c-1.64 0-3.39 0-4.52-1.17s-1.13-3-1.13-4.68v-5.3c0-1.91 0-4.06 1.13-5.42s2.84-1.32 4.51-1.32H70c1.68 0 3.47.08 4.52 1.36s1.13 3.51 1.13 5.42v3H63.17V218a4.48 4.48 0 0 0 .58 2.81 2.88 2.88 0 0 0 2.34.7zm2.69-8.15v-.66a6.9 6.9 0 0 0-.58-3.55 2.63 2.63 0 0 0-2.34-.9h-3.9a2.63 2.63 0 0 0-2.34.9 6.9 6.9 0 0 0-.58 3.55v.66zM91.81 210.12a1.81 1.81 0 0 0-.47-1.48 3 3 0 0 0-1.79-.35H86v13.26h3v2.34h-8.5v-2.34h2.73v-13.26H80.5V206h9c1.4 0 3 0 4 .82s1 2.11 1 3.35v1.21h-2.69zM120.92 206c1.52 0 3.16.08 4.13 1.25s1.05 3.28 1.05 5.07v9.28h2.73v2.34h-8.19v-2.34h2.73v-9.28a6.44 6.44 0 0 0-.51-3.2 2.16 2.16 0 0 0-1.95-.78h-5.73v13.26h2.46v2.34H110v-2.34h2.46v-13.31h-8.19v13.26H107v2.34h-8.2v-2.34h2.73v-13.26H98.8V206zM138.4 223.89c-1.36 0-2.92 0-3.9-.82s-1-2.07-1-3.28v-2.3c0-1.21 0-2.5 1-3.28s2.54-.82 3.9-.82h6.44v-2.73a2.32 2.32 0 0 0-.58-1.91 4.1 4.1 0 0 0-2.42-.47h-3.2a2.21 2.21 0 0 0-1.44.31 1.44 1.44 0 0 0-.39 1.21v1h-2.73v-1a3.87 3.87 0 0 1 .94-3.08c.9-.78 2.34-.78 3.63-.78h3.2c1.6 0 3.47 0 4.6.94s1.13 2.38 1.13 3.78v10.88h2.73v2.34zm0-8.15a2.74 2.74 0 0 0-1.72.35 1.75 1.75 0 0 0-.43 1.4v2.3a1.75 1.75 0 0 0 .43 1.4 2.73 2.73 0 0 0 1.72.35h6.44v-5.81zM166.77 206c1.64 0 3.35 0 4.41 1.25s1.13 3.28 1.13 5.07v9.28H175v2.34h-8.46v-2.34h3v-9.28a6 6 0 0 0-.58-3.2 2.48 2.48 0 0 0-2.22-.78h-6.55v13.26h3v2.34h-8.46v-2.34h2.73v-13.31h-2.73V206zM183.17 220.5v3.39l-1.56 3.9h-1.83l1.56-3.9h-1.56v-3.39zM220.93 203.06a3.22 3.22 0 0 0-.82-2.69 5.8 5.8 0 0 0-3.43-.66H211c-1.29 0-2.69.19-3.43 1.25-.86 1.25-.86 3.28-.86 5v8.74c0 1.91 0 4.13.86 5.5a3.88 3.88 0 0 0 3.43 1.37h9.91v-7.27h-5.85V212h8.85v11.93H211c-2.15 0-4.48-.16-5.81-1.83-1.44-1.83-1.48-4.8-1.48-7.37V206c0-2.42 0-5.15 1.48-6.86s3.67-1.72 5.81-1.72h5.66c2 0 4.37 0 5.81 1.13s1.44 2.85 1.44 4.56v2.26h-3zM240.18 210.12a1.81 1.81 0 0 0-.47-1.48 3 3 0 0 0-1.79-.35h-3.59v13.26h3v2.34h-8.46v-2.34h2.73v-13.26h-2.73V206h9c1.4 0 3 0 4 .82s1 2.11 1 3.35v1.21h-2.73zM257.22 221.55c1.29 0 2.69 0 2.69-1.29v-.86h2.73v.86a3.19 3.19 0 0 1-1.13 2.89c-1.13.74-3 .74-4.52.74h-3.9c-1.64 0-3.39 0-4.52-1.17s-1.13-3-1.13-4.68v-5.3c0-1.91 0-4.06 1.13-5.42s2.85-1.36 4.52-1.36H257c1.68 0 3.47.08 4.52 1.36s1.13 3.51 1.13 5.42v3h-12.49V218a4.48 4.48 0 0 0 .58 2.81 2.88 2.88 0 0 0 2.34.7zm2.69-8.15v-.66a6.9 6.9 0 0 0-.58-3.55 2.63 2.63 0 0 0-2.34-.9h-3.9a2.63 2.63 0 0 0-2.34.9 6.9 6.9 0 0 0-.58 3.55v.66zM277.55 221.55c1.29 0 2.69 0 2.69-1.29v-.86H283v.86a3.19 3.19 0 0 1-1.13 2.89c-1.13.74-3 .74-4.52.74h-3.9c-1.64 0-3.39 0-4.52-1.17s-1.13-3-1.13-4.68v-5.3c0-1.91 0-4.06 1.13-5.42s2.85-1.36 4.52-1.36h3.9c1.68 0 3.47.08 4.52 1.36s1.13 3.51 1.13 5.42v3h-12.51V218a4.48 4.48 0 0 0 .58 2.81 2.88 2.88 0 0 0 2.34.7zm2.69-8.15v-.66a6.9 6.9 0 0 0-.58-3.55 2.63 2.63 0 0 0-2.34-.9h-3.9a2.63 2.63 0 0 0-2.34.9 6.9 6.9 0 0 0-.58 3.55v.66zM299.84 206c1.64 0 3.35 0 4.41 1.25s1.13 3.28 1.13 5.07v9.28h2.73v2.34h-8.46v-2.34h3v-9.28a6 6 0 0 0-.58-3.2 2.48 2.48 0 0 0-2.22-.78h-6.55v13.26h3v2.34h-8.46v-2.34h2.73v-13.31h-2.73V206zM315.33 197.76h-2.73v-2.34h5.46v26.13h2.73v2.34h-8.19v-2.34h2.73zM330.44 223.89c-1.36 0-2.92 0-3.9-.82s-1-2.07-1-3.28v-2.3c0-1.21 0-2.5 1-3.28s2.54-.82 3.9-.82h6.44v-2.73a2.32 2.32 0 0 0-.58-1.91 4.1 4.1 0 0 0-2.42-.47h-3.2a2.21 2.21 0 0 0-1.44.31 1.44 1.44 0 0 0-.39 1.21v1h-2.73v-1a3.87 3.87 0 0 1 .94-3.08c.9-.78 2.34-.78 3.63-.78h3.2c1.6 0 3.47 0 4.6.94s1.13 2.38 1.13 3.78v10.88h2.73v2.34zm0-8.15a2.74 2.74 0 0 0-1.72.35 1.75 1.75 0 0 0-.43 1.4v2.3a1.75 1.75 0 0 0 .43 1.4 2.73 2.73 0 0 0 1.72.35h6.44v-5.81zM358.81 206c1.64 0 3.35 0 4.41 1.25s1.13 3.28 1.13 5.07v9.28h2.73v2.34h-8.46v-2.34h3v-9.28a6 6 0 0 0-.59-3.2 2.48 2.48 0 0 0-2.22-.78h-6.55v13.26h3v2.34h-8.46v-2.34h2.73v-13.31h-2.73V206zM377.23 223.89c-1.64 0-3.35 0-4.41-1.25s-1.13-3.28-1.13-5.07v-5.3c0-1.79 0-3.82 1.13-5.07s2.77-1.25 4.41-1.25h6.55v-8.19h-2.73v-2.34h5.46v26.13h2.73v2.34zm0-15.6a2.48 2.48 0 0 0-2.22.78 6 6 0 0 0-.58 3.2v5.3a6 6 0 0 0 .58 3.2 2.48 2.48 0 0 0 2.22.78h6.55v-13.26zM396.6 208.29h-2.73V206h5.46v15.6h2.73v2.34h-8.19v-2.34h2.73zm-.31-9.83h3.35v3.39h-3.35zM418.67 210.12a1.77 1.77 0 0 0-.47-1.48 3.24 3.24 0 0 0-1.87-.35h-3.67a3 3 0 0 0-2.54.78 5.32 5.32 0 0 0-.62 3.2v5.3a5.33 5.33 0 0 0 .62 3.2 3 3 0 0 0 2.54.78h3.67a3.24 3.24 0 0 0 1.87-.35 1.77 1.77 0 0 0 .47-1.48v-1.21h2.73v1.21c0 1.25-.08 2.57-1 3.36s-2.61.82-4.06.82h-3.67c-1.72 0-3.55 0-4.72-1.25s-1.17-3.28-1.17-5.07v-5.3c0-1.79 0-3.82 1.17-5.07s3-1.25 4.72-1.25h3.67c1.44 0 3 0 4.06.82s1 2.11 1 3.35v1.21h-2.73zM429.91 220.5v3.39l-1.56 3.9h-1.83l1.56-3.9h-1.56v-3.39zM40.35 252.53v10h3v2.34h-9v-2.34h3v-21.82h-3v-2.34h9v2.34h-3v9.48h14.12v-9.48h-3v-2.34h9v2.34h-3v21.84h3v2.34h-9v-2.34h3v-10zM68.8 258.57a6 6 0 0 0 .55 3.2 2.47 2.47 0 0 0 2.15.78h6.28v-13.26H75V247h5.5v15.6h2.73v2.34H71.49c-1.6 0-3.32 0-4.33-1.25s-1.09-3.28-1.09-5.07v-9.28h-2.73V247h5.46zM99.87 247c1.64 0 3.35 0 4.41 1.25s1.13 3.28 1.13 5.07v9.28h2.73v2.34h-8.46v-2.34h3v-9.28a6 6 0 0 0-.58-3.2 2.48 2.48 0 0 0-2.22-.78h-6.56v13.26h3v2.34h-8.46v-2.34h2.73v-13.31h-2.73V247zM122 270.35a2.86 2.86 0 0 0 2.26-.66 4.13 4.13 0 0 0 .55-2.61v-2.18h-6.55c-1.64 0-3.35 0-4.41-1.25s-1.13-3.28-1.13-5.07v-5.3c0-1.79 0-3.82 1.13-5.07s2.77-1.25 4.41-1.25h12v2.34h-2.73v17.78c0 1.6 0 3.35-1.09 4.49s-2.85 1.13-4.45 1.13h-8.58v-2.34zm-3.74-21.06a2.48 2.48 0 0 0-2.22.78 6 6 0 0 0-.58 3.2v5.3a6 6 0 0 0 .58 3.2 2.48 2.48 0 0 0 2.22.78h6.55v-13.26zM139.71 264.89c-1.36 0-2.92 0-3.9-.82s-1-2.07-1-3.28v-2.3c0-1.21 0-2.5 1-3.28s2.54-.82 3.9-.82h6.44v-2.73a2.32 2.32 0 0 0-.58-1.91 4.1 4.1 0 0 0-2.42-.47h-3.2a2.21 2.21 0 0 0-1.44.31 1.44 1.44 0 0 0-.39 1.21v1h-2.73v-1a3.87 3.87 0 0 1 .94-3.08c.9-.78 2.34-.78 3.63-.78h3.2c1.6 0 3.47 0 4.6.94s1.13 2.38 1.13 3.78v10.88h2.73v2.34zm0-8.15a2.74 2.74 0 0 0-1.72.35 1.75 1.75 0 0 0-.43 1.4v2.3a1.75 1.75 0 0 0 .43 1.4 2.73 2.73 0 0 0 1.72.35h6.44v-5.81zM167.38 251.12a1.81 1.81 0 0 0-.47-1.48 3 3 0 0 0-1.79-.35h-3.59v13.26h3v2.34h-8.46v-2.34h2.73v-13.26h-2.73V247h9c1.4 0 3 0 4 .82s1 2.11 1 3.35v1.21h-2.73zM177.1 249.29h-2.73V247h5.46v15.6h2.73v2.34h-8.19v-2.34h2.73zm-.31-9.83h3.35v3.39h-3.35zM192.21 264.89c-1.36 0-2.92 0-3.9-.82s-1-2.07-1-3.28v-2.3c0-1.21 0-2.5 1-3.28s2.54-.82 3.9-.82h6.44v-2.73a2.32 2.32 0 0 0-.58-1.91 4.1 4.1 0 0 0-2.42-.47h-3.2a2.21 2.21 0 0 0-1.44.31 1.44 1.44 0 0 0-.39 1.21v1h-2.73v-1a3.87 3.87 0 0 1 .94-3.08c.9-.78 2.34-.78 3.63-.78h3.2c1.6 0 3.47 0 4.6.94s1.13 2.38 1.13 3.78v10.88h2.73v2.34zm0-8.15a2.74 2.74 0 0 0-1.72.35 1.75 1.75 0 0 0-.43 1.4v2.3a1.75 1.75 0 0 0 .43 1.4 2.73 2.73 0 0 0 1.72.35h6.44v-5.81zM220.58 247c1.64 0 3.35 0 4.41 1.25s1.13 3.28 1.13 5.07v9.28h2.73v2.34h-8.46v-2.34h3v-9.28a6 6 0 0 0-.58-3.2 2.48 2.48 0 0 0-2.22-.78H214v13.26h3v2.34h-8.46v-2.34h2.73v-13.31h-2.73V247zM237 261.5v3.39l-1.56 3.9h-1.83l1.56-3.9h-1.56v-3.39zM259.84 240.71h-3v-2.34h9v2.34h-3v21.84h3v2.34h-9v-2.34h3zM282.37 251.12a1.77 1.77 0 0 0-.47-1.48 3.24 3.24 0 0 0-1.87-.35h-3.67a3 3 0 0 0-2.54.78 5.32 5.32 0 0 0-.62 3.2v5.3a5.32 5.32 0 0 0 .62 3.2 3 3 0 0 0 2.54.78H280a3.23 3.23 0 0 0 1.87-.35 1.76 1.76 0 0 0 .47-1.48v-1.21h2.73v1.21c0 1.25-.08 2.57-1 3.36s-2.61.82-4.06.82h-3.67c-1.72 0-3.55 0-4.72-1.25s-1.17-3.28-1.17-5.07v-5.3c0-1.79 0-3.82 1.17-5.07s3-1.25 4.72-1.25H280c1.44 0 3 0 4.06.82s1 2.11 1 3.35v1.21h-2.73zM300 262.55c1.29 0 2.69 0 2.69-1.29v-.86h2.73v.86a3.19 3.19 0 0 1-1.13 2.89c-1.13.74-3 .74-4.52.74h-3.9c-1.64 0-3.39 0-4.52-1.17s-1.13-3-1.13-4.68v-5.3c0-1.91 0-4.06 1.13-5.42s2.85-1.36 4.52-1.36h3.9c1.68 0 3.47.08 4.52 1.36s1.13 3.51 1.13 5.42v3H293V259a4.48 4.48 0 0 0 .58 2.81 2.88 2.88 0 0 0 2.34.7zm2.69-8.15v-.66a6.9 6.9 0 0 0-.58-3.55 2.63 2.63 0 0 0-2.34-.9h-3.9a2.63 2.63 0 0 0-2.34.9 6.9 6.9 0 0 0-.58 3.55v.66zM313 238.76h-2.73v-2.34h5.46v26.13h2.73v2.34h-8.19v-2.34H313zM328.13 264.89c-1.36 0-2.92 0-3.9-.82s-1-2.07-1-3.28v-2.3c0-1.21 0-2.5 1-3.28s2.54-.82 3.9-.82h6.44v-2.73a2.32 2.32 0 0 0-.58-1.91 4.1 4.1 0 0 0-2.42-.47h-3.2a2.21 2.21 0 0 0-1.44.31 1.44 1.44 0 0 0-.39 1.21v1h-2.74v-1a3.87 3.87 0 0 1 .94-3.08c.9-.78 2.34-.78 3.63-.78h3.2c1.6 0 3.47 0 4.6.94s1.13 2.38 1.13 3.78v10.88h2.7v2.34zm0-8.15a2.74 2.74 0 0 0-1.72.35 1.75 1.75 0 0 0-.43 1.4v2.3a1.75 1.75 0 0 0 .43 1.4 2.73 2.73 0 0 0 1.72.35h6.44v-5.81zM356.5 247c1.64 0 3.35 0 4.41 1.25s1.13 3.28 1.13 5.07v9.28h2.73v2.34h-8.46v-2.34h3v-9.28a6 6 0 0 0-.58-3.2 2.48 2.48 0 0 0-2.22-.78H350v13.26h3v2.34h-8.46v-2.34h2.73v-13.31h-2.73V247zM374.92 264.89c-1.64 0-3.35 0-4.41-1.25s-1.13-3.28-1.13-5.07v-5.3c0-1.79 0-3.82 1.13-5.07s2.77-1.25 4.41-1.25h6.55v-8.19h-2.73v-2.34h5.46v26.13h2.73v2.34zm0-15.6a2.48 2.48 0 0 0-2.22.78 6 6 0 0 0-.58 3.2v5.3a6 6 0 0 0 .58 3.2 2.48 2.48 0 0 0 2.22.78h6.55v-13.26zM394.29 249.29h-2.73V247H397v15.6h2.73v2.34h-8.19v-2.34h2.73zm-.31-9.83h3.35v3.39H394zM416.36 251.12a1.77 1.77 0 0 0-.47-1.48 3.24 3.24 0 0 0-1.87-.35h-3.67a3 3 0 0 0-2.54.78 5.32 5.32 0 0 0-.62 3.2v5.3a5.32 5.32 0 0 0 .62 3.2 3 3 0 0 0 2.54.78H414a3.23 3.23 0 0 0 1.87-.35 1.77 1.77 0 0 0 .47-1.48v-1.21h2.73v1.21c0 1.25-.08 2.57-1 3.36s-2.61.82-4.06.82h-3.67c-1.72 0-3.55 0-4.72-1.25s-1.17-3.28-1.17-5.07v-5.3c0-1.79 0-3.82 1.17-5.07s3-1.25 4.72-1.25H414c1.44 0 3 0 4.06.82s1 2.11 1 3.35v1.21h-2.73zM427.6 261.5v3.39l-1.56 3.9h-1.83l1.56-3.9h-1.56v-3.39zM450.45 240.71h-3v-2.34h9v2.34h-3v21.84h3v2.34h-9v-2.34h3zM472.28 251.12a1.81 1.81 0 0 0-.47-1.48 3 3 0 0 0-1.79-.35h-3.59v13.26h3v2.34H461v-2.34h2.73v-13.26H461V247h9c1.4 0 3 0 4 .82s1 2.11 1 3.35v1.21h-2.73zM482 249.29h-2.73V247h5.46v15.6h2.73v2.34h-8.19v-2.34H482zm-.31-9.83H485v3.39h-3.35zM504.05 250.93a1.48 1.48 0 0 0-.51-1.33 4.46 4.46 0 0 0-2.11-.31h-3.63a5 5 0 0 0-2.22.31 1.53 1.53 0 0 0-.59 1.33v2.18a1.53 1.53 0 0 0 .59 1.33 5 5 0 0 0 2.22.31h3.74c1.56 0 3.35 0 4.45.78s1.09 2 1.09 3.2v2.18c0 1.21-.12 2.5-1.09 3.2s-2.89.78-4.45.78h-3.74c-1.56 0-3.31 0-4.41-.78a3.72 3.72 0 0 1-1.13-3.2v-1.09H495v1.09a1.53 1.53 0 0 0 .59 1.33 5 5 0 0 0 2.22.31h3.74a5.13 5.13 0 0 0 2.26-.31 1.5 1.5 0 0 0 .55-1.33v-2.18a1.5 1.5 0 0 0-.55-1.33 5.13 5.13 0 0 0-2.26-.31h-3.74c-1.56 0-3.31 0-4.41-.78a3.72 3.72 0 0 1-1.13-3.2v-2.18a3.72 3.72 0 0 1 1.13-3.2c1.09-.78 2.85-.78 4.41-.78h3.63c1.48 0 3.24 0 4.29.78s1.05 2 1.05 3.2V252h-2.73zM524 247c1.64 0 3.35 0 4.41 1.25s1.13 3.28 1.13 5.07v9.28h2.73v2.34h-8.46v-2.34h3v-9.28a6 6 0 0 0-.58-3.2 2.48 2.48 0 0 0-2.22-.78h-6.55v13.26h3v2.34H512v-2.34h2.73v-23.84H512v-2.34h5.46V247zM540.37 261.5v3.39l-1.56 3.9H537l1.56-3.9H537v-3.39zM37.35 281.71h-3v-2.34h9v2.34h-3v21.84h3v2.34h-9v-2.34h3zM51.68 301.05a3.37 3.37 0 0 0 .39 1.91 2.07 2.07 0 0 0 1.72.59h3.51v2.34h-3.52c-1.4 0-3 0-3.9-1.05s-1-2.69-1-4.17v-10.38h-2.74V288h2.77v-5.58h2.77V288h4.88v2.34h-4.88zM66.56 305.89c-1.36 0-2.92 0-3.9-.82s-1-2.07-1-3.28v-2.3c0-1.21 0-2.5 1-3.28s2.54-.82 3.9-.82H73v-2.73a2.32 2.32 0 0 0-.58-1.91 4.1 4.1 0 0 0-2.42-.47h-3.2a2.21 2.21 0 0 0-1.44.31 1.44 1.44 0 0 0-.39 1.21v1h-2.74v-1a3.87 3.87 0 0 1 .94-3.08c.9-.78 2.34-.78 3.63-.78H70c1.6 0 3.47 0 4.6.94s1.13 2.38 1.13 3.78v10.88h2.73v2.34zm0-8.15a2.74 2.74 0 0 0-1.72.35 1.75 1.75 0 0 0-.43 1.4v2.3a1.75 1.75 0 0 0 .43 1.4 2.73 2.73 0 0 0 1.72.35H73v-5.81zM85.65 279.76h-2.73v-2.34h5.46v26.13h2.73v2.34h-8.19v-2.34h2.73zM98.44 290.29h-2.73V288h5.46v15.6h2.73v2.34h-8.19v-2.34h2.73zm-.31-9.83h3.35v3.39h-3.36zM113.55 305.89c-1.36 0-2.92 0-3.9-.82s-1-2.07-1-3.28v-2.3c0-1.21 0-2.5 1-3.28s2.54-.82 3.9-.82H120v-2.73a2.32 2.32 0 0 0-.58-1.91 4.1 4.1 0 0 0-2.42-.47h-3.2a2.21 2.21 0 0 0-1.44.31 1.44 1.44 0 0 0-.39 1.21v1h-2.73v-1a3.87 3.87 0 0 1 .94-3.08c.9-.78 2.34-.78 3.63-.78H117c1.6 0 3.47 0 4.6.94s1.13 2.38 1.13 3.78v10.88h2.73v2.34zm0-8.15a2.74 2.74 0 0 0-1.72.35 1.75 1.75 0 0 0-.43 1.4v2.3a1.75 1.75 0 0 0 .43 1.4 2.73 2.73 0 0 0 1.72.35H120v-5.81zM141.92 288c1.64 0 3.35 0 4.41 1.25s1.13 3.28 1.13 5.07v9.28h2.73v2.34h-8.46v-2.34h3v-9.28a6 6 0 0 0-.58-3.2 2.48 2.48 0 0 0-2.22-.78h-6.55v13.26h3v2.34h-8.46v-2.34h2.73v-13.31h-2.73V288zM158.32 302.5v3.39l-1.56 3.9h-1.83l1.56-3.9h-1.56v-3.39zM183.52 303.55h3v2.34h-8.39v-2.34h3v-21.84h-3v-2.34h7.45l14.9 24.18v-21.84h-3v-2.34h8.35v2.34h-3v24.18h-4.41l-14.9-24.18zM224.71 299.57c0 1.79 0 3.82-1.17 5.07s-2.93 1.25-4.6 1.25h-4.06c-1.68 0-3.47 0-4.6-1.25s-1.17-3.28-1.17-5.07v-5.3c0-1.79 0-3.82 1.17-5.07s2.93-1.25 4.6-1.25h4.06c1.68 0 3.47 0 4.6 1.25s1.17 3.28 1.17 5.07zm-2.73-5.3a5.32 5.32 0 0 0-.62-3.2 2.92 2.92 0 0 0-2.42-.78h-4.06a2.92 2.92 0 0 0-2.42.78 5.32 5.32 0 0 0-.62 3.2v5.3a5.32 5.32 0 0 0 .62 3.2 2.92 2.92 0 0 0 2.42.78h4.06a2.92 2.92 0 0 0 2.42-.78 5.32 5.32 0 0 0 .62-3.2zM240.75 292.12a1.81 1.81 0 0 0-.47-1.48 3 3 0 0 0-1.79-.35h-3.59v13.26h3v2.34h-8.46v-2.34h2.73v-13.26h-2.73V288h9c1.4 0 3 0 4 .82s1 2.11 1 3.35v1.21h-2.73zM257.53 305.89h-4.06l-4-15.6h-2.18V288h7.18v2.34h-2.18l3.43 13.26 4-15.6h4.17l4 15.6 3.43-13.26h-2.18V288h6.79v2.34h-2.18l-4.06 15.6h-4l-4.1-15.83zM290 303.55c1.29 0 2.69 0 2.69-1.29v-.86h2.73v.86a3.19 3.19 0 0 1-1.13 2.89c-1.13.74-3 .74-4.52.74h-3.9c-1.64 0-3.39 0-4.52-1.17s-1.13-3-1.13-4.68v-5.3c0-1.91 0-4.06 1.13-5.42s2.85-1.36 4.52-1.36h3.9c1.68 0 3.47.08 4.52 1.36s1.13 3.51 1.13 5.42v3h-12.48V300a4.48 4.48 0 0 0 .58 2.81 2.88 2.88 0 0 0 2.34.7zm2.69-8.15v-.66a6.9 6.9 0 0 0-.58-3.55 2.63 2.63 0 0 0-2.34-.9h-3.9a2.63 2.63 0 0 0-2.34.9 6.9 6.9 0 0 0-.58 3.55v.66zM309.82 311.35a2.86 2.86 0 0 0 2.26-.66 4.13 4.13 0 0 0 .55-2.61v-2.18h-6.55c-1.64 0-3.35 0-4.41-1.25s-1.13-3.28-1.13-5.07v-5.3c0-1.79 0-3.82 1.13-5.07s2.77-1.25 4.41-1.25h12v2.34h-2.73v17.78c0 1.6 0 3.35-1.09 4.49s-2.85 1.13-4.45 1.13h-8.58v-2.34zm-3.74-21.06a2.48 2.48 0 0 0-2.22.78 6 6 0 0 0-.58 3.2v5.3a6 6 0 0 0 .58 3.2 2.48 2.48 0 0 0 2.22.78h6.55v-13.26zM325.45 290.29h-2.73V288h5.46v15.6h2.73v2.34h-8.19v-2.34h2.73zm-.31-9.83h3.35v3.39h-3.35zM340.57 305.89c-1.36 0-2.92 0-3.9-.82s-1-2.07-1-3.28v-2.3c0-1.21 0-2.5 1-3.28s2.54-.82 3.9-.82H347v-2.73a2.32 2.32 0 0 0-.58-1.91 4.1 4.1 0 0 0-2.42-.47h-3.2a2.21 2.21 0 0 0-1.44.31 1.44 1.44 0 0 0-.39 1.21v1h-2.73v-1a3.87 3.87 0 0 1 .94-3.08c.9-.78 2.34-.78 3.63-.78H344c1.6 0 3.47 0 4.6.94s1.13 2.38 1.13 3.78v10.88h2.73v2.34zm0-8.15a2.74 2.74 0 0 0-1.72.35 1.75 1.75 0 0 0-.43 1.4v2.3a1.75 1.75 0 0 0 .43 1.4 2.73 2.73 0 0 0 1.72.35H347v-5.81zM368.94 288c1.64 0 3.35 0 4.41 1.25s1.13 3.28 1.13 5.07v9.28h2.73v2.34h-8.46v-2.34h3v-9.28a6 6 0 0 0-.58-3.2 2.48 2.48 0 0 0-2.22-.78h-6.55v13.26h3v2.34h-8.46v-2.34h2.73v-13.31h-2.73V288zM385.34 302.5v3.39l-1.56 3.9h-1.83l1.56-3.9h-1.56v-3.39zM411.2 303.55h3.28v2.34h-9.32v-2.34h3v-21.84h-3v-2.34h13.73c1.79 0 3.82 0 5.07 1.05s1.25 2.65 1.25 4.21v3.9c0 1.56-.08 3.24-1.25 4.21s-3.28 1.05-5.07 1.05h-7.69zm7.68-12.09a4 4 0 0 0 2.65-.58 3 3 0 0 0 .66-2.34v-3.9a3 3 0 0 0-.66-2.34 4 4 0 0 0-2.65-.58h-7.68v9.75zM445.45 299.57c0 1.79 0 3.82-1.17 5.07s-2.92 1.25-4.6 1.25h-4.06c-1.68 0-3.47 0-4.6-1.25s-1.17-3.28-1.17-5.07v-5.3c0-1.79 0-3.82 1.17-5.07s2.93-1.25 4.6-1.25h4.06c1.68 0 3.47 0 4.6 1.25s1.17 3.28 1.17 5.07zm-2.73-5.3a5.32 5.32 0 0 0-.62-3.2 2.92 2.92 0 0 0-2.42-.78h-4.06a2.92 2.92 0 0 0-2.42.78 5.32 5.32 0 0 0-.62 3.2v5.3a5.33 5.33 0 0 0 .62 3.2 2.92 2.92 0 0 0 2.42.78h4.06a2.92 2.92 0 0 0 2.42-.78 5.32 5.32 0 0 0 .62-3.2zM452.91 279.76h-2.73v-2.34h5.46v26.13h2.73v2.34h-8.19v-2.34h2.73zM465.7 290.29H463V288h5.46v15.6h2.73v2.34H463v-2.34h2.73zm-.31-9.83h3.35v3.39h-3.35zM487.75 291.93a1.48 1.48 0 0 0-.51-1.33 4.46 4.46 0 0 0-2.11-.31h-3.63a5 5 0 0 0-2.22.31 1.53 1.53 0 0 0-.59 1.33v2.18a1.53 1.53 0 0 0 .59 1.33 5 5 0 0 0 2.22.31h3.74c1.56 0 3.35 0 4.45.78s1.09 2 1.09 3.2v2.18c0 1.21-.12 2.5-1.09 3.2s-2.89.78-4.45.78h-3.74c-1.56 0-3.31 0-4.41-.78a3.72 3.72 0 0 1-1.13-3.2v-1.09h2.73v1.09a1.53 1.53 0 0 0 .59 1.33 5 5 0 0 0 2.22.31h3.74a5.13 5.13 0 0 0 2.26-.31 1.5 1.5 0 0 0 .55-1.33v-2.18a1.5 1.5 0 0 0-.55-1.33 5.13 5.13 0 0 0-2.26-.31h-3.74c-1.56 0-3.31 0-4.41-.78a3.72 3.72 0 0 1-1.13-3.2v-2.18a3.72 3.72 0 0 1 1.13-3.2c1.09-.78 2.85-.78 4.41-.78h3.63c1.48 0 3.24 0 4.29.78s1.05 2 1.05 3.2V293h-2.73zM507.66 288c1.64 0 3.35 0 4.41 1.25s1.13 3.28 1.13 5.07v9.28h2.73v2.34h-8.46v-2.34h3v-9.28a6 6 0 0 0-.58-3.2 2.48 2.48 0 0 0-2.22-.78h-6.55v13.26h3v2.34h-8.46v-2.34h2.73v-23.84h-2.73v-2.34h5.46V288zM524.06 302.5v3.39l-1.56 3.9h-1.83l1.56-3.9h-1.56v-3.39zM40.35 344.55h3.28v2.34h-9.32v-2.34h3v-21.84h-3v-2.34H48c1.79 0 3.82 0 5.07 1.05s1.25 2.65 1.25 4.21v3.9c0 1.56-.08 3.24-1.25 4.21s-3.24 1.06-5.07 1.06h-7.65zM48 332.46a4 4 0 0 0 2.65-.58 3 3 0 0 0 .66-2.34v-3.9a3 3 0 0 0-.66-2.34 4 4 0 0 0-2.65-.58h-7.65v9.75zM74.61 340.57c0 1.79 0 3.82-1.17 5.07s-2.93 1.25-4.6 1.25h-4.06c-1.68 0-3.47 0-4.6-1.25S59 342.37 59 340.57v-5.3c0-1.79 0-3.82 1.17-5.07s2.93-1.2 4.61-1.2h4.06c1.68 0 3.47 0 4.6 1.25s1.17 3.28 1.17 5.07zm-2.73-5.3a5.32 5.32 0 0 0-.62-3.2 2.92 2.92 0 0 0-2.42-.78h-4.06a2.92 2.92 0 0 0-2.42.78 5.32 5.32 0 0 0-.62 3.2v5.3a5.32 5.32 0 0 0 .62 3.2 2.92 2.92 0 0 0 2.42.78h4.06a2.92 2.92 0 0 0 2.42-.78 5.32 5.32 0 0 0 .62-3.2zM90.65 333.12a1.81 1.81 0 0 0-.47-1.48 3 3 0 0 0-1.79-.35H84.8v13.26h3v2.34h-8.46v-2.34h2.73v-13.26h-2.73V329h9c1.4 0 3 0 4 .82s1 2.11 1 3.35v1.21h-2.69zM103 342.05a3.37 3.37 0 0 0 .39 1.91 2.07 2.07 0 0 0 1.72.59h3.51v2.34h-3.51c-1.4 0-3 0-3.9-1.05s-1-2.69-1-4.17v-10.38h-2.8V329h2.77v-5.58H103V329h4.88v2.34H103zM117.64 340.57a6 6 0 0 0 .55 3.2 2.47 2.47 0 0 0 2.15.78h6.28v-13.26h-2.73V329h5.46v15.6h2.73v2.34h-11.75c-1.6 0-3.32 0-4.33-1.25s-1.09-3.28-1.09-5.07v-9.28h-2.73V329h5.46zM146.11 352.35a2.86 2.86 0 0 0 2.26-.66 4.13 4.13 0 0 0 .55-2.61v-2.18h-6.55c-1.64 0-3.35 0-4.41-1.25s-1.13-3.28-1.13-5.07v-5.3c0-1.79 0-3.82 1.13-5.07s2.77-1.25 4.41-1.25h12v2.34h-2.73v17.78c0 1.6 0 3.35-1.09 4.49s-2.85 1.13-4.45 1.13h-8.58v-2.34zm-3.74-21.06a2.48 2.48 0 0 0-2.22.78 6 6 0 0 0-.58 3.2v5.3a6 6 0 0 0 .58 3.2 2.48 2.48 0 0 0 2.22.78h6.55v-13.26zM164.27 340.57a6 6 0 0 0 .55 3.2 2.47 2.47 0 0 0 2.15.78h6.28v-13.26h-2.73V329H176v15.6h2.73v2.34H167c-1.6 0-3.32 0-4.33-1.25s-1.09-3.28-1.09-5.07v-9.28h-2.73V329h5.46zM193.26 344.55c1.29 0 2.69 0 2.69-1.29v-.86h2.73v.86a3.19 3.19 0 0 1-1.13 2.89c-1.13.74-3 .74-4.52.74h-3.9c-1.64 0-3.39 0-4.52-1.17s-1.13-3-1.13-4.68v-5.3c0-1.91 0-4.06 1.13-5.42s2.85-1.36 4.52-1.36H193c1.68 0 3.47.08 4.52 1.36s1.13 3.51 1.13 5.42v3H186.2V341a4.48 4.48 0 0 0 .58 2.81 2.88 2.88 0 0 0 2.34.7zm2.74-8.15v-.66a6.9 6.9 0 0 0-.58-3.55 2.63 2.63 0 0 0-2.34-.9h-3.9a2.63 2.63 0 0 0-2.34.9 6.9 6.9 0 0 0-.58 3.55v.66zM215.58 332.93a1.48 1.48 0 0 0-.51-1.33 4.46 4.46 0 0 0-2.11-.31h-3.63a5 5 0 0 0-2.22.31 1.53 1.53 0 0 0-.58 1.33v2.18a1.53 1.53 0 0 0 .58 1.33 5 5 0 0 0 2.22.31h3.74c1.56 0 3.35 0 4.45.78s1.09 2 1.09 3.2v2.18c0 1.21-.12 2.5-1.09 3.2s-2.89.78-4.45.78h-3.74c-1.56 0-3.31 0-4.41-.78a3.73 3.73 0 0 1-1.13-3.2v-1.09h2.73v1.09a1.53 1.53 0 0 0 .58 1.33 5 5 0 0 0 2.22.31h3.74a5.13 5.13 0 0 0 2.26-.31 1.5 1.5 0 0 0 .55-1.33v-2.18a1.5 1.5 0 0 0-.55-1.33 5.13 5.13 0 0 0-2.26-.31h-3.74c-1.56 0-3.31 0-4.41-.78a3.73 3.73 0 0 1-1.13-3.2v-2.18a3.72 3.72 0 0 1 1.13-3.2c1.09-.78 2.85-.78 4.41-.78H213c1.48 0 3.24 0 4.29.78s1.05 2 1.05 3.2V334h-2.73zM233.53 344.55c1.29 0 2.69 0 2.69-1.29v-.86H239v.86a3.19 3.19 0 0 1-1.13 2.89c-1.13.74-3 .74-4.52.74h-3.9c-1.64 0-3.39 0-4.52-1.17s-1.13-3-1.13-4.68v-5.3c0-1.91 0-4.06 1.13-5.42s2.85-1.36 4.52-1.36h3.9c1.68 0 3.47.08 4.52 1.36s1.13 3.51 1.13 5.42v3h-12.53V341a4.48 4.48 0 0 0 .58 2.81 2.88 2.88 0 0 0 2.34.7zm2.69-8.15v-.66a6.9 6.9 0 0 0-.58-3.55 2.63 2.63 0 0 0-2.34-.9h-3.9a2.63 2.63 0 0 0-2.34.9 6.9 6.9 0 0 0-.58 3.55v.66zM247.48 343.5v3.39l-1.56 3.9h-1.83l1.56-3.9h-1.56v-3.39zM273.33 344.55h3v2.34h-9v-2.34h3v-21.84h-3v-2.34h13.1c1.87 0 4 0 5.3 1.05s1.37 2.65 1.37 4.21v3.9c0 1.56-.16 3.24-1.37 4.21s-2.81 1-4.45 1.05l6.16 9.75h3v2.34h-4.74l-7.64-12.09h-4.72zm7.06-12.09a4.84 4.84 0 0 0 2.93-.58 2.9 2.9 0 0 0 .74-2.34v-3.9a2.9 2.9 0 0 0-.74-2.34 4.84 4.84 0 0 0-2.93-.58h-7.06v9.75zM298.1 340.57a6 6 0 0 0 .55 3.2 2.47 2.47 0 0 0 2.15.78h6.28v-13.26h-2.73V329h5.46v15.6h2.73v2.34h-11.75c-1.6 0-3.32 0-4.33-1.25s-1.09-3.28-1.09-5.07v-9.28h-2.73V329h5.46zM339.27 329c1.52 0 3.16.08 4.13 1.25s1.05 3.28 1.05 5.07v9.28h2.73v2.34H339v-2.34h2.73v-9.28a6.44 6.44 0 0 0-.51-3.2 2.16 2.16 0 0 0-2-.78h-5.73v13.26H336v2.34h-7.64v-2.34h2.46v-13.31h-8.19v13.26h2.73v2.34h-8.19v-2.34h2.73v-13.26h-2.73V329zM356.76 346.89c-1.36 0-2.92 0-3.9-.82s-1-2.07-1-3.28v-2.3c0-1.21 0-2.5 1-3.28s2.54-.82 3.9-.82h6.44v-2.73a2.33 2.33 0 0 0-.58-1.91 4.11 4.11 0 0 0-2.42-.47H357a2.21 2.21 0 0 0-1.44.31 1.44 1.44 0 0 0-.39 1.21v1h-2.73v-1a3.87 3.87 0 0 1 .94-3.08c.9-.78 2.34-.78 3.63-.78h3.2c1.6 0 3.47 0 4.6.94s1.13 2.38 1.13 3.78v10.88h2.73v2.34zm0-8.15a2.74 2.74 0 0 0-1.71.35 1.75 1.75 0 0 0-.43 1.4v2.3a1.75 1.75 0 0 0 .43 1.4 2.73 2.73 0 0 0 1.71.35h6.44v-5.81zM385.13 329c1.64 0 3.35 0 4.41 1.25s1.13 3.28 1.13 5.07v9.28h2.73v2.34h-8.46v-2.34h3v-9.28a6 6 0 0 0-.59-3.2 2.48 2.48 0 0 0-2.22-.78h-6.55v13.26h3v2.34h-8.46v-2.34h2.73v-13.31h-2.73V329zM401.69 342.05a3.37 3.37 0 0 0 .39 1.91 2.07 2.07 0 0 0 1.71.59h3.51v2.34h-3.51c-1.4 0-3 0-3.9-1.05s-1-2.69-1-4.17v-10.38h-2.77V329h2.77v-5.58h2.77V329h4.88v2.34h-4.87zM423.51 332.93a1.48 1.48 0 0 0-.51-1.33 4.46 4.46 0 0 0-2.11-.31h-3.63a5 5 0 0 0-2.22.31 1.53 1.53 0 0 0-.58 1.33v2.18a1.53 1.53 0 0 0 .58 1.33 5 5 0 0 0 2.22.31H421c1.56 0 3.35 0 4.45.78s1.09 2 1.09 3.2v2.18c0 1.21-.12 2.5-1.09 3.2s-2.89.78-4.45.78h-3.74c-1.56 0-3.31 0-4.41-.78a3.72 3.72 0 0 1-1.13-3.2v-1.09h2.73v1.09a1.53 1.53 0 0 0 .58 1.33 5 5 0 0 0 2.22.31H421a5.14 5.14 0 0 0 2.26-.31 1.5 1.5 0 0 0 .55-1.33v-2.18a1.5 1.5 0 0 0-.55-1.33 5.14 5.14 0 0 0-2.26-.31h-3.74c-1.56 0-3.31 0-4.41-.78a3.72 3.72 0 0 1-1.13-3.2v-2.18a3.72 3.72 0 0 1 1.13-3.2c1.09-.78 2.85-.78 4.41-.78h3.63c1.48 0 3.24 0 4.29.78s1.05 2 1.05 3.2V334h-2.73zM443.57 333.12a1.77 1.77 0 0 0-.47-1.48 3.24 3.24 0 0 0-1.87-.35h-3.67a3 3 0 0 0-2.54.78 5.32 5.32 0 0 0-.62 3.2v5.3a5.32 5.32 0 0 0 .62 3.2 3 3 0 0 0 2.54.78h3.67a3.23 3.23 0 0 0 1.87-.35 1.76 1.76 0 0 0 .47-1.48v-1.21h2.73v1.21c0 1.25-.08 2.57-1 3.36s-2.61.82-4.06.82h-3.67c-1.72 0-3.55 0-4.72-1.25s-1.17-3.28-1.17-5.07v-5.3c0-1.79 0-3.82 1.17-5.07s3-1.25 4.72-1.25h3.67c1.44 0 3 0 4.06.82s1 2.11 1 3.35v1.21h-2.73zM463.16 329c1.64 0 3.35 0 4.41 1.25s1.13 3.28 1.13 5.07v9.28h2.73v2.34H463v-2.34h3v-9.28a6 6 0 0 0-.58-3.2 2.48 2.48 0 0 0-2.22-.78h-6.55v13.26h3v2.34h-8.46v-2.34h2.73v-23.84h-2.73v-2.34h5.46V329zM479.57 343.5v3.39l-1.56 3.9h-1.83l1.56-3.9h-1.56v-3.39zM40.35 385.55h3v2.34h-9v-2.34h3v-21.84h-3v-2.34h13.1c1.87 0 4 0 5.3 1.05s1.37 2.65 1.37 4.21v3.9c0 1.56-.16 3.24-1.37 4.21s-2.81 1-4.45 1.05l6.16 9.75h3v2.34h-4.74l-7.65-12.08h-4.72zm7.06-12.09a4.84 4.84 0 0 0 2.93-.58 2.9 2.9 0 0 0 .74-2.34v-3.9a2.9 2.9 0 0 0-.74-2.34 4.84 4.84 0 0 0-2.93-.58h-7.06v9.75zM77.14 381.57c0 1.79 0 3.82-1.17 5.07s-2.92 1.25-4.6 1.25h-4.06c-1.68 0-3.47 0-4.6-1.25s-1.17-3.28-1.17-5.07v-5.3c0-1.79 0-3.82 1.17-5.07s2.93-1.25 4.6-1.25h4.06c1.68 0 3.47 0 4.6 1.25s1.17 3.28 1.17 5.07zm-2.73-5.3a5.32 5.32 0 0 0-.62-3.2 2.92 2.92 0 0 0-2.42-.78h-4.06a2.92 2.92 0 0 0-2.42.78 5.32 5.32 0 0 0-.62 3.2v5.3a5.32 5.32 0 0 0 .62 3.2 2.92 2.92 0 0 0 2.42.78h4.06a2.92 2.92 0 0 0 2.42-.78 5.32 5.32 0 0 0 .62-3.2zM104 370c1.52 0 3.16.08 4.13 1.25s1.05 3.28 1.05 5.07v9.28h2.73v2.34h-8.19v-2.34h2.73v-9.28a6.44 6.44 0 0 0-.51-3.2 2.16 2.16 0 0 0-2-.78h-5.69v13.26h2.46v2.34h-7.65v-2.34h2.46v-13.31h-8.19v13.26h2.73v2.34h-8.2v-2.34h2.74v-13.26h-2.74V370zM121.46 387.89c-1.36 0-2.92 0-3.9-.82s-1-2.07-1-3.28v-2.3c0-1.21 0-2.5 1-3.28s2.54-.82 3.9-.82h6.44v-2.73a2.32 2.32 0 0 0-.58-1.91 4.1 4.1 0 0 0-2.42-.47h-3.2a2.21 2.21 0 0 0-1.44.31 1.44 1.44 0 0 0-.39 1.21v1h-2.73v-1a3.87 3.87 0 0 1 .94-3.08c.9-.78 2.34-.78 3.63-.78h3.2c1.6 0 3.47 0 4.6.94s1.13 2.38 1.13 3.78v10.88h2.73v2.34zm0-8.15a2.74 2.74 0 0 0-1.72.35 1.75 1.75 0 0 0-.43 1.4v2.3a1.75 1.75 0 0 0 .43 1.4 2.73 2.73 0 0 0 1.72.35h6.44v-5.81zM149.83 370c1.64 0 3.35 0 4.41 1.25s1.13 3.28 1.13 5.07v9.28h2.73v2.34h-8.46v-2.34h3v-9.28a6 6 0 0 0-.58-3.2 2.48 2.48 0 0 0-2.22-.78h-6.55v13.26h3v2.34h-8.46v-2.34h2.73v-13.31h-2.73V370zM165.32 372.29h-2.73V370h5.46v15.6h2.73v2.34h-8.19v-2.34h2.73zm-.31-9.83h3.35v3.39H165zM180.43 387.89c-1.36 0-2.92 0-3.9-.82s-1-2.07-1-3.28v-2.3c0-1.21 0-2.5 1-3.28s2.54-.82 3.9-.82h6.44v-2.73a2.32 2.32 0 0 0-.58-1.91 4.1 4.1 0 0 0-2.42-.47h-3.2a2.21 2.21 0 0 0-1.44.31 1.44 1.44 0 0 0-.39 1.21v1h-2.74v-1a3.87 3.87 0 0 1 .94-3.08c.9-.78 2.34-.78 3.63-.78h3.2c1.6 0 3.47 0 4.6.94s1.13 2.38 1.13 3.78v10.88h2.73v2.34zm0-8.15a2.74 2.74 0 0 0-1.72.35 1.75 1.75 0 0 0-.43 1.4v2.3a1.75 1.75 0 0 0 .43 1.4 2.73 2.73 0 0 0 1.72.35h6.44v-5.81zM208.81 370c1.64 0 3.35 0 4.41 1.25s1.13 3.28 1.13 5.07v9.28h2.73v2.34h-8.46v-2.34h3v-9.28a6 6 0 0 0-.58-3.2 2.48 2.48 0 0 0-2.22-.78h-6.55v13.26h3v2.34h-8.46v-2.34h2.73v-13.31h-2.73V370zM225.21 384.5v3.39l-1.56 3.9h-1.83l1.56-3.9h-1.56v-3.39zM260.23 366.63a3 3 0 0 0-.66-2.34 4 4 0 0 0-2.65-.58h-4.6a4.54 4.54 0 0 0-2.85.58 2.88 2.88 0 0 0-.7 2.34v3.9a2.88 2.88 0 0 0 .7 2.34 4.54 4.54 0 0 0 2.85.58H257c1.83 0 3.9 0 5.23 1.05s1.33 2.65 1.33 4.21v3.9c0 1.56-.12 3.24-1.33 4.21s-3.39 1.05-5.23 1.05h-4.72c-1.83 0-3.9 0-5.23-1.05s-1.33-2.65-1.33-4.21v-1.95h3v1.95a2.88 2.88 0 0 0 .7 2.34 4.53 4.53 0 0 0 2.85.59H257a4.53 4.53 0 0 0 2.85-.59 2.88 2.88 0 0 0 .7-2.34v-3.9a2.88 2.88 0 0 0-.7-2.34 4.54 4.54 0 0 0-2.85-.58h-4.72c-1.83 0-3.9 0-5.23-1.05s-1.33-2.65-1.33-4.21v-3.9c0-1.56.12-3.24 1.33-4.21s3.39-1.05 5.23-1.05h4.6c1.79 0 3.78 0 5 1.05s1.29 2.65 1.29 4.21v2h-3zM271.14 361.76h-2.73v-2.34h5.46v26.13h2.73v2.34h-8.19v-2.34h2.73zM296.91 381.57c0 1.79 0 3.82-1.17 5.07s-2.93 1.25-4.6 1.25h-4.06c-1.68 0-3.47 0-4.6-1.25s-1.17-3.28-1.17-5.07v-5.3c0-1.79 0-3.82 1.17-5.07s2.93-1.25 4.6-1.25h4.06c1.68 0 3.47 0 4.6 1.25s1.17 3.28 1.17 5.07zm-2.73-5.3a5.32 5.32 0 0 0-.62-3.2 2.92 2.92 0 0 0-2.42-.78h-4.06a2.92 2.92 0 0 0-2.42.78 5.32 5.32 0 0 0-.62 3.2v5.3a5.32 5.32 0 0 0 .62 3.2 2.92 2.92 0 0 0 2.42.78h4.06a2.92 2.92 0 0 0 2.42-.78 5.32 5.32 0 0 0 .62-3.2zM316.62 372.29h-2.18V370h6.9v2.34h-2.18l-6.08 15.6h-3.63l-6.08-15.6h-2.18V370h7.29v2.34h-2.18l5.19 13.26zM330.3 387.89c-1.36 0-2.92 0-3.9-.82s-1-2.07-1-3.28v-2.3c0-1.21 0-2.5 1-3.28s2.54-.82 3.9-.82h6.44v-2.73a2.32 2.32 0 0 0-.58-1.91 4.1 4.1 0 0 0-2.42-.47h-3.2a2.21 2.21 0 0 0-1.44.31 1.44 1.44 0 0 0-.39 1.21v1H326v-1a3.87 3.87 0 0 1 .94-3.08c.9-.78 2.34-.78 3.63-.78h3.2c1.6 0 3.47 0 4.6.94s1.13 2.38 1.13 3.78v10.88h2.73v2.34zm0-8.15a2.74 2.74 0 0 0-1.72.35 1.75 1.75 0 0 0-.43 1.4v2.3a1.75 1.75 0 0 0 .43 1.4 2.73 2.73 0 0 0 1.72.35h6.44v-5.81zM346.66 361.76v-2.34h5.46v17.47l5.54-4.6h-2.18V370h8v2.34h-2.18l-6.71 5.58 8.42 7.68h2.18v2.34h-8.39v-2.34h2.2l-6.86-6.28v6.28h2.18v2.34h-7.64v-2.34h2.73v-23.84zM373 384.5v3.39l-1.56 3.9h-1.83l1.56-3.9h-1.56v-3.39zM408.06 366.63a3 3 0 0 0-.66-2.34 4 4 0 0 0-2.65-.58h-4.6a4.54 4.54 0 0 0-2.85.58 2.88 2.88 0 0 0-.7 2.34v3.9a2.88 2.88 0 0 0 .7 2.34 4.54 4.54 0 0 0 2.85.58h4.72c1.83 0 3.9 0 5.23 1.05s1.33 2.65 1.33 4.21v3.9c0 1.56-.12 3.24-1.33 4.21s-3.39 1.05-5.23 1.05h-4.72c-1.83 0-3.9 0-5.23-1.05s-1.33-2.65-1.33-4.21v-1.95h3v1.95a2.88 2.88 0 0 0 .7 2.34 4.53 4.53 0 0 0 2.85.59h4.72a4.53 4.53 0 0 0 2.85-.59 2.88 2.88 0 0 0 .7-2.34v-3.9a2.88 2.88 0 0 0-.7-2.34 4.54 4.54 0 0 0-2.85-.58h-4.72c-1.83 0-3.9 0-5.23-1.05s-1.33-2.65-1.33-4.21v-3.9c0-1.56.12-3.24 1.33-4.21s3.39-1.05 5.23-1.05h4.6c1.79 0 3.78 0 5 1.05s1.29 2.65 1.29 4.21v2h-3zM419 361.76h-2.73v-2.34h5.46v26.13h2.73v2.34h-8.19v-2.34H419zM444.75 381.57c0 1.79 0 3.82-1.17 5.07s-2.93 1.25-4.6 1.25h-4.06c-1.68 0-3.47 0-4.6-1.25s-1.17-3.28-1.17-5.07v-5.3c0-1.79 0-3.82 1.17-5.07s2.92-1.25 4.6-1.25H439c1.68 0 3.47 0 4.6 1.25s1.17 3.28 1.17 5.07zm-2.73-5.3a5.32 5.32 0 0 0-.62-3.2 2.91 2.91 0 0 0-2.42-.78h-4.06a2.91 2.91 0 0 0-2.42.78 5.31 5.31 0 0 0-.62 3.2v5.3a5.32 5.32 0 0 0 .63 3.2 2.91 2.91 0 0 0 2.42.78H439a2.91 2.91 0 0 0 2.42-.78 5.32 5.32 0 0 0 .62-3.2zM464.46 372.29h-2.18V370h6.9v2.34H467l-6.08 15.6h-3.63l-6.08-15.6H449V370h7.29v2.34h-2.18l5.19 13.26zM483.21 385.55c1.29 0 2.69 0 2.69-1.29v-.86h2.73v.86a3.19 3.19 0 0 1-1.13 2.89c-1.13.74-3 .74-4.52.74h-3.9c-1.64 0-3.39 0-4.52-1.17s-1.13-3-1.13-4.68v-5.3c0-1.91 0-4.06 1.13-5.42s2.85-1.36 4.52-1.36H483c1.68 0 3.47.08 4.52 1.36s1.13 3.51 1.13 5.42v3h-12.5V382a4.48 4.48 0 0 0 .58 2.81 2.88 2.88 0 0 0 2.34.7zm2.69-8.15v-.66a6.89 6.89 0 0 0-.59-3.55 2.63 2.63 0 0 0-2.34-.9h-3.9a2.63 2.63 0 0 0-2.34.9 6.9 6.9 0 0 0-.58 3.55v.66zM505.5 370c1.64 0 3.35 0 4.41 1.25s1.13 3.28 1.13 5.07v9.28h2.73v2.34h-8.47v-2.34h3v-9.28a6 6 0 0 0-.58-3.2 2.48 2.48 0 0 0-2.22-.78h-6.55v13.26h3v2.34h-8.46v-2.34h2.73v-13.31h-2.73V370zM521 372.29h-2.73V370h5.46v15.6h2.73v2.34h-8.19v-2.34H521zm-.31-9.83H524v3.39h-3.35zM536.1 387.89c-1.37 0-2.92 0-3.9-.82s-1-2.07-1-3.28v-2.3c0-1.21 0-2.5 1-3.28s2.54-.82 3.9-.82h6.44v-2.73a2.32 2.32 0 0 0-.58-1.91 4.1 4.1 0 0 0-2.42-.47h-3.2a2.21 2.21 0 0 0-1.44.31 1.44 1.44 0 0 0-.39 1.21v1h-2.73v-1a3.87 3.87 0 0 1 .94-3.08c.9-.78 2.34-.78 3.63-.78h3.2c1.6 0 3.47 0 4.6.94s1.13 2.38 1.13 3.78v10.88H548v2.34zm0-8.15a2.74 2.74 0 0 0-1.72.35 1.75 1.75 0 0 0-.43 1.4v2.3a1.75 1.75 0 0 0 .43 1.4 2.73 2.73 0 0 0 1.72.35h6.44v-5.81zM564.47 370c1.64 0 3.35 0 4.41 1.25s1.13 3.28 1.13 5.07v9.28h2.73v2.34h-8.46v-2.34h3v-9.28a6 6 0 0 0-.58-3.2 2.48 2.48 0 0 0-2.22-.78h-6.55v13.26h3v2.34h-8.46v-2.34h2.73v-13.31h-2.73V370zM580.87 384.5v3.39l-1.56 3.9h-1.83l1.56-3.9h-1.56v-3.39zM49.52 407.63a3 3 0 0 0-.66-2.34 4 4 0 0 0-2.65-.58H41.6a4.54 4.54 0 0 0-2.85.58 2.88 2.88 0 0 0-.7 2.34v3.9a2.88 2.88 0 0 0 .7 2.34 4.54 4.54 0 0 0 2.85.58h4.72c1.83 0 3.9 0 5.23 1.05s1.33 2.65 1.33 4.21v3.9c0 1.56-.12 3.24-1.33 4.21s-3.39 1.05-5.23 1.05H41.6c-1.83 0-3.9 0-5.23-1.05s-1.33-2.65-1.33-4.21v-1.95h3v1.95a2.88 2.88 0 0 0 .7 2.34 4.53 4.53 0 0 0 2.85.59h4.72a4.53 4.53 0 0 0 2.85-.59 2.88 2.88 0 0 0 .7-2.34v-3.9a2.88 2.88 0 0 0-.7-2.34 4.54 4.54 0 0 0-2.85-.58H41.6c-1.83 0-3.9 0-5.23-1.05s-1.33-2.65-1.33-4.21v-3.9c0-1.56.12-3.24 1.33-4.21s3.39-1.05 5.23-1.05h4.6c1.79 0 3.78 0 5 1.05s1.29 2.65 1.29 4.21v2h-3zM62.51 434.35h2.73v2.34H57v-2.34h2.73v-21.06H57V411h11.63c1.72 0 3.59 0 4.76 1.25s1.21 3.28 1.21 5.07v5.3c0 1.79 0 3.82-1.21 5.07s-3 1.25-4.76 1.25h-6.12zm6.12-7.8a3.12 3.12 0 0 0 2.57-.78 5.33 5.33 0 0 0 .66-3.2v-5.3a5.32 5.32 0 0 0-.66-3.2 3.12 3.12 0 0 0-2.57-.78h-6.12v13.26zM84.55 428.89c-1.36 0-2.92 0-3.9-.82s-1-2.07-1-3.28v-2.3c0-1.21 0-2.5 1-3.28s2.54-.82 3.9-.82H91v-2.73a2.32 2.32 0 0 0-.58-1.91 4.1 4.1 0 0 0-2.42-.47h-3.2a2.21 2.21 0 0 0-1.44.31 1.44 1.44 0 0 0-.39 1.21v1h-2.75v-1a3.87 3.87 0 0 1 .94-3.08c.9-.78 2.34-.78 3.63-.78H88c1.6 0 3.47 0 4.6.94s1.13 2.38 1.13 3.78v10.88h2.73v2.34zm0-8.15a2.74 2.74 0 0 0-1.72.35 1.75 1.75 0 0 0-.43 1.4v2.3a1.75 1.75 0 0 0 .43 1.4 2.73 2.73 0 0 0 1.72.35H91v-5.81zM112.92 411c1.64 0 3.35 0 4.41 1.25s1.13 3.28 1.13 5.07v9.28h2.73v2.34h-8.46v-2.34h3v-9.28a6 6 0 0 0-.58-3.2 2.48 2.48 0 0 0-2.22-.78h-6.55v13.26h3v2.34h-8.46v-2.34h2.73v-13.31h-2.73V411zM128.41 413.29h-2.73V411h5.46v15.6h2.73v2.34h-8.19v-2.34h2.73zm-.31-9.83h3.35v3.39h-3.35zM150.47 414.93a1.48 1.48 0 0 0-.51-1.33 4.46 4.46 0 0 0-2.11-.31h-3.63a5 5 0 0 0-2.22.31 1.53 1.53 0 0 0-.58 1.33v2.18a1.53 1.53 0 0 0 .58 1.33 5 5 0 0 0 2.22.31H148c1.56 0 3.35 0 4.45.78s1.09 2 1.09 3.2v2.18c0 1.21-.12 2.5-1.09 3.2s-2.89.78-4.45.78h-3.74c-1.56 0-3.31 0-4.41-.78a3.73 3.73 0 0 1-1.13-3.2v-1.09h2.73v1.09a1.53 1.53 0 0 0 .58 1.33 5 5 0 0 0 2.22.31H148a5.13 5.13 0 0 0 2.26-.31 1.5 1.5 0 0 0 .55-1.33v-2.18a1.5 1.5 0 0 0-.55-1.33 5.13 5.13 0 0 0-2.26-.31h-3.74c-1.56 0-3.31 0-4.41-.78a3.73 3.73 0 0 1-1.13-3.2v-2.18a3.72 3.72 0 0 1 1.13-3.2c1.09-.78 2.85-.78 4.41-.78h3.63c1.48 0 3.24 0 4.29.78s1.05 2 1.05 3.2V416h-2.73zM170.38 411c1.64 0 3.35 0 4.41 1.25s1.13 3.28 1.13 5.07v9.28h2.73v2.34h-8.46v-2.34h3v-9.28a6 6 0 0 0-.58-3.2 2.48 2.48 0 0 0-2.22-.78h-6.55v13.26h3v2.34h-8.46v-2.34h2.73v-23.84h-2.73v-2.34h5.46V411zM186.78 425.5v3.39l-1.56 3.9h-1.83l1.56-3.9h-1.56v-3.39zM221.8 407.63a3 3 0 0 0-.66-2.34 4 4 0 0 0-2.65-.58h-4.6a4.54 4.54 0 0 0-2.85.58 2.88 2.88 0 0 0-.7 2.34v3.9a2.88 2.88 0 0 0 .7 2.34 4.54 4.54 0 0 0 2.85.58h4.72c1.83 0 3.9 0 5.23 1.05s1.33 2.65 1.33 4.21v3.9c0 1.56-.12 3.24-1.33 4.21s-3.39 1.05-5.23 1.05h-4.72c-1.83 0-3.9 0-5.23-1.05s-1.33-2.65-1.33-4.21v-1.95h3v1.95A2.88 2.88 0 0 0 211 426a4.53 4.53 0 0 0 2.85.59h4.72a4.53 4.53 0 0 0 2.85-.59 2.88 2.88 0 0 0 .7-2.34v-3.9a2.88 2.88 0 0 0-.7-2.34 4.54 4.54 0 0 0-2.85-.58h-4.72c-1.83 0-3.9 0-5.23-1.05s-1.33-2.65-1.33-4.21v-3.9c0-1.56.12-3.24 1.33-4.21s3.39-1.05 5.23-1.05h4.6c1.79 0 3.78 0 5 1.05s1.29 2.65 1.29 4.21v2h-3zM239.12 428.89h-4.06l-4-15.6h-2.18V411H236v2.34h-2.18l3.43 13.26 4-15.6h4.17l4 15.6 3.43-13.26h-2.18V411h6.79v2.34h-2.18l-4.06 15.6h-4l-4.09-15.83zM271.59 426.55c1.29 0 2.69 0 2.69-1.29v-.86H277v.86a3.19 3.19 0 0 1-1.13 2.89c-1.13.74-3 .74-4.52.74h-3.9c-1.64 0-3.39 0-4.52-1.17s-1.13-3-1.13-4.68v-5.3c0-1.91 0-4.06 1.13-5.42s2.85-1.36 4.52-1.36h3.9c1.68 0 3.47.08 4.52 1.36s1.13 3.51 1.13 5.42v3h-12.47V423a4.48 4.48 0 0 0 .58 2.81 2.88 2.88 0 0 0 2.34.7zm2.69-8.15v-.66a6.9 6.9 0 0 0-.58-3.55 2.63 2.63 0 0 0-2.34-.9h-3.9a2.63 2.63 0 0 0-2.34.9 6.9 6.9 0 0 0-.58 3.55v.66zM287.67 428.89c-1.64 0-3.35 0-4.41-1.25s-1.13-3.28-1.13-5.07v-5.3c0-1.79 0-3.82 1.13-5.07s2.74-1.2 4.41-1.2h6.55v-8.19h-2.73v-2.34h5.46v26.13h2.73v2.34zm0-15.6a2.48 2.48 0 0 0-2.22.78 6 6 0 0 0-.58 3.2v5.3a6 6 0 0 0 .58 3.2 2.48 2.48 0 0 0 2.22.78h6.55v-13.26zM307 413.29h-2.73V411h5.46v15.6h2.73v2.34h-8.19v-2.34H307zm-.31-9.83h3.35v3.39h-3.35zM329.09 414.93a1.48 1.48 0 0 0-.51-1.33 4.46 4.46 0 0 0-2.11-.31h-3.63a5 5 0 0 0-2.22.31 1.53 1.53 0 0 0-.58 1.33v2.18a1.53 1.53 0 0 0 .58 1.33 5 5 0 0 0 2.22.31h3.74c1.56 0 3.35 0 4.45.78s1.09 2 1.09 3.2v2.18c0 1.21-.12 2.5-1.09 3.2s-2.89.78-4.45.78h-3.74c-1.56 0-3.31 0-4.41-.78a3.73 3.73 0 0 1-1.13-3.2v-1.09h2.7v1.09a1.53 1.53 0 0 0 .58 1.33 5 5 0 0 0 2.22.31h3.74a5.13 5.13 0 0 0 2.26-.31 1.5 1.5 0 0 0 .55-1.33v-2.18a1.5 1.5 0 0 0-.55-1.33 5.13 5.13 0 0 0-2.26-.31h-3.74c-1.56 0-3.31 0-4.41-.78a3.73 3.73 0 0 1-1.13-3.2v-2.18a3.72 3.72 0 0 1 1.13-3.2c1.09-.78 2.85-.78 4.41-.78h3.63c1.48 0 3.24 0 4.29.78s1.05 2 1.05 3.2V416h-2.73zM349 411c1.64 0 3.35 0 4.41 1.25s1.13 3.28 1.13 5.07v9.28h2.73v2.34h-8.46v-2.34h3v-9.28a6 6 0 0 0-.58-3.2 2.48 2.48 0 0 0-2.22-.78h-6.55v13.26h3v2.34H337v-2.34h2.73v-23.84H337v-2.34h5.46V411zM381.72 428.89c-1.36 0-2.92 0-3.9-.82s-1-2.07-1-3.28v-2.3c0-1.21 0-2.5 1-3.28s2.54-.82 3.9-.82h6.44v-2.73a2.32 2.32 0 0 0-.58-1.91 4.1 4.1 0 0 0-2.42-.47H382a2.21 2.21 0 0 0-1.44.31 1.44 1.44 0 0 0-.39 1.21v1h-2.73v-1a3.87 3.87 0 0 1 .94-3.08c.9-.78 2.34-.78 3.63-.78h3.2c1.6 0 3.47 0 4.6.94s1.13 2.38 1.13 3.78v10.88h2.73v2.34zm0-8.15a2.74 2.74 0 0 0-1.72.35 1.75 1.75 0 0 0-.43 1.4v2.3a1.75 1.75 0 0 0 .43 1.4 2.73 2.73 0 0 0 1.72.35h6.44v-5.81zM410.1 411c1.64 0 3.35 0 4.41 1.25s1.13 3.28 1.13 5.07v9.28h2.73v2.34h-8.47v-2.34h3v-9.28a6 6 0 0 0-.58-3.2 2.48 2.48 0 0 0-2.22-.78h-6.55v13.26h3v2.34h-8.46v-2.34h2.73v-13.31h-2.73V411zM428.51 428.89c-1.64 0-3.35 0-4.41-1.25s-1.13-3.28-1.13-5.07v-5.3c0-1.79 0-3.82 1.13-5.07s2.77-1.25 4.41-1.25h6.55v-8.19h-2.73v-2.34h5.46v26.13h2.73v2.34zm0-15.6a2.48 2.48 0 0 0-2.22.78 6 6 0 0 0-.58 3.2v5.3a6 6 0 0 0 .58 3.2 2.48 2.48 0 0 0 2.22.78h6.55v-13.26zM462.32 404.71v3h-3v-5.34h23.28v5.34h-3v-3h-7.14v21.84h3v2.34h-9v-2.34h3v-21.84z"/><path d="M486.89 422.57a6 6 0 0 0 .55 3.2 2.47 2.47 0 0 0 2.14.78h6.28v-13.26h-2.73V411h5.46v15.6h2.73v2.34h-11.74c-1.6 0-3.31 0-4.33-1.25s-1.09-3.28-1.09-5.07v-9.28h-2.73V411h5.46zM517.27 415.12a1.81 1.81 0 0 0-.47-1.48 3 3 0 0 0-1.79-.35h-3.59v13.26h3v2.34H506v-2.34h2.73v-13.26H506V411h9c1.4 0 3 0 4 .82s1 2.11 1 3.35v1.21h-2.73zM522.85 402.76v-2.34h5.46v17.47l5.54-4.6h-2.18V411h8v2.34h-2.18l-6.71 5.58 8.42 7.68h2.18v2.34H533v-2.34h2.18l-6.86-6.28v6.28h2.18v2.34h-7.64v-2.34h2.73v-23.84zM548.31 413.29h-2.73V411H551v15.6h2.73v2.34h-8.19v-2.34h2.73zm-.31-9.83h3.35v3.39H548zM570.36 414.93a1.48 1.48 0 0 0-.51-1.33 4.46 4.46 0 0 0-2.11-.31h-3.63a5 5 0 0 0-2.22.31 1.53 1.53 0 0 0-.59 1.33v2.18a1.53 1.53 0 0 0 .59 1.33 5 5 0 0 0 2.22.31h3.74c1.56 0 3.35 0 4.45.78s1.09 2 1.09 3.2v2.18c0 1.21-.12 2.5-1.09 3.2s-2.89.78-4.45.78h-3.74c-1.56 0-3.31 0-4.41-.78a3.72 3.72 0 0 1-1.13-3.2v-1.09h2.73v1.09a1.53 1.53 0 0 0 .59 1.33 5 5 0 0 0 2.22.31h3.74a5.13 5.13 0 0 0 2.26-.31 1.5 1.5 0 0 0 .55-1.33v-2.18a1.5 1.5 0 0 0-.55-1.33 5.13 5.13 0 0 0-2.26-.31h-3.74c-1.56 0-3.31 0-4.41-.78a3.72 3.72 0 0 1-1.13-3.2v-2.18a3.72 3.72 0 0 1 1.13-3.2c1.09-.78 2.85-.78 4.41-.78h3.63c1.48 0 3.24 0 4.29.78s1.05 2 1.05 3.2V416h-2.73zM590.27 411c1.64 0 3.35 0 4.41 1.25s1.13 3.28 1.13 5.07v9.28h2.73v2.34h-8.46v-2.34h3v-9.28a6 6 0 0 0-.58-3.2 2.48 2.48 0 0 0-2.22-.78h-6.55v13.26h3v2.34h-8.46v-2.34H581v-23.84h-2.73v-2.34h5.46V411zM606.68 425.5v3.39h-3.39v-3.39z"/></g></svg>