<svg data-name="Ebene 1" xmlns="http://www.w3.org/2000/svg" viewBox="0 0 700 150"><path fill="#d7ffff" d="M0 0h700v150H0z"/><path d="M31.41 97.18h5.12L36 99.7H22.67l.59-2.52h5.21l33.85-54.6H67l9.91 54.6h5.12l-.5 2.52H67.44l.5-2.52h5.21l-3.27-18.06h-27.3zM69.46 76.6l-5.71-31.5-19.57 31.5zM90.06 99.7l-1.85-2.35c1.18-5.54 2.52-11.09 3.7-16.63l2.86-2.35h21.92c1.09-5 2.1-9.83 3.19-14.78h-19.66L98.54 71H95.1l1.68-7.56 2.94-2.35h21.84l1.85 2.35c-2.44 11.26-5 22.51-7.48 33.77h5.88l-.5 2.52zm5.21-18.82c-1.18 5.46-2.35 10.84-3.53 16.3h20.75l3.61-16.3zM172.21 69.71l1.6 2.18c-1.85 8.4-3.7 16.88-5.54 25.28l-3.11 2.52h-36.55l.5-2.52h5.21l11.51-52.07h-5.21l.59-2.52h35.53l1.93 2.52c-1.68 7.64-3.36 15.37-5 23l-2 1.6zm-7.73 27.47c1.93-8.65 3.78-17.3 5.71-26h-26.37l-5.71 26zm5.21-28.48c1.76-7.9 3.44-15.71 5.21-23.6h-25.29l-5.21 23.6zM218.78 61.06l1.85 2.35c-2.52 11.26-5 22.68-7.48 33.94l-2.94 2.35h-32.85l.59-2.52h5.88l12.35-56.28h-5.88l.59-2.52h9.32l-5 22.68zm-9.08 36.12c2.44-11.17 5-22.43 7.39-33.6h-22.42l-7.39 33.6zM274.54 45.1h-32.92c-3.78 17.39-7.64 34.69-11.42 52.08h32.93l3.19-14.62h3.78l-3.2 14.62-3.11 2.52h-35.45l-1.93-2.52c3.78-17.39 7.64-34.69 11.42-52.08l3.11-2.52h35.45l1.93 2.52-3.19 14.62h-3.78zM312.84 63.58h-23.35c-2.44 11.17-5 22.43-7.39 33.6h23.35l1.93-9.07h3.44l-2 9.24L306 99.7h-25.5l-1.93-2.35c2.52-11.26 5-22.68 7.48-33.94l2.95-2.35h25.45l1.85 2.35-2 9.24h-3.44zM317.2 99.7l.59-2.52h6.47l11.5-52.08h-6.47l.5-2.52h42.92l1.93 2.52c-3.78 17.39-7.64 34.69-11.42 52.08l-3.11 2.52zm42.25-2.52c3.78-17.39 7.64-34.69 11.42-52.08h-31.33L328 97.18zM378.21 99.7l-1.93-2.35c2.52-11.26 5-22.68 7.48-33.94l2.94-2.35h23.52l4.45-20.16h-5.88l.59-2.52h9.32l-12.94 58.8h5.88l-.59 2.52zm9-36.12c-2.44 11.17-5 22.43-7.39 33.6h22.51l7.39-33.6zM435.28 68.7h23.27l-.55 2.52h-23.31l-5.71 26h27.89l1.43-6.47h3.78c-.67 3-1.34 6-2 9h-41.94l.59-2.52h6.47l11.5-52.13h-6.47l.5-2.52H471c-.59 2.77-1.26 5.54-1.85 8.32h-3.78l1.26-5.8h-26.15zM476.39 80.88l-3.61 16.3h23.35l1.52-7.18h3.44l-1.6 7.31-2.86 2.35h-25.44l-1.93-2.35c2.52-11.26 5-22.68 7.48-33.94l2.94-2.35h25.45l1.87 2.39-3.86 17.47zm23.86-2.52l3.28-14.78h-23.36l-3.27 14.78zM524.89 71.05h23.6l-.59 2.52h-23.6l-5.21 23.6h6.47l-.5 2.52h-16.8l.59-2.52h6.47l11.51-52.07h-6.47l.5-2.52h40.24c-.59 2.77-1.26 5.54-1.85 8.32h-3.78l1.26-5.8h-26.12zM574.5 40.9c-1.51 6.72-2.94 13.44-4.45 20.16h7.56l-.61 2.52h-7.48l-7.39 33.6h6.47l-.6 2.52h-15.2l.59-2.52h5.29l7.39-33.6h-6.3l.5-2.52h6.3c1.51-6.8 2.94-13.52 4.45-20.33l2.98-2.35h14.36l-.5 2.52zM628.58 45.1H594c-3.78 17.39-7.64 34.69-11.42 52.08h34.61l4.54-20.66H607l.5-2.52H626l-5 23.18-.59 2.52H580.7l-1.93-2.52c3.78-17.39 7.64-34.69 11.42-52.08l3.11-2.52h37.13l1.93 2.52-3.19 14.62h-3.78zM655.87 114L659 99.7h-23.54l-1.93-2.35c2.52-11.26 5-22.68 7.48-33.94l2.94-2.35h32.84l-.5 2.52h-5.88c-3.7 16.88-7.48 33.68-11.17 50.57l-2.86 2.35h-26.21l.59-2.52zm-11.42-50.4c-2.44 11.17-5 22.43-7.39 33.6h22.51L667 63.58z"/></svg>