<svg data-name="Ebene 1" xmlns="http://www.w3.org/2000/svg" viewBox="0 0 700 150"><path fill="#d7ffff" d="M0 0h700v150H0z"/><path d="M34.88 92.14h5.21v7.56H21.6v-7.56h5.21L46 42.58h12.14L77.3 92.14h5.12v7.56H62.18v-7.56h5.21l-5-13H39.92zM59.4 71.56l-8.23-21.42-8.31 21.42zM102.39 99.7L96 93.31V82.23l6.38-6.38h18v-7.23h-14.63v3.61h-8.4v-4.79l6.38-6.38h18.65l6.38 6.38v24.7h5.88v7.56zm2-16.3v8.74h16V83.4zM192.89 74.75V93l-6.72 6.72h-37.89v-7.58h5.21v-42h-5.21v-7.56H185l6.72 6.72v16l-4.12 4.12zm-10.42-8.57v-16h-19.74v16zm1.18 26V73.74h-20.92v18.4zM241 61.06l6.38 6.38v25.87L241 99.7h-33.94v-7.56h5.88v-46.2h-5.88v-7.56h14.28v22.68zm-2 31.08V68.62h-17.66v23.52zM296 50.14h-24.78v42H296v-9.58h9.24V93l-6.72 6.72H268.7L262 93V49.3l6.72-6.72h29.82l6.72 6.72v10.41H296zM344 68.62h-16v23.52h16v-4h8.4v5.21L346 99.7h-20l-6.38-6.38V67.44l6.38-6.38h20l6.38 6.38v5.21H344zM366.28 99.7v-7.56h6.55v-42h-6.55v-7.56h44.27l6.72 6.72V93l-6.72 6.72zM408 92.14v-42h-26v42zM438.33 99.7l-6.38-6.38V67.44l6.38-6.38H458V45.94h-5.88v-7.56h14.28v53.76h5.88v7.56zm2-31.08v23.52H458V68.62zM501.44 66.18h20.5v7.56h-20.5v18.4h19.66v-6.47h9.24v14h-44.69v-7.53h6.55v-42h-6.55v-7.56h43v13.35h-9.24v-5.8h-18zM552.65 83.4v8.74h18.48V90h8.4v3.28l-6.38 6.38h-22.51l-6.38-6.38V67.44l6.38-6.38h22.51l6.38 6.38v16zm18.48-7.56v-7.22h-18.48v7.22zM609.19 68.53H630v7.56h-20.81v16h6.47v7.61H593.4v-7.56h6.6v-42h-6.6v-7.56h43v13.35h-9.24v-5.8h-18zM662.77 45.94v15.12h9.07v7.56h-9.07v23.52h6.47v7.56h-20.16v-7.56h5.29V68.62h-7.56v-7.56h7.56v-16.3l6.38-6.38h16v7.56z"/></svg>