<svg data-name="Ebene 1" xmlns="http://www.w3.org/2000/svg" viewBox="0 0 700 150"><path fill="#d7ffff" d="M0 0h700v150H0z"/><path d="M27.8 99.7h-5.46l22.51-57.12h8.4L75.76 99.7h-7l-8.04-20.58H35.86zm30.91-25.62L48.29 47.62 37.88 74.08zM96.67 99.7c-2.94 0-6.3 0-8.4-1.76s-2.1-4.45-2.1-7.06v-5c0-2.6.08-5.38 2.1-7.06s5.46-1.76 8.4-1.76h13.78v-5.84c0-1.51-.08-3.19-1.26-4.12s-3.36-1-5.12-1h-6.9c-1.09 0-2.44 0-3.19.67s-.76 1.6-.76 2.6v2.18h-5.88v-2.18c0-2.44.08-5 1.93-6.64s5.12-1.68 7.9-1.68h6.89c3.44 0 7.39 0 9.83 2 2.27 1.85 2.44 5.12 2.44 8.15v28.5zm0-17.56c-1.34 0-2.77 0-3.7.76s-.92 1.93-.92 3v5c0 1.09.08 2.35.92 3s2.35.76 3.7.76h13.78V82.14zM129.31 42.58h21.42c3.95 0 8.48 0 11.34 2.1 2.52 1.93 2.86 5.38 2.86 8.57v8c0 2.86-.5 5.88-2.86 7.39a9.6 9.6 0 0 1-3.28 1.36 11.27 11.27 0 0 1 4.28 1.51c2.52 1.68 2.94 5 2.94 8v8.9c0 3.44-.25 7.06-2.94 9.07-2.94 2.27-7.73 2.27-11.93 2.27h-21.83zm22.18 24.86c2 0 4.12-.08 5.46-1.18s1.51-3.19 1.51-5v-8c0-1.68-.17-3.53-1.51-4.54-1.51-1.09-4-1.09-6.22-1.09h-14.87v19.81zm-.34 27.22c2.35 0 5 0 6.72-1.26 1.51-1.09 1.68-3.11 1.68-5v-8.9c0-2-.08-4.28-1.68-5.54-1.68-1.43-4.37-1.43-6.72-1.43h-15.29v22.13zM178.75 38.38h5.88v22.68h14.11c3.53 0 7.22.08 9.49 2.69s2.44 7.05 2.44 10.92v11.42c0 3.86-.08 8.23-2.44 10.92s-6 2.69-9.49 2.69h-20zm20 56.28c1.85 0 3.78-.17 4.79-1.68 1.18-1.68 1.26-4.54 1.26-6.89V74.67c0-2.35-.08-5.21-1.26-6.89-1-1.51-2.94-1.68-4.79-1.68h-14.12v28.56zM258.37 54.84c0-2.1-.08-4.37-1.6-5.8s-3.95-1.43-6.13-1.43H239c-2.94 0-6.13.5-7.73 2.86-1.93 2.86-1.93 7.31-1.93 11.26v18.81c0 3.95 0 8.4 1.93 11.26 1.6 2.35 4.79 2.86 7.73 2.86h11.59c2.18 0 4.62 0 6.13-1.43s1.6-3.7 1.6-5.8v-4.87h6.47v4.87c0 3.61-.17 7.48-2.86 9.83-2.86 2.44-7.31 2.44-11.34 2.44H239c-4.7 0-9.83-.25-12.85-3.86-3.19-3.87-3.28-9.91-3.28-15.29V61.73c0-5.38.08-11.42 3.28-15.29 3-3.61 8.15-3.86 12.85-3.86h11.59c4 0 8.48 0 11.34 2.44 2.69 2.35 2.86 6.22 2.86 9.83v4.87h-6.47zM302.7 70c0-1.18-.08-2.52-1-3.19s-2.6-.76-4-.76h-7.9c-2 0-4.2.08-5.46 1.68s-1.34 4.5-1.34 6.94v11.42c0 2.44 0 5.21 1.34 6.89s3.44 1.68 5.46 1.68h7.9c1.43 0 3 0 4-.76s1-2 1-3.19v-2.6h5.88v2.6c0 2.69-.17 5.54-2.18 7.22-2.18 1.76-5.63 1.76-8.74 1.76h-7.9c-3.7 0-7.64 0-10.16-2.69s-2.52-7.06-2.52-10.92V74.67c0-3.87 0-8.23 2.52-10.92s6.47-2.69 10.16-2.69h7.9c3.11 0 6.55 0 8.74 1.76 2 1.68 2.18 4.54 2.18 7.22v2.6h-5.88zM321.12 42.58h25.7c4.7 0 9.83.25 12.85 3.86 3.19 3.86 3.19 9.91 3.19 15.29v18.81c0 5.38 0 11.42-3.19 15.29-3 3.61-8.15 3.86-12.85 3.86h-25.7zm25.7 52.08c2.94 0 6-.5 7.64-2.86 1.93-2.86 1.93-7.31 1.93-11.26V61.73c0-3.95 0-8.4-1.93-11.26-1.6-2.35-4.7-2.86-7.64-2.86h-19.15v47zM387.12 99.7c-3.53 0-7.31-.08-9.58-2.69s-2.35-7.06-2.35-10.92V74.67c0-3.87 0-8.23 2.35-10.92s6-2.69 9.58-2.69h14.11V38.38h5.88V99.7zm0-33.6c-1.85 0-3.86.17-4.87 1.68-1.18 1.68-1.18 4.54-1.18 6.89v11.42c0 2.35 0 5.21 1.18 6.89 1 1.51 3 1.68 4.87 1.68h14.11V66.1zM420.44 42.58h35.2v5H427v19.86h21.92v5H427v22.22h30.32v5h-36.88zM490.08 94.66c2.77 0 5.8-.08 5.8-2.77V90h5.88v1.85c0 2.44-.42 5-2.44 6.22-2.44 1.6-6.38 1.6-9.74 1.6h-8.4c-3.53 0-7.31 0-9.74-2.52S469 90.71 469 87.1V75.67c0-4.12 0-8.74 2.44-11.68 2.27-2.77 6.13-2.94 9.74-2.94h8.4c3.61 0 7.48.17 9.74 2.94 2.44 2.94 2.44 7.56 2.44 11.68v6.47h-26.88v5c0 2.1 0 4.54 1.26 6s3.19 1.51 5 1.51zm5.8-17.56v-1.43c0-2.69 0-5.71-1.26-7.64-1-1.6-3.11-1.93-5-1.93h-8.4c-1.93 0-4 .34-5 1.93-1.26 1.93-1.26 5-1.26 7.64v1.43zM514.38 42.58h35.2v5h-28.64v22.21h22.26v5h-22.26V99.7h-6.55zM574.15 43.42c-1.93 0-4 .08-5.21 1.6-1.34 1.6-1.34 4.12-1.34 6.38v9.66h8.32v5h-8.32V99.7h-5.88V66.1h-6.89v-5h6.89v-9.7c0-3.7 0-7.81 2.52-10.42s6.3-2.6 9.91-2.6h7.14v5zM625.46 54.84c0-2.18-.17-4.45-1.85-5.8-1.85-1.43-4.79-1.43-7.39-1.43H604c-2.77 0-5.8.42-7.39 2.69-1.85 2.69-1.85 7.06-1.85 10.75v18.82c0 4.12 0 8.9 1.85 11.84 1.51 2.35 4.54 2.94 7.39 2.94h21.42V79h-12.9v-5h19.4v25.7H604c-4.62 0-9.66-.34-12.52-3.95-3.11-3.95-3.19-10.33-3.19-15.88V61.06c0-5.21.08-11.09 3.19-14.78 2.94-3.44 7.9-3.7 12.52-3.7h12.18c4.37 0 9.41 0 12.52 2.44 2.86 2.27 3.19 6.13 3.19 9.83v4.87h-6.47zM664.16 111.46c1.76 0 3.61-.08 4.79-1.43s1.26-3.61 1.26-5.63v-4.7H656.1c-3.53 0-7.31-.08-9.58-2.69s-2.35-7.06-2.35-10.92V74.67c0-3.87 0-8.23 2.35-10.92s6-2.69 9.58-2.69h20v43.34c0 3.44-.08 7.22-2.44 9.66s-6 2.44-9.49 2.44H645.6v-5zM656.1 66.1c-1.85 0-3.86.17-4.87 1.68-1.18 1.68-1.18 4.54-1.18 6.89v11.42c0 2.35 0 5.21 1.18 6.89 1 1.51 3 1.68 4.87 1.68h14.11V66.1z"/></svg>