<svg data-name="Ebene 1" xmlns="http://www.w3.org/2000/svg" viewBox="0 0 700 150"><path fill="#d7ffff" d="M0 0h700v150H0z"/><path d="M38.31 92.14h5.12l-1.67 7.56H22.6l1.68-7.56h5.12l30-49.56h12.43L80 92.14h5.1l-1.6 7.56H63.76l1.68-7.56h5.12l-2.1-13H46.12zm28.9-20.58l-3.53-21.42-12.94 21.42zM100.33 99.7l-5-6.47c.84-3.61 1.6-7.31 2.44-10.92l7.81-6.47h17.72c.5-2.44 1.09-4.79 1.6-7.22h-14.32l-.76 3.61h-8.57l1-4.7 7.9-6.47h18.48l5 6.47c-1.76 8.23-3.61 16.38-5.38 24.61h5.88l-1.63 7.56zM106 83.4c-.67 2.94-1.26 5.8-1.93 8.74h15.54l1.93-8.74zM193.45 74.83c-1.34 6-2.6 12-3.95 18.06l-8.32 6.8h-37.8l1.68-7.56h5.12l9.24-42h-5.12l1.7-7.55h36.62l5.29 6.8c-1.18 5.29-2.27 10.5-3.44 15.79l-5.21 4.2zm-13.27 17.3c1.34-6.13 2.77-12.26 4.12-18.4h-20.59l-4 18.4zm4.54-26c1.18-5.38 2.35-10.67 3.53-16h-19.33l-3.53 16zM243.15 61.06l5 6.47c-1.85 8.57-3.78 17.14-5.63 25.7l-7.9 6.47h-33.81l1.68-7.56h5.88l10.16-46.2h-5.88l1.68-7.56h14.45l-5 22.68zm-9 31.08c1.76-7.81 3.44-15.71 5.21-23.52h-17.21l-5.21 23.52zM301.24 50.14H277c-3.11 14-6.13 28-9.24 42H292l2.1-9.58h9.49l-2.27 10.33L293 99.7h-29.65l-5.29-6.8c3.19-14.53 6.38-29 9.58-43.51l8.32-6.8h29.64l5.29 6.8-2.27 10.33h-9.49zM344.85 68.62h-15.54c-1.76 7.81-3.44 15.71-5.21 23.52h15.54l.92-4h8.57L348 93.23l-7.9 6.47h-19.78l-5-6.47c1.85-8.57 3.86-17.14 5.71-25.7l7.81-6.47h19.82l5 6.47-1.09 5.12H344zM358.68 99.7l1.68-7.56h6.47l9.24-42h-6.47l1.68-7.56h44.18l5.29 6.8c-3.19 14.53-6.38 29-9.58 43.51l-8.32 6.8zm43.18-7.56c3.11-14 6.13-28 9.24-42h-25.54l-9.24 42zM431.86 99.7l-5-6.47c1.85-8.57 3.86-17.14 5.71-25.7l7.81-6.47h19.4L463 45.94h-5.88l1.68-7.56h14.53l-11.81 53.76h5.88l-1.68 7.56zm9-31.08c-1.76 7.81-3.44 15.71-5.21 23.52h17.22l5.21-23.52zM499.4 66.18h20.33l-1.6 7.56h-20.41l-4 18.4h19.24l1.43-6.47h9.49l-3.11 14H476l1.68-7.56h6.47l9.24-42H487l1.68-7.56h43c-1 4.45-1.93 8.9-2.94 13.36h-9.49l1.34-5.8h-17.66zM545.63 83.4l-1.93 8.74h18.06l.5-2.1h8.57l-.67 3.19-7.9 6.47h-22.34l-5-6.47c1.85-8.57 3.86-17.14 5.71-25.7l7.81-6.47h22.34l5 6.47-3.44 15.87zm19.74-7.56l1.6-7.22h-18.06l-1.6 7.22zM604 68.53h20.66l-1.6 7.56h-20.74l-3.53 16h6.47l-1.68 7.56h-22.42l1.68-7.56h6.47l9.24-42h-6.47l1.68-7.56h43c-1 4.45-1.93 8.9-2.94 13.36h-9.49l1.26-5.8H608zM660.45 45.94l-3.28 15.12h9l-1.68 7.56h-9l-5.21 23.52h6.47l-1.68 7.56h-20.32l1.68-7.56h5.29l5.13-23.52h-7.48l1.63-7.56h7.48c1.18-5.38 2.44-10.84 3.61-16.21l7.9-6.47h15.79l-1.68 7.56z"/></svg>