<svg xmlns="http://www.w3.org/2000/svg" viewBox="0 0 700 500"><defs><style>.cls-3{mix-blend-mode:multiply}</style></defs><g style="isolation:isolate"><path fill="#d7ffff" d="M0 0h700v500H0z" id="Ebene_2" data-name="Ebene 2"/><g id="Ebene_1" data-name="Ebene 1"><g class="cls-3"><path d="M232.7 67.47h-10.78l2.8-12.6H262l-2.66 12.6h-10.82l-15.4 70h10.78l-2.8 12.6h-37.38l2.8-12.6h10.78zM310.6 85.67c6.72 0 13.86.14 17.36 4.9 1.54 2.1 2 4.76 2 7.7a58.09 58.09 0 0 1-1.72 11.73c-2 9.1-4.06 18.34-6 27.44H332l-2.8 12.6h-35l2.8-12.6h10.8c2-9.1 4.06-18.34 6-27.44a34.49 34.49 0 0 0 1-6.3 7.12 7.12 0 0 0-.56-3.08c-1.12-2.1-3.78-2.38-6.44-2.38h-20l-8.68 39.2h10.78l-2.8 12.6h-34.88l2.8-12.6h9.8l8.54-39.2h-9.8l2.8-12.6zM369.42 137.47H381l-2.8 12.6h-11.58c-5.88 0-12.32 0-15.54-4.06a10.88 10.88 0 0 1-2-6.72 47.79 47.79 0 0 1 1.54-9.66c2.24-10.5 4.62-20.86 6.86-31.36h-10.04l2.8-12.6h10.08l4.34-20h14.42l-4.48 20h17.5l-2.8 12.6h-17.5c-2.24 10.5-4.62 20.86-6.86 31.36a21.68 21.68 0 0 0-.56 4.06c0 3.22 2.1 3.78 5.04 3.78zM415.55 137.47h14.84c2.94 0 6.3-.14 6.72-2.1l.28-1.4h14.28l-.28 1.4c-1 4.62-2.94 9.38-7.28 11.76-5.32 2.94-12.88 2.94-19.32 2.94h-12c-6.72 0-14 0-17.78-4.2-1.68-2-2.24-4.62-2.24-7.42a48.63 48.63 0 0 1 1.4-9.8c1.12-5.18 2.24-10.5 3.36-15.68 1.68-7.7 3.64-16.38 9.52-21.84 5.6-5.18 13-5.46 19.88-5.46h12c6.86 0 14.28.28 17.5 5.46a15.2 15.2 0 0 1 2 8.12c0 4.34-1.12 9.1-2.1 13.72l-2.1 9.94h-44.56l-1.26 5.74a23.19 23.19 0 0 0-.56 4.2c0 4.34 3.78 4.62 7.7 4.62zm27-27.16a29.25 29.25 0 0 0 .7-5.88 7.83 7.83 0 0 0-.42-3.22c-1-2.38-3.78-2.94-6.58-2.94h-12c-2.8 0-6 .56-8 2.94s-2.94 5.74-3.78 9.1zM481.25 60.47l2.8-12.6h24.08l-19.74 89.6h9.8l-2.8 12.6h-33.88l2.8-12.6h9.8l16.94-77z"/></g><g class="cls-3"><path d="M126.5 243.31h36.26l-1.82 8.4h-36.26l-8.12 37h39.2l2.38-10.78h11.06c-1.12 5-2.24 9.94-3.36 15l-.84 4.2H92.76l2-8.4h10.74l17.22-78.4h-10.78l1.82-8.4h69.3c-.56 2.8-1.26 5.6-1.82 8.4l-2.1 9.66h-11.06l2.1-9.66h-36.4zM223.19 241.07l1.82-8.4h27.72l-1.82 8.4h-7.84l-24.36 24.08 13.72 23.52h7.84l-1.82 8.4h-27l1.82-8.4h7.84l-9.52-16.52-16.66 16.52h7.84l-1.82 8.4h-27.74l1.82-8.4h7.84l24.36-24.08-13.72-23.52h-7.84l1.82-8.4h27l-1.82 8.4h-7.84l9.52 16.52L231 241.07zM276.76 288.67h12.6l-2 8.4h-12.42c-5 0-10.64-.14-13.3-3.78a10.27 10.27 0 0 1-1.54-5.88 42.26 42.26 0 0 1 1.4-9.1c2.66-12.46 5.6-24.78 8.26-37.24h-10.08l1.82-8.4h10.08l4.34-20H286l-4.48 20h17.64l-1.82 8.4H279.7c-2.66 12.46-5.46 24.78-8.12 37.24a25.81 25.81 0 0 0-.84 5.6c0 3.92 2.38 4.76 6.02 4.76zM342.84 241.07h-12.46l-10.5 47.6h10.78l-1.82 8.4h-30.66l1.82-8.4h9.8l10.5-47.6h-9.8l1.82-8.4h32.34c5 0 10.92 0 13.86 2.94a7.75 7.75 0 0 1 1.82 5.6 33.84 33.84 0 0 1-.84 6.44l-1 4.34h-10.06l1-4.34a22.67 22.67 0 0 0 .42-2.8c-.02-3.64-3.66-3.78-7.02-3.78zM377.63 267.81l-1.82 8.26a36 36 0 0 0-1 6.44 7.37 7.37 0 0 0 .84 3.64c1.4 2.38 4.62 2.52 7.7 2.52h13.86c5 0 10.5-.14 11.34-4.62l.7-3.08h9.94l-.56 3.08c-.84 4.06-2.66 8.26-6.44 10.36-4.62 2.66-11.34 2.66-16.94 2.66h-13.71c-5.88 0-12.18 0-15.4-4.2a10.88 10.88 0 0 1-2-6.72 51.83 51.83 0 0 1 1.54-10.08c1.4-6.3 2.8-12.74 4.2-19 1.54-6.86 3.22-14.56 8.4-19.46 4.76-4.62 11.34-4.9 17.36-4.9h13.86c6 0 12.32.28 15.12 4.9a12.68 12.68 0 0 1 1.68 7c0 3.92-1 8.4-1.82 12.46l-2.38 10.78zm36.4-8.4l.42-2.38a41.07 41.07 0 0 0 1.4-9 10.73 10.73 0 0 0-.56-3.78c-1.12-2.66-4.48-3.22-7.7-3.22h-13.72c-3.22 0-6.72.56-9 3.22-2.8 3.22-3.92 8.26-4.9 12.74l-.56 2.38zM522.75 232.67c5.6 0 11.48.28 14 4.48a12.39 12.39 0 0 1 1.54 6.58c0 3.64-1 7.84-1.82 11.62-2.38 11.06-4.9 22.26-7.28 33.32H539l-1.82 8.4h-29.69l1.82-8.4h9.8c2.38-11.06 5-22.26 7.42-33.32a43.82 43.82 0 0 0 1.26-8.26 11 11 0 0 0-.56-3.22c-.84-2.24-3.64-2.8-6.3-2.8h-20.3l-10.5 47.6h8.82l-1.82 8.4h-27.72l1.82-8.4H480l10.5-47.6h-29l-10.5 47.6h9.8l-1.82 8.4h-29.61l1.82-8.4H441l10.5-47.6h-9.8l1.82-8.4zM566.32 267.81l-1.82 8.26a36 36 0 0 0-1 6.44 7.37 7.37 0 0 0 .84 3.64c1.4 2.38 4.62 2.52 7.7 2.52h13.86c5 0 10.5-.14 11.34-4.62L598 281h9.94l-.56 3.08c-.84 4.06-2.66 8.26-6.44 10.36-4.62 2.66-11.34 2.66-16.94 2.66h-13.76c-5.88 0-12.18 0-15.4-4.2a10.88 10.88 0 0 1-2-6.72 51.83 51.83 0 0 1 1.54-10.08c1.4-6.3 2.8-12.74 4.2-19 1.54-6.86 3.22-14.56 8.4-19.46 4.76-4.62 11.34-4.9 17.36-4.9h13.86c6 0 12.32.28 15.12 4.9a12.68 12.68 0 0 1 1.68 7c0 3.92-1 8.4-1.82 12.46l-2.38 10.78zm36.4-8.4l.42-2.38a41.07 41.07 0 0 0 1.4-9 10.73 10.73 0 0 0-.56-3.78c-1.12-2.66-4.48-3.22-7.7-3.22h-13.72c-3.22 0-6.72.56-9 3.22-2.8 3.22-3.92 8.26-4.9 12.74l-.56 2.38z"/></g><g class="cls-3"><path d="M128.52 436.87h8.54l-.84 4.2h-23.8l1-4.2h10.78l19.18-86.8h-10.8l.84-4.2H153l17.22 91 57.4-91h20.3l-1 4.2h-10.74l-19 86.8h10.78l-1 4.2h-25.64l.84-4.2h8.68l19-86.8-57.26 91h-7.84l-17.22-91zM296.94 385.07a29 29 0 0 1-1 6.86c-3.36 15-6.58 30-9.94 44.94h9.8l-.84 4.2h-40.72c-6.44 0-13.3-.28-13.3-7.14a23 23 0 0 1 .7-5.18l2.52-10.92c.84-3.64 1.82-7.7 5.18-9.94s7.56-2.38 11.48-2.38h26.46c1-4.48 2-9.1 2.94-13.58a22.22 22.22 0 0 0 .84-5.18c0-5.32-4.76-5.88-9.66-5.88h-13.16c-2.38 0-5.18 0-7.14 1.54s-2.52 3.78-2.94 5.88l-1.12 4.9h-5.74l1.12-4.9c.7-3.36 1.82-7.14 4.9-9.24 3.36-2.38 7.84-2.38 11.9-2.38h13.16c7.28 0 14.56.56 14.56 8.4zm-41.72 51.8h25.06l6-27.16h-26.16c-2.38 0-5 .14-7 1.54s-2.8 4.2-3.36 6.58c-.84 3.64-1.54 7.28-2.38 10.92a15.89 15.89 0 0 0-.42 3.5c.04 4.34 4.2 4.62 8.26 4.62zM315.36 403.69c0-5.6 2-10.22 2.94-15.12.84-3.64 2.1-7.42 5.46-9.52 3.92-2.38 9.38-2.38 14.14-2.38h14.56c6.86 0 14.42.14 14.42 7.28a26.3 26.3 0 0 1-.7 4.62l-1.12 5.18h-5.74l1.26-5.18a10.47 10.47 0 0 0 .28-2.94c0-4.62-4.76-4.76-9.24-4.76h-14.7c-3.08 0-6.72 0-9.38 1.54-2.24 1.26-2.94 3.78-3.5 6.16-.7 3.5-1.68 6.86-2.38 10.36a11.47 11.47 0 0 0-.28 3.08c0 4.62 4.62 4.76 9.1 4.76h15.82c4.76 0 10.22 0 13 2.38 1.4 1.12 1.82 2.94 1.82 4.9a26 26 0 0 1-.56 4.62c-.7 3.5-1.54 6.86-2.24 10.36s-2.1 7.56-5.46 9.66c-3.92 2.38-9.38 2.38-14.14 2.38h-15c-4.76 0-10.36 0-13.16-2.38-1.4-1.12-1.82-2.94-1.82-4.9a27.61 27.61 0 0 1 .56-4.76l1.12-5h5.74l-1.12 5a11.65 11.65 0 0 0-.42 3.08c0 4.62 4.76 4.76 9.24 4.76h15.68c3.08 0 6.72 0 9.38-1.54 2.24-1.26 3.08-3.92 3.64-6.3.7-3.5 1.54-6.86 2.24-10.36a10.68 10.68 0 0 0 .42-2.94c0-4.62-4.76-4.76-9.24-4.76h-15.64c-7 .03-14.98.03-14.98-7.28zM386 424a32.37 32.37 0 0 0-1 7.14 7.78 7.78 0 0 0 .56 3.22c1 2.24 3.78 2.52 6.44 2.52h13.44l-1 4.2h-13.3c-4.34 0-8.82-.14-10.92-3.36a9.62 9.62 0 0 1-1.26-5 46.33 46.33 0 0 1 1.26-8.68c3.22-14.42 6.3-28.7 9.52-43.12h-10.01l1-4.2h10.08l4.34-20h5.74l-4.34 20H414l-.84 4.2h-17.61c-3.22 14.37-6.3 28.65-9.55 43.08zM426.91 409.71l-2.52 10.78a40.61 40.61 0 0 0-1.26 9 9.77 9.77 0 0 0 .84 4.2c1.4 2.8 5 3.22 8.54 3.22h15.54c3.22 0 7 0 9.66-1.4 2.1-1.12 3.08-3.5 3.64-5.74l1-4.76h5.74l-1 4.76c-.7 3.5-2.24 7.28-5.46 9.1-3.92 2.24-9.66 2.24-14.42 2.24h-15.54c-5.18 0-10.64-.14-13-4.06a10.73 10.73 0 0 1-1.54-6 57.65 57.65 0 0 1 1.54-10.5c1.68-7.42 3.36-15 5-22.4 1.4-6 2.8-12.74 7.28-17.08 4.06-3.92 9.66-4.34 14.84-4.34h15.54c5.18 0 10.64.42 13 4.34a11.92 11.92 0 0 1 1.26 6 51.23 51.23 0 0 1-1.54 11.06l-2.66 11.62zm39.76-4.2l1.68-7.42a46.07 46.07 0 0 0 1.4-9.52 9.8 9.8 0 0 0-.7-4.2c-1.26-2.94-5.18-3.5-8.68-3.5h-15.54c-3.5 0-7.42.56-10.08 3.5-3.08 3.5-4.2 9-5.32 13.72l-1.68 7.42zM535.89 383.95a31.11 31.11 0 0 1-.84 6l-1.26 6H528l1.26-6a23.34 23.34 0 0 0 .7-4.34c0-4.48-3.92-4.76-8-4.76h-15.47l-12.32 56h10.78l-1 4.2h-26.3l1-4.2h9.8l12.32-56h-9.8l.84-4.2H523c6.45.02 12.89.44 12.89 7.3zM544.41 403.69c0-5.6 2-10.22 2.94-15.12.84-3.64 2.1-7.42 5.46-9.52 3.92-2.38 9.38-2.38 14.14-2.38h14.56c6.86 0 14.42.14 14.42 7.28a26.3 26.3 0 0 1-.7 4.62l-1.12 5.18h-5.74l1.26-5.18a10.47 10.47 0 0 0 .28-2.94c0-4.62-4.76-4.76-9.24-4.76H566c-3.08 0-6.72 0-9.38 1.54-2.24 1.26-2.94 3.78-3.5 6.16-.7 3.5-1.68 6.86-2.38 10.36a11.47 11.47 0 0 0-.28 3.08c0 4.62 4.62 4.76 9.1 4.76h15.82c4.76 0 10.22 0 13 2.38 1.4 1.12 1.82 2.94 1.82 4.9a26 26 0 0 1-.56 4.62c-.7 3.5-1.54 6.86-2.24 10.36s-2.1 7.56-5.46 9.66c-3.92 2.38-9.38 2.38-14.14 2.38h-15c-4.76 0-10.36 0-13.16-2.38-1.4-1.12-1.82-2.94-1.82-4.9a27.66 27.66 0 0 1 .56-4.76l1.12-5h5.74l-1.12 5a11.65 11.65 0 0 0-.42 3.08c0 4.62 4.76 4.76 9.24 4.76h15.68c3.08 0 6.72 0 9.38-1.54 2.24-1.26 3.08-3.92 3.64-6.3.7-3.5 1.54-6.86 2.24-10.36a10.65 10.65 0 0 0 .42-2.94c0-4.62-4.76-4.76-9.24-4.76h-15.67c-7 .03-14.98.03-14.98-7.28z"/></g></g></g></svg>