<svg data-name="Ebene 1" xmlns="http://www.w3.org/2000/svg" viewBox="0 0 700 150"><path fill="#d7ffff" d="M0 0h700v150H0z"/><path d="M33.86 94.66h5.21L38 99.7H21.68l1.09-5H28l31.9-52.12h8.48l9 52.08h5.21l-1.09 5H64.6l1.09-5h5.12l-2.68-15.54H43.35zm33.43-20.58l-4.62-26.46-16.21 26.46zM119.46 66.1h-6.72a5.52 5.52 0 0 0-3.28.67 4.13 4.13 0 0 0-1.34 2.6l-.42 2.18h-6l.5-2.18c.5-2.44 1.26-5 3.44-6.64 2.35-1.68 5.46-1.68 8.23-1.68h6.8c3.44 0 7.39 0 9.41 2a5 5 0 0 1 1.34 3.78 20.17 20.17 0 0 1-.59 4.37c-1.68 7.81-3.53 15.62-5.21 23.44h5.88l-1.09 5h-25.56c-3 0-6.3 0-8.06-1.76a4.44 4.44 0 0 1-1.09-3.28c0-3 1.09-6 1.6-8.74s1.34-5.38 3.7-7.06c2.52-1.76 5.8-1.76 8.82-1.76h13.61c.42-1.93.92-3.95 1.34-5.88A10.26 10.26 0 0 0 125 69c0-2.82-2.85-2.9-5.54-2.9zm-13.52 28.56h13.61l2.77-12.52h-13.61a6.54 6.54 0 0 0-3.78.76 4.67 4.67 0 0 0-1.6 3c-.34 1.68-.76 3.28-1.09 5a10.5 10.5 0 0 0-.25 1.6c.01 1.99 2.01 2.16 3.95 2.16zM189.2 71.47a5.14 5.14 0 0 1 1.68 4.28 19.49 19.49 0 0 1-.5 3.7c-.67 2.94-1.26 6-1.93 8.9-.76 3.44-1.85 7.06-5 9.07C180 99.7 175.17 99.7 171 99.7h-26.91l1.09-5h5.21l10.33-47h-5.21l1.18-5h26.38c4 0 8.65 0 11 2.1a5.45 5.45 0 0 1 1.6 4.28 19.44 19.44 0 0 1-.59 4.28c-.59 2.69-1.18 5.29-1.76 8-.59 2.86-1.85 5.88-4.54 7.39a12.76 12.76 0 0 1-3.53 1.25 9.25 9.25 0 0 1 3.95 1.47zm-12.26 1h-15L157 94.66h15c2.35 0 5 0 7-1.26 1.76-1.18 2.35-3.11 2.77-5 .67-2.94 1.26-6 1.93-8.9a13.37 13.37 0 0 0 .5-3c.04-3.85-3.74-4.02-7.26-4.02zm5-24.86h-14.58L163 67.44h15.37c1.93 0 4.12-.08 5.71-1.18s2.18-3.19 2.6-5c.59-2.69 1.18-5.29 1.76-8a10.58 10.58 0 0 0 .34-2.27c0-3.37-3.61-3.37-6.78-3.37zM235.34 61.06c3.53 0 7.22.08 9 2.69a7.55 7.55 0 0 1 1.09 4.12 32.77 32.77 0 0 1-1.09 6.8c-.84 3.78-1.68 7.64-2.52 11.42S240 94.32 237 97c-2.86 2.6-6.64 2.69-10.16 2.69h-25.77l1.09-5H208l11.3-51.27h-5.88l1.18-5h11.84l-5 22.68zm-7.39 33.6c1.85 0 3.86-.25 5.21-1.68 1.6-1.68 2.18-4.54 2.69-6.89.84-3.78 1.68-7.64 2.52-11.42A22.69 22.69 0 0 0 239 70a5.62 5.62 0 0 0-.42-2.18c-.67-1.43-2.52-1.68-4.37-1.68h-13.82l-6.3 28.56zM295.83 47.62h-11.51c-2.94 0-6.13.5-8.23 2.86-2.52 2.86-3.53 7.31-4.37 11.26-1.34 6.3-2.86 12.52-4.2 18.82a37.48 37.48 0 0 0-1.18 7.81 9 9 0 0 0 .59 3.44c1.07 2.34 4.07 2.85 7.07 2.85h11.5c2.18 0 4.54 0 6.38-1.43s2.27-3.7 2.77-5.8l1.09-4.87h6.55l-1 4.87c-.76 3.61-1.85 7.48-5 9.83-3.36 2.44-7.9 2.44-11.93 2.44H272.9c-4.79 0-9.83-.25-12.1-3.86a10.07 10.07 0 0 1-1.34-5.54 49.65 49.65 0 0 1 1.43-9.74c1.34-6.3 2.86-12.52 4.2-18.82 1.18-5.38 2.44-11.42 6.55-15.29 3.86-3.61 9.07-3.86 13.86-3.86h11.42c4 0 8.57 0 10.84 2.44a6.32 6.32 0 0 1 1.43 4.45 24.37 24.37 0 0 1-.76 5.38l-1.09 4.87h-6.64l1.09-4.87a15.49 15.49 0 0 0 .5-3.36c.01-3.63-3.19-3.88-6.46-3.88zM343.12 66.1h-7.81c-2 0-4.2.08-5.8 1.68-1.76 1.68-2.35 4.45-2.86 6.89-.84 3.78-1.6 7.64-2.44 11.42a21.19 21.19 0 0 0-.67 4.45 5.49 5.49 0 0 0 .5 2.44c.92 1.6 2.94 1.68 5 1.68h7.81a7.69 7.69 0 0 0 4.12-.76 4.79 4.79 0 0 0 1.68-3.19l.59-2.6h6l-.5 2.6c-.59 2.69-1.34 5.54-3.78 7.22-2.6 1.76-6 1.76-9.16 1.76h-7.81c-3.7 0-7.64 0-9.58-2.69a7.31 7.31 0 0 1-1.18-4.28 31 31 0 0 1 1-6.64c.84-3.78 1.68-7.64 2.52-11.42s1.85-8.23 5-10.92 7.06-2.69 10.75-2.69h7.81c3.11 0 6.64 0 8.4 1.76a4.65 4.65 0 0 1 1.09 3.36 20.31 20.31 0 0 1-.5 3.86l-.59 2.6h-6l.59-2.6a13.6 13.6 0 0 0 .25-1.68c-.15-2.17-2.33-2.25-4.43-2.25zM360.76 99.7l1.18-5h6.47l10.33-47h-6.47l1.09-5h32c4.79 0 9.83.25 12.1 3.86A10.07 10.07 0 0 1 418.8 52a49.58 49.58 0 0 1-1.43 9.74c-1.34 6.3-2.86 12.52-4.2 18.82-1.17 5.36-2.51 11.44-6.55 15.27-3.86 3.61-9 3.86-13.78 3.86zm33.18-5c2.94 0 6.13-.5 8.23-2.86 2.52-2.86 3.61-7.31 4.45-11.26 1.34-6.3 2.77-12.52 4.12-18.82a38.24 38.24 0 0 0 1.18-7.9 8.56 8.56 0 0 0-.59-3.36c-1.09-2.35-4.12-2.86-7.06-2.86h-18.9L375 94.66zM439 99.7c-3.53 0-7.22-.08-9-2.69a7.5 7.5 0 0 1-1-4.12 32.52 32.52 0 0 1 1-6.8c.84-3.78 1.68-7.64 2.52-11.42s1.76-8.23 4.79-10.92c2.86-2.6 6.63-2.69 10.16-2.69h13.94l3.86-17.64h-5.88l1.09-5h11.93L460 94.66h5.88l-1.09 5zm7.39-33.6c-1.85 0-3.78.25-5.12 1.68-1.6 1.68-2.27 4.54-2.77 6.89-.84 3.78-1.6 7.64-2.44 11.42a22.87 22.87 0 0 0-.76 4.7 5.62 5.62 0 0 0 .42 2.18c.67 1.43 2.52 1.68 4.37 1.68h13.94l6.22-28.56zM498.51 67.44h21.76l-1.09 5h-21.76l-4.87 22.18h23.52l1.43-6.47h6.64c-.67 3-1.34 6-2 9l-.5 2.52h-43.37l1.18-5h6.47l10.33-47h-6.47l1.09-5h41.58c-.34 1.68-.76 3.36-1.09 5l-1.26 5.8h-6.64l1.26-5.8h-21.84zM546.33 82.14l-1.09 5a21.57 21.57 0 0 0-.59 3.86 4.42 4.42 0 0 0 .5 2.18c.84 1.43 2.77 1.51 4.62 1.51h8.32c3 0 6.3-.08 6.8-2.77l.42-1.85h6l-.34 1.85c-.5 2.44-1.6 5-3.87 6.22-2.77 1.6-6.8 1.6-10.16 1.6h-8.23c-3.53 0-7.31 0-9.24-2.52a6.53 6.53 0 0 1-1.18-4 31.08 31.08 0 0 1 .92-6c.84-3.78 1.68-7.64 2.52-11.42.92-4.12 1.93-8.74 5-11.68 2.86-2.77 6.8-2.94 10.42-2.94h8.32c3.61 0 7.39.17 9.07 2.94a7.61 7.61 0 0 1 1 4.2 39.2 39.2 0 0 1-1.09 7.48L573 82.14zm21.84-5l.25-1.43a24.62 24.62 0 0 0 .84-5.38 6.44 6.44 0 0 0-.34-2.27c-.67-1.6-2.69-1.93-4.62-1.93h-8.23c-1.93 0-4 .34-5.37 1.93-1.68 1.93-2.35 5-2.94 7.64l-.34 1.43zM603.38 69.79h22.09l-1.09 5h-22.09l-4.37 19.82h6.47l-1.18 5h-19.57l1.18-5h6.47l10.33-47h-6.47l1.09-5h41.58c-.76 3.61-1.6 7.22-2.35 10.84h-6.64l1.26-5.8h-21.84zM668.13 43.42c-1.93 0-4 .08-5.54 1.6-1.68 1.6-2.18 4.12-2.69 6.38-.67 3.19-1.43 6.47-2.1 9.66h8.2l-1.09 5h-8.23l-6.3 28.56h6.47l-1.09 5H638l1.09-5h5.29l6.3-28.56h-6.89l1.09-5h6.89c.67-3.19 1.43-6.47 2.1-9.66.84-3.7 1.68-7.81 4.79-10.42s7-2.6 10.58-2.6h7.06l-1.09 5z"/></svg>