<svg xmlns="http://www.w3.org/2000/svg" viewBox="0 0 700 500"><defs><style>.cls-3{mix-blend-mode:multiply}</style></defs><g style="isolation:isolate"><path fill="#d7ffff" d="M0 0h700v500H0z" id="Ebene_2" data-name="Ebene 2"/><g id="Ebene_1" data-name="Ebene 1"><g class="cls-3"><path d="M198.38 54.87h14.42l26.74 93.8L266 56.27h-16v-1.4h33.5v1.4h-16.1l-26.74 93.8h-15.12l-24.36-85.54-24.5 85.54h-15l-26.88-93.8h-16v-1.4h46.4v1.4h-16l26.46 92.4L200.48 62zM346 144.47l-5.6 5.6h-50.78l-5.6-5.6v-58.8l5.6-5.6h50.82l5.6 5.6zm-12.6-63h-36.78v67.2h36.82zM412.92 81.47h-20.3v67.2h20v1.4h-50.8v-1.4H380v-67.2h-18.2v-1.4h58.1l5.6 5.6v15.4h-12.6zM449.75 35.27h-18.2v-1.4h30.8v114.8h18.2v1.4h-49v-1.4h18.2zM501.86 150.07l-5.6-5.6v-58.8l5.6-5.6h40.88v-44.8h-18.2v-1.4h30.8v114.8h18.2v1.4zm7-68.6v67.2h33.88v-67.2z"/></g><g class="cls-3"><path d="M240.5 210.27h-48.3v78.4h48.3v-20.16h10.78v20.86l-7.7 7.7h-54.46l-7.7-7.7v-79.8l7.7-7.7h54.46l7.7 7.7v20.86H240.5zM319.09 232.67h9.1l-40.6 92.4h-9.1l12.32-28-28.42-64.4h10.78l23 52.22zM341.25 194.87h9.8v37.8h36.12l7.28 7.28v49.84l-7.28 7.28h-45.92zm43.4 93.8v-47.6h-33.6v47.6zM418.45 267.81v20.86h35V281h9.8v8.82l-7.25 7.25h-40l-7.28-7.28v-49.84l7.28-7.28h40l7.28 7.28v27.86zm35-8.4v-18.34h-35v18.34zM478.07 232.67h33.32l7.28 7.28v12h-9.8v-10.88h-21v56h-9.8z"/></g><g class="cls-3"><path d="M174 425.67h9.94v15.4h-36.59v-15.4h9.8l34.72-79.8h18.06l34.72 79.8h9.8v15.4H228v-15.4h9.94l-8.26-18.9h-47.47zm49-34.3L205.87 352l-17.08 39.34zM301.29 386.47h-17.78v39.2h12.32v15.4h-29.12v-15.4h11.2v-39.2h-11.2v-15.4h33.74c5 0 10.36 1 13.86 4.62s4.34 9.38 4.34 14.7v1.68h-5.6v-1.68c0-3.78-7.56-3.92-11.76-3.92zM370.64 425.67c4.76 0 10.78-.14 10.78-1.4v-.7H387v.7c0 4.9-1.26 9.8-5 12.74-4.48 3.5-10.5 4.06-16.24 4.06h-14c-6 0-12.32-1.4-16.24-5.88-4.34-5-5-12-5-18.76v-12c0-8.82.28-17.92 5-25.34 3.5-5.32 9.8-8 16.24-8h14c6.44 0 12.74 2.66 16.24 8 4.76 7.42 5 16.52 5 25.34v8h-51v4.06a8.16 8.16 0 0 0 3.78 7c3.5 2.1 7.84 2.24 11.9 2.24zM380.72 397a14.78 14.78 0 0 0-2.94-6.16c-2.94-3.36-7.56-4.34-12-4.34h-14c-4.48 0-9 1-11.9 4.34a15 15 0 0 0-3.08 6.16zM445.76 371.07c6.16 0 12.32 2.1 15.82 7 4.48 6.3 4.9 14.28 4.9 22v25.62h11.2v15.4h-29.12v-15.4h12.32V400c0-3.78-.84-7.84-3.64-10.36-3.08-2.8-7.28-3.22-11.48-3.22h-28.7v39.2h12.32v15.4h-29.12v-15.4h11.2v-39.2h-11.2v-15.4zM508.65 386.47c-3.92 0-10.78.14-10.78 3.64v1.68h-5.6v-1.68c0-5.18.7-10.64 4.2-14.42 3.22-3.64 8.12-4.62 13-4.62h12c5.74 0 11.76 1 15.68 5.18s4.9 10.5 4.9 16.52v32.9h11.2v15.4h-44.32c-5.18 0-10.64-1-14.14-4.76-3.78-4.06-4.48-9.8-4.48-15.26V417c0-5.46.7-11.2 4.48-15.26 3.5-3.78 9-4.76 14.14-4.76h27.58v-4.2c0-6-9.38-6.3-15-6.3zm.28 39.2h27.58v-13.3h-27.58c-4.34 0-13.16 0-13.16 4.62V421c0 4.67 8.82 4.67 13.16 4.67z"/></g></g></g></svg>