<svg data-name="Ebene 1" xmlns="http://www.w3.org/2000/svg" viewBox="0 0 700 150"><path fill="#d7ffff" d="M0 0h700v150H0z"/><path d="M24 98.86h9.58v.84H13.5v-.84h9.58L46 42.58h9.24l22.85 56.28h9.66v.84H59.53v-.84h9.66l-8.07-19.74H32.06zm36.79-20.58l-14.2-34.86L32.4 78.28zM97.94 99.7l-3.36-3.36V80.8l3.36-3.36h22.68v-18.9h-17.14v9.41h-7.56v-6.89l3.36-3.36h25.54l3.36 3.36v37.8h10.92v.84zm4.2-21.42v20.58h18.48V78.28zM194.32 69.88l3.53 3.53V96l-3.7 3.7h-46.62v-.84h9.66V43.42h-9.66v-.84h45.36l3.7 3.7v20.24l-3.36 3.36zm-6-.34V43.42h-22.89v26.12zm1.26 29.32V70.38h-24.15v28.48zM249.6 57.7l3.4 3.36v35.28l-3.4 3.36h-43v-.84h10.92v-68h-10.93V30h18.48v27.7zm-4.2 41.16V58.54h-20.33v40.32zM300.8 43.42h-28.9v55.44h28.9v-16.3h8.32V96l-3.7 3.7h-38.14l-3.7-3.7V46.27l3.7-3.7h38.14l3.7 3.7v13.44h-8.32zM346.12 58.54h-19.23v40.32h19.24V87.1h7.56v9.24l-3.36 3.36h-27.64l-3.36-3.36V61.06l3.36-3.36h27.64l3.36 3.36v9.24h-7.56zM362.19 99.7v-.84h12.1V43.42h-12.1v-.84h54.43l3.7 3.7V96l-3.7 3.7zm49.81-.84V43.42h-29.48v55.44zM434.36 99.7L431 96.34V61.06l3.36-3.36h24.53V30.82H448V30h18.48v68.86h10.92v.84zm4.2-41.16v40.32h20.33V58.54zM505.37 69.54h22.85v.84h-22.85v28.48h23.52v-12h8.32V99.7H485v-.84h12.1V43.42H485v-.84h50.32v11.67H527V43.42h-21.63zM554.33 78.28v20.58h21.25V89.2h7.56v7.14l-3.36 3.36h-29.65l-3.36-3.36V61.06l3.36-3.36h29.65l3.36 3.36v17.22zm21.25-.84v-18.9h-21.25v18.9zM612 71.89h23.18v.84H612v26.13h12.1v.84h-32.45v-.84h12.1V43.42h-12.1v-.84H642v11.67h-8.32V43.42H612zM665.58 30.82V57.7h9.24v.84h-9.24v40.32h12v.84h-29.4v-.84H658V58.54h-7.73v-.84H658V33.34l3.38-3.34h19v.84z"/></svg>