<svg data-name="Ebene 1" xmlns="http://www.w3.org/2000/svg" viewBox="0 0 700 150"><path fill="#d7ffff" d="M0 0h700v150H0z"/><path d="M34.88 92.14h5.21v7.56H21.6v-7.56h5.21L46 42.58h12.14L77.3 92.14h5.12v7.56H62.18v-7.56h5.21l-5-13H39.92zM59.4 71.56l-8.23-21.42-8.31 21.42zM107.93 99.7c-3.36 0-7.22 0-9.58-2S96 92.56 96 89.53V86c0-3 .08-6.22 2.35-8.15s6.22-2 9.58-2h12.43v-3.62a3.29 3.29 0 0 0-1.26-2.86c-1.18-.76-3.11-.76-4.79-.76h-5.88a3.79 3.79 0 0 0-2.18.42 2.12 2.12 0 0 0-.5 1.76v1.43h-8.4V70.8c0-2.86.08-6 2.18-7.81 2.27-1.93 5.71-1.93 8.9-1.93h5.88c4 0 8.65 0 11.51 2.27 2.6 2 2.94 5.54 2.94 8.9v19.91h5.88v7.56zm0-16.3a5.14 5.14 0 0 0-2.86.5 2.66 2.66 0 0 0-.67 2.1v3.53a2.66 2.66 0 0 0 .67 2.1 5.14 5.14 0 0 0 2.86.5h12.43V83.4zM189.44 71.31c2.77 1.68 3.44 5.12 3.44 8.4v7.39c0 3.78-.42 7.9-3.44 10.08-3.44 2.52-9 2.52-13.78 2.52h-27.38v-7.56h5.21v-42h-5.21v-7.56h26.88c4.62 0 10 0 13.27 2.35 2.86 2.1 3.28 6 3.28 9.58V61c0 3.11-.67 6.3-3.28 7.81a10 10 0 0 1-2.77 1.09 12.63 12.63 0 0 1 3.78 1.41zM176 66.18c1.85 0 3.78-.08 5-1s1.43-2.6 1.43-4.2v-6.47c0-1.34-.25-2.86-1.43-3.53-1.43-.84-3.86-.84-5.88-.84h-12.39v16zm-.34 26c2.18 0 4.79 0 6.38-1 1.34-.84 1.6-2.44 1.6-4v-7.47c0-1.76-.17-3.61-1.6-4.7-1.6-1.18-4.12-1.26-6.38-1.26h-12.93v18.4zM233.6 61.06c3.95 0 8.23.08 10.92 2.94s2.77 7.48 2.77 11.68v9.41c0 4.2 0 8.74-2.77 11.68s-7 2.94-10.92 2.94H207v-7.57h5.88v-46.2H207v-7.56h14.28v22.68zm0 31.08c1.6 0 3.28-.17 4.2-1.43 1.09-1.43 1.09-3.7 1.09-5.63v-9.41c0-1.93 0-4.2-1.09-5.63-.92-1.26-2.6-1.43-4.2-1.43h-12.35v23.53zM295.94 55.85c0-1.68 0-3.36-1.18-4.54s-3.11-1.18-4.87-1.18H280c-2.69 0-5.54.34-7.06 2.52-1.76 2.52-1.76 6.55-1.76 10.08v16.8c0 3.53 0 7.56 1.76 10.08 1.51 2.18 4.37 2.52 7.06 2.52h9.91c1.76 0 3.7 0 4.87-1.18s1.18-2.86 1.18-4.54v-3.85h9.24v3.86c0 3.86-.08 8.06-3 10.58-3 2.69-7.9 2.69-12.26 2.69H280c-5.29 0-10.92-.17-14.45-4-3.61-4-3.61-10.42-3.61-16.13V62.74c0-5.71 0-12.1 3.61-16.13 3.53-3.86 9.16-4 14.45-4h9.91c4.37 0 9.24 0 12.26 2.69 2.94 2.52 3 6.72 3 10.58v3.86h-9.24zM344 71.05a2.22 2.22 0 0 0-.67-1.93 5.14 5.14 0 0 0-2.86-.5H334c-1.76 0-3.61.08-4.79 1.43S328 73.66 328 75.67v9.41c0 2 .08 4.2 1.26 5.63s3 1.43 4.79 1.43h6.38a5.14 5.14 0 0 0 2.86-.5 2.22 2.22 0 0 0 .71-1.94v-1.6h8.4v1.6c0 2.94-.08 6.13-2.35 8-2.35 2-6.22 2-9.58 2H334c-4.2 0-8.65 0-11.51-2.94s-2.94-7.48-2.94-11.68v-9.41c0-4.2.08-8.74 2.94-11.68s7.31-2.94 11.51-2.94h6.38c3.36 0 7.22 0 9.58 2 2.27 1.85 2.35 5 2.35 8v1.6H344zM366.22 99.7v-7.56h6.55v-42h-6.55v-7.56h32.59c5.38 0 11.09.08 14.7 4s3.7 10.42 3.7 16.13v16.8c0 5.71 0 12.1-3.7 16.13s-9.32 4-14.7 4zm32.59-7.56c2.77 0 5.71-.34 7.31-2.52C408 87.1 408 83.07 408 79.54v-16.8c0-3.53 0-7.56-1.85-10.08-1.6-2.18-4.54-2.52-7.31-2.52H382v42zM445.61 99.7c-3.95 0-8.23-.08-10.92-2.94s-2.77-7.48-2.77-11.68v-9.41c0-4.2 0-8.74 2.77-11.68s7-2.94 10.92-2.94H458V45.94h-5.88v-7.56h14.28v53.76h5.88v7.56zm0-31.08c-1.6 0-3.28.17-4.2 1.43-1.09 1.43-1.09 3.7-1.09 5.63v9.41c0 1.93 0 4.2 1.09 5.63.92 1.26 2.6 1.43 4.2 1.43H458V68.62zM501.41 66.18h20.5v7.56h-20.5v18.4h19.66v-6.47h9.24v14h-44.69v-7.53h6.55v-42h-6.55v-7.56h43v13.35h-9.24v-5.8h-18zM567.16 92.14c1.85 0 3.95-.08 3.95-1.26V90h8.4v.84c0 2.69-.5 5.63-2.77 7.06-2.77 1.76-7.31 1.76-11.17 1.76h-7.39c-3.95 0-8.4 0-11.17-2.52s-2.77-6.64-2.77-10.33v-9.37c0-4.62 0-9.83 2.77-13.1 2.6-3.11 7.06-3.28 11.17-3.28h7.39c4.12 0 8.57.17 11.17 3.28 2.77 3.28 2.77 8.48 2.77 13.1v6h-26.88v3.44c0 1.51 0 3.28 1.09 4.28s2.86 1 4.45 1zm3.95-16.3a10.94 10.94 0 0 0-1.11-5.46c-.92-1.43-2.77-1.76-4.45-1.76h-7.39c-1.68 0-3.53.34-4.45 1.76a11 11 0 0 0-1.09 5.46zM609.17 68.53H630v7.56h-20.83v16h6.47v7.61h-22.26v-7.56h6.55v-42h-6.55v-7.56h43v13.35h-9.24v-5.8h-18zM669.3 45.94c-1.85 0-3.86 0-5.21 1.26s-1.34 3.36-1.34 5.21v8.65h9.07v7.56h-9.07v23.52h6.47v7.56h-20.17v-7.56h5.29V68.62h-7.56v-7.56h7.56v-8.65c0-4.12.08-8.48 3-11.26s7.64-2.77 11.93-2.77h7.39v7.56z"/></svg>