<svg data-name="Ebene 1" xmlns="http://www.w3.org/2000/svg" viewBox="0 0 700 150"><path fill="#d7ffff" d="M0 0h700v150H0z"/><path d="M38.31 92.14h5.12l-1.67 7.56H22.6l1.68-7.56h5.12l30-49.56h12.43L80 92.14h5.1l-1.6 7.56H63.76l1.68-7.56h5.12l-2.1-13H46.12zm28.9-20.58l-3.53-21.42-12.94 21.42zM120.18 68.62H114a3.79 3.79 0 0 0-2.18.42 2.7 2.7 0 0 0-.84 1.76l-.34 1.43H102l.25-1.43c.59-2.86 1.43-6 3.95-7.81 2.69-1.93 6.22-1.93 9.41-1.93h5.71c4 0 8.74 0 11.17 2.27a5.52 5.52 0 0 1 1.51 4.28 22.46 22.46 0 0 1-.59 4.62c-1.43 6.64-2.94 13.27-4.37 19.91H135l-1.68 7.56h-26.67c-3.36 0-7.22 0-9.16-2a5.22 5.22 0 0 1-1.25-3.7 21.16 21.16 0 0 1 .67-4.45c1-4.45 1.34-9.07 5-11.68 2.86-2 6.64-2 10-2H124c.25-1.18.5-2.44.76-3.61A6.49 6.49 0 0 0 125 71c0-2.3-2.47-2.38-4.82-2.38zm-10 14.78a5.13 5.13 0 0 0-2.77.5 3.15 3.15 0 0 0-1.18 2.1l-.76 3.53a2.26 2.26 0 0 0 .25 2.1 4 4 0 0 0 2.52.5h12.18l1.93-8.74zM192.12 71.31a5.67 5.67 0 0 1 2.1 4.87 16.87 16.87 0 0 1-.42 3.53c-.5 2.44-1.18 5-1.68 7.39-.84 3.78-2.18 7.9-5.71 10.08-4 2.52-9.58 2.52-14.45 2.52h-27.21l1.68-7.56h5.12l9.24-42h-5.12l1.68-7.56h26.71c4.62 0 10.08 0 12.85 2.35a6.4 6.4 0 0 1 1.85 5 22.46 22.46 0 0 1-.59 4.62c-1.26 5.63-1.76 11.76-6.55 14.28a11.75 11.75 0 0 1-3 1.09 10.35 10.35 0 0 1 3.5 1.39zm-14.45 2.44h-12.6l-4 18.4h12.6c2.18 0 4.7 0 6.55-1a5.65 5.65 0 0 0 2.52-4c.5-2.44 1.09-5 1.6-7.39a12.17 12.17 0 0 0 .34-2.35c-.03-3.5-3.73-3.67-7.01-3.67zm5.63-23.6h-13l-3.53 16h12.94c1.85 0 3.78-.08 5.21-1s2-2.6 2.35-4.2c.5-2.18.92-4.28 1.43-6.47a9.25 9.25 0 0 0 .17-1.51c-.02-2.66-2.87-2.83-5.57-2.83zM237.21 61.06c4 0 8.32.08 10.42 2.94a7.61 7.61 0 0 1 1.18 4.62 34.83 34.83 0 0 1-1 7.06c-.67 3.11-1.43 6.3-2.1 9.41-.92 4.2-1.93 8.74-5.29 11.68s-7.64 2.94-11.68 2.94h-26.56l1.68-7.56h5.88l10.16-46.2H214l1.68-7.56h14.45l-5 22.68zm-6.8 31.08c1.6 0 3.28-.17 4.45-1.43 1.34-1.43 1.85-3.7 2.27-5.63.67-3.11 1.34-6.3 2-9.41a20.7 20.7 0 0 0 .59-3.78 4.27 4.27 0 0 0-.32-1.89c-.67-1.26-2.27-1.43-3.86-1.43h-12l-5.21 23.52zM296.38 50.14h-9.74c-2.69 0-5.54.34-7.48 2.52-2.27 2.52-3.19 6.55-3.95 10.08-1.26 5.63-2.44 11.17-3.7 16.8a34.32 34.32 0 0 0-1.09 7 7.33 7.33 0 0 0 .59 3.11c1 2.18 3.7 2.52 6.38 2.52h9.74c1.68 0 3.53 0 5-1.18s1.85-2.86 2.18-4.54l.84-3.86h9.49l-.84 3.86c-.84 3.86-2 8.06-5.46 10.58-3.61 2.69-8.48 2.69-12.85 2.69h-9.69c-5.29 0-11-.08-13.69-4a10.46 10.46 0 0 1-1.6-6.13 46.47 46.47 0 0 1 1.51-10c1.26-5.63 2.44-11.17 3.7-16.8s2.69-12.1 7.22-16.13c4.37-3.95 10.08-4 15.37-4h9.74c4.37 0 9.16 0 11.68 2.69a6.55 6.55 0 0 1 1.6 4.7 29.19 29.19 0 0 1-.84 5.88l-.84 3.86h-9.49l.84-3.86a16.15 16.15 0 0 0 .42-2.69c0-2.85-2.52-3.1-5.04-3.1zM331 92.14h6.22a5.43 5.43 0 0 0 2.86-.5 2.83 2.83 0 0 0 1.09-1.93l.34-1.6H350l-.34 1.6c-.67 2.94-1.43 6.13-4.12 8-2.86 2-6.64 2-10 2h-6.22c-4.2 0-8.74 0-11-2.94a7.87 7.87 0 0 1-1.39-4.77 33.53 33.53 0 0 1 1.07-6.92c.67-3.11 1.34-6.3 2-9.41 1-4.2 2-8.73 5.5-11.67s8.15-2.94 12.35-2.94h6.22c3.36 0 7.22 0 9.16 2a4.84 4.84 0 0 1 1.18 3.61 20.18 20.18 0 0 1-.59 4.37l-.34 1.6h-8.58l.34-1.6c.17-.76.25-1.51-.25-1.93a4.28 4.28 0 0 0-2.6-.5h-6.22c-1.76 0-3.61.08-5 1.43s-2 3.61-2.44 5.63c-.67 3.11-1.43 6.3-2.1 9.41a18.67 18.67 0 0 0-.5 3.61c-.05 3.03 2.05 3.45 4.87 3.45zM359.38 99.7l1.68-7.56h6.47l9.24-42h-6.47l1.7-7.56h32.4c5.38 0 11.17.08 13.94 4a11 11 0 0 1 1.66 6.25 46.47 46.47 0 0 1-1.51 9.91c-1.26 5.63-2.44 11.17-3.7 16.8s-2.6 12.1-7.22 16.13-10.42 4-15.79 4zm34.1-7.56c2.77 0 5.71-.34 7.81-2.52 2.35-2.52 3.28-6.55 4-10.08 1.26-5.63 2.44-11.17 3.7-16.8a33.68 33.68 0 0 0 1.09-6.8 8.15 8.15 0 0 0-.67-3.28c-1.09-2.18-3.95-2.52-6.72-2.52h-16.43l-9.24 42zM439.49 99.7c-4 0-8.23-.08-10.33-2.94a7.65 7.65 0 0 1-1.26-4.62 35.1 35.1 0 0 1 1.1-7.06c.67-3.11 1.34-6.3 2-9.41.92-4.2 2-8.74 5.38-11.68s7.56-2.94 11.59-2.94h12.1l3.28-15.12h-5.88l1.68-7.56h14.53l-11.85 53.77h5.88L466 99.7zm6.89-31.08c-1.6 0-3.28.17-4.45 1.43-1.34 1.43-1.85 3.7-2.27 5.63-.67 3.11-1.43 6.3-2.1 9.41a20.7 20.7 0 0 0-.59 3.78 4.28 4.28 0 0 0 .34 1.85c.67 1.26 2.27 1.43 3.86 1.43h12l5.21-23.52zM500.59 66.18h20.33l-1.6 7.56h-20.41l-4 18.4h19.24l1.43-6.47H525l-3.11 14h-44.65l1.68-7.56h6.47l9.24-42h-6.47l1.68-7.56h43c-1 4.45-1.93 8.9-2.94 13.36h-9.49l1.34-5.8h-17.63zM550.31 92.14h8.9c1.76 0 3.78-.08 4-1.26l.17-.84H572l-.17.84c-.59 2.77-1.76 5.63-4.37 7.06-3.19 1.76-7.73 1.76-11.59 1.76h-7.22c-4 0-8.4 0-10.67-2.52a6.69 6.69 0 0 1-1.34-4.45 29.19 29.19 0 0 1 .84-5.88c.67-3.11 1.34-6.3 2-9.41 1-4.62 2.18-9.83 5.71-13.1 3.36-3.11 7.81-3.28 11.93-3.28h7.22c4.12 0 8.57.17 10.5 3.28a9.12 9.12 0 0 1 1.16 4.87 41.68 41.68 0 0 1-1.26 8.23l-1.26 6h-26.7l-.78 3.41a13.89 13.89 0 0 0-.34 2.52c.03 2.63 2.34 2.77 4.65 2.77zm16.21-16.3a17.55 17.55 0 0 0 .42-3.53 4.7 4.7 0 0 0-.25-1.93c-.59-1.43-2.27-1.76-3.95-1.76h-7.22c-1.68 0-3.61.34-4.79 1.76s-1.76 3.44-2.27 5.46zM604.9 68.53h20.66L624 76.09h-20.78l-3.53 16h6.47l-1.68 7.56h-22.43l1.68-7.56h6.47l9.24-42H593l1.68-7.56h43c-1 4.45-1.93 8.9-2.94 13.36h-9.49l1.26-5.8h-17.58zM668.69 45.94c-1.85 0-3.86 0-5.46 1.26s-2 3.36-2.44 5.21c-.67 2.86-1.18 5.8-1.85 8.65h9l-1.68 7.56h-9l-5.21 23.52h6.47l-1.68 7.56h-20.32l1.68-7.56h5.29l5.12-23.52h-7.48l1.68-7.56h7.48c.67-2.86 1.26-5.8 1.93-8.65.92-4.12 1.85-8.48 5.46-11.26s8.4-2.77 12.68-2.77h7.22l-1.68 7.56z"/></svg>