<svg data-name="Ebene 1" xmlns="http://www.w3.org/2000/svg" viewBox="0 0 700 150"><path fill="#d7ffff" d="M0 0h700v150H0z"/><path d="M24 98.86h9.66v.84H13.5v-.84h9.58l23.85-56.28h9.24L80 98.86h9.6v.84H61.38v-.84H71l-8.36-19.74H32.4zm38.22-20.58l-14.7-34.86-14.79 34.86zM107 99.7c-3.44 0-8.48-.08-10.08-.92s-1.6-3.28-1.6-5.38V83.32c0-2.1 0-4.62 1.6-5.46S103.56 77 107 77h15.37V65.09c0-2.18 0-5.38-.84-6.38s-3.36-1-5.21-1h-8.74c-1.09 0-2.35 0-2.86.67s-.5 2.86-.5 4.37v4.62h-7.55v-4.63c0-1.93.08-4.2 1.6-5s6.13-.84 9.32-.84h8.74c4 0 9.74 0 11.68 1.18s1.93 4.37 1.93 7.06v33.72h10.92v.84zm0-21.84c-1.26 0-2.94 0-3.53.76s-.59 3.11-.59 4.7V93.4c0 1.6 0 3.95.59 4.7s2.27.76 3.53.76h15.37v-21zM197.19 71.05c2.27 1.09 2.27 4.12 2.27 6.8v13.61c0 2.77 0 5.88-2.27 7.06s-9.24 1.18-14 1.18H148v-.84h9.66V43.42H148v-.84h34.61c4.54 0 11.26 0 13.44 1.09s2.18 3.95 2.18 6.47v12.6c0 2.52 0 5.29-2.18 6.3-1.18.59-3.78.84-6.55.92 3.23.04 6.34.42 7.69 1.09zm-14.62-1.51c2.18 0 5.29 0 6.3-.92s1-3.78 1-5.88v-12.6c0-2.1 0-4.87-1-5.8s-4.12-.92-6.3-.92h-16.72v26.12zm.59 29.32c2.44 0 5.8 0 6.89-1s1.09-4.12 1.09-6.38V77.86c0-2.27 0-5.38-1.09-6.38s-4.45-1.09-6.89-1.09h-17.3v28.47zM241.28 56.86c3.95 0 9.41 0 11.26 1.6s1.85 6.38 1.85 9.91v19.82c0 3.53 0 8.32-1.85 9.91s-7.31 1.6-11.26 1.6H207v-.84h10.92V36.7H207v-.84h18.48v21zm0 42c1.85 0 4 0 4.79-1.51s.76-6 .76-9.16V68.37c0-3.11 0-7.64-.76-9.16s-2.94-1.51-4.79-1.51h-15.79v41.16zM302.4 51.9c0-2.52-.08-6.13-1-7.31s-3.7-1.18-5.8-1.18H281c-2.94 0-6.47 0-7.73 2S272 53.58 272 57.87v26.54c0 4.28 0 10.42 1.26 12.43s4.79 2 7.73 2h14.61c2.1 0 4.87 0 5.8-1.18s1-4.79 1-7.31v-7.79h8.32v7.81c0 3 0 6.64-2.1 8s-8.57 1.34-13 1.34H281c-5.21 0-12.43 0-14.87-2.1s-2.44-8.48-2.44-13.19V57.87c0-4.7 0-11.09 2.44-13.19s9.66-2.1 14.87-2.1h14.6c4.45 0 10.92 0 13 1.34s2.1 5 2.1 8v7.81h-8.3zM347.49 63.91c0-1.85 0-4.54-.59-5.38s-2.35-.84-3.7-.84h-9.74c-2 0-4.54 0-5.38 1.51s-.92 6-.92 9.16v19.83c0 3.11.08 7.64.92 9.16s3.36 1.51 5.38 1.51h9.74c1.34 0 3.11 0 3.7-.84s.59-3.53.59-5.38v-5.79h7.56v6.38c0 2.1-.08 4.54-1.6 5.46-1.68 1-6.72 1-10.25 1h-9.74c-4.12 0-10 0-11.93-1.6s-1.93-6.3-1.93-9.91V68.37c0-3.61 0-8.32 1.93-9.91s7.81-1.6 11.93-1.6h9.74c3.53 0 8.57 0 10.25 1 1.51.92 1.6 3.36 1.6 5.46v6.38h-7.56zM362.45 99.7v-.84h12.1V43.42h-12.1v-.84h42.08c5.29 0 12.52 0 15 2.1s2.44 8.48 2.44 13.19v26.54c0 4.7 0 11.09-2.44 13.19s-9.66 2.1-15 2.1zm42.08-.84c2.94 0 6.55 0 7.81-2s1.26-8.15 1.26-12.43V57.87c0-4.28 0-10.42-1.26-12.43s-4.87-2-7.81-2h-21.75v55.42zM444.38 99.7c-3.95 0-9.41 0-11.26-1.6s-1.85-6.38-1.85-9.91V68.37c0-3.53 0-8.32 1.85-9.91s7.31-1.6 11.26-1.6h15.79V36.7h-10.92v-.84h18.48v63h10.92v.84zm0-42c-1.85 0-4 0-4.79 1.51s-.76 6-.76 9.16v19.82c0 3.11 0 7.64.76 9.16s2.94 1.51 4.79 1.51h15.79V57.7zM505.33 69.54h23.86v.84h-23.86v28.48h24.86v-12h8.32V99.7H485v-.84h12.1V43.42H485v-.84h51.66v11.67h-8.32V43.42h-23zM554.31 77.86v10.08c0 3.19 0 7.9.84 9.41s3 1.51 5 1.51h10.67c1.76 0 4.2 0 5-.76.67-.67.76-2.1.76-3.53v-5.62h7.56v4.79c0 2-.08 4.28-1.85 5.12s-7.64.84-11.51.84H560.1c-4 0-9.58 0-11.42-1.68s-1.93-6.47-1.93-10.08V68.2c0-3.53.08-8.15 1.93-9.74s7.39-1.6 11.42-1.6h10.67c4 0 9.66 0 11.51 1.6s1.85 6.22 1.85 9.74v9.66zm22.26-.86V66.52c0-2.86-.08-6.22-.76-7.39-.84-1.43-3.11-1.43-5-1.43H560.1c-1.93 0-4.12 0-5 1.43s-.84 6-.84 9.07V77zM611.82 71.89H636v.84h-24.18v26.13h12.1v.84h-32.43v-.84h12.1V43.42h-12.1v-.84h51.66v11.67h-8.32V43.42h-23zM672.25 36.7c-2 0-4.54 0-5.37 1.34s-.92 5.29-.92 8.15v10.67h9.58v.84H666v41.16h12v.84h-29.4v-.84h9.83V57.7h-8v-.84h8V46.19c0-3.28 0-7.48 1.93-8.9s7.81-1.43 11.93-1.43h9v.84z"/></svg>