<svg data-name="Ebene 1" xmlns="http://www.w3.org/2000/svg" viewBox="0 0 700 150"><path fill="#d7ffff" d="M0 0h700v150H0z"/><path d="M30.57 97.18h5.21v2.52H22.67v-2.52h5.21l21.92-54.6h4.62l21.92 54.6h5.21v2.52H67.19v-2.52h5.21l-7.31-18.06h-27.3zM64.08 76.6l-12.6-31.5L38.8 76.6zM92.8 99.7l-2.35-2.35V80.71l2.35-2.35h22V63.58H94.9V71h-3.36v-7.59l2.35-2.35h21.92l2.35 2.35v33.77h5.88v2.52zm1-18.82v16.3h21v-16.3zM171 69.71l2 2.1v25.37l-2.44 2.52h-36.65v-2.52h5.21V45.1h-5.21v-2.52h35.62L172 45.1v23.1l-1.6 1.51zm-2.69-1V45.1h-25.49v23.6zm1 28.48v-26h-26.49v26zM216.26 61.06l2.35 2.35v33.94l-2.35 2.35h-32.93v-2.52h5.88V40.9h-5.88v-2.52h9.24v22.68zm-1 36.12v-33.6h-22.69v33.6zM266.21 45.1h-33.1v52.08h33.1V82.56h3.7v14.62l-2.52 2.52h-35.45l-2.52-2.52V45.1l2.52-2.52h35.45l2.52 2.52v14.61h-3.7zM307.37 63.58h-23.52v33.6h23.52v-9.07h3.36v9.24l-2.35 2.35h-25.54l-2.35-2.35V63.41l2.35-2.35h25.54l2.35 2.35v9.24h-3.36zM320.78 99.7v-2.52h6.55V45.1h-6.55v-2.52h43l2.44 2.52v52.08l-2.44 2.52zm41.75-2.52V45.1H331v52.08zM379.47 99.7l-2.35-2.35V63.41l2.35-2.35h23.69V40.9h-5.88v-2.52h9.24v58.8h5.88v2.52zm1-36.12v33.6h22.68v-33.6zM432.24 68.7h23.27v2.52h-23.27v26h28v-6.51h3.7v9H422v-2.53h6.55V45.1H422v-2.52h40.24v8.32h-3.7v-5.8h-26.3zM477.36 80.88v16.3h23.52V90h3.36v7.31l-2.35 2.35h-25.54L474 97.35V63.41l2.35-2.35h25.54l2.35 2.35v17.47zm23.52-2.52V63.58h-23.52v14.78zM524.53 71.05h23.6v2.52h-23.6v23.6H531v2.53h-16.71v-2.52h6.55V45.1h-6.55v-2.52h40.24v8.32h-3.7v-5.8h-26.3zM570 40.9v20.16h7.56v2.52H570v33.6h6.47v2.52h-15.14v-2.52h5.29v-33.6h-6.3v-2.52h6.3V40.73l2.38-2.35h14.45v2.52zM626 45.1h-34.73v52.08H626V76.51h-14.74V74h18.48v25.7h-39.65l-2.52-2.52V45.1l2.52-2.52h37.13l2.52 2.52v14.61H626zM666.59 114V99.7H642.9l-2.35-2.35V63.41l2.35-2.35h32.93v2.52H670v50.57l-2.35 2.35h-26.26V114zm-22.68-50.4v33.6h22.68V63.58z"/></svg>