<svg data-name="Ebene 1" xmlns="http://www.w3.org/2000/svg" viewBox="0 0 700 150"><path fill="#d7ffff" d="M0 0h700v150H0z"/><path d="M32.26 94.66h5.21v5H21.68v-5h5.21l20.5-52.08h8.4l20.5 52.08h5.21v5H64.18v-5h5.12l-6-15.54H38.4zm29-20.58L50.83 47.62 40.41 74.08zM101.34 99.7L97 95.33V81.47l4.37-4.37h20v-11H104v5.46h-5.85v-6.13l4.37-4.37h20.33l4.37 4.37v29.23h5.88v5zm1.51-17.56v12.52h18.48V82.14zM187.13 69.46l3.78 3.86v21.76l-4.54 4.62h-37.3v-5h5.21v-47h-5.21v-5h36.13l4.62 4.62v19.37L187 69.46zm-3.78-2V47.62h-22.6v19.82zm1.09 27.22v-22.2h-23.68v22.18zM240.83 61.06l4.37 4.37v29.9l-4.37 4.37H207.4v-5h5.88V43.42h-5.88v-5h11.76v22.64zm-1.51 33.6V66.1h-20.16v28.56zM297.53 47.62h-28.9v47h28.9V82.56h6.55v12.52l-4.62 4.62h-32.68l-4.62-4.62V47.2l4.62-4.62h32.68l4.62 4.62v12.51h-6.55zM346.41 66.1h-19.74v28.56h19.74v-6.55h5.88v7.22l-4.37 4.37h-22.76l-4.37-4.37v-29.9l4.37-4.37h22.76l4.37 4.37v7.22h-5.88zM368.51 99.7v-5h6.55v-47h-6.55v-5h43.6l4.62 4.62v47.76l-4.62 4.62zm41.75-5v-47h-28.73v47zM438.12 99.7l-4.37-4.37v-29.9l4.37-4.37h21.68V43.42h-5.88v-5h11.76v56.24h5.88v5zm1.51-33.6v28.56h20.17V66.1zM500.31 67.44h21.92v5h-21.92v22.22h23.86v-6.47h6.47V99.7h-43.35v-5h6.55v-47h-6.55v-5H529v10.71h-6.47v-5.8h-22.22zM552.7 82.14v12.52h21V90h5.88v5.29l-4.37 4.37h-24l-4.37-4.37V65.43l4.37-4.37h24l4.37 4.37v16.71zm21-5v-11h-21v11zM608.82 69.79h22.26v5h-22.26v19.87h6.47v5H595.8v-5h6.55v-47h-6.55v-5h41.66v10.75H631v-5.8h-22.18zM662 43.42v17.64h8.32v5H662v28.6h6.47v5h-17.65v-5h5.29V66.1h-6.89v-5h6.89V42.75l4.37-4.37h15.2v5z"/></svg>