<svg xmlns="http://www.w3.org/2000/svg" viewBox="0 0 700 500"><path fill="#f2f2f2" d="M0 0h700v500H0z" data-name="Ebene 1"/><g data-name="Ebene 2"><path d="M175.73 217a10.09 10.09 0 0 1 7 2.8l20.44 20.44h32.48l17.5-17.5v-38.68l-17.5-17.64h-32.48l-20.44 20.44a9.32 9.32 0 0 1-6.72 2.8 9.82 9.82 0 0 1-9.94-9.66v-70c0-4.2 3.78-9.8 9.66-9.8h87.22a9.8 9.8 0 0 1 0 19.6h-77.42v36.68l6.72-6.72a10.54 10.54 0 0 1 6.86-2.8h40.46a10.22 10.22 0 0 1 6.86 2.8l23.38 23.38a10.53 10.53 0 0 1 2.8 6.86v46.62a10.23 10.23 0 0 1-2.8 6.86l-23.38 23.38a10.73 10.73 0 0 1-6.86 2.94h-40.46a10.33 10.33 0 0 1-6.86-2.94l-23.38-23.38a9.7 9.7 0 0 1 6.86-16.48zM376.88 256.86a10.73 10.73 0 0 1-6.88 2.94h-40.44a10.33 10.33 0 0 1-6.86-2.94l-23.38-23.38a10.54 10.54 0 0 1-2.8-6.86v-93.24a10.22 10.22 0 0 1 2.8-6.86l23.38-23.38a10.73 10.73 0 0 1 6.86-2.94H370a10.33 10.33 0 0 1 6.86 2.94l23.38 23.38a10.54 10.54 0 0 1 2.8 6.86v93.24a10.22 10.22 0 0 1-2.8 6.86zm6.72-119.56l-17.5-17.5h-32.48L316 137.3v85.4l17.64 17.5h32.46l17.5-17.5zM507.33 256.86a10.73 10.73 0 0 1-6.86 2.94H460a10.33 10.33 0 0 1-6.86-2.94l-23.38-23.38a10.54 10.54 0 0 1-2.8-6.86v-93.24a10.22 10.22 0 0 1 2.8-6.86l23.38-23.38a10.73 10.73 0 0 1 6.86-2.94h40.46a10.33 10.33 0 0 1 6.86 2.94l23.38 23.38a10.54 10.54 0 0 1 2.8 6.86v93.24a10.23 10.23 0 0 1-2.8 6.86zm6.72-119.56l-17.5-17.5h-32.48l-17.64 17.5v85.4l17.64 17.5h32.48l17.5-17.5zM49.37 322v7.74h2.11a1.26 1.26 0 0 1 0 2.52h-2.11V340a1.26 1.26 0 0 1-1.24 1.26 1.28 1.28 0 0 1-1.27-1.26v-7.74h-2.09a1.26 1.26 0 1 1 0-2.52h2.09V322a1.28 1.28 0 0 1 1.26-1.26 1.26 1.26 0 0 1 1.25 1.26zM57.73 322v9l.86-.86a1.38 1.38 0 0 1 .88-.38h5.2a1.33 1.33 0 0 1 .88.38l3 3a1.36 1.36 0 0 1 .36.88v6a1.26 1.26 0 0 1-1.24 1.26 1.28 1.28 0 0 1-1.25-1.28v-5.49l-2.27-2.25H60l-2.27 2.25V340a1.28 1.28 0 0 1-1.26 1.26 1.26 1.26 0 0 1-1.25-1.26v-18a1.26 1.26 0 0 1 1.24-1.26 1.28 1.28 0 0 1 1.27 1.26zM85.43 337a1.25 1.25 0 0 1-.36.88l-3 3a1.33 1.33 0 0 1-.88.38H76a1.38 1.38 0 0 1-.88-.38l-3-3a1.33 1.33 0 0 1-.38-.88v-3a1.33 1.33 0 0 1 .38-.88l3-3a1.33 1.33 0 0 1 .88-.38h5.2a1.38 1.38 0 0 1 .88.38l3 3a1.24 1.24 0 0 1-.88 2.13h-10v1.24l2.27 2.25h4.18l2.63-2.63a1.25 1.25 0 0 1 2.12.88zm-4.75-4.74H76.5l-.49.49h5.15zM109.17 335.25a1.26 1.26 0 0 1-.88-.36l-2.63-2.63h-4.18l-1.1 1.1 9.11 2.43a1.25 1.25 0 0 1 .56 2.09l-3 3a1.38 1.38 0 0 1-.88.38H101a1.33 1.33 0 0 1-.88-.38l-3-3a1.25 1.25 0 0 1 1.76-1.76l2.63 2.63h4.18l1.1-1.1-9.11-2.43a1.3 1.3 0 0 1-.92-1.21 1.25 1.25 0 0 1 .36-.88l3-3a1.33 1.33 0 0 1 .88-.38h5.22a1.38 1.38 0 0 1 .88.38l3 3a1.25 1.25 0 0 1-.88 2.13zM126.81 337a1.25 1.25 0 0 1-.36.88l-3 3a1.33 1.33 0 0 1-.88.38h-5.22a1.38 1.38 0 0 1-.88-.38l-3-3a1.33 1.33 0 0 1-.38-.88v-3a1.33 1.33 0 0 1 .38-.88l3-3a1.33 1.33 0 0 1 .88-.38h5.22a1.38 1.38 0 0 1 .88.38l3 3a1.24 1.24 0 0 1-.88 2.13h-10v1.24l2.27 2.25h4.18l2.63-2.63a1.25 1.25 0 0 1 2.12.88zm-4.75-4.74h-4.18l-.49.49h5.15zM132.34 340a1.28 1.28 0 0 1-1.26 1.26 1.26 1.26 0 0 1-1.24-1.26v-9a1.26 1.26 0 0 1 1.24-1.26 1.3 1.3 0 0 1 1.26 1.24l.86-.86a1.38 1.38 0 0 1 .88-.38h3.71a1.26 1.26 0 0 1 0 2.52h-3.19l-2.27 2.25zM142.13 329.75a1.27 1.27 0 0 1 1.08.58l4.54 7.29 4.54-7.29a1.25 1.25 0 0 1 2.3.67 1.28 1.28 0 0 1-.18.67l-5.6 9a1.29 1.29 0 0 1-1.06.58 1.24 1.24 0 0 1-1.06-.58l-5.6-9a1.29 1.29 0 0 1-.2-.67 1.24 1.24 0 0 1 1.24-1.25zM169.86 337a1.25 1.25 0 0 1-.36.88l-3 3a1.33 1.33 0 0 1-.88.38h-5.22a1.38 1.38 0 0 1-.88-.38l-3-3a1.33 1.33 0 0 1-.38-.88v-3a1.33 1.33 0 0 1 .38-.88l3-3a1.33 1.33 0 0 1 .88-.38h5.22a1.38 1.38 0 0 1 .88.38l3 3a1.24 1.24 0 0 1-.88 2.13h-10v1.24l2.27 2.25h4.18l2.63-2.63a1.25 1.25 0 0 1 2.12.88zm-4.75-4.74h-4.18l-.49.49h5.15zM175.39 340a1.28 1.28 0 0 1-1.26 1.26 1.26 1.26 0 0 1-1.24-1.26v-9a1.26 1.26 0 0 1 1.24-1.26 1.3 1.3 0 0 1 1.26 1.24l.86-.86a1.38 1.38 0 0 1 .88-.38h3.71a1.26 1.26 0 0 1 0 2.52h-3.19l-2.27 2.25zM206.38 337a1.25 1.25 0 0 1-.36.88l-3 3a1.33 1.33 0 0 1-.88.38h-5.22a1.38 1.38 0 0 1-.88-.38l-3-3a1.33 1.33 0 0 1-.38-.88v-3a1.33 1.33 0 0 1 .38-.88l3-3a1.33 1.33 0 0 1 .88-.38h5.22a1.38 1.38 0 0 1 .88.38l3 3a1.24 1.24 0 0 1-.88 2.13h-10v1.24l2.27 2.25h4.18l2.63-2.63a1.25 1.25 0 0 1 2.12.88zm-4.75-4.74h-4.18l-.49.49h5.15zM209.41 331a1.26 1.26 0 0 1 1.24-1.26 1.3 1.3 0 0 1 1.26 1.24l.86-.86a1.38 1.38 0 0 1 .88-.38h5.2a1.33 1.33 0 0 1 .88.38l3 3a1.36 1.36 0 0 1 .36.88v6a1.26 1.26 0 0 1-1.24 1.26 1.28 1.28 0 0 1-1.26-1.26v-5.49l-2.25-2.25h-4.18l-2.27 2.25V340a1.28 1.28 0 0 1-1.26 1.26 1.26 1.26 0 0 1-1.24-1.26zM238.37 335.25a1.26 1.26 0 0 1-.88-.36l-2.63-2.63h-4.18l-2.27 2.25v2l2.27 2.25h4.18l2.63-2.63a1.25 1.25 0 0 1 1.76 1.76l-3 3a1.33 1.33 0 0 1-.88.38h-5.22a1.38 1.38 0 0 1-.88-.38l-3-3a1.33 1.33 0 0 1-.38-.88v-3a1.38 1.38 0 0 1 .38-.88l3-3a1.33 1.33 0 0 1 .88-.38h5.22a1.38 1.38 0 0 1 .88.38l3 3a1.25 1.25 0 0 1-.88 2.13zM256 334v3a1.38 1.38 0 0 1-.38.88l-3 3a1.33 1.33 0 0 1-.88.38h-5.22a1.38 1.38 0 0 1-.88-.38l-3-3a1.33 1.33 0 0 1-.38-.88v-3a1.38 1.38 0 0 1 .38-.88l3-3a1.33 1.33 0 0 1 .88-.38h5.22a1.38 1.38 0 0 1 .88.38l3 3a1.33 1.33 0 0 1 .38.88zm-4.77-1.75h-4.18l-2.27 2.25v2l2.27 2.25h4.18l2.27-2.25v-2zM261.37 331v5.49l2.27 2.25h4.18l2.27-2.25V331a1.26 1.26 0 0 1 1.24-1.26 1.28 1.28 0 0 1 1.26 1.26v6a1.38 1.38 0 0 1-.38.88l-3 3a1.33 1.33 0 0 1-.88.38h-5.22a1.38 1.38 0 0 1-.88-.38l-3-3a1.33 1.33 0 0 1-.38-.88v-6a1.28 1.28 0 0 1 1.26-1.26 1.26 1.26 0 0 1 1.26 1.26zM275.88 331a1.26 1.26 0 0 1 1.24-1.26 1.3 1.3 0 0 1 1.26 1.24l.86-.86a1.38 1.38 0 0 1 .88-.38h5.2a1.33 1.33 0 0 1 .88.38l3 3a1.36 1.36 0 0 1 .36.88v6a1.26 1.26 0 0 1-1.24 1.26 1.28 1.28 0 0 1-1.26-1.26v-5.49l-2.25-2.25h-4.18l-2.27 2.25V340a1.28 1.28 0 0 1-1.26 1.26 1.26 1.26 0 0 1-1.24-1.26zM296.85 322v7.74H299a1.26 1.26 0 0 1 0 2.52h-2.11V340a1.26 1.26 0 0 1-1.24 1.26 1.28 1.28 0 0 1-1.26-1.26v-7.74h-2.09a1.26 1.26 0 1 1 0-2.52h2.09V322a1.28 1.28 0 0 1 1.26-1.26 1.26 1.26 0 0 1 1.2 1.26zM315.29 337a1.25 1.25 0 0 1-.36.88l-3 3a1.33 1.33 0 0 1-.88.38h-5.22a1.38 1.38 0 0 1-.88-.38l-3-3a1.33 1.33 0 0 1-.38-.88v-3a1.33 1.33 0 0 1 .38-.88l3-3a1.33 1.33 0 0 1 .88-.38h5.22a1.38 1.38 0 0 1 .88.38l3 3a1.24 1.24 0 0 1-.88 2.13h-10v1.24l2.27 2.25h4.18l2.63-2.63a1.25 1.25 0 0 1 2.12.88zm-4.75-4.74h-4.18l-.49.49H311zM320.81 340a1.28 1.28 0 0 1-1.26 1.26 1.26 1.26 0 0 1-1.24-1.26v-9a1.26 1.26 0 0 1 1.24-1.26 1.3 1.3 0 0 1 1.26 1.24l.86-.86a1.38 1.38 0 0 1 .88-.38h3.71a1.26 1.26 0 0 1 0 2.52h-3.19l-2.27 2.25zM342.77 337a1.25 1.25 0 0 1-.36.88l-3 3a1.33 1.33 0 0 1-.88.38h-5.22a1.38 1.38 0 0 1-.88-.38l-3-3a1.33 1.33 0 0 1-.38-.88v-3a1.33 1.33 0 0 1 .38-.88l3-3a1.33 1.33 0 0 1 .88-.38h5.22a1.38 1.38 0 0 1 .88.38l3 3a1.24 1.24 0 0 1-.88 2.13h-10v1.24l2.27 2.25h4.2l2.63-2.63a1.25 1.25 0 0 1 2.12.88zm-4.77-4.74h-4.18l-.49.49h5.15zM359.19 322v18a1.25 1.25 0 1 1-2.5 0l-.86.86a1.33 1.33 0 0 1-.88.38h-5.22a1.38 1.38 0 0 1-.88-.38l-3-3a1.33 1.33 0 0 1-.38-.88v-3a1.38 1.38 0 0 1 .38-.88l3-3a1.33 1.33 0 0 1 .88-.38h5.22a1.38 1.38 0 0 1 .88.38l.86.86v-9a1.26 1.26 0 0 1 1.24-1.26 1.28 1.28 0 0 1 1.26 1.3zm-4.77 10.26h-4.18l-2.24 2.25v2l2.27 2.25h4.18l2.27-2.25v-2zM384.5 331v9a1.25 1.25 0 1 1-2.5 0l-.86.86a1.38 1.38 0 0 1-.88.38H375a1.33 1.33 0 0 1-.88-.38l-3-3a1.38 1.38 0 0 1-.38-.88v-3a1.33 1.33 0 0 1 .38-.88l3-3a1.38 1.38 0 0 1 .88-.38h5.22a1.33 1.33 0 0 1 .88.38l.86.86a1.25 1.25 0 0 1 2.5 0zm-4.77 1.26h-4.18l-2.27 2.25v2l2.27 2.25h4.18l2.27-2.25v-2zM388 331a1.26 1.26 0 0 1 1.24-1.26 1.3 1.3 0 0 1 1.26 1.26l.86-.86a1.38 1.38 0 0 1 .88-.38h5.2a1.33 1.33 0 0 1 .88.38l3 3a1.36 1.36 0 0 1 .36.88v6a1.26 1.26 0 0 1-1.24 1.26 1.28 1.28 0 0 1-1.24-1.28v-5.49l-2.25-2.25h-4.18l-2.27 2.25V340a1.28 1.28 0 0 1-1.26 1.26A1.26 1.26 0 0 1 388 340zM415.47 331v5.49l2.27 2.25h4.18l2.27-2.25V331a1.26 1.26 0 0 1 1.24-1.26 1.28 1.28 0 0 1 1.26 1.26v6a1.38 1.38 0 0 1-.38.88l-3 3a1.33 1.33 0 0 1-.88.38h-5.22a1.38 1.38 0 0 1-.88-.38l-3-3a1.33 1.33 0 0 1-.33-.88v-6a1.28 1.28 0 0 1 1.26-1.26 1.26 1.26 0 0 1 1.21 1.26zM430 331a1.26 1.26 0 0 1 1.24-1.26 1.3 1.3 0 0 1 1.26 1.24l.86-.86a1.38 1.38 0 0 1 .88-.38h5.2a1.33 1.33 0 0 1 .88.38l3 3a1.36 1.36 0 0 1 .36.88v6a1.26 1.26 0 0 1-1.24 1.26 1.28 1.28 0 0 1-1.26-1.26v-5.49l-2.25-2.25h-4.18l-2.27 2.25V340a1.28 1.28 0 0 1-1.26 1.26A1.26 1.26 0 0 1 430 340zM460.18 337a1.25 1.25 0 0 1-.36.88l-3 3a1.33 1.33 0 0 1-.88.38h-5.22a1.38 1.38 0 0 1-.88-.38l-3-3a1.33 1.33 0 0 1-.38-.88v-3a1.33 1.33 0 0 1 .38-.88l3-3a1.33 1.33 0 0 1 .88-.38h5.22a1.38 1.38 0 0 1 .88.38l3 3a1.24 1.24 0 0 1-.88 2.13H449v1.24l2.27 2.25h4.18l2.63-2.63a1.25 1.25 0 0 1 2.12.88zm-4.75-4.74h-4.18l-.49.49h5.15zM463.27 329.75a1.31 1.31 0 0 1 .79.27l4.81 3.87 4.83-3.87a1.25 1.25 0 1 1 1.57 1.94l-4.39 3.53 4.39 3.53a1.25 1.25 0 0 1-1.57 1.95l-4.83-3.87-4.81 3.9a1.32 1.32 0 0 1-.79.27 1.25 1.25 0 0 1-.79-2.21l4.39-3.53-4.4-3.53a1.25 1.25 0 0 1 .79-2.21zM480.91 349a1.28 1.28 0 0 1-1.26 1.26 1.26 1.26 0 0 1-1.24-1.26v-18a1.26 1.26 0 0 1 1.24-1.26 1.3 1.3 0 0 1 1.26 1.24l.86-.86a1.38 1.38 0 0 1 .88-.38h5.2a1.33 1.33 0 0 1 .88.38l3 3a1.36 1.36 0 0 1 .36.88v3a1.31 1.31 0 0 1-.36.88l-3 3a1.38 1.38 0 0 1-.88.38h-5.2a1.33 1.33 0 0 1-.88-.38l-.86-.86zm2.27-10.26h4.18l2.25-2.25v-2l-2.25-2.25h-4.18l-2.27 2.25v2zM508.5 337a1.25 1.25 0 0 1-.36.88l-3 3a1.33 1.33 0 0 1-.88.38H499a1.38 1.38 0 0 1-.88-.38l-3-3a1.33 1.33 0 0 1-.38-.88v-3a1.33 1.33 0 0 1 .38-.88l3-3a1.33 1.33 0 0 1 .88-.38h5.22a1.38 1.38 0 0 1 .88.38l3 3a1.24 1.24 0 0 1-.88 2.13h-10v1.24l2.27 2.25h4.18l2.63-2.63a1.25 1.25 0 0 1 2.12.88zm-4.75-4.74h-4.18l-.49.49h5.15zM523.66 335.25a1.26 1.26 0 0 1-.88-.36l-2.63-2.63H516l-2.27 2.25v2l2.27 2.25h4.18l2.63-2.63a1.25 1.25 0 0 1 1.76 1.76l-3 3a1.33 1.33 0 0 1-.88.38h-5.22a1.38 1.38 0 0 1-.88-.38l-3-3a1.33 1.33 0 0 1-.38-.88v-3a1.38 1.38 0 0 1 .38-.88l3-3a1.33 1.33 0 0 1 .88-.38h5.22a1.38 1.38 0 0 1 .88.38l3 3a1.25 1.25 0 0 1-.88 2.13zM532.18 322v7.74h2.11a1.26 1.26 0 0 1 0 2.52h-2.11V340a1.26 1.26 0 0 1-1.24 1.26 1.28 1.28 0 0 1-1.26-1.26v-7.74h-2.09a1.26 1.26 0 1 1 0-2.52h2.09V322a1.28 1.28 0 0 1 1.26-1.26 1.26 1.26 0 0 1 1.24 1.26zM550.62 337a1.25 1.25 0 0 1-.36.88l-3 3a1.33 1.33 0 0 1-.88.38h-5.22a1.38 1.38 0 0 1-.88-.38l-3-3a1.33 1.33 0 0 1-.38-.88v-3a1.33 1.33 0 0 1 .38-.88l3-3a1.33 1.33 0 0 1 .88-.38h5.22a1.38 1.38 0 0 1 .88.38l3 3a1.24 1.24 0 0 1-.88 2.13h-10v1.24l2.27 2.25h4.18l2.63-2.63a1.25 1.25 0 0 1 2.12.88zm-4.75-4.74h-4.18l-.49.49h5.15zM567 322v18a1.25 1.25 0 1 1-2.5 0l-.86.86a1.33 1.33 0 0 1-.88.38h-5.22a1.38 1.38 0 0 1-.88-.38l-3-3a1.33 1.33 0 0 1-.38-.88v-3a1.38 1.38 0 0 1 .38-.88l3-3a1.33 1.33 0 0 1 .88-.38h5.22a1.38 1.38 0 0 1 .88.38l.86.86v-9a1.26 1.26 0 0 1 1.24-1.26A1.28 1.28 0 0 1 567 322zm-4.77 10.26h-4.18l-2.27 2.25v2l2.27 2.25h4.18l2.27-2.25v-2zM592.33 337a1.25 1.25 0 0 1-.36.88l-3 3a1.33 1.33 0 0 1-.88.38h-5.22a1.38 1.38 0 0 1-.88-.38l-3-3a1.33 1.33 0 0 1-.38-.88v-3a1.33 1.33 0 0 1 .38-.88l3-3a1.33 1.33 0 0 1 .88-.38h5.22a1.38 1.38 0 0 1 .88.38l3 3a1.24 1.24 0 0 1-.88 2.13h-10v1.24l2.27 2.25h4.18l2.63-2.63a1.25 1.25 0 0 1 2.12.88zm-4.75-4.74h-4.18l-.49.49h5.15zM597.86 340a1.28 1.28 0 0 1-1.26 1.26 1.26 1.26 0 0 1-1.24-1.26v-9a1.26 1.26 0 0 1 1.24-1.26 1.3 1.3 0 0 1 1.26 1.24l.86-.86a1.38 1.38 0 0 1 .88-.38h3.71a1.26 1.26 0 0 1 0 2.52h-3.19l-2.27 2.25zM609.57 340a1.28 1.28 0 0 1-1.26 1.26 1.26 1.26 0 0 1-1.24-1.26v-9a1.26 1.26 0 0 1 1.24-1.26 1.3 1.3 0 0 1 1.26 1.24l.86-.86a1.38 1.38 0 0 1 .88-.38H615a1.26 1.26 0 0 1 0 2.52h-3.19l-2.27 2.25zM631.54 334v3a1.38 1.38 0 0 1-.38.88l-3 3a1.33 1.33 0 0 1-.88.38h-5.22a1.38 1.38 0 0 1-.88-.38l-3-3a1.33 1.33 0 0 1-.38-.88v-3a1.38 1.38 0 0 1 .38-.88l3-3a1.33 1.33 0 0 1 .88-.38h5.22a1.38 1.38 0 0 1 .88.38l3 3a1.33 1.33 0 0 1 .38.88zm-4.77-1.75h-4.17l-2.27 2.25v2l2.27 2.25h4.18l2.27-2.25v-2zM637.15 340a1.28 1.28 0 0 1-1.26 1.26 1.26 1.26 0 0 1-1.24-1.26v-9a1.26 1.26 0 0 1 1.24-1.26 1.3 1.3 0 0 1 1.26 1.24l.86-.86a1.38 1.38 0 0 1 .88-.38h3.71a1.26 1.26 0 0 1 0 2.52h-3.19l-2.27 2.25zM643.83 340v-.9a1.28 1.28 0 0 1 1.26-1.26 1.26 1.26 0 0 1 1.24 1.26v.9a1.26 1.26 0 0 1-1.24 1.26 1.28 1.28 0 0 1-1.26-1.26zM49.56 371.75a1.24 1.24 0 0 1 1.17.81l2.2 5.85 2.2-5.85a1.25 1.25 0 0 1 2.34 0l2.2 5.85 2.2-5.85a1.25 1.25 0 0 1 2.41.45 1.12 1.12 0 0 1-.07.41l-3.37 9a1.25 1.25 0 0 1-2.34 0l-2.2-5.85-2.2 5.85a1.25 1.25 0 0 1-2.34 0l-3.37-9a1.13 1.13 0 0 1-.07-.41 1.25 1.25 0 0 1 1.24-1.26zM79.91 379a1.25 1.25 0 0 1-.36.88l-3 3a1.33 1.33 0 0 1-.88.38h-5.21a1.38 1.38 0 0 1-.88-.38l-3-3a1.33 1.33 0 0 1-.38-.88v-3a1.33 1.33 0 0 1 .38-.88l3-3a1.33 1.33 0 0 1 .88-.38h5.22a1.38 1.38 0 0 1 .88.38l3 3a1.24 1.24 0 0 1-.88 2.13h-10v1.24l2.32 2.25h4.18l2.63-2.63a1.25 1.25 0 0 1 2.12.88zm-4.75-4.74H71l-.49.49h5.15zM94.38 364v9l.86-.86a1.38 1.38 0 0 1 .88-.38h5.2a1.33 1.33 0 0 1 .88.38l3 3a1.36 1.36 0 0 1 .36.88v6a1.26 1.26 0 0 1-1.24 1.26 1.28 1.28 0 0 1-1.26-1.26v-5.49l-2.27-2.25h-4.14l-2.27 2.25V382a1.28 1.28 0 0 1-1.26 1.26 1.26 1.26 0 0 1-1.24-1.26v-18a1.26 1.26 0 0 1 1.24-1.26 1.28 1.28 0 0 1 1.26 1.26zM122.1 373v9a1.25 1.25 0 1 1-2.5 0l-.86.86a1.38 1.38 0 0 1-.88.38h-5.22a1.33 1.33 0 0 1-.88-.38l-3-3a1.38 1.38 0 0 1-.38-.88v-3a1.33 1.33 0 0 1 .38-.88l3-3a1.38 1.38 0 0 1 .88-.38h5.22a1.33 1.33 0 0 1 .88.38l.86.86a1.25 1.25 0 0 1 2.5 0zm-4.77 1.26h-4.18l-2.27 2.25v2l2.27 2.25h4.18l2.27-2.25v-2zM125.7 371.75a1.27 1.27 0 0 1 1.08.58l4.54 7.29 4.54-7.29a1.25 1.25 0 0 1 2.3.67 1.28 1.28 0 0 1-.18.67l-5.6 9a1.29 1.29 0 0 1-1.06.58 1.24 1.24 0 0 1-1.06-.58l-5.6-9a1.3 1.3 0 0 1-.2-.67 1.24 1.24 0 0 1 1.24-1.25zM153.43 379a1.25 1.25 0 0 1-.36.88l-3 3a1.33 1.33 0 0 1-.88.38H144a1.38 1.38 0 0 1-.88-.38l-3-3a1.33 1.33 0 0 1-.38-.88v-3a1.33 1.33 0 0 1 .38-.88l3-3a1.33 1.33 0 0 1 .88-.38h5.22a1.38 1.38 0 0 1 .88.38l3 3a1.24 1.24 0 0 1-.88 2.13h-10v1.24l2.27 2.25h4.18l2.63-2.63a1.25 1.25 0 0 1 2.12.88zm-4.75-4.74h-4.18l-.49.49h5.15zM167.9 364v9l.86-.86a1.33 1.33 0 0 1 .88-.38h5.2a1.38 1.38 0 0 1 .88.38l3 3a1.25 1.25 0 0 1 .36.88v3a1.35 1.35 0 0 1-.36.88l-3 3a1.33 1.33 0 0 1-.88.38h-5.2a1.38 1.38 0 0 1-.88-.38l-.86-.86a1.28 1.28 0 0 1-1.26 1.24 1.26 1.26 0 0 1-1.24-1.28v-18a1.26 1.26 0 0 1 1.24-1.26 1.28 1.28 0 0 1 1.26 1.26zm6.43 10.26h-4.16l-2.27 2.25v2l2.27 2.25h4.16l2.27-2.25v-2zM195.49 379a1.25 1.25 0 0 1-.36.88l-3 3a1.33 1.33 0 0 1-.88.38H186a1.38 1.38 0 0 1-.88-.38l-3-3a1.33 1.33 0 0 1-.38-.88v-3a1.33 1.33 0 0 1 .38-.88l3-3a1.33 1.33 0 0 1 .88-.38h5.22a1.38 1.38 0 0 1 .88.38l3 3a1.24 1.24 0 0 1-.88 2.13h-10v1.24l2.27 2.25h4.18l2.63-2.63a1.25 1.25 0 0 1 2.12.88zm-4.75-4.74h-4.18l-.49.49h5.15zM211.89 379a1.25 1.25 0 0 1-.36.88l-3 3a1.33 1.33 0 0 1-.88.38h-5.22a1.38 1.38 0 0 1-.88-.38l-3-3a1.33 1.33 0 0 1-.38-.88v-3a1.33 1.33 0 0 1 .38-.88l3-3a1.33 1.33 0 0 1 .88-.38h5.22a1.38 1.38 0 0 1 .88.38l3 3a1.24 1.24 0 0 1-.88 2.13h-10v1.24l2.27 2.25h4.18l2.63-2.63a1.25 1.25 0 0 1 2.12.88zm-4.75-4.74H203l-.49.49h5.15zM214.92 373a1.26 1.26 0 0 1 1.24-1.26 1.3 1.3 0 0 1 1.26 1.24l.86-.86a1.38 1.38 0 0 1 .88-.38h5.2a1.33 1.33 0 0 1 .88.38l3 3a1.36 1.36 0 0 1 .36.88v6a1.26 1.26 0 0 1-1.24 1.26 1.28 1.28 0 0 1-1.26-1.26v-5.49l-2.25-2.25h-4.18l-2.27 2.25V382a1.28 1.28 0 0 1-1.26 1.26 1.26 1.26 0 0 1-1.24-1.26zM240.32 367.9v-.9a1.26 1.26 0 0 1 1.24-1.26 1.28 1.28 0 0 1 1.26 1.26v.9a1.26 1.26 0 0 1-1.26 1.24 1.25 1.25 0 0 1-1.24-1.24zm0 14.1v-9a1.26 1.26 0 0 1 1.24-1.26 1.28 1.28 0 0 1 1.26 1.26v9a1.28 1.28 0 0 1-1.26 1.26 1.26 1.26 0 0 1-1.24-1.26zM246.33 373a1.26 1.26 0 0 1 1.24-1.26 1.3 1.3 0 0 1 1.26 1.24l.86-.86a1.38 1.38 0 0 1 .88-.38h5.2a1.33 1.33 0 0 1 .88.38l3 3a1.36 1.36 0 0 1 .36.88v6a1.26 1.26 0 0 1-1.24 1.26 1.28 1.28 0 0 1-1.26-1.26v-5.49l-2.25-2.25h-4.18l-2.27 2.25V382a1.28 1.28 0 0 1-1.26 1.26 1.26 1.26 0 0 1-1.24-1.26zM268.77 364a1.26 1.26 0 0 1-.36.88l-2.63 2.63v4.23h1.75a1.26 1.26 0 1 1 0 2.52h-1.75V382a1.28 1.28 0 0 1-1.26 1.26 1.26 1.26 0 0 1-1.24-1.26v-15a1.36 1.36 0 0 1 .36-.88l3-3a1.25 1.25 0 0 1 2.13.88zM283.82 376v3a1.38 1.38 0 0 1-.38.88l-3 3a1.33 1.33 0 0 1-.88.38h-5.22a1.38 1.38 0 0 1-.88-.38l-3-3a1.33 1.33 0 0 1-.38-.88v-3a1.38 1.38 0 0 1 .38-.88l3-3a1.33 1.33 0 0 1 .88-.38h5.22a1.38 1.38 0 0 1 .88.38l3 3a1.33 1.33 0 0 1 .38.88zm-4.82-1.74h-4.18l-2.27 2.25v2l2.27 2.25H279l2.27-2.25v-2zM289.42 382a1.28 1.28 0 0 1-1.26 1.26 1.26 1.26 0 0 1-1.24-1.26v-9a1.26 1.26 0 0 1 1.24-1.26 1.3 1.3 0 0 1 1.26 1.24l.86-.86a1.38 1.38 0 0 1 .88-.38h3.71a1.26 1.26 0 0 1 0 2.52h-3.19l-2.27 2.25zM298.63 382v-9a1.26 1.26 0 0 1 1.24-1.26 1.28 1.28 0 0 1 1.26 1.26v.22l1.28-1.15a1.21 1.21 0 0 1 .83-.31 1.28 1.28 0 0 1 .85.31l2.52 2.27 2.54-2.27a1.21 1.21 0 0 1 .83-.31 1.24 1.24 0 0 1 .83.31l3.37 3a1.28 1.28 0 0 1 .41.94v6a1.26 1.26 0 0 1-1.24 1.26 1.28 1.28 0 0 1-1.26-1.26v-5.44l-2.09-1.9-2.11 1.89V382a1.28 1.28 0 0 1-1.26 1.26 1.26 1.26 0 0 1-1.24-1.26v-5.44l-2.12-1.89-2.11 1.89V382a1.28 1.28 0 0 1-1.26 1.26 1.26 1.26 0 0 1-1.27-1.26zM331.1 379a1.25 1.25 0 0 1-.36.88l-3 3a1.33 1.33 0 0 1-.88.38h-5.22a1.38 1.38 0 0 1-.88-.38l-3-3a1.33 1.33 0 0 1-.38-.88v-3a1.33 1.33 0 0 1 .38-.88l3-3a1.33 1.33 0 0 1 .88-.38h5.22a1.38 1.38 0 0 1 .88.38l3 3a1.24 1.24 0 0 1-.88 2.13h-10v1.24l2.27 2.25h4.18l2.63-2.63a1.25 1.25 0 0 1 2.12.88zm-4.75-4.74h-4.18l-.49.49h5.15zM347.52 364v18a1.25 1.25 0 1 1-2.5 0l-.86.86a1.33 1.33 0 0 1-.88.38H338a1.38 1.38 0 0 1-.88-.38l-3-3a1.33 1.33 0 0 1-.38-.88v-3a1.38 1.38 0 0 1 .38-.88l3-3a1.33 1.33 0 0 1 .88-.38h5.22a1.38 1.38 0 0 1 .88.38l.86.86v-9a1.26 1.26 0 0 1 1.24-1.26 1.28 1.28 0 0 1 1.32 1.3zm-4.77 10.26h-4.18l-2.27 2.25v2l2.27 2.25h4.18l2.27-2.25v-2zM372.83 373v9a1.25 1.25 0 1 1-2.5 0l-.86.86a1.38 1.38 0 0 1-.88.38h-5.22a1.33 1.33 0 0 1-.88-.38l-3-3a1.38 1.38 0 0 1-.38-.88v-3a1.33 1.33 0 0 1 .38-.88l3-3a1.38 1.38 0 0 1 .88-.38h5.22a1.33 1.33 0 0 1 .88.38l.86.86a1.25 1.25 0 0 1 2.5 0zm-4.77 1.26h-4.18l-2.27 2.25v2l2.27 2.25h4.18l2.27-2.25v-2zM376.32 373a1.26 1.26 0 0 1 1.24-1.26 1.3 1.3 0 0 1 1.26 1.24l.86-.86a1.38 1.38 0 0 1 .88-.38h5.2a1.33 1.33 0 0 1 .88.38l3 3a1.36 1.36 0 0 1 .36.88v6a1.26 1.26 0 0 1-1.24 1.26 1.28 1.28 0 0 1-1.26-1.26v-5.49l-2.25-2.25h-4.18l-2.27 2.25V382a1.28 1.28 0 0 1-1.26 1.26 1.26 1.26 0 0 1-1.24-1.26zM406.55 364v18a1.25 1.25 0 1 1-2.5 0l-.86.86a1.33 1.33 0 0 1-.88.38h-5.22a1.38 1.38 0 0 1-.88-.38l-3-3a1.33 1.33 0 0 1-.38-.88v-3a1.38 1.38 0 0 1 .38-.88l3-3a1.33 1.33 0 0 1 .88-.38h5.22a1.38 1.38 0 0 1 .88.38l.86.86v-9a1.26 1.26 0 0 1 1.24-1.26 1.28 1.28 0 0 1 1.26 1.3zm-4.77 10.26h-4.18l-2.27 2.25v2l2.27 2.25h4.18l2.27-2.25v-2zM431.85 373v9a1.25 1.25 0 1 1-2.5 0l-.86.86a1.38 1.38 0 0 1-.88.38h-5.22a1.33 1.33 0 0 1-.88-.38l-3-3a1.38 1.38 0 0 1-.38-.88v-3a1.33 1.33 0 0 1 .38-.88l3-3a1.38 1.38 0 0 1 .88-.38h5.22a1.33 1.33 0 0 1 .88.38l.86.86a1.25 1.25 0 0 1 2.5 0zm-4.77 1.26h-4.18l-2.27 2.25v2l2.27 2.25h4.18l2.27-2.25v-2zM437.85 382a1.28 1.28 0 0 1-1.26 1.26 1.26 1.26 0 0 1-1.24-1.26v-9a1.26 1.26 0 0 1 1.24-1.26 1.3 1.3 0 0 1 1.26 1.24l.86-.86a1.38 1.38 0 0 1 .88-.38h3.71a1.26 1.26 0 0 1 0 2.52h-3.19l-2.27 2.25zM459.81 379a1.25 1.25 0 0 1-.36.88l-3 3a1.33 1.33 0 0 1-.88.38h-5.22a1.38 1.38 0 0 1-.88-.38l-3-3a1.33 1.33 0 0 1-.38-.88v-3a1.33 1.33 0 0 1 .38-.88l3-3a1.33 1.33 0 0 1 .88-.38h5.22a1.38 1.38 0 0 1 .88.38l3 3a1.24 1.24 0 0 1-.88 2.13h-10v1.24l2.27 2.25h4.18l2.63-2.63a1.25 1.25 0 0 1 2.12.88zm-4.75-4.74h-4.18l-.49.49h5.15zM471.72 382v-18a1.28 1.28 0 0 1 1.26-1.26 1.26 1.26 0 0 1 1.24 1.26v18a1.26 1.26 0 0 1-1.24 1.26 1.28 1.28 0 0 1-1.26-1.26zM491.16 376v3a1.38 1.38 0 0 1-.38.88l-3 3a1.33 1.33 0 0 1-.88.38h-5.22a1.38 1.38 0 0 1-.88-.38l-3-3a1.33 1.33 0 0 1-.38-.88v-3a1.38 1.38 0 0 1 .38-.88l3-3a1.33 1.33 0 0 1 .88-.38h5.22a1.38 1.38 0 0 1 .88.38l3 3a1.33 1.33 0 0 1 .38.88zm-4.77-1.75h-4.18l-2.27 2.25v2l2.27 2.25h4.18l2.27-2.25v-2zM507.56 376v3a1.38 1.38 0 0 1-.38.88l-3 3a1.33 1.33 0 0 1-.88.38h-5.22a1.38 1.38 0 0 1-.88-.38l-3-3a1.33 1.33 0 0 1-.38-.88v-3a1.38 1.38 0 0 1 .38-.88l3-3a1.33 1.33 0 0 1 .88-.38h5.22a1.38 1.38 0 0 1 .88.38l3 3a1.33 1.33 0 0 1 .38.88zm-4.77-1.75h-4.18l-2.27 2.25v2l2.27 2.25h4.18l2.27-2.25v-2zM524.54 373a1.25 1.25 0 0 1-.77 1.17l-8.32 3.35 8.32 3.35a1.25 1.25 0 0 1 .77 1.17 1.23 1.23 0 0 1-1.26 1.22 1.26 1.26 0 0 1-.45-.09l-9.49-3.8V382a1.28 1.28 0 0 1-1.26 1.26 1.26 1.26 0 0 1-1.24-1.26v-18a1.26 1.26 0 0 1 1.24-1.26 1.28 1.28 0 0 1 1.26 1.26v11.65l9.49-3.8a1.34 1.34 0 0 1 .45-.09 1.23 1.23 0 0 1 1.26 1.24zM527.1 367.9v-.9a1.26 1.26 0 0 1 1.24-1.26 1.28 1.28 0 0 1 1.26 1.26v.9a1.26 1.26 0 0 1-1.26 1.24 1.25 1.25 0 0 1-1.24-1.24zm0 14.1v-9a1.26 1.26 0 0 1 1.24-1.26 1.28 1.28 0 0 1 1.26 1.26v9a1.28 1.28 0 0 1-1.26 1.26 1.26 1.26 0 0 1-1.24-1.26zM533.12 373a1.26 1.26 0 0 1 1.24-1.26 1.3 1.3 0 0 1 1.26 1.24l.86-.86a1.38 1.38 0 0 1 .88-.38h5.2a1.33 1.33 0 0 1 .88.38l3 3a1.36 1.36 0 0 1 .36.88v6a1.26 1.26 0 0 1-1.24 1.26 1.28 1.28 0 0 1-1.26-1.26v-5.49l-2.25-2.25h-4.15l-2.27 2.25V382a1.28 1.28 0 0 1-1.26 1.26 1.26 1.26 0 0 1-1.24-1.26zM550.89 386.75a1.26 1.26 0 0 1 .88.36l2.63 2.63h4.18l2.27-2.25V382l-.86.86a1.33 1.33 0 0 1-.88.38h-5.22a1.38 1.38 0 0 1-.88-.38l-3-3a1.33 1.33 0 0 1-.38-.88v-3a1.38 1.38 0 0 1 .38-.88l3-3a1.33 1.33 0 0 1 .88-.38h5.22a1.38 1.38 0 0 1 .88.38l.86.86a1.25 1.25 0 0 1 2.5 0v15a1.33 1.33 0 0 1-.38.88l-3 3a1.38 1.38 0 0 1-.88.38h-5.22a1.33 1.33 0 0 1-.88-.38l-3-3a1.25 1.25 0 0 1 .88-2.12zm7.69-12.5h-4.18l-2.27 2.25v2l2.27 2.25h4.18l2.27-2.25v-2zM575.37 367.9v-.9a1.26 1.26 0 0 1 1.24-1.26 1.28 1.28 0 0 1 1.26 1.26v.9a1.26 1.26 0 0 1-1.26 1.24 1.25 1.25 0 0 1-1.24-1.24zm0 14.1v-9a1.26 1.26 0 0 1 1.24-1.26 1.28 1.28 0 0 1 1.26 1.26v9a1.28 1.28 0 0 1-1.26 1.26 1.26 1.26 0 0 1-1.24-1.26zM581.39 373a1.26 1.26 0 0 1 1.24-1.26 1.3 1.3 0 0 1 1.26 1.24l.86-.86a1.38 1.38 0 0 1 .88-.38h5.2a1.33 1.33 0 0 1 .88.38l3 3a1.36 1.36 0 0 1 .36.88v6a1.26 1.26 0 0 1-1.24 1.26 1.28 1.28 0 0 1-1.26-1.26v-5.49l-2.25-2.25h-4.18l-2.27 2.25V382a1.28 1.28 0 0 1-1.26 1.26 1.26 1.26 0 0 1-1.24-1.26zM602.35 364v7.74h2.11a1.26 1.26 0 0 1 0 2.52h-2.11V382a1.26 1.26 0 0 1-1.24 1.26 1.28 1.28 0 0 1-1.26-1.26v-7.74h-2.09a1.26 1.26 0 1 1 0-2.52h2.09V364a1.28 1.28 0 0 1 1.26-1.26 1.26 1.26 0 0 1 1.24 1.26zM620.81 376v3a1.38 1.38 0 0 1-.38.88l-3 3a1.33 1.33 0 0 1-.88.38h-5.22a1.38 1.38 0 0 1-.88-.38l-3-3a1.33 1.33 0 0 1-.38-.88v-3a1.38 1.38 0 0 1 .38-.88l3-3a1.33 1.33 0 0 1 .88-.38h5.22a1.38 1.38 0 0 1 .88.38l3 3a1.33 1.33 0 0 1 .38.88zm-4.81-1.74h-4.18l-2.27 2.25v2l2.27 2.25H616l2.27-2.25v-2zM632.51 367.9v-.9a1.26 1.26 0 0 1 1.24-1.26A1.28 1.28 0 0 1 635 367v.9a1.26 1.26 0 0 1-1.26 1.24 1.25 1.25 0 0 1-1.23-1.24zm0 14.1v-9a1.26 1.26 0 0 1 1.24-1.26A1.28 1.28 0 0 1 635 373v9a1.28 1.28 0 0 1-1.26 1.26 1.26 1.26 0 0 1-1.23-1.26zM643.24 364v7.74h2.11a1.26 1.26 0 0 1 0 2.52h-2.11V382a1.26 1.26 0 0 1-1.24 1.26 1.28 1.28 0 0 1-1.26-1.26v-7.74h-2.09a1.26 1.26 0 1 1 0-2.52h2.09V364a1.28 1.28 0 0 1 1.26-1.26 1.26 1.26 0 0 1 1.24 1.26zM647.92 382v-.9a1.28 1.28 0 0 1 1.26-1.26 1.26 1.26 0 0 1 1.24 1.26v.9a1.26 1.26 0 0 1-1.24 1.26 1.28 1.28 0 0 1-1.26-1.26z"/></g></svg>