<svg xmlns="http://www.w3.org/2000/svg" viewBox="0 0 700 500"><path fill="#f2f2f2" d="M0 0h700v500H0z" data-name="Ebene 1"/><g data-name="Ebene 2"><path d="M176.7 221a5.53 5.53 0 0 1 3.92 1.68l21.7 21.7h35.84l20-20v-42l-20-20.16h-35.84l-21.7 21.7a5.53 5.53 0 0 1-3.92 1.68 5.64 5.64 0 0 1-5.7-5.6v-70a5.9 5.9 0 0 1 5.6-5.6h87.22a5.6 5.6 0 1 1 0 11.2h-81.66v50.82L196 152.7a5.78 5.78 0 0 1 3.92-1.68h40.48a6.34 6.34 0 0 1 4.06 1.68l23.24 23.38a5.78 5.78 0 0 1 1.68 3.92v46.62a6.34 6.34 0 0 1-1.68 4.06l-23.24 23.24a6.1 6.1 0 0 1-4.06 1.68h-40.46a6 6 0 0 1-3.92-1.68l-23.38-23.24a5.69 5.69 0 0 1-1.54-4.06 5.62 5.62 0 0 1 5.6-5.62zM374.08 253.92a6.1 6.1 0 0 1-4.08 1.68h-40.44a6 6 0 0 1-3.92-1.68l-23.38-23.24a6.1 6.1 0 0 1-1.68-4.06v-93.24a6.34 6.34 0 0 1 1.68-4.06l23.38-23.24a5.78 5.78 0 0 1 3.92-1.68H370a6.34 6.34 0 0 1 4.06 1.68l23.24 23.24a6.1 6.1 0 0 1 1.68 4.06v93.24a6.34 6.34 0 0 1-1.68 4.06zm13.72-118.3l-20-20h-35.86l-20.16 20v88.76l20.16 20h35.84l20-20zM503.71 253.92a6.1 6.1 0 0 1-4.06 1.68h-40.46a6 6 0 0 1-3.92-1.68l-23.38-23.24a6.1 6.1 0 0 1-1.68-4.06v-93.24a6.34 6.34 0 0 1 1.68-4.06l23.38-23.24a5.78 5.78 0 0 1 3.92-1.68h40.46a6.34 6.34 0 0 1 4.06 1.68l23.24 23.24a6.1 6.1 0 0 1 1.68 4.06v93.24a6.34 6.34 0 0 1-1.68 4.06zm13.72-118.3l-20-20h-35.86l-20.16 20v88.76l20.16 20h35.84l20-20zM49.77 322v8.28h2.63a.72.72 0 1 1 0 1.44h-2.63V340a.72.72 0 0 1-1.44 0v-8.28H45.7a.72.72 0 1 1 0-1.44h2.63V322a.72.72 0 1 1 1.44 0zM58.12 322v10.26l1.78-1.76a.74.74 0 0 1 .5-.22h5.2a.77.77 0 0 1 .5.22l3 3a.78.78 0 0 1 .22.52v6a.72.72 0 0 1-1.44 0v-5.71l-2.57-2.57H60.7l-2.57 2.57V340a.72.72 0 0 1-1.44 0v-18a.72.72 0 1 1 1.44 0zM85.84 337a.73.73 0 0 1-.2.52l-3 3a.77.77 0 0 1-.5.22h-5.23a.74.74 0 0 1-.5-.22l-3-3a.81.81 0 0 1-.2-.52v-3a.8.8 0 0 1 .2-.52l3-3a.77.77 0 0 1 .5-.22h5.22a.74.74 0 0 1 .5.22l3 3a.72.72 0 0 1 .2.52.7.7 0 0 1-.72.72H74.64v2l2.57 2.58h4.61l2.79-2.79a.71.71 0 0 1 .5-.22.72.72 0 0 1 .73.71zm-4-5.28h-4.63l-1.57 1.57h7.74zM110.1 334.72a.71.71 0 0 1-.5-.22l-2.79-2.79h-4.61l-1.91 1.91 10 2.68a.71.71 0 0 1 .52.7.69.69 0 0 1-.2.5l-3 3a.74.74 0 0 1-.5.22h-5.22a.77.77 0 0 1-.5-.22l-3-3a.73.73 0 0 1-.2-.52.72.72 0 0 1 .72-.72.71.71 0 0 1 .5.22l2.79 2.79h4.61l1.91-1.91-10-2.68a.74.74 0 0 1-.52-.72.68.68 0 0 1 .2-.49l3-3a.77.77 0 0 1 .5-.22h5.22a.74.74 0 0 1 .5.22l3 3a.73.73 0 0 1 .2.52.72.72 0 0 1-.72.73zM127.21 337a.73.73 0 0 1-.2.52l-3 3a.77.77 0 0 1-.5.22h-5.22a.74.74 0 0 1-.5-.22l-3-3a.81.81 0 0 1-.2-.52v-3a.8.8 0 0 1 .2-.52l3-3a.77.77 0 0 1 .5-.22h5.22a.74.74 0 0 1 .5.22l3 3a.72.72 0 0 1 .2.52.7.7 0 0 1-.72.72H116v2l2.57 2.58h4.61l2.79-2.79a.71.71 0 0 1 .5-.22.72.72 0 0 1 .74.71zm-4-5.28h-4.61l-1.6 1.56h7.74zM132.68 331v1.26l1.78-1.76a.74.74 0 0 1 .5-.22h3.71a.72.72 0 1 1 0 1.44h-3.4l-2.59 2.57V340a.72.72 0 0 1-1.44 0v-9a.72.72 0 0 1 1.44 0zM143 330.28a.75.75 0 0 1 .61.34l5 8 5-8a.75.75 0 0 1 .61-.34.73.73 0 0 1 .72.72.7.7 0 0 1-.11.38l-5.6 9a.72.72 0 0 1-.63.32.66.66 0 0 1-.59-.32l-5.6-9a.71.71 0 0 1-.11-.38.72.72 0 0 1 .7-.72zM170.13 337a.73.73 0 0 1-.2.52l-3 3a.77.77 0 0 1-.5.22h-5.23a.74.74 0 0 1-.5-.22l-3-3a.81.81 0 0 1-.2-.52v-3a.8.8 0 0 1 .2-.52l3-3a.77.77 0 0 1 .5-.22h5.22a.74.74 0 0 1 .5.22l3 3a.72.72 0 0 1 .2.52.7.7 0 0 1-.72.72h-10.47v2l2.57 2.58h4.61l2.79-2.79a.71.71 0 0 1 .5-.22.72.72 0 0 1 .73.71zm-4-5.28h-4.61l-1.57 1.57h7.74zM175.6 331v1.26l1.78-1.76a.74.74 0 0 1 .5-.22h3.71a.72.72 0 1 1 0 1.44h-3.4l-2.59 2.57V340a.72.72 0 0 1-1.44 0v-9a.72.72 0 0 1 1.44 0zM206.62 337a.73.73 0 0 1-.2.52l-3 3a.77.77 0 0 1-.5.22h-5.22a.74.74 0 0 1-.5-.22l-3-3a.81.81 0 0 1-.2-.52v-3a.8.8 0 0 1 .2-.52l3-3a.77.77 0 0 1 .5-.22h5.22a.74.74 0 0 1 .5.22l3 3a.72.72 0 0 1 .2.52.7.7 0 0 1-.72.72h-10.48v2l2.57 2.58h4.61l2.79-2.79a.71.71 0 0 1 .5-.22.72.72 0 0 1 .73.71zm-4-5.28H198l-1.57 1.57h7.74zM212.09 331v1.26l1.78-1.76a.74.74 0 0 1 .5-.22h5.2a.81.81 0 0 1 .52.22l3 3a.78.78 0 0 1 .22.52v6a.72.72 0 0 1-1.44 0v-5.71l-2.57-2.57h-4.61l-2.59 2.57V340a.72.72 0 0 1-1.44 0v-9a.72.72 0 0 1 1.44 0zM239.09 334.72a.71.71 0 0 1-.5-.22l-2.79-2.79h-4.61l-2.57 2.57v2.41l2.57 2.58h4.61l2.79-2.79a.71.71 0 0 1 .5-.22.72.72 0 0 1 .72.72.73.73 0 0 1-.2.52l-3 3a.77.77 0 0 1-.5.22h-5.22a.74.74 0 0 1-.5-.22l-3-3a.81.81 0 0 1-.2-.52v-3a.76.76 0 0 1 .2-.52l3-3a.77.77 0 0 1 .5-.22h5.22a.74.74 0 0 1 .5.22l3 3a.73.73 0 0 1 .2.52.72.72 0 0 1-.72.74zM256.2 334v3a.76.76 0 0 1-.2.52l-3 3a.77.77 0 0 1-.5.22h-5.22a.74.74 0 0 1-.5-.22l-3-3a.81.81 0 0 1-.2-.52v-3a.76.76 0 0 1 .2-.52l3-3a.77.77 0 0 1 .5-.22h5.22a.74.74 0 0 1 .5.22l3 3a.8.8 0 0 1 .2.52zm-4-2.29h-4.61l-2.59 2.58v2.41l2.57 2.58h4.61l2.58-2.58v-2.41zM261.55 331v5.71l2.57 2.58h4.61l2.57-2.58V331a.72.72 0 0 1 1.44 0v6a.76.76 0 0 1-.2.52l-3 3a.77.77 0 0 1-.5.22h-5.22a.74.74 0 0 1-.5-.22l-3-3a.81.81 0 0 1-.2-.52v-6a.72.72 0 0 1 1.44 0zM278.54 331v1.26l1.78-1.76a.74.74 0 0 1 .5-.22H286a.81.81 0 0 1 .52.22l3 3a.78.78 0 0 1 .22.52v6a.72.72 0 0 1-1.44 0v-5.71l-2.57-2.57h-4.61l-2.59 2.57V340a.72.72 0 0 1-1.44 0v-9a.72.72 0 0 1 1.44 0zM296.83 322v8.28h2.63a.72.72 0 1 1 0 1.44h-2.63V340a.72.72 0 0 1-1.44 0v-8.28h-2.63a.72.72 0 1 1 0-1.44h2.63V322a.72.72 0 1 1 1.44 0zM315.1 337a.73.73 0 0 1-.2.52l-3 3a.77.77 0 0 1-.5.22h-5.22a.74.74 0 0 1-.5-.22l-3-3a.81.81 0 0 1-.2-.52v-3a.8.8 0 0 1 .2-.52l3-3a.77.77 0 0 1 .5-.22h5.22a.74.74 0 0 1 .5.22l3 3a.72.72 0 0 1 .2.52.7.7 0 0 1-.72.72H303.9v2l2.57 2.58h4.61l2.79-2.79a.71.71 0 0 1 .5-.22.72.72 0 0 1 .73.71zm-4-5.28h-4.61l-1.57 1.57h7.74zM320.57 331v1.26l1.78-1.76a.74.74 0 0 1 .5-.22h3.71a.72.72 0 1 1 0 1.44h-3.4l-2.59 2.57V340a.72.72 0 0 1-1.44 0v-9a.72.72 0 0 1 1.44 0zM342.38 337a.73.73 0 0 1-.2.52l-3 3a.77.77 0 0 1-.5.22h-5.22a.74.74 0 0 1-.5-.22l-3-3a.81.81 0 0 1-.2-.52v-3a.8.8 0 0 1 .2-.52l3-3a.77.77 0 0 1 .5-.22h5.22a.74.74 0 0 1 .5.22l3 3a.72.72 0 0 1 .2.52.7.7 0 0 1-.72.72h-10.48v2l2.57 2.58h4.61l2.79-2.79a.71.71 0 0 1 .5-.22.72.72 0 0 1 .73.71zm-4-5.28h-4.61l-1.57 1.57h7.74zM358.77 322v18a.72.72 0 0 1-1.44 0v-1.26l-1.76 1.76a.77.77 0 0 1-.5.22h-5.22a.74.74 0 0 1-.5-.22l-3-3a.81.81 0 0 1-.2-.52v-3a.76.76 0 0 1 .2-.52l3-3a.77.77 0 0 1 .5-.22h5.22a.74.74 0 0 1 .5.22l1.76 1.76V322a.72.72 0 1 1 1.44 0zm-4 9.72h-4.61l-2.57 2.57v2.41l2.57 2.58h4.61l2.58-2.58v-2.41zM384.08 331v9a.72.72 0 0 1-1.44 0v-1.26l-1.76 1.76a.74.74 0 0 1-.5.22h-5.22a.77.77 0 0 1-.5-.22l-3-3a.76.76 0 0 1-.2-.52v-3a.8.8 0 0 1 .2-.52l3-3a.74.74 0 0 1 .5-.22h5.22a.77.77 0 0 1 .5.22l1.76 1.76V331a.72.72 0 0 1 1.44 0zm-4 .72h-4.61l-2.57 2.57v2.41l2.57 2.58h4.61l2.58-2.58v-2.41zM390.07 331v1.26l1.78-1.76a.74.74 0 0 1 .5-.22h5.2a.81.81 0 0 1 .52.22l3 3a.78.78 0 0 1 .22.52v6a.72.72 0 0 1-1.44 0v-5.71l-2.57-2.57h-4.61l-2.59 2.57V340a.72.72 0 0 1-1.44 0v-9a.72.72 0 0 1 1.44 0zM415.05 331v5.71l2.57 2.58h4.61l2.57-2.58V331a.72.72 0 0 1 1.44 0v6a.76.76 0 0 1-.2.52l-3 3a.77.77 0 0 1-.5.22h-5.22a.74.74 0 0 1-.5-.22l-3-3a.81.81 0 0 1-.2-.52v-6a.72.72 0 0 1 1.44 0zM432 331v1.26l1.78-1.76a.74.74 0 0 1 .5-.22h5.2a.81.81 0 0 1 .52.22l3 3a.78.78 0 0 1 .22.52v6a.72.72 0 0 1-1.44 0v-5.71l-2.57-2.57h-4.61l-2.6 2.55V340a.72.72 0 0 1-1.44 0v-9a.72.72 0 0 1 1.44 0zM459.76 337a.73.73 0 0 1-.2.52l-3 3a.77.77 0 0 1-.5.22h-5.22a.74.74 0 0 1-.5-.22l-3-3a.81.81 0 0 1-.2-.52v-3a.8.8 0 0 1 .2-.52l3-3a.77.77 0 0 1 .5-.22H456a.74.74 0 0 1 .5.22l3 3a.72.72 0 0 1 .2.52.7.7 0 0 1-.72.72h-10.42v2l2.57 2.58h4.61l2.79-2.79a.71.71 0 0 1 .5-.22.72.72 0 0 1 .73.71zm-4-5.28h-4.61l-1.57 1.57h7.74zM463.16 330.28a.69.69 0 0 1 .45.16l5.15 4.14 5.15-4.14a.69.69 0 0 1 .45-.16.72.72 0 0 1 .72.72.68.68 0 0 1-.25.56l-4.92 3.94 4.92 3.94a.68.68 0 0 1 .25.56.72.72 0 0 1-.72.72.69.69 0 0 1-.45-.16l-5.15-4.14-5.15 4.14a.69.69 0 0 1-.45.16.72.72 0 0 1-.72-.72.7.7 0 0 1 .27-.56l4.9-3.94-4.9-3.94a.7.7 0 0 1-.27-.56.72.72 0 0 1 .72-.72zM480.26 331v1.26l1.78-1.76a.74.74 0 0 1 .5-.22h5.2a.81.81 0 0 1 .52.22l3 3a.78.78 0 0 1 .22.52v3a.82.82 0 0 1-.22.52l-3 3a.78.78 0 0 1-.52.22h-5.2a.77.77 0 0 1-.5-.22l-1.78-1.76V349a.72.72 0 0 1-1.44 0v-18a.72.72 0 0 1 1.44 0zm2.59 8.28h4.61l2.57-2.58v-2.41l-2.57-2.57h-4.61l-2.59 2.57v2.41zM507.87 337a.73.73 0 0 1-.2.52l-3 3a.77.77 0 0 1-.5.22h-5.22a.74.74 0 0 1-.5-.22l-3-3a.81.81 0 0 1-.2-.52v-3a.8.8 0 0 1 .2-.52l3-3a.77.77 0 0 1 .5-.22h5.22a.74.74 0 0 1 .5.22l3 3a.72.72 0 0 1 .2.52.7.7 0 0 1-.72.72h-10.48v2l2.57 2.58h4.61l2.79-2.79a.71.71 0 0 1 .5-.22.72.72 0 0 1 .73.71zm-4-5.28h-4.61l-1.57 1.57h7.74zM523.54 334.72a.71.71 0 0 1-.5-.22l-2.79-2.79h-4.61l-2.57 2.57v2.41l2.57 2.58h4.61l2.79-2.79a.71.71 0 0 1 .5-.22.72.72 0 0 1 .72.72.73.73 0 0 1-.2.52l-3 3a.77.77 0 0 1-.5.22h-5.22a.74.74 0 0 1-.5-.22l-3-3a.81.81 0 0 1-.2-.52v-3a.76.76 0 0 1 .2-.52l3-3a.77.77 0 0 1 .5-.22h5.22a.74.74 0 0 1 .5.22l3 3a.73.73 0 0 1 .2.52.72.72 0 0 1-.72.74zM531.36 322v8.28H534a.72.72 0 1 1 0 1.44h-2.63V340a.72.72 0 0 1-1.44 0v-8.28h-2.63a.72.72 0 1 1 0-1.44h2.63V322a.72.72 0 1 1 1.44 0zM549.62 337a.73.73 0 0 1-.2.52l-3 3a.77.77 0 0 1-.5.22h-5.22a.74.74 0 0 1-.5-.22l-3-3a.81.81 0 0 1-.2-.52v-3a.8.8 0 0 1 .2-.52l3-3a.77.77 0 0 1 .5-.22h5.22a.74.74 0 0 1 .5.22l3 3a.72.72 0 0 1 .2.52.7.7 0 0 1-.72.72h-10.48v2l2.57 2.58h4.61l2.79-2.79a.71.71 0 0 1 .5-.22.72.72 0 0 1 .73.71zm-4-5.28H541l-1.57 1.57h7.74zM566 322v18a.72.72 0 0 1-1.44 0v-1.26l-1.76 1.76a.77.77 0 0 1-.5.22h-5.22a.74.74 0 0 1-.5-.22l-3-3a.81.81 0 0 1-.2-.52v-3a.76.76 0 0 1 .2-.52l3-3a.77.77 0 0 1 .5-.22h5.22a.74.74 0 0 1 .5.22l1.76 1.76V322a.72.72 0 1 1 1.44 0zm-4 9.72h-4.61l-2.57 2.57v2.41l2.57 2.58H562l2.57-2.58v-2.41zM591.32 337a.73.73 0 0 1-.2.52l-3 3a.77.77 0 0 1-.5.22h-5.22a.74.74 0 0 1-.5-.22l-3-3a.81.81 0 0 1-.2-.52v-3a.8.8 0 0 1 .2-.52l3-3a.77.77 0 0 1 .5-.22h5.22a.74.74 0 0 1 .5.22l3 3a.72.72 0 0 1 .2.52.7.7 0 0 1-.72.72h-10.48v2l2.57 2.58h4.61l2.79-2.79a.71.71 0 0 1 .5-.22.72.72 0 0 1 .73.71zm-4-5.28h-4.62l-1.57 1.57h7.74zM596.79 331v1.26l1.78-1.76a.74.74 0 0 1 .5-.22h3.71a.72.72 0 1 1 0 1.44h-3.4l-2.59 2.57V340a.72.72 0 0 1-1.44 0v-9a.72.72 0 0 1 1.44 0zM608.5 331v1.26l1.78-1.76a.74.74 0 0 1 .5-.22h3.71a.72.72 0 1 1 0 1.44h-3.4l-2.59 2.57V340a.72.72 0 0 1-1.44 0v-9a.72.72 0 0 1 1.44 0zM630.31 334v3a.76.76 0 0 1-.2.52l-3 3a.77.77 0 0 1-.5.22h-5.22a.74.74 0 0 1-.5-.22l-3-3a.81.81 0 0 1-.2-.52v-3a.76.76 0 0 1 .2-.52l3-3a.77.77 0 0 1 .5-.22h5.22a.74.74 0 0 1 .5.22l3 3a.8.8 0 0 1 .2.52zm-4-2.29h-4.61l-2.57 2.57v2.41l2.57 2.58h4.61l2.57-2.58v-2.41zM635.91 331v1.26l1.78-1.76a.74.74 0 0 1 .5-.22h3.71a.72.72 0 1 1 0 1.44h-3.4l-2.59 2.57V340a.72.72 0 0 1-1.44 0v-9a.72.72 0 0 1 1.44 0zM643.44 340v-.9a.72.72 0 0 1 1.44 0v.9a.72.72 0 0 1-1.44 0zM50 372.28a.74.74 0 0 1 .68.47l2.68 7.2 2.7-7.2a.67.67 0 0 1 .65-.45.72.72 0 0 1 .68.45l2.7 7.2 2.68-7.2a.74.74 0 0 1 .68-.47.72.72 0 0 1 .72.72.57.57 0 0 1-.05.25l-3.37 9a.72.72 0 0 1-.68.45.69.69 0 0 1-.67-.45L56.77 375l-2.68 7.2a.75.75 0 0 1-.7.45.67.67 0 0 1-.65-.45l-3.37-9a.57.57 0 0 1-.05-.25.72.72 0 0 1 .68-.67zM79.84 379a.73.73 0 0 1-.2.52l-3 3a.77.77 0 0 1-.5.22h-5.23a.74.74 0 0 1-.5-.22l-3-3a.81.81 0 0 1-.2-.52v-3a.8.8 0 0 1 .2-.52l3-3a.77.77 0 0 1 .5-.22h5.22a.74.74 0 0 1 .5.22l3 3a.72.72 0 0 1 .2.52.7.7 0 0 1-.72.72H68.64v2l2.57 2.58h4.61l2.79-2.79a.71.71 0 0 1 .5-.22.72.72 0 0 1 .73.71zm-4-5.28h-4.63l-1.57 1.57h7.74zM94.29 364v10.26l1.78-1.76a.74.74 0 0 1 .5-.22h5.2a.77.77 0 0 1 .5.22l3 3a.78.78 0 0 1 .22.52v6a.72.72 0 0 1-1.44 0v-5.71l-2.57-2.57h-4.62l-2.57 2.57V382a.72.72 0 0 1-1.44 0v-18a.72.72 0 1 1 1.44 0zM122 373v9a.72.72 0 0 1-1.44 0v-1.26l-1.76 1.76a.74.74 0 0 1-.5.22h-5.22a.77.77 0 0 1-.5-.22l-3-3a.76.76 0 0 1-.2-.52v-3a.8.8 0 0 1 .2-.52l3-3a.74.74 0 0 1 .5-.22h5.22a.77.77 0 0 1 .5.22l1.76 1.76V373a.72.72 0 0 1 1.44 0zm-4 .72h-4.61l-2.57 2.57v2.41l2.57 2.58H118l2.57-2.58v-2.41zM126.13 372.28a.75.75 0 0 1 .61.34l5 8 5-8a.75.75 0 0 1 .61-.34.73.73 0 0 1 .72.72.7.7 0 0 1-.11.38l-5.6 9a.72.72 0 0 1-.63.32.66.66 0 0 1-.59-.32l-5.6-9a.7.7 0 0 1-.11-.38.72.72 0 0 1 .7-.72zM153.25 379a.73.73 0 0 1-.2.52l-3 3a.77.77 0 0 1-.5.22h-5.22a.74.74 0 0 1-.5-.22l-3-3a.81.81 0 0 1-.2-.52v-3a.8.8 0 0 1 .2-.52l3-3a.77.77 0 0 1 .5-.22h5.22a.74.74 0 0 1 .5.22l3 3a.72.72 0 0 1 .2.52.7.7 0 0 1-.72.72h-10.48v2l2.57 2.58h4.61l2.79-2.79a.71.71 0 0 1 .5-.22.72.72 0 0 1 .73.71zm-4-5.28h-4.61l-1.57 1.57h7.74zM167.7 364v10.26l1.78-1.76a.77.77 0 0 1 .5-.22h5.2a.74.74 0 0 1 .5.22l3 3a.76.76 0 0 1 .22.52v3a.79.79 0 0 1-.22.52l-3 3a.77.77 0 0 1-.5.22H170a.74.74 0 0 1-.5-.22l-1.78-1.76V382a.72.72 0 0 1-1.44 0v-18a.72.72 0 1 1 1.44 0zm7.2 9.72h-4.63l-2.57 2.57v2.41l2.57 2.58h4.63l2.57-2.58v-2.41zM195.3 379a.73.73 0 0 1-.2.52l-3 3a.77.77 0 0 1-.5.22h-5.22a.74.74 0 0 1-.5-.22l-3-3a.81.81 0 0 1-.2-.52v-3a.8.8 0 0 1 .2-.52l3-3a.77.77 0 0 1 .5-.22h5.22a.74.74 0 0 1 .5.22l3 3a.72.72 0 0 1 .2.52.7.7 0 0 1-.72.72H184.1v2l2.57 2.58h4.61l2.79-2.79a.71.71 0 0 1 .5-.22.72.72 0 0 1 .73.71zm-4-5.28h-4.61l-1.57 1.57h7.74zM211.7 379a.73.73 0 0 1-.2.52l-3 3a.77.77 0 0 1-.5.22h-5.22a.74.74 0 0 1-.5-.22l-3-3a.81.81 0 0 1-.2-.52v-3a.8.8 0 0 1 .2-.52l3-3a.77.77 0 0 1 .5-.22H208a.74.74 0 0 1 .5.22l3 3a.72.72 0 0 1 .2.52.7.7 0 0 1-.72.72H200.5v2l2.57 2.58h4.61l2.79-2.79a.71.71 0 0 1 .5-.22.72.72 0 0 1 .73.71zm-4-5.28h-4.61l-1.57 1.57h7.74zM217.17 373v1.26l1.78-1.76a.74.74 0 0 1 .5-.22h5.2a.81.81 0 0 1 .52.22l3 3a.78.78 0 0 1 .22.52v6a.72.72 0 0 1-1.44 0v-5.71l-2.57-2.57h-4.61l-2.59 2.57V382a.72.72 0 0 1-1.44 0v-9a.72.72 0 0 1 1.44 0zM241.12 367.9v-.9a.72.72 0 1 1 1.44 0v.9a.72.72 0 1 1-1.44 0zm0 14.1v-9a.72.72 0 0 1 1.44 0v9a.72.72 0 0 1-1.44 0zM248.58 373v1.26l1.78-1.76a.74.74 0 0 1 .5-.22h5.2a.81.81 0 0 1 .52.22l3 3a.78.78 0 0 1 .22.52v6a.72.72 0 0 1-1.44 0v-5.71l-2.57-2.57h-4.61l-2.59 2.57V382a.72.72 0 0 1-1.44 0v-9a.72.72 0 0 1 1.44 0zM268.56 364a.71.71 0 0 1-.22.5l-2.79 2.79v5h2.29a.72.72 0 1 1 0 1.44h-2.29V382a.72.72 0 0 1-1.44 0v-15a.78.78 0 0 1 .22-.52l3-3a.71.71 0 0 1 .5-.22.72.72 0 0 1 .73.74zM283.41 376v3a.76.76 0 0 1-.2.52l-3 3a.77.77 0 0 1-.5.22h-5.22a.74.74 0 0 1-.5-.22l-3-3a.81.81 0 0 1-.2-.52v-3a.76.76 0 0 1 .2-.52l3-3a.77.77 0 0 1 .5-.22h5.22a.74.74 0 0 1 .5.22l3 3a.8.8 0 0 1 .2.52zm-4-2.29h-4.61l-2.57 2.57v2.41l2.57 2.58h4.61l2.57-2.58v-2.41zM289 373v1.26l1.78-1.76a.74.74 0 0 1 .5-.22H295a.72.72 0 1 1 0 1.44h-3.4l-2.6 2.57V382a.72.72 0 0 1-1.44 0v-9a.72.72 0 0 1 1.44 0zM299.28 382v-9a.72.72 0 0 1 1.44 0v1.39l2.18-1.93a.7.7 0 0 1 .47-.18.77.77 0 0 1 .49.18l2.88 2.58 2.88-2.58a.74.74 0 0 1 .49-.18.77.77 0 0 1 .49.18l3.37 3a.74.74 0 0 1 .23.54v6a.72.72 0 0 1-1.44 0v-5.67L310.1 374l-2.65 2.36V382a.72.72 0 0 1-1.44 0v-5.67l-2.64-2.33-2.65 2.36V382a.72.72 0 0 1-1.44 0zM330.7 379a.73.73 0 0 1-.2.52l-3 3a.77.77 0 0 1-.5.22h-5.22a.74.74 0 0 1-.5-.22l-3-3a.81.81 0 0 1-.2-.52v-3a.8.8 0 0 1 .2-.52l3-3a.77.77 0 0 1 .5-.22H327a.74.74 0 0 1 .5.22l3 3a.72.72 0 0 1 .2.52.7.7 0 0 1-.72.72H319.5v2l2.57 2.58h4.61l2.79-2.79a.71.71 0 0 1 .5-.22.72.72 0 0 1 .73.71zm-4-5.28h-4.61l-1.57 1.57h7.74zM347.09 364v18a.72.72 0 0 1-1.44 0v-1.26l-1.76 1.76a.77.77 0 0 1-.5.22h-5.22a.74.74 0 0 1-.5-.22l-3-3a.81.81 0 0 1-.2-.52v-3a.76.76 0 0 1 .2-.52l3-3a.77.77 0 0 1 .5-.22h5.22a.74.74 0 0 1 .5.22l1.76 1.76V364a.72.72 0 1 1 1.44 0zm-4 9.72h-4.61l-2.57 2.57v2.41l2.57 2.58h4.61l2.58-2.58v-2.41zM372.4 373v9a.72.72 0 0 1-1.44 0v-1.26l-1.76 1.76a.74.74 0 0 1-.5.22h-5.22a.77.77 0 0 1-.5-.22l-3-3a.76.76 0 0 1-.2-.52v-3a.8.8 0 0 1 .2-.52l3-3a.74.74 0 0 1 .5-.22h5.22a.77.77 0 0 1 .5.22l1.76 1.76V373a.72.72 0 0 1 1.44 0zm-4 .72h-4.61l-2.57 2.57v2.41l2.57 2.58h4.61l2.57-2.58v-2.41zM378.4 373v1.26l1.78-1.76a.74.74 0 0 1 .5-.22h5.2a.81.81 0 0 1 .52.22l3 3a.78.78 0 0 1 .22.52v6a.72.72 0 0 1-1.44 0v-5.71l-2.57-2.57H381l-2.59 2.57V382a.72.72 0 0 1-1.44 0v-9a.72.72 0 0 1 1.44 0zM406.11 364v18a.72.72 0 0 1-1.44 0v-1.26l-1.76 1.76a.77.77 0 0 1-.5.22h-5.22a.74.74 0 0 1-.5-.22l-3-3a.81.81 0 0 1-.2-.52v-3a.76.76 0 0 1 .2-.52l3-3a.77.77 0 0 1 .5-.22h5.22a.74.74 0 0 1 .5.22l1.76 1.76V364a.72.72 0 1 1 1.44 0zm-4 9.72h-4.61l-2.57 2.57v2.41l2.57 2.58h4.61l2.57-2.58v-2.41zM431.42 373v9a.72.72 0 0 1-1.44 0v-1.26l-1.76 1.76a.74.74 0 0 1-.5.22h-5.22a.77.77 0 0 1-.5-.22l-3-3a.76.76 0 0 1-.2-.52v-3a.8.8 0 0 1 .2-.52l3-3a.74.74 0 0 1 .5-.22h5.22a.77.77 0 0 1 .5.22l1.76 1.76V373a.72.72 0 0 1 1.44 0zm-4 .72h-4.62l-2.57 2.57v2.41l2.57 2.58h4.61l2.58-2.58v-2.41zM437.41 373v1.26l1.78-1.76a.74.74 0 0 1 .5-.22h3.71a.72.72 0 1 1 0 1.44H440l-2.59 2.57V382a.72.72 0 0 1-1.44 0v-9a.72.72 0 0 1 1.44 0zM459.22 379a.73.73 0 0 1-.2.52l-3 3a.77.77 0 0 1-.5.22h-5.22a.74.74 0 0 1-.5-.22l-3-3a.81.81 0 0 1-.2-.52v-3a.8.8 0 0 1 .2-.52l3-3a.77.77 0 0 1 .5-.22h5.22a.74.74 0 0 1 .5.22l3 3a.72.72 0 0 1 .2.52.7.7 0 0 1-.72.72H448v2l2.57 2.58h4.61l2.79-2.79a.71.71 0 0 1 .5-.22.72.72 0 0 1 .75.71zm-4-5.28h-4.62l-1.6 1.56h7.74zM472.2 382v-18a.72.72 0 1 1 1.44 0v18a.72.72 0 0 1-1.44 0zM490.55 376v3a.76.76 0 0 1-.2.52l-3 3a.77.77 0 0 1-.5.22h-5.22a.74.74 0 0 1-.5-.22l-3-3a.81.81 0 0 1-.2-.52v-3a.76.76 0 0 1 .2-.52l3-3a.77.77 0 0 1 .5-.22h5.22a.74.74 0 0 1 .5.22l3 3a.8.8 0 0 1 .2.52zm-4-2.29h-4.61l-2.57 2.57v2.41l2.57 2.58h4.61l2.57-2.58v-2.41zM506.94 376v3a.76.76 0 0 1-.2.52l-3 3a.77.77 0 0 1-.5.22H498a.74.74 0 0 1-.5-.22l-3-3a.81.81 0 0 1-.2-.52v-3a.76.76 0 0 1 .2-.52l3-3a.77.77 0 0 1 .5-.22h5.22a.74.74 0 0 1 .5.22l3 3a.8.8 0 0 1 .22.52zm-4-2.29h-4.61l-2.57 2.57v2.41l2.57 2.58h4.61l2.57-2.58v-2.41zM523.93 373a.72.72 0 0 1-.45.67l-9.54 3.84 9.54 3.83a.72.72 0 0 1 .45.67.74.74 0 0 1-.74.72.63.63 0 0 1-.25-.05l-10.23-4.11V382a.72.72 0 0 1-1.44 0v-18a.72.72 0 1 1 1.44 0v12.44l10.23-4.11a.63.63 0 0 1 .25-.05.74.74 0 0 1 .74.72zM527.55 367.9v-.9a.72.72 0 1 1 1.44 0v.9a.72.72 0 1 1-1.44 0zm0 14.1v-9a.72.72 0 0 1 1.44 0v9a.72.72 0 0 1-1.44 0zM535 373v1.26l1.78-1.76a.74.74 0 0 1 .5-.22h5.2a.81.81 0 0 1 .52.22l3 3a.78.78 0 0 1 .22.52v6a.72.72 0 0 1-1.44 0v-5.71l-2.57-2.57h-4.61l-2.6 2.55V382a.72.72 0 0 1-1.44 0v-9a.72.72 0 0 1 1.44 0zM550.8 387.28a.71.71 0 0 1 .5.22l2.79 2.79h4.61l2.57-2.57v-7l-1.76 1.76a.77.77 0 0 1-.5.22h-5.22a.74.74 0 0 1-.5-.22l-3-3a.81.81 0 0 1-.2-.52v-3a.76.76 0 0 1 .2-.52l3-3a.77.77 0 0 1 .5-.22H559a.74.74 0 0 1 .5.22l1.76 1.76V373a.72.72 0 0 1 1.44 0v15a.8.8 0 0 1-.2.52l-3 3a.74.74 0 0 1-.5.22h-5.22a.77.77 0 0 1-.5-.22l-3-3a.73.73 0 0 1-.2-.52.72.72 0 0 1 .72-.72zm7.9-13.56h-4.6l-2.57 2.57v2.41l2.57 2.58h4.61l2.57-2.58v-2.41zM575.8 367.9v-.9a.72.72 0 1 1 1.44 0v.9a.72.72 0 1 1-1.44 0zm0 14.1v-9a.72.72 0 0 1 1.44 0v9a.72.72 0 0 1-1.44 0zM583.26 373v1.26l1.78-1.76a.74.74 0 0 1 .5-.22h5.2a.81.81 0 0 1 .52.22l3 3a.78.78 0 0 1 .22.52v6a.72.72 0 0 1-1.44 0v-5.71l-2.57-2.57h-4.61l-2.59 2.57V382a.72.72 0 0 1-1.44 0v-9a.72.72 0 0 1 1.44 0zM601.56 364v8.28h2.63a.72.72 0 1 1 0 1.44h-2.63V382a.72.72 0 0 1-1.44 0v-8.28h-2.63a.72.72 0 1 1 0-1.44h2.63V364a.72.72 0 1 1 1.44 0zM619.82 376v3a.76.76 0 0 1-.2.52l-3 3a.77.77 0 0 1-.5.22h-5.22a.74.74 0 0 1-.5-.22l-3-3a.81.81 0 0 1-.2-.52v-3a.76.76 0 0 1 .2-.52l3-3a.77.77 0 0 1 .5-.22h5.22a.74.74 0 0 1 .5.22l3 3a.8.8 0 0 1 .2.52zm-4-2.29h-4.62l-2.57 2.57v2.41l2.57 2.58h4.61l2.58-2.58v-2.41zM632.58 367.9v-.9a.72.72 0 1 1 1.44 0v.9a.72.72 0 1 1-1.44 0zm0 14.1v-9a.72.72 0 0 1 1.44 0v9a.72.72 0 0 1-1.44 0zM642.25 364v8.28h2.63a.72.72 0 1 1 0 1.44h-2.63V382a.72.72 0 0 1-1.44 0v-8.28h-2.63a.72.72 0 1 1 0-1.44h2.63V364a.72.72 0 1 1 1.44 0zM648 382v-.9a.72.72 0 0 1 1.44 0v.9a.72.72 0 0 1-1.44 0z"/></g></svg>