<svg xmlns="http://www.w3.org/2000/svg" viewBox="0 0 700 500"><path fill="#f2f2f2" d="M0 0h700v500H0z" data-name="Ebene 1"/><g data-name="Ebene 2"><path d="M182.06 178.6l-10.78 2.8v-70l10.78-2.8h87.22l-10.92 2.8h-76.3v60.34l15.12-13.58 10.82-2.94h35.42l25.9 23.38v46.62l-25.9 23.38-10.92 2.8h-35.32l-25.9-23.24 10.78-2.94L208 248.6h27.72l22.68-20.44V181.4l-25.9-23.24h-27.76zM373 108.6l25.9 23.24v93.38L373 248.6l-11 2.8h-35.24l-25.9-23.24v-93.38l25.9-23.38 10.78-2.8zm15 119.56v-93.38l-26-23.38h-27.68l-22.68 20.44v93.38l25.9 23.38h27.72zM502.54 108.6l25.9 23.24v93.38l-25.9 23.38-10.92 2.8h-35.28l-25.9-23.24v-93.38l25.9-23.38 10.78-2.8zm15 119.56v-93.38l-25.9-23.38H463.9l-22.68 20.44v93.38l25.9 23.38h27.72zM51.37 339.82l-1.39.36v-9h-3.34l1.39-.36h2v-8.64l1.39-.36v9h3.37l-1.4.36h-2zM59.73 333.81v6l-1.39.36v-18l1.39-.36v11.11l1.94-1.75 1.39-.36h4.54l3.33 3v6l-1.39.36v-6l-3.33-3h-3.56zM78.21 340.18l-3.33-3v-3l3.33-3 1.39-.36h4.56l3.33 3-1.39.38h-9.84v2.63l3.33 3h3.57l2.93-2.63 1.39-.38-3.33 3-1.4.36zm-1.95-6.37h9.42l-2.93-2.63h-3.57zM107.73 331.18h-3.57l-2.92 2.63 11.22 3-3.33 3-1.41.36h-4.54l-3.33-3 1.39-.38 3.33 3h3.57l2.93-2.63-11.22-3 3.33-3 1.39-.36h4.56l3.33 3-1.39.38zM119.58 340.18l-3.33-3v-3l3.33-3 1.39-.36h4.56l3.33 3-1.39.38h-9.83v2.63l3.33 3h3.57l2.93-2.63 1.39-.38-3.33 3-1.41.36zm-1.94-6.37h9.42l-2.93-2.63h-3.57zM134.25 333.81v6l-1.39.36v-9l1.39-.36v2.11l1.94-1.75 1.39-.36H141l-1.4.36h-2.39zM143.82 331.18l1.39-.36 5 8.07 4.79-7.71 1.4-.36-5.62 9-1.39.36zM162.06 340.18l-3.33-3v-3l3.33-3 1.39-.36H168l3.33 3-1.39.38h-9.83v2.63l3.33 3H167l2.93-2.63 1.39-.38-3.33 3-1.4.36zm-1.94-6.37h9.42l-2.93-2.63H163zM176.72 333.81v6l-1.39.36v-9l1.39-.36v2.11l1.95-1.75 1.39-.36h3.38l-1.4.36h-2.39zM198.46 340.18l-3.33-3v-3l3.33-3 1.39-.36h4.56l3.33 3-1.39.38h-9.83v2.63l3.33 3h3.57l2.93-2.63 1.39-.38-3.33 3-1.4.36zm-1.94-6.37h9.42l-2.94-2.63h-3.57zM213.12 333.81v6l-1.39.36v-9l1.39-.36v2.11l1.95-1.75 1.39-.36H221l3.33 3v6l-1.4.36v-6l-3.33-3H216zM236.15 331.18h-3.57l-2.92 2.63v3l3.33 3h3.57l2.93-2.63 1.39-.38-3.33 3-1.4.36h-4.54l-3.33-3v-3l3.33-3 1.39-.36h4.56l3.33 3-1.39.38zM257.28 336.81l-3.33 3-1.4.36H248l-3.33-3v-3l3.33-3 1.39-.36h4.56l3.33 3zm-1.39.38v-3l-3.35-3H249l-2.92 2.63v3l3.33 3H253zM262.61 336.81l3.33 3h3.57l2.93-2.63v-6l1.39-.36v6l-3.33 3-1.4.36h-4.54l-3.33-3v-6l1.39-.36zM279.62 333.81v6l-1.39.36v-9l1.39-.36v2.11l1.94-1.75 1.39-.36h4.55l3.33 3v6l-1.4.36v-6l-3.33-3h-3.56zM297.77 339.82l-1.39.36v-9H293l1.39-.36h2v-8.64l1.39-.36v9h3.37l-1.4.36h-2zM306.29 340.18l-3.33-3v-3l3.33-3 1.39-.36h4.55l3.33 3-1.39.38h-9.83v2.63l3.33 3h3.56l2.94-2.63 1.39-.38-3.33 3-1.4.36zm-1.94-6.37h9.42l-2.94-2.63h-3.56zM321 333.81v6l-1.39.36v-9l1.39-.36v2.11l1.95-1.75 1.39-.36h3.38l-1.4.36h-2.39zM333 340.18l-3.33-3v-3l3.33-3 1.39-.36h4.56l3.33 3-1.39.38h-9.83v2.63l3.33 3h3.57l2.93-2.63 1.39-.38-3.33 3-1.4.36zm-1.95-6.37h9.42l-2.93-2.63H334zM349.39 340.18l-3.33-3v-3l3.33-3 1.39-.36h4.56l1.94 1.75v-10.4l1.39-.36v18l-1.39.36v-2.11l-1.94 1.75-1.4.36zm7.89-3v-3l-3.35-3h-3.57l-2.92 2.63v3l3.33 3h3.57zM380.64 330.82l1.94 1.75v-1.39l1.39-.36v9l-1.39.36v-2.11l-1.94 1.75-1.4.36h-4.54l-3.33-3v-3l3.33-3 1.39-.36zm1.94 6.37v-3l-3.35-3h-3.57l-2.92 2.63v3l3.33 3h3.57zM390 333.81v6l-1.39.36v-9l1.39-.36v2.11l1.94-1.75 1.39-.36h4.55l3.33 3v6l-1.4.36v-6l-3.33-3h-3.56zM415 336.81l3.33 3h3.57l2.93-2.63v-6l1.39-.36v6l-3.33 3-1.4.36h-4.54l-3.33-3v-6l1.39-.36zM432 333.81v6l-1.39.36v-9l1.39-.36v2.11l1.95-1.75 1.39-.36h4.56l3.33 3v6l-1.4.36v-6l-3.33-3h-3.57zM450.46 340.18l-3.33-3v-3l3.33-3 1.39-.36h4.55l3.33 3-1.39.38h-9.83v2.63l3.33 3h3.56l2.94-2.63 1.39-.38-3.33 3-1.4.36zm-1.94-6.37h9.42l-2.94-2.63h-3.56zM474.91 339.82l-1.39.36-5.15-4.12-4.66 3.76-1.41.36 5.62-4.5-5.62-4.5 1.41-.36 5.13 4.12 4.68-3.76 1.39-.36-5.6 4.5zM482 340.18l-1.94-1.75v10.39l-1.39.36v-18l1.39-.36v2.11l1.94-1.75 1.39-.36H488l3.33 3v3l-3.33 3-1.4.36zm-1.94-6.37v3l3.33 3H487l2.92-2.63v-3l-3.33-3H483zM498.41 340.18l-3.33-3v-3l3.33-3 1.39-.36h4.56l3.33 3-1.39.38h-9.83v2.63l3.33 3h3.57l2.93-2.63 1.39-.38-3.33 3-1.41.36zm-1.94-6.37h9.42l-2.93-2.63h-3.57zM519.34 331.18h-3.57l-2.92 2.63v3l3.33 3h3.57l2.93-2.63 1.39-.38-3.33 3-1.41.36h-4.53l-3.33-3v-3l3.33-3 1.39-.36h4.56l3.33 3-1.39.38zM531 339.82l-1.39.36v-9h-3.35l1.39-.36h2v-8.64l1.39-.36v9h3.37l-1.4.36h-2zM539.54 340.18l-3.33-3v-3l3.33-3 1.39-.36h4.55l3.33 3-1.39.38h-9.83v2.63l3.33 3h3.56l2.94-2.63 1.39-.38-3.33 3-1.4.36zm-1.94-6.37h9.4l-2.94-2.63h-3.56zM555.93 340.18l-3.33-3v-3l3.33-3 1.39-.36h4.56l1.94 1.75v-10.4l1.39-.36v18l-1.39.36v-2.11l-1.94 1.75-1.4.36zm7.89-3v-3l-3.35-3h-3.57l-2.9 2.63v3l3.33 3h3.57zM581.24 340.18l-3.33-3v-3l3.33-3 1.39-.36h4.56l3.33 3-1.39.38h-9.83v2.63l3.33 3h3.57l2.93-2.63 1.39-.38-3.33 3-1.41.36zm-1.94-6.37h9.42l-2.93-2.63h-3.57zM595.9 333.81v6l-1.39.36v-9l1.39-.36v2.11l1.94-1.75 1.39-.36h3.38l-1.4.36h-2.39zM607.52 333.81v6l-1.39.36v-9l1.39-.36v2.11l1.95-1.75 1.39-.36h3.38l-1.4.36h-2.39zM628.84 336.81l-3.33 3-1.4.36h-4.54l-3.33-3v-3l3.33-3 1.39-.36h4.56l3.33 3zm-1.39.38v-3l-3.35-3h-3.57l-2.92 2.63v3l3.33 3h3.57zM634.44 333.81v6l-1.39.36v-9l1.39-.36v2.11l1.95-1.75 1.39-.36h3.38l-1.4.36h-2.39zM641.83 339.28l1.39-.36v.9l-1.39.36zM55 381.82l-1.4.36-3.35-9 1.39-.36 2.74 7.33 2.59-7 1.4-.36 2.74 7.33 2.59-7 1.39-.36-3.35 9-1.4.36-2.74-7.33zM71.33 382.18l-3.33-3v-3l3.33-3 1.39-.36h4.56l3.33 3-1.39.38h-9.84v2.63l3.33 3h3.57l2.93-2.63 1.39-.38-3.33 3-1.41.36zm-1.94-6.37h9.41l-2.93-2.63H72.3zM95 375.81v6l-1.39.36v-18l1.39-.36v11.11l2-1.74 1.39-.36h4.54l3.33 3v6l-1.39.36v-6l-3.33-3H98zM119.47 372.82l1.95 1.75v-1.39l1.39-.36v9l-1.39.36v-2.11l-1.95 1.75-1.4.36h-4.54l-3.33-3v-3l3.33-3 1.39-.36zm1.95 6.37v-3l-3.35-3h-3.57l-2.92 2.63v3l3.33 3h3.56zM126.26 373.18l1.39-.36 5 8.07 4.79-7.71 1.4-.36-5.62 9-1.39.36zM144.49 382.18l-3.33-3v-3l3.33-3 1.39-.36h4.56l3.33 3-1.39.38h-9.83v2.63l3.33 3h3.57l2.93-2.63 1.39-.38-3.33 3-1.4.36zm-1.94-6.37H152l-3-2.63h-3.57zM179.42 378.81l-3.33 3-1.39.36h-4.54l-1.94-1.75v1.39l-1.39.36v-18l1.39-.36v11.11l1.94-1.75 1.39-.36h4.54l3.33 3zm-1.39.38v-3l-3.33-3h-3.56l-2.92 2.63v3l3.33 3h3.56zM186.54 382.18l-3.33-3v-3l3.33-3 1.39-.36h4.56l3.33 3-1.39.38h-9.83v2.63l3.33 3h3.57l2.93-2.63 1.39-.38-3.33 3-1.4.36zm-1.95-6.37H194l-2.93-2.63h-3.57zM202.93 382.18l-3.33-3v-3l3.33-3 1.39-.36h4.56l3.33 3-1.39.38H201v2.63l3.33 3h3.57l2.93-2.63 1.39-.38-3.33 3-1.4.36zm-1.93-6.37h9.42l-2.93-2.63h-3.59zM217.59 375.81v6l-1.39.36v-9l1.39-.36v2.11l1.94-1.75 1.39-.36h4.56l3.33 3v6l-1.4.36v-6l-3.33-3h-3.57zM241.6 367.18l1.39-.38v.9l-1.39.38zm0 6l1.39-.36v9l-1.39.36zM249 375.81v6l-1.39.36v-9l1.39-.36v2.11l1.94-1.75 1.39-.36h4.56l3.33 3v6l-1.4.36v-6l-3.33-3H252zM266.07 366.8v6h3.33l-1.39.36h-1.95v8.64l-1.39.36v-15l3.33-3 1.39-.36zM283.61 378.81l-3.33 3-1.4.36h-4.54l-3.33-3v-3l3.33-3 1.39-.36h4.55l3.33 3zm-1.39.38v-3l-3.35-3h-3.56l-2.92 2.63v3l3.33 3h3.56zM289.21 375.81v6l-1.39.36v-9l1.39-.36v2.11l1.94-1.75 1.39-.36h3.38l-1.4.36h-2.39zM300.84 381.82l-1.39.36v-9l1.39-.36v2.13l2-1.76 1.39-.36 2.88 2.56 2.45-2.2 1.4-.36 3.37 3v6l-1.4.36v-6l-2.93-2.58-2.47 2.2v6l-1.39.36v-6l-2.88-2.58-2.47 2.2zM321.59 382.18l-3.33-3v-3l3.33-3 1.39-.36h4.56l3.33 3-1.39.38h-9.83v2.63l3.33 3h3.57l2.93-2.63 1.39-.38-3.33 3-1.4.36zm-1.95-6.37h9.42l-2.93-2.63h-3.57zM338 382.18l-3.33-3v-3l3.33-3 1.39-.36h4.56l1.94 1.75v-10.4l1.39-.36v18l-1.39.36v-2.11l-1.94 1.75-1.4.36zm7.89-3v-3l-3.35-3H339l-3 2.63v3l3.33 3h3.57zM369.23 372.82l1.94 1.75v-1.39l1.39-.36v9l-1.39.36v-2.11l-1.94 1.75-1.4.36h-4.54l-3.33-3v-3l3.33-3 1.39-.36zm1.94 6.37v-3l-3.35-3h-3.57l-2.92 2.63v3l3.33 3h3.57zM378.59 375.81v6l-1.39.36v-9l1.39-.36v2.11l1.94-1.75 1.39-.36h4.55l3.33 3v6l-1.4.36v-6l-3.33-3h-3.57zM397.08 382.18l-3.33-3v-3l3.33-3 1.39-.36H403l1.94 1.75v-10.4l1.39-.36v18l-1.39.36v-2.11l-1.94 1.76-1.41.36zm7.89-3v-3l-3.35-3H398l-2.92 2.63v3l3.33 3H402zM428.33 372.82l1.94 1.75v-1.39l1.39-.36v9l-1.39.36v-2.11l-1.94 1.75-1.4.36h-4.54l-3.33-3v-3l3.33-3 1.39-.36zm1.94 6.37v-3l-3.35-3h-3.57l-2.92 2.63v3l3.33 3h3.57zM437.68 375.81v6l-1.39.36v-9l1.39-.36v2.11l1.95-1.75 1.39-.36h3.38l-1.4.36h-2.4zM449.73 382.18l-3.33-3v-3l3.33-3 1.39-.36h4.55l3.33 3-1.39.38h-9.83v2.63l3.33 3h3.56l2.94-2.63 1.39-.38-3.33 3-1.4.36zm-1.94-6.37h9.42l-2.94-2.63h-3.57zM472 364.17l1.39-.36v18l-1.39.36zM490.33 378.81l-3.33 3-1.4.36h-4.54l-3.33-3v-3l3.33-3 1.39-.36H487l3.33 3zm-1.39.38v-3l-3.35-3H482l-2.92 2.63v3l3.33 3H486zM506.72 378.81l-3.33 3-1.4.36h-4.54l-3.33-3v-3l3.33-3 1.39-.36h4.56l3.33 3zm-1.39.38v-3l-3.35-3h-3.57l-2.92 2.63v3l3.33 3h3.57zM511.11 364.17l1.39-.36v13.31l9.81-3.94 1.39-.36-11.2 4.5 11.2 4.5-1.39.36-9.81-3.94v3.58l-1.39.36zM527.37 367.18l1.39-.38v.9l-1.39.38zm0 6l1.39-.36v9l-1.39.36zM534.81 375.81v6l-1.39.36v-9l1.39-.36v2.11l1.94-1.75 1.39-.36h4.55l3.33 3v6l-1.4.36v-6l-3.33-3h-3.56zM553.29 382.18l-3.33-3v-3l3.33-3 1.39-.36h4.56l1.94 1.75v-1.39l1.39-.36v15l-3.33 3-1.41.36h-4.54l-3.33-3 1.39-.38 3.33 3h3.57l2.93-2.63v-8.12l-1.94 1.75-1.41.36zm7.89-3v-3l-3.35-3h-3.57l-2.92 2.63v3l3.33 3h3.57zM575.7 367.18l1.39-.38v.9l-1.39.38zm0 6l1.39-.36v9l-1.39.36zM583.14 375.81v6l-1.39.36v-9l1.39-.36v2.11l1.95-1.75 1.39-.36H591l3.33 3v6l-1.4.36v-6l-3.33-3h-3.57zM601.28 381.82l-1.39.36v-9h-3.35l1.39-.36h2v-8.64l1.39-.36v9h3.37l-1.4.36h-2zM619.08 378.81l-3.33 3-1.4.36h-4.54l-3.33-3v-3l3.33-3 1.39-.36h4.56l3.33 3zm-1.39.38v-3l-3.35-3h-3.57l-2.92 2.63v3l3.33 3h3.57zM631.89 367.18l1.39-.38v.9l-1.39.38zm0 6l1.39-.36v9l-1.39.36zM641.49 381.82l-1.39.36v-9h-3.35l1.39-.36h2v-8.64l1.39-.36v9h3.37l-1.4.36h-2zM647.07 381.28l1.39-.36v.9l-1.39.36z"/></g></svg>