<svg xmlns="http://www.w3.org/2000/svg" viewBox="0 0 700 500"><path fill="#f2f2f2" d="M0 0h700v500H0z" data-name="Ebene 1"/><g data-name="Ebene 2"><path d="M226.83 98v37.28h59.68V258h-61.28v-42.72h1.6V242h58.08v-90.72h-58.08V178h-1.6V82h61.28v16zM380.56 258h-61.28V82h61.28zM379 98h-58.12v144H379zM474.61 258h-61.28V82h61.28zM473 98h-58.07v144H473zM77.51 341.2h-.24v-12H74.6v-2.4h2.66v-12h.24v12h2.7v2.4h-2.69zM85.34 314.8h.24v12h9v14.4h-.24v-12h-8.76v12h-.24zM109 333.21h-9v5.59h8.74v-4h.26v6.41h-9.17V326.8H109zm-.24-4h-8.74v1.61h8.74zM131.68 329.2h-8.74v1.61l9 4v6.41h-9.24v-6.41h.24v4h8.74v-1.61l-9-4v-6.4h9.22v6.41h-.24zM146.44 333.21h-9v5.59h8.74v-4h.24v6.41h-9.22V326.8h9.22zm-.24-4h-8.74v1.61h8.74zM157.47 326.8v2.4h-5.35v12h-.24v-14.4zM171 326.8h.24v2.4l-4.49 12h-.24l-4.46-12v-2.4h.24l4.34 11.69zM185.39 333.21h-9v5.59h8.74v-4h.24v6.41h-9.22V326.8h9.22zm-.24-4h-8.74v1.61h8.74zM196.42 326.8v2.4h-5.35v12h-.24v-14.4zM218.74 333.21h-9v5.59h8.74v-4h.24v6.41h-9.22V326.8h9.22zm-.24-4h-8.74v1.61h8.74zM233.37 326.8v14.4h-.24v-12h-8.71v12h-.24v-14.4zM247.64 329.2h-8.74v9.6h8.74v-4h.24v6.41h-9.22V326.8h9.22v6.41h-.24zM262.4 341.2h-9.22v-14.4h9.22zm-.24-12h-8.74v9.6h8.74zM267.94 338.8h8.74v-12h.24v14.4h-9.22v-14.4h.24zM291.54 326.8v14.4h-.24v-12h-8.71v12h-.24v-14.4zM299.36 341.2h-.24v-12h-2.66v-2.4h2.66v-12h.24v12H302v2.4h-2.69zM316.14 333.21h-9v5.59h8.74v-4h.24v6.41h-9.22V326.8h9.22zm-.24-4h-8.74v1.61h8.74zM327.17 326.8v2.4h-5.35v12h-.24v-14.4zM341.4 333.21h-9v5.59h8.74v-4h.24v6.41h-9.22V326.8h9.22zm-.24-4h-8.74v1.61h8.74zM355.67 314.8h.24v26.4h-9.21v-14.4h9zm-8.74 14.4v9.6h8.74v-9.6zM379 326.8v14.4h-9.22v-14.4zm-.24 2.4h-8.74v9.6h8.74zM393.81 326.8v14.4h-.24v-12h-8.71v12h-.24v-14.4zM407.7 338.8h8.74v-12h.24v14.4h-9.22v-14.4h.24zM431.31 326.8v14.4h-.24v-12h-8.71v12h-.24v-14.4zM445.82 333.21h-9v5.59h8.74v-4h.24v6.41h-9.22V326.8h9.22zm-.24-4h-8.74v1.61h8.74zM460.19 338.8v2.4h-.24l-4.34-5.83-4.37 5.83H451v-2.4l3.58-4.8-3.58-4.8v-2.4h.24l4.37 5.83 4.34-5.83h.24v2.4l-3.58 4.8zM474.67 326.8v14.4h-9v12h-.24v-26.4zm-9 12h8.71v-9.6h-8.71zM489.19 333.21h-9v5.59h8.74v-4h.24v6.41H480V326.8h9.22zm-.24-4h-8.74v1.61h8.74zM503.46 329.2h-8.74v9.6h8.74v-4h.24v6.41h-9.22V326.8h9.22v6.41h-.24zM511.52 341.2h-.24v-12h-2.66v-2.4h2.66v-12h.24v12h2.69v2.4h-2.69zM528.3 333.21h-9v5.59h8.74v-4h.24v6.41h-9.22V326.8h9.22zm-.24-4h-8.74v1.61h8.74zM542.57 314.8h.24v26.4h-9.21v-14.4h9zm-8.74 14.4v9.6h8.74v-9.6zM565.95 333.21h-9v5.59h8.74v-4h.24v6.41h-9.22V326.8h9.22zm-.24-4H557v1.61h8.74zM577 326.8v2.4h-5.35v12h-.24v-14.4zM587.73 326.8v2.4h-5.35v12h-.24v-14.4zM602 341.2h-9.22v-14.4H602zm-.24-12H593v9.6h8.74zM613 326.8v2.4h-5.35v12h-.24v-14.4zM615.6 337.6h.24v3.6h-.24zM81.66 383.2h-.24l-2.69-12v-2.4H79l2.57 11.47 2.57-11.47h.24l2.57 11.47 2.57-11.47h.24v2.4l-2.76 12h-.24l-2.57-11.47zM104 375.21h-9v5.59h8.74v-4h.26v6.41h-9.24V368.8H104zm-.24-4H95v1.61h8.74zM118.19 356.8h.24v12h9v14.4h-.24v-12h-8.71v12h-.24zM141.89 368.8v14.4h-9.22v-14.4zm-.24 2.4h-8.74v9.6h8.74zM155.88 368.8h.24v2.4l-4.49 12h-.24l-4.46-12v-2.4h.24l4.34 11.69zM170.23 375.21h-9v5.59H170v-4h.24v6.41H161V368.8h9.22zm-.24-4h-8.74v1.61H170zM193.63 383.2h-9.19v-26.4h.24v12h9zm-.24-12h-8.71v9.6h8.71zM208.14 375.21h-9v5.59h8.74v-4h.24v6.41h-9.22V368.8h9.22zm-.24-4h-8.74v1.61h8.74zM222.66 375.21h-9v5.59h8.74v-4h.24v6.41h-9.22V368.8h9.22zm-.24-4h-8.74v1.61h8.74zM237.29 368.8v14.4H237v-12h-8.71v12h-.24v-14.4zM251.28 360.81h.24v3.6h-.24zm0 8h.24v14.4h-.24zM266.29 368.8v14.4H266v-12h-8.71v12h-.24v-14.4zM272 383.2h-.24v-26.4h.24zM287.17 383.2H278v-14.4h9.22zm-.24-12h-8.73v9.6h8.74zM298.2 368.8v2.4h-5.35v12h-.24v-14.4zM303.36 368.8h.24v3.65l2.4-3.65h.24l2.57 3.82 2.57-3.82h.24l2.69 4v10.4h-.24v-8l-2.57-3.84-2.5 3.85v8h-.24v-8l-2.57-3.84-2.57 3.84v8h-.24zM328.87 375.21h-9v5.59h8.74v-4h.24v6.41h-9.22V368.8h9.22zm-.24-4h-8.74v1.61h8.74zM343.14 356.8h.24v26.4h-9.22v-14.4h9zm-8.74 14.4v9.6h8.74v-9.6zM366.52 368.8v14.4h-9.22v-14.4zm-.24 2.4h-8.74v9.6h8.74zM381.28 368.8v14.4H381v-12h-8.71v12h-.24v-14.4zM395.55 356.8h.24v26.4h-9.22v-14.4h9zm-8.74 14.4v9.6h8.74v-9.6zM418.93 368.8v14.4h-9.22v-14.4zm-.24 2.4H410v9.6h8.74zM430.09 368.8v2.4h-5.35v12h-.24v-14.4zM444.32 375.21h-9v5.59h8.74v-4h.24v6.41h-9.2V368.8h9.22zm-.24-4h-8.74v1.61h8.74zM458.48 356.8h.24v26.4h-.24zM473.44 383.2h-9.22v-14.4h9.22zm-.24-12h-8.74v9.6h8.74zM488 383.2h-9.22v-14.4H488zm-.24-12H479v9.6h8.74zM502.72 380.8v2.4h-.24l-8.71-5.83v5.83h-.24v-26.4h.24v17.83l8.71-5.83h.24v2.4l-7.18 4.8zM507.92 360.81h.24v3.6h-.24zm0 8h.24v14.4h-.24zM522.93 368.8v14.4h-.24v-12H514v12h-.24v-14.4zM528.23 383.2v-14.4h9.22v26.4h-9.22v-6.41h.24v4h8.74v-9.6zm.24-12v9.6h8.74v-9.6zM551.7 360.81h.24v3.6h-.24zm0 8h.24v14.4h-.24zM566.71 368.8v14.4h-.24v-12h-8.71v12h-.24v-14.4zM574.53 383.2h-.24v-12h-2.66v-2.4h2.66v-12h.24v12h2.69v2.4h-2.69zM591.31 383.2h-9.22v-14.4h9.22zm-.24-12h-8.74v9.6h8.74zM605.3 360.81h.24v3.6h-.24zm0 8h.24v14.4h-.24zM613.49 383.2h-.24v-12h-2.66v-2.4h2.66v-12h.24v12h2.69v2.4h-2.69zM620 379.6h.24v3.6H620z"/></g></svg>