<svg xmlns="http://www.w3.org/2000/svg" viewBox="0 0 700 500"><path fill="#f2f2f2" d="M0 0h700v500H0z" data-name="Ebene 1"/><g data-name="Ebene 2"><path d="M236.1 166.42h-7.84l-30.94 23.38-1.26-1.54v-70l21.42-18.06h69.72l1.26 1.54L267 119.8h-48.3v49.42l29.68-22.4h7.84l30.98 23.38 1.26 1.54v46.76L267 236.42l-30.9 23.38h-7.84l-30.94-23.38-1.26-1.54 21.42-18.06 30.94 23.38h7.84l9.52-7.14v-44.24zM374.64 236.42L343.7 259.8h-7.84l-30.94-23.38-1.26-1.54V141.5l21.42-17.92L356 100.2h7.84l30.94 23.38 1.26 1.54v93.38zM356 240.2h7.84l9.52-7.14v-91L343.7 119.8h-7.84l-9.52 7.14v91zM482.24 236.42L451.3 259.8h-7.84l-30.94-23.38-1.26-1.54V141.5l21.42-17.92 30.94-23.38h7.84l30.94 23.38 1.26 1.54v93.38zm-18.62 3.78h7.84l9.52-7.14v-91L451.3 119.8h-7.84l-9.52 7.14v91zM91.55 323.06l2.75-2.32.16.2v8.8H97l.16.2-2.68 2.25v6.75l-2.75 2.32-.16-.2v-8.8H89l-.16-.2 2.68-2.25zM104.1 332.26h-1l-1.22.92v5.76l-2.75 2.32-.16-.2v-18l2.75-2.32.16.2v11.66l3.82-2.86h1l4 3 .16.2v6l-2.75 2.32-.16-.2v-5.94zM120 338.74h1l4-3 .16.22-2.76 2.3-4 3h-1l-4-3-.16-.2v-3l2.75-2.3 4-3h1l4 3 .16.2-2.76 2.32h-6.21v.61zm-1.58-6.48h-1l-.63.49H119zM134.82 335.26l-.16-.22 2.76-2.3 4-3h1l4 3 .16.2-2.43 2 2.27.76.16.22-2.75 2.3-4 3h-1l-4-3-.16-.2 2.43-2zm8-.7l-3.06-2.3h-1l-.86.65zm-4.54 1.87l3.06 2.3h1l.87-.65zM155.24 338.74h1l4-3 .16.22-2.76 2.3-4 3h-1l-4-3-.16-.2v-3l2.75-2.3 4-3h1l4 3 .16.2-2.76 2.32h-6.21v.61zm-1.58-6.48h-1l-.63.49h2.27zM162.79 332.06l2.76-2.32.16.2v2.67l3.82-2.86h1.39l.16.2-2.75 2.32h-1.39l-1.22.92v5.76l-2.72 2.31-.16-.2zM171.52 332.06l2.75-2.32.16.2L178 337l2.5-5 2.75-2.32.16.2-4.48 9-2.76 2.32-.16-.2zM190.78 338.74h1l4-3 .16.22-2.75 2.3-4 3h-1l-4-3-.16-.2v-3l2.75-2.3 4-3h1l4 3 .16.2-2.75 2.32H187v.61zm-1.58-6.48h-1l-.63.49h2.27zM198.33 332.06l2.75-2.32.16.2v2.67l3.82-2.86h1.39l.16.2-2.75 2.32h-1.39l-1.22.92v5.76l-2.75 2.32-.16-.2zM222.35 338.74h1l4-3 .16.22-2.75 2.3-4 3h-1l-4-3-.16-.2v-3l2.75-2.3 4-3h1l4 3 .16.2-2.75 2.32h-6.21v.61zm-1.58-6.48h-1l-.63.49h2.27zM235 332.26h-1l-1.22.92v5.76l-2.75 2.32-.16-.2v-9l2.75-2.32.16.2v2.67l3.82-2.86h1l4 3 .16.2v6l-2.76 2.31-.16-.2v-5.94zM249.34 332.26h-1l-1.22.92v2.7l3.82 2.86h1l4-3 .16.22-2.75 2.3-4 3h-1l-4-3-.16-.2v-3l2.76-2.3 4-3h1l4 3 .16.2-2.75 2.32zM269.92 335.95l-2.75 2.3-4 3h-1l-4-3-.16-.2v-3l2.76-2.3 4-3h1l4 3 .16.2zm-2.92-.83l-3.82-2.86h-1l-1.22.92v2.7l3.82 2.86h1l1.22-.92zM281.33 332.06l2.75-2.32.16.2v6l-2.75 2.3-4 3h-1l-4-3-.16-.2v-6l2.75-2.32.16.2v5.94l3.82 2.86h1l1.22-.92zM292.18 332.26h-1l-1.22.92v5.76l-2.76 2.32-.16-.2v-9l2.76-2.32.16.2v2.67l3.82-2.86h1l4 3 .16.2v6l-2.75 2.32-.16-.2v-5.94zM303 323.06l2.75-2.32.16.2v8.8h2.52l.16.2-2.68 2.25v6.75l-2.75 2.32-.16-.2v-8.8h-2.52l-.16-.2 2.68-2.25zM315.94 338.74h1l4-3 .16.22-2.75 2.3-4 3h-1l-4-3-.16-.2v-3l2.76-2.3 4-3h1l4 3 .16.2-2.75 2.32h-6.21v.61zm-1.58-6.48h-1l-.63.49H315zM323.49 332.06l2.75-2.32.16.2v2.67l3.82-2.86h1.39l.16.2-2.77 2.31h-1.39l-1.22.92v5.76l-2.75 2.32-.16-.2zM338.47 338.74h1l4-3 .16.22-2.75 2.3-4 3h-1l-4-3-.16-.2v-3l2.75-2.3 4-3h1l4 3 .16.2-2.75 2.32h-6.21v.61zm-1.58-6.48h-1l-.63.49h2.27zM350.72 341.26h-1l-4-3-.16-.2v-3l2.75-2.3 4-3h1l1.22.92v-7.6l2.75-2.32.16.2v18l-2.75 2.32-.16-.2v-2.68zm1.58-2.52h1l1.22-.92v-2.7l-3.82-2.86h-1l-1.22.92v2.7zM379 329.74l.16.2v9l-2.75 2.32-.16-.2v-2.66l-3.82 2.86h-1l-4-3-.16-.2v-3l2.75-2.3 4-3h1l2.09 1.58zm-5 9h1l1.22-.92v-2.7l-3.82-2.86h-1l-1.22.92v2.7zM387.41 332.26h-1l-1.22.92v5.76l-2.75 2.32-.16-.2v-9l2.75-2.32.16.2v2.67l3.82-2.86h1l4 3 .16.2v6l-2.75 2.32-.16-.2v-5.94zM412.65 332.06l2.75-2.32.16.2v6l-2.76 2.3-4 3h-1l-4-3-.16-.2v-6l2.75-2.32.16.2v5.94l3.82 2.86h1l1.22-.92zM423.5 332.26h-1l-1.22.92v5.76l-2.75 2.32-.16-.2v-9l2.75-2.32.16.2v2.67l3.82-2.86h1l4 3 .16.2v6l-2.75 2.32-.16-.2v-5.94zM439.38 338.74h1l4-3 .16.22-2.75 2.3-4 3h-1l-4-3-.16-.2v-3l2.75-2.3 4-3h1l4 3 .16.2-2.75 2.32h-6.21v.61zm-1.58-6.48h-1l-.63.49h2.27zM457.85 338.74l.16.2-2.75 2.32L451 337l-2 1.94-2.75 2.32-.16-.2 4.46-4.5-4.3-4.3-.16-.2 2.75-2.32 4.25 4.27 2-1.94 2.75-2.32.16.2-4.46 4.5zM460 332.06l2.75-2.32.16.2v2.67l3.82-2.86h1l4 3 .16.2v3l-2.75 2.3-4 3h-1l-1.22-.92v7.6l-2.75 2.32-.16-.2zm5.15.2h-1l-1.22.92v2.7l3.82 2.86h1l1.22-.92v-2.7zM480.59 338.74h1l4-3 .16.22-2.75 2.3-4 3h-1l-4-3-.16-.2v-3l2.75-2.3 4-3h1l4 3 .16.2-2.75 2.3h-6.21v.61zm-1.59-6.48h-1l-.63.49h2.27zM492.85 332.26h-1l-1.22.92v2.7l3.82 2.86h1l4-3 .16.22-2.75 2.3-4 3h-1l-4-3-.16-.2v-3l2.75-2.3 4-3h1l4 3 .16.2-2.75 2.32zM503.59 323.06l2.75-2.32.16.2v8.8h2.5l.16.2-2.68 2.25v6.75l-2.75 2.32-.16-.2v-8.8h-2.52l-.16-.2 2.68-2.25zM516.55 338.74h1l4-3 .16.22-2.75 2.3-4 3h-1l-4-3-.16-.2v-3l2.76-2.3 4-3h1l4 3 .16.2-2.75 2.32h-6.21v.61zm-1.55-6.48h-1l-.63.49h2.27zM528.81 341.26h-1l-4-3-.16-.2v-3l2.76-2.3 4-3h1l1.22.92v-7.6l2.75-2.32.16.2v18l-2.75 2.32-.16-.2v-2.68zm1.58-2.52h1l1.22-.92v-2.7l-3.82-2.86h-1l-1.22.92v2.7zM552.08 338.74h1l4-3 .16.22-2.75 2.3-4 3h-1l-4-3-.16-.2v-3l2.76-2.3 4-3h1l4 3 .16.2-2.75 2.32h-6.21v.61zm-1.58-6.48h-1l-.63.49h2.27zM559.63 332.06l2.75-2.32.16.2v2.67l3.82-2.86h1.39l.16.2-2.75 2.32h-1.39l-1.22.92v5.76l-2.75 2.32-.16-.2zM568.89 332.06l2.75-2.32.16.2v2.67l3.82-2.86H577l.16.2-2.75 2.32H573l-1.22.92v5.76l-2.75 2.32-.16-.2zM589 335.95l-2.75 2.3-4 3h-1l-4-3-.16-.2v-3l2.75-2.3 4-3h1l4 3 .16.2zm-2.92-.83l-3.82-2.86h-1l-1.22.92v2.7l3.82 2.86h1l1.22-.92zM591.63 332.06l2.76-2.32.16.2v2.67l3.82-2.86h1.39l.16.2-2.75 2.32h-1.39l-1.22.92v5.76l-2.76 2.32-.16-.2zM599.38 340.16l2.75-2.32.16.2v.9l-2.75 2.32-.16-.2zM95.78 380.94L93 383.26l-.18-.2-2.68-9 2.75-2.32.16.2 1.55 5.17.92-3 2.75-2.32.16.2 1.57 5.11.92-3 2.75-2.32.16.2-2.68 9-2.76 2.32-.18-.2-1.55-5.17zM111.83 380.74h1l4-3 .16.22-2.75 2.3-4 3h-1l-4-3-.16-.2v-3l2.75-2.3 4-3h1l4 3 .16.2-2.75 2.32H108v.61zm-1.58-6.48h-1l-.63.49h2.27zM132.2 374.26h-1l-1.22.92v5.76l-2.75 2.32-.16-.2v-18l2.75-2.32.16.2v11.66l3.82-2.86h1l4 3 .16.2v6l-2.75 2.32-.16-.2v-5.94zM153.07 371.74l.16.2v9l-2.76 2.32-.16-.2v-2.66l-3.82 2.86h-1l-4-3-.16-.2v-3l2.75-2.3 4-3h1l2.09 1.58zm-5 9h1l1.22-.92v-2.7l-3.82-2.86h-1l-1.22.92v2.7zM155.09 374.06l2.75-2.32.16.2 3.55 7.11 2.5-5 2.75-2.32.16.2-4.48 9-2.76 2.32-.16-.2zM174.35 380.74h1l4-3 .16.22-2.75 2.3-4 3h-1l-4-3-.16-.2v-3l2.75-2.3 4-3h1l4 3 .16.2-2.75 2.32h-6.21v.61zm-1.58-6.48h-1l-.63.49h2.27zM201.46 377.95l-2.75 2.3-4 3h-1l-2.09-1.58-1.89 1.58-.16-.2v-18l2.75-2.32.16.2v11.67l3.82-2.86h1l4 3 .16.2zm-2.92-.83l-3.82-2.86h-1l-1.22.92v2.7l3.82 2.86h1l1.22-.92zM210.15 380.74h1l4-3 .16.22-2.76 2.3-4 3h-1l-4-3-.16-.2v-3l2.75-2.3 4-3h1l4 3 .16.2-2.76 2.32h-6.21v.61zm-1.58-6.48h-1l-.63.49h2.27zM224 380.74h1l4-3 .16.22-2.76 2.3-4 3h-1l-4-3-.16-.2v-3l2.75-2.3 4-3h1l4 3 .16.2-2.76 2.32h-6.21v.61zm-1.58-6.48h-1l-.63.49H223zM236.7 374.26h-1l-1.22.92v5.76l-2.76 2.32-.16-.2v-9l2.76-2.32.16.2v2.67l3.82-2.86h1l4 3 .16.2v6l-2.75 2.32-.16-.2v-5.94zM253.31 368l2.76-2.3.16.2v.9l-2.76 2.32-.16-.22zm0 6l2.76-2.32.16.2v9l-2.76 2.32-.16-.2zM264.5 374.26h-1l-1.22.92v5.76l-2.75 2.32-.16-.2v-9l2.75-2.32.16.2v2.67l3.82-2.86h1l4 3 .16.2v6l-2.75 2.32-.16-.2v-5.94zM277.09 371.74h3.82l.18.2-2.77 2.32h-1.22v6.68l-2.76 2.32-.16-.2V368l2.76-2.3 4-3 .18.2-2.77 2.32-1.22.92zM292.33 377.95l-2.75 2.3-4 3h-1l-4-3-.16-.2v-3l2.75-2.3 4-3h1l4 3 .16.2zm-2.92-.83l-3.82-2.86h-1l-1.22.92v2.7l3.82 2.86h1l1.22-.92zM294.95 374.06l2.75-2.32.16.2v2.67l3.82-2.86h1.39l.16.2-2.75 2.32h-1.39l-1.22.92v5.76l-2.75 2.32-.16-.2zM307.12 380.94l-2.76 2.32-.16-.2v-9l2.76-2.32.16.2v1.91l2.52-2.11 2.36 2.63.27-.31 2.76-2.32 2.7 3 .16.2v6l-2.75 2.32-.16-.2v-6l-2.18-2.43-.29.31v6l-2.75 2.32-.16-.2v-6l-2.18-2.43-.29.31zM327 380.74h1l4-3 .16.22-2.75 2.3-4 3h-1l-4-3-.16-.2v-3l2.75-2.3 4-3h1l4 3 .16.2-2.75 2.32h-6.21v.61zm-1.58-6.48h-1l-.63.49h2.27zM339.29 383.26h-1l-4-3-.16-.2v-3l2.75-2.3 4-3h1l1.22.92v-7.6l2.75-2.32.16.2v18l-2.75 2.32-.16-.2v-2.68zm1.58-2.52h1l1.22-.92v-2.7l-3.82-2.86h-1l-1.22.92v2.7zM367.55 371.74l.16.2v9l-2.71 2.32-.16-.2v-2.66l-3.84 2.86h-1l-4-3-.16-.2v-3l2.76-2.3 4-3h1l2.09 1.58zm-5 9h1l1.22-.92v-2.7l-3.77-2.86h-1l-1.22.92v2.7zM376 374.26h-1l-1.22.92v5.76l-2.78 2.32-.16-.2v-9l2.75-2.32.16.2v2.67l3.82-2.86h1l4 3 .16.2v6l-2.73 2.31-.16-.2v-5.94zM390.27 383.26h-1l-4-3-.16-.2v-3l2.76-2.3 4-3h1l1.22.92v-7.6l2.75-2.32.16.2v18l-2.75 2.32-.16-.2v-2.68zm1.58-2.52h1l1.22-.92v-2.7l-3.82-2.86h-1l-1.22.92v2.7zM418.54 371.74l.16.2v9l-2.76 2.32-.16-.2v-2.66l-3.78 2.86h-1l-4-3-.16-.2v-3l2.75-2.3 4-3h1l2.09 1.58zm-5 9h1l1.22-.92v-2.7l-3.76-2.86h-1l-1.22.92v2.7zM421.81 374.06l2.75-2.32.16.2v2.67l3.82-2.86h1.39l.16.2-2.75 2.32H426l-1.22.92v5.76l-2.78 2.31-.16-.2zM436.79 380.74h1l4-3 .16.22-2.75 2.3-4 3h-1l-4-3-.16-.2v-3l2.75-2.3 4-3h1l4 3 .16.2-2.75 2.32H433v.61zm-1.58-6.48h-1l-.63.49h2.27zM452 365.06l2.75-2.32.16.2v18l-2.75 2.32-.16-.2zM469.5 377.95l-2.76 2.3-4 3h-1l-4-3-.16-.2v-3l2.75-2.3 4-3h1l4 3 .16.2zm-2.92-.83l-3.82-2.86h-1l-1.22.92v2.7l3.82 2.86h1l1.22-.92zM483.34 377.95l-2.76 2.3-4 3h-1l-4-3-.16-.2v-3l2.75-2.3 4-3h1l4 3 .16.2zm-2.92-.83l-3.82-2.86h-1l-1.22.92v2.7l3.82 2.86h1l1.22-.92zM497.88 380.74l.16.2-2.75 2.32-6.21-3.12v.79l-2.75 2.32-.16-.2v-18l2.75-2.32.16.2v13.22l8.8-4.41.16.2-2.75 2.32-5.17 2.59zM499.89 368l2.75-2.3.16.2v.9l-2.75 2.32-.16-.22zm0 6l2.75-2.32.16.2v9l-2.75 2.32-.16-.2zM511.09 374.26h-1l-1.22.92v5.76l-2.75 2.32-.16-.2v-9l2.75-2.32.16.2v2.67l3.82-2.86h1l4 3 .16.2v6l-2.75 2.32-.16-.2v-5.94zM531.95 371.74l.16.2v15l-2.75 2.3-4 3h-1l-4-3-.16-.2 2.75-2.32 4 3h1l1.22-.92v-8.4l-3.82 2.86h-1l-4-3-.16-.2v-3l2.75-2.3 4-3h1l2.09 1.58zm-5 9h1l1.22-.92v-2.7l-3.82-2.86h-1l-1.22.92v2.7zM542.26 368l2.75-2.3.16.2v.9l-2.75 2.32-.16-.22zm0 6l2.75-2.32.16.2v9l-2.75 2.32-.16-.2zM553.45 374.26h-1l-1.22.92v5.76l-2.75 2.32-.16-.2v-9l2.75-2.32.16.2v2.67l3.82-2.86h1l4 3 .16.2v6l-2.75 2.32-.16-.2v-5.94zM564.24 365.06l2.75-2.32.16.2v8.8h2.52l.16.2-2.68 2.25v6.75l-2.75 2.32-.16-.2v-8.8h-2.52l-.16-.2 2.68-2.25zM582.36 377.95l-2.75 2.3-4 3h-1l-4-3-.16-.2v-3l2.75-2.3 4-3h1l4 3 .16.2zm-2.92-.83l-3.82-2.86h-1l-1.22.92v2.7l3.82 2.86h1l1.22-.92zM592.24 368l2.75-2.3.16.2v.9l-2.75 2.32-.16-.22zm0 6l2.75-2.32.16.2v9l-2.75 2.32-.16-.2zM599.6 365.06l2.76-2.32.16.2v8.8H605l.16.2-2.68 2.25v6.75l-2.75 2.32-.16-.2v-8.8h-2.52l-.16-.2 2.68-2.25zM605.92 382.16l2.75-2.32.16.2v.9l-2.75 2.32-.16-.2z"/></g></svg>