<svg xmlns="http://www.w3.org/2000/svg" viewBox="0 0 700 500"><path fill="#f2f2f2" d="M0 0h700v500H0z" data-name="Ebene 1"/><g data-name="Ebene 2"><path d="M176.15 219.06a7.48 7.48 0 0 1 5.46 2.1l21.14 21.14h34.16l18.76-18.76v-40.32l-18.76-18.9h-34.16l-21.14 21.14a7.07 7.07 0 0 1-5.18 2.1 7.67 7.67 0 0 1-7.84-7.56v-70c0-3.36 2.94-7.7 7.56-7.7h87.22a7.7 7.7 0 1 1 0 15.4H184v43.68l10.08-10.22a8.11 8.11 0 0 1 5.46-2.24H240a8.09 8.09 0 0 1 5.46 2.24l23.38 23.38a8.11 8.11 0 0 1 2.24 5.46v46.62a8.09 8.09 0 0 1-2.24 5.46l-23.38 23.38a8.11 8.11 0 0 1-5.46 2.24h-40.47a8.09 8.09 0 0 1-5.46-2.24l-23.24-23.38a7.62 7.62 0 0 1-2.24-5.46 7.53 7.53 0 0 1 7.56-7.56zM375.48 255.46a8.11 8.11 0 0 1-5.48 2.24h-40.44a8.09 8.09 0 0 1-5.46-2.24l-23.24-23.38a8.11 8.11 0 0 1-2.24-5.46v-93.24a8.09 8.09 0 0 1 2.24-5.46l23.24-23.38a8.11 8.11 0 0 1 5.46-2.24H370a8.08 8.08 0 0 1 5.46 2.24l23.38 23.38a8.11 8.11 0 0 1 2.24 5.46v93.24a8.09 8.09 0 0 1-2.24 5.46zm10.22-119l-18.76-18.76h-34.16L314 136.46v87.08l18.76 18.76h34.16l18.76-18.76zM505.51 255.46a8.11 8.11 0 0 1-5.46 2.24h-40.46a8.09 8.09 0 0 1-5.46-2.24l-23.24-23.38a8.11 8.11 0 0 1-2.24-5.46v-93.24a8.09 8.09 0 0 1 2.24-5.46l23.24-23.38a8.11 8.11 0 0 1 5.46-2.24h40.46a8.08 8.08 0 0 1 5.46 2.24l23.38 23.38a8.11 8.11 0 0 1 2.24 5.46v93.24a8.09 8.09 0 0 1-2.24 5.46zm10.22-119L497 117.7h-34.19l-18.76 18.76v87.08l18.76 18.76H497l18.76-18.76zM49.58 322v8h2.36a1 1 0 0 1 0 2h-2.36v8a1 1 0 1 1-2 0v-8h-2.34a1 1 0 0 1 0-2h2.36v-8a1 1 0 1 1 2 0zM57.94 322v9.61l1.31-1.31a1 1 0 0 1 .75-.3h5.2a1 1 0 0 1 .7.29l3 3a1 1 0 0 1 .29.7v6a1 1 0 1 1-2 0v-5.6L64.74 332h-4.37l-2.43 2.41V340a1 1 0 0 1-2 0v-18a1 1 0 1 1 2 0zM85.66 337a1 1 0 0 1-.29.7l-3 3a1 1 0 0 1-.68.29h-5.23a1 1 0 0 1-.68-.29l-3-3a1 1 0 0 1-.29-.7v-3a1 1 0 0 1 .29-.7l3-3a1 1 0 0 1 .68-.29h5.22a1 1 0 0 1 .68.29l3 3a1 1 0 0 1-.7 1.69h-10.2v1.6l2.42 2.41h4.39l2.7-2.72a1 1 0 0 1 .7-.27 1 1 0 0 1 .99.99zm-4.39-5h-4.39l-1 1h6.41zM109.66 335a1 1 0 0 1-.7-.27l-2.7-2.72h-4.39l-1.49 1.5 9.54 2.56a1 1 0 0 1 .74 1 .94.94 0 0 1-.29.68l-3 3a1 1 0 0 1-.68.29h-5.22a1 1 0 0 1-.68-.29l-3-3a1 1 0 0 1 .7-1.67 1 1 0 0 1 .7.27l2.7 2.72h4.39l1.49-1.49L98.2 335a1 1 0 0 1-.74-1 1 1 0 0 1 .29-.7l3-3a1 1 0 0 1 .68-.29h5.22a1 1 0 0 1 .68.29l3 3a1 1 0 0 1-.7 1.67zM127 337a1 1 0 0 1-.29.7l-3 3a1 1 0 0 1-.68.29h-5.22a1 1 0 0 1-.68-.29l-3-3a1 1 0 0 1-.29-.7v-3a1 1 0 0 1 .29-.7l3-3a1 1 0 0 1 .68-.29h5.22a1 1 0 0 1 .68.29l3 3a1 1 0 0 1-.7 1.69h-10.16v1.6l2.41 2.41h4.39l2.7-2.72a1 1 0 0 1 .7-.27 1 1 0 0 1 .95.99zm-4.39-5h-4.39l-1 1h6.41zM132.53 331v.61l1.3-1.31a1 1 0 0 1 .7-.29h3.71a1 1 0 1 1 0 2h-3.29l-2.41 2.41V340a1 1 0 0 1-1 1 1 1 0 0 1-1-1v-9a1 1 0 0 1 1-1 1 1 0 0 1 .99 1zM142.57 330a1 1 0 0 1 .85.47l4.77 7.65 4.75-7.65a1 1 0 0 1 .85-.47 1 1 0 0 1 1 1 .92.92 0 0 1-.14.52l-5.62 9a1 1 0 0 1-1.67 0l-5.6-9a.92.92 0 0 1-.14-.52 1 1 0 0 1 .95-1zM170 337a1 1 0 0 1-.29.7l-3 3a1 1 0 0 1-.68.29h-5.22a1 1 0 0 1-.68-.29l-3-3a1 1 0 0 1-.29-.7v-3a1 1 0 0 1 .29-.7l3-3a1 1 0 0 1 .68-.29H166a1 1 0 0 1 .68.29l3 3a1 1 0 0 1-.68 1.7h-10.19v1.6l2.41 2.41h4.39l2.7-2.72a1 1 0 0 1 .7-.27 1 1 0 0 1 .99.98zm-4.39-5h-4.39l-1 1h6.41zM175.5 331v.61l1.3-1.31a1 1 0 0 1 .7-.29h3.71a1 1 0 1 1 0 2h-3.29l-2.41 2.41V340a1 1 0 0 1-1 1 1 1 0 0 1-1-1v-9a1 1 0 0 1 1-1 1 1 0 0 1 .99 1zM206.5 337a1 1 0 0 1-.29.7l-3 3a1 1 0 0 1-.68.29h-5.22a1 1 0 0 1-.68-.29l-3-3a1 1 0 0 1-.29-.7v-3a1 1 0 0 1 .29-.7l3-3a1 1 0 0 1 .68-.29h5.22a1 1 0 0 1 .68.29l3 3a1 1 0 0 1-.7 1.69H195.3v1.6l2.41 2.41h4.39l2.7-2.72a1 1 0 0 1 .7-.27 1 1 0 0 1 1 .99zm-4.39-5h-4.39l-1 1h6.41zM212 331v.61l1.3-1.31a1 1 0 0 1 .7-.29h5.2a1 1 0 0 1 .7.29l3 3a1 1 0 0 1 .29.7v6a1 1 0 1 1-2 0v-5.6l-2.4-2.4h-4.39l-2.4 2.4v5.6a1 1 0 0 1-1 1 1 1 0 0 1-1-1v-9a1 1 0 0 1 1-1 1 1 0 0 1 1 1zM238.7 335a1 1 0 0 1-.7-.27l-2.7-2.73h-4.4l-2.41 2.41v2.2l2.41 2.39h4.39l2.7-2.72a1 1 0 0 1 .7-.27 1 1 0 0 1 .7 1.67l-3 3a1 1 0 0 1-.68.29h-5.22a1 1 0 0 1-.68-.29l-3-3a1 1 0 0 1-.29-.7v-3a1 1 0 0 1 .29-.7l3-3a1 1 0 0 1 .68-.29h5.22a1 1 0 0 1 .68.29l3 3a1 1 0 0 1-.7 1.67zM256.09 334v3a1 1 0 0 1-.29.7l-3 3a1 1 0 0 1-.68.29h-5.22a1 1 0 0 1-.68-.29l-3-3a1 1 0 0 1-.29-.7v-3a1 1 0 0 1 .29-.7l3-3a1 1 0 0 1 .68-.29h5.22a1 1 0 0 1 .68.29l3 3a1 1 0 0 1 .29.7zm-4.39-2h-4.4l-2.41 2.41v2.2l2.41 2.39h4.39l2.41-2.41v-2.2zM261.44 331v5.6l2.41 2.41h4.39l2.41-2.41V331a1 1 0 0 1 2 0v6a1 1 0 0 1-.29.7l-3 3a1 1 0 0 1-.68.29h-5.22a1 1 0 0 1-.68-.29l-3-3a1 1 0 0 1-.29-.7v-6a1 1 0 1 1 2 0zM278.45 331v.61l1.3-1.31a1 1 0 0 1 .7-.29h5.2a1 1 0 0 1 .7.29l3 3a1 1 0 0 1 .29.7v6a1 1 0 1 1-2 0v-5.6l-2.39-2.4h-4.39l-2.41 2.41V340a1 1 0 0 1-1 1 1 1 0 0 1-1-1v-9a1 1 0 0 1 1-1 1 1 0 0 1 1 1zM296.82 322v8h2.36a1 1 0 1 1 0 2h-2.36v8a1 1 0 1 1-2 0v-8h-2.36a1 1 0 1 1 0-2h2.36v-8a1 1 0 1 1 2 0zM315.18 337a1 1 0 0 1-.29.7l-3 3a1 1 0 0 1-.68.29H306a1 1 0 0 1-.68-.29l-3-3a1 1 0 0 1-.29-.7v-3a1 1 0 0 1 .29-.7l3-3a1 1 0 0 1 .68-.3h5.22a1 1 0 0 1 .68.29l3 3a1 1 0 0 1-.7 1.69H304v1.6l2.41 2.41h4.39l2.7-2.72a1 1 0 0 1 .7-.27 1 1 0 0 1 .98 1zm-4.39-5h-4.39l-1 1h6.41zM320.66 331v.61l1.3-1.31a1 1 0 0 1 .7-.29h3.71a1 1 0 1 1 0 2h-3.29l-2.41 2.41V340a1 1 0 0 1-1 1 1 1 0 0 1-1-1v-9a1 1 0 0 1 1-1 1 1 0 0 1 .99 1zM342.54 337a1 1 0 0 1-.29.7l-3 3a1 1 0 0 1-.68.29h-5.22a1 1 0 0 1-.68-.29l-3-3a1 1 0 0 1-.29-.7v-3a1 1 0 0 1 .29-.7l3-3a1 1 0 0 1 .68-.29h5.22a1 1 0 0 1 .68.29l3 3a1 1 0 0 1-.7 1.69h-10.21v1.6l2.41 2.41h4.39l2.7-2.72a1 1 0 0 1 .7-.27 1 1 0 0 1 1 .99zm-4.39-5h-4.39l-1 1h6.41zM358.94 322v18a1 1 0 0 1-2 0v-.61l-1.31 1.31a1 1 0 0 1-.68.29h-5.22a1 1 0 0 1-.68-.29l-3-3a1 1 0 0 1-.29-.7v-3a1 1 0 0 1 .29-.7l3-3a1 1 0 0 1 .68-.29H355a1 1 0 0 1 .68.29l1.31 1.31V322a1 1 0 1 1 2 0zm-4.39 10h-4.39l-2.41 2.41v2.2l2.41 2.41h4.39l2.45-2.42v-2.2zM384.25 331v9a1 1 0 0 1-2 0v-.61L381 340.7a1 1 0 0 1-.68.29H375a1 1 0 0 1-.68-.29l-3-3a1 1 0 0 1-.29-.7v-3a1 1 0 0 1 .29-.7l3-3a1 1 0 0 1 .68-.3h5.22a1 1 0 0 1 .68.29l1.31 1.31v-.6a1 1 0 0 1 2 0zm-4.39 1h-4.39l-2.47 2.4v2.2l2.41 2.41h4.39l2.41-2.41v-2.2zM390.26 331v.61l1.3-1.31a1 1 0 0 1 .7-.29h5.2a1 1 0 0 1 .7.29l3 3a1 1 0 0 1 .29.7v6a1 1 0 1 1-2 0v-5.6l-2.39-2.4h-4.39l-2.41 2.41V340a1 1 0 0 1-1 1 1 1 0 0 1-1-1v-9a1 1 0 0 1 1-1 1 1 0 0 1 1 1zM415.22 331v5.6l2.41 2.41H422l2.41-2.41V331a1 1 0 0 1 2 0v6a1 1 0 0 1-.29.7l-3 3a1 1 0 0 1-.68.29h-5.22a1 1 0 0 1-.68-.29l-3-3a1 1 0 0 1-.29-.7v-6a1 1 0 1 1 2 0zM432.23 331v.61l1.3-1.31a1 1 0 0 1 .7-.29h5.2a1 1 0 0 1 .7.29l3 3a1 1 0 0 1 .29.7v6a1 1 0 0 1-2 0v-5.6L439 332h-4.39l-2.41 2.41V340a1 1 0 0 1-1 1 1 1 0 0 1-1-1v-9a1 1 0 0 1 1-1 1 1 0 0 1 1.03 1zM459.94 337a1 1 0 0 1-.29.7l-3 3a1 1 0 0 1-.68.29h-5.22a1 1 0 0 1-.68-.29l-3-3a1 1 0 0 1-.29-.7v-3a1 1 0 0 1 .29-.7l3-3a1 1 0 0 1 .68-.29H456a1 1 0 0 1 .68.29l3 3a1 1 0 0 1-.7 1.69h-10.24v1.6l2.41 2.41h4.39l2.7-2.72a1 1 0 0 1 .7-.27 1 1 0 0 1 1 .99zm-4.39-5h-4.39l-1 1h6.41zM463.21 330a1 1 0 0 1 .61.22l5 4 5-4a1 1 0 0 1 .61-.22 1 1 0 0 1 1 1 1 1 0 0 1-.36.77l-4.65 3.73 4.65 3.73a1 1 0 0 1 .36.77 1 1 0 0 1-1 1 1 1 0 0 1-.61-.22l-5-4-5 4a1 1 0 0 1-.61.22 1 1 0 0 1-1-1 1 1 0 0 1 .38-.77l4.63-3.73-4.63-3.73a1 1 0 0 1-.38-.77 1 1 0 0 1 1-1zM480.61 331v.61l1.3-1.31a1 1 0 0 1 .7-.29h5.2a1 1 0 0 1 .7.29l3 3a1 1 0 0 1 .29.7v3a1 1 0 0 1-.29.7l-3 3a1 1 0 0 1-.7.29h-5.2a1 1 0 0 1-.7-.29l-1.3-1.31V349a1 1 0 0 1-1 1 1 1 0 0 1-1-1v-18a1 1 0 0 1 1-1 1 1 0 0 1 1 1zm2.41 8h4.39l2.41-2.41v-2.2l-2.4-2.39H483l-2.41 2.41v2.2zM508.2 337a1 1 0 0 1-.29.7l-3 3a1 1 0 0 1-.68.29H499a1 1 0 0 1-.68-.29l-3-3a1 1 0 0 1-.29-.7v-3a1 1 0 0 1 .29-.7l3-3a1 1 0 0 1 .68-.3h5.22a1 1 0 0 1 .68.29l3 3a1 1 0 0 1-.7 1.69H497v1.6l2.41 2.41h4.39l2.7-2.72a1 1 0 0 1 .7-.27 1 1 0 0 1 1 1zm-4.39-5h-4.39l-1 1h6.41zM523.61 335a1 1 0 0 1-.7-.27l-2.7-2.72h-4.39l-2.41 2.41v2.2l2.41 2.41h4.39l2.7-2.72a1 1 0 0 1 .7-.27 1 1 0 0 1 .7 1.67l-3 3a1 1 0 0 1-.68.29h-5.23a1 1 0 0 1-.68-.29l-3-3a1 1 0 0 1-.29-.7v-3a1 1 0 0 1 .29-.7l3-3a1 1 0 0 1 .68-.29h5.22a1 1 0 0 1 .68.29l3 3a1 1 0 0 1-.7 1.67zM531.79 322v8h2.36a1 1 0 1 1 0 2h-2.36v8a1 1 0 1 1-2 0v-8h-2.36a1 1 0 0 1 0-2h2.36v-8a1 1 0 1 1 2 0zM550.14 337a1 1 0 0 1-.29.7l-3 3a1 1 0 0 1-.68.29h-5.22a1 1 0 0 1-.68-.29l-3-3a1 1 0 0 1-.29-.7v-3a1 1 0 0 1 .29-.7l3-3a1 1 0 0 1 .68-.29h5.22a1 1 0 0 1 .68.29l3 3a1 1 0 0 1-.7 1.69h-10.21v1.6l2.41 2.41h4.39l2.7-2.72a1 1 0 0 1 .7-.27 1 1 0 0 1 1 .99zm-4.39-5h-4.39l-1 1h6.41zM566.54 322v18a1 1 0 0 1-2 0v-.61l-1.31 1.31a1 1 0 0 1-.68.29h-5.22a1 1 0 0 1-.68-.29l-3-3a1 1 0 0 1-.29-.7v-3a1 1 0 0 1 .29-.7l3-3a1 1 0 0 1 .68-.29h5.22a1 1 0 0 1 .68.29l1.31 1.31V322a1 1 0 1 1 2 0zm-4.39 10h-4.39l-2.41 2.41v2.2l2.41 2.41h4.39l2.41-2.41v-2.2zM591.85 337a1 1 0 0 1-.29.7l-3 3a1 1 0 0 1-.68.29h-5.22a1 1 0 0 1-.68-.29l-3-3a1 1 0 0 1-.29-.7v-3a1 1 0 0 1 .29-.7l3-3a1 1 0 0 1 .68-.29h5.22a1 1 0 0 1 .68.29l3 3a1 1 0 0 1-.7 1.69h-10.21v1.6l2.41 2.41h4.39l2.7-2.72a1 1 0 0 1 .7-.27 1 1 0 0 1 1 .99zm-4.39-5h-4.39l-1 1h6.41zM597.33 331v.61l1.3-1.31a1 1 0 0 1 .7-.29H603a1 1 0 1 1 0 2h-3.29l-2.41 2.41V340a1 1 0 0 1-1 1 1 1 0 0 1-1-1v-9a1 1 0 0 1 1-1 1 1 0 0 1 1.03 1zM609 331v.61l1.3-1.31a1 1 0 0 1 .7-.29h3.71a1 1 0 1 1 0 2h-3.29L609 334.4v5.6a1 1 0 0 1-1 1 1 1 0 0 1-1-1v-9a1 1 0 0 1 1-1 1 1 0 0 1 1 1zM630.92 334v3a1 1 0 0 1-.29.7l-3 3a1 1 0 0 1-.68.29h-5.22a1 1 0 0 1-.68-.29l-3-3a1 1 0 0 1-.29-.7v-3a1 1 0 0 1 .29-.7l3-3a1 1 0 0 1 .68-.29h5.22a1 1 0 0 1 .68.29l3 3a1 1 0 0 1 .29.7zm-4.39-2h-4.39l-2.41 2.41v2.2l2.41 2.41h4.39l2.41-2.41v-2.2zM636.54 331v.61l1.3-1.31a1 1 0 0 1 .7-.29h3.71a1 1 0 1 1 0 2H639l-2.41 2.41V340a1 1 0 0 1-1 1 1 1 0 0 1-1-1v-9a1 1 0 0 1 1-1 1 1 0 0 1 .95 1zM643.63 340v-.9a1 1 0 0 1 2 0v.9a1 1 0 0 1-2 0zM49.79 372a1 1 0 0 1 .94.65l2.43 6.52 2.43-6.52a1 1 0 0 1 .94-.65 1 1 0 0 1 .94.65l2.43 6.52 2.43-6.52a1 1 0 0 1 .94-.65 1 1 0 0 1 1 1 1.16 1.16 0 0 1-.07.34l-3.37 9a1 1 0 0 1-.92.65 1 1 0 0 1-.94-.65l-2.43-6.52-2.43 6.52a1 1 0 0 1-.92.65 1 1 0 0 1-.94-.65l-3.37-9a1.18 1.18 0 0 1-.07-.34 1 1 0 0 1 .98-1zM79.87 379a1 1 0 0 1-.29.7l-3 3a1 1 0 0 1-.68.29h-5.23a1 1 0 0 1-.68-.29l-3-3a1 1 0 0 1-.29-.7v-3a1 1 0 0 1 .29-.7l3-3a1 1 0 0 1 .68-.29h5.22a1 1 0 0 1 .68.29l3 3a1 1 0 0 1-.7 1.69h-10.2v1.6l2.42 2.41h4.39l2.7-2.72a1 1 0 0 1 .7-.27 1 1 0 0 1 .99.99zm-4.39-5h-4.39l-1 1h6.41zM94.32 364v9.61l1.31-1.31a1 1 0 0 1 .7-.29h5.2a1 1 0 0 1 .7.29l3 3a1 1 0 0 1 .29.7v6a1 1 0 1 1-2 0v-5.6l-2.39-2.4h-4.38l-2.43 2.41V382a1 1 0 1 1-2 0v-18a1 1 0 1 1 2 0zM122 373v9a1 1 0 0 1-2 0v-.61l-1.31 1.31a1 1 0 0 1-.68.29h-5.22a1 1 0 0 1-.68-.29l-3-3a1 1 0 0 1-.29-.7v-3a1 1 0 0 1 .29-.7l3-3a1 1 0 0 1 .68-.29h5.22a1 1 0 0 1 .68.29l1.31 1.31V373a1 1 0 0 1 2 0zm-4.39 1h-4.39l-2.41 2.41v2.2l2.41 2.41h4.39l2.41-2.41v-2.2zM125.91 372a1 1 0 0 1 .85.47l4.77 7.65 4.75-7.65a1 1 0 0 1 .85-.47 1 1 0 0 1 1 1 .92.92 0 0 1-.14.52l-5.62 9a1 1 0 0 1-1.67 0l-5.6-9a.92.92 0 0 1-.14-.52 1 1 0 0 1 .95-1zM153.35 379a1 1 0 0 1-.29.7l-3 3a1 1 0 0 1-.68.29h-5.22a1 1 0 0 1-.68-.29l-3-3a1 1 0 0 1-.29-.7v-3a1 1 0 0 1 .29-.7l3-3a1 1 0 0 1 .68-.29h5.22a1 1 0 0 1 .68.29l3 3a1 1 0 0 1-.7 1.69h-10.21v1.6l2.41 2.41H149l2.7-2.72a1 1 0 0 1 .7-.27 1 1 0 0 1 .95.99zm-4.35-5h-4.39l-1 1H150zM167.8 364v9.61l1.31-1.31a1 1 0 0 1 .7-.29H175a1 1 0 0 1 .7.29l3 3a1 1 0 0 1 .29.7v3a1 1 0 0 1-.29.7l-3 3a1 1 0 0 1-.7.29h-5.2a1 1 0 0 1-.7-.29l-1.31-1.31v.61a1 1 0 1 1-2 0v-18a1 1 0 1 1 2 0zm6.81 10h-4.37l-2.43 2.41v2.2l2.43 2.41h4.38l2.38-2.42v-2.2zM195.4 379a1 1 0 0 1-.29.7l-3 3a1 1 0 0 1-.68.29h-5.23a1 1 0 0 1-.68-.29l-3-3a1 1 0 0 1-.29-.7v-3a1 1 0 0 1 .29-.7l3-3a1 1 0 0 1 .68-.29h5.22a1 1 0 0 1 .68.29l3 3a1 1 0 0 1-.7 1.69h-10.19v1.6l2.41 2.41H191l2.7-2.72a1 1 0 0 1 .7-.27 1 1 0 0 1 1 .99zm-4.4-5h-4.39l-1 1H192zM211.8 379a1 1 0 0 1-.29.7l-3 3a1 1 0 0 1-.68.29h-5.23a1 1 0 0 1-.68-.29l-3-3a1 1 0 0 1-.29-.7v-3a1 1 0 0 1 .29-.7l3-3a1 1 0 0 1 .68-.29h5.22a1 1 0 0 1 .68.29l3 3a1 1 0 0 1-.7 1.69h-10.2v1.6L203 381h4.39l2.7-2.72a1 1 0 0 1 .7-.27 1 1 0 0 1 1.01.99zm-4.39-5H203l-1 1h6.41zM217.29 373v.61l1.3-1.31a1 1 0 0 1 .7-.29h5.2a1 1 0 0 1 .7.29l3 3a1 1 0 0 1 .29.7v6a1 1 0 0 1-2 0v-5.6l-2.38-2.4h-4.4l-2.41 2.41V382a1 1 0 0 1-1 1 1 1 0 0 1-1-1v-9a1 1 0 0 1 1-1 1 1 0 0 1 1 1zM240.69 367.9v-.9a1 1 0 1 1 2 0v.9a1 1 0 0 1-2 0zm0 14.1v-9a1 1 0 0 1 2 0v9a1 1 0 0 1-2 0zM248.7 373v.61l1.3-1.31a1 1 0 0 1 .7-.29h5.2a1 1 0 0 1 .7.29l3 3a1 1 0 0 1 .29.7v6a1 1 0 1 1-2 0v-5.6l-2.38-2.4h-4.39l-2.41 2.41V382a1 1 0 0 1-1 1 1 1 0 0 1-1-1v-9a1 1 0 0 1 1-1 1 1 0 0 1 .99 1zM268.66 364a1 1 0 0 1-.29.7l-2.7 2.7v4.6h2a1 1 0 1 1 0 2h-2v8a1 1 0 0 1-1 1 1 1 0 0 1-1-1v-15a1 1 0 0 1 .29-.7l3-3a1 1 0 0 1 .7-.29 1 1 0 0 1 1 .99zM283.6 376v3a1 1 0 0 1-.29.7l-3 3a1 1 0 0 1-.68.29h-5.23a1 1 0 0 1-.68-.29l-3-3a1 1 0 0 1-.29-.7v-3a1 1 0 0 1 .29-.7l3-3a1 1 0 0 1 .68-.29h5.22a1 1 0 0 1 .68.29l3 3a1 1 0 0 1 .3.7zm-4.39-2h-4.39l-2.41 2.41v2.2l2.41 2.41h4.39l2.41-2.41v-2.2zM289.21 373v.61l1.3-1.31a1 1 0 0 1 .7-.29h3.71a1 1 0 1 1 0 2h-3.29l-2.41 2.41V382a1 1 0 0 1-1 1 1 1 0 0 1-1-1v-9a1 1 0 0 1 1-1 1 1 0 0 1 .99 1zM298.95 382v-9a1 1 0 0 1 1-1 1 1 0 0 1 1 1v.79l1.71-1.53a1 1 0 0 1 .65-.23 1 1 0 0 1 .67.23l2.7 2.41 2.72-2.41a1 1 0 0 1 .6-.26 1 1 0 0 1 .67.23l3.37 3a1 1 0 0 1 .32.74v6a1 1 0 0 1-2 0v-5.56l-2.36-2.08-2.38 2.11V382a1 1 0 1 1-2 0v-5.56l-2.38-2.11-2.36 2.11V382a1 1 0 0 1-1 1 1 1 0 0 1-.93-1zM330.89 379a1 1 0 0 1-.29.7l-3 3a1 1 0 0 1-.68.29h-5.22a1 1 0 0 1-.68-.29l-3-3a1 1 0 0 1-.29-.7v-3a1 1 0 0 1 .29-.7l3-3a1 1 0 0 1 .68-.29h5.22a1 1 0 0 1 .68.29l3 3a1 1 0 0 1-.7 1.69h-10.21v1.6l2.41 2.41h4.39l2.7-2.72a1 1 0 0 1 .7-.27 1 1 0 0 1 1 .99zm-4.39-5h-4.39l-1 1h6.41zM347.29 364v18a1 1 0 0 1-2 0v-.61L344 382.7a1 1 0 0 1-.68.29h-5.22a1 1 0 0 1-.68-.29l-3-3a1 1 0 0 1-.29-.7v-3a1 1 0 0 1 .29-.7l3-3a1 1 0 0 1 .68-.29h5.22a1 1 0 0 1 .68.29l1.31 1.31V364a1 1 0 1 1 2 0zm-4.39 10h-4.39l-2.41 2.41v2.2l2.41 2.41h4.39l2.41-2.41v-2.2zM372.6 373v9a1 1 0 0 1-2 0v-.61l-1.31 1.31a1 1 0 0 1-.68.29h-5.21a1 1 0 0 1-.68-.29l-3-3a1 1 0 0 1-.29-.7v-3a1 1 0 0 1 .29-.7l3-3a1 1 0 0 1 .68-.29h5.22a1 1 0 0 1 .68.29l1.31 1.31V373a1 1 0 0 1 2 0zm-4.39 1h-4.39l-2.41 2.41v2.2l2.41 2.41h4.39l2.41-2.41v-2.2zM378.61 373v.61l1.3-1.31a1 1 0 0 1 .7-.29h5.2a1 1 0 0 1 .7.29l3 3a1 1 0 0 1 .29.7v6a1 1 0 0 1-2 0v-5.6l-2.38-2.4H381l-2.41 2.41V382a1 1 0 0 1-1 1 1 1 0 0 1-1-1v-9a1 1 0 0 1 1-1 1 1 0 0 1 1.02 1zM406.32 364v18a1 1 0 0 1-2 0v-.61L403 382.7a1 1 0 0 1-.68.29h-5.22a1 1 0 0 1-.68-.29l-3-3a1 1 0 0 1-.29-.7v-3a1 1 0 0 1 .29-.7l3-3a1 1 0 0 1 .68-.29h5.22a1 1 0 0 1 .68.29l1.31 1.31V364a1 1 0 1 1 2 0zm-4.39 10h-4.39l-2.41 2.41v2.2l2.41 2.41h4.39l2.41-2.41v-2.2zM431.63 373v9a1 1 0 0 1-2 0v-.61l-1.31 1.31a1 1 0 0 1-.68.29h-5.22a1 1 0 0 1-.68-.29l-3-3a1 1 0 0 1-.29-.7v-3a1 1 0 0 1 .29-.7l3-3a1 1 0 0 1 .68-.29h5.22a1 1 0 0 1 .68.29l1.31 1.31V373a1 1 0 0 1 2 0zm-4.39 1h-4.39l-2.41 2.41v2.2l2.41 2.41h4.39l2.41-2.41v-2.2zM437.64 373v.61l1.3-1.31a1 1 0 0 1 .7-.29h3.71a1 1 0 1 1 0 2H440l-2.41 2.41V382a1 1 0 0 1-1 1 1 1 0 0 1-1-1v-9a1 1 0 0 1 1-1 1 1 0 0 1 1.05 1zM459.51 379a1 1 0 0 1-.29.7l-3 3a1 1 0 0 1-.68.29h-5.22a1 1 0 0 1-.68-.29l-3-3a1 1 0 0 1-.29-.7v-3a1 1 0 0 1 .29-.7l3-3a1 1 0 0 1 .68-.29h5.22a1 1 0 0 1 .68.29l3 3a1 1 0 0 1-.7 1.69h-10.21v1.6l2.41 2.41h4.39l2.7-2.72a1 1 0 0 1 .7-.27 1 1 0 0 1 1 .99zm-4.39-5h-4.39l-1 1h6.41zM471.95 382v-18a1 1 0 1 1 2 0v18a1 1 0 1 1-2 0zM490.85 376v3a1 1 0 0 1-.29.7l-3 3a1 1 0 0 1-.68.29h-5.22a1 1 0 0 1-.68-.29l-3-3a1 1 0 0 1-.29-.7v-3a1 1 0 0 1 .29-.7l3-3a1 1 0 0 1 .68-.29h5.22a1 1 0 0 1 .68.29l3 3a1 1 0 0 1 .29.7zm-4.39-2h-4.39l-2.41 2.41v2.2l2.41 2.41h4.39l2.41-2.41v-2.2zM507.25 376v3a1 1 0 0 1-.29.7l-3 3a1 1 0 0 1-.68.29H498a1 1 0 0 1-.68-.29l-3-3a1 1 0 0 1-.29-.7v-3a1 1 0 0 1 .29-.7l3-3a1 1 0 0 1 .68-.3h5.22a1 1 0 0 1 .68.29l3 3a1 1 0 0 1 .35.71zm-4.39-2h-4.39l-2.47 2.4v2.2l2.41 2.41h4.39l2.41-2.41v-2.2zM524.24 373a1 1 0 0 1-.63.92l-8.91 3.58 8.91 3.58a1 1 0 0 1-.38 1.91.85.85 0 0 1-.36-.07L513 379v3a1 1 0 1 1-2 0v-18a1 1 0 1 1 2 0v12l9.85-4a.86.86 0 0 1 .36-.07 1 1 0 0 1 1.03 1.07zM527.33 367.9v-.9a1 1 0 1 1 2 0v.9a1 1 0 1 1-2 0zm0 14.1v-9a1 1 0 1 1 2 0v9a1 1 0 1 1-2 0zM535.34 373v.61l1.3-1.31a1 1 0 0 1 .7-.29h5.2a1 1 0 0 1 .7.29l3 3a1 1 0 0 1 .29.7v6a1 1 0 0 1-2 0v-5.6l-2.39-2.4h-4.39l-2.41 2.41V382a1 1 0 0 1-1 1 1 1 0 0 1-1-1v-9a1 1 0 0 1 1-1 1 1 0 0 1 1 1zM550.86 387a1 1 0 0 1 .7.27l2.7 2.72h4.39l2.41-2.41v-6.21l-1.31 1.31a1 1 0 0 1-.68.29h-5.22a1 1 0 0 1-.68-.29l-3-3a1 1 0 0 1-.29-.7v-3a1 1 0 0 1 .29-.7l3-3a1 1 0 0 1 .68-.29h5.22a1 1 0 0 1 .68.29l1.31 1.31V373a1 1 0 0 1 2 0v15a1 1 0 0 1-.29.7l-3 3a1 1 0 0 1-.68.29h-5.22a1 1 0 0 1-.68-.29l-3-3a1 1 0 0 1 .7-1.67zm7.8-13h-4.39l-2.41 2.41v2.2l2.41 2.41h4.39l2.41-2.41v-2.2zM575.59 367.9v-.9a1 1 0 1 1 2 0v.9a1 1 0 0 1-2 0zm0 14.1v-9a1 1 0 0 1 2 0v9a1 1 0 0 1-2 0zM583.6 373v.61l1.3-1.31a1 1 0 0 1 .7-.29h5.2a1 1 0 0 1 .7.29l3 3a1 1 0 0 1 .29.7v6a1 1 0 1 1-2 0v-5.6l-2.39-2.4H586l-2.41 2.41V382a1 1 0 0 1-1 1 1 1 0 0 1-1-1v-9a1 1 0 0 1 1-1 1 1 0 0 1 1.01 1zM602 364v8h2.36a1 1 0 1 1 0 2H602v8a1 1 0 1 1-2 0v-8h-2.36a1 1 0 1 1 0-2H600v-8a1 1 0 1 1 2 0zM620.33 376v3a1 1 0 0 1-.29.7l-3 3a1 1 0 0 1-.68.29h-5.22a1 1 0 0 1-.68-.29l-3-3a1 1 0 0 1-.29-.7v-3a1 1 0 0 1 .29-.7l3-3a1 1 0 0 1 .68-.29h5.22a1 1 0 0 1 .68.29l3 3a1 1 0 0 1 .29.7zm-4.39-2h-4.39l-2.41 2.41v2.2l2.41 2.41h4.39l2.41-2.41v-2.2zM632.54 367.9v-.9a1 1 0 1 1 2 0v.9a1 1 0 0 1-2 0zm0 14.1v-9a1 1 0 0 1 2 0v9a1 1 0 0 1-2 0zM642.76 364v8h2.36a1 1 0 0 1 0 2h-2.36v8a1 1 0 0 1-2 0v-8h-2.36a1 1 0 1 1 0-2h2.36v-8a1 1 0 1 1 2 0zM648 382v-.9a1 1 0 0 1 2 0v.9a1 1 0 0 1-2 0z"/></g></svg>