<svg xmlns="http://www.w3.org/2000/svg" viewBox="0 0 700 500"><path fill="#f2f2f2" d="M0 0h700v500H0z" data-name="Ebene 1"/><g data-name="Ebene 2"><path d="M176.7 222.28a5.49 5.49 0 0 1 2.52.56l41 20.86 37.94-19.32V187l-37.94-19.46-41 21a5.49 5.49 0 0 1-2.52.56 5.83 5.83 0 0 1-5.74-5.6V117a5.71 5.71 0 0 1 5.6-5.6h87.22a5.6 5.6 0 0 1 0 11.2h-81.62v51.8l35.42-18.06a5.49 5.49 0 0 1 2.52-.56h.14a5.13 5.13 0 0 1 2.52.56l43.54 22.12a5.73 5.73 0 0 1 3.08 5v44.38a5.46 5.46 0 0 1-3.08 4.9L222.76 255a5.49 5.49 0 0 1-2.52.56h-.14a5.12 5.12 0 0 1-2.52-.56L174 232.78a5.58 5.58 0 0 1 2.66-10.5zM352.38 255a5.5 5.5 0 0 1-2.52.56h-.14a5.13 5.13 0 0 1-2.52-.56l-43.54-22.26a5.53 5.53 0 0 1-3.08-4.9v-88.72a5.46 5.46 0 0 1 3.08-4.9L347.2 112a5.49 5.49 0 0 1 2.52-.56h.14a5.13 5.13 0 0 1 2.52.56l43.54 22.26a5.52 5.52 0 0 1 3.08 4.9v88.76a5.46 5.46 0 0 1-3.08 4.9zm35.42-112.38l-37.94-19.32-38.08 19.32v81.76l38.08 19.32 37.94-19.32zM482 255a5.5 5.5 0 0 1-2.52.56h-.14a5.13 5.13 0 0 1-2.52-.56l-43.54-22.26a5.53 5.53 0 0 1-3.08-4.9v-88.72a5.46 5.46 0 0 1 3.08-4.9L476.83 112a5.49 5.49 0 0 1 2.52-.56h.14a5.13 5.13 0 0 1 2.51.56l43.54 22.26a5.52 5.52 0 0 1 3.08 4.9v88.76a5.46 5.46 0 0 1-3.08 4.9zm35.42-112.42l-37.93-19.28-38.08 19.32v81.76l38.08 19.32 37.94-19.32zM49.43 322.89v7.83h2.63a.72.72 0 1 1 0 1.44h-2.63V340a.72.72 0 1 1-1.43 0v-7.83h-2.63a.72.72 0 1 1 0-1.44H48v-7.83a.72.72 0 0 1 1.44 0zM57.78 322.89v10.23l4.56-2.32a.71.71 0 0 1 .32-.07.66.66 0 0 1 .32.07l5.6 2.86a.71.71 0 0 1 .4.63V340a.72.72 0 0 1-1.44 0v-5.26l-4.9-2.48-4.88 2.48V340a.72.72 0 0 1-1.44 0v-17.11a.72.72 0 0 1 1.44 0zM85.5 337.14a.72.72 0 0 1-.4.65l-5.58 2.86a.66.66 0 0 1-.32.07.78.78 0 0 1-.34-.07l-5.58-2.86a.7.7 0 0 1-.4-.63v-2.86a.71.71 0 0 1 .4-.63l5.58-2.86a.73.73 0 0 1 .34-.07.71.71 0 0 1 .32.07l5.58 2.86a.69.69 0 0 1 .4.63.71.71 0 0 1-.72.72H74.3v1.69l4.88 2.48 5.28-2.68a.73.73 0 0 1 1 .63zm-6.32-4.88l-2.61 1.31h5.22zM109.76 335a.7.7 0 0 1-.32-.07l-5.28-2.68-3.57 1.82 9.35 2.38a.67.67 0 0 1 .52.68.72.72 0 0 1-.38.65l-5.58 2.86a.71.71 0 0 1-.32.07.73.73 0 0 1-.34-.07l-5.58-2.86a.72.72 0 0 1-.4-.65.73.73 0 0 1 1-.63l5.28 2.68 3.57-1.82-9.33-2.36a.75.75 0 0 1-.54-.72.69.69 0 0 1 .4-.61l5.58-2.86a.73.73 0 0 1 .34-.07.71.71 0 0 1 .32.07l5.58 2.86a.72.72 0 0 1 .4.65.71.71 0 0 1-.7.68zM126.88 337.14a.72.72 0 0 1-.4.65l-5.58 2.86a.66.66 0 0 1-.32.07.78.78 0 0 1-.34-.07l-5.58-2.86a.7.7 0 0 1-.4-.63v-2.86a.71.71 0 0 1 .4-.63l5.58-2.86a.73.73 0 0 1 .34-.07.71.71 0 0 1 .32.07l5.58 2.86a.69.69 0 0 1 .4.63.71.71 0 0 1-.72.72h-10.48v1.69l4.88 2.48 5.28-2.68a.73.73 0 0 1 1 .63zm-6.32-4.88l-2.61 1.31h5.22zM132.38 331.45v1.67l4.56-2.32a.71.71 0 0 1 .32-.07h1.12a.72.72 0 1 1 0 1.44h-.94l-5.06 2.57V340a.72.72 0 0 1-1.44 0v-8.55a.72.72 0 0 1 1.44 0zM142.71 330.73a.73.73 0 0 1 .61.32l5 7.63 5-7.63a.7.7 0 0 1 .59-.32.73.73 0 0 1 .72.72.85.85 0 0 1-.13.4l-5.6 8.55a.74.74 0 0 1-.61.31.7.7 0 0 1-.59-.31l-5.6-8.55a.82.82 0 0 1-.11-.4.72.72 0 0 1 .72-.72zM169.83 337.14a.72.72 0 0 1-.4.65l-5.58 2.86a.66.66 0 0 1-.32.07.79.79 0 0 1-.34-.07l-5.58-2.86a.7.7 0 0 1-.4-.63v-2.86a.71.71 0 0 1 .4-.63l5.58-2.86a.73.73 0 0 1 .34-.07.71.71 0 0 1 .32.07l5.58 2.86a.69.69 0 0 1 .4.63.71.71 0 0 1-.72.72h-10.48v1.69l4.88 2.48 5.28-2.68a.73.73 0 0 1 1 .63zm-6.32-4.88l-2.61 1.31h5.22zM175.34 331.45v1.67l4.56-2.32a.71.71 0 0 1 .32-.07h1.12a.72.72 0 1 1 0 1.44h-.94l-5.06 2.57V340a.72.72 0 0 1-1.44 0v-8.55a.72.72 0 0 1 1.44 0zM206.35 337.14a.72.72 0 0 1-.4.65l-5.58 2.86a.66.66 0 0 1-.32.07.79.79 0 0 1-.34-.07l-5.58-2.86a.7.7 0 0 1-.4-.63v-2.86a.71.71 0 0 1 .4-.63l5.58-2.86a.73.73 0 0 1 .34-.07.71.71 0 0 1 .32.07l5.58 2.86a.69.69 0 0 1 .4.63.71.71 0 0 1-.72.72h-10.48v1.69l4.88 2.48 5.28-2.68a.73.73 0 0 1 1 .63zm-6.35-4.88l-2.61 1.31h5.22zM211.88 331.45v1.67l4.54-2.32a.71.71 0 0 1 .32-.07.66.66 0 0 1 .32.07l5.6 2.86a.71.71 0 0 1 .4.63V340a.72.72 0 0 1-1.44 0v-5.26l-4.88-2.48-4.88 2.48V340a.74.74 0 0 1-.74.72.72.72 0 0 1-.72-.72v-8.55a.72.72 0 0 1 .72-.72.74.74 0 0 1 .76.72zM238.86 335a.71.71 0 0 1-.32-.07l-5.28-2.68-4.88 2.48v2l4.88 2.48 5.28-2.68a.72.72 0 1 1 .65 1.28l-5.58 2.86a.66.66 0 0 1-.32.07.78.78 0 0 1-.34-.07l-5.58-2.86a.7.7 0 0 1-.4-.63v-2.86a.71.71 0 0 1 .4-.63l5.58-2.86a.73.73 0 0 1 .34-.07.71.71 0 0 1 .32.07l5.58 2.86a.72.72 0 0 1 .4.65.71.71 0 0 1-.73.66zM256 334.29v2.86a.71.71 0 0 1-.4.63l-5.6 2.87a.66.66 0 0 1-.32.07.78.78 0 0 1-.34-.07l-5.58-2.86a.7.7 0 0 1-.4-.63v-2.86a.71.71 0 0 1 .4-.63l5.58-2.86a.73.73 0 0 1 .34-.07.71.71 0 0 1 .32.07l5.58 2.86a.7.7 0 0 1 .42.62zm-6.32-2l-4.88 2.48v2l4.88 2.48 4.88-2.48v-2zM261.32 331.45v5.26l4.88 2.48 4.88-2.48v-5.26a.72.72 0 0 1 1.44 0v5.71a.71.71 0 0 1-.4.63l-5.58 2.86a.66.66 0 0 1-.32.07.79.79 0 0 1-.34-.07l-5.58-2.86a.7.7 0 0 1-.4-.63v-5.71a.72.72 0 0 1 1.44 0zM278.32 331.45v1.67l4.54-2.32a.72.72 0 0 1 .32-.07.66.66 0 0 1 .32.07l5.6 2.86a.71.71 0 0 1 .4.63V340a.72.72 0 0 1-1.44 0v-5.26l-4.88-2.48-4.88 2.48V340a.74.74 0 0 1-.74.72.72.72 0 0 1-.72-.72v-8.55a.72.72 0 0 1 .72-.72.74.74 0 0 1 .76.72zM296.67 322.89v7.83h2.63a.72.72 0 0 1 0 1.44h-2.63V340a.72.72 0 0 1-1.44 0v-7.83h-2.63a.72.72 0 1 1 0-1.44h2.63v-7.83a.72.72 0 0 1 1.44 0zM315 337.14a.72.72 0 0 1-.4.65l-5.6 2.86a.66.66 0 0 1-.32.07.79.79 0 0 1-.34-.07l-5.58-2.86a.7.7 0 0 1-.4-.63v-2.86a.71.71 0 0 1 .4-.63l5.58-2.86a.73.73 0 0 1 .34-.07.71.71 0 0 1 .32.07l5.58 2.86a.69.69 0 0 1 .4.63.71.71 0 0 1-.72.72h-10.48v1.69l4.88 2.48 5.28-2.68a.73.73 0 0 1 1 .63zm-6.32-4.88l-2.61 1.31h5.22zM320.49 331.45v1.67l4.51-2.32a.71.71 0 0 1 .32-.07h1.12a.72.72 0 1 1 0 1.44h-.94l-5.06 2.57V340a.72.72 0 0 1-1.44 0v-8.55a.72.72 0 0 1 1.44 0zM342.34 337.14a.72.72 0 0 1-.4.65l-5.58 2.86a.66.66 0 0 1-.32.07.78.78 0 0 1-.34-.07l-5.58-2.86a.7.7 0 0 1-.4-.63v-2.86a.71.71 0 0 1 .4-.63l5.58-2.86a.73.73 0 0 1 .34-.07.71.71 0 0 1 .32.07l5.58 2.86a.69.69 0 0 1 .4.63.71.71 0 0 1-.72.72h-10.48v1.69l4.88 2.48 5.28-2.68a.73.73 0 0 1 1 .63zm-6.34-4.88l-2.61 1.31h5.22zM358.73 322.89V340a.72.72 0 0 1-1.44 0v-1.67l-4.54 2.32a.66.66 0 0 1-.32.07.79.79 0 0 1-.34-.07l-5.58-2.86a.7.7 0 0 1-.4-.63v-2.86a.71.71 0 0 1 .4-.63l5.58-2.86a.73.73 0 0 1 .34-.07.71.71 0 0 1 .32.07l4.54 2.32v-10.24a.72.72 0 0 1 1.44 0zm-6.32 9.36l-4.88 2.48v2l4.88 2.48 4.88-2.48v-2zM384 331.45V340a.72.72 0 0 1-1.44 0v-1.67l-4.54 2.32a.71.71 0 0 1-.32.07.73.73 0 0 1-.34-.07l-5.58-2.86a.71.71 0 0 1-.4-.63v-2.86a.7.7 0 0 1 .4-.63l5.58-2.86a.78.78 0 0 1 .34-.07.66.66 0 0 1 .32.07l4.54 2.32v-1.67a.72.72 0 0 1 1.44 0zm-6.32.81l-4.88 2.48v2l4.88 2.48 4.88-2.48v-2zM390.05 331.45v1.67l4.54-2.32a.72.72 0 0 1 .32-.07.66.66 0 0 1 .32.07l5.6 2.86a.71.71 0 0 1 .4.63V340a.72.72 0 1 1-1.44 0v-5.26l-4.88-2.48-4.88 2.48V340a.74.74 0 0 1-.74.72.72.72 0 0 1-.72-.72v-8.55a.72.72 0 0 1 .72-.72.74.74 0 0 1 .76.72zM415 331.45v5.26l4.88 2.48 4.88-2.48v-5.26a.72.72 0 0 1 1.44 0v5.71a.71.71 0 0 1-.4.63l-5.58 2.86a.66.66 0 0 1-.32.07.78.78 0 0 1-.34-.07l-5.56-2.86a.7.7 0 0 1-.4-.63v-5.71a.72.72 0 0 1 1.44 0zM432 331.45v1.67l4.54-2.32a.71.71 0 0 1 .32-.07.66.66 0 0 1 .32.07l5.6 2.86a.71.71 0 0 1 .4.63V340a.72.72 0 0 1-1.44 0v-5.26l-4.88-2.48-4.86 2.48V340a.74.74 0 0 1-.74.72.72.72 0 0 1-.72-.72v-8.55a.72.72 0 0 1 .72-.72.74.74 0 0 1 .74.72zM459.73 337.14a.72.72 0 0 1-.4.65l-5.58 2.86a.66.66 0 0 1-.32.07.79.79 0 0 1-.34-.07l-5.58-2.86a.7.7 0 0 1-.4-.63v-2.86a.71.71 0 0 1 .4-.63l5.58-2.86a.73.73 0 0 1 .34-.07.71.71 0 0 1 .32.07l5.58 2.86a.69.69 0 0 1 .4.63.71.71 0 0 1-.72.72h-10.48v1.69l4.88 2.48 5.28-2.68a.73.73 0 0 1 1 .63zm-6.32-4.88l-2.61 1.31h5.2zM463.2 330.73a.77.77 0 0 1 .43.14l5.17 3.94 5.17-3.94a.77.77 0 0 1 .43-.14.72.72 0 0 1 .72.72.73.73 0 0 1-.27.58l-4.85 3.7 4.86 3.69a.73.73 0 0 1 .27.58.72.72 0 0 1-.72.72.77.77 0 0 1-.43-.14l-5.17-3.94-5.17 3.94a.77.77 0 0 1-.43.14.72.72 0 0 1-.72-.72.75.75 0 0 1 .29-.58l4.84-3.69-4.85-3.73a.75.75 0 0 1-.29-.58.72.72 0 0 1 .72-.69zM480.3 331.45v1.67l4.55-2.32a.72.72 0 0 1 .32-.07.66.66 0 0 1 .32.07l5.6 2.86a.71.71 0 0 1 .4.63v2.86a.7.7 0 0 1-.4.63l-5.6 2.86a.71.71 0 0 1-.32.07.67.67 0 0 1-.32-.07l-4.55-2.32v10.23a.72.72 0 0 1-1.44 0v-17.1a.72.72 0 0 1 1.44 0zm4.9 7.74l4.88-2.48v-2l-4.88-2.48-4.9 2.48v2zM507.9 337.14a.72.72 0 0 1-.4.65l-5.58 2.86a.66.66 0 0 1-.32.07.78.78 0 0 1-.34-.07l-5.58-2.86a.7.7 0 0 1-.4-.63v-2.86a.71.71 0 0 1 .4-.63l5.58-2.86a.73.73 0 0 1 .34-.07.71.71 0 0 1 .32.07l5.58 2.86a.69.69 0 0 1 .4.63.71.71 0 0 1-.72.72H496.7v1.69l4.88 2.48 5.28-2.68a.73.73 0 0 1 1 .63zm-6.32-4.88l-2.58 1.31h5.22zM523.57 335a.7.7 0 0 1-.32-.07l-5.25-2.67-4.88 2.48v2l4.88 2.48 5.28-2.68a.73.73 0 0 1 1 .63.72.72 0 0 1-.4.65l-5.58 2.86a.66.66 0 0 1-.32.07.78.78 0 0 1-.34-.07l-5.64-2.89a.7.7 0 0 1-.4-.63v-2.86a.71.71 0 0 1 .4-.63l5.58-2.86a.73.73 0 0 1 .34-.07.71.71 0 0 1 .32.07l5.58 2.86a.72.72 0 0 1 .4.65.71.71 0 0 1-.65.68zM531.45 322.89v7.83h2.63a.72.72 0 1 1 0 1.44h-2.63V340a.72.72 0 1 1-1.44 0v-7.83h-2.63a.72.72 0 1 1 0-1.44H530v-7.83a.72.72 0 0 1 1.44 0zM549.76 337.14a.72.72 0 0 1-.4.65l-5.58 2.86a.66.66 0 0 1-.32.07.78.78 0 0 1-.34-.07l-5.58-2.86a.7.7 0 0 1-.4-.63v-2.86a.71.71 0 0 1 .4-.63l5.58-2.86a.73.73 0 0 1 .34-.07.71.71 0 0 1 .32.07l5.58 2.86a.69.69 0 0 1 .4.63.71.71 0 0 1-.72.72h-10.48v1.69l4.88 2.48 5.28-2.68a.73.73 0 0 1 1 .63zm-6.32-4.88l-2.61 1.31h5.22zM566.16 322.89V340a.72.72 0 0 1-1.44 0v-1.67l-4.54 2.32a.66.66 0 0 1-.32.07.78.78 0 0 1-.34-.07l-5.58-2.86a.7.7 0 0 1-.4-.63v-2.86a.71.71 0 0 1 .4-.63l5.58-2.86a.73.73 0 0 1 .34-.07.71.71 0 0 1 .32.07l4.54 2.32v-10.24a.72.72 0 0 1 1.44 0zm-6.32 9.36l-4.84 2.49v2l4.88 2.48 4.88-2.48v-2zM591.46 337.14a.72.72 0 0 1-.4.65l-5.58 2.86a.66.66 0 0 1-.32.07.78.78 0 0 1-.34-.07l-5.58-2.86a.7.7 0 0 1-.4-.63v-2.86a.71.71 0 0 1 .4-.63l5.58-2.86a.73.73 0 0 1 .34-.07.71.71 0 0 1 .32.07l5.58 2.86a.69.69 0 0 1 .4.63.71.71 0 0 1-.72.72h-10.48v1.69l4.88 2.48 5.28-2.68a.73.73 0 0 1 1 .63zm-6.32-4.88l-2.61 1.31h5.22zM597 331.45v1.67l4.55-2.32a.71.71 0 0 1 .32-.07H603a.72.72 0 0 1 0 1.44h-1l-5 2.57V340a.72.72 0 0 1-1.44 0v-8.55a.72.72 0 0 1 1.44 0zM608.68 331.45v1.67l4.56-2.32a.71.71 0 0 1 .32-.07h1.12a.72.72 0 1 1 0 1.44h-.94l-5.06 2.57V340a.72.72 0 0 1-1.44 0v-8.55a.72.72 0 0 1 1.44 0zM630.54 334.29v2.86a.71.71 0 0 1-.4.63l-5.58 2.86a.66.66 0 0 1-.32.07.78.78 0 0 1-.34-.07l-5.58-2.86a.7.7 0 0 1-.4-.63v-2.86a.71.71 0 0 1 .4-.63l5.58-2.86a.73.73 0 0 1 .34-.07.71.71 0 0 1 .32.07l5.58 2.86a.7.7 0 0 1 .4.63zm-6.32-2l-4.88 2.48v2l4.88 2.48 4.88-2.48v-2zM636.14 331.45v1.67l4.56-2.32a.71.71 0 0 1 .32-.07h1.12a.72.72 0 1 1 0 1.44h-.94l-5.06 2.57V340a.72.72 0 0 1-1.44 0v-8.55a.72.72 0 0 1 1.44 0zM643.78 340v-.86a.72.72 0 1 1 1.44 0v.86a.72.72 0 0 1-1.44 0zM49.25 372.73a.7.7 0 0 1 .67.45l2.7 6.86 2.7-6.86a.67.67 0 0 1 .65-.43.71.71 0 0 1 .68.43l2.7 6.86 2.7-6.86a.7.7 0 0 1 .67-.45.72.72 0 0 1 .72.72.7.7 0 0 1-.05.27L60 382.27a.7.7 0 0 1-.68.43.67.67 0 0 1-.65-.43L56 375.41l-2.7 6.86a.71.71 0 0 1-.68.43.67.67 0 0 1-.65-.43l-3.37-8.55a.72.72 0 0 1 .67-1zM79.06 379.14a.72.72 0 0 1-.4.65l-5.58 2.86a.66.66 0 0 1-.32.07.78.78 0 0 1-.34-.07l-5.58-2.86a.7.7 0 0 1-.4-.63v-2.86a.71.71 0 0 1 .4-.63l5.58-2.86a.73.73 0 0 1 .34-.07.71.71 0 0 1 .32.07l5.58 2.86a.69.69 0 0 1 .4.63.71.71 0 0 1-.72.72H67.86v1.69l4.88 2.48 5.26-2.68a.73.73 0 0 1 1 .63zm-6.32-4.88l-2.61 1.31h5.22zM93.51 364.89v10.23l4.55-2.32a.71.71 0 0 1 .32-.07.66.66 0 0 1 .32.07l5.6 2.86a.71.71 0 0 1 .4.63V382a.72.72 0 1 1-1.44 0v-5.26l-4.9-2.48-4.88 2.48V382a.72.72 0 0 1-1.44 0v-17.11a.72.72 0 0 1 1.44 0zM121.22 373.45V382a.72.72 0 0 1-1.44 0v-1.67l-4.54 2.32a.71.71 0 0 1-.32.07.73.73 0 0 1-.34-.07l-5.58-2.86a.71.71 0 0 1-.4-.63v-2.86a.7.7 0 0 1 .4-.63l5.58-2.86a.78.78 0 0 1 .34-.07.66.66 0 0 1 .32.07l4.54 2.32v-1.67a.72.72 0 0 1 1.44 0zm-6.32.81l-4.9 2.48v2l4.88 2.48 4.88-2.48v-2zM125.35 372.73a.73.73 0 0 1 .61.32l5 7.63 5-7.63a.7.7 0 0 1 .59-.32.73.73 0 0 1 .72.72.85.85 0 0 1-.13.4l-5.6 8.55a.74.74 0 0 1-.61.31.7.7 0 0 1-.59-.31l-5.6-8.55a.82.82 0 0 1-.11-.4.72.72 0 0 1 .72-.72zM152.47 379.14a.72.72 0 0 1-.4.65l-5.58 2.86a.66.66 0 0 1-.32.07.78.78 0 0 1-.34-.07l-5.58-2.86a.7.7 0 0 1-.4-.63v-2.86a.71.71 0 0 1 .4-.63l5.58-2.86a.73.73 0 0 1 .34-.07.71.71 0 0 1 .32.07l5.58 2.86a.69.69 0 0 1 .4.63.71.71 0 0 1-.72.72h-10.48v1.69l4.88 2.48 5.28-2.68a.73.73 0 0 1 1 .63zm-6.32-4.88l-2.61 1.31h5.22zM166.92 364.89v10.23l4.55-2.32a.66.66 0 0 1 .32-.07.7.7 0 0 1 .32.07l5.6 2.86a.72.72 0 0 1 .4.63v2.86a.71.71 0 0 1-.4.63l-5.6 2.86a.66.66 0 0 1-.32.07.71.71 0 0 1-.32-.07l-4.55-2.32V382a.72.72 0 0 1-1.44 0v-17.11a.72.72 0 0 1 1.44 0zm4.88 9.36l-4.88 2.48v2l4.88 2.48 4.9-2.48v-2zM194.52 379.14a.72.72 0 0 1-.4.65l-5.58 2.86a.66.66 0 0 1-.32.07.78.78 0 0 1-.34-.07l-5.58-2.86a.7.7 0 0 1-.4-.63v-2.86a.71.71 0 0 1 .4-.63l5.58-2.86a.73.73 0 0 1 .34-.07.71.71 0 0 1 .32.07l5.58 2.86a.69.69 0 0 1 .4.63.71.71 0 0 1-.72.72h-10.48v1.69l4.88 2.48 5.28-2.68a.73.73 0 0 1 1 .63zm-6.32-4.88l-2.61 1.31h5.22zM210.92 379.14a.72.72 0 0 1-.4.65l-5.58 2.86a.66.66 0 0 1-.32.07.78.78 0 0 1-.34-.07l-5.58-2.86a.7.7 0 0 1-.4-.63v-2.86a.71.71 0 0 1 .4-.63l5.58-2.86a.73.73 0 0 1 .34-.07.71.71 0 0 1 .32.07l5.58 2.86a.69.69 0 0 1 .4.63.71.71 0 0 1-.72.72h-10.49v1.69l4.88 2.48 5.28-2.68a.73.73 0 0 1 1 .63zm-6.32-4.88l-2.6 1.31h5.22zM216.44 373.45v1.67l4.56-2.32a.71.71 0 0 1 .32-.07.66.66 0 0 1 .32.07l5.6 2.86a.71.71 0 0 1 .4.63V382a.72.72 0 0 1-1.44 0v-5.26l-4.88-2.48-4.88 2.48V382a.74.74 0 0 1-.74.72.72.72 0 0 1-.7-.72v-8.55a.72.72 0 0 1 .72-.72.74.74 0 0 1 .72.72zM240.38 368.6v-.87a.72.72 0 0 1 1.44 0v.87a.72.72 0 0 1-1.44 0zm0 13.4v-8.55a.72.72 0 0 1 1.44 0V382a.72.72 0 0 1-1.44 0zM247.85 373.45v1.67l4.54-2.32a.71.71 0 0 1 .32-.07.67.67 0 0 1 .32.07l5.6 2.86a.71.71 0 0 1 .4.63V382a.72.72 0 0 1-1.44 0v-5.26l-4.88-2.48-4.88 2.48V382a.74.74 0 0 1-.74.72.72.72 0 0 1-.72-.72v-8.55a.72.72 0 0 1 .72-.72.74.74 0 0 1 .76.72zM270.4 364.89a.72.72 0 0 1-.4.65l-5.2 2.65v4.54h4.88a.72.72 0 0 1 0 1.44h-4.88V382a.72.72 0 0 1-1.44 0v-14.26a.71.71 0 0 1 .4-.63l5.6-2.86a.7.7 0 0 1 .32-.07.72.72 0 0 1 .72.71zM284 376.29v2.86a.71.71 0 0 1-.4.63l-5.58 2.86a.66.66 0 0 1-.32.07.79.79 0 0 1-.34-.07l-5.58-2.86a.7.7 0 0 1-.4-.63v-2.86a.71.71 0 0 1 .4-.63l5.58-2.86a.73.73 0 0 1 .34-.07.71.71 0 0 1 .32.07l5.58 2.86a.7.7 0 0 1 .4.63zm-6.32-2l-4.88 2.48v2l4.88 2.48 4.88-2.48v-2zM289.64 373.45v1.67l4.56-2.32a.71.71 0 0 1 .32-.07h1.12a.72.72 0 1 1 0 1.44h-.94l-5.06 2.57V382a.72.72 0 0 1-1.44 0v-8.55a.72.72 0 0 1 1.44 0zM299.91 382v-8.55a.72.72 0 0 1 1.44 0v1.3l2.2-1.85a.69.69 0 0 1 .45-.16.71.71 0 0 1 .47.16l2.9 2.47 2.9-2.47a.74.74 0 0 1 .47-.16.71.71 0 0 1 .47.16l3.37 2.86a.73.73 0 0 1 .25.54v5.7a.72.72 0 0 1-1.44 0v-5.37l-2.65-2.25-2.65 2.25V382a.72.72 0 0 1-1.44 0v-5.37l-2.65-2.25-2.65 2.25V382a.72.72 0 0 1-1.44 0zM331.33 379.14a.72.72 0 0 1-.4.65l-5.58 2.86a.66.66 0 0 1-.32.07.79.79 0 0 1-.34-.07l-5.58-2.86a.7.7 0 0 1-.4-.63v-2.86a.71.71 0 0 1 .4-.63l5.58-2.86a.73.73 0 0 1 .34-.07.71.71 0 0 1 .32.07l5.58 2.86a.69.69 0 0 1 .4.63.71.71 0 0 1-.72.72h-10.48v1.69l4.88 2.48 5.28-2.68a.73.73 0 0 1 1 .63zm-6.33-4.88l-2.61 1.31h5.22zM347.72 364.89V382a.72.72 0 0 1-1.44 0v-1.67l-4.54 2.32a.66.66 0 0 1-.32.07.78.78 0 0 1-.34-.07l-5.58-2.86a.7.7 0 0 1-.4-.63v-2.86a.71.71 0 0 1 .4-.63l5.58-2.86a.73.73 0 0 1 .34-.07.71.71 0 0 1 .32.07l4.54 2.32v-10.24a.72.72 0 0 1 1.44 0zm-6.32 9.36l-4.88 2.48v2l4.88 2.48 4.88-2.48v-2zM373 373.45V382a.72.72 0 0 1-1.44 0v-1.67l-4.54 2.32a.71.71 0 0 1-.32.07.73.73 0 0 1-.34-.07l-5.58-2.86a.71.71 0 0 1-.4-.63v-2.86a.7.7 0 0 1 .4-.63l5.58-2.86a.78.78 0 0 1 .34-.07.66.66 0 0 1 .32.07l4.54 2.32v-1.67a.72.72 0 0 1 1.44 0zm-6.32.81l-4.88 2.48v2l4.88 2.48 4.88-2.48v-2zM379 373.45v1.67l4.54-2.32a.71.71 0 0 1 .32-.07.66.66 0 0 1 .32.07l5.6 2.86a.71.71 0 0 1 .4.63V382a.72.72 0 0 1-1.44 0v-5.26l-4.88-2.48-4.86 2.48V382a.74.74 0 0 1-.74.72.72.72 0 0 1-.72-.72v-8.55a.72.72 0 0 1 .72-.72.74.74 0 0 1 .74.72zM406.74 364.89V382a.72.72 0 0 1-1.44 0v-1.67l-4.54 2.32a.66.66 0 0 1-.32.07.79.79 0 0 1-.34-.07l-5.58-2.86a.7.7 0 0 1-.4-.63v-2.86a.71.71 0 0 1 .4-.63l5.58-2.86a.73.73 0 0 1 .34-.07.71.71 0 0 1 .32.07l4.54 2.32v-10.24a.72.72 0 0 1 1.44 0zm-6.32 9.36l-4.88 2.48v2l4.88 2.48 4.88-2.48v-2zM432 373.45V382a.72.72 0 0 1-1.44 0v-1.67l-4.54 2.32a.71.71 0 0 1-.32.07.73.73 0 0 1-.34-.07l-5.58-2.86a.71.71 0 0 1-.4-.63v-2.86a.7.7 0 0 1 .4-.63l5.58-2.86a.78.78 0 0 1 .34-.07.66.66 0 0 1 .32.07l4.54 2.32v-1.67a.72.72 0 0 1 1.44 0zm-6.32.81l-4.88 2.48v2l4.88 2.48 4.88-2.48v-2zM438 373.45v1.67l4.55-2.32a.71.71 0 0 1 .32-.07H444a.72.72 0 0 1 0 1.44h-.94l-5.06 2.57V382a.72.72 0 0 1-1.44 0v-8.55a.72.72 0 0 1 1.44 0zM459.9 379.14a.72.72 0 0 1-.4.65l-5.58 2.86a.66.66 0 0 1-.32.07.78.78 0 0 1-.34-.07l-5.58-2.86a.7.7 0 0 1-.4-.63v-2.86a.71.71 0 0 1 .4-.63l5.58-2.86a.73.73 0 0 1 .34-.07.71.71 0 0 1 .32.07l5.58 2.86a.69.69 0 0 1 .4.63.71.71 0 0 1-.72.72H448.7v1.69l4.88 2.48 5.28-2.68a.73.73 0 0 1 1 .63zm-6.32-4.88l-2.58 1.31h5.22zM472.87 382v-17.11a.72.72 0 0 1 1.44 0V382a.72.72 0 0 1-1.44 0zM491.22 376.29v2.86a.71.71 0 0 1-.4.63l-5.58 2.86a.66.66 0 0 1-.32.07.79.79 0 0 1-.34-.07l-5.58-2.85a.7.7 0 0 1-.4-.63v-2.86a.71.71 0 0 1 .4-.63l5.58-2.86a.73.73 0 0 1 .34-.07.71.71 0 0 1 .32.07l5.58 2.86a.7.7 0 0 1 .4.62zm-6.32-2l-4.9 2.45v2l4.88 2.48 4.88-2.48v-2zM507.61 376.29v2.86a.71.71 0 0 1-.4.63l-5.58 2.86a.66.66 0 0 1-.32.07.79.79 0 0 1-.34-.07l-5.58-2.86a.7.7 0 0 1-.4-.63v-2.86a.71.71 0 0 1 .4-.63l5.61-2.86a.73.73 0 0 1 .34-.07.71.71 0 0 1 .32.07l5.58 2.86a.7.7 0 0 1 .37.63zm-6.32-2l-4.88 2.48v2l4.88 2.48 4.88-2.48v-2zM524.6 373.45a.71.71 0 0 1-.47.67l-9.45 3.62 9.45 3.6a.71.71 0 0 1 .47.67.74.74 0 0 1-.74.72.63.63 0 0 1-.25-.05l-10.23-3.89V382a.72.72 0 0 1-1.44 0v-17.11a.72.72 0 0 1 1.44 0v11.78l10.23-3.89a.63.63 0 0 1 .25-.05.74.74 0 0 1 .74.72zM528.22 368.6v-.87a.72.72 0 0 1 1.44 0v.87a.72.72 0 0 1-1.44 0zm0 13.4v-8.55a.72.72 0 0 1 1.44 0V382a.72.72 0 0 1-1.44 0zM535.7 373.45v1.67l4.54-2.32a.71.71 0 0 1 .32-.07.66.66 0 0 1 .32.07l5.6 2.86a.71.71 0 0 1 .4.63V382a.72.72 0 0 1-1.44 0v-5.26l-4.88-2.48-4.88 2.48V382a.74.74 0 0 1-.74.72.72.72 0 0 1-.72-.72v-8.55a.72.72 0 0 1 .72-.72.74.74 0 0 1 .76.72zM551.47 387a.71.71 0 0 1 .32.07l5.28 2.68 4.88-2.48v-6.93l-4.54 2.32a.66.66 0 0 1-.32.07.79.79 0 0 1-.34-.07l-5.58-2.86a.7.7 0 0 1-.4-.63v-2.86a.71.71 0 0 1 .4-.63l5.58-2.86a.73.73 0 0 1 .34-.07.71.71 0 0 1 .32.07l4.54 2.32v-1.67a.72.72 0 0 1 1.44 0v14.26a.7.7 0 0 1-.4.63l-5.58 2.86a.78.78 0 0 1-.34.07.66.66 0 0 1-.32-.07l-5.58-2.86a.72.72 0 0 1-.4-.65.71.71 0 0 1 .7-.71zm5.6-12.73l-4.88 2.48v2l4.88 2.48 4.88-2.48v-2zM576.48 368.6v-.87a.72.72 0 0 1 1.44 0v.87a.72.72 0 0 1-1.44 0zm0 13.4v-8.55a.72.72 0 0 1 1.44 0V382a.72.72 0 0 1-1.44 0zM584 373.45v1.67l4.54-2.32a.71.71 0 0 1 .32-.07.66.66 0 0 1 .32.07l5.6 2.86a.71.71 0 0 1 .4.63V382a.72.72 0 0 1-1.44 0v-5.26l-4.88-2.48-4.86 2.48V382a.74.74 0 0 1-.74.72.72.72 0 0 1-.72-.72v-8.55a.72.72 0 0 1 .72-.72.74.74 0 0 1 .74.72zM602.29 364.89v7.83h2.63a.72.72 0 1 1 0 1.44h-2.63V382a.72.72 0 1 1-1.44 0v-7.83h-2.63a.72.72 0 1 1 0-1.44h2.63v-7.83a.72.72 0 0 1 1.44 0zM620.61 376.29v2.86a.71.71 0 0 1-.4.63l-5.58 2.86a.66.66 0 0 1-.32.07.78.78 0 0 1-.34-.07l-5.58-2.86a.7.7 0 0 1-.4-.63v-2.86a.71.71 0 0 1 .4-.63l5.58-2.86a.73.73 0 0 1 .34-.07.71.71 0 0 1 .32.07l5.58 2.86a.7.7 0 0 1 .4.63zm-6.32-2l-4.88 2.48v2l4.88 2.48 4.88-2.48v-2zM633.37 368.6v-.87a.72.72 0 1 1 1.44 0v.87a.72.72 0 1 1-1.44 0zm0 13.4v-8.55a.72.72 0 0 1 1.44 0V382a.72.72 0 1 1-1.44 0zM643 364.89v7.83h2.63a.72.72 0 1 1 0 1.44H643V382a.72.72 0 0 1-1.44 0v-7.83H639a.72.72 0 0 1 0-1.44h2.63v-7.83a.72.72 0 0 1 1.44 0zM648.77 382v-.86a.72.72 0 1 1 1.44 0v.86a.72.72 0 0 1-1.44 0z"/></g></svg>