<svg xmlns="http://www.w3.org/2000/svg" viewBox="0 0 700 500"><path fill="#f2f2f2" d="M0 0h700v500H0z" data-name="Ebene 1"/><g data-name="Ebene 2"><path d="M145.76 233.06a1.64 1.64 0 0 1-1.4-1.68 1.83 1.83 0 0 1 1.68-1.82h.42L200.08 241l52.36-11v-34.6l-52.36-11.06-53.62 11.34a1.79 1.79 0 0 1-2.1-1.68v-56a2 2 0 0 1 1.82-1.82h107.94a1.85 1.85 0 0 1 1.82 1.82 1.74 1.74 0 0 1-1.82 1.68H147.86v52.22l43.82-9.38-25.62-5.46a1.78 1.78 0 0 1-1.4-1.68 1.73 1.73 0 0 1 1.68-1.82H234a1.73 1.73 0 0 1 1.68 1.82 1.64 1.64 0 0 1-1.4 1.68l-25.62 5.46 45.92 9.8a1.66 1.66 0 0 1 1.4 1.68v37.38a1.66 1.66 0 0 1-1.4 1.68l-45.92 9.8 25.62 5.46a1.77 1.77 0 0 1 1.4 1.68 1.61 1.61 0 0 1-1.68 1.68h-67.66a1.61 1.61 0 0 1-1.68-1.68 1.64 1.64 0 0 1 1.4-1.68l25.62-5.46zm71.54-56H183l17.08 3.64zM183 248.32h34.3l-17.22-3.78zM404.18 154.94a1.66 1.66 0 0 1 1.4 1.68v74.76a1.66 1.66 0 0 1-1.4 1.68l-45.92 9.8 25.62 5.46a1.77 1.77 0 0 1 1.4 1.68 1.61 1.61 0 0 1-1.68 1.68H316a1.61 1.61 0 0 1-1.7-1.68 1.64 1.64 0 0 1 1.4-1.68l25.62-5.46-45.92-9.8a1.66 1.66 0 0 1-1.4-1.68v-74.76a1.66 1.66 0 0 1 1.4-1.68l45.92-9.8-25.62-5.46a1.78 1.78 0 0 1-1.4-1.68 1.73 1.73 0 0 1 1.68-1.82h67.62a1.73 1.73 0 0 1 1.68 1.82 1.64 1.64 0 0 1-1.4 1.68l-25.62 5.46zm-2.1 75V158l-52.36-11-52.22 11v72l52.22 11zm-35.14-90.3h-34.3l17.08 3.78zm-34.3 108.64h34.3l-17.22-3.78zM553.82 154.94a1.66 1.66 0 0 1 1.4 1.68v74.76a1.66 1.66 0 0 1-1.4 1.68l-45.92 9.8 25.62 5.46a1.77 1.77 0 0 1 1.4 1.68 1.61 1.61 0 0 1-1.68 1.68h-67.61a1.61 1.61 0 0 1-1.68-1.68 1.64 1.64 0 0 1 1.4-1.68l25.65-5.46-46-9.8a1.66 1.66 0 0 1-1.4-1.68v-74.76a1.66 1.66 0 0 1 1.4-1.68l45.92-9.8-25.62-5.46a1.77 1.77 0 0 1-1.4-1.68 1.73 1.73 0 0 1 1.68-1.82h67.62a1.73 1.73 0 0 1 1.68 1.82 1.64 1.64 0 0 1-1.4 1.68l-25.62 5.46zm-2.1 75V158l-52.35-11-52.23 11v72l52.23 11zm-35.14-90.3h-34.3l17.08 3.78zm-34.3 108.64h34.3l-17.22-3.78zM58.37 327.19v6.2h3.49a.21.21 0 0 1 .21.21.2.2 0 0 1-.21.19h-3.49V340a.2.2 0 0 1-.21.19.18.18 0 0 1-.16-.19v-6.21h-3.52a.2.2 0 0 1-.21-.19.21.21 0 0 1 .21-.21H58v-6.2a.2.2 0 0 1 .19-.21.21.21 0 0 1 .18.21zM77.78 335.53a.19.19 0 0 1 .16.19V340a.19.19 0 0 1-.19.19.2.2 0 0 1-.21-.19v-4.11l-6-1.26-6 1.26V340a.19.19 0 0 1-.19.19.2.2 0 0 1-.21-.19v-12.81a.21.21 0 0 1 .21-.21.2.2 0 0 1 .19.21v8.29l5-1.07-2.95-.62a.2.2 0 0 1-.16-.19.2.2 0 0 1 .19-.21h7.73a.2.2 0 0 1 .19.21.17.17 0 0 1-.14.19l-2.95.63zm-4.26-1.75H69.6l2 .43zM93.89 335.93H81.76v1.78l6 1.26 6.15-1.31a.21.21 0 0 1 .19.21.17.17 0 0 1-.14.19l-5.27 1.12 2.95.62a.19.19 0 0 1 .16.19.18.18 0 0 1-.19.19h-7.74a.19.19 0 0 1-.19-.19.18.18 0 0 1 .14-.19l2.95-.62-5.25-1.12a.19.19 0 0 1-.16-.19v-2.14a.21.21 0 0 1 .16-.19l5.25-1.12-2.95-.62a.17.17 0 0 1-.14-.19.2.2 0 0 1 .19-.21h7.73a.2.2 0 0 1 .19.21.19.19 0 0 1-.16.19l-2.95.63 5.32 1.1a.19.19 0 0 1 .16.19.22.22 0 0 1-.27.21zm-6.16-1.31l-4.27.91H92zm2-.83h-3.95l2 .43zm-3.92 6h3.89l-2-.43zM105.07 338.06a.19.19 0 0 1-.16-.19.21.21 0 0 1 .19-.21l6.13 1.31 5.12-1.09-11.33-2a.19.19 0 0 1-.16-.21.2.2 0 0 1 .16-.19l5.25-1.12-2.94-.62a.17.17 0 0 1-.14-.19.2.2 0 0 1 .19-.21h7.73a.2.2 0 0 1 .19.21.19.19 0 0 1-.16.19l-2.95.63 5.27 1.12a.17.17 0 0 1 .14.19.21.21 0 0 1-.19.21l-6.15-1.31-5.12 1.09 11.33 2a.19.19 0 0 1 .16.19.2.2 0 0 1-.14.21l-5.27 1.12 2.95.62a.2.2 0 0 1 .16.19.19.19 0 0 1-.19.19h-7.73a.18.18 0 0 1-.19-.19.17.17 0 0 1 .14-.19l2.94-.62zm8.18-4.27h-3.92l2 .43zm-3.92 6h3.92l-2-.43zM133.51 335.93h-12.13v1.78l6 1.26 6.15-1.31a.21.21 0 0 1 .19.21.17.17 0 0 1-.14.19l-5.27 1.12 2.95.62a.19.19 0 0 1 .16.19.19.19 0 0 1-.19.19h-7.73a.18.18 0 0 1-.19-.19.18.18 0 0 1 .14-.19l2.95-.62-5.25-1.12a.19.19 0 0 1-.16-.19v-2.14a.21.21 0 0 1 .16-.19l5.25-1.12-2.95-.62a.17.17 0 0 1-.14-.19.2.2 0 0 1 .19-.21h7.73a.2.2 0 0 1 .19.21.19.19 0 0 1-.16.19l-2.95.63 5.27 1.12a.19.19 0 0 1 .16.19.22.22 0 0 1-.23.19zm-6.16-1.31l-4.27.91h8.55zm2-.83h-3.95l2 .43zm-3.92 6h3.92l-2-.43zM137.68 333.6v1.89l7.94-1.7h-.75a.18.18 0 0 1-.19-.19.2.2 0 0 1 .19-.21h2.66a.2.2 0 0 1 .19.21.19.19 0 0 1-.16.19l-9.87 2.1V340a.19.19 0 0 1-.19.19.2.2 0 0 1-.21-.19v-6.4a.21.21 0 0 1 .21-.21.2.2 0 0 1 .18.21zM148.79 333.6a.21.21 0 0 1 .21-.21.19.19 0 0 1 .14.06l6 6.26 6-6.26a.18.18 0 0 1 .14 0 .2.2 0 0 1 .21.19.29.29 0 0 1-.06.14l-6.18 6.4a.23.23 0 0 1-.14 0h-.14l-6.16-6.4a.28.28 0 0 1-.02-.18zM176.08 335.93h-12.14v1.78l6 1.26 6.15-1.31a.21.21 0 0 1 .19.21.17.17 0 0 1-.14.19l-5.27 1.12 2.95.62a.19.19 0 0 1 .16.19.19.19 0 0 1-.19.19h-7.73a.18.18 0 0 1-.19-.19.18.18 0 0 1 .14-.19l2.94-.62-5.25-1.12a.19.19 0 0 1-.16-.19v-2.14a.21.21 0 0 1 .16-.19l5.25-1.12-2.94-.62a.17.17 0 0 1-.14-.19.2.2 0 0 1 .19-.21h7.73a.2.2 0 0 1 .19.21.19.19 0 0 1-.16.19l-2.95.63 5.27 1.12a.19.19 0 0 1 .16.19.22.22 0 0 1-.22.19zm-6.16-1.31l-4.27.91h8.55zm2-.83H168l2 .43zm-3.92 6h3.92l-2-.43zM180.24 333.6v1.89l7.94-1.7h-.75a.19.19 0 0 1-.19-.19.2.2 0 0 1 .19-.21h2.66a.2.2 0 0 1 .19.21.19.19 0 0 1-.16.19l-9.88 2.1V340a.19.19 0 0 1-.19.19.2.2 0 0 1-.21-.19v-6.4a.21.21 0 0 1 .21-.21.2.2 0 0 1 .19.21zM210.23 335.93h-12.14v1.78l6 1.26 6.15-1.31a.21.21 0 0 1 .19.21.17.17 0 0 1-.14.19l-5.29 1.12 2.95.62a.19.19 0 0 1 .16.19.19.19 0 0 1-.19.19h-7.73a.18.18 0 0 1-.19-.18.18.18 0 0 1 .14-.19l2.95-.62-5.25-1.12a.19.19 0 0 1-.16-.19v-2.14a.21.21 0 0 1 .16-.19l5.25-1.12-2.95-.62a.17.17 0 0 1-.14-.19.2.2 0 0 1 .19-.21h7.73a.2.2 0 0 1 .19.21.19.19 0 0 1-.16.19l-2.95.63 5.27 1.12a.19.19 0 0 1 .16.19.22.22 0 0 1-.2.18zm-6.16-1.31l-4.27.91h8.55zm2-.83h-3.92l2 .43zm-3.92 6H206l-2-.43zM226.58 335.53a.19.19 0 0 1 .16.19V340a.2.2 0 0 1-.21.19.19.19 0 0 1-.19-.19v-4.11l-6-1.26-6 1.26V340a.19.19 0 0 1-.19.19.2.2 0 0 1-.15-.19v-6.4a.21.21 0 0 1 .21-.21.2.2 0 0 1 .19.21v1.89l5-1.07-2.93-.62a.2.2 0 0 1-.16-.19.2.2 0 0 1 .19-.21h7.73a.2.2 0 0 1 .19.21.19.19 0 0 1-.16.19l-2.93.63zm-4.26-1.75h-3.92l2 .43zM242.68 337.66a.21.21 0 0 1 .19.21.17.17 0 0 1-.14.19l-5.27 1.12 2.95.62a.19.19 0 0 1 .16.19.19.19 0 0 1-.19.19h-7.73a.19.19 0 0 1-.19-.19.18.18 0 0 1 .14-.19l2.94-.62-5.25-1.12a.19.19 0 0 1-.16-.19v-2.14a.19.19 0 0 1 .16-.19l5.25-1.12-2.94-.62a.17.17 0 0 1-.14-.19.2.2 0 0 1 .19-.21h7.73a.2.2 0 0 1 .19.21.19.19 0 0 1-.16.19l-2.95.63 5.27 1.12a.17.17 0 0 1 .14.19.21.21 0 0 1-.19.21l-6.15-1.31-6 1.26v1.82l6 1.26zm-4.18-3.87h-3.92l2 .43zm-3.92 6h3.92l-2-.43zM256.51 339.81a.19.19 0 0 1 .16.19.19.19 0 0 1-.19.19h-7.73a.18.18 0 0 1-.19-.19.18.18 0 0 1 .14-.19l2.94-.62-5.25-1.12a.19.19 0 0 1-.16-.19v-2.14a.19.19 0 0 1 .16-.19l5.25-1.12-2.94-.62a.17.17 0 0 1-.14-.19.2.2 0 0 1 .19-.21h7.73a.2.2 0 0 1 .19.21.19.19 0 0 1-.16.19l-2.95.63 5.27 1.12a.19.19 0 0 1 .16.19v2.14a.19.19 0 0 1-.16.19l-5.27 1.12zm2.08-2.1v-1.82l-6-1.26-6 1.26v1.82l6 1.26zm-4-3.92h-3.92l2 .43zm-3.92 6h3.92l-2-.43zM274.76 337.71v-4.11a.2.2 0 0 1 .19-.21.21.21 0 0 1 .21.21v4.27a.19.19 0 0 1-.16.19l-5.27 1.12 2.95.62a.19.19 0 0 1 .16.19.19.19 0 0 1-.19.19h-7.73a.18.18 0 0 1-.19-.19.18.18 0 0 1 .14-.19l2.95-.62-5.25-1.12a.19.19 0 0 1-.16-.19v-4.27a.2.2 0 0 1 .19-.21.21.21 0 0 1 .21.21v4.11l6 1.26zm-7.94 2.1h3.92l-2-.43zM291.55 335.53a.19.19 0 0 1 .16.19V340a.2.2 0 0 1-.21.19.19.19 0 0 1-.19-.19v-4.11l-6-1.26-6 1.26V340a.18.18 0 0 1-.19.19.2.2 0 0 1-.12-.19v-6.4a.21.21 0 0 1 .21-.21.2.2 0 0 1 .19.21v1.89l5-1.07-2.93-.62a.2.2 0 0 1-.16-.19.2.2 0 0 1 .19-.21h7.73a.2.2 0 0 1 .19.21.19.19 0 0 1-.16.19l-2.93.63zm-4.26-1.75h-3.92l2 .43zM297.8 327.19v6.2h3.49a.21.21 0 0 1 .21.21.2.2 0 0 1-.21.19h-3.49V340a.2.2 0 0 1-.21.19.19.19 0 0 1-.19-.19v-6.21h-3.49a.2.2 0 0 1-.21-.19.21.21 0 0 1 .21-.21h3.49v-6.2a.2.2 0 0 1 .19-.21.21.21 0 0 1 .21.21zM316 335.93h-12.14v1.78l6 1.26 6.15-1.31a.21.21 0 0 1 .19.21.17.17 0 0 1-.14.19l-5.27 1.12 2.95.62a.19.19 0 0 1 .16.19.18.18 0 0 1-.19.19H306a.19.19 0 0 1-.19-.19.18.18 0 0 1 .14-.19l2.95-.62-5.25-1.12a.19.19 0 0 1-.16-.19v-2.14a.21.21 0 0 1 .16-.19l5.25-1.12-2.95-.62a.17.17 0 0 1-.14-.19.2.2 0 0 1 .19-.21h7.73a.2.2 0 0 1 .19.21.19.19 0 0 1-.16.19l-2.95.63 5.27 1.12a.19.19 0 0 1 .16.19.22.22 0 0 1-.24.19zm-6.16-1.31l-4.27.91h8.55zm2-.83h-3.92l2 .43zm-3.92 6h3.92l-2-.43zM320.16 333.6v1.89l7.94-1.7h-.75a.18.18 0 0 1-.19-.19.2.2 0 0 1 .19-.21H330a.2.2 0 0 1 .19.21.19.19 0 0 1-.16.19l-9.88 2.1V340a.19.19 0 0 1-.19.19.2.2 0 0 1-.21-.19v-6.4a.21.21 0 0 1 .21-.21.2.2 0 0 1 .2.21zM343.57 335.93h-12.13v1.78l6 1.26 6.15-1.31a.21.21 0 0 1 .19.21.17.17 0 0 1-.14.19l-5.27 1.12 2.95.62a.19.19 0 0 1 .16.19.19.19 0 0 1-.19.19h-7.73a.18.18 0 0 1-.19-.19.18.18 0 0 1 .14-.19l2.95-.62-5.25-1.12a.19.19 0 0 1-.16-.19v-2.14a.21.21 0 0 1 .16-.19l5.25-1.12-2.95-.62a.17.17 0 0 1-.14-.19.2.2 0 0 1 .19-.21h7.73a.2.2 0 0 1 .19.21.19.19 0 0 1-.16.19l-2.95.63 5.27 1.12a.19.19 0 0 1 .16.19.22.22 0 0 1-.23.19zm-6.16-1.31l-4.27.91h8.55zm2-.83h-3.92l2 .43zm-3.92 6h3.92l-2-.43zM359.88 327.19V340a.2.2 0 0 1-.21.19.19.19 0 0 1-.19-.19v-1.89l-5 1.07 2.95.62a.19.19 0 0 1 .16.19.18.18 0 0 1-.19.19h-7.73a.19.19 0 0 1-.19-.19.18.18 0 0 1 .14-.19l2.95-.62-5.25-1.12a.19.19 0 0 1-.16-.19v-2.14a.19.19 0 0 1 .16-.19l5.25-1.12-2.95-.62a.17.17 0 0 1-.14-.19.2.2 0 0 1 .19-.21h7.73a.2.2 0 0 1 .19.21.19.19 0 0 1-.16.19l-2.95.63 5 1.07v-8.29a.2.2 0 0 1 .19-.21.21.21 0 0 1 .21.19zm-.4 8.69l-6-1.26-6 1.26v1.82l6 1.26 6-1.26zm-4-2.1h-3.92l2 .43zm-3.92 6h3.92l-2-.43zM383.81 333.6v6.4a.2.2 0 0 1-.21.19.18.18 0 0 1-.19-.19v-1.89l-5 1.07 2.95.62a.2.2 0 0 1 .16.19.19.19 0 0 1-.19.19h-7.73a.18.18 0 0 1-.19-.19.17.17 0 0 1 .14-.19l2.95-.62-5.25-1.12a.19.19 0 0 1-.16-.19v-2.14a.19.19 0 0 1 .16-.19l5.25-1.12-2.95-.62a.19.19 0 0 1-.14-.19.2.2 0 0 1 .19-.21h7.73a.2.2 0 0 1 .19.21.19.19 0 0 1-.16.19l-2.95.63 5 1.07v-1.9a.2.2 0 0 1 .19-.21.21.21 0 0 1 .21.21zm-6.39 1l-6 1.26v1.82l6 1.26 6-1.26v-1.82zm2-.83h-3.92l2 .43zm-3.92 6h3.92l-2-.43zM400.43 335.53a.19.19 0 0 1 .16.19V340a.2.2 0 0 1-.21.19.19.19 0 0 1-.19-.19v-4.11l-6-1.26-6 1.26V340a.19.19 0 0 1-.19.19.2.2 0 0 1-.21-.19v-6.4a.21.21 0 0 1 .21-.21.2.2 0 0 1 .19.21v1.89l5-1.07-2.93-.62a.2.2 0 0 1-.16-.19.2.2 0 0 1 .19-.21h7.73a.2.2 0 0 1 .19.21.19.19 0 0 1-.16.19l-2.93.63zm-4.26-1.75h-3.92l2 .43zM423.76 337.71v-4.11a.2.2 0 0 1 .19-.21.21.21 0 0 1 .21.21v4.27a.19.19 0 0 1-.16.19l-5.27 1.12 2.95.62a.19.19 0 0 1 .16.19.19.19 0 0 1-.19.19h-7.73a.18.18 0 0 1-.19-.19.18.18 0 0 1 .14-.19l2.95-.62-5.25-1.12a.19.19 0 0 1-.16-.19v-4.27a.2.2 0 0 1 .19-.21.21.21 0 0 1 .21.21v4.11l6 1.26zm-7.94 2.1h3.92l-2-.43zM440.54 335.53a.19.19 0 0 1 .16.19V340a.2.2 0 0 1-.21.19.19.19 0 0 1-.19-.19v-4.11l-6-1.26-6 1.26V340a.19.19 0 0 1-.19.19.2.2 0 0 1-.21-.19v-6.4a.21.21 0 0 1 .21-.21.2.2 0 0 1 .19.21v1.89l5-1.07-2.93-.62a.2.2 0 0 1-.16-.19.2.2 0 0 1 .19-.21h7.73a.2.2 0 0 1 .19.21.19.19 0 0 1-.16.19l-2.93.63zm-4.26-1.75h-3.92l2 .43zM456.65 335.93h-12.13v1.78l6 1.26 6.15-1.31a.21.21 0 0 1 .19.21.17.17 0 0 1-.14.19l-5.27 1.12 2.95.62a.19.19 0 0 1 .16.19.19.19 0 0 1-.19.19h-7.73a.18.18 0 0 1-.19-.19.18.18 0 0 1 .14-.19l2.94-.62-5.25-1.12a.19.19 0 0 1-.16-.19v-2.14a.21.21 0 0 1 .16-.19l5.25-1.12-2.94-.62a.17.17 0 0 1-.14-.19.2.2 0 0 1 .19-.21h7.73a.2.2 0 0 1 .19.21.19.19 0 0 1-.16.19l-2.95.63 5.27 1.12a.19.19 0 0 1 .16.19.22.22 0 0 1-.23.19zm-6.16-1.31l-4.27.91h8.55zm2-.83h-3.92l2 .43zm-3.92 6h3.92l-2-.43zM459.25 333.61a.21.21 0 0 1 .19-.22.23.23 0 0 1 .1 0l6.08 3.15 6.08-3.15a.23.23 0 0 1 .1 0 .21.21 0 0 1 .19.22.15.15 0 0 1-.1.16l-5.84 3 5.84 3a.15.15 0 0 1 .1.16.21.21 0 0 1-.19.22.22.22 0 0 1-.1 0l-6.08-3.15-6.08 3.15a.22.22 0 0 1-.1 0 .21.21 0 0 1-.19-.22.15.15 0 0 1 .1-.16l5.84-3-5.84-3a.15.15 0 0 1-.1-.16zM475.72 333.6v1.89l5-1.07-2.93-.62a.2.2 0 0 1-.16-.19.2.2 0 0 1 .19-.21h7.73a.2.2 0 0 1 .19.21.19.19 0 0 1-.16.19l-2.93.63 5.25 1.12a.19.19 0 0 1 .16.19v2.14a.19.19 0 0 1-.16.19l-5.25 1.12 2.93.62a.2.2 0 0 1 .16.19.19.19 0 0 1-.19.19h-7.73a.18.18 0 0 1-.19-.19.19.19 0 0 1 .16-.19l2.93-.62-5-1.07v8.29a.2.2 0 0 1-.19.21.21.21 0 0 1-.21-.21V333.6a.21.21 0 0 1 .21-.21.2.2 0 0 1 .19.21zm6 5.38l6-1.26v-1.82l-6-1.26-6 1.26v1.82zm2-5.19h-3.92l2 .43zm-3.92 6h3.92l-2-.43zM503.94 335.93h-12.13v1.78l6 1.26 6.15-1.31a.21.21 0 0 1 .19.21.17.17 0 0 1-.14.19l-5.27 1.12 2.95.62a.19.19 0 0 1 .16.19.18.18 0 0 1-.19.19h-7.73a.19.19 0 0 1-.19-.19.18.18 0 0 1 .14-.19l2.95-.62-5.25-1.12a.19.19 0 0 1-.16-.19v-2.14a.21.21 0 0 1 .16-.19l5.25-1.12-2.95-.62a.17.17 0 0 1-.14-.19.2.2 0 0 1 .19-.21h7.73a.2.2 0 0 1 .19.21.19.19 0 0 1-.16.19l-2.95.63 5.27 1.12a.19.19 0 0 1 .16.19.22.22 0 0 1-.23.19zm-6.16-1.31l-4.27.91h8.55zm2-.83h-3.92l2 .43zm-3.92 6h3.92l-2-.43zM520 337.66a.21.21 0 0 1 .19.21.17.17 0 0 1-.14.19l-5.27 1.12 2.95.62a.19.19 0 0 1 .16.19.18.18 0 0 1-.19.19H510a.19.19 0 0 1-.19-.19.18.18 0 0 1 .14-.19l2.95-.62-5.25-1.12a.19.19 0 0 1-.16-.19v-2.14a.19.19 0 0 1 .16-.19l5.25-1.12-2.95-.62a.17.17 0 0 1-.14-.19.2.2 0 0 1 .19-.21h7.73a.2.2 0 0 1 .19.21.19.19 0 0 1-.16.19l-2.95.63 5.27 1.12a.17.17 0 0 1 .14.19.21.21 0 0 1-.19.21l-6.15-1.31-6 1.26v1.82l6 1.26zm-4.18-3.87h-3.92l2 .43zm-3.92 6h3.92l-2-.43zM526.33 327.19v6.2h3.49a.21.21 0 0 1 .21.21.2.2 0 0 1-.21.19h-3.49V340a.2.2 0 0 1-.21.19.18.18 0 0 1-.19-.19v-6.21h-3.49a.2.2 0 0 1-.21-.19.21.21 0 0 1 .21-.21h3.49v-6.2a.2.2 0 0 1 .19-.21.21.21 0 0 1 .21.21zM544.52 335.93h-12.13v1.78l6 1.26 6.15-1.31a.21.21 0 0 1 .19.21.17.17 0 0 1-.14.19l-5.27 1.12 2.95.62a.19.19 0 0 1 .16.19.19.19 0 0 1-.19.19h-7.74a.18.18 0 0 1-.19-.19.18.18 0 0 1 .14-.19l2.95-.62-5.25-1.12a.19.19 0 0 1-.16-.19v-2.14a.21.21 0 0 1 .16-.19l5.25-1.12-2.95-.62a.17.17 0 0 1-.14-.19.2.2 0 0 1 .19-.21h7.73a.2.2 0 0 1 .19.21.19.19 0 0 1-.16.19l-2.95.63 5.27 1.12a.19.19 0 0 1 .16.19.22.22 0 0 1-.22.19zm-6.16-1.31l-4.27.91h8.55zm2-.83h-3.96l2 .43zm-3.92 6h3.92l-2-.43zM560.82 327.19V340a.2.2 0 0 1-.21.19.19.19 0 0 1-.19-.19v-1.89l-5 1.07 2.95.62a.19.19 0 0 1 .16.19.18.18 0 0 1-.19.19h-7.73a.19.19 0 0 1-.19-.19.18.18 0 0 1 .14-.19l2.95-.62-5.25-1.12a.19.19 0 0 1-.16-.19v-2.14a.19.19 0 0 1 .16-.19l5.25-1.12-2.95-.62a.17.17 0 0 1-.14-.19.2.2 0 0 1 .19-.21h7.73a.2.2 0 0 1 .19.21.19.19 0 0 1-.16.19l-2.95.63 5 1.07v-8.29a.2.2 0 0 1 .19-.21.21.21 0 0 1 .21.19zm-.4 8.69l-6-1.26-6 1.26v1.82l6 1.26 6-1.26zm-4-2.1h-3.92l2 .43zm-3.92 6h3.92l-2-.43zM584.54 335.93H572.4v1.78l6 1.26 6.15-1.31a.21.21 0 0 1 .19.21.17.17 0 0 1-.14.19l-5.27 1.12 2.95.62a.19.19 0 0 1 .16.19.19.19 0 0 1-.19.19h-7.73a.18.18 0 0 1-.19-.19.18.18 0 0 1 .14-.19l2.95-.62-5.25-1.12a.19.19 0 0 1-.16-.19v-2.14a.21.21 0 0 1 .16-.19l5.25-1.12-2.95-.62a.17.17 0 0 1-.14-.19.2.2 0 0 1 .19-.21h7.73a.2.2 0 0 1 .19.21.19.19 0 0 1-.16.19l-2.95.63 5.27 1.12a.19.19 0 0 1 .16.19.22.22 0 0 1-.22.19zm-6.16-1.31l-4.27.91h8.55zm2-.83h-3.92l2 .43zm-3.92 6h3.92l-2-.43zM588.7 333.6v1.89l7.94-1.7h-.75a.18.18 0 0 1-.19-.19.2.2 0 0 1 .19-.21h2.66a.2.2 0 0 1 .19.21.19.19 0 0 1-.16.19l-9.87 2.1V340a.19.19 0 0 1-.19.19.2.2 0 0 1-.21-.19v-6.4a.21.21 0 0 1 .21-.21.2.2 0 0 1 .18.21zM601 333.6v1.89l7.94-1.7h-.75a.18.18 0 0 1-.19-.19.2.2 0 0 1 .19-.21h2.66a.2.2 0 0 1 .19.21.19.19 0 0 1-.16.19l-9.88 2.1V340a.19.19 0 0 1-.19.19.2.2 0 0 1-.21-.19v-6.4a.21.21 0 0 1 .21-.21.2.2 0 0 1 .19.21zM622.13 339.81a.19.19 0 0 1 .16.19.19.19 0 0 1-.19.19h-7.73a.18.18 0 0 1-.19-.19.18.18 0 0 1 .14-.19l2.94-.62-5.26-1.13a.19.19 0 0 1-.16-.19v-2.14a.19.19 0 0 1 .16-.19l5.25-1.12-2.94-.62a.17.17 0 0 1-.14-.19.2.2 0 0 1 .19-.21h7.73a.2.2 0 0 1 .19.21.19.19 0 0 1-.16.19l-2.95.63 5.27 1.12a.19.19 0 0 1 .16.19v2.14a.19.19 0 0 1-.16.19l-5.27 1.12zm2.08-2.1v-1.82l-6-1.26-6 1.26v1.82l6 1.26zm-4-3.92h-3.92l2 .43zm-3.92 6h3.92l-2-.43zM628.68 333.6v1.89l7.94-1.7h-.75a.18.18 0 0 1-.19-.19.2.2 0 0 1 .19-.21h2.66a.2.2 0 0 1 .19.21.19.19 0 0 1-.16.19l-9.87 2.1V340a.19.19 0 0 1-.19.19.2.2 0 0 1-.21-.19v-6.4a.21.21 0 0 1 .21-.21.2.2 0 0 1 .18.21zM636.13 340v-.64a.18.18 0 0 1 .19-.19.2.2 0 0 1 .21.19v.64a.2.2 0 0 1-.21.19.18.18 0 0 1-.19-.19zM61.33 375.6a.21.21 0 0 1 .22-.19.18.18 0 0 1 .16.1l3.52 6.1 3.54-6.1a.21.21 0 0 1 .35 0l3.54 6.1 3.54-6.1a.18.18 0 0 1 .16-.1.2.2 0 0 1 .21.19.23.23 0 0 1 0 .1l-3.7 6.4a.21.21 0 0 1-.35 0l-3.57-6.1-3.54 6.1a.2.2 0 0 1-.18.1.18.18 0 0 1-.16-.1l-3.71-6.4a.22.22 0 0 1-.03-.1zM91.56 377.93H79.42v1.78l6 1.26 6.15-1.31a.21.21 0 0 1 .19.21.17.17 0 0 1-.14.19l-5.27 1.12 2.95.62a.19.19 0 0 1 .16.19.19.19 0 0 1-.19.19h-7.73a.18.18 0 0 1-.19-.19.18.18 0 0 1 .14-.19l2.95-.62-5.25-1.12a.19.19 0 0 1-.16-.19v-2.14a.21.21 0 0 1 .16-.19l5.25-1.12-2.95-.62a.17.17 0 0 1-.14-.19.2.2 0 0 1 .19-.21h7.73a.2.2 0 0 1 .19.21.19.19 0 0 1-.16.19l-2.95.63 5.27 1.12a.19.19 0 0 1 .16.19.22.22 0 0 1-.22.19zm-6.16-1.31l-4.27.91h8.55zm2-.83h-3.96l2 .43zm-3.92 6h3.92l-2-.43zM115.91 377.53a.19.19 0 0 1 .16.19V382a.18.18 0 0 1-.19.19.2.2 0 0 1-.21-.19v-4.11l-6-1.26-6 1.26V382a.19.19 0 0 1-.19.19.2.2 0 0 1-.21-.19v-12.81a.21.21 0 0 1 .21-.21.2.2 0 0 1 .19.21v8.29l5-1.07-2.95-.62a.2.2 0 0 1-.16-.19.2.2 0 0 1 .19-.21h7.73a.2.2 0 0 1 .19.21.17.17 0 0 1-.14.19l-2.95.63zm-4.26-1.75h-3.92l2 .43zM132.25 375.6v6.4a.2.2 0 0 1-.21.19.18.18 0 0 1-.19-.19v-1.89l-5 1.07 2.95.62a.2.2 0 0 1 .16.19.19.19 0 0 1-.19.19H122a.18.18 0 0 1-.19-.19.17.17 0 0 1 .14-.19l2.95-.62-5.25-1.12a.19.19 0 0 1-.16-.19v-2.14a.19.19 0 0 1 .16-.19l5.25-1.12-2.95-.62a.19.19 0 0 1-.14-.19.2.2 0 0 1 .19-.21h7.73a.2.2 0 0 1 .19.21.19.19 0 0 1-.16.19l-2.95.63 5 1.07v-1.9a.2.2 0 0 1 .19-.21.21.21 0 0 1 .25.21zm-6.39 1l-6 1.26v1.82l6 1.26 6-1.26v-1.82zm2-.83h-3.92l2 .43zm-3.92 6h3.92l-2-.43zM135.2 375.6a.21.21 0 0 1 .21-.21.2.2 0 0 1 .14.06l6 6.26 6-6.26a.18.18 0 0 1 .14 0 .2.2 0 0 1 .21.19.29.29 0 0 1-.06.14l-6.18 6.4a.23.23 0 0 1-.14 0h-.14l-6.16-6.4a.29.29 0 0 1-.02-.18zM162.49 377.93h-12.14v1.78l6 1.26 6.15-1.31a.21.21 0 0 1 .19.21.17.17 0 0 1-.14.19l-5.27 1.12 2.95.62a.19.19 0 0 1 .16.19.19.19 0 0 1-.19.19h-7.73a.19.19 0 0 1-.19-.19.18.18 0 0 1 .14-.19l2.94-.62-5.25-1.12a.19.19 0 0 1-.16-.19v-2.14a.21.21 0 0 1 .16-.19l5.25-1.12-2.94-.62a.17.17 0 0 1-.14-.19.2.2 0 0 1 .19-.21h7.73a.2.2 0 0 1 .19.21.19.19 0 0 1-.16.19l-2.95.63 5.27 1.12a.19.19 0 0 1 .16.19.22.22 0 0 1-.22.19zm-6.16-1.31l-4.27.91h8.55zm2-.83h-3.92l2 .43zm-3.92 6h3.92l-2-.43zM174.64 369.19v8.29l5-1.07-2.95-.62a.19.19 0 0 1-.16-.19.2.2 0 0 1 .19-.21h7.73a.2.2 0 0 1 .19.21.18.18 0 0 1-.14.19l-2.95.63 5.25 1.12a.21.21 0 0 1 .16.19v2.14a.19.19 0 0 1-.16.19l-5.25 1.12 2.95.62a.17.17 0 0 1 .14.19.19.19 0 0 1-.19.19h-7.73a.19.19 0 0 1-.19-.19.19.19 0 0 1 .16-.19l2.95-.62-5-1.07V382a.19.19 0 0 1-.19.19.2.2 0 0 1-.21-.19v-12.81a.21.21 0 0 1 .21-.21.2.2 0 0 1 .19.21zm12 10.52v-1.82l-6-1.26-6 1.26v1.82l6 1.26zm-4-3.92h-3.92l2 .43zm-3.92 6h3.92l-2-.43zM202.86 377.93h-12.13v1.78l6 1.26 6.15-1.31a.21.21 0 0 1 .19.21.17.17 0 0 1-.14.19l-5.27 1.12 2.95.62a.19.19 0 0 1 .16.19.18.18 0 0 1-.19.19h-7.73a.19.19 0 0 1-.19-.19.18.18 0 0 1 .14-.19l2.95-.62-5.25-1.12a.19.19 0 0 1-.16-.19v-2.14a.21.21 0 0 1 .16-.19l5.25-1.12-2.95-.62a.17.17 0 0 1-.14-.19.2.2 0 0 1 .19-.21h7.73a.2.2 0 0 1 .19.21.19.19 0 0 1-.16.19l-2.95.63 5.27 1.12a.19.19 0 0 1 .16.19.22.22 0 0 1-.23.19zm-6.16-1.31l-4.27.91H201zm2-.83h-3.92l2 .43zm-3.92 6h3.92l-2-.43zM218.94 377.93h-12.13v1.78l6 1.26 6.15-1.31a.21.21 0 0 1 .19.21.17.17 0 0 1-.14.19l-5.27 1.12 2.95.62a.19.19 0 0 1 .16.19.18.18 0 0 1-.19.19h-7.73a.19.19 0 0 1-.19-.19.18.18 0 0 1 .14-.19l2.95-.62-5.25-1.12a.19.19 0 0 1-.16-.19v-2.14a.21.21 0 0 1 .16-.19l5.25-1.12-2.95-.62a.17.17 0 0 1-.14-.19.2.2 0 0 1 .19-.21h7.73a.2.2 0 0 1 .19.21.19.19 0 0 1-.16.19l-2.95.63 5.27 1.12a.19.19 0 0 1 .16.19.22.22 0 0 1-.23.19zm-6.16-1.31l-4.27.91h8.55zm2-.83h-3.92l2 .43zm-3.92 6h3.92l-2-.43zM235.3 377.53a.19.19 0 0 1 .16.19V382a.2.2 0 0 1-.21.19.19.19 0 0 1-.19-.19v-4.11l-6-1.26-6 1.26V382a.19.19 0 0 1-.19.19.2.2 0 0 1-.21-.19v-6.4a.21.21 0 0 1 .21-.21.2.2 0 0 1 .19.21v1.89l5-1.07-2.93-.62a.2.2 0 0 1-.16-.19.2.2 0 0 1 .19-.21h7.73a.2.2 0 0 1 .19.21.19.19 0 0 1-.16.19l-2.93.63zm-4.3-1.74h-3.92l2 .43zM246.73 372v-.64a.2.2 0 0 1 .21-.19.18.18 0 0 1 .19.19v.64a.2.2 0 0 1-.19.21.21.21 0 0 1-.21-.21zm0 10v-6.4a.21.21 0 0 1 .21-.21.2.2 0 0 1 .19.21v6.4a.18.18 0 0 1-.19.19.2.2 0 0 1-.21-.19zM263.76 377.53a.19.19 0 0 1 .16.19V382a.2.2 0 0 1-.21.19.18.18 0 0 1-.19-.19v-4.11l-6-1.26-6 1.26V382a.19.19 0 0 1-.19.19.2.2 0 0 1-.21-.19v-6.4a.21.21 0 0 1 .21-.21.2.2 0 0 1 .19.21v1.89l5-1.07-2.93-.62a.2.2 0 0 1-.16-.19.2.2 0 0 1 .19-.21h7.73a.2.2 0 0 1 .19.21.19.19 0 0 1-.16.19l-2.93.63zm-4.26-1.75h-3.92l2 .43zM278 369a.21.21 0 0 1 .19.21.19.19 0 0 1-.16.19l-9.88 2.1v3.91H278a.2.2 0 0 1 .19.21.19.19 0 0 1-.19.19h-9.84V382a.18.18 0 0 1-.19.19.2.2 0 0 1-.21-.19v-10.68a.19.19 0 0 1 .16-.19l10-2.13zM287 381.81a.19.19 0 0 1 .16.19.18.18 0 0 1-.19.19h-7.73a.19.19 0 0 1-.19-.19.18.18 0 0 1 .14-.19l2.95-.62-5.25-1.12a.19.19 0 0 1-.16-.19v-2.14a.19.19 0 0 1 .16-.19l5.25-1.12-2.95-.62a.17.17 0 0 1-.14-.19.2.2 0 0 1 .19-.21H287a.2.2 0 0 1 .19.21.19.19 0 0 1-.16.19l-2.95.63 5.27 1.12a.19.19 0 0 1 .16.19v2.14a.19.19 0 0 1-.16.19l-5.27 1.12zm2.08-2.1v-1.82l-6-1.26-6 1.26v1.82l6 1.26zm-4-3.92h-3.92l2 .43zm-3.92 6h3.92l-2-.43zM293.57 375.6v1.89l7.94-1.7h-.75a.18.18 0 0 1-.19-.19.2.2 0 0 1 .19-.21h2.66a.2.2 0 0 1 .19.21.19.19 0 0 1-.16.19l-9.88 2.1V382a.19.19 0 0 1-.19.19.2.2 0 0 1-.21-.19v-6.4a.21.21 0 0 1 .21-.21.2.2 0 0 1 .19.21zM305.42 382v-6.4a.21.21 0 0 1 .21-.21.2.2 0 0 1 .19.21v1.79l3.41-2a.21.21 0 0 1 .19 0l3.58 2.11 3.6-2.08a.24.24 0 0 1 .21 0l3.71 2.13a.2.2 0 0 1 .1.18V382a.2.2 0 0 1-.21.19.19.19 0 0 1-.19-.19v-4.15l-3.5-2-3.52 2V382a.18.18 0 0 1-.19.19.2.2 0 0 1-.21-.19v-4.15l-3.51-2-3.51 2V382a.18.18 0 0 1-.19.19.2.2 0 0 1-.17-.19zM336.62 377.93h-12.13v1.78l6 1.26 6.15-1.31a.21.21 0 0 1 .19.21.17.17 0 0 1-.14.19l-5.27 1.12 2.95.62a.19.19 0 0 1 .16.19.19.19 0 0 1-.19.19h-7.74a.18.18 0 0 1-.19-.19.18.18 0 0 1 .14-.19l2.95-.62-5.25-1.12a.19.19 0 0 1-.16-.19v-2.14a.21.21 0 0 1 .16-.19l5.25-1.12-2.95-.62a.17.17 0 0 1-.14-.19.2.2 0 0 1 .19-.21h7.73a.2.2 0 0 1 .19.21.19.19 0 0 1-.16.19l-2.95.63 5.27 1.12a.19.19 0 0 1 .16.19.22.22 0 0 1-.22.19zm-6.16-1.31l-4.27.91h8.55zm2-.83h-3.92l2 .43zm-3.92 6h3.92l-2-.43zM352.92 369.19V382a.2.2 0 0 1-.21.19.19.19 0 0 1-.19-.19v-1.89l-5 1.07 2.95.62a.19.19 0 0 1 .16.19.18.18 0 0 1-.19.19h-7.73a.19.19 0 0 1-.19-.19.18.18 0 0 1 .14-.19l2.95-.62-5.25-1.12a.19.19 0 0 1-.16-.19v-2.14a.19.19 0 0 1 .16-.19l5.25-1.12-2.95-.62a.17.17 0 0 1-.14-.19.2.2 0 0 1 .19-.21h7.73a.2.2 0 0 1 .19.21.19.19 0 0 1-.16.19l-2.95.63 5 1.07v-8.29a.2.2 0 0 1 .19-.21.21.21 0 0 1 .21.19zm-.4 8.69l-6-1.26-6 1.26v1.82l6 1.26 6-1.26zm-4-2.1h-3.92l2 .43zm-3.92 6h3.92l-2-.43zM376.86 375.6v6.4a.2.2 0 0 1-.21.19.18.18 0 0 1-.19-.19v-1.89l-5 1.07 2.95.62a.2.2 0 0 1 .16.19.19.19 0 0 1-.19.19h-7.73a.18.18 0 0 1-.19-.19.17.17 0 0 1 .14-.19l2.95-.62-5.25-1.12a.19.19 0 0 1-.16-.19v-2.14a.19.19 0 0 1 .16-.19l5.25-1.12-2.95-.62a.19.19 0 0 1-.14-.19.2.2 0 0 1 .19-.21h7.73a.2.2 0 0 1 .19.21.19.19 0 0 1-.16.19l-2.95.63 5 1.07v-1.9a.2.2 0 0 1 .19-.21.21.21 0 0 1 .21.21zm-6.39 1l-6 1.26v1.82l6 1.26 6-1.26v-1.82zm2-.83h-3.92l2 .43zm-3.92 6h3.92l-2-.43zM393.47 377.53a.19.19 0 0 1 .16.19V382a.2.2 0 0 1-.21.19.19.19 0 0 1-.19-.19v-4.11l-6-1.26-6 1.26V382a.19.19 0 0 1-.19.19.2.2 0 0 1-.21-.19v-6.4a.21.21 0 0 1 .21-.21.2.2 0 0 1 .19.21v1.89l5-1.07-2.93-.62a.2.2 0 0 1-.16-.19.2.2 0 0 1 .19-.21h7.73a.2.2 0 0 1 .19.21.19.19 0 0 1-.16.19l-2.93.63zm-4.26-1.75h-3.91l2 .43zM409.81 369.19V382a.2.2 0 0 1-.21.19.19.19 0 0 1-.19-.19v-1.89l-5 1.07 2.95.62a.19.19 0 0 1 .16.19.19.19 0 0 1-.19.19h-7.73a.18.18 0 0 1-.19-.19.18.18 0 0 1 .14-.19l2.94-.62-5.25-1.12a.19.19 0 0 1-.16-.19v-2.14a.19.19 0 0 1 .16-.19l5.25-1.12-2.94-.62a.17.17 0 0 1-.14-.19.2.2 0 0 1 .19-.21h7.73a.2.2 0 0 1 .19.21.19.19 0 0 1-.16.19l-2.95.63 5 1.07v-8.29a.2.2 0 0 1 .19-.21.21.21 0 0 1 .21.19zm-.4 8.69l-6-1.26-6 1.26v1.82l6 1.26 6-1.26zm-4-2.1h-3.92l2 .43zm-3.92 6h3.92l-2-.43zM433.75 375.6v6.4a.2.2 0 0 1-.21.19.19.19 0 0 1-.19-.19v-1.89l-5 1.07 2.95.62a.2.2 0 0 1 .16.19.19.19 0 0 1-.19.19h-7.77a.18.18 0 0 1-.19-.19.17.17 0 0 1 .14-.19l2.94-.62-5.25-1.12a.19.19 0 0 1-.16-.19v-2.14a.19.19 0 0 1 .16-.19l5.25-1.12-2.94-.62a.19.19 0 0 1-.14-.19.2.2 0 0 1 .19-.21h7.73a.2.2 0 0 1 .19.21.19.19 0 0 1-.16.19l-2.95.63 5 1.07v-1.9a.2.2 0 0 1 .19-.21.21.21 0 0 1 .25.21zm-6.39 1l-6 1.26v1.82l6 1.26 6-1.26v-1.82zm2-.83h-3.92l2 .43zm-3.92 6h3.92l-2-.43zM438.17 375.6v1.89l7.94-1.7h-.75a.18.18 0 0 1-.19-.19.2.2 0 0 1 .19-.21H448a.2.2 0 0 1 .19.21.19.19 0 0 1-.16.19l-9.87 2.1V382a.19.19 0 0 1-.19.19.2.2 0 0 1-.21-.19v-6.4a.21.21 0 0 1 .21-.21.2.2 0 0 1 .2.21zM461.58 377.93h-12.13v1.78l6 1.26 6.15-1.31a.21.21 0 0 1 .19.21.17.17 0 0 1-.14.19l-5.27 1.12 2.95.62a.19.19 0 0 1 .16.19.19.19 0 0 1-.19.19h-7.73a.19.19 0 0 1-.19-.19.18.18 0 0 1 .14-.19l2.94-.62-5.25-1.12a.19.19 0 0 1-.16-.19v-2.14a.21.21 0 0 1 .16-.19l5.25-1.12-2.94-.62a.17.17 0 0 1-.14-.19.2.2 0 0 1 .19-.21h7.73a.2.2 0 0 1 .19.21.19.19 0 0 1-.16.19l-2.95.63 5.27 1.12a.19.19 0 0 1 .16.19.22.22 0 0 1-.23.19zm-6.16-1.31l-4.27.91h8.55zm2-.83h-3.92l2 .43zm-3.92 6h3.92l-2-.43zM473.29 382v-12.81a.21.21 0 0 1 .21-.21.2.2 0 0 1 .19.21V382a.18.18 0 0 1-.19.19.2.2 0 0 1-.21-.19zM487.77 381.81a.19.19 0 0 1 .16.19.19.19 0 0 1-.19.19H480a.18.18 0 0 1-.19-.19.18.18 0 0 1 .14-.19l2.94-.62-5.25-1.12a.19.19 0 0 1-.16-.19v-2.14a.19.19 0 0 1 .16-.19l5.25-1.12-2.94-.62a.17.17 0 0 1-.14-.19.2.2 0 0 1 .19-.21h7.73a.2.2 0 0 1 .19.21.19.19 0 0 1-.16.19l-2.95.63 5.27 1.12a.19.19 0 0 1 .16.19v2.14a.19.19 0 0 1-.16.19l-5.27 1.12zm2.08-2.1v-1.82l-6-1.26-6 1.26v1.82l6 1.26zm-4-3.92h-3.92l2 .43zm-3.92 6h3.92l-2-.43zM503.85 381.81a.19.19 0 0 1 .16.19.19.19 0 0 1-.19.19h-7.73a.18.18 0 0 1-.19-.19.18.18 0 0 1 .14-.19l2.94-.62-5.25-1.12a.19.19 0 0 1-.16-.19v-2.14a.19.19 0 0 1 .16-.19l5.25-1.12-2.94-.62a.17.17 0 0 1-.14-.19.2.2 0 0 1 .19-.21h7.73a.2.2 0 0 1 .19.21.19.19 0 0 1-.16.19l-2.95.63 5.27 1.12a.19.19 0 0 1 .16.19v2.14a.19.19 0 0 1-.16.19l-5.27 1.12zm2.08-2.1v-1.82l-6-1.26-6 1.26v1.82l6 1.26zm-4-3.92H498l2 .43zm-3.92 6h3.92l-2-.43zM522.74 375.39a.22.22 0 0 1 .19.22.18.18 0 0 1-.14.18l-11.6 3 11.6 3a.18.18 0 0 1 .14.18.22.22 0 0 1-.19.22l-12.12-3.14V382a.18.18 0 0 1-.19.19.2.2 0 0 1-.21-.19v-12.81a.21.21 0 0 1 .21-.21.2.2 0 0 1 .19.21v9.35l12.12-3.14zM526.13 372v-.64a.2.2 0 0 1 .21-.19.18.18 0 0 1 .19.19v.64a.2.2 0 0 1-.19.21.21.21 0 0 1-.21-.21zm0 10v-6.4a.21.21 0 0 1 .21-.21.2.2 0 0 1 .19.21v6.4a.18.18 0 0 1-.19.19.2.2 0 0 1-.21-.19zM543.15 377.53a.19.19 0 0 1 .16.19V382a.2.2 0 0 1-.21.19.19.19 0 0 1-.19-.19v-4.11l-6-1.26-6 1.26V382a.19.19 0 0 1-.19.19.2.2 0 0 1-.21-.19v-6.4a.21.21 0 0 1 .21-.21.2.2 0 0 1 .19.21v1.89l5-1.07-2.93-.62a.2.2 0 0 1-.16-.19.2.2 0 0 1 .19-.21h7.73a.2.2 0 0 1 .19.21.19.19 0 0 1-.16.19l-2.93.63zm-4.26-1.75H535l2 .43zM546.89 386.47a.19.19 0 0 1-.16-.19.21.21 0 0 1 .19-.21l6.13 1.31 6-1.26v-6l-5 1.07 2.95.62a.19.19 0 0 1 .16.19.19.19 0 0 1-.19.19h-7.73a.19.19 0 0 1-.19-.19.18.18 0 0 1 .14-.19l2.94-.62-5.25-1.12a.19.19 0 0 1-.16-.19v-2.14a.19.19 0 0 1 .16-.19l5.25-1.12-2.94-.62a.17.17 0 0 1-.14-.19.2.2 0 0 1 .19-.21H557a.2.2 0 0 1 .19.21.19.19 0 0 1-.16.19l-2.95.63 5 1.07v-1.91a.2.2 0 0 1 .19-.21.21.21 0 0 1 .21.21v10.68a.19.19 0 0 1-.16.19l-5.27 1.12 2.95.63a.2.2 0 0 1 .16.19.2.2 0 0 1-.19.21h-7.73a.2.2 0 0 1-.19-.21.17.17 0 0 1 .14-.19l2.94-.62zm12.2-8.58l-6-1.26-6 1.26v1.82l6 1.26 6-1.26zm-4-2.1h-3.92l2 .43zm-3.92 6h3.92l-2-.43zm0 6.4h3.92l-2-.43zM571.13 372v-.64a.2.2 0 0 1 .21-.19.18.18 0 0 1 .19.19v.64a.2.2 0 0 1-.19.21.21.21 0 0 1-.21-.21zm0 10v-6.4a.21.21 0 0 1 .21-.21.2.2 0 0 1 .19.21v6.4a.18.18 0 0 1-.19.19.2.2 0 0 1-.21-.19zM588.16 377.53a.19.19 0 0 1 .16.19V382a.2.2 0 0 1-.21.19.19.19 0 0 1-.19-.19v-4.11l-6-1.26-6 1.26V382a.19.19 0 0 1-.19.19.2.2 0 0 1-.21-.19v-6.4a.21.21 0 0 1 .21-.21.2.2 0 0 1 .19.21v1.89l5-1.07-2.93-.62a.2.2 0 0 1-.16-.19.2.2 0 0 1 .19-.21h7.73a.2.2 0 0 1 .19.21.19.19 0 0 1-.16.19l-2.93.63zm-4.26-1.75H580l2 .43zM594.41 369.19v6.2h3.49a.21.21 0 0 1 .21.21.2.2 0 0 1-.21.19h-3.49V382a.2.2 0 0 1-.21.19.18.18 0 0 1-.2-.19v-6.21h-3.49a.2.2 0 0 1-.21-.19.21.21 0 0 1 .21-.21H594v-6.2a.2.2 0 0 1 .19-.21.21.21 0 0 1 .22.21zM610.36 381.81a.19.19 0 0 1 .16.19.19.19 0 0 1-.19.19h-7.73a.18.18 0 0 1-.19-.19.18.18 0 0 1 .14-.19l2.94-.62-5.25-1.12a.19.19 0 0 1-.16-.19v-2.14a.19.19 0 0 1 .16-.19l5.25-1.12-2.94-.62a.17.17 0 0 1-.14-.19.2.2 0 0 1 .19-.21h7.73a.2.2 0 0 1 .19.21.19.19 0 0 1-.16.19l-2.95.63 5.27 1.12a.19.19 0 0 1 .16.19v2.14a.19.19 0 0 1-.16.19l-5.27 1.12zm2.08-2.1v-1.82l-6-1.26-6 1.26v1.82l6 1.26zm-4-3.92h-3.94l2 .43zm-3.92 6h3.92l-2-.43zM624.1 372v-.64a.2.2 0 0 1 .21-.19.18.18 0 0 1 .19.19v.64a.2.2 0 0 1-.19.21.21.21 0 0 1-.21-.21zm0 10v-6.4a.21.21 0 0 1 .21-.21.2.2 0 0 1 .19.21v6.4a.18.18 0 0 1-.19.19.2.2 0 0 1-.21-.19zM631.56 369.19v6.2h3.49a.21.21 0 0 1 .21.21.2.2 0 0 1-.21.19h-3.49V382a.2.2 0 0 1-.21.19.19.19 0 0 1-.19-.19v-6.21h-3.49a.2.2 0 0 1-.21-.19.21.21 0 0 1 .21-.21h3.49v-6.2a.2.2 0 0 1 .19-.21.21.21 0 0 1 .21.21zM636.88 382v-.64a.18.18 0 0 1 .19-.19.2.2 0 0 1 .21.19v.64a.2.2 0 0 1-.21.19.18.18 0 0 1-.19-.19z"/></g></svg>