<svg xmlns="http://www.w3.org/2000/svg" viewBox="0 0 700 500"><path fill="#f2f2f2" d="M0 0h700v500H0z" data-name="Ebene 1"/><g data-name="Ebene 2"><path d="M174.12 124.7v40.6h60.62l30 21v43.4l-30 21h-72.66l-30-21v-1.4h42l24.36 17.08 24.26-17.08v-40.6l-24.22-17.08-24.36 17.08h-42v-64.4H264.7v1.4zM416.08 229.7l-30 21h-72.62l-30-21v-85.4l30-21h72.66l30 21zm-42-1.4v-82.6l-24.22-17.08-24.36 17.08v82.6l24.36 17.08zM567.46 229.7l-30 21h-72.62l-30-21v-85.4l30-21h72.66l30 21zm-42-1.4v-82.6l-24.22-17.08-24.36 17.08v82.6l24.36 17.08zM41.11 340.08h-4.8v-7.2H33.2v-.16h3.11v-7.2h4.8v7.2h3.09v.16h-3.09zM50.39 335.28v4.8h-4.8v-14.57h4.8v7.2h6.93l3.42 2.4v5h-4.8v-4.8l-2.79-2zM72.76 337.52h4.8v.16l-3.42 2.4h-8.31l-3.44-2.4v-2.56l3.44-2.4h8.31l3.42 2.4v.16H67.19v2.24l2.79 2zm-5.33-2.4h5.11L70 333.33zM88.55 335.28v-.16l3.44-2.4h8.31l3.43 2.4v.16h-4.8l-2.79-2-2.61 1.83 10.2 2.37v.16l-3.43 2.4H92l-3.44-2.4v-.16h4.8l2.79 2 2.61-1.82zM115.64 337.52h4.8v.16l-3.43 2.4h-8.31l-3.44-2.4v-2.56l3.44-2.4h8.3l3.43 2.4v.16h-10.36v2.24l2.79 2zm-5.33-2.4h5.11l-2.56-1.79zM133.21 332.72v.16h-2.77l-3.43 2.4v4.8h-4.8v-7.36zM144.33 332.72h4.8v.16l-5.17 7.2h-4.8l-5.19-7.2v-.16h4.8l2.79 3.86zM159.87 337.52h4.8v.16l-3.42 2.4h-8.31l-3.44-2.4v-2.56l3.44-2.4h8.31l3.42 2.4v.16H154.3v2.24l2.79 2zm-5.33-2.4h5.11l-2.56-1.79zM177.44 332.72v.16h-2.77l-3.42 2.4v4.8h-4.8v-7.36zM198.18 337.52H203v.16l-3.42 2.4h-8.31l-3.44-2.4v-2.56l3.44-2.4h8.31l3.42 2.4v.16h-10.39v2.24l2.79 2zm-5.33-2.4H198l-2.56-1.79zM209.55 335.28v4.8h-4.8v-7.36h11.73l3.42 2.4v5h-4.8v-4.8l-2.77-2zM231.94 337.52h4.8v.16l-3.42 2.4H225l-3.44-2.4v-2.56l3.44-2.4h8.31l3.42 2.4v.16h-4.8l-2.79-2-2.79 2v2.24l2.79 2zM253.46 337.68l-3.43 2.4h-8.31l-3.44-2.4v-2.56l3.44-2.4H250l3.43 2.4zm-4.8-.16v-2.24l-2.79-2-2.79 2v2.24l2.79 2zM259.9 337.52l2.79 2 2.79-2v-4.8h4.8v5l-3.42 2.4h-8.31l-3.44-2.4v-5h4.8zM277.12 335.28v4.8h-4.8v-7.36h11.73l3.42 2.4v5h-4.8v-4.8l-2.77-2zM295.57 340.08h-4.8v-7.2h-3.11v-.16h3.11v-7.2h4.8v7.2h3.09v.16h-3.09zM309.21 337.52H314v.16l-3.42 2.4h-8.31l-3.44-2.4v-2.56l3.44-2.4h8.31l3.42 2.4v.16h-10.37v2.24l2.79 2zm-5.33-2.4H309l-2.56-1.79zM326.78 332.72v.16H324l-3.43 2.4v4.8h-4.8v-7.36zM337.47 337.52h4.8v.16l-3.42 2.4h-8.31l-3.44-2.4v-2.56l3.44-2.4h8.31l3.42 2.4v.16H331.9v2.24l2.79 2zm-5.33-2.4h5.11l-2.56-1.79zM354.19 325.51H359v14.57h-11.74l-3.44-2.4v-2.56l3.44-2.4h6.93zm0 12v-2.24l-2.79-2-2.79 2v2.24l2.79 2zM385.47 332.72v7.36h-11.73l-3.44-2.4v-2.56l3.44-2.4zm-4.8 4.8v-2.24l-2.79-2-2.79 2v2.24l2.79 2zM392.53 335.28v4.8h-4.8v-7.36h11.73l3.42 2.4v5h-4.8v-4.8l-2.77-2zM418.68 337.52l2.79 2 2.79-2v-4.8h4.8v5l-3.43 2.4h-8.31l-3.44-2.4v-5h4.8zM435.9 335.28v4.8h-4.8v-7.36h11.73l3.42 2.4v5h-4.8v-4.8l-2.77-2zM458.28 337.52h4.8v.16l-3.43 2.4h-8.31l-3.44-2.4v-2.56l3.44-2.4h8.31l3.43 2.4v.16h-10.37v2.24l2.79 2zm-5.33-2.4h5.11l-2.56-1.79zM478.74 339.92v.16h-4.8l-2.77-1.94-2.79 1.94h-4.8v-.16l5.07-3.52-5.07-3.52v-.16h4.8l2.79 1.94 2.77-1.94h4.8v.16l-5.06 3.52zM492 332.72l3.42 2.4v2.56l-3.42 2.4h-6.93v7.2h-4.8v-14.56zm-6.93 2.56v2.24l2.79 2 2.77-2v-2.24l-2.77-2zM507.38 337.52h4.8v.16l-3.42 2.4h-8.31l-3.44-2.4v-2.56l3.44-2.4h8.31l3.42 2.4v.16H501.8v2.24l2.79 2zm-5.33-2.4h5.11l-2.56-1.79zM524.09 337.52h4.8v.16l-3.43 2.4h-8.31l-3.44-2.4v-2.56l3.44-2.4h8.31l3.43 2.4v.16h-4.8l-2.79-2-2.79 2v2.24l2.79 2zM537 340.08h-4.8v-7.2h-3.11v-.16h3.11v-7.2h4.8v7.2h3.09v.16H537zM550.62 337.52h4.8v.16l-3.42 2.4h-8.31l-3.44-2.4v-2.56l3.44-2.4H552l3.42 2.4v.16H545v2.24l2.79 2zm-5.33-2.4h5.11l-2.56-1.79zM567.33 325.51h4.8v14.57H560.4l-3.44-2.4v-2.56l3.44-2.4h6.93zm0 12v-2.24l-2.79-2-2.79 2v2.24l2.79 2zM593.81 337.52h4.8v.16l-3.43 2.4h-8.31l-3.44-2.4v-2.56l3.44-2.4h8.31l3.43 2.4v.16h-10.37v2.24l2.79 2zm-5.33-2.4h5.11l-2.59-1.79zM611.39 332.72v.16h-2.77l-3.43 2.4v4.8h-4.8v-7.36zM623.76 332.72v.16H621l-3.42 2.4v4.8h-4.8v-7.36zM639.26 337.68l-3.43 2.4h-8.31l-3.44-2.4v-2.56l3.44-2.4h8.31l3.43 2.4zm-4.8-.16v-2.24l-2.79-2-2.79 2v2.24l2.79 2zM652.17 332.72v.16h-2.77l-3.42 2.4v4.8h-4.8v-7.36zM651.09 339.2h4.8v.88h-4.8zM43.43 382.08h-4.8l-3.12-7.2v-.16h4.8l.72 1.65.7-1.65h4.8l.72 1.65.7-1.65h4.8v.16l-3.11 7.2h-4.8l-.72-1.65zM63.93 379.52h4.8v.16l-3.43 2.4H57l-3.44-2.4v-2.56l3.44-2.4h8.31l3.43 2.4v.16H58.36v2.24l2.79 2zm-5.33-2.4h5.11l-2.56-1.79zM85.16 377.28v4.8h-4.8v-14.57h4.8v7.2h6.93l3.43 2.4v5h-4.8v-4.8l-2.79-2zM112.34 374.72v7.36H100.6l-3.44-2.4v-2.56l3.44-2.4zm-4.8 4.8v-2.24l-2.79-2-2.79 2v2.24l2.79 2zM123.93 374.72h4.8v.16l-5.17 7.2h-4.8l-5.19-7.2v-.16h4.8l2.79 3.86zM139.48 379.52h4.8v.16l-3.43 2.4h-8.31l-3.44-2.4v-2.56l3.44-2.4h8.31l3.43 2.4v.16h-10.37v2.24l2.79 2zm-5.33-2.4h5.11l-2.56-1.79zM171.06 379.68l-3.43 2.4h-11.72v-14.57h4.8v7.2h6.93l3.43 2.4zm-4.8-.16v-2.24l-2.79-2-2.77 2v2.24l2.77 2zM183 379.52h4.8v.16l-3.43 2.4h-8.31l-3.44-2.4v-2.56l3.44-2.4h8.31l3.43 2.4v.16h-10.39v2.24l2.79 2zm-5.33-2.4h5.11l-2.56-1.79zM199.7 379.52h4.8v.16l-3.42 2.4h-8.31l-3.44-2.4v-2.56l3.44-2.4h8.31l3.42 2.4v.16h-10.37v2.24l2.79 2zm-5.33-2.4h5.11l-2.56-1.79zM211.08 377.28v4.8h-4.8v-7.36H218l3.43 2.4v5h-4.8v-4.8l-2.77-2zM232.84 369.92h4.8v.88h-4.8zm0 4.8h4.8v7.36h-4.8zM244.7 377.28v4.8h-4.8v-7.36h11.73l3.43 2.4v5h-4.8v-4.8l-2.77-2zM261.92 370.08v4.64h3.42v.16h-3.42v7.2h-4.8v-12.16l3.42-2.4h4.8v.16zM280.3 379.68l-3.43 2.4h-8.31l-3.44-2.4v-2.56l3.44-2.4h8.31l3.43 2.4zm-4.8-.16v-2.24l-2.79-2-2.79 2v2.24l2.79 2zM293.21 374.72v.16h-2.77l-3.42 2.4v4.8h-4.8v-7.36zM294.59 374.72h7.91l.72.54.71-.54h4.8l3.11 2.4v5H307v-4.8l-.71-.54-.7.54v4.8h-4.8v-4.8l-.72-.54-.7.54v4.8h-4.8zM323.86 379.52h4.8v.16l-3.42 2.4h-8.31l-3.44-2.4v-2.56l3.44-2.4h8.31l3.42 2.4v.16h-10.37v2.24l2.79 2zm-5.33-2.4h5.11l-2.56-1.79zM340.58 367.51h4.8v14.57h-11.73l-3.44-2.4v-2.56l3.44-2.4h6.93zm0 12v-2.24l-2.79-2-2.79 2v2.24l2.79 2zM371.86 374.72v7.36h-11.73l-3.44-2.4v-2.56l3.44-2.4zm-4.8 4.8v-2.24l-2.79-2-2.79 2v2.24l2.79 2zM378.92 377.28v4.8h-4.8v-7.36h11.73l3.43 2.4v5h-4.8v-4.8l-2.77-2zM401.3 367.51h4.8v14.57h-11.73l-3.44-2.4v-2.56l3.44-2.4h6.93zm0 12v-2.24l-2.79-2-2.79 2v2.24l2.79 2zM432.58 374.72v7.36h-11.73l-3.44-2.4v-2.56l3.44-2.4zm-4.8 4.8v-2.24l-2.79-2-2.79 2v2.24l2.79 2zM445.83 374.72v.16h-2.77l-3.43 2.4v4.8h-4.8v-7.36zM456.52 379.52h4.8v.16l-3.43 2.4h-8.31l-3.44-2.4v-2.56l3.44-2.4h8.31l3.43 2.4v.16H451v2.24l2.79 2zm-5.33-2.4h5.11l-2.56-1.79zM472.9 367.51h4.8v14.57h-4.8zM494.91 379.68l-3.43 2.4h-8.31l-3.44-2.4v-2.56l3.44-2.4h8.31l3.43 2.4zm-4.8-.16v-2.24l-2.79-2-2.79 2v2.24l2.79 2zM511.63 379.68l-3.42 2.4h-8.31l-3.44-2.4v-2.56l3.44-2.4h8.31l3.42 2.4zm-4.8-.16v-2.24l-2.79-2-2.79 2v2.24l2.79 2zM528.86 381.92v.16h-4.8l-5.55-1.94v1.94h-4.8v-14.57h4.8v9.14l5.55-1.94h4.8v.16l-10.13 3.52zM530.29 369.92h4.8v.88h-4.8zm0 4.8h4.8v7.36h-4.8zM542.15 377.28v4.8h-4.8v-7.36h11.73l3.42 2.4v5h-4.8v-4.8l-2.77-2zM569.34 374.72v12.17l-3.42 2.4h-8.32l-3.44-2.4v-.16H559l2.79 2 2.79-2v-4.64h-6.98l-3.44-2.4v-2.56l3.44-2.4zm-4.8 4.8v-2.24l-2.79-2-2.79 2v2.24l2.79 2zM581 369.92h4.8v.88H581zm0 4.8h4.8v7.36H581zM592.9 377.28v4.8h-4.8v-7.36h11.73l3.42 2.4v5h-4.8v-4.8l-2.77-2zM611.36 382.08h-4.8v-7.2h-3.11v-.16h3.11v-7.2h4.8v7.2h3.09v.16h-3.09zM629.79 379.68l-3.42 2.4h-8.31l-3.44-2.4v-2.56l3.44-2.4h8.31l3.42 2.4zm-4.8-.16v-2.24l-2.79-2-2.79 2v2.24l2.79 2zM641.18 369.92H646v.88h-4.8zm0 4.8H646v7.36h-4.8zM655.13 382.08h-4.8v-7.2h-3.11v-.16h3.11v-7.2h4.8v7.2h3.09v.16h-3.09zM658.53 381.2h4.8v.88h-4.8z"/></g></svg>