<svg xmlns="http://www.w3.org/2000/svg" viewBox="0 0 700 500"><path fill="#f2f2f2" d="M0 0h700v500H0z" data-name="Ebene 1"/><g data-name="Ebene 2"><path d="M216.42 175.6V98l9-6.4h62.24L278.5 98h-53.12v71.2L246.5 157l-12.8-7.36 9.12-6.24h27.36l-9 6.24-3.68 2.24 30.08 17.28V221l-9.12 6.24-21 12.16 12.64 7.36-9 6.4h-27.4l9.12-6.4 3.68-2.08-30.08-17.44 9-6.24 31.16 18 21.92-12.8v-50.6l-31-17.92zm31 69.6l-2.72 1.6h5.44zm9.12-93.92l2.72-1.6h-5.6zM376.4 227.28l-21 12.16 12.64 7.36-9 6.4H331.6l9.12-6.4 3.68-2.08-30.08-17.44V123.76l9-6.24 21.12-12.16L331.6 98l9.12-6.4h27.36l-9 6.4-3.68 2.08 30.08 17.44V221zm0-1.12v-102.4l-31-17.92-22.08 12.8V221l31.16 18zm-31 19l-2.72 1.6h5.44zm9.12-145.6L357.2 98h-5.6zM474.31 227.28l-21 12.16L466 246.8l-9 6.4h-27.5l9.12-6.4 3.68-2.08-30.08-17.44V123.76l9-6.24 21.12-12.16L429.5 98l9.12-6.4H466l-9 6.4-3.68 2.08 30.08 17.44V221zm0-1.12v-102.4l-31-17.92-22.08 12.8V221l31.15 18zm-31 19l-2.72 1.6H446zm9.12-145.6l2.72-1.6h-5.6zM71.14 339.52l-1.37 1v-11.68H67l1.37-1h1.42V317.2l1.37-1v11.64h2.78l-1.34 1h-1.46zM79.42 331.94v7.58l-1.34 1V317.2l1.34-1v15.53l3.17-1.82-1.92-1.1 1.37-1h4.1l-1.34 1-.58.31 4.54 2.62v7.75l-1.37 1v-7.79l-4.66-2.7zm4.66-2.86l.43-.24h-.84zM93.3 336.59v-3.89l1.37-.94 3.14-1.82-1.9-1.1 1.34-1h4.13l-1.37 1-.55.31 4.51 2.62-1.34.94h-8v3l4.66 2.69 4.66-2.69-1.34.94-3.17 1.82 1.92 1.1-1.37 1h-4.1l1.34-1 .55-.31zm1.7-4.82h6L98 330zm3 7.51l-.41.24h.84zm1.37-10.2l.41-.24h-.82zM116.85 332.7l1.37-.94 3.14-1.82-1.9-1.1 1.34-1h4.13l-1.37 1-.55.31 4.51 2.62-1.34.94-4.68-2.71-3.12 1.82 9.14 3.82-1.34.94-3.18 1.84 1.92 1.1-1.37 1h-4.1l1.34-1 .55-.31-4.51-2.62 1.37-.94 4.66 2.69 3.14-1.82zm4.66 6.58l-.41.24h.84zm1.37-10.2l.41-.24h-.82zM131.81 336.59v-3.89l1.37-.94 3.14-1.82-1.9-1.1 1.34-1h4.13l-1.37 1-.55.31 4.51 2.62-1.34.94h-8v3l4.66 2.69 4.66-2.69-1.34.94-3.12 1.77 1.92 1.1-1.37 1h-4.1l1.34-1 .55-.31zm1.66-4.82h6l-3-1.75zm3 7.51l-.41.24h.84zm1.37-10.2l.41-.24h-.82zM148.38 331.94v7.58l-1.34 1v-11.68l1.34-1v3.89l5.09-2.93h-.86l1.37-1h1.13l-1.34 1zM157.88 328.84l1.37-1 4.18 10.42 3.79-9.46 1.34-1-4.66 11.64-1.37 1zM171.51 336.59v-3.89l1.37-.94 3.14-1.82-1.9-1.1 1.34-1h4.13l-1.37 1-.55.31 4.51 2.62-1.34.94h-8v3l4.66 2.69 4.66-2.69-1.34.94-3.17 1.82 1.92 1.1-1.37 1h-4.1l1.34-1 .55-.31zm1.66-4.82h6l-3-1.75zm3 7.51l-.41.24h.84zm1.37-10.2l.41-.24h-.82zM188.07 331.94v7.58l-1.34 1v-11.68l1.34-1v3.89l5.09-2.93h-.86l1.37-1h1.13l-1.34 1zM206 336.59v-3.89l1.37-.94 3.14-1.82-1.9-1.1 1.34-1H214l-1.37 1-.55.31 4.51 2.62-1.34.94h-8v3l4.66 2.69 4.66-2.69-1.34.94-3.17 1.82 1.92 1.1-1.37 1h-4.1l1.34-1 .55-.31zm1.66-4.82h6l-3-1.75zm3 7.51l-.41.24h.75zm1.37-10.2l.41-.24h-.82zM222.52 331.94v7.58l-1.34 1v-11.68l1.34-1v3.89l3.17-1.82-1.92-1.1 1.37-1h4.1l-1.34 1-.55.31 4.51 2.62v7.75l-1.37 1v-7.79l-4.65-2.7zm4.68-2.86l.41-.24h-.84zM236.42 336.59v-3.89l1.37-.94 3.14-1.82-1.9-1.1 1.34-1h4.13l-1.37 1-.55.31 4.51 2.62-1.34.94-4.67-2.71-3.29 1.92v3.72l4.66 2.69 4.66-2.69-1.34.94-3.17 1.82 1.92 1.1-1.37 1H239l1.34-1 .55-.31zm4.66 2.69l-.41.24h.84zm1.37-10.2l.41-.24H242zM262.07 335.66l-1.34.94-3.17 1.82 1.92 1.1-1.37 1H254l1.34-1 .55-.31-4.51-2.62v-3.89l1.37-.94 3.14-1.82-1.9-1.1 1.34-1h4.13l-1.37 1-.55.31 4.51 2.62zm-1.34-3L256 330l-3.29 1.92v3.72l4.66 2.69 3.31-1.92zm-4.73 6.62l-.41.24h.84zm1.37-10.2l.41-.24H257zM268 335.66l4.66 2.69 3.31-1.92v-7.58l1.34-1v7.78l-1.34.94-3.17 1.82 1.92 1.1-1.37 1h-4.1l1.34-1 .55-.31-4.51-2.62v-7.75l1.37-1zm3.29 3.63l-.41.24h.84zM283.72 331.94v7.58l-1.34 1v-11.68l1.34-1v3.89l3.17-1.82-1.92-1.1 1.37-1h4.1l-1.34 1-.55.31 4.51 2.62v7.75l-1.37 1v-7.79L287 330zm4.68-2.86l.41-.24H288zM300.36 339.52l-1.37 1v-11.68h-2.78l1.37-1H299V317.2l1.37-1v11.64h2.78l-1.34 1h-1.44zM305.91 336.59v-3.89l1.37-.94 3.14-1.82-1.9-1.1 1.34-1H314l-1.37 1-.55.31 4.51 2.62-1.34.94h-8v3l4.66 2.69 4.66-2.69-1.34.94-3.17 1.82 1.92 1.1-1.37 1h-4.1l1.34-1 .55-.31zm1.66-4.82h6l-3-1.75zm3 7.51l-.41.24h.84zm1.37-10.2l.41-.24h-.82zM322.48 331.94v7.58l-1.34 1v-11.68l1.34-1v3.89l5.09-2.93h-.86l1.37-1h1.13l-1.34 1zM331 336.59v-3.89l1.37-.94 3.14-1.82-1.9-1.1 1.34-1h4.13l-1.37 1-.55.31 4.51 2.62-1.34.94h-8v3l4.66 2.69 4.66-2.69-1.34.94-3.17 1.82 1.92 1.1-1.37 1h-4.1l1.34-1 .55-.31zm1.66-4.82h6l-3-1.75zm3 7.51l-.41.24h.84zm1.37-10.2l.41-.24h-.82zM346 336.59v-3.89l1.37-.94 3.14-1.82-1.9-1.1 1.34-1h4.13l-1.37 1-.55.31 3.17 1.82V317.2l1.34-1v23.28l-1.34 1v-3.89l-3.17 1.82 1.92 1.1-1.37 1h-4.1l1.34-1 .55-.31zm9.34-.17v-3.72l-4.67-2.7-3.29 1.92v3.72l4.66 2.69zm-4.68 2.86l-.41.24h.84zm1.37-10.2l.41-.24h-.82zM379.18 331v-2.14l1.34-1v11.64l-1.34 1v-3.89l-3.18 1.81 1.92 1.1-1.37 1h-4.1l1.34-1 .55-.31-4.51-2.62v-3.89l1.37-.94 3.14-1.82-1.9-1.1 1.34-1h4.13l-1.37 1-.55.31zm0 5.45v-3.75l-4.68-2.7-3.29 1.92v3.72l4.66 2.69zm-4.68 2.86l-.41.24h.84zm1.37-10.2l.41-.24h-.82zM387.2 331.94v7.58l-1.34 1v-11.68l1.34-1v3.89l3.17-1.82-1.92-1.1 1.37-1h4.1l-1.34 1-.55.31 4.51 2.62v7.75l-1.37 1v-7.79l-4.66-2.7zm4.68-2.86l.41-.24h-.84zM410.77 335.66l4.66 2.69 3.31-1.92v-7.58l1.34-1v7.78l-1.34.94-3.17 1.82 1.92 1.1-1.37 1H412l1.34-1 .55-.31-4.51-2.62v-7.75l1.37-1zm3.29 3.63l-.41.24h.84zM426.49 331.94v7.58l-1.34 1v-11.68l1.34-1v3.89l3.17-1.82-1.92-1.1 1.37-1h4.1l-1.34 1-.55.31 4.51 2.62v7.75l-1.37 1v-7.79l-4.65-2.7zm4.68-2.86l.41-.24h-.84zM440.39 336.59v-3.89l1.37-.94 3.14-1.82-1.9-1.1 1.34-1h4.13l-1.37 1-.55.31 4.51 2.62-1.34.94h-8v3l4.66 2.69 4.66-2.69-1.34.94-3.17 1.82 1.92 1.1-1.37 1H443l1.34-1 .55-.31zm1.66-4.82h6L445 330zm3 7.51l-.41.24h.84zm1.37-10.2l.41-.24H446zM464.88 339.52l-1.34 1-4.37-5.52-3.6 4.49-1.34 1 4.66-5.83-4.66-5.81 1.34-1 4.37 5.45 3.6-4.49 1.34-1-4.66 5.83zM470.52 337.38v13.78l-1.34 1v-23.32l1.34-1v3.89l3.17-1.82-1.92-1.1 1.37-1h4.1l-1.34 1-.55.31 4.51 2.62v3.89l-1.37.94-3.14 1.82 1.9 1.1-1.34 1h-4.13l1.37-1 .55-.31zm0-5.45v3.72l4.68 2.69 3.29-1.92v-3.72l-4.65-2.7zm3.31 7.34l-.41.24h.82zm1.37-10.2l.41-.24h-.84zM484.15 336.59v-3.89l1.37-.94 3.14-1.82-1.9-1.1 1.34-1h4.13l-1.37 1-.55.31 4.51 2.62-1.34.94h-8v3l4.66 2.69 4.66-2.69-1.34.94-3.17 1.82 1.92 1.1-1.37 1h-4.1l1.34-1 .55-.31zm1.66-4.82h6l-3-1.75zm3 7.51l-.41.24h.84zm1.37-10.2l.41-.24h-.82zM499.11 336.59v-3.89l1.37-.94 3.14-1.82-1.9-1.1 1.34-1h4.13l-1.37 1-.55.31 4.51 2.62-1.34.94-4.67-2.71-3.29 1.92v3.72l4.66 2.69 4.66-2.69-1.34.94-3.17 1.82 1.92 1.1-1.37 1h-4.1l1.34-1 .55-.31zm4.66 2.69l-.41.24h.84zm1.37-10.2l.41-.24h-.82zM516.63 339.52l-1.37 1v-11.68h-2.79l1.37-1h1.42V317.2l1.37-1v11.64h2.79l-1.34 1h-1.44zM522.18 336.59v-3.89l1.37-.94 3.14-1.82-1.9-1.1 1.34-1h4.13l-1.37 1-.55.31 4.51 2.62-1.34.94h-8v3l4.66 2.69 4.66-2.69-1.34.94-3.17 1.82 1.92 1.1-1.37 1h-4.1l1.34-1 .55-.31zm1.66-4.82h6l-3-1.75zm3 7.51l-.41.24h.84zm1.37-10.2l.41-.24h-.82zM537.15 336.59v-3.89l1.37-.94 3.14-1.82-1.9-1.1 1.34-1h4.13l-1.37 1-.55.31 3.17 1.82V317.2l1.34-1v23.28l-1.34 1v-3.89l-3.17 1.82 1.92 1.1-1.37 1h-4.1l1.34-1 .55-.31zm9.34-.17v-3.72l-4.68-2.7-3.29 1.92v3.72l4.66 2.69zm-4.68 2.86l-.41.24h.84zm1.37-10.2l.41-.24h-.82zM561 336.59v-3.89l1.37-.94 3.14-1.82-1.9-1.1 1.34-1h4.13l-1.37 1-.55.31 4.51 2.62-1.34.94h-8v3l4.66 2.69 4.66-2.69-1.34.94-3.17 1.82 1.92 1.1-1.37 1h-4.1l1.34-1 .55-.31zm1.66-4.82h6l-3-1.75zm3 7.51l-.41.24h.84zm1.37-10.2l.41-.24h-.82zM577.55 331.94v7.58l-1.34 1v-11.68l1.34-1v3.89l5.09-2.93h-.86l1.37-1h1.13l-1.34 1zM589 331.94v7.58l-1.34 1v-11.68l1.34-1v3.89l5.09-2.93h-.86l1.37-1h1.13l-1.34 1zM608.2 335.66l-1.34.94-3.17 1.82 1.92 1.1-1.37 1h-4.1l1.34-1 .55-.31-4.51-2.62v-3.89l1.37-.94 3.14-1.82-1.9-1.1 1.34-1h4.13l-1.37 1-.55.31 4.51 2.62zm-1.34-3l-4.69-2.66-3.29 1.92v3.72l4.66 2.69 3.31-1.92zm-4.68 6.58l-.41.24h.84zm1.37-10.2l.41-.24h-.82zM614.38 331.94v7.58l-1.34 1v-11.68l1.34-1v3.89l5.09-2.93h-.86l1.37-1h1.13l-1.34 1zM621.83 339.3l1.34-.94v1.15l-1.34 1zM71.4 381.52l-1.37 1-2.78-11.64 1.34-1 2.23 9.29 2-8.33 1.37-1 2.23 9.29 2-8.33 1.37-1L77 381.52l-1.34 1-2.23-9.29zM83.31 378.59v-3.89l1.37-.94 3.14-1.82-1.9-1.1 1.34-1h4.14l-1.37 1-.55.31 4.52 2.62-1.34.94h-8v3l4.66 2.69 4.68-2.74-1.34.94-3.17 1.82 1.92 1.1-1.37 1h-4.1l1.34-1 .55-.31zm1.69-4.82h6L88 372zm3 7.51l-.41.24h.84zm1.37-10.2l.41-.24h-.82zM108.77 373.94v7.58l-1.34 1V359.2l1.34-1v15.53l3.17-1.82-1.92-1.1 1.37-1h4.1l-1.34 1-.58.31 4.54 2.62v7.75l-1.37 1v-7.79l-4.66-2.7zm4.66-2.86l.43-.24H113zM132 373v-2.14l1.34-1v11.64l-1.34 1v-3.89l-3.17 1.82 1.92 1.1-1.37 1h-4.1l1.34-1 .55-.31-4.51-2.62v-3.9l1.37-.94 3.14-1.82-1.9-1.1 1.34-1h4.13l-1.37 1-.55.31zm0 5.45v-3.75l-4.69-2.7-3.31 1.94v3.72l4.66 2.69zm-4.68 2.86l-.41.24h.84zm1.37-10.2l.41-.24h-.82zM137.36 370.84l1.37-1 4.18 10.42 3.79-9.46 1.34-1-4.66 11.64-1.37 1zM151 378.59v-3.89l1.37-.94 3.14-1.82-1.9-1.1 1.34-1h4.13l-1.37 1-.55.31 4.51 2.62-1.34.94h-8v3l4.66 2.69 4.66-2.69-1.34.94-3.17 1.82 1.92 1.1-1.37 1h-4.1l1.34-1 .55-.31zm1.66-4.82h6l-3-1.75zm3 7.51l-.41.24h.84zm1.37-10.2l.41-.24h-.82zM185.78 377.66l-1.37.94-3.17 1.82 1.92 1.1-1.34 1h-4.12l1.37-1 .55-.31-3.17-1.82v2.14l-1.34 1V359.2l1.34-1v15.53l3.17-1.82-1.92-1.1 1.37-1h4.11l-1.34 1-.58.31 4.54 2.62zm-1.37-3l-4.65-2.66-3.31 1.92v3.72l4.66 2.69 3.31-1.92zm-4.66 6.58l-.41.24h.82zm1.34-10.2l.43-.24h-.84zM190.06 378.59v-3.89l1.37-.94 3.14-1.82-1.9-1.1 1.34-1h4.13l-1.37 1-.55.31 4.51 2.62-1.34.94h-8v3l4.66 2.69 4.66-2.69-1.34.94-3.17 1.82 1.92 1.1-1.37 1h-4.1l1.34-1 .55-.31zm1.66-4.82h6l-3-1.75zm3 7.51l-.41.24h.84zm1.37-10.2l.41-.24h-.82zM205 378.59v-3.89l1.37-.94 3.14-1.82-1.9-1.1 1.34-1h4.13l-1.37 1-.55.31 4.51 2.62-1.34.94h-8v3l4.66 2.69 4.66-2.69-1.34.94-3.17 1.82 1.92 1.1-1.37 1h-4.1l1.34-1 .55-.31zm1.66-4.82h6l-3-1.75zm3 7.51l-.41.24h.84zm1.37-10.2l.41-.24h-.82zM221.59 373.94v7.58l-1.34 1v-11.68l1.34-1v3.89l3.17-1.82-1.92-1.1 1.37-1h4.1l-1.34 1-.55.31 4.51 2.62v7.75l-1.37 1v-7.79l-4.65-2.7zm4.68-2.86l.41-.24h-.84zM244.15 363.06l1.37-.94v1.15l-1.37 1zm0 7.78l1.37-1v11.64l-1.37 1zM252.18 373.94v7.58l-1.34 1v-11.68l1.34-1v3.89l3.17-1.82-1.92-1.1 1.37-1h4.1l-1.34 1-.55.31 4.51 2.62v7.75l-1.37 1v-7.79l-4.65-2.7zm4.68-2.86l.41-.24h-.84zM274.7 358.24l-1.34 1-5.38 3.1v7.58h6.72l-1.34 1H268v10.68l-1.34 1v-19.54l1.34-.94zM285.53 377.66l-1.34.94-3.19 1.82 1.92 1.1-1.37 1h-4.1l1.34-1 .55-.31-4.51-2.62v-3.89l1.37-.94 3.14-1.82-1.9-1.1 1.34-1h4.13l-1.37 1-.55.31 4.51 2.62zm-1.34-3l-4.68-2.66-3.29 1.92v3.72l4.66 2.69 3.31-1.92zm-4.68 6.58l-.41.24h.84zm1.37-10.2l.41-.24h-.82zM291.71 373.94v7.58l-1.34 1v-11.68l1.34-1v3.89l5.09-2.93h-.86l1.37-1h1.13l-1.34 1zM303.11 381.52l-1.34 1v-11.68l1.34-1v3l1.46-2 1.34-1 2.47 3.41 1.78-2.45 1.34-1 2.81 3.89v7.75l-1.37 1v-7.74l-2.45-3.41-1.78 2.47v7.75l-1.37 1v-7.81l-2.45-3.41-1.8 2.47zM318.94 378.59v-3.89l1.37-.94 3.14-1.82-1.9-1.1 1.34-1H327l-1.37 1-.55.31 4.51 2.62-1.34.94h-8v3l4.66 2.69 4.66-2.69-1.34.94-3.17 1.82 1.92 1.1-1.37 1h-4.1l1.34-1 .55-.31zm1.66-4.82h6l-3-1.75zm3 7.51l-.41.24h.81zm1.37-10.2l.41-.24h-.82zM333.91 378.59v-3.89l1.37-.94 3.14-1.82-1.9-1.1 1.34-1H342l-1.37 1-.55.31 3.17 1.82V359.2l1.34-1v23.28l-1.34 1v-3.89l-3.17 1.82 1.92 1.1-1.37 1h-4.1l1.34-1 .55-.31zm9.34-.17v-3.72l-4.69-2.7-3.29 1.92v3.72l4.66 2.69zm-4.68 2.86l-.41.24h.84zm1.37-10.2l.41-.24h-.82zM367.08 373v-2.14l1.34-1v11.64l-1.34 1v-3.89l-3.17 1.82 1.92 1.1-1.37 1h-4.1l1.34-1 .55-.31-4.51-2.62v-3.9l1.37-.94 3.14-1.82-1.9-1.1 1.34-1h4.13l-1.37 1-.55.31zm0 5.45v-3.75l-4.68-2.7-3.29 1.92v3.72l4.66 2.69zm-4.68 2.86l-.41.24h.84zm1.37-10.2l.41-.24h-.82zM375.09 373.94v7.58l-1.34 1v-11.68l1.34-1v3.89l3.17-1.82-1.92-1.1 1.37-1h4.1l-1.34 1-.55.31 4.51 2.62v7.75l-1.37 1v-7.79l-4.65-2.7zm4.68-2.86l.41-.24h-.84zM389 378.59v-3.89l1.37-.94 3.14-1.82-1.9-1.1 1.34-1h4.13l-1.37 1-.55.31 3.17 1.82V359.2l1.34-1v23.28l-1.34 1v-3.89l-3.17 1.82 1.92 1.1-1.37 1h-4.1l1.34-1 .55-.31zm9.34-.17v-3.72l-4.69-2.7-3.29 1.92v3.72l4.66 2.69zm-4.68 2.86l-.41.24h.84zm1.37-10.2l.41-.24h-.82zM422.16 373v-2.14l1.34-1v11.64l-1.34 1v-3.89l-3.16 1.81 1.92 1.1-1.37 1h-4.1l1.34-1 .55-.31-4.51-2.62v-3.89l1.37-.94 3.14-1.82-1.9-1.1 1.34-1h4.13l-1.37 1-.55.31zm0 5.45v-3.75l-4.68-2.7-3.29 1.92v3.72l4.66 2.69zm-4.68 2.86l-.41.24h.84zm1.37-10.2l.41-.24h-.82zM430.18 373.94v7.58l-1.34 1v-11.68l1.34-1v3.89l5.09-2.93h-.86l1.37-1h1.13l-1.34 1zM438.75 378.59v-3.89l1.37-.94 3.14-1.82-1.9-1.1 1.34-1h4.13l-1.37 1-.55.31 4.51 2.62-1.34.94h-8v3l4.66 2.69 4.66-2.69-1.34.94-3.17 1.82 1.92 1.1-1.37 1h-4.1l1.34-1 .55-.31zm1.66-4.82h6l-3-1.75zm3 7.51l-.41.24h.84zm1.37-10.2l.41-.24h-.82zM462.82 359.2l1.37-1v23.28l-1.37 1zM479.77 377.66l-1.34.94-3.17 1.82 1.92 1.1-1.37 1h-4.1l1.34-1 .55-.31-4.51-2.62v-3.89l1.37-.94 3.14-1.82-1.9-1.1 1.34-1h4.13l-1.37 1-.55.31 4.51 2.62zm-1.34-3l-4.68-2.66-3.29 1.92v3.72l4.66 2.69 3.31-1.92zm-4.68 6.58l-.41.24h.84zm1.37-10.2l.41-.24h-.82zM494.74 377.66l-1.34.94-3.17 1.82 1.92 1.1-1.37 1h-4.1l1.34-1 .55-.31-4.51-2.62v-3.89l1.37-.94 3.14-1.82-1.9-1.1 1.34-1h4.13l-1.37 1-.55.31 4.51 2.62zm-1.34-3l-4.69-2.66-3.29 1.92v3.72l4.66 2.69 3.31-1.92zm-4.68 6.58l-.41.24h.84zm1.37-10.2l.41-.24h-.82zM510.4 381.52l-1.37 1-8-5v4l-1.34 1V359.2l1.34-1v17.47l9.34-5.83-1.37 1-7.87 4.92zM514.58 363.06l1.37-.94v1.15l-1.37 1zm0 7.78l1.37-1v11.64l-1.37 1zM522.61 373.94v7.58l-1.34 1v-11.68l1.34-1v3.89l3.17-1.82-1.92-1.1 1.37-1h4.11l-1.34 1-.55.31 4.51 2.62v7.75l-1.37 1v-7.79l-4.67-2.7zm4.68-2.86l.41-.24h-.84zM536.51 378.59v-3.89l1.37-.94 3.14-1.82-1.9-1.1 1.34-1h4.13l-1.37 1-.55.31 3.17 1.82v-2.14l1.34-1v19.47l-1.34.94-3.17 1.82 1.92 1.1-1.37 1h-4.1l1.34-1 .55-.31-4.51-2.62 1.37-.94 4.66 2.69 3.31-1.92v-11.47l-3.17 1.82 1.92 1.1-1.37 1h-4.1l1.34-1 .55-.31zm9.34-.17v-3.72l-4.68-2.7-3.29 1.92v3.72l4.66 2.69zm-4.68 2.86l-.41.24h.84zm0 11.64l-.41.24h.84zm1.37-21.84l.41-.24h-.82zM560.7 363.06l1.37-.94v1.15l-1.37 1zm0 7.78l1.37-1v11.64l-1.37 1zM568.73 373.94v7.58l-1.34 1v-11.68l1.34-1v3.89l3.17-1.82-1.92-1.1 1.37-1h4.1l-1.34 1-.55.31 4.51 2.62v7.75l-1.37 1v-7.79L572 372zm4.68-2.86l.41-.24H573zM585.37 381.52l-1.37 1v-11.68h-2.78l1.37-1H584V359.2l1.37-1v11.64h2.78l-1.34 1h-1.44zM601.6 377.66l-1.34.94-3.17 1.82 1.92 1.1-1.37 1h-4.1l1.34-1 .55-.31-4.51-2.62v-3.89l1.37-.94 3.14-1.82-1.9-1.1 1.34-1H599l-1.37 1-.55.31 4.51 2.62zm-1.34-3l-4.69-2.66-3.29 1.92v3.72l4.66 2.69 3.31-1.92zm-4.68 6.58l-.41.24h.83zm1.37-10.2l.41-.24h-.82zM614.82 363.06l1.37-.94v1.15l-1.37 1zm0 7.78l1.37-1v11.64l-1.37 1zM624.36 381.52l-1.37 1v-11.68h-2.79l1.37-1H623V359.2l1.37-1v11.64h2.78l-1.34 1h-1.44zM630.36 381.3l1.34-.94v1.15l-1.34 1z"/></g></svg>