<svg xmlns="http://www.w3.org/2000/svg" viewBox="0 0 700 500"><path fill="#f2f2f2" d="M0 0h700v500H0z" data-name="Ebene 1"/><g data-name="Ebene 2"><path d="M177 223.12a3.76 3.76 0 0 1 2.52 1.12l22.4 22.26h37.52l21.28-21.28V181.4l-21.28-21.28h-37.53l-22.4 22.4a3.28 3.28 0 0 1-2.38 1 3.46 3.46 0 0 1-3.5-3.5V110a3.52 3.52 0 0 1 3.36-3.5h87.22a3.5 3.5 0 0 1 0 7h-83.58v58.1l17.22-17.36a3.76 3.76 0 0 1 2.52-1.12h40.46a3.84 3.84 0 0 1 2.52 1.12l23.38 23.24a3.59 3.59 0 0 1 1 2.52v46.62a3.73 3.73 0 0 1-1 2.52l-23.38 23.38a3.59 3.59 0 0 1-2.52 1h-40.46a3.73 3.73 0 0 1-2.52-1l-23.24-23.38a3.59 3.59 0 0 1-1-2.52 3.35 3.35 0 0 1 3.39-3.5zM372.54 252.52a3.59 3.59 0 0 1-2.52 1h-40.46a3.73 3.73 0 0 1-2.52-1l-23.24-23.38a3.59 3.59 0 0 1-1-2.52v-93.24a3.73 3.73 0 0 1 1-2.52l23.2-23.38a3.59 3.59 0 0 1 2.52-1H370a3.73 3.73 0 0 1 2.52 1l23.38 23.38a3.59 3.59 0 0 1 1 2.52v93.24a3.73 3.73 0 0 1-1 2.52zm17.36-117.74l-21.28-21.28H331.1l-21.28 21.28v90.44l21.28 21.28h37.52l21.28-21.28zM501.73 252.52a3.59 3.59 0 0 1-2.52 1h-40.46a3.73 3.73 0 0 1-2.52-1L433 229.14a3.59 3.59 0 0 1-1-2.52v-93.24a3.73 3.73 0 0 1 1-2.52l23.24-23.38a3.59 3.59 0 0 1 2.52-1h40.46a3.73 3.73 0 0 1 2.52 1l23.38 23.38a3.59 3.59 0 0 1 1 2.52v93.24a3.73 3.73 0 0 1-1 2.52zm17.36-117.74l-21.28-21.28h-37.52L439 134.78v90.44l21.28 21.28h37.52l21.28-21.28zM50 322v8.55h2.9a.45.45 0 1 1 0 .9H50V340a.45.45 0 0 1-.9 0v-8.55h-2.9a.45.45 0 1 1 0-.9h2.9V322a.45.45 0 0 1 .9 0zM58.37 322v10.91l2.23-2.23a.46.46 0 0 1 .32-.13h5.2a.48.48 0 0 1 .32.13l3 3a.49.49 0 0 1 .14.32v6a.45.45 0 0 1-.9 0v-5.82L66 331.45h-4.89l-2.74 2.74V340a.45.45 0 1 1-.9 0v-18a.45.45 0 1 1 .9 0zM86.09 337a.46.46 0 0 1-.13.32l-3 3a.43.43 0 0 1-.31.13h-5.22a.42.42 0 0 1-.31-.13l-3-3A.48.48 0 0 1 74 337v-3a.48.48 0 0 1 .13-.32l3-3a.44.44 0 0 1 .31-.13h5.22a.42.42 0 0 1 .31.13l3 3a.46.46 0 0 1-.32.77H74.89v2.36l2.74 2.74h4.83l2.88-2.86a.43.43 0 0 1 .76.31zm-3.64-5.55h-4.83l-2.11 2.11h9zM110.62 334.45a.44.44 0 0 1-.31-.14l-2.88-2.86h-4.83l-2.32 2.32 10.46 2.79a.44.44 0 0 1 .32.45.42.42 0 0 1-.13.31l-3 3a.42.42 0 0 1-.31.13h-5.22a.43.43 0 0 1-.31-.13l-3-3A.46.46 0 0 1 99 337a.43.43 0 0 1 .76-.31l2.88 2.86h4.83l2.32-2.32-10.46-2.79A.49.49 0 0 1 99 334a.42.42 0 0 1 .13-.31l3-3a.44.44 0 0 1 .31-.13h5.22a.42.42 0 0 1 .31.13l3 3a.46.46 0 0 1 .13.32.45.45 0 0 1-.48.44zM127.46 337a.46.46 0 0 1-.13.32l-3 3a.43.43 0 0 1-.31.13h-5.22a.42.42 0 0 1-.31-.13l-3-3a.48.48 0 0 1-.13-.32v-3a.48.48 0 0 1 .13-.32l3-3a.44.44 0 0 1 .31-.13h5.2a.42.42 0 0 1 .31.13l3 3a.46.46 0 0 1-.32.77h-10.73v2.36l2.74 2.74h4.83l2.88-2.86a.43.43 0 0 1 .76.31zm-3.64-5.55H119l-2.11 2.11h9zM132.9 331v1.91l2.21-2.23a.46.46 0 0 1 .32-.13h3.71a.45.45 0 0 1 0 .9h-3.51l-2.74 2.74V340a.46.46 0 0 1-.47.45.43.43 0 0 1-.42-.45v-9a.43.43 0 0 1 .43-.45.46.46 0 0 1 .47.45zM143.47 330.55a.47.47 0 0 1 .4.22l5.22 8.39 5.22-8.39a.45.45 0 0 1 .83.23.4.4 0 0 1-.07.23l-5.6 9a.5.5 0 0 1-.4.22.42.42 0 0 1-.36-.22l-5.62-9a.37.37 0 0 1-.09-.23.43.43 0 0 1 .47-.45zM170.25 337a.46.46 0 0 1-.13.32l-3 3a.43.43 0 0 1-.31.13h-5.22a.42.42 0 0 1-.31-.13l-3-3a.48.48 0 0 1-.13-.32v-3a.48.48 0 0 1 .13-.32l3-3a.44.44 0 0 1 .31-.13h5.22a.42.42 0 0 1 .31.13l3 3a.46.46 0 0 1-.32.77h-10.75v2.36l2.74 2.74h4.83l2.88-2.86a.43.43 0 0 1 .76.31zm-3.64-5.55h-4.83l-2.11 2.11h9zM175.69 331v1.91l2.21-2.23a.46.46 0 0 1 .32-.13h3.71a.45.45 0 1 1 0 .9h-3.51l-2.74 2.74V340a.46.46 0 0 1-.47.45.43.43 0 0 1-.43-.45v-9a.43.43 0 0 1 .43-.45.46.46 0 0 1 .48.45zM206.69 337a.46.46 0 0 1-.13.32l-3 3a.43.43 0 0 1-.31.13H198a.42.42 0 0 1-.31-.13l-3-3a.48.48 0 0 1-.13-.32v-3a.48.48 0 0 1 .13-.32l3-3a.44.44 0 0 1 .31-.13h5.22a.42.42 0 0 1 .31.13l3 3a.46.46 0 0 1-.32.77h-10.72v2.36l2.74 2.74h4.83l2.88-2.86a.43.43 0 0 1 .76.31zm-3.64-5.55h-4.83l-2.11 2.11h9zM212.13 331v1.91l2.21-2.23a.46.46 0 0 1 .32-.13h5.2a.48.48 0 0 1 .32.13l3 3a.47.47 0 0 1 .13.32v6a.45.45 0 1 1-.9 0v-5.82l-2.74-2.74h-4.83l-2.74 2.74V340a.46.46 0 0 1-.47.45.43.43 0 0 1-.43-.45v-9a.43.43 0 0 1 .43-.45.46.46 0 0 1 .5.45zM239.38 334.45a.44.44 0 0 1-.31-.14l-2.88-2.86h-4.83l-2.74 2.74v2.63l2.74 2.74h4.83l2.88-2.86a.43.43 0 0 1 .76.31.46.46 0 0 1-.13.32l-3 3a.43.43 0 0 1-.31.13h-5.22a.42.42 0 0 1-.31-.13l-3-3a.48.48 0 0 1-.13-.32v-3a.46.46 0 0 1 .13-.32l3-3a.44.44 0 0 1 .31-.13h5.22a.42.42 0 0 1 .31.13l3 3a.46.46 0 0 1 .13.32.45.45 0 0 1-.45.44zM256.22 334v3a.46.46 0 0 1-.13.32l-3 3a.43.43 0 0 1-.31.13h-5.22a.42.42 0 0 1-.31-.13l-3-3a.48.48 0 0 1-.13-.32v-3a.46.46 0 0 1 .13-.32l3-3a.44.44 0 0 1 .31-.13h5.22a.42.42 0 0 1 .31.13l3 3a.48.48 0 0 1 .13.32zm-3.64-2.56h-4.83l-2.75 2.74v2.63l2.74 2.74h4.83l2.74-2.74v-2.63zM261.53 331v5.82l2.74 2.74h4.83l2.74-2.74V331a.45.45 0 1 1 .9 0v6a.46.46 0 0 1-.13.32l-3 3a.43.43 0 0 1-.31.13h-5.22a.42.42 0 0 1-.31-.13l-3-3a.48.48 0 0 1-.13-.32v-6a.45.45 0 1 1 .9 0zM278.51 331v1.91l2.21-2.23a.46.46 0 0 1 .32-.13h5.2a.48.48 0 0 1 .32.13l3 3a.47.47 0 0 1 .13.32v6a.45.45 0 0 1-.9 0v-5.82l-2.74-2.74h-4.83l-2.74 2.74V340a.46.46 0 0 1-.47.45.43.43 0 0 1-.43-.45v-9a.43.43 0 0 1 .43-.45.46.46 0 0 1 .5.45zM296.7 322v8.55h2.9a.45.45 0 0 1 0 .9h-2.9V340a.45.45 0 0 1-.9 0v-8.55h-2.9a.45.45 0 0 1 0-.9h2.9V322a.45.45 0 0 1 .9 0zM314.86 337a.46.46 0 0 1-.13.32l-3 3a.43.43 0 0 1-.31.13h-5.22a.42.42 0 0 1-.31-.13l-3-3a.48.48 0 0 1-.13-.32v-3a.48.48 0 0 1 .13-.32l3-3a.44.44 0 0 1 .31-.13h5.22a.42.42 0 0 1 .31.13l3 3a.46.46 0 0 1-.32.77h-10.75v2.36l2.74 2.74h4.83l2.88-2.86a.43.43 0 0 1 .76.31zm-3.64-5.55h-4.82l-2.11 2.11h9zM320.3 331v1.91l2.21-2.23a.46.46 0 0 1 .32-.13h3.71a.45.45 0 1 1 0 .9H323l-2.74 2.74V340a.46.46 0 0 1-.47.45.43.43 0 0 1-.43-.45v-9a.43.43 0 0 1 .43-.45.46.46 0 0 1 .51.45zM342 337a.46.46 0 0 1-.13.32l-3 3a.43.43 0 0 1-.31.13h-5.22a.42.42 0 0 1-.31-.13l-3-3a.48.48 0 0 1-.13-.32v-3a.48.48 0 0 1 .13-.32l3-3a.44.44 0 0 1 .31-.13h5.22a.42.42 0 0 1 .31.13l3 3a.46.46 0 0 1-.32.77h-10.77v2.36l2.74 2.74h4.83l2.88-2.86a.43.43 0 0 1 .76.31zm-3.64-5.55h-4.83l-2.11 2.11h9zM358.37 322v18a.45.45 0 1 1-.9 0v-1.91l-2.23 2.23a.43.43 0 0 1-.31.13h-5.22a.42.42 0 0 1-.31-.13l-3-3a.48.48 0 0 1-.13-.32v-3a.47.47 0 0 1 .13-.32l3-3a.44.44 0 0 1 .31-.13h5.22a.42.42 0 0 1 .31.13l2.23 2.23V322a.45.45 0 1 1 .9 0zm-3.64 9.45h-4.83l-2.74 2.74v2.63l2.74 2.74h4.83l2.74-2.74v-2.63zM383.68 331v9a.45.45 0 1 1-.9 0v-1.91l-2.23 2.23a.42.42 0 0 1-.31.13H375a.43.43 0 0 1-.31-.13l-3-3a.46.46 0 0 1-.13-.32v-3a.48.48 0 0 1 .13-.32l3-3a.42.42 0 0 1 .31-.13h5.22a.44.44 0 0 1 .31.13l2.23 2.23V331a.45.45 0 1 1 .9 0zm-3.64.45h-4.83l-2.74 2.74v2.63l2.74 2.74H380l2.74-2.74v-2.63zM389.68 331v1.91l2.21-2.23a.46.46 0 0 1 .32-.13h5.2a.48.48 0 0 1 .32.13l3 3a.47.47 0 0 1 .13.32v6a.45.45 0 0 1-.9 0v-5.82l-2.74-2.74h-4.83l-2.74 2.74V340a.46.46 0 0 1-.47.45.43.43 0 0 1-.43-.45v-9a.43.43 0 0 1 .43-.45.46.46 0 0 1 .5.45zM414.64 331v5.82l2.74 2.74h4.83l2.74-2.74V331a.45.45 0 1 1 .9 0v6a.46.46 0 0 1-.13.32l-3 3a.43.43 0 0 1-.31.13h-5.22a.42.42 0 0 1-.31-.13l-3-3a.48.48 0 0 1-.13-.32v-6a.45.45 0 1 1 .9 0zM431.63 331v1.91l2.21-2.23a.46.46 0 0 1 .32-.13h5.2a.48.48 0 0 1 .32.13l3 3a.47.47 0 0 1 .13.32v6a.45.45 0 0 1-.9 0v-5.82l-2.74-2.74h-4.83l-2.74 2.74V340a.46.46 0 0 1-.47.45.43.43 0 0 1-.43-.45v-9a.43.43 0 0 1 .43-.45.46.46 0 0 1 .5.45zM459.32 337a.46.46 0 0 1-.13.32l-3 3a.43.43 0 0 1-.31.13h-5.22a.42.42 0 0 1-.31-.13l-3-3a.48.48 0 0 1-.13-.32v-3a.48.48 0 0 1 .13-.32l3-3a.44.44 0 0 1 .31-.13h5.22a.42.42 0 0 1 .31.13l3 3a.46.46 0 0 1-.32.77h-10.75v2.36l2.74 2.74h4.83l2.88-2.86a.43.43 0 0 1 .76.31zm-3.64-5.55h-4.83l-2.11 2.11h9zM462.92 330.55a.44.44 0 0 1 .29.11l5.31 4.27 5.33-4.27a.4.4 0 0 1 .27-.11.46.46 0 0 1 .45.45.45.45 0 0 1-.16.34l-5.17 4.16 5.17 4.16a.44.44 0 0 1 .16.34.46.46 0 0 1-.45.45.4.4 0 0 1-.27-.11l-5.33-4.27-5.31 4.27a.44.44 0 0 1-.29.11.46.46 0 0 1-.45-.45.44.44 0 0 1 .16-.34l5.17-4.16-5.17-4.16a.44.44 0 0 1-.16-.34.46.46 0 0 1 .45-.45zM479.77 331v1.91l2.21-2.23a.46.46 0 0 1 .32-.13h5.2a.48.48 0 0 1 .32.13l3 3a.47.47 0 0 1 .13.32v3a.48.48 0 0 1-.13.32l-3 3a.46.46 0 0 1-.32.13h-5.2a.48.48 0 0 1-.32-.13l-2.21-2.23V349a.46.46 0 0 1-.47.45.45.45 0 0 1-.45-.45v-18a.45.45 0 0 1 .45-.45.46.46 0 0 1 .47.45zm2.74 8.55h4.83l2.74-2.74v-2.63l-2.74-2.74h-4.83l-2.74 2.74v2.63zM507.35 337a.46.46 0 0 1-.13.32l-3 3a.43.43 0 0 1-.31.13h-5.22a.42.42 0 0 1-.31-.13l-3-3a.48.48 0 0 1-.13-.32v-3a.48.48 0 0 1 .13-.32l3-3a.44.44 0 0 1 .31-.13h5.22a.42.42 0 0 1 .31.13l3 3a.46.46 0 0 1-.32.77h-10.75v2.36l2.74 2.74h4.83l2.88-2.86a.43.43 0 0 1 .76.31zm-3.64-5.55h-4.83l-2.11 2.11h9zM523.29 334.45a.44.44 0 0 1-.31-.14l-2.88-2.86h-4.83l-2.74 2.74v2.63l2.74 2.74h4.83l2.88-2.86a.43.43 0 0 1 .76.31.46.46 0 0 1-.13.32l-3 3a.43.43 0 0 1-.31.13h-5.22a.42.42 0 0 1-.31-.13l-3-3a.48.48 0 0 1-.13-.32v-3a.46.46 0 0 1 .13-.32l3-3a.44.44 0 0 1 .31-.13h5.22a.42.42 0 0 1 .31.13l3 3a.46.46 0 0 1 .13.32.45.45 0 0 1-.45.44zM530.74 322v8.55h2.9a.45.45 0 1 1 0 .9h-2.9V340a.45.45 0 0 1-.9 0v-8.55h-2.9a.45.45 0 0 1 0-.9h2.9V322a.45.45 0 1 1 .9 0zM548.9 337a.46.46 0 0 1-.13.32l-3 3a.43.43 0 0 1-.31.13h-5.22a.42.42 0 0 1-.31-.13l-3-3a.48.48 0 0 1-.13-.32v-3a.48.48 0 0 1 .13-.32l3-3a.44.44 0 0 1 .31-.13h5.22a.42.42 0 0 1 .31.13l3 3a.46.46 0 0 1-.32.77H537.7v2.36l2.74 2.74h4.83l2.88-2.86a.43.43 0 0 1 .76.31zm-3.64-5.55h-4.83l-2.11 2.11h9zM565.29 322v18a.45.45 0 1 1-.9 0v-1.91l-2.23 2.23a.43.43 0 0 1-.31.13h-5.22a.42.42 0 0 1-.31-.13l-3-3a.48.48 0 0 1-.13-.32v-3a.47.47 0 0 1 .13-.32l3-3a.44.44 0 0 1 .31-.13h5.22a.42.42 0 0 1 .31.13l2.23 2.23V322a.45.45 0 1 1 .9 0zm-3.64 9.45h-4.83l-2.74 2.74v2.63l2.74 2.74h4.83l2.74-2.74v-2.63zM590.6 337a.46.46 0 0 1-.13.32l-3 3a.43.43 0 0 1-.31.13h-5.22a.42.42 0 0 1-.31-.13l-3-3a.48.48 0 0 1-.13-.32v-3a.48.48 0 0 1 .13-.32l3-3a.44.44 0 0 1 .31-.13h5.22a.42.42 0 0 1 .31.13l3 3a.46.46 0 0 1-.32.77H579.4v2.36l2.74 2.74H587l2.88-2.86a.43.43 0 0 1 .76.31zm-3.6-5.55h-4.83l-2.17 2.1h9zM596 331v1.91l2.21-2.23a.46.46 0 0 1 .32-.13h3.71a.45.45 0 1 1 0 .9h-3.51l-2.73 2.73V340a.46.46 0 0 1-.47.45.43.43 0 0 1-.43-.45v-9a.43.43 0 0 1 .43-.45.46.46 0 0 1 .47.45zM607.74 331v1.91l2.21-2.23a.46.46 0 0 1 .32-.13H614a.45.45 0 1 1 0 .9h-3.51l-2.74 2.74V340a.46.46 0 0 1-.47.45.43.43 0 0 1-.43-.45v-9a.43.43 0 0 1 .43-.45.46.46 0 0 1 .46.45zM629.42 334v3a.46.46 0 0 1-.13.32l-3 3a.43.43 0 0 1-.31.13h-5.22a.42.42 0 0 1-.31-.13l-3-3a.48.48 0 0 1-.13-.32v-3a.46.46 0 0 1 .13-.32l3-3a.44.44 0 0 1 .31-.13H626a.42.42 0 0 1 .31.13l3 3a.48.48 0 0 1 .11.32zm-3.64-2.56H621l-2.74 2.74v2.63l2.74 2.74h4.83l2.74-2.74v-2.63zM635 331v1.91l2.21-2.23a.46.46 0 0 1 .32-.13h3.71a.45.45 0 1 1 0 .9h-3.51l-2.73 2.73V340a.46.46 0 0 1-.47.45.43.43 0 0 1-.43-.45v-9a.43.43 0 0 1 .43-.45.46.46 0 0 1 .47.45zM643.19 340v-.9a.45.45 0 1 1 .9 0v.9a.45.45 0 1 1-.9 0zM49.93 373a.47.47 0 0 1 .49-.43.4.4 0 0 1 .4.27l2.94 7.89 3-7.89a.42.42 0 0 1 .4-.29.47.47 0 0 1 .43.29l3 7.89 2.93-7.89a.4.4 0 0 1 .4-.27.47.47 0 0 1 .49.43.53.53 0 0 1 0 .16l-3.37 9a.47.47 0 0 1-.43.29.43.43 0 0 1-.41-.29l-2.94-7.89-2.93 7.89a.47.47 0 0 1-.43.29.44.44 0 0 1-.41-.29l-3.37-9a.52.52 0 0 1-.19-.16zM79.88 379a.46.46 0 0 1-.13.32l-3 3a.43.43 0 0 1-.31.13h-5.22a.42.42 0 0 1-.31-.13l-3-3a.48.48 0 0 1-.13-.32v-3a.48.48 0 0 1 .13-.32l3-3a.44.44 0 0 1 .31-.13h5.22a.42.42 0 0 1 .31.13l3 3a.46.46 0 0 1-.32.77H68.68v2.36l2.74 2.74h4.83l2.88-2.86a.43.43 0 0 1 .76.31zm-3.64-5.55h-4.82l-2.11 2.11h9zM94.33 364v10.91l2.23-2.23a.46.46 0 0 1 .32-.13h5.2a.48.48 0 0 1 .32.13l3 3a.49.49 0 0 1 .14.32v6a.45.45 0 0 1-.9 0v-5.82l-2.74-2.74h-4.83l-2.74 2.74V382a.45.45 0 1 1-.9 0v-18a.45.45 0 1 1 .9 0zM122 373v9a.45.45 0 1 1-.9 0v-1.91l-2.23 2.23a.42.42 0 0 1-.31.13h-5.22a.43.43 0 0 1-.31-.13l-3-3a.46.46 0 0 1-.13-.32v-3a.48.48 0 0 1 .13-.32l3-3a.42.42 0 0 1 .31-.13h5.22a.44.44 0 0 1 .31.13l2.23 2.23V373a.45.45 0 1 1 .9 0zm-3.64.45h-4.83l-2.74 2.74v2.63l2.74 2.74h4.83l2.74-2.74v-2.63zM126.43 372.55a.47.47 0 0 1 .4.22l5.22 8.39 5.22-8.39a.45.45 0 0 1 .83.23.4.4 0 0 1-.07.23l-5.6 9a.5.5 0 0 1-.4.22.42.42 0 0 1-.36-.22l-5.62-9a.37.37 0 0 1-.05-.23.43.43 0 0 1 .43-.45zM153.22 379a.46.46 0 0 1-.13.32l-3 3a.43.43 0 0 1-.31.13h-5.22a.42.42 0 0 1-.31-.13l-3-3a.48.48 0 0 1-.13-.32v-3a.48.48 0 0 1 .13-.32l3-3a.44.44 0 0 1 .31-.13h5.22a.42.42 0 0 1 .31.13l3 3a.46.46 0 0 1-.32.77H142v2.36l2.74 2.74h4.83l2.88-2.86a.43.43 0 0 1 .76.31zm-3.64-5.55h-4.83l-2.11 2.11h9zM167.67 364v10.91l2.23-2.23a.48.48 0 0 1 .32-.13h5.2a.46.46 0 0 1 .32.13l3 3a.5.5 0 0 1 .14.32v3a.48.48 0 0 1-.14.32l-3 3a.48.48 0 0 1-.32.13h-5.2a.46.46 0 0 1-.32-.13l-2.23-2.23V382a.45.45 0 1 1-.9 0v-18a.45.45 0 1 1 .9 0zm7.58 9.45h-4.84l-2.74 2.74v2.63l2.74 2.74h4.84l2.74-2.74v-2.63zM195.27 379a.46.46 0 0 1-.13.32l-3 3a.43.43 0 0 1-.31.13h-5.22a.42.42 0 0 1-.31-.13l-3-3a.48.48 0 0 1-.13-.32v-3a.48.48 0 0 1 .13-.32l3-3a.44.44 0 0 1 .31-.13h5.22a.42.42 0 0 1 .31.13l3 3a.46.46 0 0 1-.32.77h-10.75v2.36l2.74 2.74h4.83l2.88-2.86a.43.43 0 0 1 .76.31zm-3.64-5.55h-4.83l-2.11 2.11h9zM211.66 379a.46.46 0 0 1-.13.32l-3 3a.43.43 0 0 1-.31.13H203a.42.42 0 0 1-.31-.13l-3-3a.48.48 0 0 1-.13-.32v-3a.48.48 0 0 1 .13-.32l3-3a.44.44 0 0 1 .31-.13h5.22a.42.42 0 0 1 .31.13l3 3a.46.46 0 0 1-.32.77h-10.75v2.36l2.74 2.74h4.8l2.88-2.86a.43.43 0 0 1 .76.31zm-3.66-5.55h-4.83l-2.11 2.11h9zM217.1 373v1.91l2.21-2.23a.46.46 0 0 1 .32-.13h5.2a.48.48 0 0 1 .32.13l3 3a.47.47 0 0 1 .13.32v6a.45.45 0 1 1-.9 0v-5.82l-2.74-2.74h-4.83l-2.74 2.74V382a.46.46 0 0 1-.47.45.43.43 0 0 1-.43-.45v-9a.43.43 0 0 1 .43-.45.46.46 0 0 1 .5.45zM241.58 367.9v-.9a.45.45 0 1 1 .9 0v.9a.45.45 0 1 1-.9 0zm0 14.1v-9a.45.45 0 1 1 .9 0v9a.45.45 0 1 1-.9 0zM248.5 373v1.91l2.21-2.23a.46.46 0 0 1 .32-.13h5.2a.48.48 0 0 1 .32.13l3 3a.47.47 0 0 1 .13.32v6a.45.45 0 0 1-.9 0v-5.82l-2.74-2.74h-4.83l-2.74 2.74V382a.46.46 0 0 1-.47.45.43.43 0 0 1-.43-.45v-9a.43.43 0 0 1 .43-.45.46.46 0 0 1 .5.45zM268.46 364a.46.46 0 0 1-.13.32l-2.86 2.86v5.37H268a.45.45 0 0 1 0 .9h-2.54V382a.46.46 0 0 1-.47.45.43.43 0 0 1-.43-.45v-15a.46.46 0 0 1 .13-.32l3-3a.46.46 0 0 1 .32-.13.45.45 0 0 1 .45.45zM283.21 376v3a.46.46 0 0 1-.13.32l-3 3a.43.43 0 0 1-.31.13h-5.22a.42.42 0 0 1-.31-.13l-3-3a.48.48 0 0 1-.13-.32v-3a.47.47 0 0 1 .13-.32l3-3a.44.44 0 0 1 .31-.13h5.22a.42.42 0 0 1 .31.13l3 3a.48.48 0 0 1 .13.32zm-3.64-2.56h-4.83l-2.74 2.74v2.63l2.74 2.74h4.83l2.74-2.74v-2.63zM288.82 373v1.91l2.21-2.23a.46.46 0 0 1 .32-.13h3.71a.45.45 0 0 1 0 .9h-3.51l-2.74 2.74V382a.46.46 0 0 1-.47.45.43.43 0 0 1-.43-.45v-9a.43.43 0 0 1 .43-.45.46.46 0 0 1 .48.45zM299.62 382v-9a.43.43 0 0 1 .43-.45.46.46 0 0 1 .47.45v2l2.61-2.34a.44.44 0 0 1 .29-.11.45.45 0 0 1 .31.11l3.06 2.74 3.06-2.74a.49.49 0 0 1 .31-.11.45.45 0 0 1 .31.11l3.37 3a.53.53 0 0 1 .14.34v6a.45.45 0 1 1-.9 0v-5.8l-2.92-2.61-2.92 2.61v5.8a.45.45 0 0 1-.9 0v-5.8l-2.92-2.61-2.9 2.61v5.8a.46.46 0 0 1-.47.45.43.43 0 0 1-.43-.45zM330.48 379a.46.46 0 0 1-.13.32l-3 3a.43.43 0 0 1-.31.13h-5.22a.42.42 0 0 1-.31-.13l-3-3a.48.48 0 0 1-.13-.32v-3a.48.48 0 0 1 .13-.32l3-3a.44.44 0 0 1 .31-.13H327a.42.42 0 0 1 .31.13l3 3a.46.46 0 0 1-.32.77h-10.71v2.36l2.74 2.74h4.83l2.88-2.86a.43.43 0 0 1 .76.31zm-3.64-5.55H322l-2.11 2.11h9zM346.87 364v18a.45.45 0 1 1-.9 0v-1.91l-2.23 2.23a.43.43 0 0 1-.31.13h-5.22a.42.42 0 0 1-.31-.13l-3-3a.48.48 0 0 1-.13-.32v-3a.47.47 0 0 1 .13-.32l3-3a.44.44 0 0 1 .31-.13h5.22a.42.42 0 0 1 .31.13l2.23 2.23V364a.45.45 0 1 1 .9 0zm-3.64 9.45h-4.83l-2.74 2.74v2.63l2.74 2.74h4.83l2.74-2.74v-2.63zM372.18 373v9a.45.45 0 1 1-.9 0v-1.91l-2.28 2.23a.42.42 0 0 1-.31.13h-5.22a.43.43 0 0 1-.31-.13l-3-3a.46.46 0 0 1-.13-.32v-3a.48.48 0 0 1 .13-.32l3-3a.42.42 0 0 1 .31-.13h5.22a.44.44 0 0 1 .31.13l2.23 2.23V373a.45.45 0 1 1 .9 0zm-3.64.45h-4.83l-2.71 2.73v2.63l2.74 2.74h4.83l2.74-2.74v-2.63zM378.18 373v1.91l2.21-2.23a.46.46 0 0 1 .32-.13h5.2a.48.48 0 0 1 .32.13l3 3a.47.47 0 0 1 .13.32v6a.45.45 0 0 1-.9 0v-5.82l-2.74-2.74h-4.83l-2.74 2.74V382a.46.46 0 0 1-.47.45.43.43 0 0 1-.43-.45v-9a.43.43 0 0 1 .43-.45.46.46 0 0 1 .5.45zM405.88 364v18a.45.45 0 1 1-.9 0v-1.91l-2.23 2.23a.43.43 0 0 1-.31.13h-5.22a.42.42 0 0 1-.31-.13l-3-3a.48.48 0 0 1-.13-.32v-3a.46.46 0 0 1 .13-.32l3-3a.44.44 0 0 1 .31-.13h5.22a.42.42 0 0 1 .31.13l2.23 2.23V364a.45.45 0 1 1 .9 0zm-3.64 9.45h-4.83l-2.74 2.74v2.63l2.74 2.74h4.83l2.74-2.74v-2.63zM431.19 373v9a.45.45 0 1 1-.9 0v-1.91l-2.23 2.23a.42.42 0 0 1-.31.13h-5.22a.43.43 0 0 1-.31-.13l-3-3a.46.46 0 0 1-.13-.32v-3a.48.48 0 0 1 .13-.32l3-3a.42.42 0 0 1 .31-.13h5.22a.44.44 0 0 1 .31.13l2.23 2.23V373a.45.45 0 1 1 .9 0zm-3.64.45h-4.83l-2.72 2.73v2.63l2.74 2.74h4.83l2.74-2.74v-2.63zM437.19 373v1.91l2.21-2.23a.46.46 0 0 1 .32-.13h3.71a.45.45 0 0 1 0 .9h-3.51l-2.74 2.74V382a.46.46 0 0 1-.47.45.43.43 0 0 1-.43-.45v-9a.43.43 0 0 1 .43-.45.46.46 0 0 1 .48.45zM458.87 379a.46.46 0 0 1-.13.32l-3 3a.43.43 0 0 1-.31.13h-5.22a.42.42 0 0 1-.31-.13l-3-3a.48.48 0 0 1-.13-.32v-3a.48.48 0 0 1 .13-.32l3-3a.44.44 0 0 1 .31-.13h5.22a.42.42 0 0 1 .31.13l3 3a.46.46 0 0 1-.32.77h-10.75v2.36l2.74 2.74h4.83l2.88-2.86a.43.43 0 0 1 .76.31zm-3.64-5.55h-4.83l-2.11 2.11h9zM472.38 382v-18a.45.45 0 0 1 .9 0v18a.45.45 0 0 1-.9 0zM490.19 376v3a.46.46 0 0 1-.13.32l-3 3a.43.43 0 0 1-.31.13h-5.22a.42.42 0 0 1-.31-.13l-3-3a.48.48 0 0 1-.13-.32v-3a.47.47 0 0 1 .13-.32l3-3a.44.44 0 0 1 .31-.13h5.22a.42.42 0 0 1 .31.13l3 3a.48.48 0 0 1 .13.32zm-3.64-2.56h-4.83l-2.72 2.74v2.63l2.74 2.74h4.83l2.74-2.74v-2.63zM506.58 376v3a.46.46 0 0 1-.13.32l-3 3a.43.43 0 0 1-.31.13h-5.22a.42.42 0 0 1-.31-.13l-3-3a.48.48 0 0 1-.13-.32v-3a.47.47 0 0 1 .13-.32l3-3a.44.44 0 0 1 .31-.13h5.22a.42.42 0 0 1 .31.13l3 3a.48.48 0 0 1 .13.32zm-3.64-2.56h-4.83l-2.74 2.74v2.63l2.74 2.74h4.83l2.74-2.74v-2.63zM523.12 372.55a.46.46 0 0 1 .43.47.4.4 0 0 1-.27.4l-10.18 4.08 10.17 4.09a.4.4 0 0 1 .27.4.46.46 0 0 1-.43.47.62.62 0 0 1-.18 0l-10.59-4.25V382a.45.45 0 0 1-.9 0v-18a.45.45 0 0 1 .9 0v12.84l10.59-4.25a.66.66 0 0 1 .19-.04zM527.71 367.9v-.9a.45.45 0 1 1 .9 0v.9a.45.45 0 1 1-.9 0zm0 14.1v-9a.45.45 0 1 1 .9 0v9a.45.45 0 1 1-.9 0zM534.63 373v1.91l2.21-2.23a.46.46 0 0 1 .32-.13h5.2a.48.48 0 0 1 .32.13l3 3a.47.47 0 0 1 .13.32v6a.45.45 0 0 1-.9 0v-5.82l-2.74-2.74h-4.83l-2.74 2.74V382a.46.46 0 0 1-.47.45.43.43 0 0 1-.43-.45v-9a.43.43 0 0 1 .43-.45.46.46 0 0 1 .5.45zM550.68 387.55a.44.44 0 0 1 .31.14l2.88 2.86h4.83l2.74-2.74v-7.72l-2.23 2.23a.43.43 0 0 1-.31.13h-5.22a.42.42 0 0 1-.31-.13l-3-3a.48.48 0 0 1-.13-.32v-3a.46.46 0 0 1 .13-.32l3-3a.44.44 0 0 1 .31-.13h5.22a.42.42 0 0 1 .31.13l2.23 2.23V373a.45.45 0 1 1 .9 0v15a.48.48 0 0 1-.13.32l-3 3a.42.42 0 0 1-.31.13h-5.22a.44.44 0 0 1-.31-.13l-3-3a.46.46 0 0 1-.13-.32.45.45 0 0 1 .44-.45zm8-14.1h-4.83l-2.74 2.74v2.63l2.74 2.74h4.83l2.74-2.74v-2.63zM576 367.9v-.9a.45.45 0 1 1 .9 0v.9a.45.45 0 1 1-.9 0zm0 14.1v-9a.45.45 0 1 1 .9 0v9a.45.45 0 0 1-.9 0zM582.88 373v1.91l2.21-2.23a.46.46 0 0 1 .32-.13h5.2a.48.48 0 0 1 .32.13l3 3a.47.47 0 0 1 .13.32v6a.45.45 0 0 1-.9 0v-5.82l-2.74-2.74h-4.83l-2.74 2.74V382a.46.46 0 0 1-.47.45.43.43 0 0 1-.38-.45v-9a.43.43 0 0 1 .43-.45.46.46 0 0 1 .45.45zM601.06 364v8.55H604a.45.45 0 1 1 0 .9h-2.9V382a.45.45 0 0 1-.9 0v-8.55h-2.9a.45.45 0 0 1 0-.9h2.9V364a.45.45 0 0 1 .9 0zM619.22 376v3a.46.46 0 0 1-.13.32l-3 3a.43.43 0 0 1-.31.13h-5.22a.42.42 0 0 1-.31-.13l-3-3a.48.48 0 0 1-.13-.32v-3a.46.46 0 0 1 .13-.32l3-3a.44.44 0 0 1 .31-.13h5.22a.42.42 0 0 1 .31.13l3 3a.48.48 0 0 1 .13.32zm-3.64-2.56h-4.83l-2.75 2.74v2.63l2.74 2.74h4.83l2.74-2.74v-2.63zM632.52 367.9v-.9a.45.45 0 0 1 .9 0v.9a.45.45 0 1 1-.9 0zm0 14.1v-9a.45.45 0 1 1 .9 0v9a.45.45 0 0 1-.9 0zM641.64 364v8.55h2.9a.45.45 0 1 1 0 .9h-2.9V382a.45.45 0 0 1-.9 0v-8.55h-2.9a.45.45 0 1 1 0-.9h2.9V364a.45.45 0 0 1 .9 0zM647.91 382v-.9a.45.45 0 1 1 .9 0v.9a.45.45 0 1 1-.9 0z"/></g></svg>