<svg xmlns="http://www.w3.org/2000/svg" viewBox="0 0 700 500"><path fill="#f2f2f2" d="M0 0h700v500H0z" data-name="Ebene 1"/><g data-name="Ebene 2"><path d="M264.49 112.1h-85V175l19.74-19.74a2.23 2.23 0 0 1 1.4-.7h40.46a2.63 2.63 0 0 1 1.54.7l23.37 23.2a2.33 2.33 0 0 1 .56 1.54v46.62a2.55 2.55 0 0 1-.56 1.54l-23.38 23.38a2.33 2.33 0 0 1-1.54.56h-40.43a2.14 2.14 0 0 1-1.4-.56l-23.38-23.38a2.23 2.23 0 0 1-.7-1.4 2.41 2.41 0 0 1 2.24-2.24 2.23 2.23 0 0 1 1.4.7l22.68 22.68h38.78l22.12-22.12v-44.94l-22.12-22.12h-38.78l-22.68 22.82a1.8 1.8 0 0 1-1.4.56 2.06 2.06 0 0 1-2.1-2.1v-70a2.12 2.12 0 0 1 2-2.1h87.22a2.1 2.1 0 1 1 0 4.2zM371.56 251.54a2.33 2.33 0 0 1-1.54.56h-40.46a2.14 2.14 0 0 1-1.4-.56l-23.38-23.38a2.33 2.33 0 0 1-.56-1.54v-93.24a2.55 2.55 0 0 1 .56-1.54l23.38-23.38a2 2 0 0 1 1.4-.56H370a2.55 2.55 0 0 1 1.54.56l23.38 23.38a2.33 2.33 0 0 1 .56 1.54v93.24a2.55 2.55 0 0 1-.56 1.54zm19.74-117.32l-22.12-22.12H330.4l-22 22.12v91.56l22 22.12h38.78l22.12-22.12zM500.47 251.54a2.33 2.33 0 0 1-1.54.56h-40.46a2.14 2.14 0 0 1-1.4-.56l-23.38-23.38a2.33 2.33 0 0 1-.56-1.54v-93.24a2.55 2.55 0 0 1 .56-1.54l23.38-23.38a2 2 0 0 1 1.4-.56h40.46a2.55 2.55 0 0 1 1.54.56l23.38 23.38a2.33 2.33 0 0 1 .56 1.54v93.24a2.55 2.55 0 0 1-.56 1.54zm19.74-117.32l-22.12-22.12h-38.78l-22 22.12v91.56l22 22.12h38.78l22.12-22.12zM50.26 322v8.73h3.08a.27.27 0 1 1 0 .54h-3.08V340a.27.27 0 1 1-.54 0v-8.73h-3.08a.27.27 0 1 1 0-.54h3.08V322a.27.27 0 1 1 .54 0zM58.6 322v11.34l2.54-2.54a.3.3 0 0 1 .2-.07h5.2a.33.33 0 0 1 .2.07l3 3a.33.33 0 0 1 .09.2v6a.27.27 0 1 1-.54 0v-5.89l-2.85-2.84h-5l-2.84 2.84V340a.27.27 0 1 1-.54 0v-18a.27.27 0 1 1 .54 0zM86 334.27H75.11v2.61l2.89 2.85h5l2.94-2.92a.28.28 0 0 1 .18-.09.29.29 0 0 1 .27.29.26.26 0 0 1-.07.18l-3 3a.27.27 0 0 1-.18.07h-5.31a.26.26 0 0 1-.18-.07l-3-3a.33.33 0 0 1-.07-.2v-3a.33.33 0 0 1 .07-.2l3-3a.28.28 0 0 1 .18-.07h5.22a.26.26 0 0 1 .18.07l3 3a.23.23 0 0 1 .07.18.27.27 0 0 1-.3.3zm-3.1-3H78l-2.47 2.47h9.9zM111.3 334a.29.29 0 0 1-.27.29.29.29 0 0 1-.18-.09l-2.94-2.92h-5l-2.59 2.59 10.75 2.88a.29.29 0 0 1 .2.27.23.23 0 0 1-.07.18l-3 3a.26.26 0 0 1-.18.07h-5.22a.27.27 0 0 1-.18-.07l-3-3a.26.26 0 0 1-.07-.18.29.29 0 0 1 .27-.29.28.28 0 0 1 .18.09l2.94 2.92h5l2.59-2.59-10.75-2.88a.29.29 0 0 1-.2-.27.23.23 0 0 1 .07-.18l3-3a.28.28 0 0 1 .18-.07H108a.26.26 0 0 1 .18.07l3 3a.26.26 0 0 1 .12.18zM127.4 334.27h-10.92v2.61l2.85 2.84h5l2.94-2.92a.28.28 0 0 1 .18-.09.29.29 0 0 1 .27.29.26.26 0 0 1-.07.18l-3 3a.27.27 0 0 1-.18.07h-5.27a.26.26 0 0 1-.18-.07l-3-3a.33.33 0 0 1-.07-.2v-3a.33.33 0 0 1 .07-.2l3-3a.28.28 0 0 1 .18-.07h5.22a.26.26 0 0 1 .18.07l3 3a.23.23 0 0 1 .07.18.27.27 0 0 1-.27.31zm-3.1-3h-5l-2.47 2.47h9.9zM133.12 331v2.34l2.54-2.54a.26.26 0 0 1 .18-.07h3.71a.27.27 0 1 1 0 .54h-3.6l-2.83 2.84V340a.29.29 0 0 1-.29.27.26.26 0 0 1-.25-.27v-9a.26.26 0 0 1 .25-.27.29.29 0 0 1 .29.27zM143.6 331a.29.29 0 0 1 .29-.27.26.26 0 0 1 .22.13l5.38 8.64 5.37-8.64a.26.26 0 0 1 .22-.13.29.29 0 0 1 .29.27.24.24 0 0 1 0 .14l-5.62 9a.31.31 0 0 1-.23.13.23.23 0 0 1-.22-.13l-5.6-9a.29.29 0 0 1-.1-.14zM170.14 334.27h-10.91v2.61l2.85 2.84h5l2.94-2.92a.28.28 0 0 1 .18-.09.29.29 0 0 1 .27.29.26.26 0 0 1-.07.18l-3 3a.27.27 0 0 1-.18.07H162a.26.26 0 0 1-.18-.07l-3-3a.33.33 0 0 1-.07-.2v-3a.33.33 0 0 1 .07-.2l3-3a.28.28 0 0 1 .18-.07h5.22a.26.26 0 0 1 .18.07l3 3a.23.23 0 0 1 .07.18.27.27 0 0 1-.33.31zm-3.1-3h-5l-2.47 2.47h9.9zM175.87 331v2.34l2.54-2.54a.26.26 0 0 1 .18-.07h3.71a.27.27 0 1 1 0 .54h-3.6l-2.83 2.84V340a.29.29 0 0 1-.29.27.26.26 0 0 1-.25-.27v-9a.26.26 0 0 1 .25-.27.29.29 0 0 1 .29.27zM206.58 334.27h-10.91v2.61l2.85 2.84h5l2.94-2.92a.28.28 0 0 1 .18-.09.29.29 0 0 1 .27.29.26.26 0 0 1-.07.18l-3 3a.27.27 0 0 1-.18.07h-5.22a.26.26 0 0 1-.18-.07l-3-3a.33.33 0 0 1-.07-.2v-3a.33.33 0 0 1 .07-.2l3-3a.28.28 0 0 1 .18-.07h5.22a.26.26 0 0 1 .18.07l3 3a.23.23 0 0 1 .07.18.27.27 0 0 1-.33.31zm-3.1-3h-5l-2.48 2.46h9.9zM212.3 331v2.34l2.54-2.54a.26.26 0 0 1 .18-.07h5.2a.33.33 0 0 1 .2.07l3 3a.3.3 0 0 1 .07.2v6a.27.27 0 1 1-.54 0v-5.89l-2.84-2.84h-5l-2.83 2.84V340a.29.29 0 0 1-.29.27.26.26 0 0 1-.25-.27v-9a.26.26 0 0 1 .25-.27.29.29 0 0 1 .31.27zM240 334a.29.29 0 0 1-.27.29.29.29 0 0 1-.18-.09l-2.94-2.92h-5l-2.85 2.84v2.77l2.85 2.84h5l2.94-2.92a.28.28 0 0 1 .18-.09.29.29 0 0 1 .27.29.26.26 0 0 1-.07.18l-3 3a.27.27 0 0 1-.18.07h-5.22a.26.26 0 0 1-.18-.07l-3-3a.33.33 0 0 1-.07-.2v-3a.3.3 0 0 1 .07-.2l3-3a.28.28 0 0 1 .18-.07h5.22a.26.26 0 0 1 .18.07l3 3a.26.26 0 0 1 .07.21zM256.38 334v3a.3.3 0 0 1-.07.2l-3 3a.27.27 0 0 1-.18.07h-5.23a.26.26 0 0 1-.18-.07l-3-3a.33.33 0 0 1-.07-.2v-3a.3.3 0 0 1 .07-.2l3-3a.28.28 0 0 1 .18-.07h5.22a.26.26 0 0 1 .18.07l3 3a.33.33 0 0 1 .08.2zm-3.38-2.73h-5l-2.85 2.84v2.77l2.85 2.84h5l2.84-2.84v-2.77zM261.68 331v5.89l2.85 2.84h5l2.84-2.84V331a.27.27 0 0 1 .54 0v6a.3.3 0 0 1-.07.2l-3 3a.27.27 0 0 1-.18.07h-5.26a.26.26 0 0 1-.18-.07l-3-3a.33.33 0 0 1-.07-.2v-6a.27.27 0 0 1 .54 0zM278.66 331v2.34l2.54-2.54a.26.26 0 0 1 .18-.07h5.2a.33.33 0 0 1 .2.07l3 3a.3.3 0 0 1 .07.2v6a.27.27 0 1 1-.54 0v-5.89l-2.84-2.84h-5l-2.83 2.84V340a.29.29 0 0 1-.29.27.26.26 0 0 1-.25-.27v-9a.26.26 0 0 1 .25-.27.29.29 0 0 1 .31.27zM296.76 322v8.73h3.08a.27.27 0 1 1 0 .54h-3.08V340a.27.27 0 1 1-.54 0v-8.73h-3.08a.27.27 0 1 1 0-.54h3.08V322a.27.27 0 1 1 .54 0zM314.54 334.27h-10.91v2.61l2.85 2.84h5l2.94-2.92a.28.28 0 0 1 .18-.09.29.29 0 0 1 .27.29.26.26 0 0 1-.07.18l-3 3a.27.27 0 0 1-.18.07h-5.22a.26.26 0 0 1-.18-.07l-3-3a.33.33 0 0 1-.07-.2v-3a.33.33 0 0 1 .07-.2l3-3a.28.28 0 0 1 .18-.07h5.22a.26.26 0 0 1 .18.07l3 3a.23.23 0 0 1 .07.18.27.27 0 0 1-.33.31zm-3.1-3h-5l-2.44 2.46h9.9zM320.27 331v2.34l2.54-2.54a.26.26 0 0 1 .18-.07h3.71a.27.27 0 1 1 0 .54h-3.6l-2.83 2.84V340a.29.29 0 0 1-.29.27.26.26 0 0 1-.25-.27v-9a.26.26 0 0 1 .25-.27.29.29 0 0 1 .29.27zM341.57 334.27h-10.91v2.61l2.85 2.84h5l2.94-2.92a.28.28 0 0 1 .18-.09.29.29 0 0 1 .27.29.26.26 0 0 1-.07.18l-3 3a.27.27 0 0 1-.18.07h-5.22a.26.26 0 0 1-.18-.07l-3-3a.33.33 0 0 1-.07-.2v-3a.33.33 0 0 1 .07-.2l3-3a.28.28 0 0 1 .18-.07h5.22a.26.26 0 0 1 .18.07l3 3a.23.23 0 0 1 .07.18.27.27 0 0 1-.33.31zm-3.1-3h-5l-2.47 2.46h9.9zM358.24 322v18a.27.27 0 1 1-.54 0v-2.34l-2.54 2.54a.27.27 0 0 1-.18.07h-5.22a.26.26 0 0 1-.18-.07l-3-3a.33.33 0 0 1-.07-.2v-3a.3.3 0 0 1 .07-.2l3-3a.28.28 0 0 1 .18-.07H355a.26.26 0 0 1 .18.07l2.54 2.54V322a.27.27 0 1 1 .54 0zm-3.39 9.27h-5l-2.85 2.84v2.77l2.85 2.84h5l2.84-2.84v-2.77zM383.55 331v9a.27.27 0 1 1-.54 0v-2.34l-2.54 2.54a.26.26 0 0 1-.18.07h-5.22a.27.27 0 0 1-.18-.07l-3-3a.3.3 0 0 1-.07-.2v-3a.33.33 0 0 1 .07-.2l3-3a.26.26 0 0 1 .18-.07h5.22a.28.28 0 0 1 .18.07l2.54 2.54V331a.27.27 0 0 1 .54 0zm-3.39.27h-5l-2.85 2.84v2.77l2.85 2.84h5l2.84-2.84v-2.77zM389.55 331v2.34l2.54-2.54a.26.26 0 0 1 .18-.07h5.2a.33.33 0 0 1 .2.07l3 3a.3.3 0 0 1 .07.2v6a.27.27 0 1 1-.54 0v-5.89l-2.84-2.84h-5l-2.83 2.84V340a.29.29 0 0 1-.29.27.26.26 0 0 1-.24-.27v-9a.26.26 0 0 1 .25-.27.29.29 0 0 1 .3.27zM414.51 331v5.89l2.85 2.84h5l2.84-2.84V331a.27.27 0 0 1 .54 0v6a.3.3 0 0 1-.07.2l-3 3a.27.27 0 0 1-.18.07h-5.22a.26.26 0 0 1-.18-.07l-3-3a.33.33 0 0 1-.07-.2v-6a.27.27 0 0 1 .54 0zM431.49 331v2.34l2.51-2.54a.26.26 0 0 1 .18-.07h5.2a.33.33 0 0 1 .2.07l3 3a.3.3 0 0 1 .07.2v6a.27.27 0 1 1-.54 0v-5.89l-2.84-2.84h-5l-2.83 2.84V340a.29.29 0 0 1-.29.27.26.26 0 0 1-.15-.27v-9a.26.26 0 0 1 .25-.27.29.29 0 0 1 .24.27zM458.9 334.27H448v2.61l2.85 2.84h5l2.94-2.92a.28.28 0 0 1 .18-.09.29.29 0 0 1 .27.29.26.26 0 0 1-.07.18l-3 3a.27.27 0 0 1-.18.07h-5.29a.26.26 0 0 1-.18-.07l-3-3a.33.33 0 0 1-.07-.2v-3a.33.33 0 0 1 .07-.2l3-3a.28.28 0 0 1 .18-.07h5.22a.26.26 0 0 1 .18.07l3 3a.23.23 0 0 1 .07.18.27.27 0 0 1-.27.31zm-3.1-3h-5l-2.47 2.47h9.9zM462.54 331a.29.29 0 0 1 .27-.29.29.29 0 0 1 .16.05l5.44 4.38 5.44-4.37a.29.29 0 0 1 .16-.05.29.29 0 0 1 .27.29.23.23 0 0 1-.09.2l-5.35 4.29 5.35 4.29a.23.23 0 0 1 .09.2.29.29 0 0 1-.27.29.29.29 0 0 1-.16-.05l-5.44-4.37-5.41 4.36a.27.27 0 0 1-.43-.23.25.25 0 0 1 .11-.2l5.32-4.29-5.33-4.29a.25.25 0 0 1-.13-.21zM479.47 331v2.34l2.53-2.54a.26.26 0 0 1 .18-.07h5.2a.33.33 0 0 1 .2.07l3 3a.3.3 0 0 1 .07.2v3a.33.33 0 0 1-.07.2l-3 3a.3.3 0 0 1-.2.07h-5.2a.28.28 0 0 1-.18-.07l-2.54-2.54V349a.29.29 0 0 1-.29.27.26.26 0 0 1-.25-.27v-18a.26.26 0 0 1 .25-.27.29.29 0 0 1 .3.27zm2.83 8.73h5l2.84-2.84v-2.77l-2.84-2.84h-5l-2.83 2.84v2.77zM506.76 334.27h-10.92v2.61l2.85 2.84h5l2.94-2.92a.28.28 0 0 1 .18-.09.29.29 0 0 1 .27.29.26.26 0 0 1-.07.18l-3 3a.27.27 0 0 1-.18.07h-5.22a.26.26 0 0 1-.18-.07l-3-3a.33.33 0 0 1-.07-.2v-3a.33.33 0 0 1 .07-.2l3-3a.28.28 0 0 1 .18-.07h5.22a.26.26 0 0 1 .18.07l3 3a.23.23 0 0 1 .07.18.27.27 0 0 1-.32.31zm-3.1-3h-5l-2.47 2.47h9.9zM523.43 334a.29.29 0 0 1-.27.29.29.29 0 0 1-.18-.09l-2.98-2.93h-5l-2.85 2.84v2.77l2.85 2.84h5l2.94-2.92a.28.28 0 0 1 .18-.09.29.29 0 0 1 .27.29.26.26 0 0 1-.07.18l-3 3a.27.27 0 0 1-.18.07h-5.22a.26.26 0 0 1-.18-.07l-3-3a.33.33 0 0 1-.07-.2v-3a.3.3 0 0 1 .07-.2l3-3a.28.28 0 0 1 .18-.07h5.22a.26.26 0 0 1 .18.07l3 3a.26.26 0 0 1 .11.22zM530.34 322v8.73h3.08a.27.27 0 1 1 0 .54h-3.08V340a.27.27 0 1 1-.54 0v-8.73h-3.08a.27.27 0 1 1 0-.54h3.08V322a.27.27 0 1 1 .54 0zM548.12 334.27h-10.91v2.61l2.85 2.84h5l2.94-2.92a.28.28 0 0 1 .18-.09.29.29 0 0 1 .27.29.26.26 0 0 1-.07.18l-3 3a.27.27 0 0 1-.18.07h-5.22a.26.26 0 0 1-.18-.07l-3-3a.33.33 0 0 1-.07-.2v-3a.33.33 0 0 1 .07-.2l3-3a.28.28 0 0 1 .18-.07h5.22a.26.26 0 0 1 .18.07l3 3a.23.23 0 0 1 .07.18.27.27 0 0 1-.33.31zm-3.1-3h-5l-2.47 2.47h9.9zM564.8 322v18a.27.27 0 1 1-.54 0v-2.34l-2.54 2.54a.27.27 0 0 1-.18.07h-5.22a.26.26 0 0 1-.18-.07l-3-3a.33.33 0 0 1-.07-.2v-3a.3.3 0 0 1 .07-.2l3-3a.28.28 0 0 1 .18-.07h5.22a.26.26 0 0 1 .18.07l2.54 2.54V322a.27.27 0 1 1 .54 0zm-3.39 9.27h-5l-2.85 2.84v2.77l2.85 2.84h5l2.84-2.84v-2.77zM589.82 334.27h-10.91v2.61l2.85 2.84h5l2.94-2.92a.28.28 0 0 1 .18-.09.29.29 0 0 1 .27.29.26.26 0 0 1-.07.18l-3 3a.27.27 0 0 1-.18.07h-5.22a.26.26 0 0 1-.18-.07l-3-3a.33.33 0 0 1-.07-.2v-3a.33.33 0 0 1 .07-.2l3-3a.28.28 0 0 1 .18-.07h5.22a.26.26 0 0 1 .18.07l3 3a.23.23 0 0 1 .07.18.27.27 0 0 1-.33.31zm-3.1-3h-5l-2.47 2.47h9.9zM595.54 331v2.34l2.54-2.54a.26.26 0 0 1 .18-.07H602a.27.27 0 1 1 0 .54h-3.6l-2.83 2.84V340a.29.29 0 0 1-.29.27.26.26 0 0 1-.28-.27v-9a.26.26 0 0 1 .25-.27.29.29 0 0 1 .29.27zM607.24 331v2.34l2.54-2.54a.26.26 0 0 1 .18-.07h3.71a.27.27 0 1 1 0 .54h-3.6l-2.83 2.84V340a.29.29 0 0 1-.29.27.26.26 0 0 1-.25-.27v-9a.26.26 0 0 1 .25-.27.29.29 0 0 1 .29.27zM628.83 334v3a.3.3 0 0 1-.07.2l-3 3a.27.27 0 0 1-.18.07h-5.22a.26.26 0 0 1-.18-.07l-3-3a.33.33 0 0 1-.07-.2v-3a.3.3 0 0 1 .07-.2l3-3a.28.28 0 0 1 .18-.07h5.22a.26.26 0 0 1 .18.07l3 3a.33.33 0 0 1 .07.2zm-3.39-2.74h-5l-2.85 2.84v2.77l2.85 2.84h5l2.84-2.84v-2.77zM634.43 331v2.34l2.57-2.54a.26.26 0 0 1 .18-.07h3.71a.27.27 0 1 1 0 .54h-3.6l-2.83 2.84V340a.29.29 0 0 1-.29.27.26.26 0 0 1-.25-.27v-9a.26.26 0 0 1 .25-.27.29.29 0 0 1 .26.27zM643 340v-.9a.27.27 0 0 1 .54 0v.9a.27.27 0 1 1-.54 0zM50.39 373a.28.28 0 0 1 .29-.27.24.24 0 0 1 .23.18l3.09 8.32 3.11-8.32a.27.27 0 0 1 .5 0l3.11 8.32 3.11-8.32a.24.24 0 0 1 .23-.18.28.28 0 0 1 .29.27.16.16 0 0 1 0 .09l-3.37 9a.27.27 0 0 1-.5 0l-3.12-8.32-3.11 8.32a.27.27 0 0 1-.5 0l-3.37-9a.16.16 0 0 1 .01-.09zM79.67 376.27H68.76v2.61l2.85 2.84h5l2.94-2.92a.28.28 0 0 1 .18-.09.29.29 0 0 1 .27.29.26.26 0 0 1-.07.18l-3 3a.27.27 0 0 1-.18.07h-5.28a.26.26 0 0 1-.18-.07l-3-3a.33.33 0 0 1-.07-.2v-3a.33.33 0 0 1 .07-.2l3-3a.28.28 0 0 1 .18-.07h5.23a.26.26 0 0 1 .18.07l3 3a.23.23 0 0 1 .12.22.27.27 0 0 1-.33.27zm-3.1-3h-5l-2.47 2.47H79zM94.41 364v11.34l2.54-2.54a.3.3 0 0 1 .2-.07h5.2a.33.33 0 0 1 .2.07l3 3a.33.33 0 0 1 .09.2v6a.27.27 0 1 1-.54 0v-5.89l-2.85-2.84h-5l-2.84 2.84V382a.27.27 0 1 1-.54 0v-18a.27.27 0 1 1 .54 0zM122.12 373v9a.27.27 0 1 1-.54 0v-2.34L119 382.2a.26.26 0 0 1-.18.07h-5.22a.27.27 0 0 1-.18-.07l-3-3a.3.3 0 0 1-.07-.2v-3a.33.33 0 0 1 .07-.2l3-3a.26.26 0 0 1 .18-.07h5.22a.28.28 0 0 1 .18.07l2.54 2.54V373a.27.27 0 0 1 .54 0zm-3.39.27h-5l-2.85 2.84v2.77l2.85 2.84h5l2.84-2.84v-2.77zM126.41 373a.29.29 0 0 1 .29-.27.26.26 0 0 1 .22.13l5.38 8.64 5.37-8.64a.26.26 0 0 1 .22-.13.29.29 0 0 1 .29.27.24.24 0 0 1 0 .14l-5.62 9a.31.31 0 0 1-.23.13.23.23 0 0 1-.22-.13l-5.6-9a.29.29 0 0 1-.1-.14zM153 376.27h-10.95v2.61l2.85 2.84h5l2.94-2.92a.28.28 0 0 1 .18-.09.29.29 0 0 1 .27.29.26.26 0 0 1-.07.18l-3 3a.27.27 0 0 1-.18.07h-5.22a.26.26 0 0 1-.18-.07l-3-3a.33.33 0 0 1-.07-.2v-3a.33.33 0 0 1 .07-.2l3-3a.28.28 0 0 1 .18-.07H150a.26.26 0 0 1 .18.07l3 3a.23.23 0 0 1 .07.18.27.27 0 0 1-.25.31zm-3.1-3h-5l-2.47 2.47h9.9zM167.7 364v11.34l2.54-2.54a.33.33 0 0 1 .2-.07h5.2a.3.3 0 0 1 .2.07l3 3a.29.29 0 0 1 .09.2v3a.33.33 0 0 1-.09.2l-3 3a.33.33 0 0 1-.2.07h-5.2a.3.3 0 0 1-.2-.07l-2.54-2.54V382a.27.27 0 1 1-.54 0v-18a.27.27 0 1 1 .54 0zm7.83 9.27h-5l-2.84 2.84v2.77l2.84 2.84h5l2.85-2.84v-2.77zM195 376.27h-10.9v2.61l2.85 2.84h5l2.94-2.92a.28.28 0 0 1 .18-.09.29.29 0 0 1 .27.29.26.26 0 0 1-.07.18l-3 3a.27.27 0 0 1-.18.07h-5.22a.26.26 0 0 1-.18-.07l-3-3a.33.33 0 0 1-.07-.2v-3a.33.33 0 0 1 .07-.2l3-3a.28.28 0 0 1 .18-.07H192a.26.26 0 0 1 .18.07l3 3a.23.23 0 0 1 .07.18.27.27 0 0 1-.25.31zm-3.1-3h-5l-2.47 2.47h9.9zM211.39 376.27h-10.91v2.61l2.85 2.84h5l2.94-2.92a.28.28 0 0 1 .18-.09.29.29 0 0 1 .27.29.26.26 0 0 1-.07.18l-3 3a.27.27 0 0 1-.18.07h-5.27a.26.26 0 0 1-.18-.07l-3-3a.33.33 0 0 1-.07-.2v-3a.33.33 0 0 1 .07-.2l3-3a.28.28 0 0 1 .18-.07h5.22a.26.26 0 0 1 .18.07l3 3a.23.23 0 0 1 .07.18.27.27 0 0 1-.28.31zm-3.1-3h-5l-2.47 2.47h9.9zM217.11 373v2.34l2.54-2.54a.26.26 0 0 1 .18-.07H225a.33.33 0 0 1 .2.07l3 3a.3.3 0 0 1 .07.2v6a.27.27 0 1 1-.54 0v-5.89l-2.84-2.84h-5l-2.83 2.84V382a.29.29 0 0 1-.29.27.26.26 0 0 1-.25-.27v-9a.26.26 0 0 1 .25-.27.29.29 0 0 1 .34.27zM242 367.9v-.9a.27.27 0 1 1 .54 0v.9a.27.27 0 1 1-.54 0zm0 14.1v-9a.27.27 0 0 1 .54 0v9a.27.27 0 1 1-.54 0zM248.5 373v2.34l2.5-2.54a.26.26 0 0 1 .18-.07h5.2a.33.33 0 0 1 .2.07l3 3a.3.3 0 0 1 .07.2v6a.27.27 0 1 1-.54 0v-5.89l-2.84-2.84h-5l-2.83 2.84V382a.29.29 0 0 1-.29.27.26.26 0 0 1-.15-.27v-9a.26.26 0 0 1 .25-.27.29.29 0 0 1 .25.27zM268.19 363.72a.29.29 0 0 1 .27.29.26.26 0 0 1-.07.18l-2.92 2.92v5.62h2.72a.27.27 0 1 1 0 .54h-2.72V382a.29.29 0 0 1-.29.27.26.26 0 0 1-.25-.27v-15a.3.3 0 0 1 .07-.2l3-3a.26.26 0 0 1 .19-.08zM283.12 376v3a.3.3 0 0 1-.07.2l-3 3a.27.27 0 0 1-.18.07h-5.22a.26.26 0 0 1-.18-.07l-3-3a.33.33 0 0 1-.07-.2v-3a.3.3 0 0 1 .07-.2l3-3a.28.28 0 0 1 .18-.07h5.22a.26.26 0 0 1 .18.07l3 3a.33.33 0 0 1 .07.2zm-3.39-2.74h-5l-2.85 2.84v2.77l2.85 2.84h5l2.84-2.84v-2.77zM288.72 373v2.34l2.54-2.54a.26.26 0 0 1 .18-.07h3.71a.27.27 0 1 1 0 .54h-3.6l-2.83 2.84V382a.29.29 0 0 1-.29.27.26.26 0 0 1-.25-.27v-9a.26.26 0 0 1 .25-.27.29.29 0 0 1 .29.27zM299.88 382v-9a.26.26 0 0 1 .25-.27.29.29 0 0 1 .29.27v2.39l2.9-2.59a.27.27 0 0 1 .36 0l3.19 2.85 3.19-2.85a.27.27 0 0 1 .36 0l3.37 3a.33.33 0 0 1 .09.22v6a.27.27 0 1 1-.54 0v-5.89l-3.1-2.75-3.1 2.75V382a.27.27 0 1 1-.54 0v-5.89l-3.1-2.75-3.08 2.75V382a.29.29 0 0 1-.29.27.26.26 0 0 1-.25-.27zM330.09 376.27h-10.92v2.61l2.85 2.84h5l2.94-2.92a.28.28 0 0 1 .18-.09.29.29 0 0 1 .27.29.26.26 0 0 1-.07.18l-3 3a.27.27 0 0 1-.18.07h-5.22a.26.26 0 0 1-.18-.07l-3-3a.33.33 0 0 1-.07-.2v-3a.33.33 0 0 1 .07-.2l3-3a.28.28 0 0 1 .18-.07h5.22a.26.26 0 0 1 .18.07l3 3a.23.23 0 0 1 .07.18.27.27 0 0 1-.32.31zm-3.1-3h-5l-2.47 2.47h9.9zM346.76 364v18a.27.27 0 1 1-.54 0v-2.34l-2.54 2.54a.27.27 0 0 1-.18.07h-5.22a.26.26 0 0 1-.18-.07l-3-3a.33.33 0 0 1-.07-.2v-3a.3.3 0 0 1 .07-.2l3-3a.28.28 0 0 1 .18-.07h5.22a.26.26 0 0 1 .18.07l2.54 2.54V364a.27.27 0 1 1 .54 0zm-3.39 9.27h-5l-2.85 2.84v2.77l2.85 2.84h5l2.84-2.84v-2.77zM372.07 373v9a.27.27 0 1 1-.54 0v-2.34L369 382.2a.26.26 0 0 1-.18.07h-5.22a.27.27 0 0 1-.18-.07l-3-3a.3.3 0 0 1-.07-.2v-3a.33.33 0 0 1 .07-.2l3-3a.26.26 0 0 1 .18-.07h5.22a.28.28 0 0 1 .18.07l2.54 2.54V373a.27.27 0 0 1 .54 0zm-3.39.27h-5l-2.85 2.84v2.77l2.85 2.84h5l2.84-2.84v-2.77zM378.06 373v2.34l2.54-2.54a.26.26 0 0 1 .18-.07H386a.33.33 0 0 1 .2.07l3 3a.3.3 0 0 1 .07.2v6a.27.27 0 1 1-.54 0v-5.89l-2.84-2.84h-5l-2.83 2.84V382a.29.29 0 0 1-.29.27.26.26 0 0 1-.25-.27v-9a.26.26 0 0 1 .25-.27.29.29 0 0 1 .29.27zM405.76 364v18a.27.27 0 1 1-.54 0v-2.34l-2.54 2.54a.27.27 0 0 1-.18.07h-5.22a.26.26 0 0 1-.18-.07l-3-3a.33.33 0 0 1-.07-.2v-3a.3.3 0 0 1 .07-.2l3-3a.28.28 0 0 1 .18-.07h5.22a.26.26 0 0 1 .18.07l2.54 2.54V364a.27.27 0 1 1 .54 0zm-3.39 9.27h-5l-2.85 2.84v2.77l2.85 2.84h5l2.84-2.84v-2.77zM431.06 373v9a.27.27 0 1 1-.54 0v-2.34L428 382.2a.26.26 0 0 1-.18.07h-5.22a.27.27 0 0 1-.18-.07l-3-3a.3.3 0 0 1-.07-.2v-3a.33.33 0 0 1 .07-.2l3-3a.26.26 0 0 1 .18-.07h5.22a.28.28 0 0 1 .18.07l2.54 2.54V373a.27.27 0 0 1 .54 0zm-3.39.27h-5l-2.85 2.84v2.77l2.85 2.84h5l2.84-2.84v-2.77zM437.06 373v2.34l2.54-2.54a.26.26 0 0 1 .18-.07h3.71a.27.27 0 1 1 0 .54h-3.6l-2.83 2.84V382a.29.29 0 0 1-.29.27.26.26 0 0 1-.25-.27v-9a.26.26 0 0 1 .25-.27.29.29 0 0 1 .29.27zM458.36 376.27h-10.91v2.61l2.85 2.84h5l2.94-2.92a.28.28 0 0 1 .18-.09.29.29 0 0 1 .27.29.26.26 0 0 1-.07.18l-3 3a.27.27 0 0 1-.18.07h-5.22a.26.26 0 0 1-.18-.07l-3-3a.33.33 0 0 1-.07-.2v-3a.33.33 0 0 1 .07-.2l3-3a.28.28 0 0 1 .18-.07h5.22a.26.26 0 0 1 .18.07l3 3a.23.23 0 0 1 .07.18.27.27 0 0 1-.33.31zm-3.1-3h-5l-2.47 2.47h9.9zM472.53 382v-18a.27.27 0 1 1 .54 0v18a.27.27 0 1 1-.54 0zM490 376v3a.3.3 0 0 1-.07.2l-3 3a.27.27 0 0 1-.18.07h-5.22a.26.26 0 0 1-.18-.07l-3-3a.33.33 0 0 1-.07-.2v-3a.3.3 0 0 1 .07-.2l3-3a.28.28 0 0 1 .18-.07h5.22a.26.26 0 0 1 .18.07l3 3a.33.33 0 0 1 .07.2zm-3.39-2.74h-5l-2.85 2.84v2.77l2.85 2.84h5l2.84-2.84v-2.77zM506.36 376v3a.3.3 0 0 1-.07.2l-3 3a.27.27 0 0 1-.18.07h-5.22a.26.26 0 0 1-.18-.07l-3-3a.33.33 0 0 1-.07-.2v-3a.3.3 0 0 1 .07-.2l3-3a.28.28 0 0 1 .18-.07h5.22a.26.26 0 0 1 .18.07l3 3a.33.33 0 0 1 .07.2zm-3.36-2.73h-5l-2.85 2.84v2.77l2.85 2.84h5l2.84-2.84v-2.77zM523.07 372.73a.27.27 0 0 1 .09.52l-10.57 4.25 10.57 4.25a.27.27 0 0 1-.09.52.22.22 0 0 1-.11 0l-10.84-4.36V382a.27.27 0 1 1-.54 0v-18a.27.27 0 1 1 .54 0v13.1l10.88-4.35a.23.23 0 0 1 .07-.02zM527.84 367.9v-.9a.27.27 0 1 1 .54 0v.9a.27.27 0 1 1-.54 0zm0 14.1v-9a.27.27 0 0 1 .54 0v9a.27.27 0 1 1-.54 0zM534.38 373v2.34l2.54-2.54a.26.26 0 0 1 .18-.07h5.2a.33.33 0 0 1 .2.07l3 3a.3.3 0 0 1 .07.2v6a.27.27 0 1 1-.54 0v-5.89l-2.84-2.84h-5l-2.83 2.84V382a.29.29 0 0 1-.29.27.26.26 0 0 1-.25-.27v-9a.26.26 0 0 1 .25-.27.29.29 0 0 1 .31.27zM562.08 373v15a.33.33 0 0 1-.07.2l-3 3a.26.26 0 0 1-.18.07h-5.23a.28.28 0 0 1-.18-.07l-3-3a.26.26 0 0 1-.07-.18.29.29 0 0 1 .27-.29.29.29 0 0 1 .18.09l2.94 2.92h5l2.84-2.84v-8.23L559 382.2a.27.27 0 0 1-.18.07h-5.22a.26.26 0 0 1-.18-.07l-3-3a.33.33 0 0 1-.07-.2v-3a.3.3 0 0 1 .07-.2l3-3a.28.28 0 0 1 .18-.07h5.22a.26.26 0 0 1 .18.07l2.54 2.54V373a.27.27 0 0 1 .54 0zm-3.39.27h-5l-2.85 2.84v2.77l2.85 2.84h5l2.84-2.84v-2.77zM576.06 367.9v-.9a.27.27 0 1 1 .54 0v.9a.27.27 0 1 1-.54 0zm0 14.1v-9a.27.27 0 0 1 .54 0v9a.27.27 0 1 1-.54 0zM582.61 373v2.34l2.54-2.54a.26.26 0 0 1 .18-.07h5.2a.33.33 0 0 1 .2.07l3 3a.3.3 0 0 1 .07.2v6a.27.27 0 1 1-.54 0v-5.89l-2.84-2.84h-5l-2.83 2.84V382a.29.29 0 0 1-.29.27.26.26 0 0 1-.25-.27v-9a.26.26 0 0 1 .25-.27.29.29 0 0 1 .31.27zM600.71 364v8.73h3.08a.27.27 0 1 1 0 .54h-3.08V382a.27.27 0 1 1-.54 0v-8.73h-3.08a.27.27 0 1 1 0-.54h3.08V364a.27.27 0 1 1 .54 0zM618.78 376v3a.3.3 0 0 1-.07.2l-3 3a.27.27 0 0 1-.18.07h-5.23a.26.26 0 0 1-.18-.07l-3-3a.33.33 0 0 1-.07-.2v-3a.3.3 0 0 1 .07-.2l3-3a.28.28 0 0 1 .18-.07h5.22a.26.26 0 0 1 .18.07l3 3a.33.33 0 0 1 .08.2zm-3.39-2.74h-5l-2.85 2.84v2.77l2.85 2.84h5l2.84-2.84v-2.77zM632.44 367.9v-.9a.27.27 0 1 1 .54 0v.9a.27.27 0 1 1-.54 0zm0 14.1v-9a.27.27 0 0 1 .54 0v9a.27.27 0 1 1-.54 0zM641.19 364v8.73h3.08a.27.27 0 1 1 0 .54h-3.08V382a.27.27 0 1 1-.54 0v-8.73h-3.08a.27.27 0 1 1 0-.54h3.08V364a.27.27 0 1 1 .54 0zM647.81 382v-.9a.27.27 0 0 1 .54 0v.9a.27.27 0 1 1-.54 0z"/></g></svg>