<svg xmlns="http://www.w3.org/2000/svg" viewBox="0 0 762.25 206"><defs><style>.cls-2{fill:#e6ffd7}.cls-3,.cls-9{fill:none}.cls-3{stroke:#1a171b;stroke-width:.5px}.cls-4{stroke:#000}.cls-4,.cls-9{stroke-miterlimit:10;stroke-width:2px}.cls-7{fill:#60eb00}.cls-9{stroke:#60eb00}.cls-10{fill:#1a171b}</style></defs><g style="isolation:isolate"><path class="cls-2" d="M-.26-.09h762v206h-762z" id="Background"/><g id="Lines"><path class="cls-3" d="M79.33 142.21h672.43M79.33 86.23h672.43M79.33 28.91h672.43M79.33 198.19h672.43"/><path class="cls-2" d="M429.4 152h78.17v14.5H429.4zM220.49 152h72.92v14.5h-72.92zM350.4 56.67h63.79v14.5H350.4zM222.9 56.67h63.79v14.5H222.9zM526.74 152h78.17v14.5h-78.17z"/></g><g id="Type_New2"><path class="cls-4" d="M194.86 31.55v110.81a4.92 4.92 0 0 1-4.88 4.88 5 5 0 0 1-5-4.88v-96l-32.45 43.58a5.16 5.16 0 0 1-4.1 1.88 4.71 4.71 0 0 1-3.88-1.88l-32.47-43.55v96a5 5 0 0 1-5 4.88 4.92 4.92 0 0 1-4.88-4.88V31.55a5 5 0 0 1 4.88-5 5.39 5.39 0 0 1 4 2l37.45 50.2L186 28.55a5.21 5.21 0 0 1 4-2 5 5 0 0 1 4.86 5z"/><path d="M416.71 84.51l9.75 9.75v-4.87l8.64-4.88v55.4l-8.64 4.87v-14.72l-9.75 9.86-8.64 4.87h-32.14l-18.4-18.39v-18.5l18.39-18.5 8.64-4.88zm9.75 41.89v-18.5l-18.39-18.5H379.7l-13.52 13.52v18.5l18.39 18.51h28.37z" stroke-width="4" stroke-miterlimit="10" stroke="#000"/><path class="cls-4" d="M484.41 31.55A5.07 5.07 0 0 1 483 35l-17.09 17v30h13.52a5.11 5.11 0 0 1 5 5 5 5 0 0 1-5 4.88h-13.52v50.53a5 5 0 0 1-5 4.88 4.92 4.92 0 0 1-4.88-4.88V50.05a5.23 5.23 0 0 1 1.44-3.55L476 28.11a5.13 5.13 0 0 1 3.55-1.44 4.92 4.92 0 0 1 4.86 4.88zM499.3 26.56h10v120.78h-10zM605.35 105.46v18.39a5.23 5.23 0 0 1-1.44 3.55l-18.51 18.39a5.14 5.14 0 0 1-3.43 1.44h-32.13a5 5 0 0 1-3.44-1.44l-18.5-18.39a5.43 5.43 0 0 1-1.44-3.55v-18.39a5.22 5.22 0 0 1 1.44-3.55l18.5-18.39a5.24 5.24 0 0 1 3.44-1.52l32.13.11a5 5 0 0 1 3.43 1.44l18.51 18.39a5.43 5.43 0 0 1 1.44 3.52zm-25.49-13.63h-27.92l-15.62 15.62v14.41l15.62 15.62h27.92l15.62-15.62v-14.41zM630.73 87v6.54l10.08-10a5.12 5.12 0 0 1 3.44-1.54h32a5.52 5.52 0 0 1 3.55 1.55l18.39 18.39a5.22 5.22 0 0 1 1.44 3.55v18.39a5.43 5.43 0 0 1-1.44 3.55l-18.39 18.39a5.22 5.22 0 0 1-3.55 1.44h-32a5.14 5.14 0 0 1-3.44-1.44l-10.08-10v60.94a5.11 5.11 0 0 1-5 5 5 5 0 0 1-4.87-5V87a4.92 4.92 0 0 1 4.88-4.88 5 5 0 0 1 4.99 4.88zm15.62 50.53l27.92-.11 15.51-15.51v-14.46l-15.5-15.62h-27.93l-15.62 15.62v14.41z"/><path d="M308.64 80.71h13.71V34.06c0-1 1.84-4.38 4-7.26 1.73-2.3 3.23-3.69 3.8-3.69.12 0 .23.12.23.35v57.25h21.2c.23 0 .23.12.23.35 0 2.42-6.57 10.94-7.83 10.94h-13.56v46.66c0 1-1.84 4.38-4 7.26-1.73 2.3-3.23 3.69-3.8 3.69-.12 0-.23-.11-.23-.34V92h-21.2c-.23 0-.23-.12-.23-.35-.04-2.41 6.42-10.94 7.68-10.94z" stroke-miterlimit="10" stroke="#000"/><path d="M295 106.3h-70.33v15.38l18.77 18.88h17l18.77-18.88H295v3.39L276.23 144h-48.62l-18.77-18.88v-22.21L227.61 84h48.62L295 102.91zm-34.6-18.88h-17l-15.38 15.49h47.72z"/></g><g id="Areas"><circle class="cls-7" cx="460.99" cy="142.29" r="5.95"/><circle class="cls-7" cx="479.48" cy="86.92" r="5.95"/><circle class="cls-7" cx="479.48" cy="31.58" r="5.95"/><path class="cls-7" d="M498.28 136.33h12v12h-12zM498.28 24.67h12v12h-12zM424.4 148.25l.03-5.01 12.68-7.16v5l-12.71 7.17zM424.4 89.41l.03-5.01 12.68-7.17v5.01l-12.71 7.17zM530.7 80.89h70.56a5.06 5.06 0 0 1 5 5 5.17 5.17 0 0 1-3.74 4.92l-17 4.58 17.13 4.69a5.2 5.2 0 0 1 3.74 4.92v19a5.33 5.33 0 0 1-3.74 4.92l-17.13 4.69 17 4.58a5.29 5.29 0 0 1 3.74 5.15 4.85 4.85 0 0 1-5 4.81H530.7a5.06 5.06 0 0 1-5-5 5.17 5.17 0 0 1 3.74-4.92l17-4.58-17.1-4.65a5.2 5.2 0 0 1-3.74-4.92v-19a5.33 5.33 0 0 1 3.74-4.92l17.13-4.69-17-4.58a5.29 5.29 0 0 1-3.74-5.15 4.85 4.85 0 0 1 4.97-4.85zm65.57 39.27v-11.22L566 100.7l-30.29 8.24v11.22l30.29 8.25zM243.49 140.53h16.88v3.44h-16.88zM208.8 106.29h15.89v15.33H208.8z"/><path class="cls-9" d="M309.99 76.87l-12.5 18M354.86 78.12l-12.5 18M331.74 19.67l-12.5 18M333.36 135.75l-12.5 18"/></g><g id="Names"><path class="cls-2" d="M95.4 150.08h108.67v18.67H95.4z"/><path class="cls-3" d="M102.66 161.37h91.68"/><path class="cls-10" d="M106.08 163.77a.25.25 0 0 0-.08-.35l-3.23-2.05 3.23-2.05a.25.25 0 1 0-.27-.42l-3.56 2.27a.25.25 0 0 0 0 .42l3.56 2.27a.25.25 0 0 0 .35-.08zM190.92 163.77a.25.25 0 0 1 .08-.35l3.23-2.05-3.23-2.06a.25.25 0 1 1 .27-.42l3.56 2.27a.25.25 0 0 1 0 .42l-3.56 2.27a.25.25 0 0 1-.35-.08z"/><path class="cls-2" d="M117.35 149.67h62.29v16h-62.29z"/><path d="M15.25 191.48a3 3 0 0 1 .69.67v-3.43H17v9.36h-1v-.95a2.47 2.47 0 0 1-.94.91 2.68 2.68 0 0 1-1.25.28 2.52 2.52 0 0 1-2-1 3.75 3.75 0 0 1-.83-2.54 4.4 4.4 0 0 1 .76-2.57 2.47 2.47 0 0 1 2.16-1.09 2.4 2.4 0 0 1 1.35.36zm-2.55 5.1a1.61 1.61 0 0 0 1.48.74 1.55 1.55 0 0 0 1.3-.68 3.24 3.24 0 0 0 .51-2 2.91 2.91 0 0 0-.52-1.91 1.63 1.63 0 0 0-1.29-.62 1.7 1.7 0 0 0-1.39.66 3 3 0 0 0-.53 1.94 3.38 3.38 0 0 0 .44 1.87zM23.14 191.46a2.58 2.58 0 0 1 1 .88 3.05 3.05 0 0 1 .45 1.2 7.89 7.89 0 0 1 .1 1.5h-4.92a2.94 2.94 0 0 0 .48 1.67 1.62 1.62 0 0 0 1.4.63 1.81 1.81 0 0 0 1.42-.59 2 2 0 0 0 .42-.8h1.12a2.37 2.37 0 0 1-.29.83 3 3 0 0 1-.56.75 2.63 2.63 0 0 1-1.28.69 3.88 3.88 0 0 1-.93.1 2.83 2.83 0 0 1-2.14-.92 3.6 3.6 0 0 1-.88-2.59 3.92 3.92 0 0 1 .88-2.66 2.91 2.91 0 0 1 2.31-1 3.07 3.07 0 0 1 1.42.31zm.41 2.67a3 3 0 0 0-.32-1.19 1.64 1.64 0 0 0-1.55-.83 1.72 1.72 0 0 0-1.31.57 2.16 2.16 0 0 0-.56 1.44zM27 195.94a1.64 1.64 0 0 0 .29.88 1.85 1.85 0 0 0 1.53.55 2.3 2.3 0 0 0 1.14-.28.91.91 0 0 0 .49-.85.73.73 0 0 0-.39-.67 4.73 4.73 0 0 0-1-.32l-.92-.23a4.56 4.56 0 0 1-1.3-.48 1.44 1.44 0 0 1-.75-1.28 2 2 0 0 1 .7-1.56 2.83 2.83 0 0 1 1.89-.6 2.64 2.64 0 0 1 2.32.9 1.94 1.94 0 0 1 .42 1.23h-1.1a1.29 1.29 0 0 0-.28-.7 1.81 1.81 0 0 0-1.4-.45 1.7 1.7 0 0 0-1 .25.77.77 0 0 0-.34.65.8.8 0 0 0 .45.71 2.71 2.71 0 0 0 .76.28l.77.18a6.06 6.06 0 0 1 1.68.58 1.53 1.53 0 0 1 .67 1.38 2.08 2.08 0 0 1-.7 1.57 3 3 0 0 1-2.12.66 2.87 2.87 0 0 1-2.18-.69 2.59 2.59 0 0 1-.68-1.7zM37.55 191.63a2.68 2.68 0 0 1 .87 1.92H37.3a2.06 2.06 0 0 0-.46-1 1.46 1.46 0 0 0-1.16-.42 1.6 1.6 0 0 0-1.56 1.06 4.23 4.23 0 0 0-.3 1.71 3.21 3.21 0 0 0 .43 1.72 1.68 1.68 0 0 0 2.48.26 2.37 2.37 0 0 0 .57-1.19h1.11a2.69 2.69 0 0 1-2.9 2.6 2.6 2.6 0 0 1-2.13-1 3.73 3.73 0 0 1-.79-2.43 4.1 4.1 0 0 1 .87-2.79 2.81 2.81 0 0 1 2.22-1 3 3 0 0 1 1.87.56zM44 191.46a2.58 2.58 0 0 1 1 .88 3.05 3.05 0 0 1 .45 1.2 7.89 7.89 0 0 1 .1 1.5h-4.96a2.94 2.94 0 0 0 .48 1.67 1.62 1.62 0 0 0 1.4.63 1.81 1.81 0 0 0 1.42-.59 2 2 0 0 0 .42-.8h1.12a2.37 2.37 0 0 1-.29.83 3 3 0 0 1-.56.75 2.63 2.63 0 0 1-1.28.69 3.88 3.88 0 0 1-.93.1 2.83 2.83 0 0 1-2.14-.92 3.6 3.6 0 0 1-.88-2.59 3.92 3.92 0 0 1 .88-2.66 2.91 2.91 0 0 1 2.31-1 3.07 3.07 0 0 1 1.46.31zm.41 2.67a3 3 0 0 0-.32-1.19 1.64 1.64 0 0 0-1.55-.83 1.72 1.72 0 0 0-1.31.57 2.16 2.16 0 0 0-.56 1.44zM47.18 191.27h1.09v1a3.05 3.05 0 0 1 1-.86 2.72 2.72 0 0 1 1.2-.26 2 2 0 0 1 2 1 3.58 3.58 0 0 1 .28 1.58v4.36h-1.19v-4.29a2.32 2.32 0 0 0-.18-1 1.12 1.12 0 0 0-1.1-.63 2.26 2.26 0 0 0-.67.08 1.71 1.71 0 0 0-.83.56 1.68 1.68 0 0 0-.37.7 4.64 4.64 0 0 0-.09 1v3.56h-1.14zM58.34 191.48a3 3 0 0 1 .69.67v-3.43h1.1v9.36h-1v-.95a2.47 2.47 0 0 1-.94.91 2.68 2.68 0 0 1-1.25.28 2.52 2.52 0 0 1-2-1 3.75 3.75 0 0 1-.83-2.54 4.4 4.4 0 0 1 .76-2.57 2.47 2.47 0 0 1 2.13-1.06 2.4 2.4 0 0 1 1.34.33zm-2.55 5.1a1.61 1.61 0 0 0 1.48.74 1.55 1.55 0 0 0 1.3-.68 3.24 3.24 0 0 0 .51-2 2.91 2.91 0 0 0-.52-1.91 1.63 1.63 0 0 0-1.29-.62 1.7 1.7 0 0 0-1.39.66 3 3 0 0 0-.53 1.94 3.38 3.38 0 0 0 .44 1.87zM66.23 191.46a2.58 2.58 0 0 1 1 .88 3.05 3.05 0 0 1 .45 1.2 7.89 7.89 0 0 1 .1 1.5h-4.91a2.94 2.94 0 0 0 .48 1.67 1.62 1.62 0 0 0 1.4.63 1.81 1.81 0 0 0 1.42-.59 2 2 0 0 0 .42-.8h1.12a2.37 2.37 0 0 1-.29.83 3 3 0 0 1-.56.75 2.63 2.63 0 0 1-1.28.69 3.88 3.88 0 0 1-.93.1 2.83 2.83 0 0 1-2.14-.92 3.6 3.6 0 0 1-.88-2.59 3.92 3.92 0 0 1 .88-2.66 2.91 2.91 0 0 1 2.31-1 3.07 3.07 0 0 1 1.41.31zm.41 2.67a3 3 0 0 0-.32-1.19 1.64 1.64 0 0 0-1.55-.83 1.72 1.72 0 0 0-1.31.57 2.16 2.16 0 0 0-.56 1.44zM69.48 191.27h1.09v1.17a2.59 2.59 0 0 1 .65-.83 1.7 1.7 0 0 1 1.2-.49h.37v1.21h-.38a1.63 1.63 0 0 0-1.33.55 1.94 1.94 0 0 0-.46 1.28v3.91h-1.14zM23.9 133.76H25v3.38a2.51 2.51 0 0 1 2-1 2.66 2.66 0 0 1 2.07.87 3.71 3.71 0 0 1 .79 2.57 4.4 4.4 0 0 1-.78 2.68 2.55 2.55 0 0 1-2.17 1.07 2.24 2.24 0 0 1-1.31-.37 3.19 3.19 0 0 1-.68-.71v.87H23.9zm4.37 7.83a3.62 3.62 0 0 0 .46-1.94 3.18 3.18 0 0 0-.46-1.78 1.52 1.52 0 0 0-1.36-.7 1.9 1.9 0 0 0-1.37.58 2.59 2.59 0 0 0-.59 1.9 4.19 4.19 0 0 0 .24 1.56 1.67 1.67 0 0 0 1.69 1.12 1.53 1.53 0 0 0 1.38-.74zM35.06 139a.62.62 0 0 0 .53-.33 1 1 0 0 0 .08-.44.93.93 0 0 0-.42-.85 2.22 2.22 0 0 0-1.19-.26 1.5 1.5 0 0 0-1.27.48 1.6 1.6 0 0 0-.27.8h-1.07a2 2 0 0 1 .81-1.75 3.34 3.34 0 0 1 1.82-.49 3.69 3.69 0 0 1 1.95.46 1.55 1.55 0 0 1 .74 1.42V142a.5.5 0 0 0 .07.29.35.35 0 0 0 .31.11h.37v.84l-.41.1h-.38a.94.94 0 0 1-.86-.42 1.62 1.62 0 0 1-.2-.63 2.91 2.91 0 0 1-1 .79 3.11 3.11 0 0 1-1.44.34 2.14 2.14 0 0 1-1.55-.57 1.9 1.9 0 0 1-.6-1.44 1.85 1.85 0 0 1 .59-1.46 2.81 2.81 0 0 1 1.55-.64zm-2.41 3.09a1.35 1.35 0 0 0 .86.29 2.61 2.61 0 0 0 1.17-.28 1.57 1.57 0 0 0 1-1.51v-.92a2 2 0 0 1-.54.22 4.53 4.53 0 0 1-.65.13l-.69.09a2.68 2.68 0 0 0-.93.26 1 1 0 0 0-.53 1 .94.94 0 0 0 .31.72zM39.52 141a1.64 1.64 0 0 0 .29.88 1.85 1.85 0 0 0 1.53.55 2.3 2.3 0 0 0 1.14-.28.91.91 0 0 0 .49-.85.73.73 0 0 0-.39-.67 4.73 4.73 0 0 0-1-.32l-.92-.23a4.56 4.56 0 0 1-1.3-.48 1.44 1.44 0 0 1-.75-1.28 2 2 0 0 1 .7-1.56 2.83 2.83 0 0 1 1.89-.6 2.64 2.64 0 0 1 2.25.9 1.94 1.94 0 0 1 .42 1.23H42.8a1.29 1.29 0 0 0-.28-.7 1.81 1.81 0 0 0-1.4-.45 1.7 1.7 0 0 0-1 .25.77.77 0 0 0-.34.65.8.8 0 0 0 .45.71 2.71 2.71 0 0 0 .77.25l.77.18a6.06 6.06 0 0 1 1.68.58 1.53 1.53 0 0 1 .67 1.38 2.08 2.08 0 0 1-.7 1.57 3 3 0 0 1-2.12.66 2.87 2.87 0 0 1-2.18-.69 2.59 2.59 0 0 1-.68-1.7zM49.73 136.51a2.58 2.58 0 0 1 1 .88 3.05 3.05 0 0 1 .45 1.2 7.89 7.89 0 0 1 .1 1.5h-4.91a2.94 2.94 0 0 0 .48 1.67 1.62 1.62 0 0 0 1.4.63 1.81 1.81 0 0 0 1.42-.59 2 2 0 0 0 .42-.8h1.12a2.37 2.37 0 0 1-.29.83 3 3 0 0 1-.56.75 2.63 2.63 0 0 1-1.28.69 3.88 3.88 0 0 1-.93.1 2.83 2.83 0 0 1-2.14-.92 3.6 3.6 0 0 1-.88-2.59 3.92 3.92 0 0 1 .88-2.66 2.91 2.91 0 0 1 2.31-1 3.07 3.07 0 0 1 1.41.31zm.41 2.67a3 3 0 0 0-.32-1.19 1.64 1.64 0 0 0-1.55-.83 1.72 1.72 0 0 0-1.31.57 2.16 2.16 0 0 0-.56 1.44zM53 133.8h1.14v9.32H53zM56 133.8h1.16v1.29H56zm0 2.56h1.16v6.77H56zM59.13 136.32h1.09v1a3.05 3.05 0 0 1 1-.86 2.72 2.72 0 0 1 1.2-.26 2 2 0 0 1 2 1 3.58 3.58 0 0 1 .28 1.58v4.36h-1.19v-4.29a2.32 2.32 0 0 0-.18-1 1.12 1.12 0 0 0-1.1-.63 2.26 2.26 0 0 0-.67.08 1.71 1.71 0 0 0-.83.56 1.68 1.68 0 0 0-.37.7 4.64 4.64 0 0 0-.09 1v3.56h-1.14zM70.75 136.51a2.58 2.58 0 0 1 1 .88 3.05 3.05 0 0 1 .45 1.2 7.89 7.89 0 0 1 .1 1.5h-4.91a2.94 2.94 0 0 0 .48 1.67 1.62 1.62 0 0 0 1.4.63 1.81 1.81 0 0 0 1.42-.59 2 2 0 0 0 .42-.8h1.12a2.37 2.37 0 0 1-.29.83 3 3 0 0 1-.56.75 2.63 2.63 0 0 1-1.28.69 3.88 3.88 0 0 1-.93.1 2.83 2.83 0 0 1-2.14-.92 3.6 3.6 0 0 1-.88-2.59 3.92 3.92 0 0 1 .88-2.66 2.91 2.91 0 0 1 2.31-1 3.07 3.07 0 0 1 1.41.31zm.41 2.67a3 3 0 0 0-.32-1.19 1.64 1.64 0 0 0-1.55-.83 1.72 1.72 0 0 0-1.31.57 2.16 2.16 0 0 0-.56 1.44zM122 157.93v4.51a2 2 0 0 0 .16.85 1.12 1.12 0 0 0 1.11.61 1.56 1.56 0 0 0 1.58-1.07 4.34 4.34 0 0 0 .23-1.57v-3.34h1.14v6.8h-1.08v-1a2.3 2.3 0 0 1-.54.65 2.36 2.36 0 0 1-1.56.53 2 2 0 0 1-1.94-1 2.94 2.94 0 0 1-.28-1.39v-4.62zM128.33 157.93h1.09v1a3.05 3.05 0 0 1 1-.86 2.72 2.72 0 0 1 1.2-.26 2 2 0 0 1 2 1 3.58 3.58 0 0 1 .28 1.58v4.36h-1.16v-4.29a2.32 2.32 0 0 0-.18-1 1.12 1.12 0 0 0-1.1-.63 2.26 2.26 0 0 0-.67.08 1.71 1.71 0 0 0-.83.56 1.68 1.68 0 0 0-.37.7 4.64 4.64 0 0 0-.09 1v3.56h-1.14zM135.75 155.41h1.16v1.29h-1.16zm0 2.56h1.16v6.77h-1.16zM139.06 156h1.16v1.9h1.09v.93h-1.09v4.44a.48.48 0 0 0 .24.48 1 1 0 0 0 .44.07h.4v.91a2.51 2.51 0 0 1-.41.08h-.46a1.24 1.24 0 0 1-1.09-.41 1.82 1.82 0 0 1-.29-1.06v-4.5h-.92v-.93h.92zM147 157.93l1.31 5.36 1.33-5.36h1.28l1.33 5.33 1.39-5.33h1.14l-2 6.8h-1.18l-1.38-5.26-1.34 5.26h-1.19l-2-6.8zM156 155.41h1.16v1.29H156zm0 2.56h1.16v6.77H156zM162.85 158.14a3 3 0 0 1 .69.67v-3.43h1.1v9.36h-1v-.95a2.47 2.47 0 0 1-.94.91 2.68 2.68 0 0 1-1.25.28 2.52 2.52 0 0 1-2-1 3.75 3.75 0 0 1-.83-2.54 4.4 4.4 0 0 1 .76-2.57 2.47 2.47 0 0 1 2.16-1.09 2.4 2.4 0 0 1 1.31.36zm-2.55 5.1a1.61 1.61 0 0 0 1.48.74 1.55 1.55 0 0 0 1.3-.68 3.24 3.24 0 0 0 .51-2 2.91 2.91 0 0 0-.52-1.91 1.63 1.63 0 0 0-1.29-.62 1.7 1.7 0 0 0-1.39.66 3 3 0 0 0-.53 1.94 3.38 3.38 0 0 0 .44 1.87zM166.77 156h1.16v1.9H169v.93h-1.09v4.44a.48.48 0 0 0 .24.48 1 1 0 0 0 .44.07h.4v.91a2.51 2.51 0 0 1-.41.08h-.46a1.24 1.24 0 0 1-1.09-.41 1.82 1.82 0 0 1-.29-1.06v-4.5h-.92v-.93h.92zM170.35 155.37h1.14v3.48a3.3 3.3 0 0 1 .73-.72 2.46 2.46 0 0 1 1.38-.36 2 2 0 0 1 2 1 3.53 3.53 0 0 1 .29 1.57v4.36h-1.17v-4.29a2.39 2.39 0 0 0-.19-1.1 1.22 1.22 0 0 0-1.17-.56 2 2 0 0 0-1.29.49 2.35 2.35 0 0 0-.58 1.85v3.61h-1.14zM298.55 158h1.12v.9a2.77 2.77 0 0 1 .75-.72 2.42 2.42 0 0 1 1.36-.38 2.57 2.57 0 0 1 2 .88 3.62 3.62 0 0 1 .81 2.53 3.88 3.88 0 0 1-1.17 3.17 2.64 2.64 0 0 1-1.72.6 2.35 2.35 0 0 1-1.29-.34 3 3 0 0 1-.68-.65v3.47h-1.14zm4.3 5.33a3.18 3.18 0 0 0 .53-2 3.72 3.72 0 0 0-.24-1.4 1.73 1.73 0 0 0-3.26.06 4.69 4.69 0 0 0-.24 1.61 3.4 3.4 0 0 0 .24 1.34 1.73 1.73 0 0 0 3 .38zM310.27 158.12a2.58 2.58 0 0 1 1 .88 3.05 3.05 0 0 1 .45 1.2 7.89 7.89 0 0 1 .1 1.5h-4.94a2.94 2.94 0 0 0 .48 1.67 1.62 1.62 0 0 0 1.4.63 1.81 1.81 0 0 0 1.42-.59 2 2 0 0 0 .42-.8h1.12a2.37 2.37 0 0 1-.29.83 3 3 0 0 1-.56.75 2.63 2.63 0 0 1-1.28.69 3.88 3.88 0 0 1-.93.1 2.83 2.83 0 0 1-2.14-.92 3.6 3.6 0 0 1-.88-2.59 3.92 3.92 0 0 1 .88-2.66 2.91 2.91 0 0 1 2.31-1 3.07 3.07 0 0 1 1.44.31zm.41 2.67a3 3 0 0 0-.32-1.19 1.64 1.64 0 0 0-1.55-.83 1.72 1.72 0 0 0-1.31.57 2.16 2.16 0 0 0-.56 1.44zM313.5 157.93h1.09v1a3.05 3.05 0 0 1 1-.86 2.72 2.72 0 0 1 1.2-.26 2 2 0 0 1 2 1 3.58 3.58 0 0 1 .28 1.58v4.36h-1.16v-4.29a2.32 2.32 0 0 0-.18-1 1.12 1.12 0 0 0-1.1-.63 2.26 2.26 0 0 0-.67.08 1.71 1.71 0 0 0-.83.56 1.68 1.68 0 0 0-.37.7 4.64 4.64 0 0 0-.09 1v3.56h-1.17zM328.37 160.62a.62.62 0 0 0 .53-.33 1 1 0 0 0 .08-.44.93.93 0 0 0-.42-.85 2.22 2.22 0 0 0-1.19-.26 1.5 1.5 0 0 0-1.27.48 1.6 1.6 0 0 0-.27.8h-1.07a2 2 0 0 1 .81-1.75 3.34 3.34 0 0 1 1.82-.49 3.69 3.69 0 0 1 1.95.46 1.55 1.55 0 0 1 .74 1.42v3.92a.5.5 0 0 0 .07.29.35.35 0 0 0 .31.11h.37v.84l-.41.1h-.38a.94.94 0 0 1-.86-.42 1.62 1.62 0 0 1-.2-.63 2.91 2.91 0 0 1-1 .79 3.11 3.11 0 0 1-1.44.34 2.14 2.14 0 0 1-1.55-.57 1.9 1.9 0 0 1-.6-1.44 1.85 1.85 0 0 1 .59-1.46 2.81 2.81 0 0 1 1.55-.64zM326 163.7a1.35 1.35 0 0 0 .86.29 2.61 2.61 0 0 0 1.17-.28 1.57 1.57 0 0 0 1-1.51v-.92a2 2 0 0 1-.54.22 4.53 4.53 0 0 1-.65.13l-.69.09a2.68 2.68 0 0 0-.93.26 1 1 0 0 0-.53 1 .94.94 0 0 0 .31.72zM332.15 157.93h1.09v1a3.05 3.05 0 0 1 1-.86 2.72 2.72 0 0 1 1.2-.26 2 2 0 0 1 2 1 3.58 3.58 0 0 1 .28 1.58v4.36h-1.16v-4.29a2.32 2.32 0 0 0-.18-1 1.12 1.12 0 0 0-1.1-.63 2.26 2.26 0 0 0-.67.08 1.71 1.71 0 0 0-.83.56 1.68 1.68 0 0 0-.37.7 4.64 4.64 0 0 0-.09 1v3.56h-1.14zM343.36 158.21a3.16 3.16 0 0 1 .66.65V158h1.05v6.18a4.58 4.58 0 0 1-.38 2 2.72 2.72 0 0 1-2.68 1.38 3.27 3.27 0 0 1-1.84-.49 1.92 1.92 0 0 1-.84-1.54h1.16a1.3 1.3 0 0 0 .33.71 2.07 2.07 0 0 0 2.92-.55 5.24 5.24 0 0 0 .22-1.95 2.23 2.23 0 0 1-.82.77A2.94 2.94 0 0 1 340 164a3.46 3.46 0 0 1-.83-2.59 3.94 3.94 0 0 1 .83-2.67 2.57 2.57 0 0 1 2-1 2.46 2.46 0 0 1 1.36.47zm.14 1.22a1.66 1.66 0 0 0-1.32-.61 1.63 1.63 0 0 0-1.64 1.13 4.44 4.44 0 0 0-.23 1.58 2.82 2.82 0 0 0 .46 1.75 1.5 1.5 0 0 0 1.25.6 1.75 1.75 0 0 0 1.72-1.11 3.61 3.61 0 0 0 .28-1.47 2.85 2.85 0 0 0-.52-1.87zM347 155.41h1.14v9.32H347zM354.28 158.12a2.58 2.58 0 0 1 1 .88 3.05 3.05 0 0 1 .45 1.2 7.89 7.89 0 0 1 .1 1.5h-4.94a2.94 2.94 0 0 0 .48 1.67 1.62 1.62 0 0 0 1.4.63 1.81 1.81 0 0 0 1.42-.59 2 2 0 0 0 .42-.8h1.12a2.37 2.37 0 0 1-.29.83 3 3 0 0 1-.56.75 2.63 2.63 0 0 1-1.28.69 3.88 3.88 0 0 1-.93.1 2.83 2.83 0 0 1-2.14-.92 3.6 3.6 0 0 1-.88-2.59 3.92 3.92 0 0 1 .88-2.66 2.91 2.91 0 0 1 2.31-1 3.07 3.07 0 0 1 1.44.31zm.41 2.67a3 3 0 0 0-.32-1.19 1.64 1.64 0 0 0-1.55-.83 1.72 1.72 0 0 0-1.31.57 2.16 2.16 0 0 0-.56 1.44zM223.94 64.75h1.12v.9a2.77 2.77 0 0 1 .75-.72 2.42 2.42 0 0 1 1.36-.38 2.57 2.57 0 0 1 2 .88 3.62 3.62 0 0 1 .81 2.53 3.88 3.88 0 0 1-1.17 3.17 2.64 2.64 0 0 1-1.72.6 2.35 2.35 0 0 1-1.29-.34 3 3 0 0 1-.68-.65v3.47h-1.14zm4.3 5.33a3.18 3.18 0 0 0 .53-2 3.72 3.72 0 0 0-.24-1.4 1.73 1.73 0 0 0-3.26.06 4.69 4.69 0 0 0-.24 1.61 3.4 3.4 0 0 0 .24 1.34 1.73 1.73 0 0 0 3 .38zM235.66 64.9a2.58 2.58 0 0 1 1 .88 3.05 3.05 0 0 1 .45 1.2 7.89 7.89 0 0 1 .1 1.5h-4.91a2.94 2.94 0 0 0 .48 1.67 1.62 1.62 0 0 0 1.4.63 1.81 1.81 0 0 0 1.42-.59 2 2 0 0 0 .42-.8h1.12a2.37 2.37 0 0 1-.29.83 3 3 0 0 1-.56.75 2.63 2.63 0 0 1-1.28.69 3.88 3.88 0 0 1-.93.1 2.83 2.83 0 0 1-2.14-.92 3.6 3.6 0 0 1-.88-2.59 3.92 3.92 0 0 1 .88-2.66 2.91 2.91 0 0 1 2.31-1 3.07 3.07 0 0 1 1.41.31zm.41 2.67a3 3 0 0 0-.32-1.19 1.64 1.64 0 0 0-1.55-.83 1.72 1.72 0 0 0-1.31.57 2.16 2.16 0 0 0-.56 1.44zM238.89 64.72H240v1a3.05 3.05 0 0 1 1-.86 2.72 2.72 0 0 1 1.2-.26 2 2 0 0 1 2 1 3.58 3.58 0 0 1 .28 1.58v4.36h-1.16v-4.31a2.32 2.32 0 0 0-.18-1 1.12 1.12 0 0 0-1.1-.63 2.26 2.26 0 0 0-.67.08 1.71 1.71 0 0 0-.83.56 1.68 1.68 0 0 0-.37.7 4.64 4.64 0 0 0-.09 1v3.56h-1.14zM250.65 64.72l1.35 5.35 1.33-5.36h1.28L255.9 70l1.39-5.33h1.14l-2 6.8h-1.19l-1.38-5.26-1.34 5.26h-1.19l-2-6.8zM259.7 62.19h1.16v1.29h-1.16zm0 2.56h1.16v6.77h-1.16zM266.52 64.93a3 3 0 0 1 .69.67v-3.44h1.1v9.36h-1v-.95a2.47 2.47 0 0 1-.94.91 2.68 2.68 0 0 1-1.25.28 2.52 2.52 0 0 1-2-1 3.75 3.75 0 0 1-.83-2.54 4.4 4.4 0 0 1 .76-2.57 2.47 2.47 0 0 1 2.16-1.09 2.4 2.4 0 0 1 1.31.37zM264 70a1.61 1.61 0 0 0 1.48.74 1.55 1.55 0 0 0 1.3-.68 3.24 3.24 0 0 0 .51-2 2.91 2.91 0 0 0-.52-1.91 1.63 1.63 0 0 0-1.29-.62 1.7 1.7 0 0 0-1.39.66 3 3 0 0 0-.53 1.94A3.38 3.38 0 0 0 264 70zM270.44 62.82h1.16v1.9h1.09v.93h-1.09v4.44a.48.48 0 0 0 .24.48 1 1 0 0 0 .44.07h.4v.91a2.51 2.51 0 0 1-.41.08h-.46a1.24 1.24 0 0 1-1.09-.41 1.82 1.82 0 0 1-.29-1.06v-4.5h-.92v-.93h.92zM274 62.16h1.14v3.48a3.3 3.3 0 0 1 .73-.72 2.46 2.46 0 0 1 1.38-.36 2 2 0 0 1 2 1 3.53 3.53 0 0 1 .29 1.57v4.36h-1.17v-4.26a2.39 2.39 0 0 0-.19-1.1 1.22 1.22 0 0 0-1.17-.56 2 2 0 0 0-1.29.49 2.35 2.35 0 0 0-.58 1.85v3.61H274zM534.95 158.21a3.16 3.16 0 0 1 .66.65V158h1.05v6.18a4.58 4.58 0 0 1-.38 2 2.72 2.72 0 0 1-2.68 1.38 3.27 3.27 0 0 1-1.84-.49 1.92 1.92 0 0 1-.84-1.54h1.16a1.3 1.3 0 0 0 .33.71 2.07 2.07 0 0 0 2.92-.55 5.24 5.24 0 0 0 .22-1.95 2.23 2.23 0 0 1-.82.77 2.94 2.94 0 0 1-3.2-.53 3.46 3.46 0 0 1-.83-2.59 3.94 3.94 0 0 1 .83-2.67 2.57 2.57 0 0 1 2-1 2.46 2.46 0 0 1 1.42.49zm.14 1.22a1.66 1.66 0 0 0-1.32-.61 1.63 1.63 0 0 0-1.64 1.13 4.44 4.44 0 0 0-.23 1.58 2.82 2.82 0 0 0 .46 1.75 1.5 1.5 0 0 0 1.25.6 1.75 1.75 0 0 0 1.72-1.11 3.61 3.61 0 0 0 .28-1.47 2.85 2.85 0 0 0-.52-1.87zM538.63 155.41h1.14v9.32h-1.14zM545.93 157.93h1.26q-.24.65-1.07 3-.62 1.75-1 2.86a19.3 19.3 0 0 1-1.4 3.17 1.59 1.59 0 0 1-1.4.57h-.37l-.32-.07v-1l.43.1h.23a.82.82 0 0 0 .47-.1 1 1 0 0 0 .25-.26s.1-.21.23-.52l.29-.7-2.51-7h1.29l1.82 5.54zM548.28 158h1.12v.9a2.77 2.77 0 0 1 .75-.72 2.42 2.42 0 0 1 1.36-.38 2.57 2.57 0 0 1 2 .88 3.62 3.62 0 0 1 .81 2.53 3.88 3.88 0 0 1-1.17 3.17 2.64 2.64 0 0 1-1.72.6 2.35 2.35 0 0 1-1.29-.34 3 3 0 0 1-.68-.65v3.47h-1.14zm4.3 5.33a3.18 3.18 0 0 0 .53-2 3.72 3.72 0 0 0-.24-1.4 1.73 1.73 0 0 0-3.26.06 4.69 4.69 0 0 0-.24 1.61 3.4 3.4 0 0 0 .24 1.34 1.73 1.73 0 0 0 3 .38zM555.8 155.37h1.14v3.48a3.3 3.3 0 0 1 .73-.72 2.46 2.46 0 0 1 1.38-.36 2 2 0 0 1 2 1 3.53 3.53 0 0 1 .29 1.57v4.36h-1.17v-4.29a2.39 2.39 0 0 0-.19-1.1 1.22 1.22 0 0 0-1.17-.56 2 2 0 0 0-1.29.49 2.35 2.35 0 0 0-.58 1.85v3.61h-1.14zM570.67 160.62a.62.62 0 0 0 .53-.33 1 1 0 0 0 .08-.44.93.93 0 0 0-.42-.85 2.22 2.22 0 0 0-1.19-.26 1.5 1.5 0 0 0-1.27.48 1.6 1.6 0 0 0-.27.8h-1.07a2 2 0 0 1 .81-1.75 3.34 3.34 0 0 1 1.82-.49 3.69 3.69 0 0 1 1.95.46 1.55 1.55 0 0 1 .74 1.42v3.92a.5.5 0 0 0 .07.29.35.35 0 0 0 .31.11h.37v.84l-.41.1h-.38a.94.94 0 0 1-.86-.42 1.62 1.62 0 0 1-.2-.63 2.91 2.91 0 0 1-1 .79 3.11 3.11 0 0 1-1.44.34 2.14 2.14 0 0 1-1.55-.57 1.9 1.9 0 0 1-.6-1.44 1.85 1.85 0 0 1 .59-1.46 2.81 2.81 0 0 1 1.55-.64zm-2.41 3.09a1.35 1.35 0 0 0 .86.29 2.61 2.61 0 0 0 1.17-.28 1.57 1.57 0 0 0 1-1.51v-.92a2 2 0 0 1-.54.22 4.53 4.53 0 0 1-.65.13l-.69.09a2.68 2.68 0 0 0-.93.26 1 1 0 0 0-.53 1 .94.94 0 0 0 .32.71zM574.46 157.93h1.09v1a3.05 3.05 0 0 1 1-.86 2.72 2.72 0 0 1 1.2-.26 2 2 0 0 1 2 1 3.58 3.58 0 0 1 .28 1.58v4.36h-1.16v-4.29a2.32 2.32 0 0 0-.18-1 1.12 1.12 0 0 0-1.1-.63 2.26 2.26 0 0 0-.67.08 1.71 1.71 0 0 0-.83.56 1.68 1.68 0 0 0-.37.7 4.64 4.64 0 0 0-.09 1v3.56h-1.14zM585.66 158.21a3.16 3.16 0 0 1 .66.65V158h1.05v6.18a4.58 4.58 0 0 1-.38 2 2.72 2.72 0 0 1-2.68 1.38 3.27 3.27 0 0 1-1.84-.49 1.92 1.92 0 0 1-.84-1.54h1.16a1.3 1.3 0 0 0 .33.71 2.07 2.07 0 0 0 2.92-.55 5.24 5.24 0 0 0 .22-1.95 2.23 2.23 0 0 1-.82.77 2.94 2.94 0 0 1-3.2-.53 3.46 3.46 0 0 1-.83-2.59 3.94 3.94 0 0 1 .83-2.67 2.57 2.57 0 0 1 2-1 2.46 2.46 0 0 1 1.42.49zm.14 1.22a1.66 1.66 0 0 0-1.32-.61 1.63 1.63 0 0 0-1.64 1.13 4.44 4.44 0 0 0-.23 1.58 2.82 2.82 0 0 0 .46 1.75 1.5 1.5 0 0 0 1.25.6 1.75 1.75 0 0 0 1.72-1.11 3.61 3.61 0 0 0 .28-1.47 2.85 2.85 0 0 0-.52-1.87zM589.34 155.41h1.14v9.32h-1.14zM596.59 158.12a2.58 2.58 0 0 1 1 .88 3.05 3.05 0 0 1 .45 1.2 7.89 7.89 0 0 1 .1 1.5h-4.94a2.94 2.94 0 0 0 .48 1.67 1.62 1.62 0 0 0 1.4.63 1.81 1.81 0 0 0 1.42-.59 2 2 0 0 0 .42-.8h1.12a2.37 2.37 0 0 1-.29.83 3 3 0 0 1-.56.75 2.63 2.63 0 0 1-1.28.69 3.88 3.88 0 0 1-.93.1 2.83 2.83 0 0 1-2.14-.92 3.6 3.6 0 0 1-.88-2.59 3.92 3.92 0 0 1 .88-2.66 2.91 2.91 0 0 1 2.31-1 3.07 3.07 0 0 1 1.44.31zm.41 2.67a3 3 0 0 0-.32-1.19 1.64 1.64 0 0 0-1.55-.83 1.72 1.72 0 0 0-1.31.57 2.16 2.16 0 0 0-.56 1.44zM436.06 158h1.12v.9a2.77 2.77 0 0 1 .75-.72 2.42 2.42 0 0 1 1.36-.38 2.57 2.57 0 0 1 2 .88 3.62 3.62 0 0 1 .81 2.53 3.88 3.88 0 0 1-1.17 3.17 2.64 2.64 0 0 1-1.72.6 2.35 2.35 0 0 1-1.29-.34 3 3 0 0 1-.68-.65v3.47h-1.14zm4.3 5.33a3.18 3.18 0 0 0 .53-2 3.72 3.72 0 0 0-.24-1.4 1.73 1.73 0 0 0-3.26.06 4.69 4.69 0 0 0-.24 1.61 3.4 3.4 0 0 0 .24 1.34 1.73 1.73 0 0 0 3 .38zM447.78 158.12a2.58 2.58 0 0 1 1 .88 3.05 3.05 0 0 1 .45 1.2 7.89 7.89 0 0 1 .1 1.5h-4.94a2.94 2.94 0 0 0 .48 1.67 1.62 1.62 0 0 0 1.4.63 1.81 1.81 0 0 0 1.42-.59 2 2 0 0 0 .42-.8h1.12a2.37 2.37 0 0 1-.29.83 3 3 0 0 1-.56.75 2.63 2.63 0 0 1-1.28.69 3.88 3.88 0 0 1-.93.1 2.83 2.83 0 0 1-2.14-.92 3.6 3.6 0 0 1-.88-2.59 3.92 3.92 0 0 1 .88-2.66 2.91 2.91 0 0 1 2.31-1 3.07 3.07 0 0 1 1.44.31zm.41 2.67a3 3 0 0 0-.32-1.19 1.64 1.64 0 0 0-1.55-.83 1.72 1.72 0 0 0-1.31.57 2.16 2.16 0 0 0-.56 1.44zM451 157.93h1.09v1a3.05 3.05 0 0 1 1-.86 2.72 2.72 0 0 1 1.2-.26 2 2 0 0 1 2 1 3.58 3.58 0 0 1 .28 1.58v4.36h-1.16v-4.29a2.32 2.32 0 0 0-.18-1 1.12 1.12 0 0 0-1.1-.63 2.26 2.26 0 0 0-.67.08 1.71 1.71 0 0 0-.83.56 1.68 1.68 0 0 0-.37.7 4.64 4.64 0 0 0-.09 1v3.56H451zM462.92 162.6a1.64 1.64 0 0 0 .29.88 1.85 1.85 0 0 0 1.53.55 2.3 2.3 0 0 0 1.14-.28.91.91 0 0 0 .49-.85.73.73 0 0 0-.39-.67 4.73 4.73 0 0 0-1-.32l-.92-.23a4.56 4.56 0 0 1-1.3-.48 1.44 1.44 0 0 1-.75-1.28 2 2 0 0 1 .7-1.56 2.83 2.83 0 0 1 1.89-.6 2.64 2.64 0 0 1 2.25.9 1.94 1.94 0 0 1 .42 1.23h-1.08a1.29 1.29 0 0 0-.28-.7 1.81 1.81 0 0 0-1.4-.45 1.7 1.7 0 0 0-1 .25.77.77 0 0 0-.34.65.8.8 0 0 0 .45.71 2.71 2.71 0 0 0 .76.28l.77.18a6.06 6.06 0 0 1 1.68.58 1.53 1.53 0 0 1 .67 1.38 2.08 2.08 0 0 1-.7 1.57 3 3 0 0 1-2.12.66 2.87 2.87 0 0 1-2.18-.69 2.59 2.59 0 0 1-.68-1.7zM468.93 155.37h1.14v3.48a3.3 3.3 0 0 1 .73-.72 2.46 2.46 0 0 1 1.38-.36 2 2 0 0 1 2 1 3.53 3.53 0 0 1 .29 1.57v4.36h-1.17v-4.29a2.39 2.39 0 0 0-.19-1.1 1.22 1.22 0 0 0-1.17-.56 2 2 0 0 0-1.29.49 2.35 2.35 0 0 0-.58 1.85v3.61h-1.14zM480 160.62a.62.62 0 0 0 .53-.33 1 1 0 0 0 .08-.44.93.93 0 0 0-.42-.85 2.22 2.22 0 0 0-1.19-.26 1.5 1.5 0 0 0-1.27.48 1.6 1.6 0 0 0-.27.8h-1.06a2 2 0 0 1 .81-1.75 3.34 3.34 0 0 1 1.82-.49 3.69 3.69 0 0 1 1.95.46 1.55 1.55 0 0 1 .74 1.42v3.92a.5.5 0 0 0 .07.29.35.35 0 0 0 .31.11h.37v.84l-.41.1h-.38a.94.94 0 0 1-.86-.42 1.62 1.62 0 0 1-.2-.63 2.91 2.91 0 0 1-1 .79 3.11 3.11 0 0 1-1.44.34 2.14 2.14 0 0 1-1.55-.57 1.9 1.9 0 0 1-.6-1.44 1.85 1.85 0 0 1 .59-1.46 2.81 2.81 0 0 1 1.55-.64zm-2.41 3.09a1.35 1.35 0 0 0 .86.29 2.61 2.61 0 0 0 1.17-.28 1.57 1.57 0 0 0 1-1.51v-.92a2 2 0 0 1-.54.22 4.53 4.53 0 0 1-.65.13l-.69.09a2.68 2.68 0 0 0-.93.26 1 1 0 0 0-.53 1 .94.94 0 0 0 .32.71zM483.69 158h1.12v.9a2.77 2.77 0 0 1 .75-.72 2.42 2.42 0 0 1 1.36-.38 2.57 2.57 0 0 1 2 .88 3.62 3.62 0 0 1 .81 2.53 3.88 3.88 0 0 1-1.17 3.17 2.64 2.64 0 0 1-1.72.6 2.35 2.35 0 0 1-1.29-.34 3 3 0 0 1-.68-.65v3.47h-1.14zm4.3 5.33a3.18 3.18 0 0 0 .53-2 3.72 3.72 0 0 0-.24-1.4 1.73 1.73 0 0 0-3.28.07 4.69 4.69 0 0 0-.24 1.61 3.4 3.4 0 0 0 .24 1.34 1.73 1.73 0 0 0 3 .38zM495.41 158.12a2.58 2.58 0 0 1 1 .88 3.05 3.05 0 0 1 .45 1.2 7.89 7.89 0 0 1 .1 1.5H492a2.94 2.94 0 0 0 .48 1.67 1.62 1.62 0 0 0 1.4.63 1.81 1.81 0 0 0 1.42-.59 2 2 0 0 0 .42-.8h1.12a2.37 2.37 0 0 1-.29.83 3 3 0 0 1-.56.75 2.63 2.63 0 0 1-1.28.69 3.88 3.88 0 0 1-.93.1 2.83 2.83 0 0 1-2.14-.92 3.6 3.6 0 0 1-.88-2.59 3.92 3.92 0 0 1 .88-2.66 2.91 2.91 0 0 1 2.31-1 3.07 3.07 0 0 1 1.46.31zm.41 2.67a3 3 0 0 0-.32-1.19 1.64 1.64 0 0 0-1.55-.83 1.72 1.72 0 0 0-1.31.57 2.16 2.16 0 0 0-.56 1.44zM499.31 162.6a1.64 1.64 0 0 0 .29.88 1.85 1.85 0 0 0 1.53.55 2.3 2.3 0 0 0 1.14-.28.91.91 0 0 0 .49-.85.73.73 0 0 0-.39-.67 4.73 4.73 0 0 0-1-.32l-.92-.23a4.56 4.56 0 0 1-1.3-.48 1.44 1.44 0 0 1-.75-1.28 2 2 0 0 1 .7-1.56 2.83 2.83 0 0 1 1.89-.6 2.64 2.64 0 0 1 2.25.9 1.94 1.94 0 0 1 .42 1.23h-1.08a1.29 1.29 0 0 0-.28-.7 1.81 1.81 0 0 0-1.4-.45 1.7 1.7 0 0 0-1 .25.77.77 0 0 0-.34.65.8.8 0 0 0 .45.71 2.71 2.71 0 0 0 .76.28l.77.18a6.06 6.06 0 0 1 1.68.58 1.53 1.53 0 0 1 .67 1.38 2.08 2.08 0 0 1-.7 1.57 3 3 0 0 1-2.12.66 2.87 2.87 0 0 1-2.18-.69 2.59 2.59 0 0 1-.68-1.7zM224.23 158h1.12v.9a2.77 2.77 0 0 1 .75-.72 2.42 2.42 0 0 1 1.36-.38 2.57 2.57 0 0 1 2 .88 3.62 3.62 0 0 1 .81 2.53 3.88 3.88 0 0 1-1.17 3.17 2.64 2.64 0 0 1-1.72.6 2.35 2.35 0 0 1-1.29-.34 3 3 0 0 1-.68-.65v3.47h-1.14zm4.3 5.33a3.18 3.18 0 0 0 .53-2 3.72 3.72 0 0 0-.24-1.4 1.73 1.73 0 0 0-3.26.06 4.69 4.69 0 0 0-.24 1.61 3.4 3.4 0 0 0 .24 1.34 1.73 1.73 0 0 0 3 .38zM235.95 158.12a2.58 2.58 0 0 1 1 .88 3.05 3.05 0 0 1 .45 1.2 7.89 7.89 0 0 1 .1 1.5h-4.94a2.94 2.94 0 0 0 .48 1.67 1.62 1.62 0 0 0 1.4.63 1.81 1.81 0 0 0 1.42-.59 2 2 0 0 0 .42-.8h1.12a2.37 2.37 0 0 1-.29.83 3 3 0 0 1-.56.75 2.63 2.63 0 0 1-1.28.69 3.88 3.88 0 0 1-.93.1 2.83 2.83 0 0 1-2.14-.92 3.6 3.6 0 0 1-.88-2.59 3.92 3.92 0 0 1 .88-2.66 2.91 2.91 0 0 1 2.31-1 3.07 3.07 0 0 1 1.44.31zm.41 2.67a3 3 0 0 0-.32-1.19 1.64 1.64 0 0 0-1.55-.83 1.72 1.72 0 0 0-1.31.57 2.16 2.16 0 0 0-.56 1.44zM239.17 157.93h1.09v1a3.05 3.05 0 0 1 1-.86 2.72 2.72 0 0 1 1.2-.26 2 2 0 0 1 2 1 3.58 3.58 0 0 1 .28 1.58v4.36h-1.16v-4.29a2.32 2.32 0 0 0-.18-1 1.12 1.12 0 0 0-1.1-.63 2.26 2.26 0 0 0-.67.08 1.71 1.71 0 0 0-.83.56 1.68 1.68 0 0 0-.37.7 4.64 4.64 0 0 0-.09 1v3.56h-1.14zM250.41 155.37h1.14v3.48a3.3 3.3 0 0 1 .73-.72 2.46 2.46 0 0 1 1.38-.36 2 2 0 0 1 2 1 3.53 3.53 0 0 1 .29 1.57v4.36h-1.17v-4.29a2.39 2.39 0 0 0-.19-1.1 1.22 1.22 0 0 0-1.17-.56 2 2 0 0 0-1.29.49 2.35 2.35 0 0 0-.58 1.85v3.61h-1.14zM262 158.12a2.58 2.58 0 0 1 1 .88 3.05 3.05 0 0 1 .45 1.2 7.89 7.89 0 0 1 .1 1.5h-4.94a2.94 2.94 0 0 0 .48 1.67 1.62 1.62 0 0 0 1.4.63 1.81 1.81 0 0 0 1.42-.59 2 2 0 0 0 .42-.8h1.12a2.37 2.37 0 0 1-.29.83 3 3 0 0 1-.56.75 2.63 2.63 0 0 1-1.28.69 3.88 3.88 0 0 1-.93.1 2.83 2.83 0 0 1-2.14-.92 3.6 3.6 0 0 1-.88-2.59 3.92 3.92 0 0 1 .88-2.66 2.91 2.91 0 0 1 2.31-1 3.07 3.07 0 0 1 1.44.31zm.41 2.67a3 3 0 0 0-.32-1.19 1.64 1.64 0 0 0-1.55-.83 1.72 1.72 0 0 0-1.31.57 2.16 2.16 0 0 0-.56 1.44zM265.26 155.41h1.16v1.29h-1.16zm0 2.56h1.16v6.77h-1.16zM272.12 158.21a3.16 3.16 0 0 1 .66.65V158h1.05v6.18a4.58 4.58 0 0 1-.38 2 2.72 2.72 0 0 1-2.68 1.38 3.27 3.27 0 0 1-1.84-.49 1.92 1.92 0 0 1-.84-1.54h1.16a1.3 1.3 0 0 0 .33.71 2.07 2.07 0 0 0 2.92-.55 5.24 5.24 0 0 0 .22-1.95 2.23 2.23 0 0 1-.82.77 2.94 2.94 0 0 1-3.2-.53 3.46 3.46 0 0 1-.83-2.59 3.94 3.94 0 0 1 .83-2.67 2.57 2.57 0 0 1 2-1 2.46 2.46 0 0 1 1.42.49zm.14 1.22a1.66 1.66 0 0 0-1.32-.61 1.63 1.63 0 0 0-1.64 1.18 4.44 4.44 0 0 0-.23 1.58 2.82 2.82 0 0 0 .46 1.75 1.5 1.5 0 0 0 1.25.6 1.75 1.75 0 0 0 1.72-1.11 3.61 3.61 0 0 0 .28-1.47 2.85 2.85 0 0 0-.52-1.92zM275.76 155.37h1.14v3.48a3.3 3.3 0 0 1 .73-.72 2.46 2.46 0 0 1 1.38-.36 2 2 0 0 1 2 1 3.53 3.53 0 0 1 .29 1.57v4.36h-1.17v-4.29a2.39 2.39 0 0 0-.19-1.1 1.22 1.22 0 0 0-1.17-.56 2 2 0 0 0-1.29.49 2.35 2.35 0 0 0-.58 1.85v3.61h-1.14zM283.42 156h1.16v1.9h1.09v.93h-1.09v4.44a.48.48 0 0 0 .24.48 1 1 0 0 0 .44.07h.4v.91a2.51 2.51 0 0 1-.41.08h-.46a1.24 1.24 0 0 1-1.09-.41 1.82 1.82 0 0 1-.29-1.06v-4.5h-.92v-.93h.92zM25.52 79.64H27L28.56 82l1.58-2.39h1.39L29.24 83l2.39 3.48h-1.46l-1.69-2.55-1.64 2.55H25.4L27.79 83zM32.56 82.23h3.19v1.17h-3.19zM37.39 77.08h1.14v3.48a3.3 3.3 0 0 1 .73-.72 2.46 2.46 0 0 1 1.38-.36 2 2 0 0 1 2 1 3.53 3.53 0 0 1 .29 1.57v4.36h-1.18v-4.26a2.39 2.39 0 0 0-.19-1.1 1.22 1.22 0 0 0-1.17-.56 2 2 0 0 0-1.29.49 2.35 2.35 0 0 0-.58 1.85v3.61h-1.13zM49 79.82a2.58 2.58 0 0 1 1 .88 3.05 3.05 0 0 1 .45 1.2 7.89 7.89 0 0 1 .1 1.5h-4.9a2.94 2.94 0 0 0 .48 1.67 1.62 1.62 0 0 0 1.4.63 1.81 1.81 0 0 0 1.47-.6 2 2 0 0 0 .42-.8h1.08a2.37 2.37 0 0 1-.29.83 3 3 0 0 1-.56.75 2.63 2.63 0 0 1-1.28.69 3.88 3.88 0 0 1-.93.1 2.83 2.83 0 0 1-2.14-.92 3.6 3.6 0 0 1-.88-2.59 3.92 3.92 0 0 1 .88-2.66 2.91 2.91 0 0 1 2.31-1 3.07 3.07 0 0 1 1.39.32zm.41 2.67a3 3 0 0 0-.32-1.19 1.64 1.64 0 0 0-1.55-.83 1.72 1.72 0 0 0-1.31.57 2.16 2.16 0 0 0-.56 1.44zM52.24 77.11h1.16v1.29h-1.16zm0 2.56h1.16v6.77h-1.16zM59.1 79.91a3.16 3.16 0 0 1 .66.65v-.86h1.05v6.18a4.58 4.58 0 0 1-.38 2 2.72 2.72 0 0 1-2.68 1.38 3.27 3.27 0 0 1-1.84-.49 1.92 1.92 0 0 1-.84-1.54h1.16a1.3 1.3 0 0 0 .33.71 2.07 2.07 0 0 0 2.92-.55 5.24 5.24 0 0 0 .22-1.95 2.23 2.23 0 0 1-.82.77 2.94 2.94 0 0 1-3.2-.53 3.46 3.46 0 0 1-.83-2.59 3.94 3.94 0 0 1 .83-2.67 2.57 2.57 0 0 1 2-1 2.46 2.46 0 0 1 1.42.49zm.14 1.22a1.66 1.66 0 0 0-1.32-.61 1.63 1.63 0 0 0-1.64 1.13 4.44 4.44 0 0 0-.28 1.59 2.82 2.82 0 0 0 .51 1.76 1.5 1.5 0 0 0 1.25.6 1.75 1.75 0 0 0 1.72-1.11 3.61 3.61 0 0 0 .28-1.49 2.85 2.85 0 0 0-.52-1.87zM62.74 77.08h1.14v3.48a3.3 3.3 0 0 1 .73-.72 2.46 2.46 0 0 1 1.39-.37 2 2 0 0 1 2 1 3.53 3.53 0 0 1 .29 1.57v4.36h-1.18v-4.25a2.39 2.39 0 0 0-.19-1.1 1.22 1.22 0 0 0-1.17-.56 2 2 0 0 0-1.29.49 2.35 2.35 0 0 0-.58 1.85v3.61h-1.14zM70.4 77.74h1.16v1.9h1.09v.93h-1.1V85a.48.48 0 0 0 .24.48 1 1 0 0 0 .44.07h.4v.91a2.51 2.51 0 0 1-.41.08h-.46a1.24 1.24 0 0 1-1.09-.41 1.82 1.82 0 0 1-.29-1.06v-4.5h-.92v-.93h.92zM16.53 22.46a2.68 2.68 0 0 1 .87 1.92h-1.12a2.06 2.06 0 0 0-.46-1 1.46 1.46 0 0 0-1.16-.42A1.6 1.6 0 0 0 13.09 24a4.23 4.23 0 0 0-.3 1.71 3.21 3.21 0 0 0 .43 1.72 1.48 1.48 0 0 0 1.36.7 1.49 1.49 0 0 0 1.13-.43 2.37 2.37 0 0 0 .57-1.19h1.11a3 3 0 0 1-1 2 3 3 0 0 1-1.95.63 2.6 2.6 0 0 1-2.13-1 3.73 3.73 0 0 1-.79-2.43 4.1 4.1 0 0 1 .87-2.79 2.81 2.81 0 0 1 2.22-1 3 3 0 0 1 1.92.54zM22.37 24.78a.62.62 0 0 0 .53-.33A1 1 0 0 0 23 24a.93.93 0 0 0-.42-.85 2.22 2.22 0 0 0-1.19-.26 1.5 1.5 0 0 0-1.27.48 1.6 1.6 0 0 0-.27.8h-1.08a2 2 0 0 1 .81-1.75 3.34 3.34 0 0 1 1.82-.49 3.69 3.69 0 0 1 1.95.46 1.55 1.55 0 0 1 .74 1.42v3.92a.5.5 0 0 0 .07.29.35.35 0 0 0 .31.11h.37v.84l-.41.1h-.38a.94.94 0 0 1-.86-.42A1.62 1.62 0 0 1 23 28a2.91 2.91 0 0 1-1 .79 3.11 3.11 0 0 1-1.44.34 2.14 2.14 0 0 1-1.56-.58 1.9 1.9 0 0 1-.6-1.44 1.85 1.85 0 0 1 .6-1.46 2.81 2.81 0 0 1 1.55-.65zM20 27.87a1.35 1.35 0 0 0 .86.29 2.61 2.61 0 0 0 1.14-.29 1.57 1.57 0 0 0 1-1.51v-.92a2 2 0 0 1-.54.22 4.53 4.53 0 0 1-.65.13l-.69.09a2.68 2.68 0 0 0-.93.26 1 1 0 0 0-.53 1 .94.94 0 0 0 .34.73zM26.06 22.13h1.12V23a2.77 2.77 0 0 1 .75-.72 2.42 2.42 0 0 1 1.36-.38 2.57 2.57 0 0 1 2 .88 3.62 3.62 0 0 1 .81 2.53 3.88 3.88 0 0 1-1.17 3.17 2.64 2.64 0 0 1-1.72.6 2.35 2.35 0 0 1-1.29-.34 3 3 0 0 1-.68-.65v3.47h-1.18zm4.3 5.33a3.18 3.18 0 0 0 .53-2 3.72 3.72 0 0 0-.24-1.4 1.73 1.73 0 0 0-3.26.06 4.69 4.69 0 0 0-.24 1.61 3.4 3.4 0 0 0 .24 1.34 1.73 1.73 0 0 0 3 .38zM37.39 19.54h1.14V23a3.3 3.3 0 0 1 .73-.72 2.46 2.46 0 0 1 1.38-.36 2 2 0 0 1 2 1 3.53 3.53 0 0 1 .29 1.57v4.41h-1.18v-4.29a2.39 2.39 0 0 0-.19-1.1A1.22 1.22 0 0 0 40.4 23a2 2 0 0 0-1.29.49 2.35 2.35 0 0 0-.58 1.85v3.56h-1.14zM49 22.29a2.58 2.58 0 0 1 1 .88 3.05 3.05 0 0 1 .45 1.2 7.89 7.89 0 0 1 .1 1.5h-4.9a2.94 2.94 0 0 0 .48 1.67 1.62 1.62 0 0 0 1.4.63 1.81 1.81 0 0 0 1.47-.61 2 2 0 0 0 .42-.8h1.08a2.37 2.37 0 0 1-.29.83 3 3 0 0 1-.56.75 2.63 2.63 0 0 1-1.28.69 3.88 3.88 0 0 1-.93.1 2.83 2.83 0 0 1-2.14-.92 3.6 3.6 0 0 1-.88-2.59 3.92 3.92 0 0 1 .89-2.62 2.91 2.91 0 0 1 2.31-1 3.07 3.07 0 0 1 1.38.29zm.42 2.71a3 3 0 0 0-.32-1.19 1.64 1.64 0 0 0-1.55-.83 1.72 1.72 0 0 0-1.31.57 2.16 2.16 0 0 0-.57 1.45zM52.24 19.57h1.16v1.29h-1.16zm0 2.56h1.16v6.77h-1.16zM59.1 22.37a3.16 3.16 0 0 1 .66.65v-.86h1.05v6.18a4.58 4.58 0 0 1-.38 2 2.72 2.72 0 0 1-2.68 1.38 3.27 3.27 0 0 1-1.84-.49 1.92 1.92 0 0 1-.84-1.54h1.16a1.3 1.3 0 0 0 .33.71 2.07 2.07 0 0 0 2.92-.55 5.24 5.24 0 0 0 .23-1.85 2.23 2.23 0 0 1-.82.77 2.94 2.94 0 0 1-3.2-.53 3.46 3.46 0 0 1-.83-2.59 3.94 3.94 0 0 1 .83-2.67 2.57 2.57 0 0 1 2-1 2.46 2.46 0 0 1 1.41.39zm.14 1.22a1.66 1.66 0 0 0-1.32-.59 1.63 1.63 0 0 0-1.64 1.13A4.44 4.44 0 0 0 56 25.7a2.82 2.82 0 0 0 .46 1.75 1.5 1.5 0 0 0 1.25.6 1.75 1.75 0 0 0 1.72-1.11 3.61 3.61 0 0 0 .28-1.47 2.85 2.85 0 0 0-.47-1.87zM62.74 19.54h1.14V23a3.3 3.3 0 0 1 .73-.72 2.46 2.46 0 0 1 1.39-.35 2 2 0 0 1 2 1 3.53 3.53 0 0 1 .29 1.57v4.4h-1.18v-4.29a2.39 2.39 0 0 0-.19-1.1 1.22 1.22 0 0 0-1.17-.51 2 2 0 0 0-1.29.49 2.35 2.35 0 0 0-.58 1.85v3.56h-1.14zM70.4 20.2h1.16v1.9h1.09v.9h-1.1v4.44a.48.48 0 0 0 .24.48 1 1 0 0 0 .44.07h.4v.91a2.51 2.51 0 0 1-.41.08h-.46a1.24 1.24 0 0 1-1.09-.41 1.82 1.82 0 0 1-.29-1.06V23h-.92v-.9h.92z"/></g></g></svg>