<svg xmlns="http://www.w3.org/2000/svg" viewBox="0 0 762.25 206"><defs><style>.cls-2{fill:#e6ffd7}.cls-3,.cls-4{fill:none;stroke:#1a171b;stroke-width:.5px}.cls-4{stroke-dasharray:4}.cls-5{fill:#1a171b}.cls-6,.cls-7{fill:#60eb00}.cls-7{mix-blend-mode:multiply}</style></defs><g style="isolation:isolate"><path class="cls-2" d="M0-.09h762v206H0z" id="Background"/><g id="Lines"><path class="cls-3" d="M79.33 148.14h672.43"/><path class="cls-4" d="M751.83 151.04H92.5l-13.17 12.79"/><path class="cls-3" d="M79.33 72.48h672.43M79.33 31.87h672.5M79.33 25.58h672.43"/><path class="cls-4" d="M79.33 56.67L92.5 69.51h659.33"/><path class="cls-3" d="M79.33 110.49h629.92M79.33 186.64h672.43"/><path class="cls-2" d="M98.71 175h120.67v13.54H98.71z"/><path class="cls-3" d="M102.48 186.68h113.17"/><path class="cls-5" d="M105.89 189.08a.25.25 0 0 0-.08-.35l-3.23-2.05 3.23-2.05a.25.25 0 1 0-.27-.42l-3.54 2.26a.25.25 0 0 0 0 .42l3.56 2.27a.25.25 0 0 0 .35-.08zM212.23 189.08a.25.25 0 0 1 .08-.35l3.23-2.05-3.23-2.05a.25.25 0 1 1 .27-.42l3.56 2.27a.25.25 0 0 1 0 .42l-3.56 2.27a.25.25 0 0 1-.35-.08z"/><path class="cls-2" d="M122.79 180h62.29v16h-62.29z"/></g><g id="Type_New2"><path class="cls-6" d="M102 32.18h12.85l44.35 100 44.22-100h12.85v115.69h-12.73V62.13l-38 85.74h-12.9l-37.92-85.74v85.74H102z"/><path d="M246.6 138.22c-7.2-7.46-10.54-17.48-10.54-27.89s3.34-20.57 10.54-28 17.1-10.93 27.25-10.93S294 75 301.1 82.31s10.54 17.61 10.54 28v5.78h-62.35a26.83 26.83 0 0 0 6.56 13.91 24.27 24.27 0 0 0 18 7.58 24.64 24.64 0 0 0 21-11.57l10.54 6.81a34 34 0 0 1-4.24 5.4c-7.07 7.33-17.1 10.93-27.25 10.93s-20.23-3.6-27.3-10.93zm45.25-47.56a24.85 24.85 0 0 0-36 0 26.83 26.83 0 0 0-6.56 13.88h49.1a26.85 26.85 0 0 0-6.55-13.87zM319.47 72.67h16.45V25.75h12.6v46.92H365v11.57h-16.47v63.63h-12.6V84.24h-16.46z"/><path class="cls-6" d="M407 149.15c-8.61 0-17.1-2.06-23.91-7.33a23.46 23.46 0 0 1 0-37.53C389.91 99 398.4 97 407 97c7.84 0 15.55 2.83 20.57 8.48V97c0-9.64-11.18-14-20.57-14-8.1 0-16.45 3-19.41 9.25l-11.05-6a23.14 23.14 0 0 1 6.56-7.58c6.81-5.27 15.3-7.2 23.91-7.2s17.1 1.93 23.91 7.2A23.26 23.26 0 0 1 440.3 97v50.9h-12.72v-7.2c-5.02 5.62-12.73 8.45-20.58 8.45zm-14.78-36.51a12.26 12.26 0 0 0 0 20.82c4.24 3.09 9.51 4.11 14.78 4.11s10.54-1 14.78-4.11a12.26 12.26 0 0 0 0-20.82c-4.24-3.08-9.51-4.11-14.78-4.11s-10.53 1.03-14.77 4.12z"/><path d="M456.24 72.67h14.14V45.16c0-5.53 1.67-10.93 5.53-14.91a19.89 19.89 0 0 1 14.4-5.78 20.14 20.14 0 0 1 12.6 4.24l-7.71 9.64a6.56 6.56 0 0 0-4.9-2.35c-4.63 0-7.2 4.63-7.2 9.13v27.54h14.27v11.57H483.1v63.63h-12.72V84.24h-14.14zm60.41-46.92h12.73v122.12h-12.73zM612.41 82.31c7.2 7.46 10.54 17.61 10.54 28s-3.34 20.44-10.54 27.89-17.1 10.93-27.25 10.93-20.18-3.6-27.25-10.93-10.54-17.48-10.54-27.89 3.34-20.57 10.54-28S575 71.38 585.16 71.38s20.18 3.62 27.25 10.93zm-45.25 8.35c-4.88 5.27-7.07 12.47-7.07 19.67s2.18 14.4 7.07 19.67a25.14 25.14 0 0 0 36 0c4.88-5.27 7.07-12.47 7.07-19.67s-2.19-14.4-7.07-19.67a24.85 24.85 0 0 0-36 0zM653.67 139.51v46.92h-12.73V72.67h12.73V81a22.66 22.66 0 0 1 18.12-9.64h12.08a30.45 30.45 0 0 1 22.24 9c5.91 6.17 8.61 14.52 8.61 23v13.75c0 8.48-2.7 16.84-8.61 23s-13.88 9-22.24 9h-12.08a22.66 22.66 0 0 1-18.12-9.6zM671.79 83a17.52 17.52 0 0 0-13.11 5.78c-3.6 4-5 9.25-5 14.65v13.75c0 5.4 1.41 10.67 5 14.65a17.52 17.52 0 0 0 13.11 5.78h12.08A17.53 17.53 0 0 0 697 131.8c3.6-4 5-9.26 5-14.65v-13.76c0-5.4-1.41-10.67-5-14.65A17.52 17.52 0 0 0 683.87 83z"/></g><g id="Areas"><path class="cls-6" d="M311.64 116.12h-62.35a26.83 26.83 0 0 0 6.56 13.88 24.27 24.27 0 0 0 18 7.58 24.64 24.64 0 0 0 21-11.57l10.54 6.81c2.61-4.07 5.11-10.99 6.25-16.7z"/><path class="cls-7" d="M547.25 71.25V149h75.63V71.25zm37.54 68.05l-27.28-29.1 27.28-28.89 27.43 28.89zM538.63 25.75h12.73l-22 122.11h-12.71z"/><path class="cls-5" d="M216.26 32.18l-57.07 96-57.2-96 .01 25.99-.02.31V148h12.72V78.11l44.43 69.76 44.41-69.59V148h12.72V57.5h-.01l.01-25.32z"/><path d="M407 149.15c-8.61 0-17.1-2.06-23.91-7.33a23.46 23.46 0 0 1 0-37.53C389.91 99 398.4 97 407 97c7.84 0 20.49 8.29 20.57 21.48V97c0-9.64-11.18-14-20.57-14-8.1 0-16.45 3-19.41 9.25l-11.05-6a23.14 23.14 0 0 1 6.56-7.58c6.81-5.27 15.3-7.2 23.91-7.2s17.1 1.93 23.91 7.2A23.26 23.26 0 0 1 440.3 97v50.9h-12.72v-20.2c0 13.17-12.73 21.45-20.58 21.45zm-14.78-36.51a12.26 12.26 0 0 0 0 20.82c4.24 3.08 9.51 4.11 14.78 4.11s10.54-1 14.78-4.11a12.26 12.26 0 0 0 0-20.82c-4.24-3.09-9.51-4.11-14.78-4.11s-10.53 1.03-14.77 4.11z"/><path class="cls-6" d="M671.65 71.4h12.4v11.56h-12.4zM671.65 137.58h12.4v11.56h-12.4zM702 103.4h12.77v13.69H702z"/><path class="cls-7" d="M453.23 72.65h14.33V43.21a17.54 17.54 0 0 1 6.3-13.5c4.5-3.73 10.41-5.27 16.32-5.27a26 26 0 0 1 13.4 3.39l-9.16 11.65c-.38-2.44-1.54-6-4.24-6-3.73 0-4.63 6.3-4.63 9.77v29.4h14.7v9h-14.7v66.2h-18v-66.2h-14.32z"/><path class="cls-6" d="M335.92 37.67h12.65v12.65h-12.65z"/></g><g id="Names"><path d="M15.25 179.9a3 3 0 0 1 .69.67v-3.43H17v9.36h-1v-.95a2.47 2.47 0 0 1-.94.91 2.68 2.68 0 0 1-1.25.28 2.52 2.52 0 0 1-2-1 3.75 3.75 0 0 1-.83-2.54 4.4 4.4 0 0 1 .76-2.57 2.47 2.47 0 0 1 2.16-1.09 2.4 2.4 0 0 1 1.35.36zM12.7 185a1.61 1.61 0 0 0 1.48.74 1.55 1.55 0 0 0 1.3-.68 3.24 3.24 0 0 0 .51-2 2.91 2.91 0 0 0-.52-1.91 1.63 1.63 0 0 0-1.29-.62 1.7 1.7 0 0 0-1.39.66 3 3 0 0 0-.53 1.94 3.38 3.38 0 0 0 .44 1.87zM23.14 179.88a2.58 2.58 0 0 1 1 .88 3.05 3.05 0 0 1 .45 1.2 7.89 7.89 0 0 1 .1 1.5h-4.91a2.94 2.94 0 0 0 .48 1.67 1.62 1.62 0 0 0 1.4.63 1.81 1.81 0 0 0 1.42-.59 2 2 0 0 0 .42-.8h1.12a2.37 2.37 0 0 1-.29.83 3 3 0 0 1-.56.75 2.63 2.63 0 0 1-1.28.69 3.88 3.88 0 0 1-.93.1 2.83 2.83 0 0 1-2.14-.92 3.6 3.6 0 0 1-.88-2.59 3.92 3.92 0 0 1 .88-2.66 2.91 2.91 0 0 1 2.31-1 3.07 3.07 0 0 1 1.41.31zm.41 2.67a3 3 0 0 0-.32-1.19 1.64 1.64 0 0 0-1.55-.83 1.72 1.72 0 0 0-1.31.57 2.16 2.16 0 0 0-.56 1.44zM27 184.35a1.64 1.64 0 0 0 .29.88 1.85 1.85 0 0 0 1.53.55 2.3 2.3 0 0 0 1.14-.28.91.91 0 0 0 .49-.85.73.73 0 0 0-.39-.67 4.73 4.73 0 0 0-1-.32l-.92-.23a4.56 4.56 0 0 1-1.3-.48 1.44 1.44 0 0 1-.75-1.28 2 2 0 0 1 .7-1.56 2.83 2.83 0 0 1 1.89-.6 2.64 2.64 0 0 1 2.25.9 1.94 1.94 0 0 1 .42 1.23h-1.03a1.29 1.29 0 0 0-.28-.7 1.81 1.81 0 0 0-1.4-.45 1.7 1.7 0 0 0-1 .25.77.77 0 0 0-.34.65.8.8 0 0 0 .45.71 2.71 2.71 0 0 0 .76.28l.77.18a6.06 6.06 0 0 1 1.68.58 1.53 1.53 0 0 1 .67 1.38 2.08 2.08 0 0 1-.7 1.57 3 3 0 0 1-2.12.66 2.87 2.87 0 0 1-2.18-.69 2.59 2.59 0 0 1-.68-1.7zM37.55 180.05a2.68 2.68 0 0 1 .87 1.92H37.3a2.06 2.06 0 0 0-.46-1 1.46 1.46 0 0 0-1.16-.42 1.6 1.6 0 0 0-1.56 1.06 4.23 4.23 0 0 0-.3 1.71 3.21 3.21 0 0 0 .43 1.72 1.68 1.68 0 0 0 2.48.26 2.37 2.37 0 0 0 .57-1.19h1.11a2.69 2.69 0 0 1-2.9 2.6 2.6 2.6 0 0 1-2.13-1 3.73 3.73 0 0 1-.79-2.43 4.1 4.1 0 0 1 .87-2.79 2.81 2.81 0 0 1 2.22-1 3 3 0 0 1 1.87.56zM44 179.88a2.58 2.58 0 0 1 1 .88 3.05 3.05 0 0 1 .45 1.2 7.89 7.89 0 0 1 .1 1.5h-4.96a2.94 2.94 0 0 0 .48 1.67 1.62 1.62 0 0 0 1.4.63 1.81 1.81 0 0 0 1.42-.59 2 2 0 0 0 .42-.8h1.12a2.37 2.37 0 0 1-.29.83 3 3 0 0 1-.56.75 2.63 2.63 0 0 1-1.28.69 3.88 3.88 0 0 1-.93.1 2.83 2.83 0 0 1-2.14-.92 3.6 3.6 0 0 1-.88-2.59 3.92 3.92 0 0 1 .88-2.66 2.91 2.91 0 0 1 2.31-1 3.07 3.07 0 0 1 1.46.31zm.41 2.67a3 3 0 0 0-.32-1.19 1.64 1.64 0 0 0-1.55-.83 1.72 1.72 0 0 0-1.31.57 2.16 2.16 0 0 0-.56 1.44zM47.18 179.69h1.09v1a3.05 3.05 0 0 1 1-.86 2.72 2.72 0 0 1 1.2-.26 2 2 0 0 1 2 1 3.58 3.58 0 0 1 .28 1.58v4.36h-1.19v-4.31a2.32 2.32 0 0 0-.18-1 1.12 1.12 0 0 0-1.1-.63 2.26 2.26 0 0 0-.67.08 1.71 1.71 0 0 0-.83.56 1.68 1.68 0 0 0-.37.7 4.64 4.64 0 0 0-.09 1v3.56h-1.14zM58.34 179.9a3 3 0 0 1 .69.67v-3.43h1.1v9.36h-1v-.95a2.47 2.47 0 0 1-.94.91 2.68 2.68 0 0 1-1.25.28 2.52 2.52 0 0 1-2-1 3.75 3.75 0 0 1-.83-2.54 4.4 4.4 0 0 1 .76-2.57 2.47 2.47 0 0 1 2.13-1.06 2.4 2.4 0 0 1 1.34.33zm-2.55 5.1a1.61 1.61 0 0 0 1.48.74 1.55 1.55 0 0 0 1.3-.68 3.24 3.24 0 0 0 .51-2 2.91 2.91 0 0 0-.52-1.91 1.63 1.63 0 0 0-1.29-.62 1.7 1.7 0 0 0-1.39.66 3 3 0 0 0-.53 1.94 3.38 3.38 0 0 0 .44 1.87zM66.23 179.88a2.58 2.58 0 0 1 1 .88 3.05 3.05 0 0 1 .45 1.2 7.89 7.89 0 0 1 .1 1.5h-4.91a2.94 2.94 0 0 0 .48 1.67 1.62 1.62 0 0 0 1.4.63 1.81 1.81 0 0 0 1.42-.59 2 2 0 0 0 .42-.8h1.12a2.37 2.37 0 0 1-.29.83 3 3 0 0 1-.56.75 2.63 2.63 0 0 1-1.28.69 3.88 3.88 0 0 1-.93.1 2.83 2.83 0 0 1-2.14-.92 3.6 3.6 0 0 1-.88-2.59 3.92 3.92 0 0 1 .88-2.66 2.91 2.91 0 0 1 2.31-1 3.07 3.07 0 0 1 1.41.31zm.41 2.67a3 3 0 0 0-.32-1.19 1.64 1.64 0 0 0-1.55-.83 1.72 1.72 0 0 0-1.31.57 2.16 2.16 0 0 0-.56 1.44zM69.48 179.69h1.09v1.17a2.59 2.59 0 0 1 .65-.83 1.7 1.7 0 0 1 1.2-.49h.37v1.21h-.38a1.63 1.63 0 0 0-1.33.55 1.94 1.94 0 0 0-.46 1.28v3.91h-1.14zM23.9 138.68H25v3.38a2.51 2.51 0 0 1 2-1 2.66 2.66 0 0 1 2.07.87 3.71 3.71 0 0 1 .79 2.57 4.4 4.4 0 0 1-.78 2.68 2.55 2.55 0 0 1-2.17 1.07 2.24 2.24 0 0 1-1.31-.37 3.19 3.19 0 0 1-.68-.71v.83H23.9zm4.37 7.83a3.62 3.62 0 0 0 .46-1.94 3.18 3.18 0 0 0-.46-1.78 1.52 1.52 0 0 0-1.36-.7 1.9 1.9 0 0 0-1.37.58 2.59 2.59 0 0 0-.59 1.9 4.19 4.19 0 0 0 .24 1.56 1.67 1.67 0 0 0 1.69 1.12 1.53 1.53 0 0 0 1.38-.74zM35.06 143.92a.62.62 0 0 0 .53-.33 1 1 0 0 0 .08-.44.93.93 0 0 0-.42-.85 2.22 2.22 0 0 0-1.19-.26 1.5 1.5 0 0 0-1.27.48 1.6 1.6 0 0 0-.27.8h-1.07a2 2 0 0 1 .81-1.75 3.34 3.34 0 0 1 1.82-.49 3.69 3.69 0 0 1 1.95.46 1.55 1.55 0 0 1 .74 1.42v3.92a.5.5 0 0 0 .07.29.35.35 0 0 0 .31.11h.37v.84l-.41.1h-.38a.94.94 0 0 1-.86-.42 1.62 1.62 0 0 1-.2-.63 2.91 2.91 0 0 1-1 .79 3.11 3.11 0 0 1-1.44.34 2.14 2.14 0 0 1-1.55-.57 1.9 1.9 0 0 1-.6-1.44 1.85 1.85 0 0 1 .59-1.46 2.81 2.81 0 0 1 1.55-.64zM32.65 147a1.35 1.35 0 0 0 .86.29 2.61 2.61 0 0 0 1.17-.28 1.57 1.57 0 0 0 1-1.51v-.92a2 2 0 0 1-.54.22 4.53 4.53 0 0 1-.65.13l-.69.09a2.68 2.68 0 0 0-.93.26 1 1 0 0 0-.53 1 .94.94 0 0 0 .31.72zM39.52 145.91a1.64 1.64 0 0 0 .29.88 1.85 1.85 0 0 0 1.53.55 2.3 2.3 0 0 0 1.14-.28.91.91 0 0 0 .49-.85.73.73 0 0 0-.39-.67 4.73 4.73 0 0 0-1-.32l-.92-.23a4.56 4.56 0 0 1-1.3-.48 1.44 1.44 0 0 1-.75-1.28 2 2 0 0 1 .7-1.56 2.83 2.83 0 0 1 1.89-.6 2.64 2.64 0 0 1 2.25.9 1.94 1.94 0 0 1 .42 1.23H42.8a1.29 1.29 0 0 0-.28-.7 1.81 1.81 0 0 0-1.4-.45 1.7 1.7 0 0 0-1 .25.77.77 0 0 0-.34.65.8.8 0 0 0 .45.71 2.71 2.71 0 0 0 .76.28l.77.18a6.06 6.06 0 0 1 1.68.58 1.53 1.53 0 0 1 .67 1.38 2.08 2.08 0 0 1-.7 1.57 3 3 0 0 1-2.12.66 2.87 2.87 0 0 1-2.18-.69 2.59 2.59 0 0 1-.68-1.7zM49.74 141.43a2.58 2.58 0 0 1 1 .88 3.05 3.05 0 0 1 .45 1.2 7.89 7.89 0 0 1 .1 1.5h-4.92a2.94 2.94 0 0 0 .48 1.67 1.62 1.62 0 0 0 1.4.63 1.81 1.81 0 0 0 1.42-.59 2 2 0 0 0 .42-.8h1.12a2.37 2.37 0 0 1-.29.83 3 3 0 0 1-.56.75 2.63 2.63 0 0 1-1.28.69 3.88 3.88 0 0 1-.93.1 2.83 2.83 0 0 1-2.14-.92 3.6 3.6 0 0 1-.88-2.59 3.92 3.92 0 0 1 .88-2.66 2.91 2.91 0 0 1 2.31-1 3.07 3.07 0 0 1 1.42.31zm.41 2.67a3 3 0 0 0-.32-1.19 1.64 1.64 0 0 0-1.55-.83 1.72 1.72 0 0 0-1.31.57 2.16 2.16 0 0 0-.56 1.44zM53 138.71h1.14V148H53zM56 138.71h1.16V140H56zm0 2.56h1.16V148H56zM59.13 141.24h1.09v1a3.05 3.05 0 0 1 1-.86 2.72 2.72 0 0 1 1.2-.26 2 2 0 0 1 2 1 3.58 3.58 0 0 1 .28 1.58v4.3h-1.19v-4.29a2.32 2.32 0 0 0-.18-1 1.12 1.12 0 0 0-1.1-.63 2.26 2.26 0 0 0-.67.08 1.71 1.71 0 0 0-.83.56 1.68 1.68 0 0 0-.37.7 4.64 4.64 0 0 0-.09 1V148h-1.14zM70.75 141.43a2.58 2.58 0 0 1 1 .88 3.05 3.05 0 0 1 .45 1.2 7.89 7.89 0 0 1 .1 1.5h-4.91a2.94 2.94 0 0 0 .48 1.67 1.62 1.62 0 0 0 1.4.63 1.81 1.81 0 0 0 1.42-.59 2 2 0 0 0 .42-.8h1.12a2.37 2.37 0 0 1-.29.83 3 3 0 0 1-.56.75 2.63 2.63 0 0 1-1.28.69 3.88 3.88 0 0 1-.93.1 2.83 2.83 0 0 1-2.14-.92 3.6 3.6 0 0 1-.88-2.59 3.92 3.92 0 0 1 .88-2.66 2.91 2.91 0 0 1 2.31-1 3.07 3.07 0 0 1 1.41.31zm.41 2.67a3 3 0 0 0-.32-1.19 1.64 1.64 0 0 0-1.55-.83 1.72 1.72 0 0 0-1.31.57 2.16 2.16 0 0 0-.56 1.44zM127.37 183.19v4.51a2 2 0 0 0 .16.85 1.12 1.12 0 0 0 1.11.61 1.56 1.56 0 0 0 1.58-1.07 4.34 4.34 0 0 0 .23-1.57v-3.34h1.14V190h-1.08v-1a2.3 2.3 0 0 1-.54.65 2.36 2.36 0 0 1-1.56.53 2 2 0 0 1-1.94-1 2.94 2.94 0 0 1-.28-1.39v-4.62zM133.65 183.19h1.09v1a3.05 3.05 0 0 1 1-.86A2.72 2.72 0 0 1 137 183a2 2 0 0 1 2 1 3.58 3.58 0 0 1 .28 1.58V190H138v-4.3a2.32 2.32 0 0 0-.18-1 1.12 1.12 0 0 0-1.1-.63 2.26 2.26 0 0 0-.67.08 1.71 1.71 0 0 0-.83.56 1.68 1.68 0 0 0-.37.7 4.64 4.64 0 0 0-.09 1V190h-1.14zM141.08 180.66h1.16V182h-1.16zm0 2.56h1.16V190h-1.16zM144.39 181.29h1.16v1.9h1.09v.93h-1.09v4.44a.48.48 0 0 0 .24.48 1 1 0 0 0 .44.07h.4v.89a2.51 2.51 0 0 1-.41.08h-.46a1.24 1.24 0 0 1-1.09-.41 1.82 1.82 0 0 1-.29-1.06v-4.5h-.92v-.93h.92zM152.3 183.19l1.31 5.36 1.33-5.36h1.28l1.33 5.33 1.39-5.33h1.14l-2 6.8h-1.19l-1.38-5.26-1.31 5.27H153l-2-6.8zM161.36 180.66h1.16V182h-1.16zm0 2.56h1.16V190h-1.16zM168.17 183.4a3 3 0 0 1 .69.67v-3.43H170V190h-1v-1a2.47 2.47 0 0 1-.94.91 2.68 2.68 0 0 1-1.25.28 2.52 2.52 0 0 1-2-1 3.75 3.75 0 0 1-.83-2.54 4.4 4.4 0 0 1 .76-2.57 2.47 2.47 0 0 1 2.16-1.09 2.4 2.4 0 0 1 1.27.41zm-2.55 5.1a1.61 1.61 0 0 0 1.48.74 1.55 1.55 0 0 0 1.3-.68 3.24 3.24 0 0 0 .51-2 2.91 2.91 0 0 0-.52-1.91 1.63 1.63 0 0 0-1.29-.62 1.7 1.7 0 0 0-1.39.66 3 3 0 0 0-.53 1.94 3.38 3.38 0 0 0 .44 1.87zM172.09 181.29h1.16v1.9h1.09v.93h-1.09v4.44a.48.48 0 0 0 .24.48 1 1 0 0 0 .44.07h.4v.89a2.51 2.51 0 0 1-.41.08h-.46a1.24 1.24 0 0 1-1.09-.41 1.82 1.82 0 0 1-.29-1.06v-4.5h-.92v-.93h.92zM175.67 180.63h1.14v3.48a3.3 3.3 0 0 1 .73-.72 2.46 2.46 0 0 1 1.38-.36 2 2 0 0 1 2 1 3.53 3.53 0 0 1 .29 1.57v4.4H180v-4.3a2.39 2.39 0 0 0-.19-1.1 1.22 1.22 0 0 0-1.17-.56 2 2 0 0 0-1.29.49 2.35 2.35 0 0 0-.58 1.85V190h-1.14zM418.63 41.16a2.68 2.68 0 0 1 .87 1.92h-1.11a2.06 2.06 0 0 0-.46-1 1.46 1.46 0 0 0-1.16-.42 1.6 1.6 0 0 0-1.56 1.06 4.23 4.23 0 0 0-.3 1.71 3.21 3.21 0 0 0 .43 1.72 1.68 1.68 0 0 0 2.48.26 2.37 2.37 0 0 0 .57-1.19h1.11a2.69 2.69 0 0 1-2.9 2.6 2.6 2.6 0 0 1-2.13-1 3.73 3.73 0 0 1-.79-2.43 4.1 4.1 0 0 1 .87-2.79 2.81 2.81 0 0 1 2.22-1 3 3 0 0 1 1.86.56zM425.76 41.48a3.43 3.43 0 0 1 .9 2.58 4.44 4.44 0 0 1-.79 2.71 2.87 2.87 0 0 1-2.46 1.07 2.78 2.78 0 0 1-2.21-.95 3.76 3.76 0 0 1-.82-2.55 4.07 4.07 0 0 1 .86-2.73 2.89 2.89 0 0 1 2.32-1 3 3 0 0 1 2.2.87zM425 46a4.32 4.32 0 0 0 .42-1.91 3.44 3.44 0 0 0-.3-1.55 1.69 1.69 0 0 0-1.64-.94 1.62 1.62 0 0 0-1.51.8 3.73 3.73 0 0 0-.47 1.93 3.24 3.24 0 0 0 .47 1.81 1.65 1.65 0 0 0 1.49.72A1.56 1.56 0 0 0 425 46zM428.25 40.8h1.09v1a3.05 3.05 0 0 1 1-.86 2.72 2.72 0 0 1 1.2-.26 2 2 0 0 1 2 1 3.58 3.58 0 0 1 .28 1.58v4.34h-1.16v-4.29a2.32 2.32 0 0 0-.18-1 1.12 1.12 0 0 0-1.1-.63 2.26 2.26 0 0 0-.67.08 1.71 1.71 0 0 0-.83.56 1.68 1.68 0 0 0-.37.7 4.64 4.64 0 0 0-.09 1v3.58h-1.14zM435.91 38.9h1.16v1.9h1.09v.93h-1.09v4.44a.48.48 0 0 0 .24.48 1 1 0 0 0 .44.07h.4v.91a2.51 2.51 0 0 1-.41.08h-.46a1.24 1.24 0 0 1-1.09-.41 1.82 1.82 0 0 1-.29-1.06v-4.5h-.9v-.94h.92zM439.52 40.8h1.09V42a2.59 2.59 0 0 1 .65-.83 1.7 1.7 0 0 1 1.2-.49h.37v1.21h-.38a1.63 1.63 0 0 0-1.33.55 1.94 1.94 0 0 0-.46 1.28v3.88h-1.14zM447.65 43.48a.62.62 0 0 0 .53-.33 1 1 0 0 0 .08-.44.93.93 0 0 0-.42-.85 2.22 2.22 0 0 0-1.19-.26 1.5 1.5 0 0 0-1.27.48 1.6 1.6 0 0 0-.27.8H444a2 2 0 0 1 .81-1.75 3.34 3.34 0 0 1 1.82-.49 3.69 3.69 0 0 1 1.95.46 1.55 1.55 0 0 1 .74 1.42v3.92a.5.5 0 0 0 .07.29.35.35 0 0 0 .31.11h.37v.84l-.41.1h-.38a.94.94 0 0 1-.86-.42 1.62 1.62 0 0 1-.2-.63 2.91 2.91 0 0 1-1 .79 3.11 3.11 0 0 1-1.44.34 2.14 2.14 0 0 1-1.55-.57 1.9 1.9 0 0 1-.6-1.44 1.85 1.85 0 0 1 .59-1.46 2.81 2.81 0 0 1 1.55-.64zm-2.41 3.09a1.35 1.35 0 0 0 .86.29 2.61 2.61 0 0 0 1.17-.28 1.57 1.57 0 0 0 1-1.51v-.92a2 2 0 0 1-.54.22 4.53 4.53 0 0 1-.65.13l-.69.09a2.68 2.68 0 0 0-.93.26 1 1 0 0 0-.53 1 .94.94 0 0 0 .32.72zM452.11 45.46a1.64 1.64 0 0 0 .29.88 1.85 1.85 0 0 0 1.53.55 2.3 2.3 0 0 0 1.14-.28.91.91 0 0 0 .49-.85.73.73 0 0 0-.39-.67 4.73 4.73 0 0 0-1-.32l-.92-.23a4.56 4.56 0 0 1-1.3-.48 1.44 1.44 0 0 1-.75-1.28 2 2 0 0 1 .7-1.56 2.83 2.83 0 0 1 1.89-.6 2.64 2.64 0 0 1 2.25.9 1.94 1.94 0 0 1 .42 1.23h-1.08a1.29 1.29 0 0 0-.28-.7 1.81 1.81 0 0 0-1.4-.45 1.7 1.7 0 0 0-1 .25.77.77 0 0 0-.34.65.8.8 0 0 0 .45.71 2.71 2.71 0 0 0 .76.28l.77.18a6.06 6.06 0 0 1 1.68.58 1.53 1.53 0 0 1 .67 1.38 2.08 2.08 0 0 1-.7 1.57 3 3 0 0 1-2.12.66 2.87 2.87 0 0 1-2.18-.69 2.59 2.59 0 0 1-.68-1.7zM458.36 38.9h1.16v1.9h1.09v.93h-1.09v4.44a.48.48 0 0 0 .24.48 1 1 0 0 0 .44.07h.4v.91a2.51 2.51 0 0 1-.41.08h-.46a1.24 1.24 0 0 1-1.09-.41 1.82 1.82 0 0 1-.29-1.06v-4.5h-.92v-.94h.92zM280 40.83h1.12v.9a2.77 2.77 0 0 1 .75-.72 2.42 2.42 0 0 1 1.36-.38 2.57 2.57 0 0 1 2 .88A3.62 3.62 0 0 1 286 44a3.88 3.88 0 0 1-1.17 3.17 2.64 2.64 0 0 1-1.72.6 2.35 2.35 0 0 1-1.29-.34 3 3 0 0 1-.68-.65v3.47H280zm4.3 5.33a3.18 3.18 0 0 0 .53-2 3.72 3.72 0 0 0-.24-1.4 1.73 1.73 0 0 0-3.26.06 4.69 4.69 0 0 0-.24 1.61 3.4 3.4 0 0 0 .24 1.34 1.73 1.73 0 0 0 3 .38zM291.67 41a2.58 2.58 0 0 1 1 .88 3.05 3.05 0 0 1 .45 1.2 7.89 7.89 0 0 1 .1 1.5h-4.94a2.94 2.94 0 0 0 .48 1.67 1.62 1.62 0 0 0 1.4.63 1.81 1.81 0 0 0 1.42-.59 2 2 0 0 0 .42-.8h1.12a2.37 2.37 0 0 1-.29.83 3 3 0 0 1-.56.75 2.63 2.63 0 0 1-1.28.69 3.88 3.88 0 0 1-.93.1 2.83 2.83 0 0 1-2.14-.92 3.6 3.6 0 0 1-.88-2.59 3.92 3.92 0 0 1 .88-2.66 2.91 2.91 0 0 1 2.31-1 3.07 3.07 0 0 1 1.44.31zm.41 2.67a3 3 0 0 0-.32-1.19 1.64 1.64 0 0 0-1.55-.83 1.72 1.72 0 0 0-1.31.57 2.16 2.16 0 0 0-.56 1.44zM294.9 40.8h1.1v1a3.05 3.05 0 0 1 1-.86 2.72 2.72 0 0 1 1.2-.26 2 2 0 0 1 2 1 3.58 3.58 0 0 1 .28 1.58v4.34h-1.16v-4.29a2.32 2.32 0 0 0-.18-1 1.12 1.12 0 0 0-1.1-.63 2.26 2.26 0 0 0-.67.08 1.71 1.71 0 0 0-.83.56 1.68 1.68 0 0 0-.37.7 4.64 4.64 0 0 0-.09 1v3.58h-1.18zM306.81 45.46a1.64 1.64 0 0 0 .29.88 1.85 1.85 0 0 0 1.53.55 2.3 2.3 0 0 0 1.14-.28.91.91 0 0 0 .49-.85.73.73 0 0 0-.39-.67 4.73 4.73 0 0 0-1-.32l-.92-.23a4.56 4.56 0 0 1-1.3-.48 1.44 1.44 0 0 1-.75-1.28 2 2 0 0 1 .7-1.56 2.83 2.83 0 0 1 1.89-.6 2.64 2.64 0 0 1 2.25.9 1.94 1.94 0 0 1 .42 1.23h-1.08a1.29 1.29 0 0 0-.28-.7 1.81 1.81 0 0 0-1.4-.45 1.7 1.7 0 0 0-1 .25.77.77 0 0 0-.34.65.8.8 0 0 0 .45.71 2.71 2.71 0 0 0 .76.28l.77.18a6.06 6.06 0 0 1 1.68.58 1.53 1.53 0 0 1 .67 1.38 2.08 2.08 0 0 1-.7 1.57 3 3 0 0 1-2.12.66 2.87 2.87 0 0 1-2.18-.69 2.59 2.59 0 0 1-.68-1.7zM312.82 38.27H314v1.29h-1.16zm0 2.56H314v6.77h-1.16zM315.4 46.7l4-4.87h-3.7v-1h5.3v.93l-4 4.84h4.13v1h-5.73zM326.8 41a2.58 2.58 0 0 1 1 .88 3.05 3.05 0 0 1 .45 1.2 7.89 7.89 0 0 1 .1 1.5h-4.94a2.94 2.94 0 0 0 .48 1.67 1.62 1.62 0 0 0 1.4.63 1.81 1.81 0 0 0 1.42-.59 2 2 0 0 0 .42-.8h1.12a2.37 2.37 0 0 1-.29.83 3 3 0 0 1-.56.75 2.63 2.63 0 0 1-1.28.69 3.88 3.88 0 0 1-.93.1 2.83 2.83 0 0 1-2.14-.92 3.6 3.6 0 0 1-.88-2.59 3.92 3.92 0 0 1 .88-2.66 2.91 2.91 0 0 1 2.31-1 3.07 3.07 0 0 1 1.44.31zm.41 2.67a3 3 0 0 0-.32-1.19 1.64 1.64 0 0 0-1.55-.83 1.72 1.72 0 0 0-1.31.57 2.16 2.16 0 0 0-.56 1.44zM141 161.38a2.68 2.68 0 0 1 .87 1.92h-1.11a2.06 2.06 0 0 0-.46-1 1.46 1.46 0 0 0-1.16-.42 1.6 1.6 0 0 0-1.56 1.06 4.23 4.23 0 0 0-.3 1.71 3.21 3.21 0 0 0 .43 1.72 1.68 1.68 0 0 0 2.48.26 2.37 2.37 0 0 0 .57-1.19h1.11a2.69 2.69 0 0 1-2.9 2.6 2.6 2.6 0 0 1-2.13-1 3.73 3.73 0 0 1-.79-2.43 4.1 4.1 0 0 1 .87-2.79 2.81 2.81 0 0 1 2.22-1 3 3 0 0 1 1.86.56zM147.76 161.69a3.43 3.43 0 0 1 .9 2.58 4.44 4.44 0 0 1-.79 2.71 2.87 2.87 0 0 1-2.46 1.07 2.78 2.78 0 0 1-2.21-.95 3.76 3.76 0 0 1-.82-2.55 4.07 4.07 0 0 1 .86-2.73 2.89 2.89 0 0 1 2.32-1 3 3 0 0 1 2.2.87zm-.71 4.52a4.32 4.32 0 0 0 .42-1.91 3.44 3.44 0 0 0-.3-1.55 1.69 1.69 0 0 0-1.64-.94 1.62 1.62 0 0 0-1.51.8 3.73 3.73 0 0 0-.47 1.93 3.24 3.24 0 0 0 .47 1.81 1.65 1.65 0 0 0 1.49.72 1.56 1.56 0 0 0 1.54-.86zM150 161h1.09v1.17a2.59 2.59 0 0 1 .65-.83 1.7 1.7 0 0 1 1.2-.49h.32v1.21h-.38a1.63 1.63 0 0 0-1.33.55 1.94 1.94 0 0 0-.46 1.28v3.91H150zM154.13 161h1.09v1a3.05 3.05 0 0 1 1-.86 2.72 2.72 0 0 1 1.2-.26 2 2 0 0 1 2 1 3.58 3.58 0 0 1 .28 1.58v4.36h-1.16v-4.29a2.32 2.32 0 0 0-.18-1 1.12 1.12 0 0 0-1.1-.63 2.26 2.26 0 0 0-.67.08 1.71 1.71 0 0 0-.83.56 1.68 1.68 0 0 0-.37.7 4.64 4.64 0 0 0-.09 1v3.56h-1.14zM165.43 161.2a2.58 2.58 0 0 1 1 .88 3.05 3.05 0 0 1 .45 1.2 7.89 7.89 0 0 1 .1 1.5h-4.94a2.94 2.94 0 0 0 .48 1.67 1.62 1.62 0 0 0 1.4.63 1.81 1.81 0 0 0 1.42-.59 2 2 0 0 0 .42-.8h1.12a2.37 2.37 0 0 1-.29.83 3 3 0 0 1-.56.75 2.63 2.63 0 0 1-1.28.69 3.88 3.88 0 0 1-.93.1 2.83 2.83 0 0 1-2.14-.92 3.6 3.6 0 0 1-.88-2.59 3.92 3.92 0 0 1 .88-2.66 2.91 2.91 0 0 1 2.31-1 3.07 3.07 0 0 1 1.44.31zm.41 2.67a3 3 0 0 0-.32-1.19 1.64 1.64 0 0 0-1.55-.83 1.72 1.72 0 0 0-1.31.57 2.16 2.16 0 0 0-.56 1.44zM168.37 161h1.09v1.17a2.59 2.59 0 0 1 .65-.83 1.7 1.7 0 0 1 1.2-.49h.37v1.21h-.38a1.63 1.63 0 0 0-1.33.55 1.94 1.94 0 0 0-.46 1.28v3.91h-1.14zM555.89 165.68a1.64 1.64 0 0 0 .29.88 1.85 1.85 0 0 0 1.53.55 2.3 2.3 0 0 0 1.14-.28.91.91 0 0 0 .49-.85.73.73 0 0 0-.39-.67 4.73 4.73 0 0 0-1-.32l-.92-.23a4.56 4.56 0 0 1-1.3-.48A1.44 1.44 0 0 1 555 163a2 2 0 0 1 .7-1.56 2.83 2.83 0 0 1 1.89-.6 2.64 2.64 0 0 1 2.25.9 1.94 1.94 0 0 1 .42 1.23h-1.08a1.29 1.29 0 0 0-.28-.7 1.81 1.81 0 0 0-1.4-.45 1.7 1.7 0 0 0-1 .25.77.77 0 0 0-.34.65.8.8 0 0 0 .45.71 2.71 2.71 0 0 0 .76.28l.77.18a6.06 6.06 0 0 1 1.68.58 1.53 1.53 0 0 1 .67 1.38 2.08 2.08 0 0 1-.7 1.57 3 3 0 0 1-2.12.66 2.87 2.87 0 0 1-2.18-.69 2.59 2.59 0 0 1-.68-1.7zM563 161v4.51a2 2 0 0 0 .16.85 1.12 1.12 0 0 0 1.11.61 1.56 1.56 0 0 0 1.58-1.07 4.34 4.34 0 0 0 .23-1.57V161h1.14v6.8h-1.08v-1a2.3 2.3 0 0 1-.54.65 2.36 2.36 0 0 1-1.56.53 2 2 0 0 1-1.94-1 2.94 2.94 0 0 1-.28-1.39V161zM569.23 161h1.12v.9a2.77 2.77 0 0 1 .75-.72 2.42 2.42 0 0 1 1.36-.38 2.57 2.57 0 0 1 2 .88 3.62 3.62 0 0 1 .81 2.53 3.88 3.88 0 0 1-1.17 3.17 2.64 2.64 0 0 1-1.72.6 2.35 2.35 0 0 1-1.29-.34 3 3 0 0 1-.68-.65v3.47h-1.14zm4.3 5.33a3.18 3.18 0 0 0 .53-2 3.72 3.72 0 0 0-.24-1.4 1.73 1.73 0 0 0-3.26.06 4.69 4.69 0 0 0-.24 1.61 3.4 3.4 0 0 0 .24 1.34 1.73 1.73 0 0 0 3 .38zM581 161.2a2.58 2.58 0 0 1 1 .88 3.05 3.05 0 0 1 .45 1.2 7.89 7.89 0 0 1 .1 1.5h-4.94a2.94 2.94 0 0 0 .48 1.67 1.62 1.62 0 0 0 1.4.63 1.81 1.81 0 0 0 1.42-.59 2 2 0 0 0 .42-.8h1.12a2.37 2.37 0 0 1-.29.83 3 3 0 0 1-.56.75 2.63 2.63 0 0 1-1.28.69 3.88 3.88 0 0 1-.93.1 2.83 2.83 0 0 1-2.14-.92 3.6 3.6 0 0 1-.88-2.59 3.92 3.92 0 0 1 .88-2.66 2.91 2.91 0 0 1 2.31-1 3.07 3.07 0 0 1 1.44.31zm.41 2.67a3 3 0 0 0-.32-1.19 1.64 1.64 0 0 0-1.55-.83 1.72 1.72 0 0 0-1.31.57 2.16 2.16 0 0 0-.56 1.44zM584.21 161h1.09v1.17a2.59 2.59 0 0 1 .65-.83 1.7 1.7 0 0 1 1.2-.49h.37v1.21h-.38a1.63 1.63 0 0 0-1.33.55 1.94 1.94 0 0 0-.46 1.28v3.91h-1.14zM588.7 161h1.09v1a3.05 3.05 0 0 1 1-.86 2.72 2.72 0 0 1 1.2-.26 2 2 0 0 1 2 1 3.58 3.58 0 0 1 .28 1.58v4.36h-1.16v-4.29a2.32 2.32 0 0 0-.18-1 1.12 1.12 0 0 0-1.1-.63 2.26 2.26 0 0 0-.67.08 1.71 1.71 0 0 0-.83.56 1.68 1.68 0 0 0-.37.7 4.64 4.64 0 0 0-.09 1v3.56h-1.17zM600.33 161.2a2.58 2.58 0 0 1 1 .88 3.05 3.05 0 0 1 .45 1.2 7.89 7.89 0 0 1 .1 1.5H597a2.94 2.94 0 0 0 .48 1.67 1.62 1.62 0 0 0 1.4.63 1.81 1.81 0 0 0 1.42-.59 2 2 0 0 0 .42-.8h1.12a2.37 2.37 0 0 1-.29.83 3 3 0 0 1-.56.75 2.63 2.63 0 0 1-1.28.69 3.88 3.88 0 0 1-.93.1 2.83 2.83 0 0 1-2.14-.92 3.6 3.6 0 0 1-.88-2.59 3.92 3.92 0 0 1 .88-2.66 2.91 2.91 0 0 1 2.31-1 3.07 3.07 0 0 1 1.38.31zm.41 2.67a3 3 0 0 0-.32-1.19 1.64 1.64 0 0 0-1.55-.83 1.72 1.72 0 0 0-1.31.57 2.16 2.16 0 0 0-.56 1.44zM604.23 165.68a1.64 1.64 0 0 0 .29.88 1.85 1.85 0 0 0 1.53.55 2.3 2.3 0 0 0 1.14-.28.91.91 0 0 0 .49-.85.73.73 0 0 0-.39-.67 4.73 4.73 0 0 0-1-.32l-.92-.23a4.56 4.56 0 0 1-1.3-.48 1.44 1.44 0 0 1-.75-1.28 2 2 0 0 1 .7-1.56 2.83 2.83 0 0 1 1.89-.6 2.64 2.64 0 0 1 2.25.9 1.94 1.94 0 0 1 .42 1.23h-1.08a1.29 1.29 0 0 0-.28-.7 1.81 1.81 0 0 0-1.4-.45 1.7 1.7 0 0 0-1 .25.77.77 0 0 0-.34.65.8.8 0 0 0 .45.71 2.71 2.71 0 0 0 .76.28l.77.18a6.06 6.06 0 0 1 1.68.58 1.53 1.53 0 0 1 .67 1.38 2.08 2.08 0 0 1-.7 1.57 3 3 0 0 1-2.12.66 2.87 2.87 0 0 1-2.18-.69 2.59 2.59 0 0 1-.68-1.7zM610.93 165.68a1.64 1.64 0 0 0 .29.88 1.85 1.85 0 0 0 1.53.55 2.3 2.3 0 0 0 1.14-.28.91.91 0 0 0 .49-.85.73.73 0 0 0-.39-.67 4.73 4.73 0 0 0-1-.32l-.92-.23a4.56 4.56 0 0 1-1.3-.48A1.44 1.44 0 0 1 610 163a2 2 0 0 1 .7-1.56 2.83 2.83 0 0 1 1.89-.6 2.64 2.64 0 0 1 2.25.9 1.94 1.94 0 0 1 .42 1.23h-1.06a1.29 1.29 0 0 0-.28-.7 1.81 1.81 0 0 0-1.4-.45 1.7 1.7 0 0 0-1 .25.77.77 0 0 0-.34.65.8.8 0 0 0 .45.71 2.71 2.71 0 0 0 .76.28l.77.18a6.06 6.06 0 0 1 1.68.58 1.53 1.53 0 0 1 .67 1.38 2.08 2.08 0 0 1-.7 1.57 3 3 0 0 1-2.12.66 2.87 2.87 0 0 1-2.18-.69 2.59 2.59 0 0 1-.68-1.7zM500.82 165.68a1.64 1.64 0 0 0 .29.88 1.85 1.85 0 0 0 1.53.55 2.3 2.3 0 0 0 1.14-.28.91.91 0 0 0 .49-.85.73.73 0 0 0-.39-.67 4.73 4.73 0 0 0-1-.32l-.92-.23a4.56 4.56 0 0 1-1.3-.48 1.44 1.44 0 0 1-.75-1.28 2 2 0 0 1 .7-1.56 2.83 2.83 0 0 1 1.89-.6 2.64 2.64 0 0 1 2.25.9 1.94 1.94 0 0 1 .42 1.23h-1.07a1.29 1.29 0 0 0-.28-.7 1.81 1.81 0 0 0-1.4-.45 1.7 1.7 0 0 0-1 .25.77.77 0 0 0-.34.65.8.8 0 0 0 .45.71 2.71 2.71 0 0 0 .76.28l.77.18a6.06 6.06 0 0 1 1.68.58 1.53 1.53 0 0 1 .67 1.38 2.08 2.08 0 0 1-.7 1.57 3 3 0 0 1-2.12.66 2.87 2.87 0 0 1-2.18-.69 2.59 2.59 0 0 1-.68-1.7zM506.87 158.49H508v9.32h-1.14zM513.56 163.7a.62.62 0 0 0 .53-.33 1 1 0 0 0 .08-.44.93.93 0 0 0-.42-.85 2.22 2.22 0 0 0-1.19-.26 1.5 1.5 0 0 0-1.27.48 1.6 1.6 0 0 0-.27.8H510a2 2 0 0 1 .81-1.75 3.34 3.34 0 0 1 1.82-.49 3.69 3.69 0 0 1 1.95.46 1.55 1.55 0 0 1 .74 1.42v3.92a.5.5 0 0 0 .07.29.35.35 0 0 0 .31.11h.37v.84l-.41.1h-.38a.94.94 0 0 1-.86-.42 1.62 1.62 0 0 1-.2-.63 2.91 2.91 0 0 1-1 .79 3.11 3.11 0 0 1-1.44.34 2.14 2.14 0 0 1-1.55-.57 1.9 1.9 0 0 1-.6-1.44 1.85 1.85 0 0 1 .59-1.46 2.81 2.81 0 0 1 1.55-.64zm-2.41 3.09a1.35 1.35 0 0 0 .86.29 2.61 2.61 0 0 0 1.17-.28 1.57 1.57 0 0 0 1-1.51v-.92a2 2 0 0 1-.54.22 4.53 4.53 0 0 1-.65.13l-.69.09a2.68 2.68 0 0 0-.93.26 1 1 0 0 0-.53 1 .94.94 0 0 0 .32.72zM517.35 161h1.09v1a3.05 3.05 0 0 1 1-.86 2.72 2.72 0 0 1 1.2-.26 2 2 0 0 1 2 1 3.58 3.58 0 0 1 .28 1.58v4.36h-1.16v-4.29a2.32 2.32 0 0 0-.18-1 1.12 1.12 0 0 0-1.1-.63 2.26 2.26 0 0 0-.67.08 1.71 1.71 0 0 0-.83.56 1.68 1.68 0 0 0-.37.7 4.64 4.64 0 0 0-.09 1v3.56h-1.14zM525 159.12h1.16V161h1.09v.93h-1.09v4.44a.48.48 0 0 0 .24.48 1 1 0 0 0 .44.07h.38v.91a2.51 2.51 0 0 1-.41.08h-.46a1.24 1.24 0 0 1-1.09-.41 1.82 1.82 0 0 1-.29-1.06v-4.5h-.92V161h.95zM528.58 158.49h1.16v1.29h-1.16zm0 2.56h1.16v6.77h-1.16zM531.66 161h1.09v1a3.05 3.05 0 0 1 1-.86 2.72 2.72 0 0 1 1.2-.26 2 2 0 0 1 2 1 3.58 3.58 0 0 1 .28 1.58v4.36H536v-4.29a2.32 2.32 0 0 0-.18-1 1.12 1.12 0 0 0-1.1-.63 2.26 2.26 0 0 0-.67.08 1.71 1.71 0 0 0-.83.56 1.68 1.68 0 0 0-.37.7 4.64 4.64 0 0 0-.09 1v3.56h-1.14zM542.86 161.29a3.16 3.16 0 0 1 .66.65v-.86h1.05v6.18a4.58 4.58 0 0 1-.38 2 2.72 2.72 0 0 1-2.68 1.38 3.27 3.27 0 0 1-1.84-.49 1.92 1.92 0 0 1-.84-1.54H540a1.3 1.3 0 0 0 .33.71 2.07 2.07 0 0 0 2.92-.55 5.24 5.24 0 0 0 .22-1.95 2.23 2.23 0 0 1-.82.77 2.94 2.94 0 0 1-3.2-.53 3.46 3.46 0 0 1-.83-2.59 3.94 3.94 0 0 1 .83-2.67 2.57 2.57 0 0 1 2-1 2.46 2.46 0 0 1 1.41.49zm.14 1.22a1.66 1.66 0 0 0-1.32-.61A1.63 1.63 0 0 0 540 163a4.44 4.44 0 0 0-.23 1.58 2.82 2.82 0 0 0 .46 1.75 1.5 1.5 0 0 0 1.25.6 1.75 1.75 0 0 0 1.72-1.11 3.61 3.61 0 0 0 .28-1.47 2.85 2.85 0 0 0-.48-1.84zM252.81 163.7a.62.62 0 0 0 .53-.33 1 1 0 0 0 .08-.44.93.93 0 0 0-.42-.85 2.22 2.22 0 0 0-1.19-.26 1.5 1.5 0 0 0-1.27.48 1.6 1.6 0 0 0-.27.8h-1.07a2 2 0 0 1 .81-1.75 3.34 3.34 0 0 1 1.82-.49 3.69 3.69 0 0 1 1.95.46 1.55 1.55 0 0 1 .74 1.42v3.92a.5.5 0 0 0 .07.29.35.35 0 0 0 .31.11h.37v.84l-.41.1h-.38a.94.94 0 0 1-.86-.42 1.62 1.62 0 0 1-.2-.63 2.91 2.91 0 0 1-1 .79 3.11 3.11 0 0 1-1.42.26 2.14 2.14 0 0 1-1.55-.57 1.9 1.9 0 0 1-.6-1.44 1.85 1.85 0 0 1 .59-1.46 2.81 2.81 0 0 1 1.55-.64zm-2.41 3.09a1.35 1.35 0 0 0 .86.29 2.61 2.61 0 0 0 1.17-.28 1.57 1.57 0 0 0 1-1.51v-.92a2 2 0 0 1-.54.22 4.53 4.53 0 0 1-.65.13l-.69.09a2.68 2.68 0 0 0-.93.26 1 1 0 0 0-.53 1 .94.94 0 0 0 .32.72zM256.5 161h1.12v.9a2.77 2.77 0 0 1 .75-.72 2.42 2.42 0 0 1 1.36-.38 2.57 2.57 0 0 1 2 .88 3.62 3.62 0 0 1 .81 2.53 3.88 3.88 0 0 1-1.17 3.17 2.64 2.64 0 0 1-1.72.6 2.35 2.35 0 0 1-1.29-.34 3 3 0 0 1-.68-.65v3.47h-1.18zm4.3 5.33a3.18 3.18 0 0 0 .53-2 3.72 3.72 0 0 0-.24-1.4 1.73 1.73 0 0 0-3.26.06 4.69 4.69 0 0 0-.24 1.61 3.4 3.4 0 0 0 .24 1.34 1.73 1.73 0 0 0 3 .38zM268.22 161.2a2.58 2.58 0 0 1 1 .88 3.05 3.05 0 0 1 .45 1.2 7.89 7.89 0 0 1 .1 1.5h-4.94a2.94 2.94 0 0 0 .48 1.67 1.62 1.62 0 0 0 1.4.63 1.81 1.81 0 0 0 1.42-.59 2 2 0 0 0 .42-.8h1.12a2.37 2.37 0 0 1-.29.83 3 3 0 0 1-.56.75 2.63 2.63 0 0 1-1.28.69 3.88 3.88 0 0 1-.93.1 2.83 2.83 0 0 1-2.14-.92 3.6 3.6 0 0 1-.88-2.59 3.92 3.92 0 0 1 .88-2.66 2.91 2.91 0 0 1 2.31-1 3.07 3.07 0 0 1 1.44.31zm.41 2.67a3 3 0 0 0-.32-1.19 1.64 1.64 0 0 0-1.55-.83 1.72 1.72 0 0 0-1.31.57 2.16 2.16 0 0 0-.56 1.44zM271.48 161h1.09v1.17a2.59 2.59 0 0 1 .65-.83 1.7 1.7 0 0 1 1.2-.49h.37v1.21h-.38a1.63 1.63 0 0 0-1.33.55 1.94 1.94 0 0 0-.46 1.28v3.91h-1.14zM276.2 159.12h1.16V161h1.09v.93h-1.09v4.44a.48.48 0 0 0 .24.48 1 1 0 0 0 .44.07h.4v.91a2.51 2.51 0 0 1-.41.08h-.46a1.24 1.24 0 0 1-1.09-.41 1.82 1.82 0 0 1-.29-1.06v-4.5h-.92V161h.92zM280.92 161v4.51a2 2 0 0 0 .16.85 1.12 1.12 0 0 0 1.11.61 1.56 1.56 0 0 0 1.58-1.07 4.34 4.34 0 0 0 .23-1.57V161h1.14v6.8h-1.08v-1a2.3 2.3 0 0 1-.54.65 2.36 2.36 0 0 1-1.52.55 2 2 0 0 1-1.94-1 2.94 2.94 0 0 1-.28-1.39V161zM287.23 161h1.09v1.17a2.59 2.59 0 0 1 .65-.83 1.7 1.7 0 0 1 1.2-.49h.37v1.21h-.38a1.63 1.63 0 0 0-1.33.55 1.94 1.94 0 0 0-.46 1.28v3.91h-1.14zM295.92 161.2a2.58 2.58 0 0 1 1 .88 3.05 3.05 0 0 1 .45 1.2 7.89 7.89 0 0 1 .1 1.5h-4.94a2.94 2.94 0 0 0 .48 1.67 1.62 1.62 0 0 0 1.4.63 1.81 1.81 0 0 0 1.42-.59 2 2 0 0 0 .42-.8h1.12a2.37 2.37 0 0 1-.29.83 3 3 0 0 1-.56.75 2.63 2.63 0 0 1-1.28.69 3.88 3.88 0 0 1-.93.1 2.83 2.83 0 0 1-2.14-.92 3.6 3.6 0 0 1-.88-2.59 3.92 3.92 0 0 1 .88-2.66 2.91 2.91 0 0 1 2.31-1 3.07 3.07 0 0 1 1.44.31zm.41 2.67a3 3 0 0 0-.32-1.19 1.64 1.64 0 0 0-1.55-.83 1.72 1.72 0 0 0-1.31.57 2.16 2.16 0 0 0-.56 1.44zM661.3 158.49h1.16v1.29h-1.16zm0 2.56h1.16v6.77h-1.16zM664.38 161h1.09v1a3.05 3.05 0 0 1 1-.86 2.72 2.72 0 0 1 1.2-.26 2 2 0 0 1 2 1 3.58 3.58 0 0 1 .28 1.58v4.36h-1.16v-4.29a2.32 2.32 0 0 0-.18-1 1.12 1.12 0 0 0-1.1-.63 2.26 2.26 0 0 0-.67.08 1.71 1.71 0 0 0-.83.56 1.68 1.68 0 0 0-.37.7 4.64 4.64 0 0 0-.09 1v3.56h-1.14zM676.3 161.38a2.68 2.68 0 0 1 .87 1.92h-1.11a2.06 2.06 0 0 0-.46-1 1.46 1.46 0 0 0-1.16-.42 1.6 1.6 0 0 0-1.56 1.06 4.23 4.23 0 0 0-.3 1.71 3.21 3.21 0 0 0 .43 1.72 1.68 1.68 0 0 0 2.48.26 2.37 2.37 0 0 0 .57-1.19h1.11a2.69 2.69 0 0 1-2.9 2.6 2.6 2.6 0 0 1-2.13-1 3.73 3.73 0 0 1-.79-2.43 4.1 4.1 0 0 1 .87-2.79 2.81 2.81 0 0 1 2.22-1 3 3 0 0 1 1.86.56zM678.54 161h1.09v1.17a2.59 2.59 0 0 1 .65-.83 1.7 1.7 0 0 1 1.2-.49h.37v1.21h-.38a1.63 1.63 0 0 0-1.33.55 1.94 1.94 0 0 0-.46 1.28v3.91h-1.14zM687.23 161.2a2.58 2.58 0 0 1 1 .88 3.05 3.05 0 0 1 .45 1.2 7.89 7.89 0 0 1 .1 1.5h-4.94a2.94 2.94 0 0 0 .48 1.67 1.62 1.62 0 0 0 1.4.63 1.81 1.81 0 0 0 1.42-.59 2 2 0 0 0 .42-.8h1.12a2.37 2.37 0 0 1-.29.83 3 3 0 0 1-.56.75 2.63 2.63 0 0 1-1.28.69 3.88 3.88 0 0 1-.93.1 2.83 2.83 0 0 1-2.14-.92 3.6 3.6 0 0 1-.88-2.59 3.92 3.92 0 0 1 .88-2.66 2.91 2.91 0 0 1 2.31-1 3.07 3.07 0 0 1 1.44.31zm.41 2.67a3 3 0 0 0-.32-1.19 1.64 1.64 0 0 0-1.55-.83 1.72 1.72 0 0 0-1.31.57 2.16 2.16 0 0 0-.56 1.44zM694.1 163.7a.62.62 0 0 0 .53-.33 1 1 0 0 0 .08-.44.93.93 0 0 0-.42-.85 2.22 2.22 0 0 0-1.19-.26 1.5 1.5 0 0 0-1.27.48 1.6 1.6 0 0 0-.27.8h-1.07a2 2 0 0 1 .81-1.75 3.34 3.34 0 0 1 1.82-.49 3.69 3.69 0 0 1 1.95.46 1.55 1.55 0 0 1 .74 1.42v3.92a.5.5 0 0 0 .07.29.35.35 0 0 0 .31.11h.37v.84l-.41.1h-.38a.94.94 0 0 1-.86-.42 1.62 1.62 0 0 1-.2-.63 2.91 2.91 0 0 1-1 .79 3.11 3.11 0 0 1-1.44.34 2.14 2.14 0 0 1-1.55-.57 1.9 1.9 0 0 1-.6-1.44 1.85 1.85 0 0 1 .59-1.46 2.81 2.81 0 0 1 1.55-.64zm-2.41 3.09a1.35 1.35 0 0 0 .86.29 2.61 2.61 0 0 0 1.17-.28 1.57 1.57 0 0 0 1-1.51v-.92a2 2 0 0 1-.54.22 4.53 4.53 0 0 1-.65.13l-.69.09a2.68 2.68 0 0 0-.93.26 1 1 0 0 0-.53 1 .94.94 0 0 0 .31.72zM698.56 165.68a1.64 1.64 0 0 0 .29.88 1.85 1.85 0 0 0 1.53.55 2.3 2.3 0 0 0 1.14-.28.91.91 0 0 0 .48-.83.73.73 0 0 0-.39-.67 4.73 4.73 0 0 0-1-.32l-.92-.23a4.56 4.56 0 0 1-1.3-.48 1.44 1.44 0 0 1-.75-1.28 2 2 0 0 1 .7-1.56 2.83 2.83 0 0 1 1.89-.6 2.64 2.64 0 0 1 2.25.9 1.94 1.94 0 0 1 .42 1.23h-1.08a1.29 1.29 0 0 0-.28-.7 1.81 1.81 0 0 0-1.4-.45 1.7 1.7 0 0 0-1 .25.77.77 0 0 0-.34.65.8.8 0 0 0 .45.71 2.71 2.71 0 0 0 .76.28l.77.18a6.06 6.06 0 0 1 1.68.58 1.53 1.53 0 0 1 .67 1.38 2.08 2.08 0 0 1-.7 1.57 3 3 0 0 1-2.12.66 2.87 2.87 0 0 1-2.18-.69 2.59 2.59 0 0 1-.68-1.7zM708.77 161.2a2.58 2.58 0 0 1 1 .88 3.05 3.05 0 0 1 .45 1.2 7.89 7.89 0 0 1 .1 1.5h-4.94a2.94 2.94 0 0 0 .48 1.67 1.62 1.62 0 0 0 1.4.63 1.81 1.81 0 0 0 1.42-.59 2 2 0 0 0 .42-.8h1.12a2.37 2.37 0 0 1-.29.83 3 3 0 0 1-.56.75 2.63 2.63 0 0 1-1.28.69 3.88 3.88 0 0 1-.93.1 2.83 2.83 0 0 1-2.14-.92 3.6 3.6 0 0 1-.88-2.59 3.92 3.92 0 0 1 .88-2.66 2.91 2.91 0 0 1 2.31-1 3.07 3.07 0 0 1 1.44.31zm.41 2.67a3 3 0 0 0-.32-1.19 1.64 1.64 0 0 0-1.55-.83 1.72 1.72 0 0 0-1.31.57 2.16 2.16 0 0 0-.56 1.44zM715.16 161h1.48l1.56 2.39 1.58-2.39h1.39l-2.29 3.28 2.39 3.48h-1.46l-1.69-2.55-1.64 2.55H715l2.39-3.48zM721.65 104.73h1.16V106h-1.16zm0 2.56h1.16v6.77h-1.16zM724.74 107.26h1.09v1a3.05 3.05 0 0 1 1-.86 2.72 2.72 0 0 1 1.2-.26 2 2 0 0 1 2 1 3.58 3.58 0 0 1 .28 1.58v4.36h-1.16v-4.29a2.32 2.32 0 0 0-.18-1 1.12 1.12 0 0 0-1.1-.63 2.26 2.26 0 0 0-.67.08 1.71 1.71 0 0 0-.83.56 1.68 1.68 0 0 0-.37.7 4.64 4.64 0 0 0-.09 1v3.56h-1.14zM736.65 107.62a2.68 2.68 0 0 1 .87 1.92h-1.11a2.06 2.06 0 0 0-.46-1 1.46 1.46 0 0 0-1.16-.42 1.6 1.6 0 0 0-1.56 1.06 4.23 4.23 0 0 0-.3 1.71 3.21 3.21 0 0 0 .43 1.72 1.68 1.68 0 0 0 2.48.26 2.37 2.37 0 0 0 .57-1.19h1.11a2.69 2.69 0 0 1-2.9 2.6 2.6 2.6 0 0 1-2.13-1 3.73 3.73 0 0 1-.79-2.43 4.1 4.1 0 0 1 .87-2.79 2.81 2.81 0 0 1 2.22-1 3 3 0 0 1 1.86.56zM739.13 112.67h1.33v1.38h-1.33zM750.72 107.26H752q-.24.65-1.07 3-.62 1.75-1 2.86a19.3 19.3 0 0 1-1.4 3.17 1.59 1.59 0 0 1-1.4.57h-.37l-.32-.07v-1l.43.1h.23a.82.82 0 0 0 .47-.1 1 1 0 0 0 .25-.26s.1-.21.23-.52l.29-.7-2.51-7h1.29l1.82 5.54zM20.06 156.69a3.43 3.43 0 0 1 .9 2.58 4.44 4.44 0 0 1-.79 2.71 2.87 2.87 0 0 1-2.46 1.07 2.78 2.78 0 0 1-2.21-.95 3.76 3.76 0 0 1-.82-2.55 4.07 4.07 0 0 1 .86-2.73 2.89 2.89 0 0 1 2.32-1 3 3 0 0 1 2.2.87zm-.71 4.52a4.32 4.32 0 0 0 .42-1.91 3.44 3.44 0 0 0-.3-1.55 1.69 1.69 0 0 0-1.64-.94 1.62 1.62 0 0 0-1.51.8 3.73 3.73 0 0 0-.47 1.93 3.24 3.24 0 0 0 .47 1.81 1.65 1.65 0 0 0 1.49.72 1.56 1.56 0 0 0 1.54-.86zM23.12 156l1.82 5.54 1.88-5.54h1.25l-2.56 6.8H24.3l-2.51-6.8zM33.45 156.2a2.58 2.58 0 0 1 1 .88 3.05 3.05 0 0 1 .45 1.2 7.89 7.89 0 0 1 .1 1.5h-4.91a2.94 2.94 0 0 0 .48 1.67 1.62 1.62 0 0 0 1.4.63 1.81 1.81 0 0 0 1.42-.59 2 2 0 0 0 .42-.8h1.12a2.37 2.37 0 0 1-.29.83 3 3 0 0 1-.56.75 2.63 2.63 0 0 1-1.28.69 3.88 3.88 0 0 1-.93.1 2.83 2.83 0 0 1-2.14-.92 3.6 3.6 0 0 1-.88-2.59 3.92 3.92 0 0 1 .88-2.66 2.91 2.91 0 0 1 2.31-1 3.07 3.07 0 0 1 1.41.31zm.41 2.67a3 3 0 0 0-.32-1.19 1.64 1.64 0 0 0-1.55-.83 1.72 1.72 0 0 0-1.31.57 2.16 2.16 0 0 0-.56 1.44zM36.71 156h1.09v1.17a2.59 2.59 0 0 1 .65-.83 1.7 1.7 0 0 1 1.2-.49h.37v1.21h-.38a1.63 1.63 0 0 0-1.33.55 1.94 1.94 0 0 0-.46 1.28v3.91h-1.14zM41.88 160.68a1.64 1.64 0 0 0 .29.88 1.85 1.85 0 0 0 1.53.55 2.3 2.3 0 0 0 1.14-.28.91.91 0 0 0 .49-.85.73.73 0 0 0-.39-.67 4.73 4.73 0 0 0-1-.32l-.92-.23a4.56 4.56 0 0 1-1.3-.48A1.44 1.44 0 0 1 41 158a2 2 0 0 1 .7-1.56 2.83 2.83 0 0 1 1.89-.6 2.64 2.64 0 0 1 2.25.9 1.94 1.94 0 0 1 .42 1.23h-1.11a1.29 1.29 0 0 0-.28-.7 1.81 1.81 0 0 0-1.4-.45 1.7 1.7 0 0 0-1 .25.77.77 0 0 0-.34.65.8.8 0 0 0 .45.71 2.71 2.71 0 0 0 .76.28l.77.18a6.06 6.06 0 0 1 1.68.58 1.53 1.53 0 0 1 .67 1.38 2.08 2.08 0 0 1-.7 1.57 3 3 0 0 1-2.12.66 2.87 2.87 0 0 1-2.18-.69 2.59 2.59 0 0 1-.68-1.7zM47.9 153.46H49v3.48a3.3 3.3 0 0 1 .73-.72 2.46 2.46 0 0 1 1.38-.36 2 2 0 0 1 2 1 3.53 3.53 0 0 1 .29 1.57v4.36h-1.14v-4.29a2.39 2.39 0 0 0-.19-1.1 1.22 1.22 0 0 0-1.17-.56 2 2 0 0 0-1.29.49 2.35 2.35 0 0 0-.58 1.85v3.61H47.9zM60.25 156.69a3.43 3.43 0 0 1 .9 2.58 4.44 4.44 0 0 1-.79 2.71 2.87 2.87 0 0 1-2.46 1.07 2.78 2.78 0 0 1-2.21-.95 3.76 3.76 0 0 1-.82-2.55 4.07 4.07 0 0 1 .86-2.73 2.89 2.89 0 0 1 2.32-1 3 3 0 0 1 2.2.87zm-.71 4.52a4.32 4.32 0 0 0 .46-1.91 3.44 3.44 0 0 0-.3-1.55 1.69 1.69 0 0 0-1.64-.94 1.62 1.62 0 0 0-1.51.8 3.73 3.73 0 0 0-.47 1.93 3.24 3.24 0 0 0 .47 1.81 1.65 1.65 0 0 0 1.49.72 1.56 1.56 0 0 0 1.5-.86zM67.67 156.69a3.43 3.43 0 0 1 .9 2.58 4.44 4.44 0 0 1-.79 2.71 2.87 2.87 0 0 1-2.46 1.07 2.78 2.78 0 0 1-2.21-.95 3.76 3.76 0 0 1-.82-2.55 4.07 4.07 0 0 1 .86-2.73 2.89 2.89 0 0 1 2.32-1 3 3 0 0 1 2.2.87zm-.67 4.52a4.32 4.32 0 0 0 .42-1.91 3.44 3.44 0 0 0-.3-1.55 1.69 1.69 0 0 0-1.64-.94 1.62 1.62 0 0 0-1.51.8 3.73 3.73 0 0 0-.47 1.93 3.24 3.24 0 0 0 .47 1.81 1.65 1.65 0 0 0 1.49.72 1.56 1.56 0 0 0 1.54-.86zM70.4 154.12h1.16V156h1.09v.93h-1.1v4.44a.48.48 0 0 0 .24.48 1 1 0 0 0 .44.07h.4v.91a2.51 2.51 0 0 1-.41.08h-.46a1.24 1.24 0 0 1-1.09-.41 1.82 1.82 0 0 1-.29-1.06v-4.5h-.92V156h.92zM20.22 51.4a3.43 3.43 0 0 1 .9 2.58 4.44 4.44 0 0 1-.79 2.71 2.87 2.87 0 0 1-2.46 1.07 2.78 2.78 0 0 1-2.21-.95 3.76 3.76 0 0 1-.82-2.55 4.07 4.07 0 0 1 .86-2.73 2.89 2.89 0 0 1 2.32-1 3 3 0 0 1 2.2.87zm-.71 4.52a4.32 4.32 0 0 0 .42-1.92 3.44 3.44 0 0 0-.3-1.55 1.69 1.69 0 0 0-1.63-.93 1.62 1.62 0 0 0-1.51.8 3.73 3.73 0 0 0-.49 1.93 3.24 3.24 0 0 0 .47 1.81 1.65 1.65 0 0 0 1.49.72 1.56 1.56 0 0 0 1.55-.86zM23.28 50.72l1.82 5.54 1.9-5.54h1.25l-2.56 6.8h-1.23L22 50.72zM33.61 50.91a2.58 2.58 0 0 1 1 .88A3.05 3.05 0 0 1 35.1 53a7.89 7.89 0 0 1 .1 1.5h-4.95a2.94 2.94 0 0 0 .48 1.67 1.62 1.62 0 0 0 1.4.63 1.81 1.81 0 0 0 1.42-.59 2 2 0 0 0 .42-.8h1.13a2.37 2.37 0 0 1-.29.83 3 3 0 0 1-.56.75 2.63 2.63 0 0 1-1.28.69 3.88 3.88 0 0 1-.93.1 2.83 2.83 0 0 1-2.14-.92 3.6 3.6 0 0 1-.9-2.61 3.92 3.92 0 0 1 .88-2.66 2.91 2.91 0 0 1 2.31-1 3.07 3.07 0 0 1 1.42.32zm.39 2.67a3 3 0 0 0-.32-1.19 1.64 1.64 0 0 0-1.55-.83 1.72 1.72 0 0 0-1.31.57 2.16 2.16 0 0 0-.56 1.44zM36.87 50.72H38v1.17a2.59 2.59 0 0 1 .65-.83 1.7 1.7 0 0 1 1.2-.49h.37v1.23H39.8a1.63 1.63 0 0 0-1.33.55 1.94 1.94 0 0 0-.47 1.26v3.91h-1.13zM42 55.38a1.64 1.64 0 0 0 .29.88 1.85 1.85 0 0 0 1.53.55 2.3 2.3 0 0 0 1.18-.27.91.91 0 0 0 .49-.85.73.73 0 0 0-.39-.69 4.73 4.73 0 0 0-1-.32l-.92-.23a4.56 4.56 0 0 1-1.3-.48 1.44 1.44 0 0 1-.75-1.28 2 2 0 0 1 .7-1.56 2.83 2.83 0 0 1 1.89-.6 2.64 2.64 0 0 1 2.25.9 1.94 1.94 0 0 1 .42 1.23h-1.07A1.29 1.29 0 0 0 45 52a1.81 1.81 0 0 0-1.4-.45 1.7 1.7 0 0 0-1 .25.77.77 0 0 0-.34.65.8.8 0 0 0 .45.71 2.71 2.71 0 0 0 .76.28l.77.18a6.06 6.06 0 0 1 1.68.58 1.53 1.53 0 0 1 .67 1.38 2.08 2.08 0 0 1-.7 1.57 3 3 0 0 1-2.12.66 2.87 2.87 0 0 1-2.18-.69 2.59 2.59 0 0 1-.68-1.7zM48.06 48.16h1.14v3.48a3.3 3.3 0 0 1 .73-.72 2.46 2.46 0 0 1 1.38-.36 2 2 0 0 1 2 1 3.53 3.53 0 0 1 .29 1.57v4.36h-1.17v-4.26a2.39 2.39 0 0 0-.19-1.1 1.22 1.22 0 0 0-1.17-.56 2 2 0 0 0-1.29.49 2.35 2.35 0 0 0-.58 1.85v3.61h-1.14zM60.41 51.4a3.43 3.43 0 0 1 .9 2.58 4.44 4.44 0 0 1-.79 2.71 2.87 2.87 0 0 1-2.46 1.07 2.78 2.78 0 0 1-2.21-.95 3.76 3.76 0 0 1-.85-2.55 4.07 4.07 0 0 1 .86-2.73 2.89 2.89 0 0 1 2.32-1 3 3 0 0 1 2.23.87zm-.71 4.52a4.32 4.32 0 0 0 .42-1.92 3.44 3.44 0 0 0-.3-1.55 1.69 1.69 0 0 0-1.64-.94 1.62 1.62 0 0 0-1.51.8 3.73 3.73 0 0 0-.47 1.93 3.24 3.24 0 0 0 .47 1.81 1.65 1.65 0 0 0 1.49.72 1.56 1.56 0 0 0 1.54-.85zM67.84 51.4a3.43 3.43 0 0 1 .9 2.58 4.44 4.44 0 0 1-.79 2.71 2.87 2.87 0 0 1-2.46 1.07 2.78 2.78 0 0 1-2.21-.95 3.76 3.76 0 0 1-.82-2.55 4.07 4.07 0 0 1 .86-2.73 2.89 2.89 0 0 1 2.32-1 3 3 0 0 1 2.2.87zm-.71 4.52a4.32 4.32 0 0 0 .41-1.92 3.44 3.44 0 0 0-.3-1.55 1.69 1.69 0 0 0-1.64-.94 1.62 1.62 0 0 0-1.51.8 3.73 3.73 0 0 0-.47 1.93 3.24 3.24 0 0 0 .47 1.81 1.65 1.65 0 0 0 1.49.72 1.56 1.56 0 0 0 1.55-.85zM70.56 48.82h1.16v1.9h1.08v.93h-1.08v4.44a.48.48 0 0 0 .24.48 1 1 0 0 0 .44.07h.4v.91a2.51 2.51 0 0 1-.41.08h-.46a1.24 1.24 0 0 1-1.09-.41 1.82 1.82 0 0 1-.29-1.06v-4.5h-.92v-.93h.92zM25.52 65.8H27l1.56 2.39 1.58-2.39h1.39l-2.29 3.28 2.39 3.48h-1.46L28.48 70l-1.63 2.6H25.4l2.39-3.48zM32.56 68.39h3.19v1.17h-3.19zM37.39 63.25h1.14v3.48a3.3 3.3 0 0 1 .73-.72 2.46 2.46 0 0 1 1.38-.36 2 2 0 0 1 2 1 3.53 3.53 0 0 1 .29 1.57v4.38h-1.18v-4.28a2.39 2.39 0 0 0-.19-1.1 1.22 1.22 0 0 0-1.17-.56 2 2 0 0 0-1.29.49 2.35 2.35 0 0 0-.57 1.85v3.6h-1.14zM49 66a2.58 2.58 0 0 1 1 .88 3.05 3.05 0 0 1 .45 1.2 7.89 7.89 0 0 1 .1 1.5h-4.9a2.94 2.94 0 0 0 .48 1.67 1.62 1.62 0 0 0 1.4.63 1.81 1.81 0 0 0 1.47-.61 2 2 0 0 0 .42-.8h1.08a2.37 2.37 0 0 1-.29.83 3 3 0 0 1-.56.75 2.63 2.63 0 0 1-1.28.69 3.88 3.88 0 0 1-.93.1 2.83 2.83 0 0 1-2.14-.92 3.6 3.6 0 0 1-.88-2.59 3.92 3.92 0 0 1 .88-2.66 2.91 2.91 0 0 1 2.31-1A3.07 3.07 0 0 1 49 66zm.41 2.67a3 3 0 0 0-.32-1.19 1.64 1.64 0 0 0-1.55-.83 1.72 1.72 0 0 0-1.31.57 2.16 2.16 0 0 0-.56 1.44zM52.24 63.28h1.16v1.29h-1.16zm0 2.56h1.16v6.76h-1.16zM59.1 66.08a3.16 3.16 0 0 1 .66.65v-.86h1.05V72a4.58 4.58 0 0 1-.38 2 2.72 2.72 0 0 1-2.68 1.38 3.27 3.27 0 0 1-1.84-.38 1.92 1.92 0 0 1-.84-1.54h1.16a1.3 1.3 0 0 0 .33.71 2.07 2.07 0 0 0 2.92-.55 5.24 5.24 0 0 0 .22-1.95 2.23 2.23 0 0 1-.82.77 2.94 2.94 0 0 1-3.2-.53 3.46 3.46 0 0 1-.83-2.59 3.94 3.94 0 0 1 .83-2.67 2.57 2.57 0 0 1 2-1 2.46 2.46 0 0 1 1.42.43zm.14 1.22a1.66 1.66 0 0 0-1.32-.61 1.63 1.63 0 0 0-1.64 1.13A4.44 4.44 0 0 0 56 69.4a2.82 2.82 0 0 0 .46 1.75 1.5 1.5 0 0 0 1.25.6 1.75 1.75 0 0 0 1.72-1.11 3.61 3.61 0 0 0 .28-1.47 2.85 2.85 0 0 0-.47-1.87zM62.75 63.25h1.14v3.48a3.3 3.3 0 0 1 .73-.72 2.46 2.46 0 0 1 1.38-.37 2 2 0 0 1 2 1 3.53 3.53 0 0 1 .29 1.57v4.39h-1.18v-4.28a2.39 2.39 0 0 0-.19-1.1 1.22 1.22 0 0 0-1.17-.56 2 2 0 0 0-1.29.49 2.35 2.35 0 0 0-.57 1.85v3.6h-1.14zM70.4 63.91h1.16v1.9h1.09v.93h-1.1v4.44a.48.48 0 0 0 .24.48 1 1 0 0 0 .44.07h.4v.91a2.51 2.51 0 0 1-.41.08h-.46a1.24 1.24 0 0 1-1.09-.41 1.82 1.82 0 0 1-.29-1.06v-4.5h-.92v-.95h.92zM14.11 101.11h1.11v3.38a2.51 2.51 0 0 1 2-1 2.66 2.66 0 0 1 2.07.87 3.71 3.71 0 0 1 .79 2.57 4.4 4.4 0 0 1-.78 2.68 2.55 2.55 0 0 1-2.17 1.07 2.24 2.24 0 0 1-1.31-.37 3.19 3.19 0 0 1-.68-.71v.87h-1.03zm4.37 7.83a3.62 3.62 0 0 0 .46-1.94 3.18 3.18 0 0 0-.46-1.78 1.52 1.52 0 0 0-1.36-.7 1.9 1.9 0 0 0-1.37.58 2.59 2.59 0 0 0-.59 1.9 4.19 4.19 0 0 0 .24 1.56 1.67 1.67 0 0 0 1.69 1.12 1.53 1.53 0 0 0 1.39-.74zM25.27 106.36a.62.62 0 0 0 .53-.33 1 1 0 0 0 .08-.44.93.93 0 0 0-.42-.85 2.22 2.22 0 0 0-1.19-.26A1.5 1.5 0 0 0 23 105a1.6 1.6 0 0 0-.27.8h-1.06a2 2 0 0 1 .81-1.75 3.34 3.34 0 0 1 1.82-.49 3.69 3.69 0 0 1 1.95.46 1.55 1.55 0 0 1 .74 1.42v3.92a.5.5 0 0 0 .07.29.35.35 0 0 0 .31.11h.37v.84l-.41.1h-.38a.94.94 0 0 1-.86-.42 1.62 1.62 0 0 1-.2-.63 2.91 2.91 0 0 1-1 .79 3.11 3.11 0 0 1-1.44.34 2.14 2.14 0 0 1-1.55-.57 1.9 1.9 0 0 1-.6-1.44 1.85 1.85 0 0 1 .59-1.46 2.81 2.81 0 0 1 1.55-.64zm-2.41 3.09a1.35 1.35 0 0 0 .86.29 2.61 2.61 0 0 0 1.17-.28 1.57 1.57 0 0 0 1-1.51V107a2 2 0 0 1-.54.22 4.53 4.53 0 0 1-.65.13l-.69.09a2.68 2.68 0 0 0-.93.26 1 1 0 0 0-.53 1 .94.94 0 0 0 .32.74zM29.09 103.67h1.09v1.17a2.59 2.59 0 0 1 .65-.83 1.7 1.7 0 0 1 1.2-.49h.37v1.21H32a1.63 1.63 0 0 0-1.33.55 1.94 1.94 0 0 0-.46 1.28v3.91h-1.12zM37.39 101.11h1.14v3.48a3.3 3.3 0 0 1 .73-.72 2.46 2.46 0 0 1 1.38-.36 2 2 0 0 1 2 1 3.53 3.53 0 0 1 .29 1.57v4.36h-1.18v-4.29a2.39 2.39 0 0 0-.19-1.1 1.22 1.22 0 0 0-1.17-.56 2 2 0 0 0-1.29.49 2.35 2.35 0 0 0-.58 1.85v3.61h-1.13zM49 103.86a2.58 2.58 0 0 1 1 .88 3.05 3.05 0 0 1 .45 1.2 7.89 7.89 0 0 1 .1 1.5h-4.9a2.94 2.94 0 0 0 .48 1.67 1.62 1.62 0 0 0 1.4.63 1.81 1.81 0 0 0 1.42-.59 2 2 0 0 0 .42-.8h1.13a2.37 2.37 0 0 1-.29.83 3 3 0 0 1-.56.75 2.63 2.63 0 0 1-1.28.69 3.88 3.88 0 0 1-.93.1 2.83 2.83 0 0 1-2.14-.92 3.6 3.6 0 0 1-.88-2.59 3.92 3.92 0 0 1 .88-2.66 2.91 2.91 0 0 1 2.31-1 3.07 3.07 0 0 1 1.39.31zm.41 2.67a3 3 0 0 0-.32-1.19 1.64 1.64 0 0 0-1.55-.83 1.72 1.72 0 0 0-1.31.57 2.16 2.16 0 0 0-.56 1.44zM52.24 101.15h1.16v1.29h-1.16zm0 2.56h1.16v6.77h-1.16zM59.1 103.94a3.16 3.16 0 0 1 .66.65v-.86h1.05v6.18a4.58 4.58 0 0 1-.38 2 2.72 2.72 0 0 1-2.68 1.38 3.27 3.27 0 0 1-1.84-.49 1.92 1.92 0 0 1-.84-1.54h1.16a1.3 1.3 0 0 0 .33.71 2.07 2.07 0 0 0 2.92-.55 5.24 5.24 0 0 0 .22-1.95 2.23 2.23 0 0 1-.82.77 2.94 2.94 0 0 1-3.2-.53 3.46 3.46 0 0 1-.83-2.59 3.94 3.94 0 0 1 .83-2.67 2.57 2.57 0 0 1 2-1 2.46 2.46 0 0 1 1.42.49zm.14 1.22a1.66 1.66 0 0 0-1.32-.61 1.63 1.63 0 0 0-1.64 1.13 4.44 4.44 0 0 0-.23 1.58 2.82 2.82 0 0 0 .46 1.75 1.5 1.5 0 0 0 1.25.6 1.75 1.75 0 0 0 1.72-1.11 3.61 3.61 0 0 0 .28-1.47 2.85 2.85 0 0 0-.52-1.86zM62.75 101.11h1.14v3.48a3.3 3.3 0 0 1 .73-.72 2.46 2.46 0 0 1 1.38-.36 2 2 0 0 1 2 1 3.53 3.53 0 0 1 .29 1.57v4.36h-1.18v-4.29a2.39 2.39 0 0 0-.19-1.1 1.22 1.22 0 0 0-1.17-.56 2 2 0 0 0-1.29.49 2.35 2.35 0 0 0-.58 1.85v3.61h-1.13zM70.4 101.77h1.16v1.9h1.09v.93h-1.1v4.4a.48.48 0 0 0 .24.48 1 1 0 0 0 .44.07h.4v.91a2.51 2.51 0 0 1-.41.08h-.46a1.24 1.24 0 0 1-1.09-.41 1.82 1.82 0 0 1-.29-1.06v-4.5h-.92v-.93h.92zM16.53 32.23a2.68 2.68 0 0 1 .87 1.92h-1.12a2.06 2.06 0 0 0-.46-1 1.46 1.46 0 0 0-1.16-.42 1.6 1.6 0 0 0-1.56 1.06 4.23 4.23 0 0 0-.3 1.71 3.21 3.21 0 0 0 .43 1.72 1.48 1.48 0 0 0 1.36.7 1.49 1.49 0 0 0 1.13-.43 2.37 2.37 0 0 0 .57-1.19h1.11a3 3 0 0 1-1 2 3 3 0 0 1-1.95.63 2.6 2.6 0 0 1-2.13-1 3.73 3.73 0 0 1-.79-2.43 4.1 4.1 0 0 1 .87-2.79 2.81 2.81 0 0 1 2.22-1 3 3 0 0 1 1.91.52zM22.37 34.55a.62.62 0 0 0 .53-.33 1 1 0 0 0 .08-.44.93.93 0 0 0-.42-.85 2.22 2.22 0 0 0-1.19-.26 1.5 1.5 0 0 0-1.27.48 1.6 1.6 0 0 0-.27.8h-1.06a2 2 0 0 1 .81-1.75 3.34 3.34 0 0 1 1.82-.49 3.69 3.69 0 0 1 1.95.46 1.55 1.55 0 0 1 .74 1.42v3.91a.5.5 0 0 0 .07.29.35.35 0 0 0 .31.11h.37v.84l-.41.1h-.38a.94.94 0 0 1-.86-.42 1.62 1.62 0 0 1-.2-.63 2.91 2.91 0 0 1-1 .79 3.11 3.11 0 0 1-1.44.34 2.14 2.14 0 0 1-1.55-.6 1.9 1.9 0 0 1-.6-1.44 1.85 1.85 0 0 1 .6-1.46 2.81 2.81 0 0 1 1.55-.64zM20 37.64a1.35 1.35 0 0 0 .86.29 2.61 2.61 0 0 0 1.14-.29 1.57 1.57 0 0 0 1-1.51v-.92a2 2 0 0 1-.54.22 4.53 4.53 0 0 1-.65.13l-.69.09a2.68 2.68 0 0 0-.93.26 1 1 0 0 0-.53 1 .94.94 0 0 0 .34.73zM26.06 31.9h1.12v.9a2.77 2.77 0 0 1 .75-.72 2.42 2.42 0 0 1 1.36-.38 2.57 2.57 0 0 1 2 .88 3.62 3.62 0 0 1 .81 2.53 3.88 3.88 0 0 1-1.17 3.17 2.64 2.64 0 0 1-1.72.6 2.35 2.35 0 0 1-1.29-.34 3 3 0 0 1-.68-.65v3.47h-1.18zm4.3 5.33a3.18 3.18 0 0 0 .53-2 3.72 3.72 0 0 0-.24-1.4 1.73 1.73 0 0 0-3.26.06 4.69 4.69 0 0 0-.24 1.61 3.4 3.4 0 0 0 .24 1.34 1.73 1.73 0 0 0 3 .38zM37.39 29.31h1.14v3.48a3.3 3.3 0 0 1 .73-.72 2.46 2.46 0 0 1 1.38-.36 2 2 0 0 1 2 1 3.53 3.53 0 0 1 .29 1.57v4.36h-1.18v-4.26a2.39 2.39 0 0 0-.19-1.1 1.22 1.22 0 0 0-1.17-.56 2 2 0 0 0-1.29.49 2.35 2.35 0 0 0-.58 1.85v3.61h-1.13zM49 32.05a2.58 2.58 0 0 1 1 .88 3.05 3.05 0 0 1 .45 1.2 7.89 7.89 0 0 1 .1 1.5h-4.9a2.94 2.94 0 0 0 .48 1.67 1.62 1.62 0 0 0 1.4.63 1.81 1.81 0 0 0 1.47-.6 2 2 0 0 0 .42-.8h1.08a2.37 2.37 0 0 1-.29.83 3 3 0 0 1-.56.75 2.63 2.63 0 0 1-1.28.69 3.88 3.88 0 0 1-.93.1 2.83 2.83 0 0 1-2.14-.9 3.6 3.6 0 0 1-.88-2.59 3.92 3.92 0 0 1 .88-2.66 2.91 2.91 0 0 1 2.31-1 3.07 3.07 0 0 1 1.39.3zm.41 2.67a3 3 0 0 0-.32-1.19 1.64 1.64 0 0 0-1.55-.83 1.72 1.72 0 0 0-1.31.57 2.16 2.16 0 0 0-.56 1.44zM52.24 29.34h1.16v1.29h-1.16zm0 2.56h1.16v6.77h-1.16zM59.1 32.14a3.16 3.16 0 0 1 .66.65v-.86h1.05v6.18a4.58 4.58 0 0 1-.38 2 2.72 2.72 0 0 1-2.68 1.38 3.27 3.27 0 0 1-1.83-.49 1.92 1.92 0 0 1-.84-1.54h1.16a1.3 1.3 0 0 0 .33.71 2.07 2.07 0 0 0 2.92-.55 5.24 5.24 0 0 0 .22-1.95 2.23 2.23 0 0 1-.82.77A2.94 2.94 0 0 1 55.7 38a3.46 3.46 0 0 1-.83-2.59 3.94 3.94 0 0 1 .83-2.67 2.57 2.57 0 0 1 2-1 2.46 2.46 0 0 1 1.4.4zm.14 1.22a1.66 1.66 0 0 0-1.32-.61 1.63 1.63 0 0 0-1.64 1.13 4.44 4.44 0 0 0-.28 1.59 2.82 2.82 0 0 0 .46 1.75 1.5 1.5 0 0 0 1.25.6 1.75 1.75 0 0 0 1.72-1.11 3.61 3.61 0 0 0 .28-1.47 2.85 2.85 0 0 0-.47-1.87zM62.75 29.31h1.14v3.48a3.3 3.3 0 0 1 .73-.72A2.46 2.46 0 0 1 66 31.7a2 2 0 0 1 2 1 3.53 3.53 0 0 1 .29 1.57v4.36h-1.18v-4.25a2.39 2.39 0 0 0-.19-1.1 1.22 1.22 0 0 0-1.17-.56 2 2 0 0 0-1.29.49 2.35 2.35 0 0 0-.58 1.85v3.61h-1.13zM70.4 30h1.16v1.9h1.09v.93h-1.1v4.44a.48.48 0 0 0 .24.48 1 1 0 0 0 .44.07h.4v.91a2.51 2.51 0 0 1-.41.08h-.46a1.24 1.24 0 0 1-1.09-.41 1.82 1.82 0 0 1-.29-1.06V32.8h-.92v-.93h.92zM392.88 159.12H394V161h1.09v.93H394v4.44a.48.48 0 0 0 .24.48 1 1 0 0 0 .44.07h.4v.91a2.51 2.51 0 0 1-.41.08h-.46a1.24 1.24 0 0 1-1.09-.41 1.82 1.82 0 0 1-.29-1.06v-4.5H392V161h.92zM400.1 163.7a.62.62 0 0 0 .53-.33 1 1 0 0 0 .08-.44.93.93 0 0 0-.42-.85 2.22 2.22 0 0 0-1.19-.26 1.5 1.5 0 0 0-1.27.48 1.6 1.6 0 0 0-.27.8h-1.06a2 2 0 0 1 .81-1.75 3.34 3.34 0 0 1 1.82-.49 3.69 3.69 0 0 1 1.95.46 1.55 1.55 0 0 1 .74 1.42v3.92a.5.5 0 0 0 .07.29.35.35 0 0 0 .31.11h.37v.84l-.41.1h-.38a.94.94 0 0 1-.86-.42 1.62 1.62 0 0 1-.2-.63 2.91 2.91 0 0 1-1 .79 3.11 3.11 0 0 1-1.44.34 2.14 2.14 0 0 1-1.55-.57 1.9 1.9 0 0 1-.6-1.44 1.85 1.85 0 0 1 .59-1.46 2.81 2.81 0 0 1 1.55-.64zm-2.41 3.09a1.35 1.35 0 0 0 .86.29 2.61 2.61 0 0 0 1.17-.28 1.57 1.57 0 0 0 1-1.51v-.92a2 2 0 0 1-.54.22 4.53 4.53 0 0 1-.65.13l-.69.09a2.68 2.68 0 0 0-.93.26 1 1 0 0 0-.53 1 .94.94 0 0 0 .32.72zM403.79 161h1.12v.9a2.77 2.77 0 0 1 .75-.72 2.42 2.42 0 0 1 1.36-.38 2.57 2.57 0 0 1 2 .88 3.62 3.62 0 0 1 .81 2.53 3.88 3.88 0 0 1-1.17 3.17 2.64 2.64 0 0 1-1.72.6 2.35 2.35 0 0 1-1.29-.34 3 3 0 0 1-.68-.65v3.47h-1.14zm4.3 5.33a3.18 3.18 0 0 0 .53-2 3.72 3.72 0 0 0-.24-1.4 1.73 1.73 0 0 0-3.26.06 4.69 4.69 0 0 0-.24 1.61 3.4 3.4 0 0 0 .24 1.34 1.73 1.73 0 0 0 3 .38zM415.51 161.2a2.58 2.58 0 0 1 1 .88 3.05 3.05 0 0 1 .45 1.2 7.89 7.89 0 0 1 .1 1.5h-4.94a2.94 2.94 0 0 0 .48 1.67 1.62 1.62 0 0 0 1.4.63 1.81 1.81 0 0 0 1.42-.59 2 2 0 0 0 .42-.8H417a2.37 2.37 0 0 1-.29.83 3 3 0 0 1-.56.75 2.63 2.63 0 0 1-1.28.69 3.88 3.88 0 0 1-.93.1 2.83 2.83 0 0 1-2.14-.92 3.6 3.6 0 0 1-.88-2.59 3.92 3.92 0 0 1 .88-2.66 2.91 2.91 0 0 1 2.31-1 3.07 3.07 0 0 1 1.4.31zm.41 2.67a3 3 0 0 0-.32-1.19 1.64 1.64 0 0 0-1.55-.83 1.72 1.72 0 0 0-1.31.57 2.16 2.16 0 0 0-.56 1.44zM418.76 161h1.09v1.17a2.59 2.59 0 0 1 .65-.83 1.7 1.7 0 0 1 1.2-.49h.37v1.21h-.38a1.63 1.63 0 0 0-1.33.55 1.94 1.94 0 0 0-.46 1.28v3.91h-1.14zM22.58 21.34a.62.62 0 0 0 .53-.33 1 1 0 0 0 .08-.44.93.93 0 0 0-.42-.85 2.22 2.22 0 0 0-1.19-.26 1.5 1.5 0 0 0-1.27.48 1.6 1.6 0 0 0-.27.8H19a2 2 0 0 1 .79-1.74 3.34 3.34 0 0 1 1.82-.49 3.69 3.69 0 0 1 1.95.46 1.55 1.55 0 0 1 .74 1.42v3.92a.5.5 0 0 0 .07.29.35.35 0 0 0 .31.11h.37v.84l-.41.1h-.38a.94.94 0 0 1-.86-.42 1.62 1.62 0 0 1-.2-.63 2.91 2.91 0 0 1-1 .79 3.11 3.11 0 0 1-1.44.34 2.14 2.14 0 0 1-1.55-.57 1.9 1.9 0 0 1-.6-1.44 1.85 1.85 0 0 1 .59-1.46 2.81 2.81 0 0 1 1.55-.64zm-2.41 3.09a1.35 1.35 0 0 0 .86.29 2.61 2.61 0 0 0 1.17-.28 1.57 1.57 0 0 0 1-1.51V22a2 2 0 0 1-.54.22 4.53 4.53 0 0 1-.65.13l-.69.09a2.68 2.68 0 0 0-.93.26 1 1 0 0 0-.53 1 .94.94 0 0 0 .32.73zM27 23.33a1.64 1.64 0 0 0 .29.88 1.85 1.85 0 0 0 1.53.55 2.3 2.3 0 0 0 1.18-.28.91.91 0 0 0 .49-.85.73.73 0 0 0-.39-.63 4.73 4.73 0 0 0-1-.32l-.92-.23a4.56 4.56 0 0 1-1.3-.48 1.44 1.44 0 0 1-.75-1.28 2 2 0 0 1 .7-1.56 2.83 2.83 0 0 1 1.89-.6 2.64 2.64 0 0 1 2.25.9 1.94 1.94 0 0 1 .42 1.23h-1.07a1.29 1.29 0 0 0-.28-.7 1.81 1.81 0 0 0-1.4-.45 1.7 1.7 0 0 0-1 .25.77.77 0 0 0-.34.65.8.8 0 0 0 .45.71 2.71 2.71 0 0 0 .76.28l.77.18a6.06 6.06 0 0 1 1.68.58 1.53 1.53 0 0 1 .67 1.38 2.08 2.08 0 0 1-.7 1.57 3 3 0 0 1-2.12.66 2.87 2.87 0 0 1-2.18-.77 2.59 2.59 0 0 1-.68-1.7zM37.55 19a2.68 2.68 0 0 1 .87 1.92h-1.11a2.06 2.06 0 0 0-.46-1 1.46 1.46 0 0 0-1.16-.42 1.6 1.6 0 0 0-1.56 1.06 4.23 4.23 0 0 0-.3 1.71 3.21 3.21 0 0 0 .42 1.73 1.68 1.68 0 0 0 2.48.26 2.37 2.37 0 0 0 .57-1.19h1.11a2.69 2.69 0 0 1-2.9 2.6 2.6 2.6 0 0 1-2.13-1 3.73 3.73 0 0 1-.79-2.43 4.1 4.1 0 0 1 .87-2.79 2.81 2.81 0 0 1 2.22-1 3 3 0 0 1 1.87.55zM44 18.85a2.58 2.58 0 0 1 1 .88 3.05 3.05 0 0 1 .45 1.2 7.89 7.89 0 0 1 .1 1.5h-4.96a2.94 2.94 0 0 0 .48 1.67 1.62 1.62 0 0 0 1.4.63 1.81 1.81 0 0 0 1.42-.59 2 2 0 0 0 .42-.8h1.12a2.37 2.37 0 0 1-.29.83 3 3 0 0 1-.56.75 2.63 2.63 0 0 1-1.28.69 3.88 3.88 0 0 1-.93.1 2.83 2.83 0 0 1-2.14-.92 3.6 3.6 0 0 1-.88-2.59 3.92 3.92 0 0 1 .88-2.66 2.91 2.91 0 0 1 2.31-1 3.07 3.07 0 0 1 1.46.31zm.41 2.67a3 3 0 0 0-.41-1.19 1.64 1.64 0 0 0-1.55-.83 1.72 1.72 0 0 0-1.31.57 2.16 2.16 0 0 0-.56 1.44zM47.18 18.66h1.09v1a3.05 3.05 0 0 1 1-.86 2.72 2.72 0 0 1 1.2-.26 2 2 0 0 1 2 1 3.58 3.58 0 0 1 .28 1.58v4.36h-1.19v-4.31a2.32 2.32 0 0 0-.18-1 1.12 1.12 0 0 0-1.1-.63 2.26 2.26 0 0 0-.67.08 1.71 1.71 0 0 0-.83.56 1.68 1.68 0 0 0-.37.7 4.64 4.64 0 0 0-.09 1v3.56h-1.14zM58.34 18.87a3 3 0 0 1 .69.67V16.1h1.1v9.36h-1v-.95a2.47 2.47 0 0 1-.94.91 2.68 2.68 0 0 1-1.25.28 2.52 2.52 0 0 1-2-1 3.75 3.75 0 0 1-.83-2.54 4.4 4.4 0 0 1 .76-2.57A2.47 2.47 0 0 1 57 18.54a2.4 2.4 0 0 1 1.34.33zM55.79 24a1.61 1.61 0 0 0 1.48.74 1.55 1.55 0 0 0 1.3-.68 3.24 3.24 0 0 0 .51-2 2.91 2.91 0 0 0-.52-1.91 1.63 1.63 0 0 0-1.29-.62 1.7 1.7 0 0 0-1.39.66 3 3 0 0 0-.53 1.94 3.38 3.38 0 0 0 .44 1.87zM66.23 18.85a2.58 2.58 0 0 1 1 .88 3.05 3.05 0 0 1 .45 1.2 7.89 7.89 0 0 1 .1 1.5h-4.91a2.94 2.94 0 0 0 .48 1.67 1.62 1.62 0 0 0 1.4.63 1.81 1.81 0 0 0 1.42-.59 2 2 0 0 0 .42-.8h1.12a2.37 2.37 0 0 1-.29.83 3 3 0 0 1-.56.75 2.63 2.63 0 0 1-1.28.69 3.88 3.88 0 0 1-.93.1 2.83 2.83 0 0 1-2.14-.92 3.6 3.6 0 0 1-.88-2.59 3.92 3.92 0 0 1 .88-2.66 2.91 2.91 0 0 1 2.31-1 3.07 3.07 0 0 1 1.41.31zm.41 2.67a3 3 0 0 0-.32-1.19 1.64 1.64 0 0 0-1.55-.83 1.72 1.72 0 0 0-1.31.57 2.16 2.16 0 0 0-.56 1.44zM69.49 18.66h1.09v1.17a2.59 2.59 0 0 1 .65-.83 1.7 1.7 0 0 1 1.2-.49h.37v1.21h-.38a1.63 1.63 0 0 0-1.33.55 1.94 1.94 0 0 0-.46 1.28v3.91h-1.14z"/></g></g></svg>