<svg xmlns="http://www.w3.org/2000/svg" viewBox="0 0 762.25 206"><defs><style>.cls-2{fill:#e6ffd7}.cls-3{fill:none;stroke:#1a171b;stroke-width:.5px}.cls-4{fill:#60eb00}.cls-5{fill:#1a171b}</style></defs><g style="isolation:isolate"><path class="cls-2" d="M-.26-.09h762v206h-762z" id="Background"/><g id="Lines"><path class="cls-3" d="M79.33 39.53h672.43M79.33 172.32h672.43"/><path class="cls-2" d="M429.4 152h78.17v14.5H429.4zM220.49 152h72.92v14.5h-72.92zM222.9 56.67h63.79v14.5H222.9zM526.74 152h78.17v14.5h-78.17z"/></g><g id="Type_New2"><path class="cls-4" d="M344.46 128.65h19.13l-3 13.56h-23l-9-11.6c3.16-14.76 6.63-29.38 9.79-44.14h-10.94l3-13.56h10.86l4.7-21.55h15.52L356.7 72.9h18.8l-3 13.56h-18.85c-3.16 14.02-6.02 28.18-9.19 42.19z"/><path class="cls-5" d="M119.48 128.71h9.19v13.56h-34.5v-13.56h11.75V53.39H94.17V39.83h38.26l28.47 88.88 28.32-88.88h38.11v13.56h-11.6v75.32h11.6v13.56H190v-13.56h9.19V53.39l-28.32 88.88h-23l-28.39-88.88zM384.92 142.27l-11.45-11.45v-19.89l11.45-11.45h32.24v-13h-26.21V93h-15.07v-8.58L387.33 73h33.44l11.45 11.45v44.29h10.55v13.56zm3.61-29.27v15.67h28.62V113zM483.59 45.85V73h16.27v13.53h-16.27v42.18h11.6v13.56H459v-13.56h9.49V86.53H455V73h13.56V43.74L480 32.29h28.6v13.56zM525 32.29h10.55v110H525z"/><path class="cls-4" d="M522.9 45.79h-10.55V32.23H538v96.42h10.55v13.56h-36.2v-13.56h10.55z"/><path class="cls-5" d="M522.74 32.46h15.1v109.75h-15.1z"/><path d="M341.08 128.65h19.43v13.56h-23.2l-11.45-11.45V86.47h-10.7V72.91h10.7V51.37h15.21v21.54h18.83v13.56h-18.82z"/><path class="cls-5" d="M284.89 126.89c5 0 11.37-.14 11.37-1.39v-.69h5.91v.69c0 4.85-1.33 9.7-5.32 12.61-4.73 3.46-11.08 4-17.13 4H265c-6.35 0-13-1.39-17.13-5.82-4.58-5-5.32-11.92-5.32-18.57v-11.9c0-8.73.29-17.74 5.32-25.09 3.69-5.27 10.34-7.9 17.13-7.9h14.77c6.79 0 13.44 2.63 17.13 7.9 5 7.35 5.32 16.35 5.32 25.09v7.9h-53.81v4a8 8 0 0 0 4 6.93c3.69 2.08 8.27 2.22 12.55 2.22zm10.63-28.41a14.27 14.27 0 0 0-3.1-6.1c-3.1-3.33-8-4.3-12.7-4.3H265c-4.73 0-9.45 1-12.55 4.3a14.58 14.58 0 0 0-3.25 6.1z"/><path d="M622 116.08c0 7.53 0 15.67-5.12 20.94s-13 5.27-20.34 5.27h-13.87c-7.38 0-15.22 0-20.34-5.27s-5.12-13.41-5.12-20.94V99.21c0-7.53 0-15.67 5.12-20.94s13-5.27 20.34-5.27h13.86c7.38 0 15.22 0 20.34 5.27S622 91.68 622 99.21zm-15.08-16.87c0-3.62 0-7.53-2.11-10.09-2-2.41-5.27-2.56-8.29-2.56h-13.85c-3 0-6.33.15-8.29 2.56-2.11 2.56-2.11 6.48-2.11 10.09v16.87c0 3.62 0 7.53 2.11 10.09 2 2.41 5.27 2.56 8.29 2.56h13.86c3 0 6.33-.15 8.29-2.56 2.11-2.56 2.11-6.48 2.11-10.09zM663.18 158.7h10.55v13.56h-36.16V158.7h10.55V86.39h-10.55V72.83h45.5c7.68 0 16 0 21.39 5.27s5.42 13.41 5.42 20.94v16.87c0 7.53 0 15.67-5.42 20.94s-13.71 5.27-21.39 5.27h-19.89zm19.89-30.13c3.46 0 7.08 0 9.34-2.56 2.41-2.56 2.41-6.48 2.41-10.09V99c0-3.62 0-7.53-2.41-10.09-2.26-2.56-5.88-2.56-9.34-2.56h-19.89v42.18z"/></g><g id="Areas"><path d="M557.1 73l.06 69.29 64.76-.06-.06-69.29zm32.2 60.63l-23.38-25.92 23.34-25.77 23.51 25.73z" style="mix-blend-mode:multiply" fill="#60eb00"/><path class="cls-4" d="M262.69 126.85h21.44v15.28h-21.44zM663.28 128.57h21.44v13.42h-21.44zM663.34 72.97h21.44v13.42h-21.44zM694.81 96.84h15.09v21.44h-15.09zM242.5 96.12h5.96v23.97h-5.96z"/><path class="cls-3" d="M79.33 72.91h672.43M79.33 142.21h672.43"/></g><g id="Names"><path class="cls-2" d="M95.4 150.08h108.67v18.67H95.4z"/><path class="cls-3" d="M94.81 161.37h131.8"/><path class="cls-5" d="M98.23 163.77a.25.25 0 0 0-.08-.35l-3.23-2.05 3.23-2.05a.25.25 0 1 0-.27-.42l-3.56 2.27a.25.25 0 0 0 0 .42l3.56 2.27a.25.25 0 0 0 .35-.08zM223.19 163.77a.25.25 0 0 1 .08-.35l3.23-2.05-3.23-2.05a.25.25 0 1 1 .27-.42l3.56 2.27a.25.25 0 0 1 0 .42l-3.56 2.27a.25.25 0 0 1-.35-.08z"/><path d="M15.25 165.61a3.07 3.07 0 0 1 .69.67v-3.43H17v9.36h-1v-.95a2.47 2.47 0 0 1-.94.91 2.68 2.68 0 0 1-1.25.28 2.52 2.52 0 0 1-2-1 3.75 3.75 0 0 1-.83-2.54 4.4 4.4 0 0 1 .76-2.57 2.47 2.47 0 0 1 2.16-1.09 2.4 2.4 0 0 1 1.35.36zm-2.55 5.1a1.61 1.61 0 0 0 1.48.74 1.55 1.55 0 0 0 1.3-.68 3.24 3.24 0 0 0 .51-2 2.91 2.91 0 0 0-.52-1.91 1.63 1.63 0 0 0-1.29-.62 1.7 1.7 0 0 0-1.39.66 3 3 0 0 0-.53 1.94 3.39 3.39 0 0 0 .44 1.87zM23.14 165.59a2.58 2.58 0 0 1 1 .88 3 3 0 0 1 .45 1.2 7.88 7.88 0 0 1 .1 1.5h-4.92a2.94 2.94 0 0 0 .49 1.67 1.62 1.62 0 0 0 1.4.63 1.8 1.8 0 0 0 1.42-.59 2 2 0 0 0 .42-.8h1.12a2.36 2.36 0 0 1-.29.83 3 3 0 0 1-.56.75 2.63 2.63 0 0 1-1.28.69 3.88 3.88 0 0 1-.93.1 2.83 2.83 0 0 1-2.14-.92 3.6 3.6 0 0 1-.88-2.59 3.92 3.92 0 0 1 .88-2.66 2.91 2.91 0 0 1 2.31-1 3.07 3.07 0 0 1 1.41.31zm.41 2.67a3 3 0 0 0-.32-1.19 1.64 1.64 0 0 0-1.55-.83 1.72 1.72 0 0 0-1.31.57 2.16 2.16 0 0 0-.56 1.44zM27 170.07a1.64 1.64 0 0 0 .29.88 1.85 1.85 0 0 0 1.53.55 2.3 2.3 0 0 0 1.14-.28.91.91 0 0 0 .49-.85.73.73 0 0 0-.39-.67 4.73 4.73 0 0 0-1-.32l-.92-.23a4.56 4.56 0 0 1-1.3-.48 1.44 1.44 0 0 1-.75-1.28 2 2 0 0 1 .7-1.56 2.83 2.83 0 0 1 1.89-.6 2.65 2.65 0 0 1 2.25.9 1.94 1.94 0 0 1 .42 1.23h-1.03a1.29 1.29 0 0 0-.28-.7 1.81 1.81 0 0 0-1.4-.45 1.7 1.7 0 0 0-1 .25.77.77 0 0 0-.34.65.8.8 0 0 0 .45.71 2.72 2.72 0 0 0 .76.28l.77.18a6.07 6.07 0 0 1 1.68.58 1.53 1.53 0 0 1 .67 1.38 2.08 2.08 0 0 1-.7 1.57 3 3 0 0 1-2.12.66 2.87 2.87 0 0 1-2.17-.69 2.58 2.58 0 0 1-.68-1.7zM37.55 165.77a2.67 2.67 0 0 1 .87 1.92H37.3a2.06 2.06 0 0 0-.46-1 1.46 1.46 0 0 0-1.16-.42 1.6 1.6 0 0 0-1.56 1.06 4.23 4.23 0 0 0-.3 1.71 3.2 3.2 0 0 0 .43 1.72 1.67 1.67 0 0 0 2.48.26 2.38 2.38 0 0 0 .58-1.19h1.11a2.69 2.69 0 0 1-2.9 2.6 2.6 2.6 0 0 1-2.13-1 3.73 3.73 0 0 1-.79-2.43 4.1 4.1 0 0 1 .87-2.79 2.81 2.81 0 0 1 2.22-1 3 3 0 0 1 1.86.56zM44 165.59a2.59 2.59 0 0 1 1 .88 3.07 3.07 0 0 1 .45 1.2 7.9 7.9 0 0 1 .1 1.5h-4.96a2.94 2.94 0 0 0 .48 1.67 1.62 1.62 0 0 0 1.41.63 1.81 1.81 0 0 0 1.42-.59 2 2 0 0 0 .42-.8h1.12a2.38 2.38 0 0 1-.29.83 3 3 0 0 1-.56.75 2.64 2.64 0 0 1-1.28.69 3.87 3.87 0 0 1-.93.1 2.84 2.84 0 0 1-2.14-.92 3.6 3.6 0 0 1-.88-2.59 3.92 3.92 0 0 1 .88-2.66 2.9 2.9 0 0 1 2.31-1 3.07 3.07 0 0 1 1.45.31zm.41 2.67a3 3 0 0 0-.32-1.19 1.64 1.64 0 0 0-1.55-.83 1.72 1.72 0 0 0-1.31.57 2.15 2.15 0 0 0-.56 1.44zM47.18 165.4h1.09v1a3 3 0 0 1 1-.86 2.72 2.72 0 0 1 1.2-.26 2 2 0 0 1 2 1 3.59 3.59 0 0 1 .28 1.58v4.36h-1.19v-4.29a2.33 2.33 0 0 0-.18-1 1.12 1.12 0 0 0-1.1-.63 2.26 2.26 0 0 0-.67.08 1.72 1.72 0 0 0-.83.56 1.68 1.68 0 0 0-.37.7 4.64 4.64 0 0 0-.09 1v3.56h-1.14zM58.34 165.61a3.07 3.07 0 0 1 .69.67v-3.43h1.1v9.36h-1v-.95a2.47 2.47 0 0 1-.94.91 2.68 2.68 0 0 1-1.25.28 2.52 2.52 0 0 1-2-1 3.75 3.75 0 0 1-.83-2.54 4.4 4.4 0 0 1 .76-2.57 2.47 2.47 0 0 1 2.13-1.06 2.4 2.4 0 0 1 1.34.33zm-2.55 5.1a1.61 1.61 0 0 0 1.48.74 1.55 1.55 0 0 0 1.3-.68 3.24 3.24 0 0 0 .51-2 2.91 2.91 0 0 0-.52-1.91 1.63 1.63 0 0 0-1.29-.62 1.7 1.7 0 0 0-1.39.66 3 3 0 0 0-.53 1.94 3.39 3.39 0 0 0 .44 1.87zM66.23 165.59a2.59 2.59 0 0 1 1 .88 3.07 3.07 0 0 1 .45 1.2 7.9 7.9 0 0 1 .1 1.5h-4.91a2.94 2.94 0 0 0 .48 1.67 1.62 1.62 0 0 0 1.41.63 1.81 1.81 0 0 0 1.42-.59 2 2 0 0 0 .42-.8h1.12a2.38 2.38 0 0 1-.29.83 3 3 0 0 1-.56.75 2.64 2.64 0 0 1-1.28.69 3.87 3.87 0 0 1-.93.1 2.84 2.84 0 0 1-2.14-.92 3.6 3.6 0 0 1-.88-2.59 3.92 3.92 0 0 1 .88-2.66 2.9 2.9 0 0 1 2.31-1 3.07 3.07 0 0 1 1.4.31zm.41 2.67a3 3 0 0 0-.32-1.19 1.64 1.64 0 0 0-1.55-.83 1.72 1.72 0 0 0-1.31.57 2.15 2.15 0 0 0-.56 1.44zM69.48 165.4h1.09v1.17a2.6 2.6 0 0 1 .65-.83 1.7 1.7 0 0 1 1.2-.49h.37v1.21h-.38a1.63 1.63 0 0 0-1.33.55 1.94 1.94 0 0 0-.46 1.28v3.91h-1.14zM23.89 133.76H25v3.38a2.51 2.51 0 0 1 2-1 2.67 2.67 0 0 1 2.07.87 3.71 3.71 0 0 1 .79 2.57 4.4 4.4 0 0 1-.78 2.68 2.55 2.55 0 0 1-2.17 1.07 2.24 2.24 0 0 1-1.31-.37 3.2 3.2 0 0 1-.68-.71v.87h-1.03zm4.37 7.83a3.62 3.62 0 0 0 .46-1.94 3.18 3.18 0 0 0-.46-1.78 1.52 1.52 0 0 0-1.36-.7 1.9 1.9 0 0 0-1.37.58 2.59 2.59 0 0 0-.59 1.9 4.18 4.18 0 0 0 .24 1.56 1.67 1.67 0 0 0 1.69 1.12 1.53 1.53 0 0 0 1.39-.74zM35.06 139a.62.62 0 0 0 .53-.33 1 1 0 0 0 .08-.44.93.93 0 0 0-.42-.85 2.22 2.22 0 0 0-1.19-.26 1.5 1.5 0 0 0-1.27.48 1.6 1.6 0 0 0-.27.8h-1.07a2 2 0 0 1 .81-1.75 3.34 3.34 0 0 1 1.82-.49 3.69 3.69 0 0 1 1.95.46 1.55 1.55 0 0 1 .74 1.42V142a.5.5 0 0 0 .07.29.35.35 0 0 0 .31.11h.37v.84l-.41.1h-.38a.94.94 0 0 1-.86-.42 1.61 1.61 0 0 1-.2-.63 2.9 2.9 0 0 1-1 .79 3.11 3.11 0 0 1-1.44.34 2.14 2.14 0 0 1-1.55-.57 1.9 1.9 0 0 1-.6-1.44 1.85 1.85 0 0 1 .59-1.46 2.82 2.82 0 0 1 1.55-.64zm-2.41 3.09a1.35 1.35 0 0 0 .86.29 2.62 2.62 0 0 0 1.17-.28 1.57 1.57 0 0 0 1-1.51v-.92a2 2 0 0 1-.54.22 4.51 4.51 0 0 1-.65.13l-.69.09a2.68 2.68 0 0 0-.93.26 1 1 0 0 0-.53 1 .94.94 0 0 0 .31.72zM39.52 141a1.64 1.64 0 0 0 .29.88 1.85 1.85 0 0 0 1.53.55 2.29 2.29 0 0 0 1.14-.28.91.91 0 0 0 .49-.85.73.73 0 0 0-.39-.67 4.72 4.72 0 0 0-1-.32l-.92-.23a4.56 4.56 0 0 1-1.3-.48 1.44 1.44 0 0 1-.75-1.28 2 2 0 0 1 .71-1.56 2.83 2.83 0 0 1 1.89-.6 2.64 2.64 0 0 1 2.25.9 1.94 1.94 0 0 1 .42 1.23H42.8a1.3 1.3 0 0 0-.28-.7 1.81 1.81 0 0 0-1.4-.45 1.7 1.7 0 0 0-1 .25.76.76 0 0 0-.34.65.8.8 0 0 0 .45.71 2.71 2.71 0 0 0 .77.25l.77.18a6 6 0 0 1 1.68.58 1.53 1.53 0 0 1 .67 1.38 2.08 2.08 0 0 1-.7 1.57 3 3 0 0 1-2.12.66 2.87 2.87 0 0 1-2.18-.69 2.59 2.59 0 0 1-.68-1.7zM49.73 136.51a2.59 2.59 0 0 1 1 .88 3.07 3.07 0 0 1 .45 1.2 7.9 7.9 0 0 1 .1 1.5h-4.91a2.94 2.94 0 0 0 .48 1.67 1.62 1.62 0 0 0 1.41.63 1.81 1.81 0 0 0 1.42-.59 2 2 0 0 0 .42-.8h1.12a2.38 2.38 0 0 1-.29.83 3 3 0 0 1-.56.75 2.64 2.64 0 0 1-1.28.69 3.87 3.87 0 0 1-.93.1 2.84 2.84 0 0 1-2.14-.92 3.6 3.6 0 0 1-.88-2.59 3.92 3.92 0 0 1 .88-2.66 2.9 2.9 0 0 1 2.31-1 3.07 3.07 0 0 1 1.4.31zm.41 2.67a3 3 0 0 0-.32-1.19 1.64 1.64 0 0 0-1.55-.83 1.72 1.72 0 0 0-1.31.57 2.15 2.15 0 0 0-.56 1.44zM53 133.8h1.14v9.32H53zM56 133.8h1.16v1.29H56zm0 2.56h1.16v6.77H56zM59.13 136.32h1.09v1a3 3 0 0 1 1-.86 2.72 2.72 0 0 1 1.2-.26 2 2 0 0 1 2 1 3.59 3.59 0 0 1 .28 1.58v4.36h-1.19v-4.29a2.33 2.33 0 0 0-.18-1 1.12 1.12 0 0 0-1.1-.63 2.26 2.26 0 0 0-.67.08 1.72 1.72 0 0 0-.83.56 1.68 1.68 0 0 0-.37.7 4.64 4.64 0 0 0-.09 1v3.56h-1.14zM70.75 136.51a2.59 2.59 0 0 1 1 .88 3.07 3.07 0 0 1 .45 1.2 7.9 7.9 0 0 1 .1 1.5h-4.91a2.94 2.94 0 0 0 .48 1.67 1.62 1.62 0 0 0 1.41.63 1.81 1.81 0 0 0 1.42-.59 2 2 0 0 0 .42-.8h1.12a2.38 2.38 0 0 1-.29.83 3 3 0 0 1-.56.75 2.64 2.64 0 0 1-1.28.69 3.87 3.87 0 0 1-.93.1 2.84 2.84 0 0 1-2.14-.92 3.6 3.6 0 0 1-.88-2.59 3.92 3.92 0 0 1 .88-2.66 2.9 2.9 0 0 1 2.31-1 3.07 3.07 0 0 1 1.4.31zm.41 2.67a3 3 0 0 0-.32-1.19 1.64 1.64 0 0 0-1.55-.83 1.72 1.72 0 0 0-1.31.57 2.15 2.15 0 0 0-.56 1.44z"/><path class="cls-2" d="M129.57 149.67h62.29v16h-62.29z"/><path d="M134.26 157.93v4.51a1.94 1.94 0 0 0 .16.85 1.11 1.11 0 0 0 1.11.61 1.57 1.57 0 0 0 1.58-1.07 4.34 4.34 0 0 0 .23-1.57v-3.34h1.14v6.8h-1.08v-1a2.3 2.3 0 0 1-.54.65 2.36 2.36 0 0 1-1.56.53 2 2 0 0 1-1.94-1 2.94 2.94 0 0 1-.28-1.39v-4.62zM140.54 157.93h1.09v1a3 3 0 0 1 1-.86 2.72 2.72 0 0 1 1.2-.26 2 2 0 0 1 2 1 3.59 3.59 0 0 1 .28 1.58v4.36h-1.16v-4.29a2.33 2.33 0 0 0-.18-1 1.12 1.12 0 0 0-1.1-.63 2.26 2.26 0 0 0-.67.08 1.72 1.72 0 0 0-.83.56 1.68 1.68 0 0 0-.37.7 4.64 4.64 0 0 0-.09 1v3.56h-1.14zM148 155.41h1.16v1.29H148zm0 2.56h1.16v6.77H148zM151.28 156h1.16v1.9h1.08v.93h-1.08v4.44a.48.48 0 0 0 .24.48 1 1 0 0 0 .44.07h.4v.91a2.51 2.51 0 0 1-.41.08h-.46a1.24 1.24 0 0 1-1.09-.41 1.82 1.82 0 0 1-.29-1.06v-4.5h-.92v-.93h.92zM159.19 157.93l1.31 5.36 1.33-5.36h1.28l1.33 5.33 1.39-5.33H167l-2 6.8h-1.19l-1.38-5.26-1.34 5.26h-1.19l-2-6.8zM168.24 155.41h1.16v1.29h-1.16zm0 2.56h1.16v6.77h-1.16zM175.06 158.14a3 3 0 0 1 .69.67v-3.43h1.1v9.36h-1v-.95a2.48 2.48 0 0 1-.94.91 2.69 2.69 0 0 1-1.25.28 2.52 2.52 0 0 1-2-1 3.75 3.75 0 0 1-.83-2.54 4.41 4.41 0 0 1 .75-2.57 2.47 2.47 0 0 1 2.16-1.09 2.4 2.4 0 0 1 1.32.36zm-2.55 5.1a1.61 1.61 0 0 0 1.49.76 1.55 1.55 0 0 0 1.3-.68 3.24 3.24 0 0 0 .51-2 2.91 2.91 0 0 0-.52-1.91 1.63 1.63 0 0 0-1.29-.62 1.7 1.7 0 0 0-1.39.66 3 3 0 0 0-.53 1.94 3.38 3.38 0 0 0 .43 1.85zM179 156h1.16v1.9h1.08v.93h-1.08v4.44a.48.48 0 0 0 .24.48 1 1 0 0 0 .44.07h.38v.91a2.51 2.51 0 0 1-.41.08h-.46a1.24 1.24 0 0 1-1.09-.41 1.82 1.82 0 0 1-.29-1.06v-4.5h-.92v-.93h.95zM182.56 155.37h1.14v3.48a3.29 3.29 0 0 1 .73-.72 2.46 2.46 0 0 1 1.38-.36 2 2 0 0 1 2 1 3.53 3.53 0 0 1 .29 1.57v4.36h-1.17v-4.29a2.39 2.39 0 0 0-.19-1.1 1.22 1.22 0 0 0-1.17-.56 2 2 0 0 0-1.29.49 2.35 2.35 0 0 0-.58 1.85v3.61h-1.14zM319.32 162.6a1.63 1.63 0 0 0 .29.88 1.85 1.85 0 0 0 1.53.55 2.29 2.29 0 0 0 1.14-.28.91.91 0 0 0 .49-.85.73.73 0 0 0-.39-.67 4.71 4.71 0 0 0-1-.32l-.92-.23a4.57 4.57 0 0 1-1.3-.48 1.44 1.44 0 0 1-.75-1.28 1.94 1.94 0 0 1 .71-1.56 2.83 2.83 0 0 1 1.89-.6 2.65 2.65 0 0 1 2.25.9 1.94 1.94 0 0 1 .42 1.23h-1.08a1.3 1.3 0 0 0-.28-.7 1.82 1.82 0 0 0-1.4-.45 1.7 1.7 0 0 0-1 .25.76.76 0 0 0-.34.65.8.8 0 0 0 .45.71 2.73 2.73 0 0 0 .76.28l.77.18a6.07 6.07 0 0 1 1.68.58 1.53 1.53 0 0 1 .67 1.38 2.08 2.08 0 0 1-.7 1.57 3 3 0 0 1-2.12.66 2.87 2.87 0 0 1-2.18-.69 2.59 2.59 0 0 1-.68-1.7zM325.37 155.41h1.14v9.32h-1.14zM332.07 160.62a.62.62 0 0 0 .53-.33 1 1 0 0 0 .08-.44.93.93 0 0 0-.42-.85 2.22 2.22 0 0 0-1.19-.26 1.5 1.5 0 0 0-1.27.48 1.61 1.61 0 0 0-.27.8h-1.07a2 2 0 0 1 .81-1.75 3.34 3.34 0 0 1 1.82-.49 3.7 3.7 0 0 1 1.95.46 1.55 1.55 0 0 1 .74 1.42v3.92a.5.5 0 0 0 .07.29.35.35 0 0 0 .31.11h.37v.84l-.41.1h-.38a.94.94 0 0 1-.86-.42 1.61 1.61 0 0 1-.2-.63 2.92 2.92 0 0 1-1 .79 3.11 3.11 0 0 1-1.44.34 2.15 2.15 0 0 1-1.55-.57 1.9 1.9 0 0 1-.6-1.44 1.85 1.85 0 0 1 .59-1.46 2.82 2.82 0 0 1 1.55-.64zm-2.41 3.09a1.35 1.35 0 0 0 .86.29 2.61 2.61 0 0 0 1.17-.28 1.57 1.57 0 0 0 1-1.51v-.92a2 2 0 0 1-.54.22 4.55 4.55 0 0 1-.65.13l-.69.09a2.68 2.68 0 0 0-.93.26 1 1 0 0 0-.53 1 .94.94 0 0 0 .31.71zM335.85 157.93h1.09v1a3 3 0 0 1 1-.86 2.72 2.72 0 0 1 1.2-.26 2 2 0 0 1 2 1 3.58 3.58 0 0 1 .28 1.58v4.36h-1.16v-4.29a2.31 2.31 0 0 0-.18-1 1.11 1.11 0 0 0-1.1-.63 2.26 2.26 0 0 0-.67.08 1.71 1.71 0 0 0-.83.56 1.68 1.68 0 0 0-.37.7 4.64 4.64 0 0 0-.09 1v3.56h-1.14zM343.5 156h1.16v1.9h1.09v.93h-1.09v4.44a.48.48 0 0 0 .24.48 1 1 0 0 0 .44.07h.4v.91a2.52 2.52 0 0 1-.41.08h-.46a1.24 1.24 0 0 1-1.08-.41 1.81 1.81 0 0 1-.29-1.06v-4.5h-.92v-.93h.92zM347.08 155.41h1.16v1.29h-1.16zm0 2.56h1.16v6.77h-1.16zM350.16 157.93h1.09v1a3.06 3.06 0 0 1 1-.86 2.72 2.72 0 0 1 1.2-.26 2 2 0 0 1 2 1 3.58 3.58 0 0 1 .28 1.58v4.36h-1.16v-4.29a2.33 2.33 0 0 0-.18-1 1.12 1.12 0 0 0-1.1-.63 2.25 2.25 0 0 0-.67.08 1.72 1.72 0 0 0-.83.56 1.69 1.69 0 0 0-.37.7 4.7 4.7 0 0 0-.09 1v3.56h-1.14zM361.37 158.21a3.18 3.18 0 0 1 .66.65V158h1.05v6.18a4.58 4.58 0 0 1-.38 2 2.72 2.72 0 0 1-2.68 1.38 3.27 3.27 0 0 1-1.84-.49 1.92 1.92 0 0 1-.83-1.54h1.16a1.3 1.3 0 0 0 .33.71 2.07 2.07 0 0 0 2.92-.55 5.24 5.24 0 0 0 .22-1.95 2.23 2.23 0 0 1-.82.77A2.94 2.94 0 0 1 358 164a3.45 3.45 0 0 1-.83-2.59 3.94 3.94 0 0 1 .83-2.67 2.57 2.57 0 0 1 2-1 2.46 2.46 0 0 1 1.37.47zm.14 1.22a1.65 1.65 0 0 0-1.32-.61 1.63 1.63 0 0 0-1.64 1.13 4.44 4.44 0 0 0-.23 1.58 2.82 2.82 0 0 0 .46 1.75 1.5 1.5 0 0 0 1.25.6 1.75 1.75 0 0 0 1.72-1.11 3.62 3.62 0 0 0 .28-1.47 2.85 2.85 0 0 0-.52-1.87zM245.45 50.75h1.12v.9a2.77 2.77 0 0 1 .75-.72 2.42 2.42 0 0 1 1.36-.38 2.57 2.57 0 0 1 2 .88 3.62 3.62 0 0 1 .81 2.53 3.88 3.88 0 0 1-1.17 3.17 2.64 2.64 0 0 1-1.72.6 2.35 2.35 0 0 1-1.29-.34 3 3 0 0 1-.68-.65v3.47h-1.14zm4.3 5.33a3.18 3.18 0 0 0 .53-2 3.72 3.72 0 0 0-.24-1.4 1.73 1.73 0 0 0-3.26.06 4.69 4.69 0 0 0-.24 1.61 3.4 3.4 0 0 0 .24 1.34 1.73 1.73 0 0 0 3 .38zM257.17 50.91a2.58 2.58 0 0 1 1 .88 3 3 0 0 1 .45 1.2 7.88 7.88 0 0 1 .1 1.5h-4.95a2.94 2.94 0 0 0 .49 1.67 1.62 1.62 0 0 0 1.4.63 1.8 1.8 0 0 0 1.42-.59 2 2 0 0 0 .42-.8h1.12a2.36 2.36 0 0 1-.29.83 3 3 0 0 1-.56.75 2.63 2.63 0 0 1-1.28.69 3.88 3.88 0 0 1-.93.1 2.83 2.83 0 0 1-2.14-.92 3.6 3.6 0 0 1-.88-2.59 3.92 3.92 0 0 1 .88-2.66 2.91 2.91 0 0 1 2.31-1 3.07 3.07 0 0 1 1.44.31zm.41 2.67a3 3 0 0 0-.32-1.19 1.64 1.64 0 0 0-1.55-.83 1.72 1.72 0 0 0-1.31.57 2.16 2.16 0 0 0-.56 1.44zM260.4 50.72h1.08v1a3.05 3.05 0 0 1 1-.86 2.72 2.72 0 0 1 1.2-.26 2 2 0 0 1 2 1 3.58 3.58 0 0 1 .28 1.58v4.36h-1.16v-4.31a2.31 2.31 0 0 0-.18-1 1.12 1.12 0 0 0-1.1-.63 2.26 2.26 0 0 0-.67.08 1.71 1.71 0 0 0-.83.56 1.68 1.68 0 0 0-.37.7 4.64 4.64 0 0 0-.09 1v3.56h-1.16zM272.16 50.72l1.31 5.36 1.33-5.36h1.28l1.33 5.28 1.39-5.33h1.14l-2 6.8h-1.19l-1.38-5.26-1.34 5.26h-1.19l-2-6.8zM281.21 48.19h1.16v1.29h-1.16zm0 2.56h1.16v6.77h-1.16zM288 50.93a3.07 3.07 0 0 1 .69.67v-3.44h1.1v9.36h-1v-.95a2.47 2.47 0 0 1-.94.91 2.68 2.68 0 0 1-1.25.28 2.52 2.52 0 0 1-2-1 3.75 3.75 0 0 1-.83-2.54 4.4 4.4 0 0 1 .76-2.57 2.47 2.47 0 0 1 2.16-1.09 2.4 2.4 0 0 1 1.31.37zM285.48 56a1.61 1.61 0 0 0 1.48.74 1.55 1.55 0 0 0 1.3-.68 3.24 3.24 0 0 0 .51-2 2.91 2.91 0 0 0-.52-1.91 1.63 1.63 0 0 0-1.29-.62 1.7 1.7 0 0 0-1.39.66 3 3 0 0 0-.57 2.01 3.39 3.39 0 0 0 .48 1.8zM291.95 48.82h1.16v1.9h1.08v.93h-1.09v4.44a.48.48 0 0 0 .24.48 1 1 0 0 0 .44.07h.44v.91a2.51 2.51 0 0 1-.41.08h-.46a1.24 1.24 0 0 1-1.09-.41 1.82 1.82 0 0 1-.29-1.06v-4.5H291v-.93h.92zM295.53 48.16h1.14v3.48a3.29 3.29 0 0 1 .73-.72 2.46 2.46 0 0 1 1.38-.36 2 2 0 0 1 2 1 3.53 3.53 0 0 1 .29 1.57v4.36h-1.17v-4.26a2.39 2.39 0 0 0-.19-1.1 1.22 1.22 0 0 0-1.17-.56 2 2 0 0 0-1.29.49 2.35 2.35 0 0 0-.58 1.85v3.61h-1.14zM515.79 162.6a1.64 1.64 0 0 0 .29.88 1.85 1.85 0 0 0 1.53.55 2.29 2.29 0 0 0 1.14-.28.91.91 0 0 0 .49-.85.73.73 0 0 0-.39-.67 4.72 4.72 0 0 0-1-.32l-.92-.23a4.56 4.56 0 0 1-1.3-.48 1.44 1.44 0 0 1-.75-1.28 2 2 0 0 1 .71-1.56 2.83 2.83 0 0 1 1.89-.6 2.64 2.64 0 0 1 2.25.9 1.94 1.94 0 0 1 .42 1.23h-1.08a1.3 1.3 0 0 0-.28-.7 1.81 1.81 0 0 0-1.4-.45 1.7 1.7 0 0 0-1 .25.76.76 0 0 0-.34.65.8.8 0 0 0 .45.71 2.71 2.71 0 0 0 .76.28l.77.18a6 6 0 0 1 1.68.58 1.53 1.53 0 0 1 .67 1.38 2.08 2.08 0 0 1-.7 1.57 3 3 0 0 1-2.12.66 2.87 2.87 0 0 1-2.18-.69 2.59 2.59 0 0 1-.68-1.7zM526 158.12a2.59 2.59 0 0 1 1 .88 3.07 3.07 0 0 1 .45 1.2 7.9 7.9 0 0 1 .1 1.5h-4.94a2.94 2.94 0 0 0 .48 1.67 1.62 1.62 0 0 0 1.41.63 1.81 1.81 0 0 0 1.42-.59 2 2 0 0 0 .42-.8h1.12a2.38 2.38 0 0 1-.29.83 3 3 0 0 1-.56.75 2.64 2.64 0 0 1-1.28.69 3.87 3.87 0 0 1-.93.1 2.84 2.84 0 0 1-2.14-.92 3.6 3.6 0 0 1-.88-2.59 3.92 3.92 0 0 1 .88-2.66 2.9 2.9 0 0 1 2.31-1 3.07 3.07 0 0 1 1.43.31zm.41 2.67a3 3 0 0 0-.32-1.19 1.64 1.64 0 0 0-1.55-.83 1.72 1.72 0 0 0-1.31.57 2.15 2.15 0 0 0-.56 1.44zM529.26 157.93h1.08v1.17a2.59 2.59 0 0 1 .65-.83 1.69 1.69 0 0 1 1.2-.49h.37V159h-.38a1.63 1.63 0 0 0-1.33.55 1.94 1.94 0 0 0-.46 1.28v3.91h-1.14zM533.76 155.41h1.16v1.29h-1.16zm0 2.56h1.16v6.77h-1.16zM537.37 155.86a1.75 1.75 0 0 1 1.54-.58h.48v1H539q-.53 0-.63.27a5.28 5.28 0 0 0-.1 1.37h1.14v.9h-1.14v5.87h-1.13v-5.87h-.95V158h.95v-1.1a2 2 0 0 1 .23-1.04zM541.32 162.6a1.64 1.64 0 0 0 .29.88 1.85 1.85 0 0 0 1.53.55 2.29 2.29 0 0 0 1.14-.28.91.91 0 0 0 .49-.85.73.73 0 0 0-.39-.67 4.72 4.72 0 0 0-1-.32l-.92-.23a4.56 4.56 0 0 1-1.3-.48 1.44 1.44 0 0 1-.75-1.28 2 2 0 0 1 .71-1.56 2.83 2.83 0 0 1 1.89-.6 2.64 2.64 0 0 1 2.25.9 1.94 1.94 0 0 1 .42 1.23h-1.08a1.3 1.3 0 0 0-.28-.7 1.81 1.81 0 0 0-1.4-.45 1.7 1.7 0 0 0-1 .25.76.76 0 0 0-.34.65.8.8 0 0 0 .45.71 2.71 2.71 0 0 0 .76.28l.77.18a6 6 0 0 1 1.68.58 1.53 1.53 0 0 1 .67 1.38 2.08 2.08 0 0 1-.7 1.57 3 3 0 0 1-2.12.66 2.87 2.87 0 0 1-2.18-.69 2.59 2.59 0 0 1-.68-1.7zM242.82 158h1.12v.9a2.77 2.77 0 0 1 .75-.72 2.42 2.42 0 0 1 1.36-.38 2.57 2.57 0 0 1 2 .88 3.62 3.62 0 0 1 .81 2.53 3.88 3.88 0 0 1-1.17 3.17 2.64 2.64 0 0 1-1.72.6 2.35 2.35 0 0 1-1.29-.34 3 3 0 0 1-.68-.64v3.47h-1.14zm4.3 5.33a3.18 3.18 0 0 0 .53-2 3.72 3.72 0 0 0-.24-1.4 1.73 1.73 0 0 0-3.26.06 4.69 4.69 0 0 0-.24 1.61 3.4 3.4 0 0 0 .24 1.34 1.73 1.73 0 0 0 3 .38zM254.54 158.12a2.58 2.58 0 0 1 1 .88 3 3 0 0 1 .45 1.2 7.88 7.88 0 0 1 .1 1.5h-4.95a2.94 2.94 0 0 0 .49 1.67 1.62 1.62 0 0 0 1.4.63 1.8 1.8 0 0 0 1.42-.59 2 2 0 0 0 .42-.8H256a2.36 2.36 0 0 1-.29.83 3 3 0 0 1-.56.75 2.63 2.63 0 0 1-1.28.69 3.88 3.88 0 0 1-.93.1 2.83 2.83 0 0 1-2.14-.92 3.6 3.6 0 0 1-.88-2.59 3.92 3.92 0 0 1 .88-2.66 2.91 2.91 0 0 1 2.31-1 3.07 3.07 0 0 1 1.43.31zm.41 2.67a3 3 0 0 0-.32-1.19 1.64 1.64 0 0 0-1.55-.83 1.72 1.72 0 0 0-1.31.57 2.16 2.16 0 0 0-.56 1.44zM257.76 157.93h1.08v1a3.05 3.05 0 0 1 1-.86 2.72 2.72 0 0 1 1.2-.26 2 2 0 0 1 2 1 3.58 3.58 0 0 1 .28 1.58v4.36h-1.16v-4.29a2.31 2.31 0 0 0-.18-1 1.12 1.12 0 0 0-1.1-.63 2.26 2.26 0 0 0-.67.08 1.71 1.71 0 0 0-.83.56 1.68 1.68 0 0 0-.37.7 4.64 4.64 0 0 0-.09 1v3.56h-1.14zM269 155.37h1.14v3.48a3.29 3.29 0 0 1 .73-.72 2.46 2.46 0 0 1 1.38-.36 2 2 0 0 1 2 1 3.53 3.53 0 0 1 .29 1.57v4.36h-1.17v-4.29a2.39 2.39 0 0 0-.19-1.1 1.22 1.22 0 0 0-1.17-.56 2 2 0 0 0-1.29.49 2.35 2.35 0 0 0-.58 1.85v3.61H269zM280.62 158.12a2.58 2.58 0 0 1 1 .88 3 3 0 0 1 .45 1.2 7.88 7.88 0 0 1 .1 1.5h-4.95a2.94 2.94 0 0 0 .49 1.67 1.62 1.62 0 0 0 1.4.63 1.8 1.8 0 0 0 1.42-.59 2 2 0 0 0 .42-.8h1.12a2.36 2.36 0 0 1-.29.83 3 3 0 0 1-.56.75 2.63 2.63 0 0 1-1.28.69 3.88 3.88 0 0 1-.93.1 2.83 2.83 0 0 1-2.14-.92 3.6 3.6 0 0 1-.88-2.59 3.92 3.92 0 0 1 .88-2.66 2.91 2.91 0 0 1 2.31-1 3.07 3.07 0 0 1 1.44.31zm.41 2.67a3 3 0 0 0-.32-1.19 1.64 1.64 0 0 0-1.55-.83 1.72 1.72 0 0 0-1.31.57 2.16 2.16 0 0 0-.56 1.44zM283.85 155.41H285v1.29h-1.16zm0 2.56H285v6.77h-1.16zM290.71 158.21a3.15 3.15 0 0 1 .66.65V158h1.05v6.18a4.58 4.58 0 0 1-.38 2 2.73 2.73 0 0 1-2.68 1.38 3.27 3.27 0 0 1-1.84-.49 1.92 1.92 0 0 1-.83-1.54h1.16a1.3 1.3 0 0 0 .33.71 2.07 2.07 0 0 0 2.92-.55 5.24 5.24 0 0 0 .22-1.95 2.23 2.23 0 0 1-.82.77 2.94 2.94 0 0 1-3.2-.53 3.46 3.46 0 0 1-.83-2.59 3.94 3.94 0 0 1 .83-2.67 2.57 2.57 0 0 1 2-1 2.46 2.46 0 0 1 1.41.49zm.14 1.22a1.66 1.66 0 0 0-1.32-.61 1.63 1.63 0 0 0-1.64 1.13 4.44 4.44 0 0 0-.23 1.58 2.82 2.82 0 0 0 .46 1.75 1.5 1.5 0 0 0 1.25.6 1.75 1.75 0 0 0 1.72-1.11 3.62 3.62 0 0 0 .28-1.47 2.85 2.85 0 0 0-.52-1.87zM294.35 155.37h1.14v3.48a3.29 3.29 0 0 1 .73-.72 2.46 2.46 0 0 1 1.38-.36 2 2 0 0 1 2 1 3.53 3.53 0 0 1 .29 1.57v4.36h-1.17v-4.29a2.39 2.39 0 0 0-.19-1.1 1.22 1.22 0 0 0-1.17-.56 2 2 0 0 0-1.29.49 2.35 2.35 0 0 0-.58 1.85v3.61h-1.14zM302 156h1.16v1.9h1.08v.93h-1.08v4.44a.48.48 0 0 0 .24.48 1 1 0 0 0 .44.07h.38v.91a2.51 2.51 0 0 1-.41.08h-.46a1.24 1.24 0 0 1-1.09-.41 1.82 1.82 0 0 1-.29-1.06v-4.5h-.92v-.93h.95zM25.52 66.32H27l1.56 2.39 1.58-2.39h1.39l-2.29 3.28 2.39 3.48h-1.46l-1.69-2.55-1.64 2.55H25.4l2.39-3.48zM32.56 68.91h3.19v1.17h-3.19zM37.39 63.76h1.14v3.48a3.31 3.31 0 0 1 .73-.72 2.46 2.46 0 0 1 1.38-.36 2 2 0 0 1 2 1 3.53 3.53 0 0 1 .29 1.57v4.36h-1.18v-4.26a2.39 2.39 0 0 0-.19-1.1 1.22 1.22 0 0 0-1.17-.56 2 2 0 0 0-1.29.49 2.35 2.35 0 0 0-.58 1.85v3.61h-1.13zM49 66.51a2.58 2.58 0 0 1 1 .88 3 3 0 0 1 .45 1.2 7.88 7.88 0 0 1 .1 1.5h-4.9a2.94 2.94 0 0 0 .49 1.67 1.62 1.62 0 0 0 1.4.63 1.8 1.8 0 0 0 1.46-.61 2 2 0 0 0 .42-.8h1.08a2.36 2.36 0 0 1-.29.83 3 3 0 0 1-.56.75 2.63 2.63 0 0 1-1.28.69 3.88 3.88 0 0 1-.93.1 2.83 2.83 0 0 1-2.14-.92 3.6 3.6 0 0 1-.88-2.59 3.92 3.92 0 0 1 .88-2.66 2.91 2.91 0 0 1 2.31-1 3.07 3.07 0 0 1 1.39.33zm.41 2.67A3 3 0 0 0 49.1 68a1.64 1.64 0 0 0-1.55-.83 1.72 1.72 0 0 0-1.31.57 2.16 2.16 0 0 0-.56 1.44zM52.24 63.79h1.16v1.29h-1.16zm0 2.56h1.16v6.77h-1.16zM59.1 66.59a3.15 3.15 0 0 1 .66.65v-.86h1.05v6.18a4.58 4.58 0 0 1-.38 2A2.73 2.73 0 0 1 57.75 76a3.27 3.27 0 0 1-1.84-.49 1.92 1.92 0 0 1-.83-1.51h1.16a1.3 1.3 0 0 0 .33.71 2.07 2.07 0 0 0 2.92-.55 5.24 5.24 0 0 0 .22-1.95 2.23 2.23 0 0 1-.82.77 2.94 2.94 0 0 1-3.2-.53 3.46 3.46 0 0 1-.83-2.59 3.94 3.94 0 0 1 .83-2.67 2.57 2.57 0 0 1 2-1 2.46 2.46 0 0 1 1.41.4zm.14 1.22a1.66 1.66 0 0 0-1.32-.61 1.63 1.63 0 0 0-1.64 1.13 4.44 4.44 0 0 0-.28 1.59 2.82 2.82 0 0 0 .46 1.75 1.5 1.5 0 0 0 1.25.6 1.75 1.75 0 0 0 1.72-1.11 3.62 3.62 0 0 0 .28-1.47 2.85 2.85 0 0 0-.47-1.87zM62.74 63.76h1.14v3.48a3.29 3.29 0 0 1 .73-.72 2.46 2.46 0 0 1 1.39-.37 2 2 0 0 1 2 1 3.53 3.53 0 0 1 .29 1.57v4.36h-1.18v-4.25a2.39 2.39 0 0 0-.19-1.1 1.22 1.22 0 0 0-1.17-.56 2 2 0 0 0-1.29.49 2.35 2.35 0 0 0-.58 1.85v3.61h-1.14zM70.4 64.42h1.16v1.9h1.09v.93h-1.1v4.44a.48.48 0 0 0 .24.48 1 1 0 0 0 .44.07h.4v.91a2.52 2.52 0 0 1-.41.08h-.46a1.24 1.24 0 0 1-1.08-.41 1.82 1.82 0 0 1-.29-1.06v-4.5h-.92v-.93h.92zM16.53 39.08a2.67 2.67 0 0 1 .86 1.92h-1.11a2.06 2.06 0 0 0-.46-1 1.46 1.46 0 0 0-1.16-.42 1.6 1.6 0 0 0-1.56 1.02 4.23 4.23 0 0 0-.3 1.71 3.2 3.2 0 0 0 .42 1.69 1.48 1.48 0 0 0 1.36.7 1.49 1.49 0 0 0 1.13-.43 2.38 2.38 0 0 0 .58-1.19h1.11a3 3 0 0 1-1 2 3 3 0 0 1-1.95.63 2.6 2.6 0 0 1-2.13-1 3.73 3.73 0 0 1-.79-2.43 4.1 4.1 0 0 1 .87-2.79 2.81 2.81 0 0 1 2.22-1 3 3 0 0 1 1.91.59zM22.37 41.4a.62.62 0 0 0 .53-.33 1 1 0 0 0 .08-.44.93.93 0 0 0-.42-.85 2.22 2.22 0 0 0-1.19-.26 1.5 1.5 0 0 0-1.27.48 1.6 1.6 0 0 0-.27.8h-1.06a2 2 0 0 1 .81-1.8 3.34 3.34 0 0 1 1.82-.49 3.69 3.69 0 0 1 1.95.46 1.55 1.55 0 0 1 .74 1.42v3.92a.5.5 0 0 0 .07.29.35.35 0 0 0 .31.11h.37v.84l-.41.1h-.38a.94.94 0 0 1-.86-.42 1.61 1.61 0 0 1-.2-.63 2.9 2.9 0 0 1-1 .79 3.11 3.11 0 0 1-1.44.34 2.14 2.14 0 0 1-1.55-.56 1.9 1.9 0 0 1-.6-1.44 1.85 1.85 0 0 1 .6-1.46 2.82 2.82 0 0 1 1.55-.64zM20 44.48a1.35 1.35 0 0 0 .86.29 2.62 2.62 0 0 0 1.14-.28 1.57 1.57 0 0 0 1-1.51v-.92a2 2 0 0 1-.54.22 4.51 4.51 0 0 1-.65.13l-.69.09a2.68 2.68 0 0 0-.93.26 1 1 0 0 0-.53 1 .94.94 0 0 0 .34.72zM26.06 38.75h1.12v.9a2.77 2.77 0 0 1 .75-.72 2.42 2.42 0 0 1 1.36-.38 2.57 2.57 0 0 1 2 .88 3.62 3.62 0 0 1 .77 2.57 3.88 3.88 0 0 1-1.17 3.17 2.64 2.64 0 0 1-1.72.6 2.35 2.35 0 0 1-1.29-.34 3 3 0 0 1-.68-.65v3.47h-1.14zm4.3 5.33a3.18 3.18 0 0 0 .53-2 3.72 3.72 0 0 0-.24-1.4 1.73 1.73 0 0 0-3.26.06 4.69 4.69 0 0 0-.24 1.61 3.4 3.4 0 0 0 .24 1.34 1.73 1.73 0 0 0 3 .38zM37.39 36.16h1.14v3.48a3.31 3.31 0 0 1 .73-.72 2.46 2.46 0 0 1 1.38-.36 2 2 0 0 1 2 1 3.53 3.53 0 0 1 .29 1.57v4.36h-1.18v-4.26a2.39 2.39 0 0 0-.19-1.1 1.22 1.22 0 0 0-1.17-.56 2 2 0 0 0-1.29.49 2.35 2.35 0 0 0-.58 1.85v3.61h-1.13zM49 38.9a2.59 2.59 0 0 1 1 .88 3.07 3.07 0 0 1 .45 1.2 7.9 7.9 0 0 1 .1 1.5h-4.9a2.94 2.94 0 0 0 .48 1.67 1.62 1.62 0 0 0 1.41.63 1.81 1.81 0 0 0 1.46-.6 2 2 0 0 0 .42-.8h1.08a2.38 2.38 0 0 1-.29.83 3 3 0 0 1-.56.75 2.64 2.64 0 0 1-1.28.69 3.87 3.87 0 0 1-.93.1 2.84 2.84 0 0 1-2.14-.92 3.6 3.6 0 0 1-.88-2.59 3.92 3.92 0 0 1 .88-2.66 2.9 2.9 0 0 1 2.31-1 3.07 3.07 0 0 1 1.39.32zm.41 2.67a3 3 0 0 0-.32-1.19 1.64 1.64 0 0 0-1.55-.83 1.72 1.72 0 0 0-1.31.57 2.15 2.15 0 0 0-.56 1.44zM52.24 36.19h1.16v1.29h-1.16zm0 2.56h1.16v6.77h-1.16zM59.1 39a3.16 3.16 0 0 1 .66.65v-.86h1.05V45a4.58 4.58 0 0 1-.38 2 2.72 2.72 0 0 1-2.68 1.38 3.27 3.27 0 0 1-1.84-.49 1.92 1.92 0 0 1-.84-1.54h1.16a1.3 1.3 0 0 0 .33.71 2.07 2.07 0 0 0 2.92-.55 5.24 5.24 0 0 0 .22-1.95 2.23 2.23 0 0 1-.82.77 2.94 2.94 0 0 1-3.2-.53 3.45 3.45 0 0 1-.83-2.59 3.94 3.94 0 0 1 .83-2.67 2.57 2.57 0 0 1 2-1 2.46 2.46 0 0 1 1.42.46zm.14 1.22a1.65 1.65 0 0 0-1.32-.61 1.63 1.63 0 0 0-1.64 1.13 4.43 4.43 0 0 0-.28 1.57 2.82 2.82 0 0 0 .46 1.75 1.49 1.49 0 0 0 1.25.6 1.75 1.75 0 0 0 1.72-1.11 3.6 3.6 0 0 0 .28-1.47 2.84 2.84 0 0 0-.47-1.87zM62.74 36.16h1.14v3.48a3.31 3.31 0 0 1 .73-.72 2.46 2.46 0 0 1 1.39-.37 2 2 0 0 1 2 1 3.53 3.53 0 0 1 .29 1.57v4.36h-1.18v-4.25a2.39 2.39 0 0 0-.19-1.1 1.22 1.22 0 0 0-1.17-.56 2 2 0 0 0-1.29.49 2.35 2.35 0 0 0-.58 1.85v3.61h-1.14zM70.4 36.82h1.16v1.9h1.09v.93h-1.1v4.44a.48.48 0 0 0 .24.48 1 1 0 0 0 .44.07h.4v.91a2.52 2.52 0 0 1-.41.08h-.46a1.24 1.24 0 0 1-1.08-.41 1.82 1.82 0 0 1-.29-1.06v-4.5h-.92v-.93h.92z"/><path class="cls-3" d="M79.33 32.58h672.43"/><path d="M22.58 28.34a.62.62 0 0 0 .53-.33 1 1 0 0 0 .08-.44.93.93 0 0 0-.42-.85 2.22 2.22 0 0 0-1.19-.26 1.5 1.5 0 0 0-1.27.48 1.61 1.61 0 0 0-.27.8H19a2 2 0 0 1 .79-1.74 3.34 3.34 0 0 1 1.82-.49 3.7 3.7 0 0 1 1.95.46 1.55 1.55 0 0 1 .74 1.42v3.92a.5.5 0 0 0 .07.29.35.35 0 0 0 .31.11h.37v.84l-.41.1h-.38a.94.94 0 0 1-.86-.42 1.63 1.63 0 0 1-.2-.63 2.92 2.92 0 0 1-1 .79 3.11 3.11 0 0 1-1.44.34 2.15 2.15 0 0 1-1.55-.57 1.9 1.9 0 0 1-.6-1.44 1.85 1.85 0 0 1 .59-1.46 2.81 2.81 0 0 1 1.55-.64zm-2.41 3.09a1.35 1.35 0 0 0 .86.29 2.61 2.61 0 0 0 1.17-.28 1.57 1.57 0 0 0 1-1.51V29a2 2 0 0 1-.54.22 4.55 4.55 0 0 1-.65.13l-.69.09a2.69 2.69 0 0 0-.93.26 1 1 0 0 0-.53 1 .94.94 0 0 0 .32.73zM27 30.33a1.64 1.64 0 0 0 .29.88 1.85 1.85 0 0 0 1.53.55 2.29 2.29 0 0 0 1.18-.28.91.91 0 0 0 .49-.85.73.73 0 0 0-.39-.63 4.72 4.72 0 0 0-1-.32l-.92-.23a4.56 4.56 0 0 1-1.3-.48 1.44 1.44 0 0 1-.75-1.28 2 2 0 0 1 .71-1.56 2.83 2.83 0 0 1 1.89-.6 2.64 2.64 0 0 1 2.25.9 1.94 1.94 0 0 1 .42 1.23h-1.08a1.3 1.3 0 0 0-.28-.7 1.81 1.81 0 0 0-1.4-.45 1.7 1.7 0 0 0-1 .25.76.76 0 0 0-.34.65.8.8 0 0 0 .45.71 2.71 2.71 0 0 0 .76.28l.77.18a6 6 0 0 1 1.68.58 1.53 1.53 0 0 1 .67 1.38 2.08 2.08 0 0 1-.7 1.57 3 3 0 0 1-2.12.66 2.87 2.87 0 0 1-2.18-.77 2.59 2.59 0 0 1-.68-1.7zM37.55 26a2.67 2.67 0 0 1 .87 1.92H37.3a2.06 2.06 0 0 0-.46-1 1.46 1.46 0 0 0-1.16-.42 1.6 1.6 0 0 0-1.56 1.06 4.23 4.23 0 0 0-.3 1.71 3.2 3.2 0 0 0 .43 1.73 1.67 1.67 0 0 0 2.48.26 2.38 2.38 0 0 0 .58-1.19h1.11a2.69 2.69 0 0 1-2.9 2.6 2.6 2.6 0 0 1-2.13-1 3.73 3.73 0 0 1-.79-2.43 4.1 4.1 0 0 1 .87-2.79 2.81 2.81 0 0 1 2.22-1 3 3 0 0 1 1.86.55zM44 25.85a2.59 2.59 0 0 1 1 .88 3.07 3.07 0 0 1 .45 1.2 7.9 7.9 0 0 1 .1 1.5h-4.96a2.94 2.94 0 0 0 .48 1.67 1.62 1.62 0 0 0 1.41.63 1.81 1.81 0 0 0 1.42-.59 2 2 0 0 0 .42-.8h1.12a2.38 2.38 0 0 1-.29.83 3 3 0 0 1-.56.75 2.64 2.64 0 0 1-1.28.69 3.87 3.87 0 0 1-.93.1 2.84 2.84 0 0 1-2.14-.92 3.6 3.6 0 0 1-.88-2.59 3.92 3.92 0 0 1 .88-2.66 2.9 2.9 0 0 1 2.31-1 3.07 3.07 0 0 1 1.45.31zm.41 2.67a3 3 0 0 0-.41-1.19 1.64 1.64 0 0 0-1.55-.83 1.72 1.72 0 0 0-1.31.57 2.15 2.15 0 0 0-.56 1.44zM47.18 25.66h1.08v1a3.05 3.05 0 0 1 1-.86 2.72 2.72 0 0 1 1.2-.26 2 2 0 0 1 2 1 3.58 3.58 0 0 1 .28 1.58v4.36h-1.18v-4.31a2.31 2.31 0 0 0-.18-1 1.12 1.12 0 0 0-1.1-.63 2.26 2.26 0 0 0-.67.08 1.71 1.71 0 0 0-.83.56 1.68 1.68 0 0 0-.37.7 4.64 4.64 0 0 0-.09 1v3.56h-1.14zM58.34 25.87a3.07 3.07 0 0 1 .69.67V23.1h1.1v9.36h-1v-.95a2.47 2.47 0 0 1-.94.91 2.68 2.68 0 0 1-1.25.28 2.52 2.52 0 0 1-2-1 3.75 3.75 0 0 1-.83-2.54 4.4 4.4 0 0 1 .76-2.57A2.47 2.47 0 0 1 57 25.54a2.4 2.4 0 0 1 1.34.33zM55.79 31a1.61 1.61 0 0 0 1.48.74 1.55 1.55 0 0 0 1.3-.68 3.24 3.24 0 0 0 .51-2 2.91 2.91 0 0 0-.52-1.91 1.63 1.63 0 0 0-1.29-.62 1.7 1.7 0 0 0-1.39.66 3 3 0 0 0-.53 1.94 3.39 3.39 0 0 0 .44 1.87zM66.23 25.85a2.58 2.58 0 0 1 1 .88 3 3 0 0 1 .45 1.2 7.88 7.88 0 0 1 .1 1.5h-4.91a2.94 2.94 0 0 0 .49 1.67 1.62 1.62 0 0 0 1.4.63 1.8 1.8 0 0 0 1.42-.59 2 2 0 0 0 .42-.8h1.12a2.36 2.36 0 0 1-.29.83 3 3 0 0 1-.56.75 2.63 2.63 0 0 1-1.28.69 3.88 3.88 0 0 1-.93.1 2.83 2.83 0 0 1-2.14-.92 3.6 3.6 0 0 1-.88-2.59 3.92 3.92 0 0 1 .88-2.66 2.91 2.91 0 0 1 2.31-1 3.07 3.07 0 0 1 1.4.31zm.41 2.67a3 3 0 0 0-.32-1.19 1.64 1.64 0 0 0-1.55-.83 1.72 1.72 0 0 0-1.31.57 2.16 2.16 0 0 0-.56 1.44zM69.48 25.66h1.09v1.17a2.6 2.6 0 0 1 .65-.83 1.7 1.7 0 0 1 1.2-.49h.37v1.21h-.38a1.63 1.63 0 0 0-1.33.55 1.94 1.94 0 0 0-.46 1.28v3.91h-1.14zM560.25 162.6a1.64 1.64 0 0 0 .29.88 1.85 1.85 0 0 0 1.53.55 2.29 2.29 0 0 0 1.14-.28.91.91 0 0 0 .49-.85.73.73 0 0 0-.39-.67 4.72 4.72 0 0 0-1-.32l-.92-.23a4.56 4.56 0 0 1-1.3-.48 1.44 1.44 0 0 1-.75-1.28 2 2 0 0 1 .71-1.56 2.83 2.83 0 0 1 1.89-.6 2.64 2.64 0 0 1 2.25.9 1.94 1.94 0 0 1 .42 1.23h-1.08a1.3 1.3 0 0 0-.28-.7 1.81 1.81 0 0 0-1.4-.45 1.7 1.7 0 0 0-1 .25.76.76 0 0 0-.34.65.8.8 0 0 0 .45.71 2.71 2.71 0 0 0 .76.28l.77.18a6 6 0 0 1 1.68.58 1.53 1.53 0 0 1 .67 1.38 2.08 2.08 0 0 1-.7 1.57 3 3 0 0 1-2.14.66 2.87 2.87 0 0 1-2.18-.69 2.59 2.59 0 0 1-.68-1.7zM567.41 157.93v4.51a2 2 0 0 0 .16.85 1.12 1.12 0 0 0 1.11.61 1.56 1.56 0 0 0 1.58-1.07 4.34 4.34 0 0 0 .23-1.57v-3.34h1.14v6.8h-1.08v-1a2.3 2.3 0 0 1-.54.65 2.35 2.35 0 0 1-1.56.53 2 2 0 0 1-1.94-1 2.93 2.93 0 0 1-.28-1.39v-4.62zM573.6 158h1.12v.9a2.77 2.77 0 0 1 .75-.72 2.42 2.42 0 0 1 1.36-.38 2.57 2.57 0 0 1 2 .88 3.62 3.62 0 0 1 .81 2.53 3.88 3.88 0 0 1-1.17 3.17 2.64 2.64 0 0 1-1.72.6 2.35 2.35 0 0 1-1.29-.34 3 3 0 0 1-.68-.65v3.47h-1.18zm4.3 5.33a3.18 3.18 0 0 0 .53-2 3.72 3.72 0 0 0-.24-1.4 1.73 1.73 0 0 0-3.26.06 4.69 4.69 0 0 0-.24 1.61 3.4 3.4 0 0 0 .24 1.34 1.73 1.73 0 0 0 3 .38zM585.32 158.12a2.58 2.58 0 0 1 1 .88 3 3 0 0 1 .45 1.2 7.88 7.88 0 0 1 .1 1.5H582a2.94 2.94 0 0 0 .49 1.67 1.62 1.62 0 0 0 1.4.63 1.8 1.8 0 0 0 1.42-.59 2 2 0 0 0 .42-.8h1.12a2.36 2.36 0 0 1-.29.83 3 3 0 0 1-.56.75 2.63 2.63 0 0 1-1.28.69 3.88 3.88 0 0 1-.93.1 2.83 2.83 0 0 1-2.14-.92 3.6 3.6 0 0 1-.88-2.59 3.92 3.92 0 0 1 .88-2.66 2.91 2.91 0 0 1 2.31-1 3.07 3.07 0 0 1 1.36.31zm.41 2.67a3 3 0 0 0-.32-1.19 1.64 1.64 0 0 0-1.55-.83 1.72 1.72 0 0 0-1.31.57 2.16 2.16 0 0 0-.56 1.44zM588.57 157.93h1.08v1.17a2.59 2.59 0 0 1 .65-.83 1.69 1.69 0 0 1 1.2-.49h.37V159h-.38a1.63 1.63 0 0 0-1.33.55 1.94 1.94 0 0 0-.46 1.28v3.91h-1.14zM593.07 157.93h1.09v1a3 3 0 0 1 1-.86 2.72 2.72 0 0 1 1.2-.26 2 2 0 0 1 2 1 3.59 3.59 0 0 1 .28 1.58v4.36h-1.16v-4.29a2.33 2.33 0 0 0-.18-1 1.12 1.12 0 0 0-1.1-.63 2.26 2.26 0 0 0-.67.08 1.72 1.72 0 0 0-.83.56 1.68 1.68 0 0 0-.37.7 4.64 4.64 0 0 0-.09 1v3.56h-1.14zM604.69 158.12a2.58 2.58 0 0 1 1 .88 3 3 0 0 1 .45 1.2 7.88 7.88 0 0 1 .1 1.5h-4.95a2.94 2.94 0 0 0 .49 1.67 1.62 1.62 0 0 0 1.4.63 1.8 1.8 0 0 0 1.42-.59 2 2 0 0 0 .42-.8h1.12a2.36 2.36 0 0 1-.29.83 3 3 0 0 1-.56.75 2.63 2.63 0 0 1-1.28.69 3.88 3.88 0 0 1-.93.1A2.83 2.83 0 0 1 601 164a3.6 3.6 0 0 1-.88-2.59 3.92 3.92 0 0 1 .88-2.66 2.91 2.91 0 0 1 2.31-1 3.07 3.07 0 0 1 1.38.37zm.41 2.67a3 3 0 0 0-.32-1.19 1.64 1.64 0 0 0-1.55-.83 1.72 1.72 0 0 0-1.31.57 2.16 2.16 0 0 0-.56 1.44zM608.6 162.6a1.64 1.64 0 0 0 .29.88 1.85 1.85 0 0 0 1.53.55 2.3 2.3 0 0 0 1.14-.28.91.91 0 0 0 .49-.85.73.73 0 0 0-.39-.67 4.73 4.73 0 0 0-1-.32l-.92-.23a4.56 4.56 0 0 1-1.3-.48 1.44 1.44 0 0 1-.75-1.28 2 2 0 0 1 .7-1.56 2.83 2.83 0 0 1 1.89-.6 2.65 2.65 0 0 1 2.25.9 1.94 1.94 0 0 1 .42 1.23h-1.08a1.29 1.29 0 0 0-.28-.7 1.81 1.81 0 0 0-1.4-.45 1.7 1.7 0 0 0-1 .25.77.77 0 0 0-.34.65.8.8 0 0 0 .45.71 2.72 2.72 0 0 0 .76.28l.77.18a6.07 6.07 0 0 1 1.68.58 1.53 1.53 0 0 1 .67 1.38 2.08 2.08 0 0 1-.7 1.57 3 3 0 0 1-2.12.66 2.87 2.87 0 0 1-2.17-.69 2.58 2.58 0 0 1-.68-1.7zM615.29 162.6a1.64 1.64 0 0 0 .29.88 1.85 1.85 0 0 0 1.53.55 2.29 2.29 0 0 0 1.14-.28.91.91 0 0 0 .49-.85.73.73 0 0 0-.39-.67 4.72 4.72 0 0 0-1-.32l-.92-.23a4.56 4.56 0 0 1-1.3-.48 1.44 1.44 0 0 1-.75-1.28 2 2 0 0 1 .71-1.56 2.83 2.83 0 0 1 1.89-.6 2.64 2.64 0 0 1 2.25.9 1.94 1.94 0 0 1 .42 1.23h-1.08a1.3 1.3 0 0 0-.28-.7 1.81 1.81 0 0 0-1.4-.45 1.7 1.7 0 0 0-1 .25.76.76 0 0 0-.34.65.8.8 0 0 0 .45.71 2.71 2.71 0 0 0 .76.28l.77.18a6 6 0 0 1 1.68.58 1.53 1.53 0 0 1 .67 1.38 2.08 2.08 0 0 1-.7 1.57 3 3 0 0 1-2.12.66 2.87 2.87 0 0 1-2.18-.69 2.59 2.59 0 0 1-.68-1.7zM649.49 48.19h1.16v1.29h-1.16zm0 2.56h1.16v6.77h-1.16zM652.57 50.72h1.08v1a3.05 3.05 0 0 1 1-.86 2.72 2.72 0 0 1 1.2-.26 2 2 0 0 1 2 1 3.59 3.59 0 0 1 .28 1.58v4.36h-1.16v-4.31a2.33 2.33 0 0 0-.18-1 1.12 1.12 0 0 0-1.11-.63 2.26 2.26 0 0 0-.67.08 1.72 1.72 0 0 0-.83.56 1.68 1.68 0 0 0-.37.7 4.64 4.64 0 0 0-.09 1v3.56h-1.14zM664.49 51.08a2.68 2.68 0 0 1 .87 1.92h-1.11a2 2 0 0 0-.46-1 1.46 1.46 0 0 0-1.16-.42 1.6 1.6 0 0 0-1.56 1.06 4.23 4.23 0 0 0-.3 1.71 3.21 3.21 0 0 0 .43 1.72 1.67 1.67 0 0 0 2.48.26 2.38 2.38 0 0 0 .58-1.19h1.11a2.69 2.69 0 0 1-2.9 2.6 2.6 2.6 0 0 1-2.13-1 3.73 3.73 0 0 1-.79-2.43 4.1 4.1 0 0 1 .87-2.79 2.81 2.81 0 0 1 2.22-1 3 3 0 0 1 1.85.56zM666.72 50.72h1.09v1.17a2.59 2.59 0 0 1 .65-.83 1.69 1.69 0 0 1 1.2-.49h.37v1.23h-.38a1.63 1.63 0 0 0-1.33.55 1.94 1.94 0 0 0-.46 1.28v3.91h-1.14zM675.41 50.91a2.59 2.59 0 0 1 1 .88 3.05 3.05 0 0 1 .45 1.2 7.8 7.8 0 0 1 .1 1.5h-4.95a3 3 0 0 0 .49 1.67 1.62 1.62 0 0 0 1.41.63 1.8 1.8 0 0 0 1.42-.59 2 2 0 0 0 .42-.8h1.12a2.34 2.34 0 0 1-.29.83 3 3 0 0 1-.58.77 2.64 2.64 0 0 1-1.28.69 3.88 3.88 0 0 1-.93.1 2.83 2.83 0 0 1-2.14-.92 3.6 3.6 0 0 1-.88-2.59 3.93 3.93 0 0 1 .88-2.66 2.91 2.91 0 0 1 2.31-1 3.06 3.06 0 0 1 1.45.29zm.41 2.67a3 3 0 0 0-.32-1.19 1.64 1.64 0 0 0-1.55-.83 1.72 1.72 0 0 0-1.31.57 2.16 2.16 0 0 0-.56 1.44zM682.28 53.4a.62.62 0 0 0 .53-.33 1 1 0 0 0 .08-.44.93.93 0 0 0-.41-.85 2.22 2.22 0 0 0-1.19-.26A1.5 1.5 0 0 0 680 52a1.6 1.6 0 0 0-.27.8h-1.07a2 2 0 0 1 .81-1.75 3.34 3.34 0 0 1 1.82-.49 3.69 3.69 0 0 1 1.95.46 1.55 1.55 0 0 1 .74 1.42v3.92a.5.5 0 0 0 .07.29.35.35 0 0 0 .31.11h.37v.84l-.41.1h-.38a.94.94 0 0 1-.86-.42 1.63 1.63 0 0 1-.2-.63 2.91 2.91 0 0 1-1 .79 3.11 3.11 0 0 1-1.44.34 2.14 2.14 0 0 1-1.55-.57 1.9 1.9 0 0 1-.6-1.44 1.85 1.85 0 0 1 .59-1.46 2.81 2.81 0 0 1 1.55-.64zm-2.41 3.09a1.34 1.34 0 0 0 .86.29 2.61 2.61 0 0 0 1.17-.28 1.57 1.57 0 0 0 1-1.51v-.92a2 2 0 0 1-.54.22 4.51 4.51 0 0 1-.65.13l-.69.09a2.69 2.69 0 0 0-.93.26 1 1 0 0 0-.53 1 .94.94 0 0 0 .32.72zM686.74 55.38a1.65 1.65 0 0 0 .29.88 1.85 1.85 0 0 0 1.53.55 2.3 2.3 0 0 0 1.14-.28.91.91 0 0 0 .49-.85.73.73 0 0 0-.39-.67 4.74 4.74 0 0 0-1-.32l-.92-.23a4.55 4.55 0 0 1-1.3-.48 1.44 1.44 0 0 1-.75-1.28 2 2 0 0 1 .7-1.56 2.83 2.83 0 0 1 1.89-.6 2.64 2.64 0 0 1 2.25.9 1.94 1.94 0 0 1 .42 1.23H690a1.29 1.29 0 0 0-.28-.7 1.81 1.81 0 0 0-1.4-.45 1.7 1.7 0 0 0-1 .25.77.77 0 0 0-.34.65.8.8 0 0 0 .45.71 2.7 2.7 0 0 0 .76.28l.77.18a6 6 0 0 1 1.68.58 1.53 1.53 0 0 1 .67 1.38 2.08 2.08 0 0 1-.7 1.57 3 3 0 0 1-2.12.66 2.87 2.87 0 0 1-2.17-.69 2.58 2.58 0 0 1-.68-1.7zM697 50.91a2.58 2.58 0 0 1 1 .88 3.05 3.05 0 0 1 .45 1.2 7.9 7.9 0 0 1 .1 1.5h-4.95a2.93 2.93 0 0 0 .49 1.67 1.61 1.61 0 0 0 1.4.63 1.8 1.8 0 0 0 1.42-.59 2 2 0 0 0 .42-.8h1.12a2.38 2.38 0 0 1-.29.83 3 3 0 0 1-.56.75 2.64 2.64 0 0 1-1.28.69 3.87 3.87 0 0 1-.93.1 2.84 2.84 0 0 1-2.14-.92 3.61 3.61 0 0 1-.88-2.59 3.92 3.92 0 0 1 .88-2.66 2.91 2.91 0 0 1 2.31-1 3.07 3.07 0 0 1 1.44.31zm.41 2.67a3 3 0 0 0-.32-1.19 1.64 1.64 0 0 0-1.55-.83 1.72 1.72 0 0 0-1.31.57 2.16 2.16 0 0 0-.56 1.44zM708.24 50.72h1.26q-.24.65-1.07 3-.62 1.75-1 2.86a19.26 19.26 0 0 1-1.4 3.17 1.59 1.59 0 0 1-1.39.57h-.37l-.32-.07v-1l.43.1h.24a.83.83 0 0 0 .47-.1 1 1 0 0 0 .25-.26s.1-.21.23-.52l.29-.7-2.51-7h1.29l1.82 5.54zM717.05 52.3v1.07h-6.62V52.3zm0 2.72v1.08h-6.62V55zM717.82 50.72h1.48l1.56 2.39 1.58-2.39h1.39L721.54 54l2.39 3.48h-1.46L720.79 55l-1.64 2.55h-1.45l2.4-3.55zM685.55 155.41h1.16v1.29h-1.16zm0 2.56h1.16v6.77h-1.16zM688.64 157.93h1.09v1a3 3 0 0 1 1-.86 2.72 2.72 0 0 1 1.2-.26 2 2 0 0 1 2 1 3.59 3.59 0 0 1 .28 1.58v4.36H693v-4.29a2.33 2.33 0 0 0-.18-1 1.12 1.12 0 0 0-1.1-.63 2.26 2.26 0 0 0-.67.08 1.72 1.72 0 0 0-.83.56 1.68 1.68 0 0 0-.37.7 4.64 4.64 0 0 0-.09 1v3.56h-1.14zM700.55 158.29a2.68 2.68 0 0 1 .87 1.92h-1.11a2.05 2.05 0 0 0-.46-1 1.46 1.46 0 0 0-1.16-.42 1.61 1.61 0 0 0-1.56 1.06 4.23 4.23 0 0 0-.3 1.71 3.21 3.21 0 0 0 .43 1.72 1.68 1.68 0 0 0 2.49.26 2.37 2.37 0 0 0 .57-1.19h1.11a2.69 2.69 0 0 1-2.9 2.6 2.6 2.6 0 0 1-2.13-1 3.73 3.73 0 0 1-.79-2.43 4.1 4.1 0 0 1 .87-2.79 2.81 2.81 0 0 1 2.21-1 3 3 0 0 1 1.86.56zM702.79 157.93h1.08v1.17a2.59 2.59 0 0 1 .65-.83 1.69 1.69 0 0 1 1.2-.49h.37V159h-.38a1.63 1.63 0 0 0-1.33.55 1.94 1.94 0 0 0-.46 1.28v3.91h-1.14zM711.48 158.12a2.59 2.59 0 0 1 1 .88 3.07 3.07 0 0 1 .45 1.2 7.9 7.9 0 0 1 .1 1.5h-4.94a2.94 2.94 0 0 0 .48 1.67 1.62 1.62 0 0 0 1.43.63 1.81 1.81 0 0 0 1.42-.59 2 2 0 0 0 .42-.8H713a2.38 2.38 0 0 1-.29.83 3 3 0 0 1-.56.75 2.64 2.64 0 0 1-1.28.69 3.87 3.87 0 0 1-.93.1 2.84 2.84 0 0 1-2.14-.92 3.6 3.6 0 0 1-.88-2.59 3.92 3.92 0 0 1 .88-2.66 2.9 2.9 0 0 1 2.31-1 3.07 3.07 0 0 1 1.37.31zm.41 2.67a3 3 0 0 0-.32-1.19 1.64 1.64 0 0 0-1.55-.83 1.72 1.72 0 0 0-1.31.57 2.15 2.15 0 0 0-.56 1.44zM718.35 160.62a.62.62 0 0 0 .53-.33 1 1 0 0 0 .08-.44.93.93 0 0 0-.42-.85 2.22 2.22 0 0 0-1.19-.26 1.5 1.5 0 0 0-1.27.48 1.61 1.61 0 0 0-.27.8h-1.07a2 2 0 0 1 .81-1.75 3.34 3.34 0 0 1 1.82-.49 3.7 3.7 0 0 1 1.95.46 1.55 1.55 0 0 1 .74 1.42v3.92a.5.5 0 0 0 .07.29.35.35 0 0 0 .31.11h.37v.84l-.41.1h-.38a.94.94 0 0 1-.86-.42 1.63 1.63 0 0 1-.2-.63 2.92 2.92 0 0 1-1 .79 3.11 3.11 0 0 1-1.44.34 2.15 2.15 0 0 1-1.55-.57 1.9 1.9 0 0 1-.6-1.44 1.85 1.85 0 0 1 .59-1.46 2.81 2.81 0 0 1 1.55-.64zm-2.41 3.09a1.35 1.35 0 0 0 .86.29 2.61 2.61 0 0 0 1.17-.28 1.57 1.57 0 0 0 1-1.51v-.92a2 2 0 0 1-.54.22 4.55 4.55 0 0 1-.65.13l-.69.09a2.69 2.69 0 0 0-.93.26 1 1 0 0 0-.53 1 .94.94 0 0 0 .31.71zM722.81 162.6a1.64 1.64 0 0 0 .29.88 1.85 1.85 0 0 0 1.53.55 2.29 2.29 0 0 0 1.14-.28.91.91 0 0 0 .49-.85.73.73 0 0 0-.39-.67 4.72 4.72 0 0 0-1-.32l-.92-.23a4.56 4.56 0 0 1-1.3-.48 1.44 1.44 0 0 1-.75-1.28 2 2 0 0 1 .71-1.56 2.83 2.83 0 0 1 1.89-.6 2.64 2.64 0 0 1 2.25.9 1.94 1.94 0 0 1 .42 1.23h-1.08a1.3 1.3 0 0 0-.28-.7 1.81 1.81 0 0 0-1.4-.45 1.7 1.7 0 0 0-1 .25.76.76 0 0 0-.34.65.8.8 0 0 0 .45.71 2.71 2.71 0 0 0 .76.28l.77.18a6 6 0 0 1 1.68.58 1.53 1.53 0 0 1 .67 1.38 2.08 2.08 0 0 1-.7 1.57 3 3 0 0 1-2.12.66 2.87 2.87 0 0 1-2.18-.69 2.59 2.59 0 0 1-.68-1.7zM733 158.12a2.58 2.58 0 0 1 1 .88 3 3 0 0 1 .45 1.2 7.88 7.88 0 0 1 .1 1.5h-4.95a2.94 2.94 0 0 0 .49 1.67 1.62 1.62 0 0 0 1.4.63 1.8 1.8 0 0 0 1.42-.59 2 2 0 0 0 .42-.8h1.12a2.36 2.36 0 0 1-.29.83 3 3 0 0 1-.56.75 2.63 2.63 0 0 1-1.28.69 3.88 3.88 0 0 1-.93.1 2.83 2.83 0 0 1-2.14-.92 3.6 3.6 0 0 1-.88-2.59 3.92 3.92 0 0 1 .88-2.66 2.91 2.91 0 0 1 2.31-1 3.07 3.07 0 0 1 1.44.31zm.41 2.67a3 3 0 0 0-.32-1.19 1.64 1.64 0 0 0-1.55-.83 1.72 1.72 0 0 0-1.31.57 2.16 2.16 0 0 0-.56 1.44zM739.41 157.93h1.48l1.56 2.39 1.58-2.39h1.39l-2.29 3.28 2.39 3.48h-1.46l-1.69-2.55-1.64 2.55h-1.45l2.39-3.48z"/></g></g></svg>