<svg xmlns="http://www.w3.org/2000/svg" viewBox="0 0 762.25 206"><defs><style>.cls-2{fill:#e6ffd7}.cls-3,.cls-8{fill:none}.cls-3{stroke:#1a171b;stroke-width:.5px}.cls-4{fill:#1a171b}.cls-7{fill:#60eb00}.cls-6{mix-blend-mode:multiply}.cls-8{stroke:#60eb00;stroke-miterlimit:10;stroke-width:2px}</style></defs><g style="isolation:isolate"><path class="cls-2" d="M.47-.09h762v206H.47z" id="Background"/><g id="Lines"><path class="cls-2" d="M95.4 151.33h108.67V170H95.4z"/><path class="cls-3" d="M79.33 143.14h672.43M79.33 80.03h672.43M79.33 59.91h672.43M79.83 51.41h672.43M79.33 168.19h672.43M102.73 157.81H192.44"/><path class="cls-4" d="M106.15 160.21a.25.25 0 0 0-.08-.35l-3.23-2.05 3.23-2.05a.25.25 0 1 0-.27-.42l-3.56 2.27a.25.25 0 0 0 0 .42l3.56 2.27a.25.25 0 0 0 .35-.08zM189 160.21a.25.25 0 0 1 .08-.35l3.23-2.05-3.23-2.05a.25.25 0 1 1 .27-.42l3.56 2.27a.25.25 0 0 1 0 .42l-3.56 2.27a.25.25 0 0 1-.35-.08z"/><path class="cls-2" d="M116.44 149h62.29v16h-62.29zM437.74 152h78.17v14.5h-78.17zM220.49 152h72.92v14.5h-72.92zM541.74 152h78.17v14.5h-78.17z"/><path class="cls-3" d="M79.75 111.4h629.92"/></g><g id="Type_New2"><path d="M102.47 140.36V61.23c0-2.95 2.81-4.21 4.49-4.21a4.7 4.7 0 0 1 4.04 2.25l37 64 37-64a4.23 4.23 0 0 1 3.93-2.1 5.34 5.34 0 0 1 2.25.42 3.74 3.74 0 0 1 2.24 3.65v79.12a4.5 4.5 0 0 1-9 0V77.79L152 134a5 5 0 0 1-4.21 2.1 4.25 4.25 0 0 1-3.65-2.1l-32.69-56.21v62.57a4.5 4.5 0 0 1-9 0zM265.23 142.88h-50.64c-3.79 0-7-.7-7-1.4V81.16c0-.7 3.23-1.4 7-1.4h50.64c3.79 0 7 .7 7 1.4s-3.23 1.4-7 1.4H221.6v27.36h35.21c3.79 0 7 .7 7 1.4s-3.23 1.4-7 1.4H221.6v27.36h43.63c3.79 0 7 .7 7 1.4s-3.23 1.4-7 1.4zM288.24 79.75h64l.14.14c0 1.54-9.12 9.82-10 9.82h-22V135c0 .7-8.42 10-9.82 10l-.14-.14V89.71h-31.86l-.14-.14c0-1.26 9.26-9.82 9.82-9.82zM354.37 140.36v-31c0-8 .28-17.26 6.45-24 6.45-7 15.85-7.29 22.87-7.29h2.38c7.86 0 17.82.14 24.55 7.29 6 6.59 6.45 15.29 6.45 22.59v32.41a4.5 4.5 0 0 1-9 0v-24.83h-44.72v24.83a4.5 4.5 0 0 1-9 0zm53.73-33.25c-.14-6.73-1-12.77-4.35-16.27-3.51-3.79-9.68-4.35-18-4.35-7.86 0-14.45.28-18.1 4.35-3.23 3.51-4.07 9.26-4.21 16.27zm-33.67-37.18a3.92 3.92 0 0 1 1.68-3.23L397.3 51a4.29 4.29 0 0 1 2.81-1 4.62 4.62 0 0 1 4.63 4.35 3.88 3.88 0 0 1-1.82 3.09l-21.2 15.72a4.45 4.45 0 0 1-2.81.84c-2.1 0-4.48-1.68-4.48-4.07zM434.33 140.36V84c0-2.95 2.81-4.21 4.49-4.21h49.8a4.22 4.22 0 1 1 0 8.42h-45.31v18.94h36.9a4.22 4.22 0 1 1 0 8.42h-36.9v24.83a4.5 4.5 0 0 1-9 0zM555 142.88h-47.86a4.34 4.34 0 0 1-4.49-4.21V84a4.5 4.5 0 0 1 9 0v50.5H555a4.22 4.22 0 1 1 0 8.42zM608.43 78.07c8.56 0 19.22.56 26.79 7 8.14 6.87 8.28 17.54 8.28 26.23v1.12c0 8-.14 18.24-8.28 25.11-7.86 6.73-19.08 7-28.48 7h-5.33c-8.56 0-19.22-.56-26.79-7-8.14-6.87-8.28-17.54-8.28-26.23v-1.1c0-8 .14-18.24 8.28-25.11 7.86-6.73 18.94-7 28.34-7zm-27.78 13c-4.77 4.07-5.33 11.78-5.33 20.2 0 9 .84 16.27 5.33 20.2 5.19 4.35 14.73 4.63 24.27 4.63 10.24 0 19.22-.42 24.13-4.63s5.47-11.78 5.47-20.2c0-9-1-16.27-5.47-20.2-5.19-4.35-14.59-4.63-24.13-4.63-10.24.05-19.36.47-24.27 4.68zM662.86 140.36a4.5 4.5 0 0 1-9 0V84c0-2.95 2.81-4.21 4.49-4.21h32.13c6.31 0 13.47.14 19.08 3.37 6.17 3.51 6.87 10.24 6.87 14.59 0 5.05-1.26 11.22-6.87 14.45-5.33 3.09-12.06 3.37-17.68 3.37h-29zm25.25-33.25c6.45 0 13.61-.28 16.83-2.1 1.4-.84 2.53-3.09 2.53-7.3 0-3.79-1-6.59-2.53-7.44-2.95-1.68-9.82-2.1-16.83-2.1h-25.25v18.94zM717.43 132.64c0 .28-.14.42-.14.7L711 166.73a4.57 4.57 0 0 1-4.35 3.51 4.32 4.32 0 0 1-4.49-4.91l6.31-33.39a4.56 4.56 0 0 1 9 .7z"/></g><g id="Areas"><path d="M566.41 79.95l.05 63.17 77.08-.07-.05-63.16zm38.31 55.26l-27.82-23.63 27.79-23.49 28 23.45z" style="mix-blend-mode:multiply" fill="#60eb00"/><g class="cls-6"><path class="cls-7" d="M531 84.32a4.07 4.07 0 0 1-.28 1.25l-17.15 48.93H555a4.19 4.19 0 1 1 0 8.36h-47.52a4.32 4.32 0 0 1-4.46-4.18 1.86 1.86 0 0 1 .28-1.25l19-54.37a4.47 4.47 0 0 1 4.32-2.79 4.24 4.24 0 0 1 4.38 4.05z"/></g><g class="cls-6"><path class="cls-7" d="M434.28 140.28l1-26.35v-.14l1-36.46a4.39 4.39 0 0 1 4.6-4h.28l48.13 11.77c2.79.28 4 2.09 4 4a4.14 4.14 0 0 1-4.29 4.23h-.42L445 81.94l-.72 31.26 32.2-2.28c.14 0 .28-.14.42-.14a4.18 4.18 0 1 1 .14 8.36l-33 2.42-1 19a4.2 4.2 0 0 1-4.32 4 4.35 4.35 0 0 1-4.44-4.28z"/></g><path class="cls-7" d="M207.55 82.56h14.05v27.36h-14.05zM221.6 140h43.37v2.87H221.6z"/><path class="cls-8" d="M356.97 76l-18.75 18M291.72 76l-18.75 18M325.97 130.5l-18.75 18"/></g><g id="Names"><path d="M29.17 161.48a3 3 0 0 1 .69.67v-3.43H31v9.36h-1v-.95a2.47 2.47 0 0 1-1 .87 2.68 2.68 0 0 1-1.25.28 2.52 2.52 0 0 1-2-1 3.75 3.75 0 0 1-.83-2.54 4.4 4.4 0 0 1 .76-2.57 2.47 2.47 0 0 1 2.16-1.09 2.4 2.4 0 0 1 1.33.4zm-2.55 5.1a1.61 1.61 0 0 0 1.48.74 1.55 1.55 0 0 0 1.3-.68 3.24 3.24 0 0 0 .51-2 2.91 2.91 0 0 0-.52-1.91 1.63 1.63 0 0 0-1.29-.62 1.7 1.7 0 0 0-1.39.66 3 3 0 0 0-.53 1.94 3.38 3.38 0 0 0 .44 1.87zM37.06 161.46a2.58 2.58 0 0 1 1 .88 3.05 3.05 0 0 1 .45 1.2 7.89 7.89 0 0 1 .1 1.5h-4.92a2.94 2.94 0 0 0 .48 1.67 1.62 1.62 0 0 0 1.4.63 1.81 1.81 0 0 0 1.42-.59 2 2 0 0 0 .42-.8h1.12a2.37 2.37 0 0 1-.29.83 3 3 0 0 1-.56.75 2.63 2.63 0 0 1-1.28.69 3.88 3.88 0 0 1-.93.1 2.83 2.83 0 0 1-2.14-.92 3.6 3.6 0 0 1-.88-2.59 3.92 3.92 0 0 1 .88-2.66 2.91 2.91 0 0 1 2.31-1 3.07 3.07 0 0 1 1.42.31zm.41 2.67a3 3 0 0 0-.32-1.19 1.64 1.64 0 0 0-1.55-.83 1.72 1.72 0 0 0-1.31.57 2.16 2.16 0 0 0-.56 1.44zM40.19 161.3h1.11v.9a2.77 2.77 0 0 1 .75-.72 2.42 2.42 0 0 1 1.36-.38 2.57 2.57 0 0 1 2 .88 3.62 3.62 0 0 1 .81 2.53A3.88 3.88 0 0 1 45 167.7a2.64 2.64 0 0 1-1.72.6A2.35 2.35 0 0 1 42 168a3 3 0 0 1-.68-.65v3.47h-1.13zm4.3 5.33a3.18 3.18 0 0 0 .53-2 3.72 3.72 0 0 0-.24-1.4 1.73 1.73 0 0 0-3.26.06 4.69 4.69 0 0 0-.24 1.61 3.4 3.4 0 0 0 .24 1.34 1.73 1.73 0 0 0 3 .38zM47.93 159.37h1.16v1.9h1.09v.93h-1.09v4.44a.48.48 0 0 0 .24.48 1 1 0 0 0 .44.07h.45v.91a2.51 2.51 0 0 1-.41.08h-.46a1.24 1.24 0 0 1-1.09-.41 1.82 1.82 0 0 1-.29-1.06v-4.5H47v-.93h.92zM51.51 158.71h1.14v3.48a3.3 3.3 0 0 1 .73-.72 2.46 2.46 0 0 1 1.38-.36 2 2 0 0 1 2 1 3.53 3.53 0 0 1 .29 1.57v4.36h-1.17v-4.29a2.39 2.39 0 0 0-.19-1.1 1.22 1.22 0 0 0-1.17-.56 2 2 0 0 0-1.29.49 2.35 2.35 0 0 0-.58 1.85v3.61h-1.14zM67.67 162a3.43 3.43 0 0 1 .9 2.58 4.44 4.44 0 0 1-.79 2.71 2.87 2.87 0 0 1-2.46 1.07 2.78 2.78 0 0 1-2.21-.95 3.76 3.76 0 0 1-.82-2.55 4.07 4.07 0 0 1 .86-2.73 2.89 2.89 0 0 1 2.32-1 3 3 0 0 1 2.2.87zm-.67 4.47a4.32 4.32 0 0 0 .42-1.91 3.44 3.44 0 0 0-.3-1.55 1.69 1.69 0 0 0-1.64-.94 1.62 1.62 0 0 0-1.51.8 3.73 3.73 0 0 0-.47 1.93 3.24 3.24 0 0 0 .47 1.81 1.65 1.65 0 0 0 1.49.72 1.56 1.56 0 0 0 1.54-.86zM70.7 159.2a1.75 1.75 0 0 1 1.54-.58h.48v1H72.31q-.53 0-.63.27a5.28 5.28 0 0 0-.1 1.37h1.14v.9h-1.13v5.87h-1.13v-5.87h-.95v-.9h.95v-1.07a2 2 0 0 1 .24-.99zM34.88 173.63a2.68 2.68 0 0 1 .87 1.92h-1.12a2.06 2.06 0 0 0-.46-1 1.46 1.46 0 0 0-1.17-.45 1.6 1.6 0 0 0-1.56 1.06 4.23 4.23 0 0 0-.3 1.71 3.21 3.21 0 0 0 .43 1.72 1.68 1.68 0 0 0 2.48.26 2.37 2.37 0 0 0 .57-1.19h1.11a2.69 2.69 0 0 1-2.9 2.6 2.6 2.6 0 0 1-2.13-1 3.73 3.73 0 0 1-.79-2.43 4.1 4.1 0 0 1 .87-2.79 2.81 2.81 0 0 1 2.22-1 3 3 0 0 1 1.88.59zM42 174a3.43 3.43 0 0 1 .9 2.58 4.44 4.44 0 0 1-.79 2.71 2.87 2.87 0 0 1-2.46 1.07 2.78 2.78 0 0 1-2.21-.95 3.76 3.76 0 0 1-.82-2.55 4.07 4.07 0 0 1 .86-2.73 2.89 2.89 0 0 1 2.32-1 3 3 0 0 1 2.2.87zm-.71 4.52a4.32 4.32 0 0 0 .42-1.91 3.44 3.44 0 0 0-.3-1.55 1.69 1.69 0 0 0-1.64-.94 1.62 1.62 0 0 0-1.51.8 3.73 3.73 0 0 0-.47 1.93 3.24 3.24 0 0 0 .47 1.81 1.65 1.65 0 0 0 1.49.72 1.56 1.56 0 0 0 1.55-.91zM44.5 173.27h1.13v1a3.8 3.8 0 0 1 .74-.73 2.22 2.22 0 0 1 1.28-.39 2 2 0 0 1 1.31.4 2.1 2.1 0 0 1 .51.67 2.47 2.47 0 0 1 .9-.81 2.5 2.5 0 0 1 1.16-.26 1.89 1.89 0 0 1 1.87 1 3.24 3.24 0 0 1 .27 1.44v4.53h-1.21v-4.72a1.1 1.1 0 0 0-.34-.93 1.35 1.35 0 0 0-.83-.25 1.64 1.64 0 0 0-1.16.45 2 2 0 0 0-.49 1.5v4h-1.15v-4.44a2.31 2.31 0 0 0-.17-1 1 1 0 0 0-1-.48 1.68 1.68 0 0 0-1.18.5 2.46 2.46 0 0 0-.53 1.82v3.61H44.5zM55.53 173.27h1.13v1a3.8 3.8 0 0 1 .74-.73 2.22 2.22 0 0 1 1.28-.39 2 2 0 0 1 1.31.4 2.1 2.1 0 0 1 .51.67 2.47 2.47 0 0 1 .9-.81 2.5 2.5 0 0 1 1.16-.26 1.89 1.89 0 0 1 1.87 1 3.24 3.24 0 0 1 .27 1.44v4.53h-1.21v-4.72a1.1 1.1 0 0 0-.34-.93 1.35 1.35 0 0 0-.83-.25 1.64 1.64 0 0 0-1.16.45 2 2 0 0 0-.49 1.5v4h-1.16v-4.44a2.31 2.31 0 0 0-.17-1 1 1 0 0 0-1-.48 1.68 1.68 0 0 0-1.18.5 2.46 2.46 0 0 0-.53 1.82v3.61h-1.1zM70.2 176a.62.62 0 0 0 .53-.33 1 1 0 0 0 .08-.44.93.93 0 0 0-.42-.85 2.22 2.22 0 0 0-1.19-.26 1.5 1.5 0 0 0-1.27.48 1.6 1.6 0 0 0-.27.8h-1.07a2 2 0 0 1 .81-1.75 3.34 3.34 0 0 1 1.82-.49 3.69 3.69 0 0 1 1.95.46 1.55 1.55 0 0 1 .74 1.42v3.92a.5.5 0 0 0 .07.29.35.35 0 0 0 .31.11h.37v.84l-.41.1h-.38a.94.94 0 0 1-.86-.42 1.62 1.62 0 0 1-.2-.63 2.91 2.91 0 0 1-1 .79 3.11 3.11 0 0 1-1.44.34 2.14 2.14 0 0 1-1.55-.57 1.9 1.9 0 0 1-.6-1.44 1.85 1.85 0 0 1 .59-1.46 2.81 2.81 0 0 1 1.55-.64zm-2.41 3a1.35 1.35 0 0 0 .86.29 2.61 2.61 0 0 0 1.17-.28 1.57 1.57 0 0 0 1-1.51v-.92a2 2 0 0 1-.54.22 4.53 4.53 0 0 1-.65.13l-.69.09a2.68 2.68 0 0 0-.93.26 1 1 0 0 0-.53 1 .94.94 0 0 0 .31.72zM23.9 133.76H25v3.38a2.51 2.51 0 0 1 2-1 2.66 2.66 0 0 1 2.07.87 3.71 3.71 0 0 1 .79 2.57 4.4 4.4 0 0 1-.78 2.68 2.55 2.55 0 0 1-2.17 1.07 2.24 2.24 0 0 1-1.31-.37 3.19 3.19 0 0 1-.68-.71v.87H23.9zm4.37 7.83a3.62 3.62 0 0 0 .46-1.94 3.18 3.18 0 0 0-.46-1.78 1.52 1.52 0 0 0-1.36-.7 1.9 1.9 0 0 0-1.37.58 2.59 2.59 0 0 0-.59 1.9 4.19 4.19 0 0 0 .24 1.56 1.67 1.67 0 0 0 1.69 1.12 1.53 1.53 0 0 0 1.38-.74zM35.06 139a.62.62 0 0 0 .53-.33 1 1 0 0 0 .08-.44.93.93 0 0 0-.42-.85 2.22 2.22 0 0 0-1.19-.26 1.5 1.5 0 0 0-1.27.48 1.6 1.6 0 0 0-.27.8h-1.07a2 2 0 0 1 .81-1.75 3.34 3.34 0 0 1 1.82-.49 3.69 3.69 0 0 1 1.95.46 1.55 1.55 0 0 1 .74 1.42V142a.5.5 0 0 0 .07.29.35.35 0 0 0 .31.11h.37v.84l-.41.1h-.38a.94.94 0 0 1-.86-.42 1.62 1.62 0 0 1-.2-.63 2.91 2.91 0 0 1-1 .79 3.11 3.11 0 0 1-1.44.34 2.14 2.14 0 0 1-1.55-.57 1.9 1.9 0 0 1-.6-1.44 1.85 1.85 0 0 1 .59-1.46 2.81 2.81 0 0 1 1.55-.64zm-2.41 3.09a1.35 1.35 0 0 0 .86.29 2.61 2.61 0 0 0 1.17-.28 1.57 1.57 0 0 0 1-1.51v-.92a2 2 0 0 1-.54.22 4.53 4.53 0 0 1-.65.13l-.69.09a2.68 2.68 0 0 0-.93.26 1 1 0 0 0-.53 1 .94.94 0 0 0 .31.72zM39.52 141a1.64 1.64 0 0 0 .29.88 1.85 1.85 0 0 0 1.53.55 2.3 2.3 0 0 0 1.14-.28.91.91 0 0 0 .49-.85.73.73 0 0 0-.39-.67 4.73 4.73 0 0 0-1-.32l-.92-.23a4.56 4.56 0 0 1-1.3-.48 1.44 1.44 0 0 1-.75-1.28 2 2 0 0 1 .7-1.56 2.83 2.83 0 0 1 1.89-.6 2.64 2.64 0 0 1 2.25.9 1.94 1.94 0 0 1 .42 1.23H42.8a1.29 1.29 0 0 0-.28-.7 1.81 1.81 0 0 0-1.4-.45 1.7 1.7 0 0 0-1 .25.77.77 0 0 0-.34.65.8.8 0 0 0 .45.71 2.71 2.71 0 0 0 .77.25l.77.18a6.06 6.06 0 0 1 1.68.58 1.53 1.53 0 0 1 .67 1.38 2.08 2.08 0 0 1-.7 1.57 3 3 0 0 1-2.12.66 2.87 2.87 0 0 1-2.18-.69 2.59 2.59 0 0 1-.68-1.7zM49.74 136.51a2.58 2.58 0 0 1 1 .88 3.05 3.05 0 0 1 .45 1.2 7.89 7.89 0 0 1 .1 1.5h-4.92a2.94 2.94 0 0 0 .48 1.67 1.62 1.62 0 0 0 1.4.63 1.81 1.81 0 0 0 1.42-.59 2 2 0 0 0 .42-.8h1.12a2.37 2.37 0 0 1-.29.83 3 3 0 0 1-.56.75 2.63 2.63 0 0 1-1.28.69 3.88 3.88 0 0 1-.93.1 2.83 2.83 0 0 1-2.14-.92 3.6 3.6 0 0 1-.88-2.59 3.92 3.92 0 0 1 .88-2.66 2.91 2.91 0 0 1 2.31-1 3.07 3.07 0 0 1 1.42.31zm.41 2.67a3 3 0 0 0-.32-1.19 1.64 1.64 0 0 0-1.55-.83 1.72 1.72 0 0 0-1.31.57 2.16 2.16 0 0 0-.56 1.44zM53 133.8h1.14v9.32H53zM56 133.8h1.16v1.29H56zm0 2.56h1.16v6.77H56zM59.13 136.32h1.09v1a3.05 3.05 0 0 1 1-.86 2.72 2.72 0 0 1 1.2-.26 2 2 0 0 1 2 1 3.58 3.58 0 0 1 .28 1.58v4.36h-1.19v-4.29a2.32 2.32 0 0 0-.18-1 1.12 1.12 0 0 0-1.1-.63 2.26 2.26 0 0 0-.67.08 1.71 1.71 0 0 0-.83.56 1.68 1.68 0 0 0-.37.7 4.64 4.64 0 0 0-.09 1v3.56h-1.14zM70.75 136.51a2.58 2.58 0 0 1 1 .88 3.05 3.05 0 0 1 .45 1.2 7.89 7.89 0 0 1 .1 1.5h-4.91a2.94 2.94 0 0 0 .48 1.67 1.62 1.62 0 0 0 1.4.63 1.81 1.81 0 0 0 1.42-.59 2 2 0 0 0 .42-.8h1.12a2.37 2.37 0 0 1-.29.83 3 3 0 0 1-.56.75 2.63 2.63 0 0 1-1.28.69 3.88 3.88 0 0 1-.93.1 2.83 2.83 0 0 1-2.14-.92 3.6 3.6 0 0 1-.88-2.59 3.92 3.92 0 0 1 .88-2.66 2.91 2.91 0 0 1 2.31-1 3.07 3.07 0 0 1 1.41.31zm.41 2.67a3 3 0 0 0-.32-1.19 1.64 1.64 0 0 0-1.55-.83 1.72 1.72 0 0 0-1.31.57 2.16 2.16 0 0 0-.56 1.44zM121.13 154.44V159a2 2 0 0 0 .16.85 1.12 1.12 0 0 0 1.11.61 1.56 1.56 0 0 0 1.58-1.07 4.34 4.34 0 0 0 .23-1.57v-3.34h1.14v6.8h-1.08v-1a2.3 2.3 0 0 1-.54.65 2.36 2.36 0 0 1-1.56.53 2 2 0 0 1-1.94-1 2.94 2.94 0 0 1-.28-1.39v-4.62zM127.42 154.44h1.09v1a3.05 3.05 0 0 1 1-.86 2.72 2.72 0 0 1 1.2-.26 2 2 0 0 1 2 1 3.58 3.58 0 0 1 .28 1.58v4.36h-1.19V157a2.32 2.32 0 0 0-.18-1 1.12 1.12 0 0 0-1.1-.63 2.26 2.26 0 0 0-.67.08 1.71 1.71 0 0 0-.83.56 1.68 1.68 0 0 0-.37.7 4.64 4.64 0 0 0-.09 1v3.56h-1.14zM134.84 151.91H136v1.29h-1.16zm0 2.56H136v6.77h-1.16zM138.15 152.54h1.16v1.9h1.09v.93h-1.09v4.44a.48.48 0 0 0 .24.48 1 1 0 0 0 .44.07h.4v.91a2.51 2.51 0 0 1-.41.08h-.46a1.24 1.24 0 0 1-1.09-.41 1.82 1.82 0 0 1-.29-1.06v-4.5h-.92v-.93h.92zM146.07 154.44l1.31 5.36 1.33-5.36H150l1.33 5.33 1.39-5.33h1.14l-2 6.8h-1.19l-1.36-5.24-1.31 5.24h-1.19l-2-6.8zM155.12 151.91h1.16v1.29h-1.16zm0 2.56h1.16v6.77h-1.16zM161.94 154.65a3 3 0 0 1 .69.67v-3.43h1.1v9.36h-1v-.95a2.47 2.47 0 0 1-.94.91 2.68 2.68 0 0 1-1.25.28 2.52 2.52 0 0 1-2-1 3.75 3.75 0 0 1-.83-2.54 4.4 4.4 0 0 1 .76-2.57 2.47 2.47 0 0 1 2.16-1.09 2.4 2.4 0 0 1 1.31.36zm-2.55 5.1a1.61 1.61 0 0 0 1.48.74 1.55 1.55 0 0 0 1.3-.68 3.24 3.24 0 0 0 .51-2 2.91 2.91 0 0 0-.52-1.91 1.63 1.63 0 0 0-1.29-.62 1.7 1.7 0 0 0-1.39.66 3 3 0 0 0-.53 1.94 3.38 3.38 0 0 0 .44 1.87zM165.86 152.54H167v1.9h1.09v.93H167v4.44a.48.48 0 0 0 .24.48 1 1 0 0 0 .44.07h.4v.91a2.51 2.51 0 0 1-.41.08h-.46a1.24 1.24 0 0 1-1.09-.41 1.82 1.82 0 0 1-.29-1.06v-4.5h-.92v-.93h.92zM169.44 151.88h1.14v3.48a3.3 3.3 0 0 1 .73-.72 2.46 2.46 0 0 1 1.38-.36 2 2 0 0 1 2 1 3.53 3.53 0 0 1 .29 1.57v4.36h-1.18V157a2.39 2.39 0 0 0-.19-1.1 1.22 1.22 0 0 0-1.17-.56 2 2 0 0 0-1.29.49 2.35 2.35 0 0 0-.58 1.85v3.61h-1.14zM209.94 67.25h1.12v.9a2.77 2.77 0 0 1 .75-.72 2.42 2.42 0 0 1 1.36-.38 2.57 2.57 0 0 1 2 .88 3.62 3.62 0 0 1 .81 2.53 3.88 3.88 0 0 1-1.17 3.17 2.64 2.64 0 0 1-1.72.6 2.35 2.35 0 0 1-1.29-.34 3 3 0 0 1-.68-.65v3.47h-1.14zm4.3 5.33a3.18 3.18 0 0 0 .53-2 3.72 3.72 0 0 0-.24-1.4 1.73 1.73 0 0 0-3.26.06 4.69 4.69 0 0 0-.24 1.61 3.4 3.4 0 0 0 .24 1.34 1.73 1.73 0 0 0 3 .38zM221.66 67.4a2.58 2.58 0 0 1 1 .88 3.05 3.05 0 0 1 .45 1.2 7.89 7.89 0 0 1 .1 1.5h-4.91a2.94 2.94 0 0 0 .48 1.67 1.62 1.62 0 0 0 1.4.63 1.81 1.81 0 0 0 1.42-.59 2 2 0 0 0 .42-.8h1.12a2.37 2.37 0 0 1-.29.83 3 3 0 0 1-.56.75 2.63 2.63 0 0 1-1.28.69 3.88 3.88 0 0 1-.93.1 2.83 2.83 0 0 1-2.14-.92 3.6 3.6 0 0 1-.88-2.59 3.92 3.92 0 0 1 .88-2.66 2.91 2.91 0 0 1 2.31-1 3.07 3.07 0 0 1 1.41.31zm.41 2.67a3 3 0 0 0-.32-1.19 1.64 1.64 0 0 0-1.55-.83 1.72 1.72 0 0 0-1.31.57 2.16 2.16 0 0 0-.56 1.44zM224.89 67.22H226v1a3.05 3.05 0 0 1 1-.86 2.72 2.72 0 0 1 1.2-.26 2 2 0 0 1 2 1 3.58 3.58 0 0 1 .28 1.58V74h-1.16v-4.27a2.32 2.32 0 0 0-.18-1 1.12 1.12 0 0 0-1.1-.63 2.26 2.26 0 0 0-.67.08 1.71 1.71 0 0 0-.83.56 1.68 1.68 0 0 0-.37.7 4.64 4.64 0 0 0-.09 1V74h-1.14zM236.65 67.22l1.35 5.35 1.33-5.36h1.28l1.33 5.33 1.39-5.33h1.14l-2 6.8h-1.19l-1.38-5.26-1.35 5.25h-1.19l-2-6.8zM245.7 64.69h1.16V66h-1.16zm0 2.56h1.16V74h-1.16zM252.52 67.43a3 3 0 0 1 .69.67v-3.44h1.1V74h-1v-.95a2.47 2.47 0 0 1-.94.91 2.68 2.68 0 0 1-1.25.28 2.52 2.52 0 0 1-2-1 3.75 3.75 0 0 1-.83-2.54 4.4 4.4 0 0 1 .76-2.57 2.47 2.47 0 0 1 2.16-1.09 2.4 2.4 0 0 1 1.31.39zM250 72.52a1.61 1.61 0 0 0 1.48.74 1.55 1.55 0 0 0 1.3-.68 3.24 3.24 0 0 0 .51-2 2.91 2.91 0 0 0-.52-1.91 1.63 1.63 0 0 0-1.29-.62 1.7 1.7 0 0 0-1.39.66 3 3 0 0 0-.53 1.94 3.38 3.38 0 0 0 .44 1.87zM256.44 65.32h1.16v1.9h1.09v.93h-1.09v4.44a.48.48 0 0 0 .24.48 1 1 0 0 0 .44.07h.4V74a2.51 2.51 0 0 1-.41.08h-.46a1.24 1.24 0 0 1-1.09-.41 1.82 1.82 0 0 1-.29-1.06v-4.5h-.92v-.93h.92zM260 64.66h1.14v3.48a3.3 3.3 0 0 1 .73-.72 2.46 2.46 0 0 1 1.38-.36 2 2 0 0 1 2 1 3.53 3.53 0 0 1 .29 1.57V74h-1.17v-4.27a2.39 2.39 0 0 0-.19-1.1 1.22 1.22 0 0 0-1.17-.56 2 2 0 0 0-1.29.49 2.35 2.35 0 0 0-.58 1.85V74H260zM575.63 159.6a1.64 1.64 0 0 0 .29.88 1.85 1.85 0 0 0 1.53.55 2.3 2.3 0 0 0 1.14-.28.91.91 0 0 0 .49-.85.73.73 0 0 0-.39-.67 4.73 4.73 0 0 0-1-.32l-.92-.23a4.56 4.56 0 0 1-1.3-.48 1.44 1.44 0 0 1-.75-1.28 2 2 0 0 1 .7-1.56 2.83 2.83 0 0 1 1.89-.6 2.65 2.65 0 0 1 2.25.9 1.94 1.94 0 0 1 .42 1.23h-1.08a1.29 1.29 0 0 0-.28-.7 1.81 1.81 0 0 0-1.4-.45 1.7 1.7 0 0 0-1 .25.77.77 0 0 0-.34.65.8.8 0 0 0 .45.71 2.72 2.72 0 0 0 .76.28l.77.18a6.07 6.07 0 0 1 1.68.58 1.53 1.53 0 0 1 .67 1.38 2.08 2.08 0 0 1-.7 1.57 3 3 0 0 1-2.12.66 2.87 2.87 0 0 1-2.17-.69 2.58 2.58 0 0 1-.68-1.7zM582.79 154.93v4.51a1.94 1.94 0 0 0 .16.85 1.11 1.11 0 0 0 1.11.61 1.57 1.57 0 0 0 1.58-1.07 4.34 4.34 0 0 0 .23-1.57v-3.34H587v6.8h-1.08v-1a2.3 2.3 0 0 1-.54.65 2.36 2.36 0 0 1-1.56.53 2 2 0 0 1-1.94-1 2.94 2.94 0 0 1-.28-1.39v-4.62zM589 155h1.12v.9a2.78 2.78 0 0 1 .75-.72 2.42 2.42 0 0 1 1.36-.38 2.57 2.57 0 0 1 2 .88 3.63 3.63 0 0 1 .81 2.53 3.88 3.88 0 0 1-1.17 3.17 2.64 2.64 0 0 1-1.72.6 2.35 2.35 0 0 1-1.29-.34 3 3 0 0 1-.68-.65v3.47H589zm4.3 5.33a3.18 3.18 0 0 0 .53-2 3.72 3.72 0 0 0-.24-1.4 1.73 1.73 0 0 0-3.26.06 4.69 4.69 0 0 0-.24 1.61 3.4 3.4 0 0 0 .24 1.34 1.73 1.73 0 0 0 3 .38zM600.7 155.12a2.59 2.59 0 0 1 1 .88 3.07 3.07 0 0 1 .45 1.2 7.9 7.9 0 0 1 .1 1.5h-4.94a2.94 2.94 0 0 0 .48 1.67 1.62 1.62 0 0 0 1.41.63 1.81 1.81 0 0 0 1.42-.59 2 2 0 0 0 .42-.8h1.12a2.38 2.38 0 0 1-.29.83 3 3 0 0 1-.56.75 2.64 2.64 0 0 1-1.28.69 3.87 3.87 0 0 1-.93.1 2.84 2.84 0 0 1-2.1-.98 3.6 3.6 0 0 1-.88-2.59 3.92 3.92 0 0 1 .88-2.66 2.9 2.9 0 0 1 2.31-1 3.07 3.07 0 0 1 1.39.37zm.41 2.67a3 3 0 0 0-.32-1.19 1.64 1.64 0 0 0-1.55-.83 1.72 1.72 0 0 0-1.31.57 2.15 2.15 0 0 0-.56 1.44zM604 154.93h1v1.17a2.6 2.6 0 0 1 .65-.83 1.7 1.7 0 0 1 1.2-.49H607.26V156h-.38a1.63 1.63 0 0 0-1.33.55 1.94 1.94 0 0 0-.46 1.28v3.91H604zM608.45 154.93h1.08v1a3.05 3.05 0 0 1 1-.86 2.72 2.72 0 0 1 1.2-.26 2 2 0 0 1 2 1 3.58 3.58 0 0 1 .28 1.58v4.36h-1.16v-4.29a2.31 2.31 0 0 0-.18-1 1.12 1.12 0 0 0-1.1-.63 2.26 2.26 0 0 0-.67.08 1.71 1.71 0 0 0-.83.56 1.68 1.68 0 0 0-.37.7 4.64 4.64 0 0 0-.09 1v3.56h-1.14zM620.07 155.12a2.59 2.59 0 0 1 1 .88 3.07 3.07 0 0 1 .45 1.2 7.9 7.9 0 0 1 .1 1.5h-4.94a2.94 2.94 0 0 0 .48 1.67 1.62 1.62 0 0 0 1.41.63 1.81 1.81 0 0 0 1.42-.59 2 2 0 0 0 .42-.8h1.12a2.38 2.38 0 0 1-.29.83 3 3 0 0 1-.56.75 2.64 2.64 0 0 1-1.28.69 3.87 3.87 0 0 1-.93.1 2.84 2.84 0 0 1-2.14-.92 3.6 3.6 0 0 1-.88-2.59 3.92 3.92 0 0 1 .88-2.66 2.9 2.9 0 0 1 2.31-1 3.07 3.07 0 0 1 1.43.31zm.41 2.67a3 3 0 0 0-.32-1.19 1.64 1.64 0 0 0-1.55-.83 1.72 1.72 0 0 0-1.31.57 2.15 2.15 0 0 0-.56 1.44zM624 159.6a1.64 1.64 0 0 0 .29.88 1.85 1.85 0 0 0 1.53.55 2.29 2.29 0 0 0 1.14-.28.91.91 0 0 0 .49-.85.73.73 0 0 0-.39-.67 4.72 4.72 0 0 0-1-.32l-.92-.23a4.56 4.56 0 0 1-1.3-.48 1.44 1.44 0 0 1-.75-1.28 2 2 0 0 1 .71-1.56 2.83 2.83 0 0 1 1.89-.6 2.64 2.64 0 0 1 2.25.9 1.94 1.94 0 0 1 .42 1.23h-1.08a1.3 1.3 0 0 0-.28-.7 1.81 1.81 0 0 0-1.4-.45 1.7 1.7 0 0 0-1 .25.76.76 0 0 0-.34.65.8.8 0 0 0 .45.71 2.71 2.71 0 0 0 .76.28l.77.18a6 6 0 0 1 1.68.58 1.53 1.53 0 0 1 .67 1.38 2.08 2.08 0 0 1-.7 1.57 3 3 0 0 1-2.12.66 2.87 2.87 0 0 1-2.18-.69 2.59 2.59 0 0 1-.68-1.7zM630.67 159.6a1.64 1.64 0 0 0 .29.88 1.85 1.85 0 0 0 1.53.55 2.3 2.3 0 0 0 1.14-.28.91.91 0 0 0 .49-.85.73.73 0 0 0-.39-.67 4.73 4.73 0 0 0-1-.32l-.92-.23a4.56 4.56 0 0 1-1.3-.48 1.44 1.44 0 0 1-.75-1.28 2 2 0 0 1 .7-1.56 2.83 2.83 0 0 1 1.89-.6 2.65 2.65 0 0 1 2.25.9 1.94 1.94 0 0 1 .42 1.23h-1.08a1.29 1.29 0 0 0-.28-.7 1.81 1.81 0 0 0-1.4-.45 1.7 1.7 0 0 0-1 .25.77.77 0 0 0-.34.65.8.8 0 0 0 .45.71 2.72 2.72 0 0 0 .76.28l.77.18a6.07 6.07 0 0 1 1.68.58 1.53 1.53 0 0 1 .67 1.38 2.08 2.08 0 0 1-.7 1.57 3 3 0 0 1-2.12.66 2.87 2.87 0 0 1-2.17-.69 2.58 2.58 0 0 1-.68-1.7zM423.85 154.93h1.08v1.17a2.59 2.59 0 0 1 .65-.83 1.69 1.69 0 0 1 1.2-.49h.37V156h-.38a1.63 1.63 0 0 0-1.33.55 1.94 1.94 0 0 0-.46 1.28v3.91h-1.14zM432 157.62a.62.62 0 0 0 .53-.33 1 1 0 0 0 .08-.44.93.93 0 0 0-.42-.85 2.22 2.22 0 0 0-1.19-.26 1.5 1.5 0 0 0-1.27.48 1.6 1.6 0 0 0-.27.8h-1.07a2 2 0 0 1 .81-1.75 3.34 3.34 0 0 1 1.82-.49 3.69 3.69 0 0 1 1.95.46 1.55 1.55 0 0 1 .74 1.42v3.92a.5.5 0 0 0 .07.29.35.35 0 0 0 .31.11h.37v.84l-.41.1h-.38a.94.94 0 0 1-.86-.42 1.61 1.61 0 0 1-.2-.63 2.9 2.9 0 0 1-1 .79 3.11 3.11 0 0 1-1.44.34 2.14 2.14 0 0 1-1.55-.57 1.9 1.9 0 0 1-.6-1.44 1.85 1.85 0 0 1 .59-1.46 2.82 2.82 0 0 1 1.55-.64zm-2.41 3.09a1.35 1.35 0 0 0 .86.29 2.62 2.62 0 0 0 1.17-.28 1.57 1.57 0 0 0 1-1.51v-.92a2 2 0 0 1-.54.22 4.51 4.51 0 0 1-.65.13l-.69.09a2.68 2.68 0 0 0-.93.26 1 1 0 0 0-.53 1 .94.94 0 0 0 .3.71zM435.77 154.93h1.09v1a3 3 0 0 1 1-.86 2.72 2.72 0 0 1 1.2-.26 2 2 0 0 1 2 1 3.59 3.59 0 0 1 .28 1.58v4.36h-1.16v-4.29a2.33 2.33 0 0 0-.18-1 1.12 1.12 0 0 0-1.1-.63 2.26 2.26 0 0 0-.67.08 1.72 1.72 0 0 0-.83.56 1.68 1.68 0 0 0-.37.7 4.64 4.64 0 0 0-.09 1v3.56h-1.14zM446.93 155.14a3.07 3.07 0 0 1 .69.67v-3.43h1.1v9.36h-1v-.95a2.47 2.47 0 0 1-.94.91 2.68 2.68 0 0 1-1.25.28 2.52 2.52 0 0 1-2-1 3.75 3.75 0 0 1-.83-2.54 4.4 4.4 0 0 1 .76-2.57 2.47 2.47 0 0 1 2.16-1.09 2.4 2.4 0 0 1 1.31.36zm-2.55 5.1a1.61 1.61 0 0 0 1.48.74 1.55 1.55 0 0 0 1.3-.68 3.24 3.24 0 0 0 .51-2 2.91 2.91 0 0 0-.52-1.91 1.63 1.63 0 0 0-1.29-.62 1.7 1.7 0 0 0-1.39.66 3 3 0 0 0-.53 1.94 3.39 3.39 0 0 0 .44 1.87zM455.54 155.61a3.43 3.43 0 0 1 .9 2.58 4.44 4.44 0 0 1-.79 2.71 2.87 2.87 0 0 1-2.46 1.07A2.77 2.77 0 0 1 451 161a3.76 3.76 0 0 1-.82-2.55 4.07 4.07 0 0 1 .86-2.73 2.89 2.89 0 0 1 2.32-1 3 3 0 0 1 2.18.89zm-.71 4.52a4.32 4.32 0 0 0 .42-1.91 3.44 3.44 0 0 0-.3-1.55 1.69 1.69 0 0 0-1.64-.94 1.62 1.62 0 0 0-1.51.8 3.73 3.73 0 0 0-.47 1.93 3.25 3.25 0 0 0 .47 1.81 1.65 1.65 0 0 0 1.49.72 1.56 1.56 0 0 0 1.54-.86zM458 154.93h1.13v1a3.78 3.78 0 0 1 .74-.73 2.22 2.22 0 0 1 1.28-.39 2 2 0 0 1 1.31.4 2.1 2.1 0 0 1 .51.67 2.47 2.47 0 0 1 .89-.81 2.5 2.5 0 0 1 1.16-.26 1.89 1.89 0 0 1 1.87 1 3.24 3.24 0 0 1 .27 1.44v4.53H466V157a1.1 1.1 0 0 0-.34-.93 1.35 1.35 0 0 0-.83-.25 1.64 1.64 0 0 0-1.16.45 2 2 0 0 0-.49 1.5v4H462v-4.44a2.31 2.31 0 0 0-.17-1 1 1 0 0 0-1-.48 1.67 1.67 0 0 0-1.18.5 2.46 2.46 0 0 0-.53 1.82v3.61H458zM469.07 154.93h1.09v1a3 3 0 0 1 1-.86 2.72 2.72 0 0 1 1.2-.26 2 2 0 0 1 2 1 3.59 3.59 0 0 1 .28 1.58v4.36h-1.16v-4.29a2.33 2.33 0 0 0-.18-1 1.12 1.12 0 0 0-1.1-.63 2.26 2.26 0 0 0-.67.08 1.72 1.72 0 0 0-.83.56 1.68 1.68 0 0 0-.37.7 4.64 4.64 0 0 0-.09 1v3.56h-1.14zM480.69 155.12a2.59 2.59 0 0 1 1 .88 3.07 3.07 0 0 1 .45 1.2 7.9 7.9 0 0 1 .1 1.5h-4.94a2.94 2.94 0 0 0 .48 1.67 1.62 1.62 0 0 0 1.41.63 1.81 1.81 0 0 0 1.42-.59 2 2 0 0 0 .42-.8h1.12a2.38 2.38 0 0 1-.29.83 3 3 0 0 1-.56.75 2.64 2.64 0 0 1-1.28.69 3.87 3.87 0 0 1-.93.1A2.84 2.84 0 0 1 477 161a3.6 3.6 0 0 1-.88-2.59 3.92 3.92 0 0 1 .88-2.66 2.9 2.9 0 0 1 2.31-1 3.07 3.07 0 0 1 1.38.37zm.41 2.67a3 3 0 0 0-.32-1.19 1.64 1.64 0 0 0-1.55-.83 1.72 1.72 0 0 0-1.31.57 2.15 2.15 0 0 0-.56 1.44zM484.6 159.6a1.64 1.64 0 0 0 .29.88 1.85 1.85 0 0 0 1.53.55 2.3 2.3 0 0 0 1.14-.28.91.91 0 0 0 .49-.85.73.73 0 0 0-.39-.67 4.73 4.73 0 0 0-1-.32l-.92-.23a4.56 4.56 0 0 1-1.3-.48 1.44 1.44 0 0 1-.75-1.28 2 2 0 0 1 .7-1.56 2.83 2.83 0 0 1 1.89-.6 2.65 2.65 0 0 1 2.25.9 1.94 1.94 0 0 1 .42 1.23h-1.08a1.29 1.29 0 0 0-.28-.7 1.81 1.81 0 0 0-1.4-.45 1.7 1.7 0 0 0-1 .25.77.77 0 0 0-.34.65.8.8 0 0 0 .45.71 2.72 2.72 0 0 0 .76.28l.77.18a6.07 6.07 0 0 1 1.68.58 1.53 1.53 0 0 1 .67 1.38 2.08 2.08 0 0 1-.7 1.57 3 3 0 0 1-2.12.66 2.87 2.87 0 0 1-2.17-.69 2.58 2.58 0 0 1-.68-1.7zM491.29 159.6a1.64 1.64 0 0 0 .29.88 1.85 1.85 0 0 0 1.53.55 2.29 2.29 0 0 0 1.14-.28.91.91 0 0 0 .49-.85.73.73 0 0 0-.39-.67 4.72 4.72 0 0 0-1-.32l-.92-.23a4.56 4.56 0 0 1-1.3-.48 1.44 1.44 0 0 1-.75-1.28 2 2 0 0 1 .71-1.56 2.83 2.83 0 0 1 1.89-.6 2.64 2.64 0 0 1 2.25.9 1.94 1.94 0 0 1 .42 1.23h-1.08a1.3 1.3 0 0 0-.28-.7 1.81 1.81 0 0 0-1.4-.45 1.7 1.7 0 0 0-1 .25.76.76 0 0 0-.34.65.8.8 0 0 0 .45.71 2.71 2.71 0 0 0 .76.28l.77.18a6 6 0 0 1 1.68.58 1.53 1.53 0 0 1 .67 1.38 2.08 2.08 0 0 1-.7 1.57 3 3 0 0 1-2.12.66 2.87 2.87 0 0 1-2.18-.69 2.59 2.59 0 0 1-.68-1.7zM508.88 159.6a1.64 1.64 0 0 0 .29.88 1.85 1.85 0 0 0 1.53.55 2.3 2.3 0 0 0 1.14-.28.91.91 0 0 0 .49-.85.73.73 0 0 0-.39-.67 4.73 4.73 0 0 0-1-.32l-.92-.23a4.56 4.56 0 0 1-1.3-.48 1.44 1.44 0 0 1-.75-1.28 2 2 0 0 1 .7-1.56 2.83 2.83 0 0 1 1.89-.6 2.65 2.65 0 0 1 2.25.9 1.94 1.94 0 0 1 .42 1.23h-1.08a1.29 1.29 0 0 0-.28-.7 1.81 1.81 0 0 0-1.4-.45 1.7 1.7 0 0 0-1 .25.77.77 0 0 0-.34.65.8.8 0 0 0 .45.71 2.72 2.72 0 0 0 .76.28l.77.18a6.07 6.07 0 0 1 1.68.58 1.53 1.53 0 0 1 .67 1.38 2.08 2.08 0 0 1-.7 1.57 3 3 0 0 1-2.12.66 2.87 2.87 0 0 1-2.17-.69 2.58 2.58 0 0 1-.68-1.7zM514.92 152.41h1.14v9.32h-1.14zM521.62 157.62a.62.62 0 0 0 .53-.33 1 1 0 0 0 .08-.44.93.93 0 0 0-.42-.85 2.22 2.22 0 0 0-1.19-.26 1.5 1.5 0 0 0-1.27.48 1.6 1.6 0 0 0-.27.8H518a2 2 0 0 1 .81-1.75 3.34 3.34 0 0 1 1.82-.49 3.69 3.69 0 0 1 1.95.46 1.55 1.55 0 0 1 .74 1.42v3.92a.5.5 0 0 0 .07.29.35.35 0 0 0 .31.11h.37v.84l-.41.1h-.38a.94.94 0 0 1-.86-.42 1.61 1.61 0 0 1-.2-.63 2.9 2.9 0 0 1-1 .79 3.11 3.11 0 0 1-1.44.34 2.14 2.14 0 0 1-1.55-.57 1.9 1.9 0 0 1-.6-1.44 1.85 1.85 0 0 1 .59-1.46 2.82 2.82 0 0 1 1.55-.64zm-2.41 3.09a1.35 1.35 0 0 0 .86.29 2.62 2.62 0 0 0 1.17-.28 1.57 1.57 0 0 0 1-1.51v-.92a2 2 0 0 1-.54.22 4.51 4.51 0 0 1-.65.13l-.69.09a2.68 2.68 0 0 0-.93.26 1 1 0 0 0-.53 1 .94.94 0 0 0 .31.71zM525.4 154.93h1.08v1a3.05 3.05 0 0 1 1-.86 2.72 2.72 0 0 1 1.2-.26 2 2 0 0 1 2 1 3.58 3.58 0 0 1 .28 1.58v4.36h-1.16v-4.29a2.31 2.31 0 0 0-.18-1 1.12 1.12 0 0 0-1.1-.63 2.26 2.26 0 0 0-.67.08 1.71 1.71 0 0 0-.83.56 1.68 1.68 0 0 0-.37.7 4.64 4.64 0 0 0-.09 1v3.56h-1.16zM533.05 153h1.16v1.9h1.08v.93h-1.08v4.44a.48.48 0 0 0 .24.48 1 1 0 0 0 .44.07h.4v.91a2.51 2.51 0 0 1-.41.08h-.46a1.24 1.24 0 0 1-1.09-.41 1.82 1.82 0 0 1-.29-1.06v-4.5h-.92v-.93h.92zM536.63 152.41h1.16v1.29h-1.16zm0 2.56h1.16v6.77h-1.16zM539.72 154.93h1.09v1a3 3 0 0 1 1-.86 2.72 2.72 0 0 1 1.2-.26 2 2 0 0 1 2 1 3.59 3.59 0 0 1 .28 1.58v4.36h-1.19v-4.29a2.33 2.33 0 0 0-.18-1 1.12 1.12 0 0 0-1.1-.63 2.26 2.26 0 0 0-.67.08 1.72 1.72 0 0 0-.83.56 1.68 1.68 0 0 0-.37.7 4.64 4.64 0 0 0-.09 1v3.56h-1.14zM550.92 155.21a3.15 3.15 0 0 1 .66.65V155h1.05v6.18a4.58 4.58 0 0 1-.38 2 2.73 2.73 0 0 1-2.68 1.38 3.27 3.27 0 0 1-1.84-.49 1.92 1.92 0 0 1-.83-1.54h1.16a1.3 1.3 0 0 0 .33.71 2.07 2.07 0 0 0 2.92-.55 5.24 5.24 0 0 0 .22-1.95 2.23 2.23 0 0 1-.82.77 2.94 2.94 0 0 1-3.2-.53 3.46 3.46 0 0 1-.83-2.59 3.94 3.94 0 0 1 .83-2.67 2.57 2.57 0 0 1 2-1 2.46 2.46 0 0 1 1.41.49zm.14 1.22a1.66 1.66 0 0 0-1.32-.61 1.63 1.63 0 0 0-1.64 1.18 4.44 4.44 0 0 0-.23 1.58 2.82 2.82 0 0 0 .46 1.75 1.5 1.5 0 0 0 1.25.6 1.75 1.75 0 0 0 1.72-1.11 3.62 3.62 0 0 0 .28-1.47 2.85 2.85 0 0 0-.52-1.92zM209.95 154.71h1.12v.9a2.77 2.77 0 0 1 .75-.72 2.42 2.42 0 0 1 1.36-.38 2.57 2.57 0 0 1 2 .88 3.62 3.62 0 0 1 .81 2.53 3.88 3.88 0 0 1-1.17 3.17 2.64 2.64 0 0 1-1.72.6 2.35 2.35 0 0 1-1.29-.34 3 3 0 0 1-.68-.65v3.47h-1.14zm4.3 5.33a3.18 3.18 0 0 0 .53-2 3.72 3.72 0 0 0-.24-1.4 1.73 1.73 0 0 0-3.26.06 4.69 4.69 0 0 0-.24 1.61 3.4 3.4 0 0 0 .24 1.34 1.73 1.73 0 0 0 3 .38zM221.66 154.87a2.58 2.58 0 0 1 1 .88 3.05 3.05 0 0 1 .45 1.2 7.89 7.89 0 0 1 .1 1.5h-4.91a2.94 2.94 0 0 0 .48 1.67 1.62 1.62 0 0 0 1.4.63 1.81 1.81 0 0 0 1.42-.59 2 2 0 0 0 .42-.8h1.12a2.37 2.37 0 0 1-.29.83 3 3 0 0 1-.56.75 2.63 2.63 0 0 1-1.28.69 3.88 3.88 0 0 1-.93.1 2.83 2.83 0 0 1-2.14-.92 3.6 3.6 0 0 1-.88-2.59 3.92 3.92 0 0 1 .88-2.66 2.91 2.91 0 0 1 2.31-1 3.07 3.07 0 0 1 1.41.31zm.41 2.67a3 3 0 0 0-.32-1.19 1.64 1.64 0 0 0-1.55-.83 1.72 1.72 0 0 0-1.31.57 2.16 2.16 0 0 0-.56 1.44zM224.89 154.68H226v1a3.05 3.05 0 0 1 1-.86 2.72 2.72 0 0 1 1.2-.26 2 2 0 0 1 2 1 3.58 3.58 0 0 1 .28 1.58v4.36h-1.16v-4.3a2.32 2.32 0 0 0-.18-1 1.12 1.12 0 0 0-1.1-.63 2.26 2.26 0 0 0-.67.08 1.71 1.71 0 0 0-.83.56 1.68 1.68 0 0 0-.37.7 4.64 4.64 0 0 0-.09 1v3.56h-1.14zM236.12 152.12h1.14v3.48a3.3 3.3 0 0 1 .73-.72 2.46 2.46 0 0 1 1.38-.36 2 2 0 0 1 2 1 3.53 3.53 0 0 1 .29 1.57v4.36h-1.17v-4.25a2.39 2.39 0 0 0-.19-1.1 1.22 1.22 0 0 0-1.17-.56 2 2 0 0 0-1.29.49 2.35 2.35 0 0 0-.58 1.85v3.61h-1.14zM247.75 154.87a2.58 2.58 0 0 1 1 .88 3.05 3.05 0 0 1 .45 1.2 7.89 7.89 0 0 1 .1 1.5h-4.94a2.94 2.94 0 0 0 .48 1.67 1.62 1.62 0 0 0 1.4.63 1.81 1.81 0 0 0 1.42-.59 2 2 0 0 0 .42-.8h1.12a2.37 2.37 0 0 1-.29.83 3 3 0 0 1-.56.75 2.63 2.63 0 0 1-1.28.69 3.88 3.88 0 0 1-.93.1 2.83 2.83 0 0 1-2.14-.92 3.6 3.6 0 0 1-.88-2.59 3.92 3.92 0 0 1 .88-2.66 2.91 2.91 0 0 1 2.31-1 3.07 3.07 0 0 1 1.44.31zm.41 2.67a3 3 0 0 0-.32-1.19 1.64 1.64 0 0 0-1.55-.83 1.72 1.72 0 0 0-1.31.57 2.16 2.16 0 0 0-.56 1.44zM251 152.16h1.16v1.29H251zm0 2.56h1.16v6.77H251zM257.83 155a3.16 3.16 0 0 1 .66.65v-.86h1.05v6.18a4.58 4.58 0 0 1-.38 2 2.72 2.72 0 0 1-2.68 1.38 3.27 3.27 0 0 1-1.84-.49 1.92 1.92 0 0 1-.84-1.54h1.2a1.3 1.3 0 0 0 .33.71 2.07 2.07 0 0 0 2.92-.55 5.24 5.24 0 0 0 .22-1.95 2.23 2.23 0 0 1-.82.77 2.94 2.94 0 0 1-3.2-.53 3.46 3.46 0 0 1-.83-2.59 3.94 3.94 0 0 1 .83-2.67 2.57 2.57 0 0 1 2-1 2.46 2.46 0 0 1 1.38.49zm.14 1.22a1.66 1.66 0 0 0-1.32-.61 1.63 1.63 0 0 0-1.65 1.09 4.44 4.44 0 0 0-.23 1.58 2.82 2.82 0 0 0 .46 1.75 1.5 1.5 0 0 0 1.25.6 1.75 1.75 0 0 0 1.72-1.11 3.61 3.61 0 0 0 .28-1.47 2.85 2.85 0 0 0-.48-1.87zM261.48 152.12h1.14v3.48a3.3 3.3 0 0 1 .73-.72 2.46 2.46 0 0 1 1.38-.36 2 2 0 0 1 2 1 3.53 3.53 0 0 1 .29 1.57v4.36h-1.17v-4.25a2.39 2.39 0 0 0-.19-1.1 1.22 1.22 0 0 0-1.17-.56 2 2 0 0 0-1.29.49 2.35 2.35 0 0 0-.58 1.85v3.61h-1.14zM269.13 152.78h1.16v1.9h1.09v.93h-1.09v4.44a.48.48 0 0 0 .24.48 1 1 0 0 0 .44.07h.4v.91a2.51 2.51 0 0 1-.41.08h-.46a1.24 1.24 0 0 1-1.09-.41 1.82 1.82 0 0 1-.29-1.06v-4.5h-.92v-.93h.92zM285.13 154.71h1.12v.9a2.77 2.77 0 0 1 .75-.72 2.42 2.42 0 0 1 1.36-.38 2.57 2.57 0 0 1 2 .88 3.62 3.62 0 0 1 .81 2.53 3.88 3.88 0 0 1-1.17 3.17 2.64 2.64 0 0 1-1.72.6 2.35 2.35 0 0 1-1.29-.34 3 3 0 0 1-.68-.65v3.47h-1.14zm4.3 5.33a3.18 3.18 0 0 0 .53-2 3.72 3.72 0 0 0-.24-1.4 1.73 1.73 0 0 0-3.26.06 4.69 4.69 0 0 0-.24 1.61 3.4 3.4 0 0 0 .24 1.34 1.73 1.73 0 0 0 3 .38zM296.85 154.87a2.58 2.58 0 0 1 1 .88 3.05 3.05 0 0 1 .45 1.2 7.89 7.89 0 0 1 .1 1.5h-4.94a2.94 2.94 0 0 0 .48 1.67 1.62 1.62 0 0 0 1.4.63 1.81 1.81 0 0 0 1.42-.59 2 2 0 0 0 .42-.8h1.12a2.37 2.37 0 0 1-.29.83 3 3 0 0 1-.56.75 2.63 2.63 0 0 1-1.28.69 3.88 3.88 0 0 1-.93.1 2.83 2.83 0 0 1-2.14-.92 3.6 3.6 0 0 1-.88-2.59 3.92 3.92 0 0 1 .88-2.66 2.91 2.91 0 0 1 2.31-1 3.07 3.07 0 0 1 1.44.31zm.41 2.67a3 3 0 0 0-.32-1.19 1.64 1.64 0 0 0-1.55-.83 1.72 1.72 0 0 0-1.31.57 2.16 2.16 0 0 0-.56 1.44zM300.08 154.68h1.09v1a3.05 3.05 0 0 1 1-.86 2.72 2.72 0 0 1 1.2-.26 2 2 0 0 1 2 1 3.58 3.58 0 0 1 .28 1.58v4.36h-1.16v-4.3a2.32 2.32 0 0 0-.18-1 1.12 1.12 0 0 0-1.1-.63 2.26 2.26 0 0 0-.67.08 1.71 1.71 0 0 0-.83.56 1.68 1.68 0 0 0-.37.7 4.64 4.64 0 0 0-.09 1v3.56h-1.14zM315 157.37a.62.62 0 0 0 .53-.33 1 1 0 0 0 .08-.44.93.93 0 0 0-.42-.85 2.22 2.22 0 0 0-1.19-.26 1.5 1.5 0 0 0-1.27.48 1.6 1.6 0 0 0-.27.8h-1.07a2 2 0 0 1 .81-1.75 3.34 3.34 0 0 1 1.82-.49 3.69 3.69 0 0 1 1.95.46 1.55 1.55 0 0 1 .74 1.42v3.92a.5.5 0 0 0 .07.29.35.35 0 0 0 .31.11h.37v.84l-.41.1h-.38a.94.94 0 0 1-.86-.42 1.62 1.62 0 0 1-.2-.63 2.91 2.91 0 0 1-1 .79 3.11 3.11 0 0 1-1.44.34 2.14 2.14 0 0 1-1.55-.57 1.9 1.9 0 0 1-.6-1.44 1.85 1.85 0 0 1 .59-1.46 2.81 2.81 0 0 1 1.55-.64zm-2.41 3.09a1.35 1.35 0 0 0 .86.29 2.61 2.61 0 0 0 1.17-.28 1.57 1.57 0 0 0 1-1.51V158a2 2 0 0 1-.54.22 4.53 4.53 0 0 1-.65.13l-.69.09a2.68 2.68 0 0 0-.93.26 1 1 0 0 0-.53 1 .94.94 0 0 0 .27.75zM318.74 154.68h1.09v1a3.05 3.05 0 0 1 1-.86 2.72 2.72 0 0 1 1.2-.26 2 2 0 0 1 2 1 3.58 3.58 0 0 1 .28 1.58v4.36h-1.16v-4.3a2.32 2.32 0 0 0-.18-1 1.12 1.12 0 0 0-1.1-.63 2.26 2.26 0 0 0-.67.08 1.71 1.71 0 0 0-.83.56 1.68 1.68 0 0 0-.37.7 4.64 4.64 0 0 0-.09 1v3.56h-1.14zM329.94 155a3.16 3.16 0 0 1 .66.65v-.86h1.05v6.18a4.58 4.58 0 0 1-.38 2 2.72 2.72 0 0 1-2.68 1.38 3.27 3.27 0 0 1-1.84-.49 1.92 1.92 0 0 1-.84-1.54h1.16a1.3 1.3 0 0 0 .33.71 2.07 2.07 0 0 0 2.92-.55 5.24 5.24 0 0 0 .22-1.95 2.23 2.23 0 0 1-.82.77 2.94 2.94 0 0 1-3.2-.53 3.46 3.46 0 0 1-.83-2.59 3.94 3.94 0 0 1 .83-2.67 2.57 2.57 0 0 1 2-1 2.46 2.46 0 0 1 1.42.49zm.14 1.22a1.66 1.66 0 0 0-1.32-.61 1.63 1.63 0 0 0-1.64 1.13 4.44 4.44 0 0 0-.23 1.58 2.82 2.82 0 0 0 .46 1.75 1.5 1.5 0 0 0 1.25.6 1.75 1.75 0 0 0 1.72-1.11 3.61 3.61 0 0 0 .28-1.47 2.85 2.85 0 0 0-.52-1.91zM333.62 152.16h1.14v9.32h-1.14zM340.87 154.87a2.58 2.58 0 0 1 1 .88 3.05 3.05 0 0 1 .45 1.2 7.89 7.89 0 0 1 .1 1.5h-4.94a2.94 2.94 0 0 0 .48 1.67 1.62 1.62 0 0 0 1.4.63 1.81 1.81 0 0 0 1.42-.59 2 2 0 0 0 .42-.8h1.12a2.37 2.37 0 0 1-.29.83 3 3 0 0 1-.56.75 2.63 2.63 0 0 1-1.28.69 3.88 3.88 0 0 1-.93.1 2.83 2.83 0 0 1-2.14-.92 3.6 3.6 0 0 1-.88-2.59 3.92 3.92 0 0 1 .88-2.66 2.91 2.91 0 0 1 2.31-1 3.07 3.07 0 0 1 1.44.31zm.41 2.67a3 3 0 0 0-.32-1.19 1.64 1.64 0 0 0-1.55-.83 1.72 1.72 0 0 0-1.31.57 2.16 2.16 0 0 0-.56 1.44zM25.52 73.14H27l1.56 2.39 1.58-2.39h1.39l-2.29 3.28 2.39 3.48h-1.46l-1.69-2.55-1.64 2.55H25.4l2.39-3.48zM32.56 75.73h3.19v1.17h-3.19zM37.39 70.58h1.14v3.48a3.3 3.3 0 0 1 .73-.72 2.46 2.46 0 0 1 1.38-.34 2 2 0 0 1 2 1 3.53 3.53 0 0 1 .29 1.57v4.36h-1.18v-4.28a2.39 2.39 0 0 0-.19-1.1A1.22 1.22 0 0 0 40.4 74a2 2 0 0 0-1.29.49 2.35 2.35 0 0 0-.58 1.85v3.61h-1.14zM49 73.32a2.58 2.58 0 0 1 1 .88 3.05 3.05 0 0 1 .45 1.2 7.89 7.89 0 0 1 .1 1.5h-4.9a2.94 2.94 0 0 0 .48 1.67 1.62 1.62 0 0 0 1.4.63 1.81 1.81 0 0 0 1.47-.6 2 2 0 0 0 .42-.8h1.08a2.37 2.37 0 0 1-.29.83 3 3 0 0 1-.56.75 2.63 2.63 0 0 1-1.28.69 3.88 3.88 0 0 1-.93.1 2.83 2.83 0 0 1-2.14-.92 3.6 3.6 0 0 1-.88-2.59 3.92 3.92 0 0 1 .89-2.66 2.91 2.91 0 0 1 2.31-1 3.07 3.07 0 0 1 1.38.32zm.42 2.68a3 3 0 0 0-.32-1.19 1.64 1.64 0 0 0-1.56-.81 1.72 1.72 0 0 0-1.31.57 2.16 2.16 0 0 0-.56 1.43zM52.24 70.61h1.16v1.29h-1.16zm0 2.56h1.16v6.77h-1.16zM59.1 73.41a3.16 3.16 0 0 1 .66.65v-.86h1.05v6.18a4.58 4.58 0 0 1-.38 2 2.72 2.72 0 0 1-2.68 1.38 3.27 3.27 0 0 1-1.84-.49 1.92 1.92 0 0 1-.84-1.54h1.16a1.3 1.3 0 0 0 .33.71 2.07 2.07 0 0 0 2.92-.55 5.24 5.24 0 0 0 .23-1.89 2.23 2.23 0 0 1-.82.77 2.94 2.94 0 0 1-3.2-.53 3.46 3.46 0 0 1-.83-2.59A3.94 3.94 0 0 1 55.7 74a2.57 2.57 0 0 1 2-1 2.46 2.46 0 0 1 1.4.41zm.14 1.22a1.66 1.66 0 0 0-1.32-.63 1.63 1.63 0 0 0-1.64 1.13 4.44 4.44 0 0 0-.28 1.61 2.82 2.82 0 0 0 .46 1.75 1.5 1.5 0 0 0 1.25.6A1.75 1.75 0 0 0 59.48 78a3.61 3.61 0 0 0 .28-1.47 2.85 2.85 0 0 0-.52-1.9zM62.74 70.58h1.14v3.48a3.3 3.3 0 0 1 .73-.72A2.46 2.46 0 0 1 66 73a2 2 0 0 1 2 1 3.53 3.53 0 0 1 .29 1.57v4.36h-1.18v-4.28a2.39 2.39 0 0 0-.19-1.1 1.22 1.22 0 0 0-1.17-.55 2 2 0 0 0-1.29.49 2.35 2.35 0 0 0-.58 1.85v3.61h-1.14zM70.4 71.24h1.16v1.9h1.09v.93h-1.1v4.44a.48.48 0 0 0 .24.48 1 1 0 0 0 .44.07h.4v.91a2.51 2.51 0 0 1-.41.08h-.46a1.24 1.24 0 0 1-1.09-.41 1.82 1.82 0 0 1-.29-1.06v-4.5h-.92v-.93h.92zM16.53 59.48a2.68 2.68 0 0 1 .87 1.92h-1.12a2.06 2.06 0 0 0-.46-1 1.46 1.46 0 0 0-1.16-.42A1.6 1.6 0 0 0 13.1 61a4.23 4.23 0 0 0-.3 1.71 3.21 3.21 0 0 0 .43 1.72 1.48 1.48 0 0 0 1.36.7 1.49 1.49 0 0 0 1.13-.43 2.37 2.37 0 0 0 .57-1.19h1.11a3 3 0 0 1-1 2 3 3 0 0 1-1.95.63 2.6 2.6 0 0 1-2.13-1 3.73 3.73 0 0 1-.79-2.43 4.1 4.1 0 0 1 .87-2.79 2.81 2.81 0 0 1 2.22-1 3 3 0 0 1 1.91.56zM22.37 61.8a.62.62 0 0 0 .53-.33A1 1 0 0 0 23 61a.93.93 0 0 0-.42-.85 2.22 2.22 0 0 0-1.19-.26 1.5 1.5 0 0 0-1.27.48 1.6 1.6 0 0 0-.27.8h-1.08a2 2 0 0 1 .81-1.75A3.34 3.34 0 0 1 21.4 59a3.69 3.69 0 0 1 1.95.46 1.55 1.55 0 0 1 .74 1.42v3.92a.5.5 0 0 0 .07.29.35.35 0 0 0 .31.11h.37v.84l-.41.1h-.38a.94.94 0 0 1-.86-.42A1.62 1.62 0 0 1 23 65a2.91 2.91 0 0 1-1 .79 3.11 3.11 0 0 1-1.44.34 2.14 2.14 0 0 1-1.56-.56 1.9 1.9 0 0 1-.6-1.44 1.85 1.85 0 0 1 .6-1.46 2.81 2.81 0 0 1 1.55-.67zM20 64.89a1.35 1.35 0 0 0 .86.29 2.61 2.61 0 0 0 1.14-.29 1.57 1.57 0 0 0 1-1.51v-.92a2 2 0 0 1-.54.22 4.53 4.53 0 0 1-.65.13l-.69.09a2.68 2.68 0 0 0-.93.26 1 1 0 0 0-.53 1 .94.94 0 0 0 .34.73zM26.06 59.15h1.12v.9a2.77 2.77 0 0 1 .75-.72 2.42 2.42 0 0 1 1.36-.33 2.57 2.57 0 0 1 2 .88 3.62 3.62 0 0 1 .81 2.53 3.88 3.88 0 0 1-1.17 3.17 2.64 2.64 0 0 1-1.72.6 2.35 2.35 0 0 1-1.29-.34 3 3 0 0 1-.68-.65v3.47h-1.18zm4.3 5.33a3.18 3.18 0 0 0 .53-2 3.72 3.72 0 0 0-.24-1.4 1.73 1.73 0 0 0-3.26.06 4.69 4.69 0 0 0-.24 1.61 3.4 3.4 0 0 0 .24 1.34 1.73 1.73 0 0 0 3 .38zM37.39 56.56h1.14V60a3.3 3.3 0 0 1 .73-.72 2.46 2.46 0 0 1 1.38-.28 2 2 0 0 1 2 1 3.53 3.53 0 0 1 .29 1.57v4.36h-1.18v-4.3a2.39 2.39 0 0 0-.19-1.1A1.22 1.22 0 0 0 40.4 60a2 2 0 0 0-1.29.49 2.35 2.35 0 0 0-.58 1.85v3.61h-1.14zM49 59.3a2.58 2.58 0 0 1 1 .88 3.05 3.05 0 0 1 .45 1.2 7.89 7.89 0 0 1 .1 1.5h-4.9a2.94 2.94 0 0 0 .48 1.67 1.62 1.62 0 0 0 1.4.63 1.81 1.81 0 0 0 1.47-.6 2 2 0 0 0 .42-.8h1.08a2.37 2.37 0 0 1-.29.83 3 3 0 0 1-.56.75 2.63 2.63 0 0 1-1.28.69 3.88 3.88 0 0 1-.93.1 2.83 2.83 0 0 1-2.14-.92 3.6 3.6 0 0 1-.88-2.59 3.92 3.92 0 0 1 .89-2.64 2.91 2.91 0 0 1 2.31-1 3.07 3.07 0 0 1 1.38.3zm.42 2.7a3 3 0 0 0-.32-1.19 1.64 1.64 0 0 0-1.56-.81 1.72 1.72 0 0 0-1.31.57 2.16 2.16 0 0 0-.55 1.43zM52.24 56.59h1.16v1.29h-1.16zm0 2.56h1.16v6.77h-1.16zM59.1 59.39a3.16 3.16 0 0 1 .66.65v-.86h1.05v6.18a4.58 4.58 0 0 1-.38 2 2.72 2.72 0 0 1-2.68 1.38 3.27 3.27 0 0 1-1.84-.49 1.92 1.92 0 0 1-.84-1.54h1.16a1.3 1.3 0 0 0 .33.71 2.07 2.07 0 0 0 2.92-.55 5.24 5.24 0 0 0 .23-1.87 2.23 2.23 0 0 1-.82.77 2.94 2.94 0 0 1-3.2-.53 3.46 3.46 0 0 1-.83-2.59A3.94 3.94 0 0 1 55.7 60a2.57 2.57 0 0 1 2-1 2.46 2.46 0 0 1 1.4.39zm.14 1.22a1.66 1.66 0 0 0-1.32-.61 1.63 1.63 0 0 0-1.64 1.13 4.44 4.44 0 0 0-.28 1.59 2.82 2.82 0 0 0 .46 1.75 1.5 1.5 0 0 0 1.25.6A1.75 1.75 0 0 0 59.48 64a3.61 3.61 0 0 0 .28-1.47 2.85 2.85 0 0 0-.52-1.91zM62.75 56.56h1.14V60a3.3 3.3 0 0 1 .73-.72A2.46 2.46 0 0 1 66 59a2 2 0 0 1 2 1 3.53 3.53 0 0 1 .29 1.57v4.36h-1.18v-4.3a2.39 2.39 0 0 0-.19-1.1 1.22 1.22 0 0 0-1.17-.53 2 2 0 0 0-1.29.49 2.35 2.35 0 0 0-.58 1.85v3.61h-1.13zM70.4 57.22h1.16v1.9h1.09v.93h-1.1v4.44a.48.48 0 0 0 .24.48 1 1 0 0 0 .44.07h.4v.91a2.51 2.51 0 0 1-.41.08h-.46a1.24 1.24 0 0 1-1.09-.41 1.82 1.82 0 0 1-.29-1.06v-4.5h-.92v-.93h.92zM32 47.28a.62.62 0 0 0 .53-.33 1 1 0 0 0 .08-.44.93.93 0 0 0-.42-.85A2.22 2.22 0 0 0 31 45.4a1.5 1.5 0 0 0-1.27.48 1.6 1.6 0 0 0-.27.8h-1.11a2 2 0 0 1 .81-1.75 3.34 3.34 0 0 1 1.84-.5 3.69 3.69 0 0 1 1.95.46 1.55 1.55 0 0 1 .74 1.42v3.92a.5.5 0 0 0 .07.29.35.35 0 0 0 .31.11h.37v.84l-.41.1h-.38a.94.94 0 0 1-.86-.42 1.62 1.62 0 0 1-.2-.63 2.91 2.91 0 0 1-1 .79 3.11 3.11 0 0 1-1.44.34 2.14 2.14 0 0 1-1.55-.57 1.9 1.9 0 0 1-.6-1.44 1.85 1.85 0 0 1 .59-1.46 2.81 2.81 0 0 1 1.55-.64zm-2.41 3.09a1.35 1.35 0 0 0 .86.29 2.61 2.61 0 0 0 1.17-.28 1.57 1.57 0 0 0 1-1.51v-.92a2 2 0 0 1-.54.22 4.53 4.53 0 0 1-.65.13l-.69.09a2.68 2.68 0 0 0-.93.26 1 1 0 0 0-.53 1 .94.94 0 0 0 .27.72zM40.23 45a2.68 2.68 0 0 1 .87 1.92H40a2.06 2.06 0 0 0-.46-1 1.46 1.46 0 0 0-1.16-.42 1.6 1.6 0 0 0-1.56 1.06 4.23 4.23 0 0 0-.3 1.71 3.21 3.21 0 0 0 .43 1.72 1.68 1.68 0 0 0 2.48.26A2.37 2.37 0 0 0 40 49h1.11a2.69 2.69 0 0 1-2.9 2.6 2.6 2.6 0 0 1-2.13-1 3.73 3.73 0 0 1-.79-2.43 4.1 4.1 0 0 1 .87-2.79 2.81 2.81 0 0 1 2.22-1 3 3 0 0 1 1.85.62zM46.92 45a2.68 2.68 0 0 1 .87 1.92h-1.11a2.06 2.06 0 0 0-.46-1 1.46 1.46 0 0 0-1.16-.42 1.6 1.6 0 0 0-1.56 1.06 4.23 4.23 0 0 0-.3 1.71 3.21 3.21 0 0 0 .43 1.72 1.68 1.68 0 0 0 2.48.26 2.37 2.37 0 0 0 .57-1.25h1.11a2.69 2.69 0 0 1-2.9 2.6 2.6 2.6 0 0 1-2.13-1 3.73 3.73 0 0 1-.76-2.42 4.1 4.1 0 0 1 .87-2.79 2.81 2.81 0 0 1 2.22-1 3 3 0 0 1 1.83.61zM53.32 44.79a2.58 2.58 0 0 1 1 .88 3.05 3.05 0 0 1 .45 1.2 7.89 7.89 0 0 1 .1 1.5H50a2.94 2.94 0 0 0 .45 1.63 1.62 1.62 0 0 0 1.4.63 1.81 1.81 0 0 0 1.42-.59 2 2 0 0 0 .42-.8h1.12a2.37 2.37 0 0 1-.29.83 3 3 0 0 1-.56.75 2.63 2.63 0 0 1-1.28.69 3.88 3.88 0 0 1-.93.1 2.83 2.83 0 0 1-2.14-.92 3.6 3.6 0 0 1-.88-2.59 3.92 3.92 0 0 1 .88-2.66 2.91 2.91 0 0 1 2.31-1 3.07 3.07 0 0 1 1.4.35zm.41 2.67a3 3 0 0 0-.32-1.19 1.64 1.64 0 0 0-1.55-.83 1.72 1.72 0 0 0-1.31.57 2.16 2.16 0 0 0-.55 1.45zM56.55 44.6h1.09v1a3.05 3.05 0 0 1 1-.86 2.72 2.72 0 0 1 1.2-.26 2 2 0 0 1 2 1 3.58 3.58 0 0 1 .25 1.52v4.4h-1.16v-4.29a2.32 2.32 0 0 0-.18-1 1.12 1.12 0 0 0-1.1-.63 2.26 2.26 0 0 0-.67.08 1.71 1.71 0 0 0-.83.56 1.68 1.68 0 0 0-.37.7 4.64 4.64 0 0 0-.09 1v3.58h-1.14zM64.2 42.7h1.16v1.9h1.09v.93h-1.09V50a.48.48 0 0 0 .24.48 1 1 0 0 0 .44.07h.4v.91a2.51 2.51 0 0 1-.41.08h-.46a1.24 1.24 0 0 1-1.09-.41A1.82 1.82 0 0 1 64.2 50v-4.5h-.92v-.9h.92zM68.46 49.26a1.64 1.64 0 0 0 .29.88 1.85 1.85 0 0 0 1.53.55 2.3 2.3 0 0 0 1.14-.28.91.91 0 0 0 .49-.85.73.73 0 0 0-.39-.67 4.73 4.73 0 0 0-1-.32l-.92-.23a4.56 4.56 0 0 1-1.3-.48 1.44 1.44 0 0 1-.75-1.28 2 2 0 0 1 .7-1.56 2.83 2.83 0 0 1 1.89-.6 2.64 2.64 0 0 1 2.25.9 1.94 1.94 0 0 1 .42 1.23h-1.07a1.29 1.29 0 0 0-.28-.7 1.81 1.81 0 0 0-1.4-.45 1.7 1.7 0 0 0-1 .25.77.77 0 0 0-.34.65.8.8 0 0 0 .45.71 2.71 2.71 0 0 0 .76.28l.77.18a6.06 6.06 0 0 1 1.68.58 1.53 1.53 0 0 1 .62 1.38 2.08 2.08 0 0 1-.7 1.57 3 3 0 0 1-2.12.66A2.87 2.87 0 0 1 68 51a2.59 2.59 0 0 1-.68-1.7zM14.53 102h1.11v3.38a2.51 2.51 0 0 1 2-1 2.66 2.66 0 0 1 2.07.87 3.71 3.71 0 0 1 .79 2.57 4.4 4.4 0 0 1-.78 2.68 2.55 2.55 0 0 1-2.17 1.07 2.24 2.24 0 0 1-1.31-.37 3.19 3.19 0 0 1-.68-.71v.87h-1.03zm4.37 7.83a3.62 3.62 0 0 0 .46-1.94 3.18 3.18 0 0 0-.46-1.78 1.52 1.52 0 0 0-1.36-.7 1.9 1.9 0 0 0-1.37.58 2.59 2.59 0 0 0-.59 1.9 4.19 4.19 0 0 0 .24 1.56 1.67 1.67 0 0 0 1.69 1.12 1.53 1.53 0 0 0 1.39-.71zM25.69 107.27a.62.62 0 0 0 .53-.33 1 1 0 0 0 .08-.44.93.93 0 0 0-.42-.85 2.22 2.22 0 0 0-1.19-.26 1.5 1.5 0 0 0-1.27.48 1.6 1.6 0 0 0-.27.8h-1.06a2 2 0 0 1 .81-1.75 3.34 3.34 0 0 1 1.82-.49 3.69 3.69 0 0 1 1.95.46 1.55 1.55 0 0 1 .74 1.42v3.92a.5.5 0 0 0 .07.29.35.35 0 0 0 .31.11H28.2v.84l-.41.1h-.38a.94.94 0 0 1-.86-.42 1.62 1.62 0 0 1-.2-.63 2.91 2.91 0 0 1-1 .79 3.11 3.11 0 0 1-1.44.34 2.14 2.14 0 0 1-1.55-.57 1.9 1.9 0 0 1-.6-1.44 1.85 1.85 0 0 1 .59-1.46 2.81 2.81 0 0 1 1.55-.64zm-2.41 3.09a1.35 1.35 0 0 0 .86.29 2.61 2.61 0 0 0 1.17-.28 1.57 1.57 0 0 0 1-1.51v-.92a2 2 0 0 1-.54.22 4.53 4.53 0 0 1-.65.13l-.69.09a2.68 2.68 0 0 0-.93.26 1 1 0 0 0-.53 1 .94.94 0 0 0 .32.72zM29.51 104.59h1.09v1.17a2.59 2.59 0 0 1 .65-.83 1.7 1.7 0 0 1 1.2-.49h.37v1.21h-.38a1.63 1.63 0 0 0-1.33.55 1.94 1.94 0 0 0-.46 1.28v3.91h-1.14zM37.8 102h1.14v3.48a3.3 3.3 0 0 1 .73-.72 2.46 2.46 0 0 1 1.38-.36 2 2 0 0 1 2 1 3.53 3.53 0 0 1 .29 1.57v4.36h-1.17v-4.23A2.39 2.39 0 0 0 42 106a1.22 1.22 0 0 0-1.17-.56 2 2 0 0 0-1.29.49 2.35 2.35 0 0 0-.58 1.85v3.61H37.8zM49.43 104.78a2.58 2.58 0 0 1 1 .88 3.05 3.05 0 0 1 .45 1.2 7.89 7.89 0 0 1 .1 1.5h-4.91a2.94 2.94 0 0 0 .48 1.67 1.62 1.62 0 0 0 1.4.63 1.81 1.81 0 0 0 1.42-.59 2 2 0 0 0 .42-.8h1.12a2.37 2.37 0 0 1-.29.83 3 3 0 0 1-.56.75 2.63 2.63 0 0 1-1.28.69 3.88 3.88 0 0 1-.93.1 2.83 2.83 0 0 1-2.14-.92 3.6 3.6 0 0 1-.88-2.59 3.92 3.92 0 0 1 .88-2.66 2.91 2.91 0 0 1 2.31-1 3.07 3.07 0 0 1 1.41.31zm.41 2.67a3 3 0 0 0-.32-1.19 1.64 1.64 0 0 0-1.55-.83 1.72 1.72 0 0 0-1.31.57 2.16 2.16 0 0 0-.56 1.44zM52.65 102.06h1.16v1.29h-1.16zm0 2.56h1.16v6.77h-1.16zM59.52 104.86a3.16 3.16 0 0 1 .66.65v-.86h1.05v6.18a4.58 4.58 0 0 1-.38 2 2.72 2.72 0 0 1-2.68 1.38 3.27 3.27 0 0 1-1.84-.49 1.92 1.92 0 0 1-.84-1.54h1.16a1.3 1.3 0 0 0 .33.71 2.07 2.07 0 0 0 2.92-.55 5.24 5.24 0 0 0 .22-1.95 2.23 2.23 0 0 1-.82.77 2.94 2.94 0 0 1-3.2-.53 3.46 3.46 0 0 1-.83-2.59 3.94 3.94 0 0 1 .83-2.67 2.57 2.57 0 0 1 2-1 2.46 2.46 0 0 1 1.42.49zm.14 1.22a1.66 1.66 0 0 0-1.32-.61 1.63 1.63 0 0 0-1.64 1.13 4.44 4.44 0 0 0-.23 1.58 2.82 2.82 0 0 0 .46 1.75 1.5 1.5 0 0 0 1.25.6 1.75 1.75 0 0 0 1.72-1.11 3.61 3.61 0 0 0 .28-1.47 2.85 2.85 0 0 0-.52-1.86zM63.16 102h1.14v3.48a3.3 3.3 0 0 1 .73-.72 2.46 2.46 0 0 1 1.38-.36 2 2 0 0 1 2 1 3.53 3.53 0 0 1 .29 1.6v4.36h-1.17v-4.26a2.39 2.39 0 0 0-.19-1.1 1.22 1.22 0 0 0-1.17-.56 2 2 0 0 0-1.29.49 2.35 2.35 0 0 0-.58 1.85v3.61h-1.14zM70.82 102.69H72v1.9h1.09v.93H72V110a.48.48 0 0 0 .24.48 1 1 0 0 0 .44.07h.4v.91a2.51 2.51 0 0 1-.41.08h-.46a1.24 1.24 0 0 1-1.09-.41 1.82 1.82 0 0 1-.29-1.06v-4.5h-.93v-.93h.92z"/></g></g></svg>