<svg xmlns="http://www.w3.org/2000/svg" viewBox="0 0 700 500"><path fill="#f2f2f2" d="M0 0h700v500H0z" data-name="Ebene 1"/><g data-name="Ebene 2"><path d="M267.73 176.5a3.5 3.5 0 0 1 0 7h-18.34V250a3.5 3.5 0 0 1-7 0v-66.5h-61.88a3.68 3.68 0 0 1-3.5-3.64 3 3 0 0 1 1-2.24l65.38-70a3.76 3.76 0 0 1 2.52-1.12 3.46 3.46 0 0 1 3.5 3.5v66.5zm-25.34-57.68l-53.76 57.68h53.76zM372.46 252.52a3.59 3.59 0 0 1-2.52 1h-40.46a3.73 3.73 0 0 1-2.52-1l-23.24-23.38a3.59 3.59 0 0 1-1-2.52v-93.24a3.73 3.73 0 0 1 1-2.52L327 107.48a3.59 3.59 0 0 1 2.52-1h40.46a3.73 3.73 0 0 1 2.52 1l23.38 23.38a3.59 3.59 0 0 1 1 2.52v93.24a3.73 3.73 0 0 1-1 2.52zm17.36-117.74l-21.28-21.28H331l-21.28 21.28v90.44L331 246.5h37.52l21.28-21.28zM519.07 176.5a3.5 3.5 0 0 1 0 7h-18.34V250a3.5 3.5 0 0 1-7 0v-66.5h-61.88a3.68 3.68 0 0 1-3.5-3.64 3 3 0 0 1 1-2.24l65.38-70a3.76 3.76 0 0 1 2.52-1.12 3.46 3.46 0 0 1 3.5 3.5v66.5zm-25.34-57.68L440 176.5h53.76zM48.59 312v13.3h4.51a.7.7 0 1 1 0 1.4h-4.51V340a.7.7 0 0 1-1.4 0v-13.3h-4.51a.7.7 0 1 1 0-1.4h4.51V312a.7.7 0 0 1 1.4 0zM61.46 312v17l3.47-3.47a.72.72 0 0 1 .5-.2h8.09a.74.74 0 0 1 .5.2l4.65 4.68a.75.75 0 0 1 .22.5V340a.7.7 0 1 1-1.4 0v-9l-4.26-4.26h-7.51L61.46 331v9a.7.7 0 0 1-1.4 0v-28a.7.7 0 0 1 1.4 0zM104.46 335.32a.72.72 0 0 1-.2.5l-4.68 4.68a.67.67 0 0 1-.48.2H91a.66.66 0 0 1-.48-.2l-4.68-4.68a.75.75 0 0 1-.2-.5v-4.65a.75.75 0 0 1 .2-.5l4.68-4.68a.67.67 0 0 1 .48-.2h8.12a.66.66 0 0 1 .48.2l4.68 4.68a.71.71 0 0 1-.5 1.2H87V335l4.26 4.26h7.5l4.48-4.45a.67.67 0 0 1 1.18.48zm-5.66-8.62h-7.5L88 330h14.06zM126.44 326v3l3.44-3.47a.72.72 0 0 1 .5-.2h8.09a.74.74 0 0 1 .5.2l4.68 4.68a.72.72 0 0 1 .2.5v4.65a.75.75 0 0 1-.2.5L139 340.5a.72.72 0 0 1-.5.2h-8.09a.74.74 0 0 1-.5-.2l-3.47-3.5v17a.72.72 0 0 1-.73.7.69.69 0 0 1-.7-.7v-28a.69.69 0 0 1 .7-.7.72.72 0 0 1 .73.7zm4.26 13.3h7.5l4.26-4.26V331l-4.26-4.26h-7.5l-4.26 4.26v4zM169.22 326v14a.7.7 0 1 1-1.4 0v-3l-3.47 3.47a.66.66 0 0 1-.48.2h-8.12a.67.67 0 0 1-.48-.2l-4.68-4.68a.72.72 0 0 1-.2-.5v-4.65a.75.75 0 0 1 .2-.5l4.68-4.68a.66.66 0 0 1 .48-.2h8.12a.67.67 0 0 1 .48.2l3.47 3.47v-3a.7.7 0 1 1 1.4 0zm-5.66.7h-7.5l-4.25 4.3v4l4.26 4.26h7.5l4.26-4.26v-4zM177.12 348.62a.69.69 0 0 1 .48.22l4.48 4.45h7.5l4.26-4.26V337l-3.47 3.47a.67.67 0 0 1-.48.2h-8.12a.66.66 0 0 1-.48-.2l-4.68-4.68a.75.75 0 0 1-.2-.5v-4.65a.72.72 0 0 1 .2-.5l4.68-4.68a.67.67 0 0 1 .48-.2h8.12a.66.66 0 0 1 .48.2l3.47 3.47v-3a.7.7 0 1 1 1.4 0v23.32a.75.75 0 0 1-.2.5l-4.68 4.68a.66.66 0 0 1-.48.2h-8.12a.67.67 0 0 1-.48-.2l-4.68-4.68a.72.72 0 0 1-.2-.5.69.69 0 0 1 .72-.63zm12.46-21.92h-7.5l-4.26 4.3v4l4.26 4.26h7.5l4.26-4.26v-4zM221.26 335.32a.72.72 0 0 1-.2.5l-4.68 4.68a.67.67 0 0 1-.48.2h-8.12a.66.66 0 0 1-.48-.2l-4.68-4.68a.75.75 0 0 1-.2-.5v-4.65a.75.75 0 0 1 .2-.5l4.68-4.68a.67.67 0 0 1 .48-.2h8.12a.66.66 0 0 1 .48.2l4.68 4.68a.71.71 0 0 1-.5 1.2h-16.72V335l4.26 4.26h7.5l4.48-4.45a.67.67 0 0 1 1.18.48zm-5.66-8.62h-7.5l-3.28 3.3h14.06zM240.41 325.3a.74.74 0 0 1 .62.34l8.12 13 8.12-13a.69.69 0 0 1 1.29.36.62.62 0 0 1-.11.36l-17.42 28a.74.74 0 0 1-.62.34.67.67 0 0 1-.67-.7.58.58 0 0 1 .08-.36L248.3 340l-8.48-13.64a.58.58 0 0 1-.08-.36.67.67 0 0 1 .67-.7zM281.95 330.68v4.65a.72.72 0 0 1-.2.5l-4.68 4.68a.67.67 0 0 1-.48.2h-8.12a.66.66 0 0 1-.48-.2l-4.68-4.68a.75.75 0 0 1-.2-.5v-4.65a.72.72 0 0 1 .2-.5l4.69-4.68a.67.67 0 0 1 .48-.2h8.12a.66.66 0 0 1 .48.2l4.68 4.68a.75.75 0 0 1 .19.5zm-5.66-4h-7.5l-4.26 4.32v4l4.26 4.26h7.5l4.26-4.26v-4zM290.1 326v9l4.26 4.26h7.5l4.26-4.26v-9a.7.7 0 1 1 1.4 0v9.32a.72.72 0 0 1-.2.5l-4.68 4.68a.67.67 0 0 1-.48.2H294a.66.66 0 0 1-.48-.2l-4.68-4.68a.75.75 0 0 1-.2-.5V326a.7.7 0 1 1 1.4 0zM326.5 326a.74.74 0 0 1 .76-.67.62.62 0 0 1 .62.42l4.55 12.25 4.57-12.25a.64.64 0 0 1 .62-.45.73.73 0 0 1 .67.45L342.9 338l4.56-12.26a.62.62 0 0 1 .62-.42.74.74 0 0 1 .76.67.81.81 0 0 1-.06.25l-5.24 14a.73.73 0 0 1-.67.45.68.68 0 0 1-.64-.45L337.67 328l-4.56 12.26a.73.73 0 0 1-.67.45.68.68 0 0 1-.64-.45l-5.24-14a.82.82 0 0 1-.06-.26zM373 335.32a.72.72 0 0 1-.2.5l-4.68 4.68a.67.67 0 0 1-.48.2h-8.12a.66.66 0 0 1-.48-.2l-4.68-4.68a.75.75 0 0 1-.2-.5v-4.65a.75.75 0 0 1 .2-.5l4.64-4.67a.67.67 0 0 1 .48-.2h8.12a.66.66 0 0 1 .48.2l4.68 4.68a.71.71 0 0 1-.5 1.2h-16.72V335l4.26 4.26h7.5l4.48-4.45a.67.67 0 0 1 1.18.48zm-5.66-8.62h-7.5l-3.32 3.3h14.06zM381.31 326v3l3.44-3.47a.72.72 0 0 1 .5-.2H391a.7.7 0 0 1 0 1.4h-5.46l-4.23 4.27v9a.72.72 0 0 1-.73.7.67.67 0 0 1-.67-.7v-14a.67.67 0 0 1 .67-.7.72.72 0 0 1 .73.7zM414.89 335.32a.72.72 0 0 1-.2.5L410 340.5a.67.67 0 0 1-.48.2h-8.12a.66.66 0 0 1-.48-.2l-4.68-4.68a.75.75 0 0 1-.2-.5v-4.65a.75.75 0 0 1 .2-.5l4.68-4.68a.67.67 0 0 1 .48-.2h8.12a.66.66 0 0 1 .48.2l4.68 4.68a.71.71 0 0 1-.5 1.2h-16.71V335l4.26 4.26h7.5l4.48-4.45a.67.67 0 0 1 1.18.48zm-5.66-8.62h-7.5l-3.28 3.3h14.06zM435.92 340v-28a.7.7 0 1 1 1.4 0v28a.7.7 0 1 1-1.4 0zM463.5 330.68v4.65a.72.72 0 0 1-.2.5l-4.68 4.68a.67.67 0 0 1-.48.2H450a.66.66 0 0 1-.48-.2l-4.68-4.68a.75.75 0 0 1-.2-.5v-4.65a.72.72 0 0 1 .2-.5l4.68-4.68a.67.67 0 0 1 .48-.2h8.12a.66.66 0 0 1 .48.2l4.68 4.68a.75.75 0 0 1 .22.5zm-5.66-4h-7.5l-4.26 4.32v4l4.26 4.26h7.5l4.26-4.26v-4zM488.88 330.68v4.65a.72.72 0 0 1-.2.5L484 340.5a.67.67 0 0 1-.48.2h-8.12a.66.66 0 0 1-.48-.2l-4.68-4.68a.75.75 0 0 1-.2-.5v-4.65a.72.72 0 0 1 .2-.5l4.68-4.68a.67.67 0 0 1 .48-.2h8.12a.66.66 0 0 1 .48.2l4.68 4.68a.75.75 0 0 1 .2.51zm-5.66-4h-7.5l-4.26 4.32v4l4.26 4.26h7.5l4.26-4.26v-4zM514.48 325.3a.71.71 0 0 1 .67.73.62.62 0 0 1-.42.62L498.92 333l15.82 6.36a.62.62 0 0 1 .42.62.71.71 0 0 1-.67.73 1 1 0 0 1-.28-.06L497.74 334v6a.7.7 0 1 1-1.4 0v-28a.7.7 0 1 1 1.4 0v20l16.46-6.61a1 1 0 0 1 .28-.09zM521.53 318.08v-1.4a.7.7 0 0 1 1.4 0v1.4a.7.7 0 1 1-1.4 0zm0 21.92v-14a.7.7 0 1 1 1.4 0v14a.7.7 0 1 1-1.4 0zM532.18 326v3l3.44-3.47a.72.72 0 0 1 .5-.2h8.09a.74.74 0 0 1 .5.2l4.68 4.68a.72.72 0 0 1 .2.5V340a.7.7 0 1 1-1.4 0v-9l-4.26-4.26h-7.5l-4.25 4.26v9a.72.72 0 0 1-.73.7.67.67 0 0 1-.67-.7v-14a.67.67 0 0 1 .67-.7.72.72 0 0 1 .73.7zM557 348.62a.69.69 0 0 1 .48.22l4.52 4.46h7.5l4.26-4.26V337l-3.47 3.47a.67.67 0 0 1-.48.2h-8.12a.66.66 0 0 1-.48-.2l-4.68-4.68a.75.75 0 0 1-.2-.5v-4.65a.72.72 0 0 1 .2-.5l4.68-4.68a.67.67 0 0 1 .48-.2h8.12a.66.66 0 0 1 .48.2l3.47 3.47v-3a.7.7 0 1 1 1.4 0v23.32a.75.75 0 0 1-.2.5l-4.68 4.68a.66.66 0 0 1-.48.2h-8.12a.67.67 0 0 1-.48-.2l-4.68-4.68a.72.72 0 0 1-.2-.5.69.69 0 0 1 .68-.63zm12.5-21.92H562l-4.26 4.3v4l4.26 4.3h7.5l4.26-4.26V331zM602.29 312a.72.72 0 0 1-.2.5l-4.45 4.5v8.34h3.95a.7.7 0 0 1 0 1.4h-3.95V340a.72.72 0 0 1-.73.7.67.67 0 0 1-.67-.7v-23.32a.72.72 0 0 1 .2-.5l4.65-4.68a.72.72 0 0 1 .5-.2.69.69 0 0 1 .7.7zM625.1 330.68v4.65a.72.72 0 0 1-.2.5l-4.68 4.68a.67.67 0 0 1-.48.2h-8.12a.66.66 0 0 1-.48-.2l-4.68-4.68a.75.75 0 0 1-.2-.5v-4.65a.72.72 0 0 1 .2-.5l4.68-4.68a.67.67 0 0 1 .48-.2h8.12a.66.66 0 0 1 .48.2l4.68 4.68a.75.75 0 0 1 .2.5zm-5.66-4h-7.5l-4.26 4.32v4l4.26 4.26h7.5l4.26-4.26v-4zM633.71 326v3l3.44-3.47a.72.72 0 0 1 .5-.2h5.77a.7.7 0 0 1 0 1.4H638l-4.29 4.27v9a.72.72 0 0 1-.73.7.67.67 0 0 1-.67-.7v-14a.67.67 0 0 1 .67-.7.72.72 0 0 1 .73.7zM221.92 368v28a.7.7 0 1 1-1.4 0v-3l-3.52 3.5a.67.67 0 0 1-.48.2h-8.12a.66.66 0 0 1-.48-.2l-4.68-4.68a.75.75 0 0 1-.2-.5v-4.65a.72.72 0 0 1 .2-.5l4.76-4.67a.67.67 0 0 1 .48-.2h8.12a.66.66 0 0 1 .48.2l3.47 3.47V368a.7.7 0 1 1 1.4 0zm-5.66 14.7h-7.5l-4.26 4.3v4l4.26 4.26h7.5l4.26-4.26v-4zM247.93 386.68v4.65a.72.72 0 0 1-.2.5l-4.68 4.68a.67.67 0 0 1-.48.2h-8.12a.66.66 0 0 1-.48-.2l-4.68-4.68a.75.75 0 0 1-.2-.5v-4.65a.72.72 0 0 1 .2-.5l4.71-4.68a.67.67 0 0 1 .48-.2h8.12a.66.66 0 0 1 .48.2l4.68 4.68a.75.75 0 0 1 .17.5zm-5.66-4h-7.5l-4.25 4.32v4l4.26 4.26h7.5l4.26-4.26v-4zM273.32 391.32a.72.72 0 0 1-.2.5l-4.68 4.68a.67.67 0 0 1-.48.2h-8.12a.66.66 0 0 1-.48-.2l-4.68-4.68a.75.75 0 0 1-.2-.5v-4.65a.75.75 0 0 1 .2-.5l4.68-4.68a.67.67 0 0 1 .48-.2H268a.66.66 0 0 1 .48.2l4.68 4.68a.71.71 0 0 1-.5 1.2H255.9V391l4.26 4.26h7.5l4.48-4.45a.67.67 0 0 1 1.18.48zm-5.66-8.62h-7.5l-3.28 3.3h14.06zM298 387.38a.69.69 0 0 1-.48-.22L293 382.7h-7.5l-3.61 3.61 16.27 4.34a.69.69 0 0 1 .5.7.65.65 0 0 1-.2.48l-4.68 4.68a.66.66 0 0 1-.48.2h-8.12a.67.67 0 0 1-.48-.2l-4.68-4.68a.72.72 0 0 1-.2-.5.67.67 0 0 1 1.18-.48l4.48 4.45H293l3.61-3.61-16.27-4.34a.76.76 0 0 1-.5-.7.66.66 0 0 1 .2-.48l4.68-4.68a.67.67 0 0 1 .48-.2h8.12a.66.66 0 0 1 .48.2l4.68 4.68a.72.72 0 0 1 .2.5.69.69 0 0 1-.68.71zM320.68 382v3l3.44-3.47a.72.72 0 0 1 .5-.2h8.09a.74.74 0 0 1 .5.2l4.68 4.68a.72.72 0 0 1 .2.5V396a.7.7 0 1 1-1.4 0v-9l-4.26-4.26h-7.5l-4.25 4.26v9a.72.72 0 0 1-.73.7.67.67 0 0 1-.67-.7v-14a.67.67 0 0 1 .67-.7.72.72 0 0 1 .73.7zM363.65 386.68v4.65a.72.72 0 0 1-.2.5l-4.68 4.68a.67.67 0 0 1-.48.2h-8.12a.66.66 0 0 1-.48-.2l-4.69-4.68a.75.75 0 0 1-.2-.5v-4.65a.72.72 0 0 1 .2-.5l4.68-4.68a.67.67 0 0 1 .48-.2h8.12a.66.66 0 0 1 .48.2l4.68 4.68a.75.75 0 0 1 .21.5zm-5.66-4h-7.5l-4.26 4.32v4l4.26 4.26H358l4.26-4.26v-4zM374.39 368v13.3h4.51a.7.7 0 0 1 0 1.4h-4.51V396a.7.7 0 1 1-1.4 0v-13.3h-4.51a.7.7 0 0 1 0-1.4H373V368a.7.7 0 0 1 1.4 0zM416.87 391.32a.72.72 0 0 1-.2.5L412 396.5a.67.67 0 0 1-.48.2h-8.12a.66.66 0 0 1-.48-.2l-4.68-4.68a.75.75 0 0 1-.2-.5v-4.65a.75.75 0 0 1 .2-.5l4.68-4.68a.67.67 0 0 1 .48-.2h8.12a.66.66 0 0 1 .48.2l4.68 4.68a.71.71 0 0 1-.5 1.2h-16.73V391l4.26 4.26h7.5l4.48-4.45a.67.67 0 0 1 1.18.48zm-5.66-8.62h-7.5l-3.28 3.3h14.06zM422.33 381.3a.69.69 0 0 1 .45.17l8.22 6.63 8.29-6.64a.62.62 0 0 1 .42-.17.71.71 0 0 1 .7.7.69.69 0 0 1-.25.53l-8 6.47 8 6.47a.69.69 0 0 1 .25.53.71.71 0 0 1-.7.7.62.62 0 0 1-.42-.17L431 389.9l-8.26 6.64a.69.69 0 0 1-.45.17.71.71 0 0 1-.7-.7.69.69 0 0 1 .25-.53l8-6.47-8-6.47a.69.69 0 0 1-.25-.53.71.71 0 0 1 .74-.71zM447.07 374.08v-1.4a.7.7 0 0 1 1.4 0v1.4a.7.7 0 1 1-1.4 0zm0 21.92v-14a.7.7 0 1 1 1.4 0v14a.7.7 0 1 1-1.4 0zM473.54 387.38a.69.69 0 0 1-.48-.22l-4.48-4.45h-7.5l-3.61 3.61 16.27 4.34a.69.69 0 0 1 .5.7.65.65 0 0 1-.2.48l-4.68 4.68a.66.66 0 0 1-.48.2h-8.12a.67.67 0 0 1-.48-.2l-4.68-4.68a.72.72 0 0 1-.2-.5.67.67 0 0 1 1.18-.48l4.48 4.45h7.5l3.61-3.61-16.27-4.34a.76.76 0 0 1-.5-.7.66.66 0 0 1 .2-.48l4.68-4.68a.67.67 0 0 1 .48-.2h8.12a.66.66 0 0 1 .48.2l4.68 4.68a.72.72 0 0 1 .2.5.69.69 0 0 1-.7.7zM485 368v13.3h4.51a.7.7 0 1 1 0 1.4H485V396a.7.7 0 0 1-1.4 0v-13.3h-4.51a.7.7 0 0 1 0-1.4h4.51V368a.7.7 0 0 1 1.4 0zM494.6 396v-1.4a.7.7 0 0 1 1.4 0v1.4a.7.7 0 1 1-1.4 0z"/></g></svg>