<svg xmlns="http://www.w3.org/2000/svg" viewBox="0 0 700 500"><path fill="#f2f2f2" d="M0 0h700v500H0z" data-name="Ebene 1"/><g data-name="Ebene 2"><path d="M245.74 250.7h-42v-63h-68v-1.4l68-63h42v63h22.68v1.4h-22.68zm-42-64.4v-22.68l-24.5 22.68zM416.08 229.7l-30 21h-72.62l-30-21v-85.4l30-21h72.66l30 21zm-42-1.4v-82.6l-24.22-17.08-24.36 17.08v82.6l24.36 17.08zM541.2 250.7h-42v-63h-68v-1.4l68-63h42v63h22.68v1.4H541.2zm-42-64.4v-22.68l-24.5 22.68zM49.33 340.12h-7.2v-10.8h-4.66v-.24h4.66v-10.8h7.2v10.8H54v.24h-4.67zM63.25 332.92v7.2h-7.2v-21.84h7.2v10.8h10.4l5.14 3.6v7.44h-7.2v-7.2L67.41 330zM96.82 336.28H104v.24l-5.14 3.6H86.43l-5.16-3.6v-3.84l5.16-3.6h12.45l5.14 3.6v.24H88.47v3.36l4.18 2.93zm-8-3.6h7.66L92.64 330zM138.58 329.08l5.14 3.6v3.84l-5.14 3.6h-10.39v10.8H121v-21.84zm-10.39 3.84v3.36l4.18 2.93 4.15-2.93v-3.36l-4.16-2.92zM168.81 329.08v11h-17.59l-5.16-3.6v-3.84l5.16-3.6zm-7.2 7.2v-3.36l-4.18-2.92-4.18 2.93v3.36l4.18 2.93zM194.45 329.08v18.24l-5.14 3.6h-12.46l-5.16-3.6v-.24h7.2l4.18 2.93 4.18-2.93v-7h-10.4l-5.16-3.6v-3.84l5.16-3.6zm-7.2 7.2v-3.36l-4.18-2.92-4.18 2.93v3.36l4.18 2.93zM212.88 336.28h7.2v.24l-5.14 3.6h-12.45l-5.16-3.6v-3.84l5.16-3.6h12.46l5.14 3.6v.24h-15.56v3.36l4.18 2.93zm-8-3.6h7.66l-3.83-2.68zM242.38 350.92h-7.2v-.24l7.68-10.68-7.68-10.68v-.24h7.2l4.18 5.78 4.15-5.78h7.2v.24zM281.21 336.52l-5.14 3.6h-12.46l-5.16-3.6v-3.84l5.16-3.6h12.46l5.14 3.6zm-7.2-.24v-3.36l-4.18-2.92-4.18 2.93v3.36l4.18 2.93zM290.89 336.28l4.18 2.93 4.18-2.93v-7.2h7.2v7.44l-5.14 3.6h-12.46l-5.16-3.6v-7.44h7.2zM333.87 340.12h-7.2l-4.67-10.8v-.24h7.2l1.08 2.47 1.06-2.47h7.2l1.08 2.47 1.06-2.47h7.2v.24l-4.66 10.8H336l-1.08-2.47zM364.63 336.28h7.2v.24l-5.14 3.6h-12.45l-5.16-3.6v-3.84l5.16-3.6h12.46l5.14 3.6v.24h-15.56v3.36l4.18 2.93zm-8-3.6h7.66l-3.83-2.68zM391 329.08v.24h-4.15l-5.14 3.6v7.2h-7.2v-11zM407 336.28h7.2v.24l-5.14 3.6h-12.43l-5.16-3.6v-3.84l5.16-3.6h12.46l5.14 3.6v.24h-15.56v3.36l4.18 2.93zm-8-3.6h7.66l-3.82-2.68zM431.59 318.28h7.2v21.84h-7.2zM464.6 336.52l-5.14 3.6H447l-5.16-3.6v-3.84l5.16-3.6h12.46l5.14 3.6zm-7.2-.24v-3.36l-4.18-2.92-4.22 2.92v3.36l4.18 2.93zM489.68 336.52l-5.14 3.6h-12.46l-5.16-3.6v-3.84l5.16-3.6h12.46l5.14 3.6zm-7.2-.24v-3.36L478.3 330l-4.18 2.93v3.36l4.18 2.93zM515.52 339.88v.24h-7.2l-8.33-2.9v2.9h-7.2v-21.84H500V332l8.33-2.9h7.2v.24l-15.19 5.28zM517.69 321.88h7.2v1.32h-7.2zm0 7.2h7.2v11h-7.2zM535.48 332.92v7.2h-7.2v-11h17.59l5.14 3.6v7.44h-7.2v-7.2l-4.15-2.96zM576.26 329.08v18.24l-5.14 3.6h-12.46l-5.16-3.6v-.24h7.2l4.18 2.93 4.18-2.93v-7h-10.4l-5.16-3.6v-3.84l5.16-3.6zm-7.2 7.2v-3.36l-4.18-2.92-4.18 2.93v3.36l4.18 2.93zM600.9 322.12v7h5.1v.24h-5.1v10.8h-7.2v-18.28l5.14-3.6H606v.24zM628.47 336.52l-5.14 3.6h-12.45l-5.16-3.6v-3.84l5.16-3.6h12.46l5.14 3.6zm-7.2-.24v-3.36l-4.18-2.92-4.18 2.93v3.36l4.18 2.93zM647.84 329.08v.24h-4.15l-5.14 3.6v7.2h-7.2v-11zM214.65 374.28h7.2v21.84h-17.6l-5.16-3.6v-3.84l5.16-3.6h10.39zm0 18v-3.36l-4.18-2.92-4.18 2.93v3.36l4.18 2.93zM247.48 392.52l-5.14 3.6h-12.45l-5.16-3.6v-3.84l5.16-3.6h12.46l5.14 3.6zm-7.2-.24v-3.36l-4.17-2.92-4.18 2.93v3.36l4.18 2.93zM265.36 392.28h7.2v.24l-5.14 3.6H255l-5.16-3.6v-3.84l5.16-3.6h12.46l5.14 3.6v.24H257v3.36l4.18 2.93zm-8-3.6H265l-3.81-2.68zM274.89 388.92v-.24l5.16-3.6h12.46l5.14 3.6v.24h-7.2l-4.18-2.92-3.91 2.74 15.29 3.55v.24l-5.14 3.6H280l-5.16-3.6v-.24h7.2l4.18 2.93 3.91-2.74zM321.81 388.92v7.2h-7.2v-11h17.59l5.14 3.6v7.44h-7.2v-7.2L326 386zM362.59 392.52l-5.14 3.6H345l-5.16-3.6v-3.84l5.16-3.6h12.46l5.14 3.6zm-7.2-.24v-3.36l-4.18-2.92-4.21 2.92v3.36l4.18 2.93zM374.72 396.12h-7.2v-10.8h-4.66v-.24h4.66v-10.8h7.2v10.8h4.63v.24h-4.63zM410 392.28h7.2v.24l-5.14 3.6h-12.45l-5.16-3.6v-3.84l5.16-3.6h12.46l5.14 3.6v.24h-15.56v3.36l4.18 2.93zm-8-3.6h7.66l-3.84-2.68zM440.67 395.88v.24h-7.2l-4.15-2.9-4.18 2.9h-7.2v-.24l7.61-5.28-7.61-5.28v-.24h7.2l4.18 2.9 4.15-2.9h7.2v.24l-7.58 5.28zM443.07 377.88h7.2v1.32h-7.2zm0 7.2h7.2v11h-7.2zM452.93 388.92v-.24l5.16-3.6h12.46l5.14 3.6v.24h-7.2L464.3 386l-3.91 2.74 15.29 3.55v.24l-5.14 3.6h-12.45l-5.16-3.6v-.24h7.2l4.18 2.93 3.91-2.74zM487.81 396.12h-7.2v-10.8H476v-.24h4.66v-10.8h7.2v10.8h4.63v.24h-4.63zM492.89 394.8h7.2v1.32h-7.2z"/></g></svg>