<svg xmlns="http://www.w3.org/2000/svg" viewBox="0 0 700 500"><path fill="#f2f2f2" d="M0 0h700v500H0z" data-name="Ebene 1"/><g data-name="Ebene 2"><path d="M274 258h-1.6v-80h-44.8v-16l44.8-80h1.6v80h14.88v16H274zm-1.6-96v-61.12L238.17 162zM380.47 258h-61.28V82h61.28zm-1.6-160h-58.08v144h58.08zM457.19 258h-1.6v-80h-44.8v-16l44.8-80h1.6v80h14.88v16h-14.88zm-1.6-96v-61.12L421.35 162zM125.22 341.6h-.32v-16h-3.55v-3.2h3.55v-16h.32v16h3.58v3.2h-3.58zM134.94 306.4h.32v16h11.94v19.2h-.32v-16h-11.62v16h-.32zM165.82 330.94h-12v7.46h11.68v-5.34h.32v8.54h-12.29v-19.2h12.29zm-.32-5.34h-11.65v2.14h11.65zM195.39 322.4v19.2h-11.94v16h-.32v-35.2zm-11.94 16h11.62v-12.8h-11.62zM214 322.4v19.2h-12.27v-19.2zm-.32 3.2H202v12.8h11.65zM220.52 341.6v-19.2h12.29v35.2h-12.29v-8.54h.32v5.34h11.65v-12.8zm.32-16v12.8h11.65v-12.8zM251.61 330.94h-12v7.46h11.65v-5.34h.32v8.54h-12.26v-19.2h12.29zm-.32-5.34h-11.65v2.14h11.65zM279.42 322.4h.32v3.2q-6 16-11.94 32h-.32v-3.2l5.38-14.4-5.38-14.4v-3.2h.32l5.79 15.6zM297.82 341.6h-12.29v-19.2h12.29zm-.32-16h-11.65v12.8h11.65zM304.48 338.4h11.65v-16h.32v19.2h-12.29v-19.2h.32zM336.57 341.6h-.32l-3.58-16v-3.2h.33l3.42 15.29 3.42-15.29h.32l3.42 15.29L347 322.4h.32v3.2l-3.58 16h-.32L340 326.3zM365.61 330.94h-12v7.46h11.65v-5.34h.32v8.54h-12.25v-19.2h12.29zm-.32-5.34h-11.64v2.14h11.65zM379.59 322.4v3.2h-7.14v16h-.32v-19.2zM397.85 330.94h-12v7.46h11.65v-5.34h.32v8.54h-12.26v-19.2h12.29zm-.32-5.34h-11.65v2.14h11.65zM415.45 306.4h.32v35.2h-.32zM434.67 341.6h-12.29v-19.2h12.29zm-.32-16H422.7v12.8h11.65zM453.3 341.6H441v-19.2h12.3zm-.32-16h-11.65v12.8H453zM472.25 338.4v3.2h-.32l-11.61-7.78v7.78H460v-35.2h.32v23.77l11.61-7.78h.32v3.2l-9.57 6.4zM478.46 311.75h.32v4.8h-.32zm0 10.66h.32v19.2h-.32zM497.74 322.4v19.2h-.32v-16h-11.61v16h-.32v-19.2zM504.08 341.6v-19.2h12.29v35.2h-12.29v-8.54h.32v5.34h11.65v-12.8zm.32-16v12.8h11.65v-12.8zM534.36 341.6H534v-35.2h.32zM553.89 341.6H541.6v-19.2h12.29zm-.32-16h-11.65v12.8h11.65zM567.87 322.4v3.2h-7.14v16h-.32v-19.2zM251.72 362.4h.28v35.2h-12.24v-19.2h12zm-11.65 19.2v12.8h11.65v-12.8zM270.84 397.6h-12.29v-19.2h12.29zm-.32-16h-11.65v12.8h11.65zM289.47 386.94h-12v7.46h11.65v-5.34h.32v8.54h-12.26v-19.2h12.29zm-.32-5.34H277.5v2.14h11.65zM307.77 381.6h-11.64v2.14l12 5.31v8.54h-12.32v-8.54h.32v5.34h11.65v-2.14l-12-5.31v-8.54h12.29v8.54h-.32zM337.66 378.4v19.2h-.32v-16h-11.61v16h-.32v-19.2zM356.29 397.6H344v-19.2h12.29zm-.32-16h-11.65v12.8H356zM366 397.6h-.32v-16h-3.55v-3.2h3.55v-16h.32v16h3.58v3.2H366zM397.7 386.94h-12v7.46h11.65v-5.34h.32v8.54h-12.26v-19.2h12.29zm-.32-5.34h-11.65v2.14h11.65zM416.12 394.4v3.2h-.32l-5.8-7.78-5.82 7.78h-.32v-3.2l4.77-6.4-4.77-6.4v-3.2h.32l5.82 7.78 5.79-7.78h.32v3.2l-4.77 6.4zM422.49 367.75h.32v4.8h-.32zm0 10.66h.32v19.2h-.32zM441.3 381.6h-11.65v2.14l12 5.31v8.54h-12.32v-8.54h.32v5.34h11.65v-2.14l-12-5.31v-8.54h12.29v8.54h-.32zM451.32 397.6H451v-16h-3.55v-3.2H451v-16h.32v16h3.58v3.2h-3.58zM459.28 392.8h.32v4.8h-.32z"/></g></svg>