<svg xmlns="http://www.w3.org/2000/svg" viewBox="0 0 700 500"><path fill="#f2f2f2" d="M0 0h700v500H0z" data-name="Ebene 1"/><g data-name="Ebene 2"><path d="M267.3 174.4a5.6 5.6 0 0 1 0 11.2h-16.24V250a5.6 5.6 0 0 1-11.2 0v-64.4h-59.78a5.83 5.83 0 0 1-5.6-5.74 5.61 5.61 0 0 1 1.54-3.64l65.38-70a5.55 5.55 0 0 1 9.66 3.78v64.4zm-27.44-50.26L193 174.4h46.9zM374.08 253.92a6.1 6.1 0 0 1-4.08 1.68h-40.44a6 6 0 0 1-3.92-1.68l-23.38-23.24a6.1 6.1 0 0 1-1.68-4.06v-93.24a6.34 6.34 0 0 1 1.68-4.06l23.38-23.24a5.78 5.78 0 0 1 3.92-1.68H370a6.34 6.34 0 0 1 4.06 1.68l23.24 23.24a6.1 6.1 0 0 1 1.68 4.06v93.24a6.34 6.34 0 0 1-1.68 4.06zm13.72-118.3l-20-20h-35.86l-20.16 20v88.76l20.16 20h35.84l20-20zM519.5 174.4a5.6 5.6 0 1 1 0 11.2h-16.24V250a5.6 5.6 0 0 1-11.2 0v-64.4h-59.78a5.83 5.83 0 0 1-5.6-5.74 5.61 5.61 0 0 1 1.54-3.64l65.38-70a5.55 5.55 0 0 1 9.66 3.78v64.4zm-27.44-50.26l-46.9 50.26h46.9zM48.48 312v12.88h4.09a1.12 1.12 0 0 1 0 2.24h-4.09V340a1.12 1.12 0 1 1-2.24 0v-12.88h-4.08a1.12 1.12 0 0 1 0-2.24h4.09V312a1.12 1.12 0 1 1 2.24 0zM61.38 312v16l2.77-2.74a1.16 1.16 0 0 1 .78-.34H73a1.19 1.19 0 0 1 .78.34l4.68 4.65a1.22 1.22 0 0 1 .34.81V340a1.12 1.12 0 1 1-2.24 0v-8.88l-4-4h-7.2l-4 4V340a1.12 1.12 0 1 1-2.24 0v-28a1.12 1.12 0 1 1 2.24 0zM104.4 335.32a1.14 1.14 0 0 1-.31.81l-4.68 4.65a1.19 1.19 0 0 1-.78.34h-8.12a1.16 1.16 0 0 1-.78-.34L85 336.14a1.25 1.25 0 0 1-.31-.81v-4.65a1.25 1.25 0 0 1 .31-.81l4.68-4.65a1.19 1.19 0 0 1 .78-.34h8.12a1.16 1.16 0 0 1 .78.34l4.68 4.65a1.12 1.12 0 0 1 .31.81 1.09 1.09 0 0 1-1.12 1.12H87v3.08l4 4h7.17l4.34-4.34a1.11 1.11 0 0 1 .78-.34 1.12 1.12 0 0 1 1.11 1.12zm-6.24-8.2H91l-2.44 2.44h12zM126.35 326v2l2.77-2.74a1.16 1.16 0 0 1 .78-.34h8.1a1.27 1.27 0 0 1 .81.34l4.65 4.65a1.22 1.22 0 0 1 .34.81v4.65a1.27 1.27 0 0 1-.34.81l-4.65 4.65a1.22 1.22 0 0 1-.81.34h-8.09a1.19 1.19 0 0 1-.78-.34l-2.78-2.83v16a1.12 1.12 0 1 1-2.24 0v-28a1.12 1.12 0 1 1 2.24 0zm4 12.88h7.17l4-4v-3.75l-4-4h-7.17l-4 4v3.75zM169.18 326v14a1.12 1.12 0 1 1-2.24 0v-2l-2.74 2.74a1.16 1.16 0 0 1-.78.34h-8.12a1.19 1.19 0 0 1-.78-.34l-4.68-4.65a1.18 1.18 0 0 1-.31-.81v-4.65a1.25 1.25 0 0 1 .31-.81l4.68-4.65a1.16 1.16 0 0 1 .78-.34h8.12a1.19 1.19 0 0 1 .78.34l2.74 2.74v-2a1.12 1.12 0 0 1 2.24 0zm-6.24 1.12h-7.17l-4 4v3.75l4 4h7.17l4-4v-3.75zM176.69 348.2a1.11 1.11 0 0 1 .78.34l4.34 4.34H189l4-4V338l-2.74 2.74a1.19 1.19 0 0 1-.78.34h-8.12a1.16 1.16 0 0 1-.78-.34l-4.68-4.65a1.25 1.25 0 0 1-.31-.81v-4.65a1.18 1.18 0 0 1 .31-.81l4.68-4.65a1.19 1.19 0 0 1 .78-.34h8.12a1.16 1.16 0 0 1 .78.34L193 328v-2a1.12 1.12 0 1 1 2.24 0v23.32a1.25 1.25 0 0 1-.31.81l-4.68 4.65a1.16 1.16 0 0 1-.78.34h-8.12a1.19 1.19 0 0 1-.78-.34l-4.68-4.65a1.14 1.14 0 0 1-.31-.81 1.12 1.12 0 0 1 1.11-1.12zM189 327.12h-7.17l-4 4v3.75l4 4H189l4-4v-3.75zM221.26 335.32a1.14 1.14 0 0 1-.31.81l-4.68 4.65a1.19 1.19 0 0 1-.78.34h-8.12a1.16 1.16 0 0 1-.78-.34l-4.68-4.65a1.25 1.25 0 0 1-.31-.81v-4.65a1.25 1.25 0 0 1 .31-.81l4.68-4.65a1.19 1.19 0 0 1 .78-.34h8.12a1.16 1.16 0 0 1 .78.34l4.68 4.65a1.12 1.12 0 0 1 .31.81 1.09 1.09 0 0 1-1.12 1.12h-16.3v3.08l4 4H215l4.34-4.34a1.11 1.11 0 0 1 .78-.34 1.12 1.12 0 0 1 1.14 1.13zm-6.24-8.2h-7.17l-2.44 2.44h12zM240 324.88a1.16 1.16 0 0 1 1 .53l7.78 12.46 7.76-12.46a1.16 1.16 0 0 1 1-.53 1.14 1.14 0 0 1 1.12 1.12 1.1 1.1 0 0 1-.17.59l-17.44 28a1.16 1.16 0 0 1-1 .53 1.12 1.12 0 0 1-1.15-1.12 1.1 1.1 0 0 1 .17-.59l8.35-13.41-8.34-13.41a1.1 1.1 0 0 1-.17-.59 1.12 1.12 0 0 1 1.09-1.12zM282.08 330.68v4.65a1.18 1.18 0 0 1-.31.81l-4.68 4.65a1.19 1.19 0 0 1-.78.34h-8.12a1.16 1.16 0 0 1-.78-.34l-4.68-4.65a1.25 1.25 0 0 1-.31-.81v-4.65a1.18 1.18 0 0 1 .31-.81l4.68-4.65a1.19 1.19 0 0 1 .78-.34h8.12a1.16 1.16 0 0 1 .78.34l4.68 4.65a1.25 1.25 0 0 1 .31.81zm-6.24-3.56h-7.17l-4 4v3.75l4 4h7.17l4-4v-3.75zM290.31 326v8.88l4 4h7.17l4-4V326a1.12 1.12 0 0 1 2.24 0v9.32a1.18 1.18 0 0 1-.31.81l-4.68 4.65a1.19 1.19 0 0 1-.78.34h-8.12a1.16 1.16 0 0 1-.78-.34l-4.68-4.65a1.25 1.25 0 0 1-.31-.81V326a1.12 1.12 0 1 1 2.24 0zM327 324.88a1.15 1.15 0 0 1 1.06.73l4.17 11.2 4.2-11.2a1 1 0 0 1 1-.7 1.12 1.12 0 0 1 1.06.7l4.2 11.2 4.17-11.2a1.15 1.15 0 0 1 1.06-.73 1.12 1.12 0 0 1 1.12 1.12.89.89 0 0 1-.08.39l-5.24 14a1.12 1.12 0 0 1-1.06.7 1.07 1.07 0 0 1-1-.7l-4.17-11.2-4.17 11.2a1.16 1.16 0 0 1-1.09.7 1 1 0 0 1-1-.7l-5.24-14a.89.89 0 0 1-.08-.39 1.12 1.12 0 0 1 1.09-1.12zM373.23 335.32a1.14 1.14 0 0 1-.31.81l-4.68 4.65a1.19 1.19 0 0 1-.78.34h-8.12a1.16 1.16 0 0 1-.78-.34l-4.68-4.65a1.25 1.25 0 0 1-.31-.81v-4.65a1.25 1.25 0 0 1 .31-.81l4.68-4.65a1.19 1.19 0 0 1 .78-.34h8.12a1.16 1.16 0 0 1 .78.34l4.68 4.65a1.12 1.12 0 0 1 .31.81 1.09 1.09 0 0 1-1.12 1.12h-16.3v3.08l4 4H367l4.34-4.34a1.11 1.11 0 0 1 .78-.34 1.12 1.12 0 0 1 1.11 1.13zm-6.24-8.2h-7.17l-2.44 2.44h12zM381.65 326v2l2.77-2.74a1.16 1.16 0 0 1 .78-.34h5.8a1.12 1.12 0 0 1 0 2.24h-5.29l-4 4V340a1.12 1.12 0 1 1-2.24 0v-14a1.12 1.12 0 1 1 2.24 0zM415.45 335.32a1.14 1.14 0 0 1-.31.81l-4.68 4.65a1.19 1.19 0 0 1-.78.34h-8.12a1.16 1.16 0 0 1-.78-.34l-4.68-4.65a1.25 1.25 0 0 1-.31-.81v-4.65a1.25 1.25 0 0 1 .31-.81l4.68-4.65a1.19 1.19 0 0 1 .78-.34h8.12a1.16 1.16 0 0 1 .78.34l4.68 4.65a1.12 1.12 0 0 1 .31.81 1.09 1.09 0 0 1-1.12 1.12H398v3.08l4 4h7.17l4.34-4.34a1.11 1.11 0 0 1 .78-.34 1.12 1.12 0 0 1 1.16 1.13zm-6.24-8.2H402l-2.44 2.44h12zM435.64 340v-28a1.12 1.12 0 1 1 2.24 0v28a1.12 1.12 0 1 1-2.24 0zM464.08 330.68v4.65a1.18 1.18 0 0 1-.31.81l-4.68 4.65a1.19 1.19 0 0 1-.78.34h-8.12a1.16 1.16 0 0 1-.78-.34l-4.68-4.65a1.25 1.25 0 0 1-.31-.81v-4.65a1.18 1.18 0 0 1 .31-.81l4.68-4.65a1.19 1.19 0 0 1 .78-.34h8.12a1.16 1.16 0 0 1 .78.34l4.68 4.65a1.25 1.25 0 0 1 .31.81zm-6.24-3.56h-7.17l-4 4v3.75l4 4h7.17l4-4v-3.75zM489.49 330.68v4.65a1.18 1.18 0 0 1-.31.81l-4.68 4.65a1.19 1.19 0 0 1-.78.34h-8.12a1.16 1.16 0 0 1-.78-.34l-4.68-4.65a1.25 1.25 0 0 1-.31-.81v-4.65a1.18 1.18 0 0 1 .31-.81l4.68-4.65a1.19 1.19 0 0 1 .78-.34h8.12a1.16 1.16 0 0 1 .78.34l4.68 4.65a1.25 1.25 0 0 1 .31.81zm-6.24-3.56h-7.17l-4 4v3.75l4 4h7.17l4-4v-3.75zM515.81 326a1.13 1.13 0 0 1-.7 1l-14.84 6 14.84 6a1.13 1.13 0 0 1 .7 1 1.15 1.15 0 0 1-1.15 1.12 1 1 0 0 1-.39-.08l-15.9-6.38V340a1.12 1.12 0 1 1-2.24 0v-28a1.12 1.12 0 0 1 2.24 0v19.35l15.9-6.38a1 1 0 0 1 .39-.08 1.15 1.15 0 0 1 1.15 1.11zM521.36 318.08v-1.4a1.12 1.12 0 0 1 2.24 0v1.4a1.12 1.12 0 1 1-2.24 0zm0 21.92v-14a1.12 1.12 0 1 1 2.24 0v14a1.12 1.12 0 1 1-2.24 0zM532.86 326v2l2.77-2.74a1.16 1.16 0 0 1 .78-.34h8.09a1.27 1.27 0 0 1 .81.34l4.65 4.65a1.22 1.22 0 0 1 .34.81V340a1.12 1.12 0 1 1-2.24 0v-8.88l-4-4h-7.16l-4 4V340a1.12 1.12 0 1 1-2.24 0v-14a1.12 1.12 0 1 1 2.24 0zM557.35 348.2a1.11 1.11 0 0 1 .78.34l4.34 4.34h7.17l4-4V338l-2.74 2.74a1.19 1.19 0 0 1-.78.34H562a1.16 1.16 0 0 1-.78-.34l-4.68-4.65a1.25 1.25 0 0 1-.31-.81v-4.65a1.18 1.18 0 0 1 .31-.81l4.68-4.65a1.19 1.19 0 0 1 .78-.34h8.12a1.16 1.16 0 0 1 .78.34l2.74 2.74v-2a1.12 1.12 0 0 1 2.24 0v23.32a1.25 1.25 0 0 1-.31.81l-4.68 4.65a1.16 1.16 0 0 1-.78.34H562a1.19 1.19 0 0 1-.78-.34l-4.68-4.65a1.14 1.14 0 0 1-.31-.81 1.12 1.12 0 0 1 1.12-1.03zm12.29-21.08h-7.17l-4 4v3.75l4 4h7.17l4-4v-3.75zM603 312a1.11 1.11 0 0 1-.34.78l-4.34 4.34v7.76h3.56a1.12 1.12 0 0 1 0 2.24h-3.56V340a1.12 1.12 0 1 1-2.24 0v-23.32a1.22 1.22 0 0 1 .34-.81l4.68-4.65a1.11 1.11 0 0 1 .78-.34A1.12 1.12 0 0 1 603 312zM626 330.68v4.65a1.18 1.18 0 0 1-.31.81l-4.69 4.64a1.19 1.19 0 0 1-.78.34h-8.12a1.16 1.16 0 0 1-.78-.34l-4.68-4.65a1.25 1.25 0 0 1-.31-.81v-4.65a1.18 1.18 0 0 1 .31-.81l4.68-4.65a1.19 1.19 0 0 1 .78-.34h8.12a1.16 1.16 0 0 1 .78.34l4.68 4.65a1.25 1.25 0 0 1 .32.82zm-6.24-3.56h-7.16l-4 4v3.75l4 4h7.17l4-4v-3.75zM634.63 326v2l2.77-2.74a1.16 1.16 0 0 1 .78-.34H644a1.12 1.12 0 0 1 0 2.24h-5.29l-4 4V340a1.12 1.12 0 1 1-2.24 0v-14a1.12 1.12 0 1 1 2.24 0zM222 368v28a1.12 1.12 0 1 1-2.24 0v-2l-2.76 2.78a1.19 1.19 0 0 1-.78.34h-8.12a1.16 1.16 0 0 1-.78-.34l-4.68-4.65a1.25 1.25 0 0 1-.31-.81v-4.65a1.18 1.18 0 0 1 .31-.81l4.68-4.65a1.19 1.19 0 0 1 .78-.34h8.12a1.16 1.16 0 0 1 .78.34l2.74 2.74V368a1.12 1.12 0 0 1 2.24 0zm-6.24 15.12h-7.17l-4 4v3.75l4 4h7.17l4-4v-3.75zM248 386.68v4.65a1.18 1.18 0 0 1-.31.81l-4.69 4.64a1.19 1.19 0 0 1-.78.34h-8.12a1.16 1.16 0 0 1-.78-.34l-4.68-4.65a1.25 1.25 0 0 1-.31-.81v-4.65a1.18 1.18 0 0 1 .31-.81l4.68-4.65a1.19 1.19 0 0 1 .78-.34h8.12a1.16 1.16 0 0 1 .78.34l4.68 4.65a1.25 1.25 0 0 1 .32.82zm-6.24-3.56h-7.17l-4 4v3.75l4 4h7.17l4-4v-3.75zM273.43 391.32a1.14 1.14 0 0 1-.31.81l-4.68 4.65a1.19 1.19 0 0 1-.78.34h-8.12a1.16 1.16 0 0 1-.78-.34l-4.68-4.65a1.25 1.25 0 0 1-.31-.81v-4.65a1.25 1.25 0 0 1 .31-.81l4.68-4.65a1.19 1.19 0 0 1 .78-.34h8.12a1.16 1.16 0 0 1 .78.34l4.68 4.65a1.12 1.12 0 0 1 .31.81 1.09 1.09 0 0 1-1.12 1.12H256v3.08l4 4h7.17l4.34-4.34a1.11 1.11 0 0 1 .78-.34 1.12 1.12 0 0 1 1.14 1.13zm-6.24-8.2H260l-2.44 2.44h12zM297.71 387.8a1.11 1.11 0 0 1-.78-.34l-4.34-4.34h-7.17l-3 3 15.58 4.14a1.1 1.1 0 0 1 .81 1.09 1.07 1.07 0 0 1-.31.78l-4.68 4.65a1.16 1.16 0 0 1-.78.34h-8.12a1.19 1.19 0 0 1-.78-.34l-4.68-4.65a1.14 1.14 0 0 1-.31-.81 1.12 1.12 0 0 1 1.12-1.12 1.11 1.11 0 0 1 .78.34l4.34 4.34h7.17l3-3-15.56-4.14a1.15 1.15 0 0 1-.81-1.12 1.06 1.06 0 0 1 .31-.76l4.68-4.65a1.19 1.19 0 0 1 .78-.34h8.12a1.16 1.16 0 0 1 .78.34l4.68 4.65a1.14 1.14 0 0 1 .31.81 1.12 1.12 0 0 1-1.14 1.13zM320.78 382v2l2.77-2.74a1.16 1.16 0 0 1 .78-.34h8.09a1.27 1.27 0 0 1 .81.34l4.65 4.65a1.22 1.22 0 0 1 .34.81V396a1.12 1.12 0 1 1-2.24 0v-8.88l-4-4h-7.17l-4 4V396a1.12 1.12 0 1 1-2.24 0v-14a1.12 1.12 0 1 1 2.24 0zM363.8 386.68v4.65a1.18 1.18 0 0 1-.31.81l-4.68 4.65a1.19 1.19 0 0 1-.78.34h-8.12a1.16 1.16 0 0 1-.78-.34l-4.68-4.65a1.25 1.25 0 0 1-.31-.81v-4.65a1.18 1.18 0 0 1 .31-.81l4.68-4.65a1.19 1.19 0 0 1 .78-.34H358a1.16 1.16 0 0 1 .78.34l4.68 4.65a1.25 1.25 0 0 1 .34.81zm-6.24-3.56h-7.17l-4 4v3.75l4 4h7.17l4-4v-3.75zM374.73 368v12.88h4.09a1.12 1.12 0 1 1 0 2.24h-4.09V396a1.12 1.12 0 1 1-2.24 0v-12.88h-4.09a1.12 1.12 0 0 1 0-2.24h4.09V368a1.12 1.12 0 0 1 2.24 0zM417.2 391.32a1.14 1.14 0 0 1-.31.81l-4.68 4.65a1.19 1.19 0 0 1-.78.34h-8.12a1.16 1.16 0 0 1-.78-.34l-4.68-4.65a1.25 1.25 0 0 1-.31-.81v-4.65a1.25 1.25 0 0 1 .31-.81l4.68-4.65a1.19 1.19 0 0 1 .78-.34h8.12a1.16 1.16 0 0 1 .78.34l4.68 4.65a1.12 1.12 0 0 1 .31.81 1.09 1.09 0 0 1-1.12 1.12h-16.3v3.08l4 4H411l4.34-4.34a1.11 1.11 0 0 1 .78-.34 1.12 1.12 0 0 1 1.08 1.13zm-6.24-8.2h-7.17l-2.44 2.44h12zM422.38 380.88a1.07 1.07 0 0 1 .7.25l8 6.44 8-6.44a1.07 1.07 0 0 1 .7-.25 1.12 1.12 0 0 1 1.12 1.12 1.06 1.06 0 0 1-.39.87l-7.63 6.13 7.64 6.13a1.06 1.06 0 0 1 .39.87 1.12 1.12 0 0 1-1.12 1.12 1.07 1.07 0 0 1-.7-.25l-8-6.44-8 6.44a1.07 1.07 0 0 1-.7.25 1.12 1.12 0 0 1-1.12-1.12 1.09 1.09 0 0 1 .42-.87l7.61-6.13-7.62-6.13a1.09 1.09 0 0 1-.42-.87 1.12 1.12 0 0 1 1.12-1.12zM446.72 374.08v-1.4a1.12 1.12 0 0 1 2.24 0v1.4a1.12 1.12 0 1 1-2.24 0zm0 21.92v-14a1.12 1.12 0 0 1 2.24 0v14a1.12 1.12 0 1 1-2.24 0zM473.7 387.8a1.11 1.11 0 0 1-.78-.34l-4.34-4.34h-7.17l-3 3 15.59 4.14a1.1 1.1 0 0 1 .81 1.09 1.07 1.07 0 0 1-.31.78l-4.68 4.65a1.16 1.16 0 0 1-.78.34h-8.12a1.19 1.19 0 0 1-.78-.34l-4.68-4.65a1.14 1.14 0 0 1-.31-.81 1.12 1.12 0 0 1 1.12-1.12 1.11 1.11 0 0 1 .78.34l4.34 4.34h7.17l3-3-15.56-4.14a1.15 1.15 0 0 1-.81-1.12 1.06 1.06 0 0 1 .31-.76l4.68-4.65a1.19 1.19 0 0 1 .78-.34H469a1.16 1.16 0 0 1 .78.34l4.68 4.65a1.14 1.14 0 0 1 .31.81 1.12 1.12 0 0 1-1.07 1.13zM485.75 368v12.88h4.09a1.12 1.12 0 0 1 0 2.24h-4.09V396a1.12 1.12 0 1 1-2.24 0v-12.88h-4.09a1.12 1.12 0 0 1 0-2.24h4.09V368a1.12 1.12 0 1 1 2.24 0zM494.53 396v-1.4a1.12 1.12 0 0 1 2.24 0v1.4a1.12 1.12 0 1 1-2.24 0z"/></g></svg>