<svg xmlns="http://www.w3.org/2000/svg" viewBox="0 0 700 500"><path fill="#f2f2f2" d="M0 0h700v500H0z" data-name="Ebene 1"/><g data-name="Ebene 2"><path d="M171.94 180a7.76 7.76 0 0 1 2.1-5.32l65.38-70a7.09 7.09 0 0 1 5.46-2.24 7.67 7.67 0 0 1 7.84 7.56v62.3h14.14a7.7 7.7 0 1 1 0 15.4h-14.14V250a7.7 7.7 0 1 1-15.4 0v-62.3h-57.68a7.77 7.77 0 0 1-7.7-7.7zm65.38-50.54l-39.9 42.84h39.9zM375.44 255.46a8.11 8.11 0 0 1-5.44 2.24h-40.48a8.09 8.09 0 0 1-5.46-2.24l-23.24-23.38a8.11 8.11 0 0 1-2.24-5.46v-93.24a8.09 8.09 0 0 1 2.24-5.46l23.24-23.38a8.11 8.11 0 0 1 5.46-2.24H370a8.08 8.08 0 0 1 5.46 2.24l23.38 23.38a8.11 8.11 0 0 1 2.24 5.46v93.24a8.09 8.09 0 0 1-2.24 5.46zm10.22-119L366.9 117.7h-34.16L314 136.46v87.08l18.76 18.76h34.14l18.76-18.76zM425 180a7.76 7.76 0 0 1 2.1-5.32l65.38-70a7.09 7.09 0 0 1 5.46-2.24 7.67 7.67 0 0 1 7.86 7.56v62.3h14.14a7.7 7.7 0 1 1 0 15.4H505.8V250a7.7 7.7 0 1 1-15.4 0v-62.3h-57.67A7.77 7.77 0 0 1 425 180zm65.38-50.54l-39.9 42.84h39.9zM48.56 312v12.46h3.67a1.54 1.54 0 0 1 0 3.08h-3.67V340a1.54 1.54 0 1 1-3.08 0v-12.46h-3.66a1.54 1.54 0 0 1 0-3.08h3.67V312a1.54 1.54 0 1 1 3.08 0zM61.48 312v15l2-2a1.62 1.62 0 0 1 1.09-.45h8.09a1.62 1.62 0 0 1 1.09.45l4.68 4.68a1.62 1.62 0 0 1 .45 1.09V340a1.54 1.54 0 1 1-3.08 0v-8.71l-3.78-3.75h-6.8l-3.78 3.75V340a1.54 1.54 0 1 1-3.08 0v-28a1.54 1.54 0 1 1 3.08 0zM104.52 335.32a1.53 1.53 0 0 1-.45 1.09l-4.68 4.68a1.55 1.55 0 0 1-1.06.45h-8.12a1.56 1.56 0 0 1-1.06-.45l-4.68-4.68a1.62 1.62 0 0 1-.45-1.09v-4.65a1.62 1.62 0 0 1 .45-1.09l4.68-4.68a1.55 1.55 0 0 1 1.06-.45h8.12a1.56 1.56 0 0 1 1.06.45l4.68 4.68a1.54 1.54 0 0 1-1.09 2.63H87.1v2.49l3.75 3.75h6.83l4.2-4.23a1.49 1.49 0 0 1 1.09-.42 1.53 1.53 0 0 1 1.55 1.52zm-6.83-7.78h-6.83l-1.57 1.6h10zM126.5 326v1l2-2a1.62 1.62 0 0 1 1.09-.45h8.09a1.62 1.62 0 0 1 1.09.45l4.68 4.68a1.62 1.62 0 0 1 .45 1.09v4.65a1.62 1.62 0 0 1-.45 1.09l-4.68 4.68a1.62 1.62 0 0 1-1.09.45h-8.09a1.62 1.62 0 0 1-1.09-.45l-2-2v15a1.58 1.58 0 0 1-1.57 1.54 1.55 1.55 0 0 1-1.54-1.54V326a1.55 1.55 0 0 1 1.54-1.54 1.58 1.58 0 0 1 1.57 1.54zm3.75 12.46h6.83l3.75-3.75v-3.42l-3.75-3.75h-6.83l-3.75 3.75v3.42zM169.33 326v14a1.54 1.54 0 0 1-3.08 0v-1l-2 2a1.56 1.56 0 0 1-1.06.45H155a1.55 1.55 0 0 1-1.06-.45l-4.68-4.68a1.62 1.62 0 0 1-.45-1.09v-4.65a1.62 1.62 0 0 1 .45-1.09l4.68-4.68a1.56 1.56 0 0 1 1.06-.45h8.12a1.55 1.55 0 0 1 1.06.45l2 2v-1a1.54 1.54 0 0 1 3.08 0zm-6.83 1.54h-6.83l-3.75 3.75v3.42l3.75 3.75h6.83l3.75-3.75v-3.42zM176.44 347.81a1.49 1.49 0 0 1 1.09.42l4.2 4.23h6.83l3.75-3.75V339l-2 2a1.55 1.55 0 0 1-1.06.45h-8.12a1.56 1.56 0 0 1-1.06-.45l-4.68-4.68a1.62 1.62 0 0 1-.45-1.09v-4.65a1.62 1.62 0 0 1 .45-1.09l4.68-4.68a1.55 1.55 0 0 1 1.06-.45h8.12a1.56 1.56 0 0 1 1.06.45l2 2v-1a1.54 1.54 0 0 1 3.08 0v23.32a1.62 1.62 0 0 1-.45 1.09l-4.68 4.68a1.56 1.56 0 0 1-1.06.45h-8.12a1.55 1.55 0 0 1-1.06-.45l-4.68-4.68a1.52 1.52 0 0 1 1.09-2.6zm12.12-20.27h-6.83l-3.73 3.75v3.42l3.75 3.75h6.83l3.75-3.75v-3.42zM221.45 335.32a1.53 1.53 0 0 1-.45 1.09l-4.68 4.68a1.55 1.55 0 0 1-1.06.45h-8.12a1.56 1.56 0 0 1-1.06-.45l-4.68-4.68a1.62 1.62 0 0 1-.45-1.09v-4.65a1.62 1.62 0 0 1 .45-1.09l4.68-4.68a1.55 1.55 0 0 1 1.06-.45h8.12a1.56 1.56 0 0 1 1.06.45l4.68 4.68a1.54 1.54 0 0 1-1.09 2.63H204v2.49l3.75 3.75h6.83l4.2-4.23a1.49 1.49 0 0 1 1.09-.42 1.53 1.53 0 0 1 1.58 1.52zm-6.83-7.78h-6.83l-1.57 1.6h10zM239.77 324.46a1.53 1.53 0 0 1 1.32.73l7.42 11.9 7.39-11.9a1.53 1.53 0 0 1 1.32-.73 1.55 1.55 0 0 1 1.54 1.54 1.43 1.43 0 0 1-.22.81l-17.44 28a1.53 1.53 0 0 1-2.83-.81 1.43 1.43 0 0 1 .22-.81l8.2-13.19-8.2-13.19a1.43 1.43 0 0 1-.22-.81 1.53 1.53 0 0 1 1.5-1.54zM282.35 330.68v4.65a1.62 1.62 0 0 1-.45 1.09l-4.68 4.68a1.55 1.55 0 0 1-1.06.45H268a1.56 1.56 0 0 1-1.06-.45l-4.68-4.68a1.62 1.62 0 0 1-.45-1.09v-4.65a1.62 1.62 0 0 1 .45-1.09l4.68-4.68a1.55 1.55 0 0 1 1.06-.45h8.12a1.56 1.56 0 0 1 1.06.45l4.68 4.68a1.62 1.62 0 0 1 .49 1.09zm-6.83-3.14h-6.83l-3.75 3.75v3.42l3.75 3.75h6.83l3.75-3.75v-3.42zM290.6 326v8.71l3.75 3.75h6.83l3.75-3.75V326a1.54 1.54 0 1 1 3.08 0v9.32a1.62 1.62 0 0 1-.45 1.09l-4.68 4.68a1.55 1.55 0 0 1-1.06.45h-8.12a1.56 1.56 0 0 1-1.06-.45l-4.64-4.67a1.62 1.62 0 0 1-.45-1.09V326a1.54 1.54 0 1 1 3.08 0zM326.86 324.46a1.57 1.57 0 0 1 1.46 1l3.78 10.14 3.78-10.14a1.57 1.57 0 0 1 1.46-1 1.59 1.59 0 0 1 1.46 1l3.78 10.14 3.78-10.14a1.57 1.57 0 0 1 1.46-1 1.55 1.55 0 0 1 1.54 1.54 1.8 1.8 0 0 1-.11.53l-5.24 14a1.55 1.55 0 0 1-1.43 1 1.57 1.57 0 0 1-1.46-1l-3.78-10.14-3.78 10.14a1.55 1.55 0 0 1-1.43 1 1.57 1.57 0 0 1-1.46-1l-5.24-14a1.8 1.8 0 0 1-.11-.53 1.55 1.55 0 0 1 1.54-1.54zM373.56 335.32a1.53 1.53 0 0 1-.45 1.09l-4.68 4.68a1.55 1.55 0 0 1-1.06.45h-8.12a1.56 1.56 0 0 1-1.06-.45l-4.68-4.68a1.62 1.62 0 0 1-.45-1.09v-4.65a1.62 1.62 0 0 1 .45-1.09l4.68-4.68a1.55 1.55 0 0 1 1.06-.45h8.12a1.56 1.56 0 0 1 1.06.45l4.68 4.68a1.54 1.54 0 0 1-1.09 2.63h-15.88v2.49l3.75 3.75h6.83l4.2-4.23a1.49 1.49 0 0 1 1.09-.42 1.53 1.53 0 0 1 1.55 1.52zm-6.83-7.78h-6.83l-1.57 1.6h10zM382 326v1l2-2a1.62 1.62 0 0 1 1.09-.45h5.77a1.54 1.54 0 0 1 0 3.08h-5.12l-3.74 3.66V340a1.58 1.58 0 0 1-1.57 1.54 1.53 1.53 0 0 1-1.51-1.54v-14a1.53 1.53 0 0 1 1.51-1.54A1.58 1.58 0 0 1 382 326zM415.94 335.32a1.53 1.53 0 0 1-.45 1.09l-4.68 4.68a1.55 1.55 0 0 1-1.06.45h-8.12a1.56 1.56 0 0 1-1.06-.45l-4.68-4.68a1.62 1.62 0 0 1-.45-1.09v-4.65a1.62 1.62 0 0 1 .45-1.09l4.68-4.68a1.55 1.55 0 0 1 1.06-.45h8.12a1.56 1.56 0 0 1 1.06.45l4.68 4.68a1.54 1.54 0 0 1-1.09 2.63h-15.88v2.49l3.75 3.75h6.83l4.2-4.23a1.49 1.49 0 0 1 1.09-.42 1.53 1.53 0 0 1 1.55 1.52zm-6.83-7.78h-6.83l-1.57 1.6h10zM435.29 340v-28a1.54 1.54 0 1 1 3.08 0v28a1.54 1.54 0 1 1-3.08 0zM464.59 330.68v4.65a1.62 1.62 0 0 1-.45 1.09l-4.68 4.68a1.55 1.55 0 0 1-1.06.45h-8.12a1.56 1.56 0 0 1-1.06-.45l-4.68-4.68a1.62 1.62 0 0 1-.45-1.09v-4.65a1.62 1.62 0 0 1 .45-1.09l4.68-4.68a1.55 1.55 0 0 1 1.06-.45h8.12a1.56 1.56 0 0 1 1.06.45l4.68 4.68a1.62 1.62 0 0 1 .45 1.09zm-6.83-3.14h-6.83l-3.75 3.75v3.42l3.75 3.75h6.83l3.75-3.75v-3.42zM490 330.68v4.65a1.62 1.62 0 0 1-.45 1.09l-4.68 4.68a1.55 1.55 0 0 1-1.06.45h-8.12a1.56 1.56 0 0 1-1.06-.45l-4.63-4.68a1.62 1.62 0 0 1-.45-1.09v-4.65a1.62 1.62 0 0 1 .45-1.09l4.68-4.68a1.55 1.55 0 0 1 1.06-.45h8.12a1.56 1.56 0 0 1 1.06.45l4.68 4.68a1.62 1.62 0 0 1 .4 1.09zm-6.83-3.14h-6.83l-3.75 3.75v3.42l3.75 3.75h6.83l3.75-3.75v-3.42zM516.37 326a1.58 1.58 0 0 1-1 1.43L501.53 333l13.86 5.57a1.54 1.54 0 0 1-.59 3 1.33 1.33 0 0 1-.56-.11l-15.32-6.16v4.7a1.54 1.54 0 1 1-3.08 0v-28a1.54 1.54 0 1 1 3.08 0v18.73l15.32-6.16a1.33 1.33 0 0 1 .56-.11 1.58 1.58 0 0 1 1.57 1.54zM521.1 318.08v-1.4a1.54 1.54 0 0 1 3.08 0v1.4a1.54 1.54 0 0 1-3.08 0zm0 21.92v-14a1.54 1.54 0 0 1 3.08 0v14a1.54 1.54 0 0 1-3.08 0zM533.47 326v1l2-2a1.62 1.62 0 0 1 1.09-.45h8.09a1.62 1.62 0 0 1 1.09.45l4.68 4.68a1.62 1.62 0 0 1 .45 1.09V340a1.54 1.54 0 1 1-3.08 0v-8.71l-3.75-3.75h-6.83l-3.75 3.75V340a1.58 1.58 0 0 1-1.57 1.54 1.53 1.53 0 0 1-1.51-1.54v-14a1.53 1.53 0 0 1 1.51-1.54 1.58 1.58 0 0 1 1.58 1.54zM557.53 347.81a1.49 1.49 0 0 1 1.09.42l4.2 4.23h6.83l3.75-3.75V339l-2 2a1.55 1.55 0 0 1-1.06.45h-8.12a1.56 1.56 0 0 1-1.06-.45l-4.68-4.68a1.62 1.62 0 0 1-.45-1.09v-4.65a1.62 1.62 0 0 1 .45-1.09l4.68-4.68a1.55 1.55 0 0 1 1.06-.45h8.12a1.56 1.56 0 0 1 1.06.45l2 2v-1a1.54 1.54 0 1 1 3.08 0v23.32a1.62 1.62 0 0 1-.45 1.09l-4.68 4.68a1.56 1.56 0 0 1-1.06.45h-8.12a1.55 1.55 0 0 1-1.06-.45l-4.68-4.68a1.52 1.52 0 0 1 1.09-2.6zm12.12-20.27h-6.83l-3.75 3.75v3.42l3.75 3.75h6.83l3.75-3.75v-3.42zM603.62 312a1.52 1.52 0 0 1-.45 1.09l-4.2 4.2v7.17h3.11a1.54 1.54 0 0 1 0 3.08H599V340a1.58 1.58 0 0 1-1.57 1.54 1.53 1.53 0 0 1-1.51-1.54v-23.32a1.62 1.62 0 0 1 .45-1.09l4.65-4.68a1.52 1.52 0 0 1 1.09-.45 1.55 1.55 0 0 1 1.51 1.54zM626.76 330.68v4.65a1.62 1.62 0 0 1-.45 1.09l-4.68 4.68a1.55 1.55 0 0 1-1.06.45h-8.12a1.56 1.56 0 0 1-1.06-.45l-4.68-4.68a1.62 1.62 0 0 1-.45-1.09v-4.65a1.62 1.62 0 0 1 .45-1.09l4.68-4.68a1.55 1.55 0 0 1 1.06-.45h8.12a1.56 1.56 0 0 1 1.06.45l4.68 4.68a1.62 1.62 0 0 1 .45 1.09zm-6.83-3.14h-6.83l-3.75 3.75v3.42l3.75 3.75h6.83l3.75-3.75v-3.42zM635.42 326v1l2-2a1.62 1.62 0 0 1 1.09-.45h5.77a1.54 1.54 0 0 1 0 3.08h-5.12l-3.75 3.75V340a1.58 1.58 0 0 1-1.57 1.54 1.53 1.53 0 0 1-1.51-1.54v-14a1.53 1.53 0 0 1 1.51-1.54 1.58 1.58 0 0 1 1.58 1.54zM222 368v28a1.54 1.54 0 1 1-3.08 0v-1l-2 2a1.55 1.55 0 0 1-1.06.45h-8.12a1.56 1.56 0 0 1-1.06-.45l-4.68-4.58a1.62 1.62 0 0 1-.45-1.09v-4.65a1.62 1.62 0 0 1 .45-1.09l4.68-4.68a1.55 1.55 0 0 1 1.06-.45h8.12a1.56 1.56 0 0 1 1.06.45l2 2V368a1.54 1.54 0 1 1 3.08 0zm-6.83 15.54h-6.83l-3.75 3.75v3.42l3.75 3.75h6.83l3.75-3.75v-3.42zM248.08 386.68v4.65a1.62 1.62 0 0 1-.45 1.09l-4.63 4.67a1.55 1.55 0 0 1-1.06.45h-8.12a1.56 1.56 0 0 1-1.06-.45l-4.76-4.67a1.62 1.62 0 0 1-.45-1.09v-4.65a1.62 1.62 0 0 1 .45-1.09l4.68-4.68a1.55 1.55 0 0 1 1.06-.45h8.12a1.56 1.56 0 0 1 1.06.45l4.68 4.68a1.62 1.62 0 0 1 .48 1.09zm-6.83-3.14h-6.83l-3.75 3.75v3.42l3.75 3.75h6.83l3.75-3.75v-3.42zM273.51 391.32a1.53 1.53 0 0 1-.45 1.09l-4.68 4.68a1.55 1.55 0 0 1-1.06.45h-8.12a1.56 1.56 0 0 1-1.06-.45l-4.68-4.68a1.62 1.62 0 0 1-.45-1.09v-4.65a1.62 1.62 0 0 1 .45-1.09l4.68-4.68a1.55 1.55 0 0 1 1.06-.45h8.12a1.56 1.56 0 0 1 1.06.45l4.68 4.68a1.54 1.54 0 0 1-1.09 2.63h-15.88v2.49l3.75 3.75h6.83l4.2-4.23a1.49 1.49 0 0 1 1.09-.42 1.53 1.53 0 0 1 1.55 1.52zm-6.83-7.78h-6.83l-1.57 1.6h10zM297.39 388.19a1.49 1.49 0 0 1-1.09-.42l-4.2-4.23h-6.83l-2.32 2.32 14.84 4a1.57 1.57 0 0 1 1.15 1.51 1.46 1.46 0 0 1-.45 1.06l-4.68 4.68a1.56 1.56 0 0 1-1.06.45h-8.12a1.55 1.55 0 0 1-1.06-.45l-4.68-4.68a1.52 1.52 0 0 1 1.09-2.6 1.49 1.49 0 0 1 1.09.42l4.2 4.23h6.83l2.32-2.32-14.84-4a1.6 1.6 0 0 1-1.15-1.48 1.52 1.52 0 0 1 .45-1.09l4.68-4.68a1.55 1.55 0 0 1 1.06-.45h8.12a1.56 1.56 0 0 1 1.06.45l4.68 4.68a1.53 1.53 0 0 1-1.09 2.6zM320.91 382v1l2-2a1.62 1.62 0 0 1 1.09-.45h8.09a1.62 1.62 0 0 1 1.09.45l4.68 4.68a1.62 1.62 0 0 1 .45 1.09V396a1.54 1.54 0 1 1-3.08 0v-8.71l-3.75-3.75h-6.83l-3.75 3.75V396a1.58 1.58 0 0 1-1.57 1.54 1.53 1.53 0 0 1-1.51-1.54v-14a1.53 1.53 0 0 1 1.51-1.54 1.58 1.58 0 0 1 1.58 1.54zM363.93 386.68v4.65a1.62 1.62 0 0 1-.45 1.09l-4.68 4.68a1.55 1.55 0 0 1-1.06.45h-8.12a1.56 1.56 0 0 1-1.06-.45l-4.68-4.68a1.62 1.62 0 0 1-.45-1.09v-4.65a1.62 1.62 0 0 1 .45-1.09l4.68-4.68a1.55 1.55 0 0 1 1.06-.45h8.12a1.56 1.56 0 0 1 1.06.45l4.68 4.68a1.62 1.62 0 0 1 .45 1.09zm-6.83-3.14h-6.83l-3.75 3.75v3.42l3.75 3.75h6.83l3.75-3.75v-3.42zM375 368v12.46h3.67a1.54 1.54 0 0 1 0 3.08H375V396a1.54 1.54 0 1 1-3.08 0v-12.46h-3.67a1.54 1.54 0 0 1 0-3.08h3.67V368a1.54 1.54 0 1 1 3.08 0zM417.49 391.32a1.53 1.53 0 0 1-.45 1.09l-4.68 4.68a1.55 1.55 0 0 1-1.06.45h-8.12a1.56 1.56 0 0 1-1.06-.45l-4.68-4.68a1.62 1.62 0 0 1-.45-1.09v-4.65a1.62 1.62 0 0 1 .45-1.09l4.68-4.68a1.55 1.55 0 0 1 1.06-.45h8.12a1.56 1.56 0 0 1 1.06.45l4.68 4.68a1.54 1.54 0 0 1-1.09 2.63h-15.88v2.49l3.75 3.75h6.83l4.2-4.23a1.49 1.49 0 0 1 1.09-.42 1.53 1.53 0 0 1 1.55 1.52zm-6.83-7.78h-6.83l-1.57 1.6h10zM422.49 380.46a1.52 1.52 0 0 1 1 .34l7.71 6.2 7.8-6.2a1.52 1.52 0 0 1 1-.34 1.55 1.55 0 0 1 1.54 1.54 1.58 1.58 0 0 1-.56 1.2l-7.22 5.8 7.22 5.8a1.58 1.58 0 0 1 .56 1.2 1.55 1.55 0 0 1-1.54 1.54 1.52 1.52 0 0 1-1-.34l-7.8-6.2-7.76 6.22a1.52 1.52 0 0 1-1 .34A1.55 1.55 0 0 1 421 396a1.61 1.61 0 0 1 .59-1.2l7.2-5.8-7.2-5.8a1.61 1.61 0 0 1-.59-1.2 1.55 1.55 0 0 1 1.49-1.54zM446.43 374.08v-1.4a1.54 1.54 0 0 1 3.08 0v1.4a1.54 1.54 0 0 1-3.08 0zm0 21.92v-14a1.54 1.54 0 1 1 3.08 0v14a1.54 1.54 0 1 1-3.08 0zM473.91 388.19a1.49 1.49 0 0 1-1.09-.42l-4.2-4.23h-6.83l-2.32 2.32 14.84 4a1.57 1.57 0 0 1 1.15 1.51 1.46 1.46 0 0 1-.45 1.06l-4.68 4.68a1.56 1.56 0 0 1-1.06.45h-8.12a1.55 1.55 0 0 1-1.06-.45l-4.68-4.68a1.52 1.52 0 0 1 1.09-2.6 1.49 1.49 0 0 1 1.09.42l4.2 4.23h6.83l2.32-2.32-14.84-4a1.6 1.6 0 0 1-1.15-1.48 1.52 1.52 0 0 1 .45-1.09l4.68-4.68a1.55 1.55 0 0 1 1.06-.45h8.12a1.56 1.56 0 0 1 1.06.45l4.68 4.68a1.53 1.53 0 0 1-1.09 2.6zM486.53 368v12.46h3.67a1.54 1.54 0 0 1 0 3.08h-3.67V396a1.54 1.54 0 1 1-3.08 0v-12.46h-3.67a1.54 1.54 0 0 1 0-3.08h3.67V368a1.54 1.54 0 1 1 3.08 0zM494.5 396v-1.4a1.54 1.54 0 1 1 3.08 0v1.4a1.54 1.54 0 1 1-3.08 0z"/></g></svg>