<svg xmlns="http://www.w3.org/2000/svg" viewBox="0 0 700 500"><path fill="#f2f2f2" d="M0 0h700v500H0z" data-name="Ebene 1"/><g data-name="Ebene 2"><path d="M274.63 246.8l-9.12 6.4v-77.6h-46.56L265.51 98l9.12-6.4v77.6h15.52l-9.15 6.4h-6.4zm-46.72-77.6h37.6v-62.56zM376.4 227.28l-21 12.16 12.64 7.36-9 6.4H331.6l9.12-6.4 3.68-2.08-30.08-17.44V123.76l9-6.24 21.12-12.16L331.6 98l9.12-6.4h27.36l-9 6.4-3.68 2.08 30.08 17.44V221zm0-1.12v-102.4l-31-17.92-22.08 12.8V221l31.16 18zm-31 19l-2.72 1.6h5.44zm9.12-145.6L357.2 98h-5.6zM465.38 246.8l-9.12 6.4v-77.6H409.7L456.26 98l9.12-6.4v77.6h15.52l-9.12 6.4h-6.4zm-46.72-77.6h37.6v-62.56zM116.58 339.36l-1.82 1.28v-15.52H111l1.82-1.28h1.89V309.6l1.82-1.28v15.52h3.71l-1.79 1.28h-1.92zM126.9 329.25v10.11l-1.79 1.28v-31l1.79-1.28V329l4.22-2.43-2.56-1.47 1.82-1.28h5.47l-1.79 1.28-.77.42 6 3.49v10.34l-1.82 1.28v-10.36l-6.21-3.58zm6.21-3.81l.58-.32h-1.12zM144.71 335.46v-5.18l1.82-1.25 4.19-2.43-2.53-1.47 1.79-1.28h5.5l-1.82 1.28-.74.42 6 3.49-1.79 1.25h-10.59v3.94l6.21 3.58 6.21-3.58-1.79 1.25-4.22 2.43 2.56 1.47-1.82 1.28h-5.49l1.79-1.28.74-.42zm2.21-6.43h8l-4-2.34zm4 10l-.54.32h1.12zm1.82-13.6l.54-.32h-1.08zM177 336.51v18.37l-1.79 1.28v-31l1.79-1.28V329l4.22-2.43-2.56-1.47 1.82-1.28H186l-1.79 1.28-.74.42 6 3.49v5.18l-1.82 1.25-4.19 2.43 2.53 1.47-1.79 1.28h-5.5l1.82-1.28.74-.42zm0-7.26v5l6.24 3.58 4.38-2.56v-5l-6.21-3.58zm4.42 9.79l-.54.32H182zm1.82-13.6l.54-.32h-1.12zM206.9 328v-2.85l1.79-1.28v15.52l-1.79 1.28v-5.18l-4.22 2.43 2.56 1.47-1.82 1.28h-5.47l1.79-1.28.74-.42-6-3.49v-5.18l1.82-1.25 4.19-2.43-2.53-1.47 1.79-1.28h5.5l-1.82 1.28-.74.42zm0 7.26v-5l-6.24-3.58-4.38 2.56v5l6.21 3.58zm-6.24 3.74l-.54.32h1.12zm1.82-13.6l.54-.32h-1.09zM214.44 335.46v-5.18l1.82-1.25 4.19-2.43-2.53-1.47 1.79-1.28h5.5l-1.82 1.28-.74.42 4.22 2.43v-2.85l1.79-1.28v25.89l-1.77 1.26-4.22 2.43 2.56 1.47-1.82 1.28h-5.47l1.79-1.28.74-.42-6-3.49 1.82-1.25 6.21 3.58 4.42-2.56v-15.3l-4.22 2.43 2.56 1.47-1.82 1.28h-5.47l1.79-1.28.74-.42zm12.45-.22v-5l-6.24-3.58-4.38 2.56v5l6.21 3.58zm-6.24 3.76l-.54.32h1.12zm0 15.52l-.54.32h1.12zm1.82-29.12l.54-.32h-1.09zM234.43 335.46v-5.18l1.82-1.25 4.19-2.43-2.53-1.47 1.79-1.28h5.5l-1.82 1.28-.74.42 6 3.49-1.79 1.25h-10.6v3.94l6.21 3.58 6.21-3.58-1.79 1.25-4.22 2.43 2.56 1.47-1.82 1.28h-5.47l1.79-1.28.74-.42zm2.21-6.43h8l-4-2.34zm4 10l-.54.32h1.12zm1.82-13.6l.54-.32h-1.09zM275.87 325.12l1.79-1.28q-6.19 15.5-12.42 31l-1.82 1.28 6.21-15.52-6.21-15.52 1.82-1.28 5.57 13.89zM295.1 334.21l-1.79 1.25-4.22 2.43 2.56 1.47-1.82 1.28h-5.47l1.79-1.28.74-.42-6-3.49v-5.18l1.82-1.25 4.19-2.43-2.53-1.47 1.79-1.28h5.5l-1.82 1.28-.74.42 6 3.49zm-1.79-3.94l-6.24-3.58-4.38 2.56v5l6.21 3.58 4.42-2.56zm-6.24 8.73l-.54.32h1.12zm1.82-13.6l.54-.32h-1.09zM302.3 334.21l6.21 3.58 4.42-2.56v-10.11l1.79-1.28v10.37l-1.79 1.25-4.22 2.43 2.56 1.47-1.82 1.28H304l1.79-1.28.74-.42-6-3.49v-10.33l1.82-1.28zm4.38 4.83l-.54.32h1.12zM335.39 339.36l-1.82 1.28-3.71-15.52 1.79-1.28 3 12.38 2.69-11.1 1.82-1.28 3 12.38 2.66-11.1 1.82-1.28-3.74 15.52-1.79 1.28-3-12.38zM350.56 335.46v-5.18l1.82-1.25 4.19-2.43-2.53-1.47 1.79-1.28h5.5l-1.82 1.28-.74.42 6 3.49-1.77 1.23h-10.61v3.94l6.21 3.58 6.21-3.58-1.81 1.25-4.22 2.43 2.56 1.47-1.82 1.28h-5.47l1.79-1.28.74-.42zm2.21-6.43h8l-4-2.34zm4 10l-.54.32h1.12zm1.82-13.6l.54-.32H358zM371.94 329.25v10.11l-1.79 1.28v-15.52l1.79-1.28V329l6.78-3.9h-1.15l1.82-1.28h1.5l-1.79 1.28zM382.64 335.46v-5.18l1.82-1.25 4.19-2.43-2.53-1.47 1.79-1.28h5.5l-1.82 1.28-.74.42 6 3.49-1.79 1.25h-10.59v3.94l6.21 3.58 6.21-3.58-1.79 1.25-4.22 2.43 2.56 1.47-1.82 1.28h-5.47l1.79-1.28.74-.42zm2.21-6.43h8l-4-2.34zm4 10l-.54.32h1.12zm1.82-13.6l.54-.32h-1.09zM413.46 309.6l1.82-1.28v31l-1.82 1.28zM435.36 334.21l-1.79 1.25-4.22 2.43 2.56 1.47-1.82 1.28h-5.47l1.79-1.28.74-.42-6-3.49v-5.18l1.82-1.25 4.19-2.43-2.53-1.47 1.79-1.28h5.5l-1.82 1.28-.74.42 6 3.49zm-1.79-3.94l-6.24-3.58-4.38 2.56v5l6.21 3.58 4.42-2.56zm-6.24 8.73l-.54.32h1.12zm1.82-13.6l.54-.32h-1.09zM454.6 334.21l-1.79 1.25-4.22 2.43 2.56 1.47-1.82 1.28h-5.47l1.79-1.28.74-.42-6-3.49v-5.18l1.82-1.25 4.19-2.43-2.53-1.47 1.79-1.28h5.5l-1.82 1.28-.74.42 6 3.49zm-1.79-3.94l-6.24-3.58-4.38 2.56v5l6.21 3.58 4.42-2.56zm-6.24 8.73l-.54.32h1.12zm1.82-13.6l.54-.32h-1.09zM474.78 339.36l-1.78 1.28-10.67-6.64v5.34l-1.79 1.28v-31l1.79-1.28v23.29l12.45-7.78-1.78 1.27-10.5 6.56zM479.64 314.75l1.82-1.25v1.5l-1.82 1.28zm0 10.37l1.82-1.28v15.52l-1.82 1.28zM489.65 329.25v10.11l-1.79 1.28v-15.52l1.79-1.28V329l4.22-2.43-2.56-1.47 1.82-1.28h5.47l-1.79 1.28-.74.42 6 3.49v10.34l-1.82 1.28v-10.36l-6.21-3.58zm6.24-3.81l.54-.32h-1.12zM507.47 335.46v-5.18l1.82-1.25 4.19-2.43-2.48-1.48 1.79-1.28h5.5l-1.82 1.28-.74.42 4.22 2.43v-2.85l1.79-1.28v25.89l-1.82 1.27-4.22 2.43 2.56 1.47-1.82 1.28H511l1.79-1.28.74-.42-6-3.49 1.82-1.25 6.21 3.58 4.42-2.56v-15.3l-4.22 2.43 2.56 1.47-1.82 1.28H511l1.79-1.28.74-.42zm12.45-.22v-5l-6.24-3.58-4.38 2.56v5l6.21 3.58zm-6.24 3.76l-.54.32h1.12zm0 15.52l-.54.32h1.12zm1.82-29.12l.54-.32H515zM549.1 308.32l-1.79 1.28-7.17 4.13v10.11h9l-1.79 1.28h-7.17v14.24l-1.79 1.28v-25.89l1.79-1.25zM562.86 334.21l-1.79 1.25-4.22 2.43 2.56 1.47-1.82 1.28h-5.49l1.79-1.28.74-.42-6-3.49v-5.18l1.82-1.25 4.19-2.43-2.53-1.47 1.79-1.28h5.5l-1.82 1.28-.74.42 6 3.49zm-1.79-3.94l-6.24-3.58-4.38 2.56v5l6.21 3.58 4.42-2.56zm-6.25 8.73l-.54.32h1.12zm1.82-13.6l.54-.32h-1.08zM570.39 329.25v10.11l-1.79 1.28v-15.52l1.79-1.28V329l6.78-3.9H576l1.82-1.28h1.5l-1.79 1.28zM237 391.46v-5.18l1.82-1.25 4.19-2.43-2.53-1.47 1.79-1.28h5.5l-1.77 1.27-.74.42 4.22 2.43V365.6l1.79-1.28v31l-1.79 1.28v-5.18l-4.22 2.43 2.56 1.47-1.82 1.32h-5.47l1.79-1.28.74-.42zm12.45-.22v-5l-6.24-3.58-4.38 2.56v5l6.21 3.58zM243.2 395l-.54.32h1.12zm1.82-13.6l.54-.32h-1.09zM271.22 390.21l-1.79 1.25-4.22 2.43 2.56 1.47-1.82 1.28h-5.47l1.79-1.28.74-.42-6-3.49v-5.18l1.82-1.25 4.19-2.43-2.53-1.47 1.79-1.28h5.5l-1.82 1.28-.74.42 6 3.49zm-1.79-3.94l-6.24-3.58-4.38 2.56v5l6.21 3.58 4.42-2.56zm-6.24 8.73l-.54.32h1.12zm1.82-13.6l.54-.32h-1.09zM276.23 391.46v-5.18l1.82-1.25 4.19-2.43-2.53-1.47 1.79-1.28h5.5l-1.82 1.28-.74.42 6 3.49-1.79 1.25h-10.6v3.94l6.21 3.58 6.21-3.58-1.79 1.25-4.22 2.43 2.56 1.47-1.82 1.28h-5.47l1.79-1.28.74-.42zm2.21-6.43h8l-4-2.34zm4 10l-.54.32h1.1zm1.82-13.6l.54-.32h-1.09zM295.13 386.27l1.82-1.25 4.19-2.43-2.53-1.47 1.79-1.28h5.5l-1.82 1.28-.74.42 6 3.49-1.79 1.25-6.24-3.58-4.16 2.43 12.19 5.09-1.79 1.25-4.22 2.43 2.56 1.47-1.82 1.28h-5.47l1.79-1.28.74-.42-6-3.49 1.82-1.25 6.21 3.58 4.19-2.43zm6.21 8.77l-.54.32h1.12zm1.82-13.6l.54-.32h-1.09zM327.41 385.25v10.11l-1.79 1.28v-15.52l1.79-1.28V385l4.22-2.43-2.56-1.47 1.82-1.28h5.47l-1.79 1.28-.74.42 6 3.49v10.34l-1.83 1.29v-10.37l-6.21-3.58zm6.24-3.81l.54-.32h-1.12zM359.48 390.21l-1.79 1.25-4.22 2.43 2.56 1.47-1.82 1.28h-5.47l1.79-1.28.74-.42-6-3.49v-5.18l1.82-1.25 4.19-2.43-2.53-1.47 1.79-1.28H356l-1.82 1.28-.74.42 6 3.49zm-1.79-3.94l-6.24-3.58-4.38 2.56v5l6.21 3.58 4.42-2.56zm-6.24 8.73l-.54.32H352zm1.82-13.6l.54-.32h-1.09zM368 395.36l-1.82 1.28v-15.52h-3.71l1.82-1.28h1.89V365.6l1.82-1.28v15.52h3.71l-1.79 1.28H368zM386.47 391.46v-5.18l1.83-1.28 4.19-2.43-2.49-1.45 1.79-1.28h5.5l-1.82 1.28-.74.42 6 3.49-1.79 1.25H388.3v3.94l6.21 3.58 6.21-3.58-1.79 1.25-4.22 2.43 2.56 1.47-1.82 1.28H390l1.79-1.28.74-.42zm2.21-6.43h8l-4-2.34zm4 10l-.54.32h1.12zm1.82-13.6l.54-.32H394zM418.4 395.36l-1.79 1.28-5.82-7.26-4.8 6-1.79 1.28 6.21-7.78-6.21-7.74 1.79-1.28 5.82 7.26 4.8-6 1.79-1.28-6.21 7.78zM423.47 370.75l1.82-1.25v1.5l-1.82 1.28zm0 10.37l1.82-1.28v15.52l-1.82 1.28zM430.62 386.27l1.82-1.25 4.19-2.43-2.53-1.47 1.79-1.28h5.5l-1.82 1.28-.74.42 6 3.49-1.79 1.25-6.24-3.58-4.16 2.43 12.19 5.09-1.79 1.25-4.22 2.43 2.56 1.47-1.82 1.28h-5.47l1.79-1.28.74-.42-6-3.49 1.82-1.25 6.21 3.58 4.19-2.43zm6.21 8.77l-.54.32h1.12zm1.82-13.6l.54-.32h-1.09zM453.26 395.36l-1.82 1.28v-15.52h-3.71l1.82-1.28h1.89V365.6l1.82-1.28v15.52H457l-1.79 1.28h-1.92zM460.54 395.07l1.79-1.25v1.54l-1.79 1.28z"/></g></svg>