<svg xmlns="http://www.w3.org/2000/svg" viewBox="0 0 700 500"><path fill="#f2f2f2" d="M0 0h700v500H0z" data-name="Ebene 1"/><g data-name="Ebene 2"><path d="M169.56 180a9.69 9.69 0 0 1 2.52-6.58l65.38-70a9.68 9.68 0 0 1 7.14-3.08 9.8 9.8 0 0 1 9.8 9.66v60.2h12a9.8 9.8 0 0 1 0 19.6h-12V250a9.92 9.92 0 0 1-9.8 9.8 9.8 9.8 0 0 1-9.66-9.8v-60.2h-55.72a9.89 9.89 0 0 1-9.66-9.8zm65.38-45.36l-33.32 35.56h33.32zM376.85 256.86a10.73 10.73 0 0 1-6.85 2.94h-40.47a10.33 10.33 0 0 1-6.86-2.94l-23.38-23.38a10.54 10.54 0 0 1-2.8-6.86v-93.24a10.22 10.22 0 0 1 2.8-6.86l23.38-23.38a10.73 10.73 0 0 1 6.86-2.94H370a10.33 10.33 0 0 1 6.86 2.94l23.38 23.38a10.54 10.54 0 0 1 2.8 6.86v93.24a10.23 10.23 0 0 1-2.8 6.86zm6.72-119.56l-17.5-17.5h-32.48l-17.64 17.5v85.4l17.64 17.5h32.48l17.5-17.5zM423.48 180a9.69 9.69 0 0 1 2.52-6.58l65.38-70a9.68 9.68 0 0 1 7.14-3.08 9.8 9.8 0 0 1 9.8 9.66v60.2h12a9.8 9.8 0 0 1 0 19.6h-12V250a9.92 9.92 0 0 1-9.8 9.8 9.8 9.8 0 0 1-9.66-9.8v-60.2h-55.72a9.89 9.89 0 0 1-9.66-9.8zm65.38-45.36l-33.32 35.56h33.32zM48.63 312v12h3.28a2 2 0 0 1 0 3.92h-3.28v12a2 2 0 0 1-1.93 2 2 2 0 0 1-2-2V328h-3.21a2 2 0 1 1 0-3.92h3.25V312a2 2 0 0 1 2-2 2 2 0 0 1 1.89 2zM61.57 312v14l1.34-1.34a2.14 2.14 0 0 1 1.37-.59h8.09a2.07 2.07 0 0 1 1.37.59l4.68 4.68a2.11 2.11 0 0 1 .56 1.37V340a2 2 0 0 1-1.93 2 2 2 0 0 1-2-2v-8.54L71.57 328H65.1l-3.53 3.5v8.5a2 2 0 0 1-2 2 2 2 0 0 1-1.93-2v-28a2 2 0 0 1 1.93-2 2 2 0 0 1 2 2zM104.59 335.32a2 2 0 0 1-.56 1.37l-4.65 4.68A2.07 2.07 0 0 1 98 342h-8.11a2.14 2.14 0 0 1-1.37-.59l-4.65-4.68a2.07 2.07 0 0 1-.59-1.37v-4.65a2.07 2.07 0 0 1 .59-1.37l4.65-4.68a2.07 2.07 0 0 1 1.37-.59H98a2.14 2.14 0 0 1 1.37.59l4.63 4.64a1.92 1.92 0 0 1-1.37 3.3H87.18v1.93L90.7 338h6.5l4.09-4.09a1.94 1.94 0 0 1 3.3 1.37zM97.2 328h-6.5l-.76.76h8zM126.57 354a2 2 0 0 1-2 2 2 2 0 0 1-1.93-2v-28a2 2 0 0 1 1.93-2 2 2 0 0 1 2 1.93l1.34-1.34a2.14 2.14 0 0 1 1.37-.59h8.09a2.07 2.07 0 0 1 1.37.59l4.68 4.68a2.11 2.11 0 0 1 .56 1.37v4.65a2 2 0 0 1-.56 1.37l-4.68 4.68a2.14 2.14 0 0 1-1.37.59h-8.09a2.07 2.07 0 0 1-1.37-.59l-1.34-1.34zm3.53-16h6.5l3.5-3.5v-3.08l-3.5-3.5h-6.5l-3.53 3.5v3.08zM169.44 326v14a1.95 1.95 0 0 1-3.89 0l-1.34 1.34a2.14 2.14 0 0 1-1.37.59h-8.12a2.07 2.07 0 0 1-1.37-.59l-4.65-4.68a2.15 2.15 0 0 1-.59-1.37v-4.65a2.07 2.07 0 0 1 .59-1.37l4.65-4.68a2.14 2.14 0 0 1 1.37-.59h8.12a2.07 2.07 0 0 1 1.37.59l1.34 1.34a1.95 1.95 0 0 1 3.89 0zm-7.44 2h-6.5l-3.53 3.5v3.08l3.53 3.5h6.5l3.53-3.5v-3.08zM176.15 347.39a2 2 0 0 1 1.37.56l4.09 4.09h6.5l3.53-3.5V340l-1.34 1.34a2.07 2.07 0 0 1-1.37.59h-8.12a2.14 2.14 0 0 1-1.37-.59l-4.65-4.68a2.07 2.07 0 0 1-.59-1.37v-4.65a2.15 2.15 0 0 1 .59-1.37l4.65-4.68a2.07 2.07 0 0 1 1.37-.59h8.12a2.14 2.14 0 0 1 1.37.59l1.34 1.34a1.95 1.95 0 0 1 3.89 0v23.32a2.07 2.07 0 0 1-.59 1.37l-4.65 4.68a2.14 2.14 0 0 1-1.37.59h-8.12a2.07 2.07 0 0 1-1.37-.59l-4.65-4.68a1.94 1.94 0 0 1 1.37-3.3zm12-19.43h-6.5l-3.53 3.5v3.08l3.53 3.5h6.5l3.53-3.5v-3.08zM221.58 335.32a2 2 0 0 1-.56 1.37l-4.65 4.68a2.07 2.07 0 0 1-1.37.63h-8.12a2.14 2.14 0 0 1-1.37-.59l-4.65-4.68a2.07 2.07 0 0 1-.59-1.37v-4.65a2.07 2.07 0 0 1 .59-1.37l4.65-4.68a2.07 2.07 0 0 1 1.37-.59H215a2.14 2.14 0 0 1 1.37.59l4.63 4.64a1.92 1.92 0 0 1-1.37 3.3h-15.47v1.93l3.53 3.5h6.5l4.09-4.09a1.94 1.94 0 0 1 3.3 1.37zm-7.39-7.32h-6.5l-.76.76h8zM239.5 324.07a2 2 0 0 1 1.68.9l7.06 11.34 7.05-11.31a1.95 1.95 0 0 1 3.58 1 2 2 0 0 1-.28 1l-17.42 28a2 2 0 0 1-1.68.9 1.93 1.93 0 0 1-1.93-1.93 2 2 0 0 1 .31-1l8.06-13-8.06-13a2 2 0 0 1-.31-1 1.93 1.93 0 0 1 1.94-1.9zM282.58 330.68v4.65a2.15 2.15 0 0 1-.59 1.37l-4.65 4.68a2.07 2.07 0 0 1-1.34.62h-8.12a2.14 2.14 0 0 1-1.37-.59l-4.65-4.68a2.07 2.07 0 0 1-.59-1.37v-4.65a2.15 2.15 0 0 1 .59-1.37l4.65-4.68a2.07 2.07 0 0 1 1.37-.59H276a2.14 2.14 0 0 1 1.37.59l4.63 4.64a2.07 2.07 0 0 1 .58 1.38zm-7.42-2.68h-6.5l-3.53 3.5v3.08l3.53 3.5h6.5l3.53-3.5v-3.08zM290.83 326v8.54l3.53 3.5h6.5l3.53-3.5V326a2 2 0 0 1 1.93-2 2 2 0 0 1 2 2v9.32a2.15 2.15 0 0 1-.59 1.37l-4.73 4.68a2.07 2.07 0 0 1-1.37.59h-8.12a2.14 2.14 0 0 1-1.37-.59l-4.65-4.68a2.07 2.07 0 0 1-.59-1.37V326a2 2 0 0 1 2-2 2 2 0 0 1 1.93 2zM326.69 324.07a1.93 1.93 0 0 1 1.82 1.26l3.42 9.1 3.42-9.1a1.94 1.94 0 0 1 3.64 0l3.42 9.1 3.42-9.1a1.94 1.94 0 0 1 3.75.7 1.73 1.73 0 0 1-.11.64l-5.24 14a1.94 1.94 0 0 1-3.64 0l-3.42-9.1-3.42 9.1a1.94 1.94 0 0 1-3.64 0l-5.24-14a1.73 1.73 0 0 1-.11-.64 1.94 1.94 0 0 1 1.93-1.96zM373.83 335.32a2 2 0 0 1-.56 1.37l-4.65 4.68a2.07 2.07 0 0 1-1.37.59h-8.12a2.14 2.14 0 0 1-1.37-.59l-4.65-4.68a2.07 2.07 0 0 1-.59-1.37v-4.65a2.07 2.07 0 0 1 .59-1.37l4.65-4.68a2.07 2.07 0 0 1 1.37-.59h8.12a2.14 2.14 0 0 1 1.37.59l4.65 4.68a1.92 1.92 0 0 1-1.37 3.3h-15.49v1.93l3.53 3.5h6.5l4.09-4.09a1.94 1.94 0 0 1 3.3 1.37zm-7.39-7.32h-6.5l-.76.76h8zM382.36 340a2 2 0 0 1-2 2 2 2 0 0 1-1.93-2v-14a2 2 0 0 1 1.93-2 2 2 0 0 1 2 1.93l1.34-1.34a2.14 2.14 0 0 1 1.37-.59h5.77a2 2 0 0 1 0 3.92h-5l-3.53 3.5zM416.43 335.32a2 2 0 0 1-.56 1.37l-4.65 4.68a2.07 2.07 0 0 1-1.37.59h-8.12a2.14 2.14 0 0 1-1.37-.59l-4.65-4.68a2.07 2.07 0 0 1-.59-1.37v-4.65a2.07 2.07 0 0 1 .59-1.37l4.65-4.68a2.07 2.07 0 0 1 1.37-.59h8.12a2.14 2.14 0 0 1 1.37.59l4.65 4.68a1.92 1.92 0 0 1-1.37 3.3H399v1.93l3.53 3.5H409l4.09-4.09a1.94 1.94 0 0 1 3.3 1.37zM409 328h-6.5l-.76.76h8zM435 340v-28a2 2 0 0 1 2-2 2 2 0 0 1 1.93 2v28a2 2 0 0 1-1.93 2 2 2 0 0 1-2-2zM465.11 330.68v4.65a2.15 2.15 0 0 1-.59 1.37l-4.65 4.68a2.07 2.07 0 0 1-1.37.59h-8.12a2.14 2.14 0 0 1-1.37-.59l-4.65-4.68a2.07 2.07 0 0 1-.59-1.37v-4.65a2.15 2.15 0 0 1 .59-1.37l4.65-4.68a2.07 2.07 0 0 1 1.37-.59h8.12a2.14 2.14 0 0 1 1.37.59l4.65 4.68a2.07 2.07 0 0 1 .59 1.37zm-7.42-2.68h-6.5l-3.53 3.5v3.08l3.53 3.5h6.5l3.53-3.5v-3.08zM490.56 330.68v4.65a2.15 2.15 0 0 1-.59 1.37l-4.65 4.68a2.07 2.07 0 0 1-1.32.62h-8.12a2.14 2.14 0 0 1-1.37-.59l-4.65-4.68a2.07 2.07 0 0 1-.59-1.37v-4.65a2.15 2.15 0 0 1 .59-1.37l4.65-4.68a2.07 2.07 0 0 1 1.37-.59H484a2.14 2.14 0 0 1 1.37.59l4.63 4.64a2.07 2.07 0 0 1 .56 1.38zm-7.42-2.68h-6.5l-3.53 3.5v3.08l3.53 3.5h6.5l3.53-3.5v-3.08zM516.89 326a1.94 1.94 0 0 1-1.2 1.82L502.75 333l12.94 5.21a1.94 1.94 0 0 1 1.2 1.82 1.92 1.92 0 0 1-2 1.9 2 2 0 0 1-.7-.14l-14.76-5.91V340a2 2 0 0 1-2 2 2 2 0 0 1-1.93-2v-28a2 2 0 0 1 1.93-2 2 2 0 0 1 2 2v18.12l14.76-5.91a2.08 2.08 0 0 1 .7-.14 1.92 1.92 0 0 1 2 1.93zM520.83 318.08v-1.4a2 2 0 0 1 1.93-2 2 2 0 0 1 2 2v1.4a2 2 0 0 1-2 1.93 1.94 1.94 0 0 1-1.93-1.93zm0 21.92v-14a2 2 0 0 1 1.93-2 2 2 0 0 1 2 2v14a2 2 0 0 1-2 2 2 2 0 0 1-1.93-2zM530.12 326a2 2 0 0 1 1.93-2 2 2 0 0 1 2 1.93l1.34-1.34a2.14 2.14 0 0 1 1.37-.59h8.09a2.07 2.07 0 0 1 1.37.59l4.68 4.68a2.11 2.11 0 0 1 .56 1.37V340a2 2 0 0 1-1.93 2 2 2 0 0 1-2-2v-8.54L544 328h-6.5l-3.53 3.5v8.5a2 2 0 0 1-2 2 2 2 0 0 1-1.93-2zM557.68 347.39a2 2 0 0 1 1.37.56l4.09 4.09h6.5l3.53-3.5V340l-1.34 1.34a2.07 2.07 0 0 1-1.37.59h-8.12a2.14 2.14 0 0 1-1.37-.59l-4.65-4.68a2.07 2.07 0 0 1-.59-1.37v-4.65a2.15 2.15 0 0 1 .59-1.37l4.65-4.68a2.07 2.07 0 0 1 1.37-.59h8.12a2.14 2.14 0 0 1 1.37.59l1.34 1.34a1.95 1.95 0 0 1 3.89 0v23.32a2.07 2.07 0 0 1-.59 1.37l-4.65 4.68a2.14 2.14 0 0 1-1.37.59h-8.12a2.07 2.07 0 0 1-1.37-.59l-4.65-4.68a1.94 1.94 0 0 1 1.37-3.3zm12-19.43h-6.5l-3.53 3.5v3.08l3.53 3.5h6.5l3.53-3.5v-3.08zM604.16 312a2 2 0 0 1-.56 1.37l-4.09 4.09V324h2.72a2 2 0 1 1 0 3.92h-2.72v12a2 2 0 0 1-2 2 2 2 0 0 1-1.93-2v-23.24a2.11 2.11 0 0 1 .56-1.37l4.68-4.68a1.94 1.94 0 0 1 3.3 1.37zM627.48 330.68v4.65a2.15 2.15 0 0 1-.59 1.37l-4.65 4.68a2.07 2.07 0 0 1-1.37.59h-8.12a2.14 2.14 0 0 1-1.37-.59l-4.65-4.68a2.07 2.07 0 0 1-.59-1.37v-4.65a2.15 2.15 0 0 1 .59-1.37l4.65-4.68a2.07 2.07 0 0 1 1.37-.59h8.12a2.14 2.14 0 0 1 1.37.59l4.65 4.68a2.07 2.07 0 0 1 .59 1.37zm-7.42-2.68h-6.5l-3.53 3.5v3.08l3.53 3.5h6.5l3.53-3.5v-3.08zM636.14 340a2 2 0 0 1-2 2 2 2 0 0 1-1.93-2v-14a2 2 0 0 1 1.93-2 2 2 0 0 1 2 1.93l1.34-1.34a2.14 2.14 0 0 1 1.37-.59h5.77a2 2 0 0 1 0 3.92h-5l-3.53 3.5zM222.18 368v28a1.95 1.95 0 0 1-3.89 0l-1.34 1.34a2.07 2.07 0 0 1-1.37.59h-8.12a2.14 2.14 0 0 1-1.37-.59l-4.65-4.68a2.07 2.07 0 0 1-.59-1.37v-4.65a2.15 2.15 0 0 1 .59-1.37l4.65-4.68a2.07 2.07 0 0 1 1.37-.59h8.12a2.14 2.14 0 0 1 1.37.59l1.34 1.34V368a2 2 0 0 1 1.93-2 2 2 0 0 1 1.96 2zm-7.42 16h-6.5l-3.53 3.5v3.08l3.53 3.5h6.5l3.53-3.5v-3.08zM248.27 386.68v4.65a2.15 2.15 0 0 1-.59 1.37l-4.68 4.67a2.07 2.07 0 0 1-1.37.59h-8.12a2.14 2.14 0 0 1-1.37-.59l-4.65-4.68a2.07 2.07 0 0 1-.59-1.37v-4.65a2.15 2.15 0 0 1 .59-1.37l4.65-4.68a2.07 2.07 0 0 1 1.37-.59h8.12a2.14 2.14 0 0 1 1.37.59l4.65 4.68a2.07 2.07 0 0 1 .62 1.38zm-7.42-2.68h-6.5l-3.53 3.5v3.08l3.53 3.5h6.5l3.53-3.5v-3.08zM273.69 391.32a2 2 0 0 1-.56 1.37l-4.65 4.68a2.07 2.07 0 0 1-1.37.59H259a2.14 2.14 0 0 1-1.37-.59L253 392.7a2.07 2.07 0 0 1-.59-1.37v-4.65a2.07 2.07 0 0 1 .59-1.37l4.65-4.68A2.07 2.07 0 0 1 259 380h8.12a2.14 2.14 0 0 1 1.37.59l4.65 4.68a1.92 1.92 0 0 1-1.37 3.3h-15.5v1.93l3.53 3.5h6.5l4.09-4.09a1.94 1.94 0 0 1 3.3 1.37zm-7.4-7.32h-6.5l-.76.76h8zM297.19 388.61a2 2 0 0 1-1.37-.56l-4.09-4.05h-6.5l-1.71 1.71 14.17 3.78a2 2 0 0 1 .87 3.25l-4.65 4.68a2.14 2.14 0 0 1-1.37.59h-8.12a2.07 2.07 0 0 1-1.37-.59l-4.65-4.68a1.94 1.94 0 0 1 2.74-2.74l4.09 4.09h6.5l1.71-1.71-14.17-3.78a2 2 0 0 1-1.43-1.88 2 2 0 0 1 .56-1.37l4.65-4.68a2.07 2.07 0 0 1 1.37-.59h8.12a2.14 2.14 0 0 1 1.37.59l4.65 4.68a1.94 1.94 0 0 1-1.37 3.3zM317.21 382a2 2 0 0 1 1.93-2 2 2 0 0 1 2 1.93l1.34-1.34a2.14 2.14 0 0 1 1.37-.59h8.09a2.07 2.07 0 0 1 1.37.59l4.69 4.71a2.11 2.11 0 0 1 .56 1.37V396a2 2 0 0 1-1.93 2 2 2 0 0 1-2-2v-8.54l-3.5-3.5h-6.5l-3.53 3.5V396a2 2 0 0 1-2 2 2 2 0 0 1-1.93-2zM364.15 386.68v4.65a2.15 2.15 0 0 1-.59 1.37l-4.65 4.68a2.07 2.07 0 0 1-1.37.59h-8.12a2.14 2.14 0 0 1-1.37-.59l-4.65-4.68a2.07 2.07 0 0 1-.59-1.37v-4.65a2.15 2.15 0 0 1 .59-1.37l4.65-4.68a2.07 2.07 0 0 1 1.37-.59h8.12a2.14 2.14 0 0 1 1.37.59l4.65 4.68a2.07 2.07 0 0 1 .59 1.37zm-7.42-2.68h-6.5l-3.53 3.5v3.08l3.53 3.5h6.5l3.53-3.5v-3.08zM375.36 368v12h3.28a2 2 0 0 1 0 3.92h-3.28v12a2 2 0 0 1-1.93 2 2 2 0 0 1-2-2V384h-3.25a2 2 0 1 1 0-3.92h3.25V368a2 2 0 0 1 2-2 2 2 0 0 1 1.93 2zM417.84 391.32a2 2 0 0 1-.56 1.37l-4.65 4.68a2.07 2.07 0 0 1-1.37.59h-8.12a2.14 2.14 0 0 1-1.37-.59l-4.65-4.68a2.07 2.07 0 0 1-.59-1.37v-4.65a2.07 2.07 0 0 1 .59-1.37l4.65-4.68a2.07 2.07 0 0 1 1.37-.59h8.12a2.14 2.14 0 0 1 1.37.59l4.65 4.68a1.92 1.92 0 0 1-1.37 3.3h-15.49v1.93l3.53 3.5h6.5l4.09-4.09a1.94 1.94 0 0 1 3.3 1.37zm-7.39-7.32h-6.5l-.76.76h8zM422.56 380.07a2 2 0 0 1 1.23.42l7.48 6 7.5-6a1.94 1.94 0 1 1 2.44 3l-6.83 5.51 6.83 5.49a1.94 1.94 0 0 1-2.44 3l-7.5-6-7.48 6a2 2 0 0 1-1.23.42 1.95 1.95 0 0 1-1.23-3.44l6.83-5.49-6.83-5.49a1.95 1.95 0 0 1 1.23-3.44zM446.12 374.08v-1.4a2 2 0 0 1 1.93-2 2 2 0 0 1 2 2v1.4a2 2 0 0 1-2 1.93 1.94 1.94 0 0 1-1.93-1.93zm0 21.92v-14a2 2 0 0 1 1.93-2 2 2 0 0 1 2 2v14a2 2 0 0 1-2 2 2 2 0 0 1-1.93-2zM474 388.61a2 2 0 0 1-1.37-.56l-4.1-4.05H462l-1.71 1.71 14.17 3.78a2 2 0 0 1 .87 3.25l-4.65 4.68a2.14 2.14 0 0 1-1.37.59h-8.12a2.07 2.07 0 0 1-1.37-.59l-4.65-4.68A1.94 1.94 0 0 1 458 390l4 4h6.5l1.71-1.71-14.17-3.78a2 2 0 0 1-1.43-1.88 2 2 0 0 1 .56-1.37l4.65-4.68a2.07 2.07 0 0 1 1.37-.59h8.12a2.14 2.14 0 0 1 1.37.59l4.65 4.68a1.94 1.94 0 0 1-1.37 3.3zM487.17 368v12h3.28a2 2 0 0 1 0 3.92h-3.28v12a2 2 0 0 1-1.93 2 2 2 0 0 1-2-2V384H480a2 2 0 0 1 0-3.92h3.25V368a2 2 0 0 1 2-2 2 2 0 0 1 1.92 2zM494.34 396v-1.4a2 2 0 0 1 2-2 2 2 0 0 1 1.93 2v1.4a2 2 0 0 1-1.93 2 2 2 0 0 1-2-2z"/></g></svg>