<svg xmlns="http://www.w3.org/2000/svg" viewBox="0 0 700 500"><path fill="#f2f2f2" d="M0 0h700v500H0z" data-name="Ebene 1"/><g data-name="Ebene 2"><path d="M251 248.6l-10.92 2.8v-70h-65.24l65.24-70 10.92-2.8v70h21.7l-10.78 2.8H251zm-65.38-70h54.46v-58.52zM372.93 108.6l25.9 23.24v93.38l-25.9 23.38-10.93 2.8h-35.27l-25.9-23.24v-93.38l25.9-23.38 10.78-2.8zm15 119.56v-93.38L362 111.4h-27.71l-22.68 20.44v93.38l25.9 23.38h27.72zM503 248.6l-10.92 2.8v-70h-65.2l65.24-70 10.88-2.8v70h21.7l-10.7 2.8h-11zm-65.38-70h54.46v-58.52zM49.38 339.72l-2.16.56v-14H42l2.16-.56h3.05v-13.44l2.16-.56v14h5.24l-2.18.56h-3.05zM62.29 330.37v9.35l-2.16.56v-28l2.16-.56V329l3-2.72 2.16-.56h7.06l5.18 4.65v9.35l-2.16.56V331l-5.18-4.68h-5.53zM90.93 340.28l-5.18-4.65V331l5.18-4.68 2.16-.56h7.08l5.18 4.65-2.16.59H87.91v4l5.18 4.68h5.54l4.56-4.09 2.16-.59-5.18 4.68-2.18.56zm-3-9.91h14.64L98 326.28h-5.55zM130.33 340.28l-3-2.72v16.16l-2.16.56v-28l2.16-.56V329l3-2.72 2.16-.56h7.08l5.18 4.65V335l-5.18 4.68-2.18.56zm-3-9.91V335l5.18 4.68H138l4.54-4.09V331l-5.18-4.68h-5.54zM165 325.72l3 2.72v-2.16l2.16-.56v14l-2.16.56V337l-3 2.72-2.18.56h-7.06l-5.18-4.65V331l5.18-4.68 2.16-.56zm3 9.91V331l-5.21-4.68h-5.54l-4.54 4.09V335l5.18 4.68h5.54zM181.78 340.28l-5.18-4.65V331l5.18-4.68 2.16-.56H191l3 2.72v-2.16l2.16-.56V349l-5.16 4.72-2.18.56h-7.06l-5.18-4.65 2.16-.59 5.18 4.68h5.54l4.56-4.09V337l-3 2.72-2.18.56zm12.22-4.65V331l-5.21-4.68h-5.54l-4.54 4.09V335l5.18 4.68h5.54zM207.84 340.28l-5.18-4.65V331l5.18-4.68 2.16-.56h7.08l5.18 4.65-2.16.59h-15.29v4l5.18 4.68h5.54l4.56-4.09 2.16-.59-5.18 4.68-2.18.56zm-3-9.91h14.64l-4.56-4.09h-5.54zM257.37 326.28l2.18-.56c-5.8 9.32-11.65 18.68-17.44 28l-2.16.56 8.71-14-8.71-14 2.16-.56 7.81 12.54zM282.64 335l-5.18 4.68-2.18.56h-7.06l-5.22-4.61V331l5.18-4.68 2.16-.56h7.08l5.18 4.65zm-2.16.59V331l-5.21-4.68h-5.54l-4.54 4.09V335l5.18 4.68h5.54zM290.85 335l5.18 4.68h5.54l4.56-4.09v-9.35l2.16-.56V335l-5.18 4.68-2.18.56h-7.06l-5.18-4.65v-9.35l2.16-.56zM333.92 339.72l-2.18.56-5.21-14 2.16-.56 4.26 11.4 4-10.84 2.18-.56 4.26 11.4 4-10.84 2.16-.56-5.21 14-2.18.56-4.26-11.4zM359.15 340.28l-5.15-4.65V331l5.18-4.68 2.16-.56h7.08l5.18 4.65-2.16.59h-15.31v4l5.18 4.68h5.54l4.56-4.09 2.16-.59-5.18 4.68-2.18.56zm-3-9.91h14.64l-4.56-4.09h-5.54zM381.86 330.37v9.35l-2.16.56v-14l2.16-.56V329l3-2.72 2.16-.56h5.26l-2.18.56h-3.72zM400.47 340.28l-5.18-4.65V331l5.18-4.68 2.16-.56h7.08l5.18 4.65-2.16.59h-15.29v4l5.18 4.68h5.54l4.56-4.09 2.16-.59-5.18 4.68-2.18.56zm-3-9.91h14.64l-4.56-4.09H402zM435.13 312.28l2.16-.56v28l-2.16.56zM463.52 335l-5.18 4.68-2.18.56h-7.06l-5.18-4.65V331l5.18-4.68 2.16-.56h7.08l5.18 4.65zm-2.16.59V331l-5.21-4.68h-5.54l-4.54 4.09V335l5.18 4.68h5.54zM488.92 335l-5.18 4.68-2.18.56h-7.06l-5.18-4.65V331l5.18-4.68 2.16-.56h7.08l5.18 4.65zm-2.16.59V331l-5.21-4.68H476l-4.54 4.09V335l5.18 4.68h5.54zM495.65 312.28l2.16-.56v20.69l15.26-6.13 2.16-.56-17.42 7 17.42 7-2.16.56-15.26-6.13v5.57l-2.16.56zM520.85 317l2.16-.59v1.4l-2.16.59zm0 9.32l2.16-.56v14l-2.16.56zM532.32 330.37v9.35l-2.16.56v-14l2.16-.56V329l3-2.72 2.16-.56h7.08l5.18 4.65v9.35l-2.18.56V331l-5.18-4.68h-5.54zM561 340.28l-5.18-4.65V331l5.18-4.68 2.16-.56h7.08l3 2.72v-2.16l2.16-.56V349l-5.18 4.68-2.18.56H561l-5.18-4.65L558 349l5.18 4.68h5.54l4.56-4.09V337l-3 2.72-2.18.56zm12.26-4.65V331l-5.26-4.72h-5.5l-4.5 4.09V335l5.18 4.68h5.54zM597.86 316.37v9.35H603l-2.16.56h-3v13.44l-2.16.56V317l5.18-4.68 2.16-.56zM625 335l-5.18 4.68-2.18.56h-7.06l-5.18-4.65V331l5.18-4.68 2.16-.56h7.08l5.18 4.65zm-2.16.59V331l-5.21-4.68h-5.54l-4.54 4.09V335l5.18 4.68h5.54zM633.66 330.37v9.35l-2.16.56v-14l2.16-.56V329l3-2.72 2.16-.56h5.26l-2.18.56h-3.72zM208.1 396.28l-5.18-4.65V387l5.18-4.68 2.16-.56h7.08l3 2.72v-16.2l2.16-.56v28l-2.16.56V393l-3 2.72-2.18.56zm12.26-4.65V387l-5.21-4.68h-5.54l-4.54 4.09V391l5.18 4.68h5.54zM248.58 391l-5.18 4.68-2.18.56h-7.06l-5.16-4.61V387l5.18-4.68 2.16-.56h7.08l5.18 4.65zm-2.16.59V387l-5.21-4.68h-5.54l-4.54 4.09V391l5.18 4.68h5.54zM259.56 396.28l-5.18-4.65V387l5.18-4.68 2.16-.56h7.08l5.18 4.65-2.16.59h-15.28v4l5.18 4.68h5.54l4.56-4.09L274 391l-5.18 4.68-2.18.56zm-3-9.91h14.64l-4.56-4.09h-5.54zM291.95 382.28h-5.55l-4.54 4.09 17.45 4.63-5.18 4.68-2.18.56h-7.06l-5.18-4.65 2.16-.59 5.18 4.68h5.54l4.56-4.09-17.44-4.59 5.18-4.68 2.16-.56h7.08l5.18 4.65-2.16.59zM321.26 386.37v9.35l-2.16.56v-14l2.16-.56V385l3-2.72 2.16-.56h7.08l5.18 4.65v9.35l-2.18.56V387l-5.18-4.68h-5.52zM364.35 391l-5.18 4.68-2.18.56h-7.06l-5.18-4.65V387l5.18-4.68 2.16-.56h7.08l5.18 4.65zm-2.16.59V387l-5.19-4.72h-5.54l-4.54 4.09V391l5.18 4.68h5.54zM375 395.72l-2.16.56v-14h-5.21l2.16-.56h3.05v-13.44l2.16-.56v14h5.24l-2.18.56H375zM403.11 396.28l-5.18-4.65V387l5.18-4.68 2.16-.56h7.08l5.18 4.65-2.16.59h-15.28v4l5.18 4.68h5.54l4.56-4.09 2.16-.59-5.18 4.68-2.18.56zm-3-9.91h14.64l-4.56-4.09h-5.54zM441 395.72l-2.16.56-8-6.41-7.25 5.85-2.18.56 8.74-7-8.74-7 2.18-.56 8 6.41 7.28-5.85 2.16-.56-8.71 7zM446.88 373l2.16-.59v1.4l-2.16.59zm0 9.32l2.16-.56v14l-2.16.56zM467.41 382.28h-5.54l-4.54 4.09 17.45 4.63-5.18 4.68-2.18.56h-7.06l-5.18-4.65 2.16-.59 5.18 4.68h5.54l4.56-4.09-17.44-4.59 5.18-4.68 2.16-.56h7.08l5.18 4.65-2.16.59zM485.45 395.72l-2.16.56v-14h-5.21l2.16-.56h3.05v-13.44l2.16-.56v14h5.24l-2.18.56h-3.05zM494 394.88l2.16-.56v1.4l-2.16.56z"/></g></svg>