<svg xmlns="http://www.w3.org/2000/svg" viewBox="0 0 700 500"><path fill="#f2f2f2" d="M0 0h700v500H0z" data-name="Ebene 1"/><g data-name="Ebene 2"><path d="M268 177.9a2.1 2.1 0 1 1 0 4.2h-19.73V250a2.1 2.1 0 0 1-4.2 0v-67.9h-63.28a2.15 2.15 0 0 1-2.1-2.1 2 2 0 0 1 .56-1.4l65.38-70a2.25 2.25 0 0 1 1.54-.7 2.06 2.06 0 0 1 2.1 2.1v67.9zm-23.94-62.58l-58.37 62.58h58.38zM371.48 251.54a2.33 2.33 0 0 1-1.54.56h-40.46a2.14 2.14 0 0 1-1.4-.56l-23.38-23.38a2.33 2.33 0 0 1-.56-1.54v-93.24a2.55 2.55 0 0 1 .56-1.54l23.38-23.38a2 2 0 0 1 1.4-.56h40.46a2.55 2.55 0 0 1 1.54.56l23.38 23.38a2.33 2.33 0 0 1 .56 1.54v93.24a2.55 2.55 0 0 1-.56 1.54zm19.74-117.32L369.1 112.1h-38.78l-22 22.12v91.56l22 22.12h38.78l22.12-22.12zM518.79 177.9a2.1 2.1 0 1 1 0 4.2H499V250a2.1 2.1 0 0 1-4.2 0v-67.9h-63.23a2.15 2.15 0 0 1-2.1-2.1 2 2 0 0 1 .56-1.4l65.38-70a2.25 2.25 0 0 1 1.54-.7A2.06 2.06 0 0 1 499 110v67.9zm-23.94-62.58l-58.38 62.58h58.38zM48.61 312v13.58h4.79a.42.42 0 0 1 0 .84h-4.79V340a.42.42 0 1 1-.84 0v-13.58H43a.42.42 0 0 1 0-.84h4.79V312a.42.42 0 1 1 .84 0zM61.47 312v17.64l3.95-3.95a.47.47 0 0 1 .31-.11h8.09a.51.51 0 0 1 .31.11l4.65 4.68a.51.51 0 0 1 .14.31V340a.42.42 0 1 1-.84 0v-9.16l-4.42-4.42H65.9l-4.42 4.42V340a.42.42 0 1 1-.84 0v-28a.42.42 0 1 1 .84 0zM104 331.1H87v4.06l4.42 4.42h7.73l4.56-4.54a.44.44 0 0 1 .28-.14.46.46 0 0 1 .42.45.4.4 0 0 1-.11.28l-4.68 4.68a.43.43 0 0 1-.28.11h-8.08a.4.4 0 0 1-.28-.11l-4.68-4.68a.51.51 0 0 1-.11-.31v-4.65a.51.51 0 0 1 .11-.31l4.7-4.67a.42.42 0 0 1 .28-.11h8.12a.4.4 0 0 1 .28.11l4.68 4.68a.36.36 0 0 1 .11.28.42.42 0 0 1-.47.45zm-4.82-4.68h-7.72l-3.84 3.84H103zM126.43 326v3.64l3.95-3.95a.4.4 0 0 1 .28-.11h8.09a.51.51 0 0 1 .31.11l4.68 4.68a.47.47 0 0 1 .11.31v4.65a.51.51 0 0 1-.11.31l-4.68 4.68a.47.47 0 0 1-.31.11h-8.09a.43.43 0 0 1-.28-.11l-3.95-3.95V354a.46.46 0 0 1-.45.42.41.41 0 0 1-.39-.42v-28a.41.41 0 0 1 .39-.42.46.46 0 0 1 .45.42zm4.4 13.58h7.76l4.42-4.42v-4.31l-4.42-4.42h-7.76l-4.4 4.42v4.31zM169.2 326v14a.42.42 0 1 1-.84 0v-3.64l-3.95 3.95a.4.4 0 0 1-.28.11H156a.42.42 0 0 1-.28-.11l-4.68-4.68a.47.47 0 0 1-.11-.31v-4.65a.51.51 0 0 1 .11-.31l4.68-4.68a.4.4 0 0 1 .28-.11h8.12a.42.42 0 0 1 .28.11l3.95 3.95V326a.42.42 0 1 1 .84 0zm-5.26.42h-7.73l-4.42 4.42v4.31l4.42 4.42h7.73l4.42-4.42v-4.31zM195.21 326v23.32a.51.51 0 0 1-.11.31l-4.68 4.68a.4.4 0 0 1-.28.11H182a.42.42 0 0 1-.28-.11l-4.68-4.68a.4.4 0 0 1-.11-.28.46.46 0 0 1 .42-.45.45.45 0 0 1 .28.14l4.56 4.54h7.73l4.42-4.42v-12.8l-3.95 3.95a.43.43 0 0 1-.28.11H182a.4.4 0 0 1-.28-.11l-4.68-4.68a.51.51 0 0 1-.11-.31v-4.65a.46.46 0 0 1 .11-.31l4.68-4.68a.42.42 0 0 1 .28-.11h8.12a.4.4 0 0 1 .28.11l3.95 3.95V326a.42.42 0 0 1 .84 0zm-5.26.42h-7.73l-4.42 4.42v4.31l4.42 4.42h7.73l4.42-4.42v-4.31zM220.77 331.1h-17v4.06l4.42 4.42h7.73l4.56-4.54a.44.44 0 0 1 .28-.14.46.46 0 0 1 .42.45.4.4 0 0 1-.11.28l-4.68 4.68a.42.42 0 0 1-.28.11H208a.4.4 0 0 1-.28-.11l-4.68-4.68a.51.51 0 0 1-.11-.31v-4.65a.51.51 0 0 1 .11-.31l4.68-4.68a.42.42 0 0 1 .28-.11h8.12a.4.4 0 0 1 .28.11l4.68 4.68a.36.36 0 0 1 .11.28.42.42 0 0 1-.42.46zm-4.82-4.68h-7.73l-3.84 3.84h15.4zM240.23 326a.46.46 0 0 1 .45-.42.4.4 0 0 1 .34.2l8.37 13.44 8.34-13.44a.4.4 0 0 1 .34-.2.46.46 0 0 1 .45.42.38.38 0 0 1-.06.22l-17.44 28a.4.4 0 0 1-.34.2.46.46 0 0 1-.45-.42.45.45 0 0 1 .08-.22l8.57-13.78-8.57-13.78a.45.45 0 0 1-.08-.22zM281.83 330.68v4.65a.47.47 0 0 1-.11.31l-4.72 4.67a.43.43 0 0 1-.28.11h-8.12a.4.4 0 0 1-.28-.11l-4.68-4.68a.51.51 0 0 1-.11-.31v-4.65a.46.46 0 0 1 .11-.31l4.68-4.68a.42.42 0 0 1 .28-.11h8.12a.4.4 0 0 1 .28.11l4.68 4.68a.51.51 0 0 1 .15.32zm-5.26-4.26h-7.73l-4.42 4.42v4.31l4.42 4.42h7.73l4.42-4.42v-4.31zM290 326v9.16l4.42 4.42h7.73l4.42-4.42V326a.42.42 0 1 1 .84 0v9.32a.47.47 0 0 1-.11.31l-4.68 4.68a.42.42 0 0 1-.28.11h-8.14a.4.4 0 0 1-.28-.11l-4.68-4.68a.51.51 0 0 1-.11-.31V326a.42.42 0 0 1 .84 0zM326.93 326a.44.44 0 0 1 .45-.42.38.38 0 0 1 .36.28l4.84 12.94 4.84-12.94a.41.41 0 0 1 .78 0l4.84 12.94 4.84-12.94a.38.38 0 0 1 .36-.28.44.44 0 0 1 .45.42.25.25 0 0 1 0 .14l-5.24 14a.41.41 0 0 1-.78 0l-4.84-12.94-4.83 12.94a.41.41 0 0 1-.78 0l-5.24-14a.25.25 0 0 1-.05-.14zM372.34 331.1h-17v4.06l4.42 4.42h7.73l4.56-4.54a.44.44 0 0 1 .28-.14.46.46 0 0 1 .42.45.4.4 0 0 1-.11.28l-4.64 4.68a.43.43 0 0 1-.28.11h-8.12a.4.4 0 0 1-.28-.11l-4.68-4.68a.51.51 0 0 1-.11-.31v-4.65a.51.51 0 0 1 .11-.31l4.68-4.68a.42.42 0 0 1 .28-.11h8.12a.4.4 0 0 1 .28.11l4.68 4.68a.36.36 0 0 1 .11.28.42.42 0 0 1-.45.46zm-4.82-4.68h-7.73l-3.79 3.84h15.4zM381.12 326v3.64l3.95-3.95a.4.4 0 0 1 .28-.11h5.77a.42.42 0 0 1 0 .84h-5.6l-4.4 4.42V340a.46.46 0 0 1-.45.42.41.41 0 0 1-.39-.42v-14a.41.41 0 0 1 .39-.42.46.46 0 0 1 .45.42zM414.11 331.1h-17v4.06l4.42 4.42h7.73l4.56-4.54a.44.44 0 0 1 .28-.14.46.46 0 0 1 .42.45.4.4 0 0 1-.11.28l-4.68 4.68a.43.43 0 0 1-.28.11h-8.12a.4.4 0 0 1-.28-.11l-4.68-4.68a.51.51 0 0 1-.11-.31v-4.65a.51.51 0 0 1 .11-.31l4.68-4.68a.42.42 0 0 1 .28-.11h8.12a.4.4 0 0 1 .28.11l4.68 4.68a.36.36 0 0 1 .11.28.42.42 0 0 1-.41.46zm-4.82-4.68h-7.73l-3.84 3.84h15.4zM436.15 340v-28a.42.42 0 0 1 .84 0v28a.42.42 0 0 1-.84 0zM463.16 330.68v4.65a.47.47 0 0 1-.11.31l-4.68 4.68a.43.43 0 0 1-.28.11H450a.4.4 0 0 1-.28-.11l-4.72-4.69a.51.51 0 0 1-.11-.31v-4.65a.46.46 0 0 1 .11-.31l4.68-4.68a.42.42 0 0 1 .28-.11h8.12a.4.4 0 0 1 .28.11l4.68 4.68a.51.51 0 0 1 .12.32zm-5.26-4.26h-7.73l-4.42 4.42v4.31l4.42 4.42h7.73l4.42-4.42v-4.31zM488.52 330.68v4.65a.47.47 0 0 1-.11.31l-4.68 4.68a.42.42 0 0 1-.28.11h-8.12a.4.4 0 0 1-.28-.11l-4.68-4.68a.51.51 0 0 1-.11-.31v-4.65a.47.47 0 0 1 .11-.31l4.68-4.68a.42.42 0 0 1 .28-.11h8.12a.4.4 0 0 1 .28.11l4.68 4.68a.51.51 0 0 1 .11.31zm-5.26-4.26h-7.73l-4.42 4.42v4.31l4.42 4.42h7.73l4.42-4.42v-4.31zM514.4 325.58a.42.42 0 0 1 .14.81L498.1 333l16.44 6.61a.42.42 0 0 1-.14.81.35.35 0 0 1-.17 0l-16.86-6.78V340a.42.42 0 0 1-.84 0v-28a.42.42 0 1 1 .84 0v20.38l16.86-6.78a.35.35 0 0 1 .17-.02zM521.71 318.08v-1.4a.42.42 0 0 1 .84 0v1.4a.42.42 0 1 1-.84 0zm0 21.92v-14a.42.42 0 1 1 .84 0v14a.42.42 0 1 1-.84 0zM531.78 326v3.64l3.95-3.95a.4.4 0 0 1 .28-.11h8.09a.51.51 0 0 1 .31.11l4.68 4.68a.47.47 0 0 1 .11.31V340a.42.42 0 0 1-.84 0v-9.16l-4.42-4.42h-7.76l-4.4 4.42V340a.46.46 0 0 1-.45.42.41.41 0 0 1-.39-.42v-14a.41.41 0 0 1 .39-.42.46.46 0 0 1 .45.42zM574.73 326v23.32a.51.51 0 0 1-.11.31l-4.68 4.68a.4.4 0 0 1-.28.11h-8.12a.42.42 0 0 1-.28-.11l-4.68-4.68a.4.4 0 0 1-.11-.28.46.46 0 0 1 .42-.45.45.45 0 0 1 .28.14l4.56 4.54h7.73l4.42-4.42v-12.8l-3.95 3.95a.42.42 0 0 1-.28.11h-8.12a.4.4 0 0 1-.28-.11l-4.68-4.68a.51.51 0 0 1-.11-.31v-4.65a.47.47 0 0 1 .11-.31l4.68-4.68a.42.42 0 0 1 .28-.11h8.12a.4.4 0 0 1 .28.11l3.95 3.95V326a.42.42 0 1 1 .84 0zm-5.26.42h-7.73l-4.42 4.42v4.31l4.42 4.42h7.73l4.42-4.42v-4.31zM601.44 311.58a.46.46 0 0 1 .42.45.4.4 0 0 1-.11.28l-4.54 4.54v8.74h4.23a.42.42 0 0 1 0 .84h-4.23V340a.46.46 0 0 1-.45.42.41.41 0 0 1-.39-.42v-23.32a.47.47 0 0 1 .11-.31l4.68-4.68a.4.4 0 0 1 .28-.11zM624.53 330.68v4.65a.47.47 0 0 1-.11.31l-4.68 4.68a.43.43 0 0 1-.28.11h-8.12a.4.4 0 0 1-.28-.11l-4.68-4.68a.51.51 0 0 1-.11-.31v-4.65a.46.46 0 0 1 .11-.31l4.68-4.68a.42.42 0 0 1 .28-.11h8.12a.4.4 0 0 1 .28.11l4.68 4.68a.51.51 0 0 1 .11.31zm-5.26-4.26h-7.73l-4.42 4.42v4.31l4.42 4.42h7.73l4.42-4.42v-4.31zM633.13 326v3.64l3.95-3.95a.4.4 0 0 1 .28-.11h5.77a.42.42 0 0 1 0 .84h-5.6l-4.4 4.42V340a.46.46 0 0 1-.45.42.41.41 0 0 1-.39-.42v-14a.41.41 0 0 1 .39-.42.46.46 0 0 1 .45.42zM222 368v28a.42.42 0 1 1-.84 0v-3.64l-3.95 3.95a.42.42 0 0 1-.28.11h-8.12a.4.4 0 0 1-.28-.11l-4.68-4.68a.51.51 0 0 1-.11-.31v-4.65a.47.47 0 0 1 .11-.31l4.68-4.68a.42.42 0 0 1 .28-.11h8.12a.4.4 0 0 1 .28.11l3.95 3.95V368a.42.42 0 1 1 .84 0zm-5.26 14.42H209l-4.42 4.42v4.31l4.42 4.42h7.73l4.42-4.42v-4.31zM248 386.68v4.65a.47.47 0 0 1-.11.31l-4.68 4.68a.43.43 0 0 1-.28.11h-8.12a.4.4 0 0 1-.28-.11l-4.68-4.68a.51.51 0 0 1-.11-.31v-4.65a.46.46 0 0 1 .11-.31l4.68-4.68a.42.42 0 0 1 .28-.11h8.12a.4.4 0 0 1 .28.11l4.68 4.68a.51.51 0 0 1 .11.31zm-5.26-4.26H235l-4.42 4.42v4.31l4.42 4.42h7.73l4.42-4.42v-4.31zM272.88 387.1h-17v4.06l4.42 4.42h7.73l4.56-4.54a.44.44 0 0 1 .28-.14.46.46 0 0 1 .42.45.4.4 0 0 1-.11.28l-4.68 4.68a.42.42 0 0 1-.28.11h-8.12a.4.4 0 0 1-.28-.11l-4.68-4.68a.51.51 0 0 1-.11-.31v-4.65a.51.51 0 0 1 .11-.31l4.68-4.68a.42.42 0 0 1 .28-.11h8.12a.4.4 0 0 1 .28.11l4.68 4.68a.36.36 0 0 1 .11.28.42.42 0 0 1-.41.46zm-4.82-4.68h-7.73l-3.84 3.84h15.4zM298.69 386.65a.46.46 0 0 1-.42.45.44.44 0 0 1-.27-.1l-4.56-4.54h-7.74l-4 4 16.72 4.48a.45.45 0 0 1 .31.42.36.36 0 0 1-.11.28l-4.68 4.68a.4.4 0 0 1-.28.11h-8.16a.42.42 0 0 1-.28-.11l-4.68-4.68a.4.4 0 0 1-.11-.28.46.46 0 0 1 .42-.45.45.45 0 0 1 .28.14l4.56 4.54h7.73l4-4-16.72-4.48a.46.46 0 0 1-.31-.42.36.36 0 0 1 .11-.28l4.68-4.68a.42.42 0 0 1 .28-.11h8.12a.4.4 0 0 1 .28.11l4.68 4.68a.4.4 0 0 1 .15.24zM320.67 382v3.64l3.95-3.95a.4.4 0 0 1 .28-.11h8.1a.51.51 0 0 1 .31.11l4.68 4.68a.47.47 0 0 1 .11.31V396a.42.42 0 1 1-.84 0v-9.16l-4.42-4.42h-7.76l-4.4 4.42V396a.46.46 0 0 1-.45.42.41.41 0 0 1-.39-.42v-14a.41.41 0 0 1 .39-.42.46.46 0 0 1 .44.42zM363.62 386.68v4.65a.47.47 0 0 1-.11.31l-4.68 4.68a.42.42 0 0 1-.28.11h-8.12a.4.4 0 0 1-.28-.11l-4.68-4.68a.51.51 0 0 1-.11-.31v-4.65a.47.47 0 0 1 .11-.31l4.68-4.68a.42.42 0 0 1 .28-.11h8.12a.4.4 0 0 1 .28.11l4.68 4.68a.51.51 0 0 1 .11.31zm-5.26-4.26h-7.73l-4.42 4.42v4.31l4.42 4.42h7.73l4.42-4.42v-4.31zM374.23 368v13.58H379a.42.42 0 0 1 0 .84h-4.79V396a.42.42 0 1 1-.84 0v-13.58h-4.79a.42.42 0 1 1 0-.84h4.79V368a.42.42 0 1 1 .84 0zM416.26 387.1h-17v4.06l4.42 4.42h7.73L416 391a.44.44 0 0 1 .28-.14.46.46 0 0 1 .42.45.4.4 0 0 1-.11.28l-4.68 4.68a.42.42 0 0 1-.28.11h-8.12a.4.4 0 0 1-.28-.11l-4.68-4.68a.51.51 0 0 1-.11-.31v-4.65a.51.51 0 0 1 .11-.31l4.68-4.68a.42.42 0 0 1 .28-.11h8.12a.4.4 0 0 1 .28.11l4.68 4.68a.36.36 0 0 1 .11.28.42.42 0 0 1-.44.5zm-4.82-4.68h-7.73l-3.84 3.84h15.4zM421.8 382a.42.42 0 0 1 .67-.36l8.46 6.8 8.46-6.8a.42.42 0 0 1 .67.36.36.36 0 0 1-.14.31L431.6 389l8.32 6.66a.36.36 0 0 1 .14.31.42.42 0 0 1-.67.36l-8.46-6.8-8.46 6.8a.42.42 0 0 1-.67-.36.39.39 0 0 1 .17-.31l8.29-6.66-8.26-6.66a.39.39 0 0 1-.2-.34zM447.22 374.08v-1.4a.42.42 0 0 1 .84 0v1.4a.42.42 0 1 1-.84 0zm0 21.92v-14a.42.42 0 1 1 .84 0v14a.42.42 0 1 1-.84 0zM473.81 386.65a.46.46 0 0 1-.42.45.44.44 0 0 1-.28-.14l-4.56-4.54h-7.73l-4 4 16.72 4.48a.45.45 0 0 1 .31.42.36.36 0 0 1-.11.28l-4.74 4.71a.4.4 0 0 1-.28.11h-8.12a.42.42 0 0 1-.28-.11l-4.68-4.68a.4.4 0 0 1-.11-.28.46.46 0 0 1 .42-.45.45.45 0 0 1 .28.14l4.56 4.54h7.73l4-4-16.72-4.48a.46.46 0 0 1-.31-.42.36.36 0 0 1 .11-.28l4.68-4.68a.42.42 0 0 1 .28-.11h8.12a.4.4 0 0 1 .28.11l4.68 4.68a.4.4 0 0 1 .17.25zM484.42 368v13.58h4.79a.42.42 0 0 1 0 .84h-4.79V396a.42.42 0 0 1-.84 0v-13.58h-4.79a.42.42 0 1 1 0-.84h4.79V368a.42.42 0 1 1 .84 0zM494.57 396v-1.4a.42.42 0 0 1 .84 0v1.4a.42.42 0 0 1-.84 0z"/></g></svg>