<svg xmlns="http://www.w3.org/2000/svg" viewBox="0 0 700 500"><path fill="#f2f2f2" d="M0 0h700v500H0z" data-name="Ebene 1"/><g data-name="Ebene 2"><path d="M174.48 183.5a5.53 5.53 0 0 1 1.68-3.92l65.38-66.5a5.07 5.07 0 0 1 3.78-1.54 5.52 5.52 0 0 1 5.74 5.46v60.9h16.24a5.6 5.6 0 1 1 0 11.2h-16.24V250a5.6 5.6 0 0 1-11.2 0v-60.9h-59.78a5.71 5.71 0 0 1-5.6-5.6zm65.38-52.78l-46.34 47.18h46.34zM352.38 255a5.5 5.5 0 0 1-2.52.56h-.14a5.13 5.13 0 0 1-2.52-.56l-43.54-22.26a5.53 5.53 0 0 1-3.08-4.9v-88.72a5.46 5.46 0 0 1 3.08-4.9L347.2 112a5.49 5.49 0 0 1 2.52-.56h.14a5.13 5.13 0 0 1 2.52.56l43.54 22.26a5.52 5.52 0 0 1 3.08 4.9v88.76a5.46 5.46 0 0 1-3.08 4.9zm35.42-112.38l-37.94-19.32-38.08 19.32v81.76l38.08 19.32 37.94-19.32zM426.68 183.5a5.53 5.53 0 0 1 1.68-3.92l65.38-66.5a5.07 5.07 0 0 1 3.78-1.54 5.52 5.52 0 0 1 5.74 5.46v60.9h16.24a5.6 5.6 0 1 1 0 11.2h-16.24V250a5.6 5.6 0 0 1-11.2 0v-60.9h-59.78a5.71 5.71 0 0 1-5.6-5.6zm65.38-52.78l-46.34 47.18h46.34zM47.33 313.4v12.18h4.09a1.12 1.12 0 0 1 0 2.24h-4.09V340a1.12 1.12 0 1 1-2.24 0v-12.18H41a1.12 1.12 0 0 1 0-2.24h4.09V313.4a1.12 1.12 0 1 1 2.24 0zM60.22 313.4v15.9l7.08-3.61a1.1 1.1 0 0 1 .5-.11 1 1 0 0 1 .5.11l8.7 4.45a1.11 1.11 0 0 1 .62 1V340a1.12 1.12 0 1 1-2.24 0v-8.18L67.81 328l-7.59 3.86V340a1.12 1.12 0 1 1-2.22 0v-26.6a1.12 1.12 0 1 1 2.24 0zM103.24 335.55a1.11 1.11 0 0 1-.62 1L93.94 341a1 1 0 0 1-.5.11 1.21 1.21 0 0 1-.53-.11l-8.68-4.45a1.09 1.09 0 0 1-.62-1v-4.45a1.11 1.11 0 0 1 .62-1l8.68-4.45a1.14 1.14 0 0 1 .53-.11 1.1 1.1 0 0 1 .5.11l8.68 4.45a1.08 1.08 0 0 1 .62 1 1.11 1.11 0 0 1-1.12 1.12h-16.3v2.63l7.59 3.86 8.2-4.17a1.13 1.13 0 0 1 1.63 1zM93.41 328l-4.06 2h8.12zM125.19 326.7v2.6l7.08-3.61a1.1 1.1 0 0 1 .5-.11 1 1 0 0 1 .5.11l8.71 4.45a1.1 1.1 0 0 1 .62 1v4.45a1.09 1.09 0 0 1-.62 1l-8.67 4.41a1.1 1.1 0 0 1-.5.11 1 1 0 0 1-.5-.11l-7.08-3.61v15.9a1.12 1.12 0 1 1-2.24 0V326.7a1.12 1.12 0 1 1 2.24 0zm7.62 12l7.59-3.86v-3.05l-7.59-3.79-7.62 3.86v3.05zM168 326.7V340a1.12 1.12 0 1 1-2.24 0v-2.6l-7.03 3.6a1.1 1.1 0 0 1-.5.11 1.13 1.13 0 0 1-.53-.11l-8.7-4.44a1.1 1.1 0 0 1-.62-1v-4.45a1.09 1.09 0 0 1 .62-1l8.68-4.45a1.21 1.21 0 0 1 .53-.11 1 1 0 0 1 .5.11l7.05 3.61v-2.6a1.12 1.12 0 1 1 2.24 0zm-9.8 1.3l-7.59 3.86v3.05l7.59 3.86 7.59-3.86v-3.05zM175.53 347.76a1.1 1.1 0 0 1 .5.11l8.2 4.17 7.59-3.86V337.4l-7.05 3.6a1 1 0 0 1-.5.11 1.21 1.21 0 0 1-.53-.11l-8.74-4.44a1.09 1.09 0 0 1-.62-1v-4.45a1.1 1.1 0 0 1 .62-1l8.68-4.45a1.14 1.14 0 0 1 .53-.11 1.1 1.1 0 0 1 .5.11l7.06 3.61v-2.6a1.12 1.12 0 1 1 2.24 0v22.18a1.09 1.09 0 0 1-.62 1l-8.68 4.45a1.21 1.21 0 0 1-.53.11 1 1 0 0 1-.5-.11l-8.68-4.44a1.12 1.12 0 0 1-.62-1 1.1 1.1 0 0 1 1.15-1.1zm8.71-19.8l-7.59 3.86v3.05l7.59 3.86 7.59-3.86v-3.05zM220.11 335.55a1.12 1.12 0 0 1-.62 1l-8.68 4.45a1 1 0 0 1-.5.11 1.21 1.21 0 0 1-.53-.11l-8.68-4.45a1.09 1.09 0 0 1-.62-1v-4.45a1.11 1.11 0 0 1 .62-1l8.68-4.45a1.13 1.13 0 0 1 .53-.11 1.1 1.1 0 0 1 .5.11l8.68 4.45a1.08 1.08 0 0 1 .62 1 1.11 1.11 0 0 1-1.12 1.12h-16.3v2.63l7.59 3.86 8.2-4.17a1.13 1.13 0 0 1 1.62 1zm-9.83-7.55l-4.06 2h8.12zM238.84 325.58a1.13 1.13 0 0 1 1 .5l7.73 11.92 7.78-11.87a1.09 1.09 0 0 1 .92-.5 1.14 1.14 0 0 1 1.12 1.12 1.32 1.32 0 0 1-.2.62l-17.42 26.6a1.13 1.13 0 0 1-1 .5 1.12 1.12 0 0 1-1.09-1.12 1.27 1.27 0 0 1 .17-.62l8.38-12.73-8.32-12.68a1.27 1.27 0 0 1-.17-.62 1.12 1.12 0 0 1 1.1-1.12zM280.92 331.12v4.45a1.1 1.1 0 0 1-.62 1l-8.67 4.43a1 1 0 0 1-.5.11 1.21 1.21 0 0 1-.53-.11l-8.68-4.45a1.09 1.09 0 0 1-.62-1v-4.45a1.1 1.1 0 0 1 .62-1l8.68-4.45a1.14 1.14 0 0 1 .53-.11 1.1 1.1 0 0 1 .5.11l8.68 4.45a1.09 1.09 0 0 1 .61 1.02zm-9.83-3.12l-7.59 3.86v3.05l7.59 3.86 7.59-3.86v-3.05zM289.15 326.7v8.18l7.59 3.86 7.59-3.86v-8.18a1.12 1.12 0 1 1 2.24 0v8.88a1.1 1.1 0 0 1-.62 1l-8.68 4.42a1 1 0 0 1-.5.11 1.21 1.21 0 0 1-.53-.11l-8.68-4.45a1.09 1.09 0 0 1-.62-1v-8.85a1.12 1.12 0 1 1 2.24 0zM325.83 325.58a1.09 1.09 0 0 1 1 .7l4.2 10.67 4.2-10.67a1 1 0 0 1 1-.67 1.1 1.1 0 0 1 1.06.67l4.2 10.67 4.2-10.67a1.09 1.09 0 0 1 1-.7 1.12 1.12 0 0 1 1 1.54l-5.24 13.3a1.1 1.1 0 0 1-1.06.67 1 1 0 0 1-1-.67l-4.2-10.67-4.2 10.67a1.1 1.1 0 0 1-1.06.67 1 1 0 0 1-1-.67l-5.24-13.3a1.12 1.12 0 0 1 1-1.54zM372.09 335.55a1.11 1.11 0 0 1-.62 1l-8.68 4.45a1 1 0 0 1-.5.11 1.21 1.21 0 0 1-.53-.11l-8.68-4.45a1.09 1.09 0 0 1-.62-1v-4.45a1.11 1.11 0 0 1 .62-1l8.68-4.45a1.14 1.14 0 0 1 .53-.11 1.1 1.1 0 0 1 .5.11l8.68 4.45a1.08 1.08 0 0 1 .62 1 1.11 1.11 0 0 1-1.12 1.12h-16.3v2.63l7.59 3.86 8.2-4.17a1.13 1.13 0 0 1 1.62 1zm-9.83-7.55l-4.06 2h8.12zM380.56 326.7v2.6l7.08-3.61a1.1 1.1 0 0 1 .5-.11h1.74a1.12 1.12 0 0 1 0 2.24h-1.46l-7.87 4V340a1.12 1.12 0 1 1-2.24 0v-13.3a1.12 1.12 0 1 1 2.24 0zM414.44 335.55a1.11 1.11 0 0 1-.62 1l-8.68 4.45a1 1 0 0 1-.5.11 1.21 1.21 0 0 1-.53-.11l-8.68-4.45a1.09 1.09 0 0 1-.62-1v-4.45a1.11 1.11 0 0 1 .62-1l8.68-4.45a1.14 1.14 0 0 1 .53-.11 1.1 1.1 0 0 1 .5.11l8.68 4.45a1.08 1.08 0 0 1 .62 1 1.11 1.11 0 0 1-1.12 1.12H397v2.63l7.59 3.86 8.2-4.17a1.13 1.13 0 0 1 1.62 1zm-9.83-7.55l-4.06 2h8.12zM434.63 340v-26.6a1.12 1.12 0 1 1 2.24 0V340a1.12 1.12 0 1 1-2.24 0zM463.07 331.12v4.45a1.1 1.1 0 0 1-.62 1l-8.68 4.43a1 1 0 0 1-.5.11 1.21 1.21 0 0 1-.53-.11l-8.74-4.44a1.09 1.09 0 0 1-.62-1v-4.45a1.11 1.11 0 0 1 .62-1l8.68-4.45a1.13 1.13 0 0 1 .53-.11 1.1 1.1 0 0 1 .5.11l8.68 4.45a1.09 1.09 0 0 1 .68 1.01zm-9.83-3.12l-7.59 3.86v3.05l7.59 3.86 7.59-3.86v-3.05zM488.47 331.12v4.45a1.1 1.1 0 0 1-.62 1l-8.67 4.43a1 1 0 0 1-.5.11 1.21 1.21 0 0 1-.53-.11l-8.68-4.45a1.09 1.09 0 0 1-.62-1v-4.45a1.11 1.11 0 0 1 .62-1l8.68-4.45a1.14 1.14 0 0 1 .53-.11 1.1 1.1 0 0 1 .5.11l8.68 4.45a1.09 1.09 0 0 1 .61 1.02zm-9.82-3.12l-7.59 3.86v3.05l7.59 3.86 7.59-3.86v-3.05zM514.8 326.7a1.11 1.11 0 0 1-.73 1l-14.7 5.63 14.7 5.6a1.11 1.11 0 0 1 .73 1 1.15 1.15 0 0 1-1.15 1.12 1 1 0 0 1-.39-.08l-15.9-6v5a1.12 1.12 0 1 1-2.24 0V313.4a1.12 1.12 0 1 1 2.24 0v18.31l15.9-6a1 1 0 0 1 .39-.08 1.15 1.15 0 0 1 1.15 1.07zM520.35 319.17v-1.34a1.12 1.12 0 1 1 2.24 0v1.34a1.12 1.12 0 0 1-2.24 0zm0 20.83v-13.3a1.12 1.12 0 1 1 2.24 0V340a1.12 1.12 0 1 1-2.24 0zM531.88 326.7v2.6l7.06-3.61a1.1 1.1 0 0 1 .5-.11 1 1 0 0 1 .5.11l8.71 4.45a1.11 1.11 0 0 1 .62 1V340a1.12 1.12 0 1 1-2.24 0v-8.18l-7.56-3.82-7.59 3.86V340a1.15 1.15 0 0 1-1.15 1.12 1.12 1.12 0 0 1-1.12-1.12v-13.3a1.12 1.12 0 0 1 1.12-1.12 1.15 1.15 0 0 1 1.15 1.12zM556.33 347.76a1.1 1.1 0 0 1 .5.11L565 352l7.59-3.86V337.4l-7.02 3.6a1 1 0 0 1-.5.11 1.21 1.21 0 0 1-.53-.11l-8.68-4.45a1.09 1.09 0 0 1-.62-1v-4.45a1.1 1.1 0 0 1 .62-1l8.68-4.45a1.14 1.14 0 0 1 .53-.11 1.1 1.1 0 0 1 .5.11l7.06 3.61v-2.6a1.12 1.12 0 1 1 2.24 0v22.18a1.09 1.09 0 0 1-.62 1l-8.68 4.45a1.21 1.21 0 0 1-.53.11 1 1 0 0 1-.5-.11l-8.68-4.45a1.12 1.12 0 0 1-.62-1 1.1 1.1 0 0 1 1.09-1.08zM565 328l-7.59 3.86v3.05l7.59 3.86 7.59-3.86v-3.05zM606 313.4a1.12 1.12 0 0 1-.62 1l-8.09 4.12v7.06h7.59a1.12 1.12 0 0 1 0 2.24h-7.59V340a1.12 1.12 0 1 1-2.24 0v-22.18a1.11 1.11 0 0 1 .62-1l8.71-4.45a1.1 1.1 0 0 1 .5-.11 1.12 1.12 0 0 1 1.12 1.14zM627.17 331.12v4.45a1.1 1.1 0 0 1-.62 1l-8.68 4.43a1 1 0 0 1-.5.11 1.21 1.21 0 0 1-.53-.11l-8.68-4.45a1.09 1.09 0 0 1-.62-1v-4.45a1.1 1.1 0 0 1 .62-1l8.68-4.45a1.14 1.14 0 0 1 .53-.11 1.1 1.1 0 0 1 .5.11l8.68 4.45a1.09 1.09 0 0 1 .62 1.02zm-9.83-3.12l-7.59 3.86v3.05l7.59 3.86 7.59-3.86v-3.05zM635.79 326.7v2.6l7.08-3.61a1.1 1.1 0 0 1 .5-.11h1.74a1.12 1.12 0 0 1 0 2.24h-1.46l-7.87 4V340a1.12 1.12 0 1 1-2.24 0v-13.3a1.12 1.12 0 1 1 2.24 0zM221.81 369.4V396a1.12 1.12 0 1 1-2.24 0v-2.6l-7.06 3.6a1 1 0 0 1-.5.11 1.21 1.21 0 0 1-.53-.11l-8.68-4.45a1.09 1.09 0 0 1-.62-1v-4.45a1.1 1.1 0 0 1 .62-1l8.68-4.45a1.14 1.14 0 0 1 .53-.11 1.1 1.1 0 0 1 .5.11l7.06 3.61V369.4a1.12 1.12 0 0 1 2.24 0zM212 384l-7.59 3.86v3.05l7.59 3.86 7.59-3.86v-3.05zM247.85 387.12v4.45a1.1 1.1 0 0 1-.62 1l-8.68 4.43a1 1 0 0 1-.5.11 1.21 1.21 0 0 1-.53-.11l-8.68-4.45a1.09 1.09 0 0 1-.62-1v-4.45a1.11 1.11 0 0 1 .62-1l8.68-4.45a1.13 1.13 0 0 1 .53-.11 1.1 1.1 0 0 1 .5.11l8.68 4.45a1.09 1.09 0 0 1 .62 1.02zM238 384l-7.59 3.86v3.05l7.59 3.86 7.59-3.86v-3.05zM273.25 391.55a1.11 1.11 0 0 1-.62 1L264 397a1 1 0 0 1-.5.11 1.21 1.21 0 0 1-.53-.11l-8.68-4.45a1.09 1.09 0 0 1-.62-1v-4.45a1.11 1.11 0 0 1 .62-1l8.68-4.45a1.14 1.14 0 0 1 .53-.11 1.1 1.1 0 0 1 .5.11l8.68 4.45a1.08 1.08 0 0 1 .62 1 1.11 1.11 0 0 1-1.12 1.12h-16.34v2.63l7.59 3.86 8.2-4.17a1.13 1.13 0 0 1 1.63 1zm-9.83-7.55l-4.06 2h8.12zM297.54 388.24a1.1 1.1 0 0 1-.5-.11l-8.2-4.17-5.54 2.83 14.53 3.7a1 1 0 0 1 .81 1.06 1.12 1.12 0 0 1-.59 1l-8.69 4.45a1.1 1.1 0 0 1-.5.11 1.14 1.14 0 0 1-.53-.11l-8.68-4.45a1.11 1.11 0 0 1-.62-1 1.13 1.13 0 0 1 1.62-1l8.2 4.17 5.54-2.83-14.53-3.7a1.17 1.17 0 0 1-.84-1.12 1.08 1.08 0 0 1 .62-1l8.68-4.45a1.14 1.14 0 0 1 .53-.11 1.1 1.1 0 0 1 .5.11l8.68 4.45a1.12 1.12 0 0 1 .62 1 1.1 1.1 0 0 1-1.11 1.17zM320.63 382.7v2.6l7.06-3.61a1.1 1.1 0 0 1 .5-.11 1 1 0 0 1 .5.11l8.71 4.45a1.11 1.11 0 0 1 .62 1V396a1.12 1.12 0 1 1-2.24 0v-8.18l-7.56-3.82-7.59 3.86V396a1.15 1.15 0 0 1-1.15 1.12 1.12 1.12 0 0 1-1.12-1.12v-13.3a1.12 1.12 0 0 1 1.12-1.12 1.15 1.15 0 0 1 1.15 1.12zM363.63 387.12v4.45a1.1 1.1 0 0 1-.62 1l-8.68 4.43a1 1 0 0 1-.5.11 1.21 1.21 0 0 1-.53-.11l-8.68-4.45a1.09 1.09 0 0 1-.62-1v-4.45a1.11 1.11 0 0 1 .62-1l8.68-4.45a1.14 1.14 0 0 1 .53-.11 1.1 1.1 0 0 1 .5.11l8.68 4.45a1.09 1.09 0 0 1 .62 1.02zM353.8 384l-7.59 3.86v3.05l7.59 3.86 7.59-3.86v-3.05zM374.65 369.4v12.18h4.09a1.12 1.12 0 0 1 0 2.24h-4.09V396a1.12 1.12 0 1 1-2.24 0v-12.18h-4.09a1.12 1.12 0 1 1 0-2.24h4.09V369.4a1.12 1.12 0 1 1 2.24 0zM417.13 391.55a1.11 1.11 0 0 1-.62 1l-8.68 4.45a1 1 0 0 1-.5.11 1.21 1.21 0 0 1-.53-.11l-8.68-4.45a1.09 1.09 0 0 1-.62-1v-4.45a1.11 1.11 0 0 1 .62-1l8.68-4.45a1.13 1.13 0 0 1 .53-.11 1.1 1.1 0 0 1 .5.11l8.68 4.45a1.08 1.08 0 0 1 .62 1 1.11 1.11 0 0 1-1.12 1.12h-16.3v2.63l7.59 3.86 8.21-4.17a1.13 1.13 0 0 1 1.62 1zM407.3 384l-4.06 2h8.12zM422.42 381.58a1.21 1.21 0 0 1 .67.22l8 6.13 8-6.13a1.21 1.21 0 0 1 .67-.22 1.12 1.12 0 0 1 1.24 1.12 1.14 1.14 0 0 1-.42.9l-7.58 5.76 7.56 5.74a1.14 1.14 0 0 1 .42.9 1.12 1.12 0 0 1-1.12 1.12 1.2 1.2 0 0 1-.67-.22l-8-6.13-8 6.13a1.2 1.2 0 0 1-.67.22 1.12 1.12 0 0 1-1.22-1.12 1.17 1.17 0 0 1 .45-.9l7.53-5.74-7.53-5.77a1.17 1.17 0 0 1-.45-.9 1.12 1.12 0 0 1 1.12-1.11zM446.75 375.17v-1.34a1.12 1.12 0 1 1 2.24 0v1.34a1.12 1.12 0 1 1-2.24 0zm0 20.83v-13.3a1.12 1.12 0 1 1 2.24 0V396a1.12 1.12 0 1 1-2.24 0zM473.79 388.24a1.1 1.1 0 0 1-.5-.11l-8.2-4.17-5.54 2.83 14.53 3.7a1 1 0 0 1 .81 1.06 1.12 1.12 0 0 1-.59 1l-8.69 4.45a1.1 1.1 0 0 1-.5.11 1.13 1.13 0 0 1-.53-.11l-8.68-4.45a1.12 1.12 0 0 1-.62-1 1.13 1.13 0 0 1 1.62-1l8.2 4.17 5.54-2.83-14.53-3.7a1.17 1.17 0 0 1-.84-1.12 1.08 1.08 0 0 1 .62-1l8.68-4.45a1.13 1.13 0 0 1 .53-.11 1.1 1.1 0 0 1 .5.11l8.68 4.45a1.12 1.12 0 0 1 .62 1 1.1 1.1 0 0 1-1.11 1.17zM485.93 369.4v12.18H490a1.12 1.12 0 0 1 0 2.24h-4.09V396a1.12 1.12 0 0 1-2.24 0v-12.18h-4.07a1.12 1.12 0 0 1 0-2.24h4.09V369.4a1.12 1.12 0 0 1 2.24 0zM494.71 396v-1.34a1.12 1.12 0 1 1 2.24 0V396a1.12 1.12 0 1 1-2.24 0z"/></g></svg>