<svg xmlns="http://www.w3.org/2000/svg" viewBox="0 0 700 500"><path fill="#f2f2f2" d="M0 0h700v500H0z" data-name="Ebene 1"/><g data-name="Ebene 2"><path d="M273.9 241.74l-21.42 18.06-1.4-1.54V189.8h-51l-1.26-1.54 52.22-70 21.46-18.06 1.4 1.54v68.46H290l1.26 1.54-17.36 14.7zm-22.82-71.54v-37.94L222.8 170.2zM374.6 236.42l-30.94 23.38h-7.84l-30.94-23.38-1.26-1.54V141.5L325 123.58l31-23.38h7.84l30.94 23.38 1.26 1.54v93.38zM356 240.2h7.84l9.52-7.14v-91l-29.7-22.26h-7.84l-9.52 7.14v91zM483.5 241.74l-21.42 18.06-1.4-1.54V189.8h-51l-1.26-1.54 52.22-70 21.46-18.06 1.4 1.54v68.46h16.1l1.26 1.54-17.36 14.7zm-22.82-71.54v-37.94L432.4 170.2zM87.13 313.65l4.28-3.65.25.31V324h3.92l.25.31-4.17 3.5v10.5L87.38 342l-.25-.31V328h-3.92l-.25-.31 4.17-3.5zM106.61 328H105l-1.9 1.43v9L98.85 342l-.25-.31v-28l4.28-3.61.25.31v18.14l5.94-4.45h1.57l6.19 4.68.25.31v9.32l-4.29 3.61-.25-.31v-9.24zM131.27 338h1.57l6.19-4.68.25.34-4.28 3.62-6.19 4.72h-1.57l-6.19-4.68-.25-.31v-4.71l4.28-3.58 6.19-4.68h1.57l6.19 4.68.25.31-4.28 3.61h-9.66v1zm-2.46-10h-1.57l-1 .76h3.53zM154.54 327.65l4.28-3.61.25.31v4.14L165 324h1.57l6.19 4.68.25.31v4.68l-4.28 3.58-6.18 4.75H161l-1.9-1.43v11.82l-4.31 3.61-.25-.31zm8 .31H161l-1.9 1.43v4.2L165 338h1.57l1.9-1.43v-4.2zM194.26 324l.25.31v14l-4.28 3.69-.25-.31v-4.14L184 342h-1.57l-6.19-4.68-.24-.32v-4.7l4.28-3.58 6.19-4.68h1.57l3.25 2.46zm-7.76 14h1.57l1.9-1.43v-4.2L184 328h-1.57l-1.9 1.43v4.2zM216.8 324l.25.31v23.39l-4.28 3.58-6.19 4.72H205l-6.19-4.68-.25-.31 4.28-3.61L209 352h1.57l1.9-1.43v-13.1l-5.89 4.53H205l-6.19-4.68-.25-.31v-4.71l4.28-3.58L209 324h1.57l3.25 2.46zm-7.8 14h1.57l1.9-1.43v-4.2l-5.89-4.37H205l-1.9 1.43v4.2zM231.58 338h1.57l6.19-4.68.25.34-4.29 3.58-6.19 4.76h-1.57l-6.19-4.68-.25-.31v-4.71l4.28-3.58 6.19-4.68h1.57l6.19 4.68.25.31-4.29 3.61h-9.66v1zm-2.47-10h-1.57l-1 .76h3.53zM267.11 327.65l4.28-3.61.25.31q-7 14-13.94 28l-4.28 3.65-.25-.31 7-14-7-14 4.29-3.61.25.31 5.52 11.06zM291.08 333.7l-4.28 3.58-6.19 4.72H279l-6.19-4.68-.25-.31v-4.71l4.28-3.58 6.19-4.68h1.57l6.19 4.68.25.31zm-4.54-1.29l-5.93-4.41H279l-1.9 1.43v4.2l5.94 4.45h1.57l1.9-1.43zM308.82 327.65l4.28-3.65.25.31v9.35l-4.28 3.58-6.19 4.76h-1.57l-6.19-4.68-.25-.31v-9.32l4.29-3.61.25.31v9.24l5.94 4.45h1.57l1.9-1.43zM336.09 338.35L331.8 342l-.28-.31-4.17-14 4.28-3.61.25.31 2.41 8 1.43-4.73L340 324l.25.31 2.41 8 1.43-4.73 4.28-3.61.25.31-4.17 14-4.28 3.72-.28-.31-2.41-8zM361 338h1.57l6.19-4.68.25.34-4.28 3.58-6.19 4.76H357l-6.19-4.68-.25-.31v-4.71l4.29-3.58L361 324h1.57l6.19 4.68.25.31-4.28 3.61h-9.66v1zm-2.46-10H357l-1 .76h3.53zM372.72 327.65L377 324l.25.31v4.14l5.94-4.45h2.16l.25.31-4.29 3.69h-2.16l-1.9 1.43v9L373 342l-.25-.31zM395.94 338h1.57l6.19-4.68.25.34-4.28 3.58-6.2 4.76h-1.57l-6.19-4.68-.25-.31v-4.71l4.28-3.58 6.19-4.68h1.57l6.19 4.68.25.31-4.28 3.61H390v1zm-2.47-10h-1.57l-1 .76h3.53zM419.57 313.65l4.28-3.61.25.31v28l-4.28 3.65-.25-.31zM446.77 333.7l-4.28 3.58-6.19 4.72h-1.57l-6.19-4.68-.25-.31v-4.71l4.28-3.58 6.19-4.68h1.57l6.19 4.68.25.31zm-4.54-1.29L436.3 328h-1.57l-1.9 1.43v4.2l5.94 4.45h1.57l1.9-1.43zM468.27 333.7l-4.27 3.58-6.21 4.72h-1.57l-6.22-4.72-.25-.31v-4.67l4.28-3.58 6.19-4.68h1.57l6.19 4.68.25.31zm-4.54-1.29l-5.94-4.41h-1.57l-1.9 1.43v4.2l5.94 4.45h1.57l1.9-1.43zM490.85 338l.25.31-4.28 3.69-9.66-4.84v1.23l-4.28 3.61-.25-.31v-28l4.28-3.61.25.31v20.51l13.69-6.9.25.31-4.28 3.69-8 4zM494 318.3l4.29-3.58.25.31v1.4L494.2 320l-.25-.34zm0 9.35l4.29-3.61.25.31v14L494.2 342l-.25-.31zM511.33 328h-1.57l-1.9 1.43v9l-4.28 3.57-.25-.31v-14l4.28-3.61.25.31v4.14l5.94-4.53h1.57l6.19 4.68.25.31v9.32l-4.29 3.69-.25-.31v-9.24zM543.76 324l.25.31v23.39l-4.28 3.58-6.19 4.72H532l-6.19-4.68-.25-.31 4.29-3.61L536 352h1.57l1.9-1.43v-13.1l-5.93 4.53H532l-6.19-4.68-.25-.31v-4.71l4.29-3.58L536 324h1.57l3.25 2.46zM536 338h1.57l1.9-1.43v-4.2l-5.93-4.37H532l-1.9 1.43v4.2zM564.22 324h5.94l.28.31-4.31 3.69h-1.9v10.39l-4.29 3.61-.25-.31V318.3l4.28-3.58 6.19-4.68.28.31-4.31 3.65-1.9 1.43zM587.89 333.7l-4.29 3.58-6.18 4.72h-1.57l-6.19-4.68-.25-.31v-4.71l4.28-3.58 6.19-4.68h1.57l6.19 4.68.25.31zm-4.54-1.29l-5.93-4.41h-1.57l-1.9 1.43v4.2l5.94 4.45h1.57l1.9-1.43zM591.93 327.65l4.29-3.61.25.31v4.14l5.93-4.49h2.16l.25.31-4.29 3.69h-2.16l-1.9 1.43v9l-4.28 3.57-.25-.31zM228.72 398h-1.57l-6.15-4.72-.25-.31v-4.67l4.29-3.58 6.19-4.68h1.57l1.9 1.43v-11.82l4.28-3.61.25.31v28l-4.32 3.65-.25-.31v-4.14zm2.46-3.92h1.57l1.9-1.43v-4.2l-5.93-4.45h-1.57l-1.9 1.43v4.2zM261.73 389.7l-4.28 3.58-6.19 4.72h-1.57l-6.19-4.68-.25-.31v-4.71l4.28-3.58 6.19-4.68h1.57l6.19 4.68.25.31zm-4.54-1.29l-5.93-4.41h-1.57l-1.9 1.43v4.2l5.94 4.45h1.57l1.9-1.43zM275.21 394h1.57l6.19-4.68.25.34-4.29 3.58-6.18 4.76h-1.57l-6.18-4.72-.25-.31v-4.67l4.28-3.58 6.19-4.68h1.57l6.19 4.68.25.31-4.29 3.61h-9.66v1zm-2.46-10h-1.57l-1 .76h3.53zM286.11 388.64l-.25-.34 4.28-3.58 6.19-4.68h1.57l6.19 4.68.25.31-3.78 3.16 3.53 1.18.25.34-4.28 3.58-6.19 4.71h-1.57l-6.19-4.68-.25-.31 3.78-3.16zm12.52-1.09l-4.76-3.55h-1.57l-1.3 1zm-7.06 2.91l4.76 3.58h1.57l1.34-1zM327.61 384H326l-1.9 1.43v9l-4.25 3.57-.25-.31v-14l4.29-3.61.25.31v4.14l5.94-4.45h1.57l6.19 4.68.25.31v9.32L333.8 398l-.25-.31v-9.24zM360.28 389.7l-4.28 3.58-6.19 4.72h-1.57l-6.19-4.68-.25-.31v-4.71l4.28-3.58 6.19-4.68h1.57l6.19 4.68.25.31zm-4.54-1.29l-5.93-4.41h-1.57l-1.9 1.43v4.2l5.94 4.45h1.57l1.9-1.43zM366.48 369.65l4.28-3.61.25.31V380h3.92l.25.31-4.17 3.5v10.5l-4.28 3.69-.25-.31V384h-3.92l-.25-.31 4.17-3.5zM399.24 394h1.57l6.19-4.68.25.34-4.25 3.62-6.22 4.72h-1.57l-6.21-4.72-.25-.31v-4.67l4.29-3.58 6.19-4.68h1.57l6.19 4.68.25.31-4.24 3.61h-9.66v1zm-2.46-10h-1.57l-1 .76h3.53zM427.93 394l.25.31-4.28 3.69-6.61-6.64-3.05 3L410 398l-.25-.31 6.94-7L410 384l-.25-.31L414 380l6.61 6.64 3.05-3 4.28-3.61.25.31-6.94 7zM431.32 374.3l4.28-3.58.25.31v1.4l-4.28 3.57-.25-.34zm0 9.35l4.28-3.61.25.31v14l-4.28 3.65-.25-.31zM439.84 388.64l-.25-.34 4.29-3.58 6.19-4.68h1.57l6.19 4.68.25.31-3.78 3.16 3.53 1.18.25.34-4.28 3.58-6.21 4.71H446l-6.19-4.68-.25-.31 3.78-3.16zm12.52-1.09l-4.77-3.55H446l-1.34 1zm-7.06 2.91l4.76 3.58h1.57l1.34-1zM464.27 369.65l4.28-3.61.25.31V380h3.92l.25.31-4.17 3.5v10.5l-4.28 3.69-.25-.31V384h-3.92l-.25-.31 4.17-3.5zM474 396.25l4.28-3.61.25.31v1.4l-4.25 3.65-.25-.31z"/></g></svg>