<svg xmlns="http://www.w3.org/2000/svg" viewBox="0 0 700 500"><path fill="#f2f2f2" d="M0 0h700v500H0z" data-name="Ebene 1"/><g data-name="Ebene 2"><path d="M258.56 192.18a1.74 1.74 0 0 1 1.68 1.82 1.62 1.62 0 0 1-1.68 1.68h-25.34V250a1.62 1.62 0 0 1-1.68 1.68 1.74 1.74 0 0 1-1.82-1.68v-54.32h-79.24a1.85 1.85 0 0 1-1.82-1.82c0-.56.28-.84.84-1.26l81.06-56a2 2 0 0 1 .84-.28 1.74 1.74 0 0 1 1.82 1.68v54.18zm-28.84-50.82l-73.64 50.82h73.64zM404.15 154.94a1.66 1.66 0 0 1 1.4 1.68v74.76a1.66 1.66 0 0 1-1.4 1.68l-45.92 9.8 25.62 5.46a1.77 1.77 0 0 1 1.4 1.68 1.61 1.61 0 0 1-1.68 1.68h-67.62a1.61 1.61 0 0 1-1.68-1.68 1.64 1.64 0 0 1 1.4-1.68l25.62-5.46-45.92-9.8a1.66 1.66 0 0 1-1.4-1.68v-74.76a1.66 1.66 0 0 1 1.4-1.68l45.92-9.8-25.62-5.46a1.78 1.78 0 0 1-1.4-1.68 1.73 1.73 0 0 1 1.68-1.82h67.62a1.73 1.73 0 0 1 1.68 1.82 1.64 1.64 0 0 1-1.4 1.68l-25.62 5.46zM402 230v-72l-52.31-11-52.22 11v72l52.22 11zm-35.14-90.3h-34.3l17.08 3.78zm-34.3 108.64h34.3l-17.22-3.78zM549.1 192.18a1.74 1.74 0 0 1 1.68 1.82 1.62 1.62 0 0 1-1.68 1.68h-25.34V250a1.62 1.62 0 0 1-1.68 1.68 1.74 1.74 0 0 1-1.82-1.68v-54.32H441a1.85 1.85 0 0 1-1.82-1.82c0-.56.28-.84.84-1.26l81.06-56a2 2 0 0 1 .84-.28 1.74 1.74 0 0 1 1.82 1.68v54.18zm-28.84-50.82l-73.64 50.82h73.64zM26.62 319.2v10.06h5.67a.34.34 0 0 1 .34.34.32.32 0 0 1-.34.31h-5.67V340a.32.32 0 0 1-.34.31.3.3 0 0 1-.28-.31v-10.09h-5.7a.32.32 0 0 1-.34-.31.34.34 0 0 1 .34-.34H26V319.2a.32.32 0 0 1 .31-.34.34.34 0 0 1 .31.34zM59.31 332.75a.31.31 0 0 1 .26.31V340a.3.3 0 0 1-.31.31.32.32 0 0 1-.34-.31v-6.68l-9.7-2.05-9.72 2.05V340a.3.3 0 0 1-.31.31.32.32 0 0 1-.34-.31v-20.8a.34.34 0 0 1 .34-.34.32.32 0 0 1 .31.34v13.47l8.16-1.74-4.78-1a.33.33 0 0 1-.26-.31.32.32 0 0 1 .31-.34h12.56a.32.32 0 0 1 .31.34.28.28 0 0 1-.23.31l-4.78 1zm-6.92-2.83H46l3.2.7zM86.66 333.4H66.95v2.89l9.7 2.05 10-2.13h.05a.34.34 0 0 1 .31.34.28.28 0 0 1-.23.31l-8.55 1.82 4.78 1a.3.3 0 0 1 .26.31.3.3 0 0 1-.31.31H70.38a.3.3 0 0 1-.31-.31.29.29 0 0 1 .23-.31l4.78-1-8.53-1.82a.31.31 0 0 1-.26-.31v-3.48a.33.33 0 0 1 .26-.31l8.53-1.82-4.78-1a.28.28 0 0 1-.23-.31.32.32 0 0 1 .31-.34h12.56a.32.32 0 0 1 .31.34.31.31 0 0 1-.26.31l-4.78 1 8.55 1.82a.31.31 0 0 1 .26.31.35.35 0 0 1-.36.33zm-10-2.13l-6.94 1.48h13.87zm3.2-1.35h-6.39l3.17.7zm-6.37 9.78h6.37l-3.2-.7zM108.42 329.6v3.07l8.14-1.74-4.76-1a.33.33 0 0 1-.26-.31.32.32 0 0 1 .31-.34h12.56a.32.32 0 0 1 .31.34.3.3 0 0 1-.26.31l-4.76 1 8.53 1.82a.31.31 0 0 1 .26.31v3.48a.31.31 0 0 1-.26.31l-8.53 1.82 4.76 1a.33.33 0 0 1 .26.31.3.3 0 0 1-.31.31h-12.56a.3.3 0 0 1-.31-.31.3.3 0 0 1 .26-.31l4.76-1-8.14-1.74v13.47a.32.32 0 0 1-.31.34.34.34 0 0 1-.34-.34v-20.8a.34.34 0 0 1 .34-.34.32.32 0 0 1 .31.34zm9.7 8.74l9.72-2.05v-3l-9.72-2.05-9.7 2.05v3zm3.2-8.42h-6.37l3.17.7zm-6.37 9.78h6.37l-3.2-.7zM155.8 329.6V340a.32.32 0 0 1-.34.31.3.3 0 0 1-.31-.31v-3.07l-8.15 1.74 4.78 1a.33.33 0 0 1 .26.31.3.3 0 0 1-.31.31h-12.57a.3.3 0 0 1-.31-.31.28.28 0 0 1 .23-.31l4.78-1-8.53-1.82a.31.31 0 0 1-.26-.31v-3.48a.31.31 0 0 1 .26-.31l8.53-1.82-4.78-1a.31.31 0 0 1-.23-.31.32.32 0 0 1 .31-.34h12.56a.32.32 0 0 1 .31.34.3.3 0 0 1-.26.31l-4.78 1 8.17 1.74v-3.07a.32.32 0 0 1 .31-.34.34.34 0 0 1 .33.34zm-10.37 1.66l-9.7 2.05v3l9.7 2.05 9.72-2.05v-3zm3.2-1.35h-6.37l3.17.7zm-6.37 9.78h6.37l-3.2-.7zM163.2 347.25a.3.3 0 0 1-.26-.31.34.34 0 0 1 .31-.34h.08l10 2.13 9.72-2.05v-9.75l-8.16 1.74 4.78 1a.3.3 0 0 1 .26.31.3.3 0 0 1-.31.31H167a.3.3 0 0 1-.31-.31.29.29 0 0 1 .23-.31l4.78-1-8.53-1.82a.31.31 0 0 1-.26-.31v-3.48a.31.31 0 0 1 .26-.31l8.53-1.82-4.78-1a.28.28 0 0 1-.23-.31.32.32 0 0 1 .31-.34h12.56a.32.32 0 0 1 .31.34.31.31 0 0 1-.26.31l-4.78 1 8.16 1.74v-3.07a.32.32 0 0 1 .31-.34.34.34 0 0 1 .34.34v17.34a.31.31 0 0 1-.26.31l-8.55 1.82 4.78 1a.33.33 0 0 1 .26.31.32.32 0 0 1-.31.34H167a.32.32 0 0 1-.31-.34.28.28 0 0 1 .23-.31l4.78-1zm19.8-13.93l-9.72-2.05-9.7 2.05v3l9.7 2.05 9.72-2.05zm-6.53-3.41h-6.37l3.17.7zm-6.37 9.78h6.37l-3.2-.7zm0 10.4h6.37l-3.2-.7zM211.17 333.4h-19.71v2.89l9.7 2.05 10-2.13h.05a.34.34 0 0 1 .31.34.28.28 0 0 1-.23.31l-8.55 1.82 4.78 1a.3.3 0 0 1 .26.31.3.3 0 0 1-.31.31h-12.58a.3.3 0 0 1-.31-.31.29.29 0 0 1 .23-.31l4.78-1-8.53-1.82a.31.31 0 0 1-.26-.31v-3.48a.33.33 0 0 1 .26-.31l8.53-1.82-4.78-1a.28.28 0 0 1-.23-.31.32.32 0 0 1 .31-.34h12.56a.32.32 0 0 1 .31.34.31.31 0 0 1-.26.31l-4.78 1 8.55 1.82a.31.31 0 0 1 .26.31.35.35 0 0 1-.36.33zm-10-2.13l-6.94 1.48h13.87zm3.2-1.35H198l3.17.7zm-6.37 9.77h6.37l-3.2-.7zM229.86 329.6a.34.34 0 0 1 .34-.34.32.32 0 0 1 .23.1l9.78 10.17 9.8-10.17a.29.29 0 0 1 .23-.08.32.32 0 0 1 .34.31.47.47 0 0 1-.1.23l-20 20.8a.29.29 0 0 1-.23.08.32.32 0 0 1-.34-.31.47.47 0 0 1 .1-.23l9.8-10.17-9.81-10.16a.47.47 0 0 1-.14-.23zM271.69 339.69a.3.3 0 0 1 .26.31.3.3 0 0 1-.31.31h-12.56a.3.3 0 0 1-.31-.31.29.29 0 0 1 .23-.31l4.78-1-8.53-1.82a.31.31 0 0 1-.26-.31v-3.48a.31.31 0 0 1 .26-.31l8.53-1.82-4.78-1a.28.28 0 0 1-.23-.31.32.32 0 0 1 .31-.34h12.56a.32.32 0 0 1 .31.34.31.31 0 0 1-.26.31l-4.78 1 8.55 1.82a.31.31 0 0 1 .26.31v3.48a.31.31 0 0 1-.26.31l-8.55 1.82zm3.38-3.41v-3l-9.72-2.05-9.7 2.05v3l9.7 2.05zm-6.53-6.37h-6.37l3.17.7zm-6.37 9.78h6.37l-3.2-.7zM302.51 336.28v-6.68a.32.32 0 0 1 .31-.34.34.34 0 0 1 .34.34v6.94a.31.31 0 0 1-.26.31l-8.55 1.82 4.78 1a.3.3 0 0 1 .26.31.3.3 0 0 1-.31.31h-12.56a.3.3 0 0 1-.31-.31.29.29 0 0 1 .23-.31l4.78-1-8.53-1.82a.31.31 0 0 1-.26-.31v-6.94a.32.32 0 0 1 .31-.34.34.34 0 0 1 .34.34v6.68l9.7 2.05zm-12.9 3.41H296l-3.2-.7zM322.09 329.6a.35.35 0 0 1 .36-.31.29.29 0 0 1 .26.16l5.72 9.91 5.75-9.91a.34.34 0 0 1 .57 0l5.75 9.91 5.75-9.91a.29.29 0 0 1 .26-.16.32.32 0 0 1 .34.31.37.37 0 0 1-.05.16l-6 10.4a.34.34 0 0 1-.57 0l-5.75-9.91-5.75 9.91a.33.33 0 0 1-.29.16.28.28 0 0 1-.26-.16l-6-10.4a.38.38 0 0 1-.09-.16zM372.36 333.4h-19.71v2.89l9.7 2.05 10-2.13h.05a.34.34 0 0 1 .31.34.28.28 0 0 1-.23.31l-8.55 1.82 4.78 1a.3.3 0 0 1 .26.31.3.3 0 0 1-.31.31h-12.58a.3.3 0 0 1-.31-.31.29.29 0 0 1 .23-.31l4.78-1-8.53-1.82a.31.31 0 0 1-.26-.31v-3.48a.33.33 0 0 1 .26-.31l8.53-1.82-4.78-1a.28.28 0 0 1-.23-.31.32.32 0 0 1 .31-.34h12.56a.32.32 0 0 1 .31.34.31.31 0 0 1-.26.31l-4.78 1 8.55 1.82a.31.31 0 0 1 .26.31.35.35 0 0 1-.36.33zm-10-2.13l-6.94 1.48h13.88zm3.2-1.35h-6.37l3.17.7zm-6.37 9.78h6.37l-3.2-.7zM380.29 329.6v3.07l12.9-2.76H392a.3.3 0 0 1-.31-.31.32.32 0 0 1 .31-.34h4.32a.32.32 0 0 1 .31.34.3.3 0 0 1-.26.31l-16 3.41V340a.3.3 0 0 1-.31.31.32.32 0 0 1-.34-.31v-10.4a.34.34 0 0 1 .34-.34.32.32 0 0 1 .23.34zM419.52 333.4h-19.71v2.89l9.7 2.05 10-2.13h.05a.34.34 0 0 1 .31.34.28.28 0 0 1-.23.31l-8.55 1.82 4.78 1a.3.3 0 0 1 .26.31.3.3 0 0 1-.31.31h-12.58a.3.3 0 0 1-.31-.31.29.29 0 0 1 .23-.31l4.78-1-8.53-1.82a.31.31 0 0 1-.26-.31v-3.48a.33.33 0 0 1 .26-.31l8.53-1.82-4.78-1a.28.28 0 0 1-.23-.31.32.32 0 0 1 .31-.34h12.56a.32.32 0 0 1 .31.34.31.31 0 0 1-.26.31l-4.78 1 8.55 1.82a.31.31 0 0 1 .26.31.35.35 0 0 1-.36.33zm-10-2.13l-6.94 1.48h13.88zm3.2-1.35h-6.37l3.17.7zm-6.37 9.78h6.37l-3.2-.7zM441.15 340v-20.8a.34.34 0 0 1 .34-.34.32.32 0 0 1 .31.34V340a.3.3 0 0 1-.31.31.32.32 0 0 1-.34-.31zM465.83 339.69a.3.3 0 0 1 .26.31.3.3 0 0 1-.31.31h-12.57a.3.3 0 0 1-.31-.31.29.29 0 0 1 .23-.31l4.78-1-8.53-1.82a.31.31 0 0 1-.26-.31v-3.48a.31.31 0 0 1 .26-.31l8.53-1.82-4.78-1a.28.28 0 0 1-.23-.31.32.32 0 0 1 .31-.34h12.56a.32.32 0 0 1 .31.34.31.31 0 0 1-.26.31l-4.78 1 8.55 1.82a.31.31 0 0 1 .26.31v3.48a.31.31 0 0 1-.26.31l-8.59 1.8zm3.38-3.41v-3l-9.72-2.05-9.7 2.05v3l9.7 2.05zm-6.53-6.37h-6.37l3.17.7zm-6.37 9.78h6.37l-3.2-.7zM493.12 339.69a.3.3 0 0 1 .26.31.3.3 0 0 1-.31.31h-12.56a.3.3 0 0 1-.31-.31.29.29 0 0 1 .23-.31l4.78-1-8.53-1.82a.31.31 0 0 1-.26-.31v-3.48a.31.31 0 0 1 .26-.31l8.53-1.82-4.78-1a.28.28 0 0 1-.23-.31.32.32 0 0 1 .31-.34h12.56a.32.32 0 0 1 .31.34.31.31 0 0 1-.26.31l-4.78 1 8.55 1.82a.31.31 0 0 1 .26.31v3.48a.31.31 0 0 1-.26.31l-8.55 1.82zm3.38-3.41v-3l-9.72-2.05-9.7 2.05v3l9.7 2.05zm-6.5-6.37h-6.4l3.17.7zm-6.37 9.78H490l-3.2-.7zM525 329.26a.37.37 0 0 1 .31.36.3.3 0 0 1-.23.29l-18.85 4.89 18.77 4.89a.3.3 0 0 1 .23.29.37.37 0 0 1-.31.36h-.08l-19.68-5.1V340a.3.3 0 0 1-.31.31.32.32 0 0 1-.34-.31v-20.8a.34.34 0 0 1 .34-.34.32.32 0 0 1 .31.34v15.18l19.68-5.1zM531.64 323.7v-1a.32.32 0 0 1 .34-.31.3.3 0 0 1 .31.31v1a.32.32 0 0 1-.31.34.34.34 0 0 1-.34-.34zm0 16.3v-10.4a.34.34 0 0 1 .34-.34.32.32 0 0 1 .31.34V340a.3.3 0 0 1-.31.31.32.32 0 0 1-.34-.31zM560.47 332.75a.31.31 0 0 1 .26.31V340a.32.32 0 0 1-.34.31.3.3 0 0 1-.31-.31v-6.68l-9.72-2.05-9.7 2.05V340a.3.3 0 0 1-.31.31.32.32 0 0 1-.35-.31v-10.4a.34.34 0 0 1 .34-.34.32.32 0 0 1 .31.34v3.07l8.14-1.74-4.76-1a.33.33 0 0 1-.26-.31.32.32 0 0 1 .31-.34h12.56a.32.32 0 0 1 .31.34.3.3 0 0 1-.26.31l-4.76 1zm-6.92-2.83h-6.37l3.17.7zM567.72 347.25a.3.3 0 0 1-.26-.31.34.34 0 0 1 .31-.34h.08l10 2.13 9.72-2.05v-9.75l-8.16 1.74 4.78 1a.3.3 0 0 1 .26.31.3.3 0 0 1-.31.31h-12.6a.3.3 0 0 1-.31-.31.29.29 0 0 1 .23-.31l4.78-1-8.53-1.82a.31.31 0 0 1-.26-.31v-3.48a.31.31 0 0 1 .26-.31l8.53-1.82-4.78-1a.28.28 0 0 1-.23-.31.32.32 0 0 1 .31-.34h12.56a.32.32 0 0 1 .31.34.31.31 0 0 1-.26.31l-4.78 1 8.16 1.74v-3.07a.32.32 0 0 1 .31-.34.34.34 0 0 1 .34.34v17.34a.31.31 0 0 1-.26.31l-8.55 1.82 4.78 1a.33.33 0 0 1 .26.31.32.32 0 0 1-.31.34h-12.56a.32.32 0 0 1-.31-.34.28.28 0 0 1 .23-.31l4.78-1zm19.81-13.94l-9.72-2.05-9.7 2.05v3l9.7 2.05 9.72-2.05zm-6.53-3.4h-6.37l3.17.7zm-6.37 9.78H581l-3.2-.7zm0 10.4H581l-3.2-.7zM626.19 318.86a.34.34 0 0 1 .31.34.3.3 0 0 1-.26.31l-16 3.41v6.34h16a.32.32 0 0 1 .31.34.3.3 0 0 1-.31.31h-16V340a.3.3 0 0 1-.31.31.32.32 0 0 1-.34-.31v-17.34a.31.31 0 0 1 .26-.31l16.3-3.46zM642.15 339.69a.3.3 0 0 1 .26.31.3.3 0 0 1-.31.31h-12.56a.3.3 0 0 1-.31-.31.29.29 0 0 1 .23-.31l4.78-1-8.53-1.82a.31.31 0 0 1-.26-.31v-3.48a.31.31 0 0 1 .26-.31l8.53-1.82-4.78-1a.28.28 0 0 1-.23-.31.32.32 0 0 1 .31-.34h12.56a.32.32 0 0 1 .31.34.31.31 0 0 1-.26.31l-4.78 1 8.55 1.82a.31.31 0 0 1 .26.31v3.48a.31.31 0 0 1-.26.31l-8.55 1.82zm3.38-3.41v-3l-9.72-2.05-9.7 2.05v3l9.7 2.05zm-6.53-6.37h-6.37l3.17.7zm-6.37 9.78H639l-3.2-.7zM654 329.6v3.07l12.9-2.76h-1.22a.3.3 0 0 1-.31-.31.32.32 0 0 1 .31-.34H670a.32.32 0 0 1 .31.34.3.3 0 0 1-.26.31l-16 3.41V340a.3.3 0 0 1-.31.31.32.32 0 0 1-.34-.31v-10.4a.34.34 0 0 1 .34-.34.32.32 0 0 1 .26.34zM215 375.2V396a.32.32 0 0 1-.34.31.3.3 0 0 1-.31-.31v-3.07l-8.16 1.74 4.78 1a.3.3 0 0 1 .26.31.3.3 0 0 1-.31.31h-12.54a.3.3 0 0 1-.31-.31.29.29 0 0 1 .23-.31l4.78-1-8.53-1.82a.31.31 0 0 1-.26-.31v-3.48a.31.31 0 0 1 .26-.31l8.53-1.82-4.78-1a.28.28 0 0 1-.23-.31.32.32 0 0 1 .31-.34h12.56a.32.32 0 0 1 .31.34.31.31 0 0 1-.26.31l-4.78 1 8.16 1.74V375.2a.32.32 0 0 1 .31-.34.34.34 0 0 1 .32.34zm-.65 14.12l-9.72-2.05-9.7 2.05v3l9.7 2.05 9.72-2.05zm-6.53-3.41h-6.37l3.17.7zm-6.37 9.78h6.37l-3.2-.7zM238.86 395.69a.3.3 0 0 1 .26.31.3.3 0 0 1-.31.31h-12.56a.3.3 0 0 1-.31-.31.29.29 0 0 1 .23-.31l4.78-1-8.53-1.82a.31.31 0 0 1-.26-.31v-3.48a.31.31 0 0 1 .26-.31l8.53-1.82-4.78-1a.28.28 0 0 1-.23-.31.32.32 0 0 1 .31-.34h12.56a.32.32 0 0 1 .31.34.31.31 0 0 1-.26.31l-4.78 1 8.55 1.82a.31.31 0 0 1 .26.31v3.48a.31.31 0 0 1-.26.31l-8.55 1.82zm3.38-3.41v-3l-9.72-2.05-9.7 2.05v3l9.7 2.05zm-6.53-6.37h-6.37l3.17.7zm-6.37 9.78h6.37l-3.2-.7zM269.82 389.4h-19.71v2.89l9.7 2.05 10-2.13h.05a.34.34 0 0 1 .31.34.28.28 0 0 1-.23.31l-8.55 1.82 4.78 1a.3.3 0 0 1 .26.31.3.3 0 0 1-.31.31h-12.58a.3.3 0 0 1-.31-.31.29.29 0 0 1 .23-.31l4.78-1-8.53-1.82a.31.31 0 0 1-.26-.31v-3.48a.33.33 0 0 1 .26-.31l8.53-1.82-4.78-1a.28.28 0 0 1-.23-.31.32.32 0 0 1 .31-.34h12.56a.32.32 0 0 1 .31.34.31.31 0 0 1-.26.31l-4.78 1 8.55 1.82a.31.31 0 0 1 .26.31.35.35 0 0 1-.36.33zm-10-2.13l-6.94 1.48h13.88zm3.2-1.35h-6.37l3.17.7zm-6.37 9.78H263l-3.2-.7zM277 392.85a.3.3 0 0 1-.26-.31.34.34 0 0 1 .31-.34h.08l10 2.13 8.32-1.77L277 389.4a.31.31 0 0 1-.26-.34.33.33 0 0 1 .26-.31l8.53-1.82-4.78-1a.28.28 0 0 1-.23-.31.32.32 0 0 1 .31-.34h12.56a.32.32 0 0 1 .31.34.31.31 0 0 1-.26.31l-4.78 1 8.55 1.82a.28.28 0 0 1 .23.31.34.34 0 0 1-.31.34h-.05l-10-2.13-8.3 1.73 18.41 3.17a.3.3 0 0 1 .26.31.32.32 0 0 1-.23.34l-8.55 1.82 4.78 1a.33.33 0 0 1 .26.31.3.3 0 0 1-.31.31h-12.56a.3.3 0 0 1-.31-.31.28.28 0 0 1 .23-.31l4.78-1zm13.29-6.94h-6.37l3.17.7zm-6.37 9.78h6.37l-3.2-.7zM338.69 388.75a.31.31 0 0 1 .26.31V396a.32.32 0 0 1-.34.31.3.3 0 0 1-.31-.31v-6.68l-9.72-2.05-9.7 2.05V396a.3.3 0 0 1-.31.31.32.32 0 0 1-.34-.31v-10.4a.34.34 0 0 1 .34-.34.32.32 0 0 1 .31.34v3.07l8.14-1.74-4.76-1a.33.33 0 0 1-.26-.31.32.32 0 0 1 .31-.34h12.56a.32.32 0 0 1 .31.34.3.3 0 0 1-.26.31l-4.76 1zm-6.92-2.83h-6.37l3.17.7zM362.37 395.69a.3.3 0 0 1 .26.31.3.3 0 0 1-.31.31h-12.56a.3.3 0 0 1-.31-.31.29.29 0 0 1 .23-.31l4.78-1-8.53-1.82a.31.31 0 0 1-.26-.31v-3.48a.31.31 0 0 1 .26-.31l8.53-1.82-4.78-1a.28.28 0 0 1-.23-.31.32.32 0 0 1 .31-.34h12.56a.32.32 0 0 1 .31.34.31.31 0 0 1-.26.31l-4.78 1 8.55 1.82a.31.31 0 0 1 .26.31v3.48a.31.31 0 0 1-.26.31l-8.55 1.82zm3.38-3.41v-3l-9.75-2.02-9.7 2.05v3l9.7 2.05zm-6.53-6.37h-6.37l3.17.7zm-6.37 9.78h6.37L356 395zM377.45 375.2v10.06h5.67a.34.34 0 0 1 .34.34.32.32 0 0 1-.34.31h-5.67V396a.32.32 0 0 1-.34.31.3.3 0 0 1-.31-.31v-10.09h-5.67a.32.32 0 0 1-.34-.31.34.34 0 0 1 .34-.34h5.67V375.2a.32.32 0 0 1 .31-.34.34.34 0 0 1 .34.34zM422.17 389.4h-19.71v2.89l9.7 2.05 10-2.13h.05a.34.34 0 0 1 .31.34.28.28 0 0 1-.23.31l-8.55 1.82 4.78 1a.3.3 0 0 1 .26.31.3.3 0 0 1-.31.31h-12.58a.3.3 0 0 1-.31-.31.29.29 0 0 1 .23-.31l4.78-1-8.53-1.82a.31.31 0 0 1-.26-.31v-3.48a.33.33 0 0 1 .26-.31l8.53-1.82-4.78-1a.28.28 0 0 1-.23-.31.32.32 0 0 1 .31-.34h12.56a.32.32 0 0 1 .31.34.31.31 0 0 1-.26.31l-4.78 1 8.55 1.82a.31.31 0 0 1 .26.31.35.35 0 0 1-.36.33zm-10-2.13l-6.94 1.48h13.87zm3.2-1.35H409l3.17.7zm-6.37 9.77h6.37l-3.2-.7zM427.53 385.63a.35.35 0 0 1 .31-.36.38.38 0 0 1 .16.05l9.88 5.12 9.88-5.12a.38.38 0 0 1 .16-.05.35.35 0 0 1 .31.36.25.25 0 0 1-.16.26l-9.49 4.91 9.49 4.91a.25.25 0 0 1 .16.26.35.35 0 0 1-.31.36.38.38 0 0 1-.16-.05l-9.88-5.12-9.88 5.13a.38.38 0 0 1-.16.05.35.35 0 0 1-.31-.36.25.25 0 0 1 .16-.26l9.49-4.91-9.49-4.91a.25.25 0 0 1-.16-.27zM454.89 379.7v-1a.32.32 0 0 1 .34-.31.3.3 0 0 1 .31.31v1a.32.32 0 0 1-.31.34.34.34 0 0 1-.34-.34zm0 16.3v-10.4a.34.34 0 0 1 .34-.34.32.32 0 0 1 .31.34V396a.3.3 0 0 1-.31.31.32.32 0 0 1-.34-.31zM462.73 392.85a.3.3 0 0 1-.26-.31.34.34 0 0 1 .31-.34h.08l10 2.13 8.32-1.77-18.41-3.17a.31.31 0 0 1-.26-.34.33.33 0 0 1 .26-.31l8.53-1.82-4.78-1a.28.28 0 0 1-.23-.31.32.32 0 0 1 .31-.34h12.56a.32.32 0 0 1 .31.34.31.31 0 0 1-.26.31l-4.78 1 8.55 1.82a.28.28 0 0 1 .23.31.34.34 0 0 1-.31.34h-.05l-10-2.13-8.35 1.74 18.41 3.17a.3.3 0 0 1 .26.31.32.32 0 0 1-.23.34l-8.55 1.82 4.78 1a.33.33 0 0 1 .26.31.3.3 0 0 1-.31.31h-12.57a.3.3 0 0 1-.31-.31.28.28 0 0 1 .23-.31l4.78-1zm13.27-6.94h-6.37l3.17.7zm-6.37 9.78H476l-3.2-.7zM494.24 375.2v10.06h5.67a.34.34 0 0 1 .34.34.32.32 0 0 1-.34.31h-5.67V396a.32.32 0 0 1-.34.31.3.3 0 0 1-.31-.31v-10.09h-5.67a.32.32 0 0 1-.34-.31.34.34 0 0 1 .34-.34h5.67V375.2a.32.32 0 0 1 .31-.34.34.34 0 0 1 .34.34zM504 396v-1a.3.3 0 0 1 .31-.31.32.32 0 0 1 .34.31v1a.32.32 0 0 1-.34.31.3.3 0 0 1-.31-.31z"/></g></svg>