<svg xmlns="http://www.w3.org/2000/svg" viewBox="0 0 700 500"><path fill="#f2f2f2" d="M0 0h700v500H0z" data-name="Ebene 1"/><g data-name="Ebene 2"><path d="M48.62 209.95V138a1.18 1.18 0 0 1 1.17-1.08 1 1 0 0 1 .72.27l40.95 35.28 40.95-35.28a1 1 0 0 1 .72-.27 1.12 1.12 0 0 1 1.17 1.08v72a1 1 0 0 1-1.08 1.08 1.12 1.12 0 0 1-1.17-1.08v-69.62l-39.87 34.38a1.09 1.09 0 0 1-1.44 0l-39.87-34.38v69.57a1 1 0 0 1-1.08 1.05 1.12 1.12 0 0 1-1.17-1.05zM221.75 187.09h-68.22v10l33.57 7.11 34.56-7.38h.18a1.17 1.17 0 0 1 1.08 1.17 1 1 0 0 1-.81 1.08l-29.61 6.3 16.56 3.51a1.05 1.05 0 0 1 .9 1.08 1 1 0 0 1-1.08 1.08h-43.47a1 1 0 0 1-1.08-1.08 1 1 0 0 1 .81-1.08l16.56-3.51-29.52-6.3a1.07 1.07 0 0 1-.9-1.08v-12.07a1.16 1.16 0 0 1 .9-1.08l29.52-6.3-16.56-3.54a1 1 0 0 1-.81-1.08 1.11 1.11 0 0 1 1.08-1.17h43.47a1.11 1.11 0 0 1 1.08 1.17 1.07 1.07 0 0 1-.9 1.08l-16.56 3.51 29.61 6.3a1.07 1.07 0 0 1 .9 1.08 1.21 1.21 0 0 1-1.26 1.2zm-34.65-7.38l-24 5.13h48.06zm11.07-4.71h-22l11 2.43zm-22 33.84h22l-11.07-2.43zM240.3 173.95v10.62l44.64-9.57h-4.23a1 1 0 0 1-1.08-1.08 1.12 1.12 0 0 1 1.08-1.17h14.94a1.11 1.11 0 0 1 1.08 1.17 1.05 1.05 0 0 1-.9 1.08l-55.53 11.82v23.13a1 1 0 0 1-1.08 1.08 1.12 1.12 0 0 1-1.17-1.08v-36a1.19 1.19 0 0 1 1.17-1.17 1.12 1.12 0 0 1 1.08 1.17zM374.71 184.84a1.07 1.07 0 0 1 .9 1.08v24a1 1 0 0 1-1.08 1.08 1.12 1.12 0 0 1-1.17-1.08v-23.1l-33.57-7.11-33.66 7.11v23.13A1 1 0 0 1 305 211a1.12 1.12 0 0 1-1.17-1.08V138a1.19 1.19 0 0 1 1.17-1.17 1.12 1.12 0 0 1 1.08 1.17v46.62l28.26-6-16.51-3.62a1.14 1.14 0 0 1-.9-1.08 1.11 1.11 0 0 1 1.08-1.17h43.47a1.11 1.11 0 0 1 1.08 1.17 1 1 0 0 1-.81 1.08l-16.56 3.51zM350.77 175h-22l11.07 2.43zM461.85 173.95v36a1.12 1.12 0 0 1-1.17 1.08 1 1 0 0 1-1.08-1.08v-10.62l-28.26 6 16.56 3.51a1.14 1.14 0 0 1 .9 1.08 1 1 0 0 1-1.08 1.08h-43.47a1 1 0 0 1-1.08-1.08 1 1 0 0 1 .81-1.08l16.56-3.51-29.54-6.27a1.07 1.07 0 0 1-.9-1.08v-12.06a1.07 1.07 0 0 1 .9-1.08l29.52-6.3L404 175a1.06 1.06 0 0 1-.81-1.08 1.11 1.11 0 0 1 1.08-1.17h43.47a1.11 1.11 0 0 1 1.08 1.17 1.05 1.05 0 0 1-.9 1.08l-16.56 3.51 28.26 6v-10.56a1.12 1.12 0 0 1 1.08-1.17 1.19 1.19 0 0 1 1.15 1.17zm-35.91 5.76l-33.57 7.11v10.26l33.57 7.11 33.66-7.11v-10.26zM437 175h-22l11 2.43zm-22 33.84h22l-11.07-2.43zM482.8 138v46.62l28.26-6L494.5 175a1.05 1.05 0 0 1-.9-1.08 1.11 1.11 0 0 1 1.08-1.17h43.47a1.11 1.11 0 0 1 1.08 1.17 1 1 0 0 1-.81 1.08l-16.56 3.51 29.52 6.3a1.16 1.16 0 0 1 .9 1.08V198a1.07 1.07 0 0 1-.9 1.08l-29.52 6.3 16.56 3.51a1 1 0 0 1 .81 1.08 1 1 0 0 1-1.08 1.08h-43.47a1 1 0 0 1-1.08-1.08 1.07 1.07 0 0 1 .9-1.08l16.56-3.51-28.26-6V210a1 1 0 0 1-1.08 1.08 1.12 1.12 0 0 1-1.17-1.08v-72a1.19 1.19 0 0 1 1.17-1.17 1.12 1.12 0 0 1 1.08 1.17zm67.2 59.08v-10.26l-33.57-7.11-33.66 7.11v10.26l33.66 7.11zm-22.59-22h-22l11.07 2.43zm-22 33.84h22l-11-2.43zM638 173.95v36a1.12 1.12 0 0 1-1.2 1.05 1 1 0 0 1-1.08-1.08v-10.59l-28.26 6 16.54 3.54a1.14 1.14 0 0 1 .9 1.08 1 1 0 0 1-1.08 1.08h-43.45a1 1 0 0 1-1.08-1.08 1 1 0 0 1 .81-1.08l16.56-3.51-29.52-6.3a1.07 1.07 0 0 1-.9-1.08v-12.06a1.07 1.07 0 0 1 .9-1.08l29.52-6.3L580.1 175a1.06 1.06 0 0 1-.81-1.08 1.11 1.11 0 0 1 1.08-1.17h43.47a1.11 1.11 0 0 1 1.08 1.17A1.05 1.05 0 0 1 624 175l-16.56 3.51 28.26 6v-10.56a1.12 1.12 0 0 1 1.08-1.17 1.19 1.19 0 0 1 1.22 1.17zm-35.91 5.76l-33.57 7.11v10.26l33.57 7.11 33.66-7.11v-10.26zm11.04-4.71h-22l11 2.43zm-22 33.84h22l-11.07-2.43zM127.18 318a1.25 1.25 0 0 1 1.17-1.17h13c.09 0 .18.09.27.09l56.43 12a1.07 1.07 0 0 1 .9 1.08v48a1.07 1.07 0 0 1-.9 1.08l-56.43 12h-13.27a1.18 1.18 0 0 1-1.17-1.08zm14 70.92l55.44-11.79v-46.31L141.22 319h-11.79v69.84zM284.82 377.08v-23.13a1.12 1.12 0 0 1 1.08-1.17 1.19 1.19 0 0 1 1.17 1.17v24a1.07 1.07 0 0 1-.9 1.08l-29.61 6.3 16.56 3.51a1.05 1.05 0 0 1 .9 1.08 1 1 0 0 1-1.08 1.08h-43.47a1 1 0 0 1-1.08-1.08 1 1 0 0 1 .81-1.08l16.56-3.51-29.52-6.3a1.07 1.07 0 0 1-.9-1.08v-24a1.12 1.12 0 0 1 1.08-1.17 1.19 1.19 0 0 1 1.17 1.17v23.13l33.57 7.11zm-52.11-43.56v-3.6a1 1 0 0 1 1.08-1.08 1.12 1.12 0 0 1 1.17 1.08v3.6a1.19 1.19 0 0 1-1.17 1.17 1.12 1.12 0 0 1-1.08-1.17zm7.47 55.35h22l-11.07-2.43zm27.27-55.35v-3.6a1 1 0 0 1 1.08-1.08 1.12 1.12 0 0 1 1.17 1.08v3.6a1.19 1.19 0 0 1-1.17 1.17 1.12 1.12 0 0 1-1.08-1.17zM374.5 364.84a1.07 1.07 0 0 1 .9 1.08v24a1.12 1.12 0 0 1-1.17 1.08 1 1 0 0 1-1.08-1.08v-23.1l-33.66-7.11-33.57 7.11v23.13a1 1 0 0 1-1.08 1.08 1.12 1.12 0 0 1-1.17-1.08v-36a1.19 1.19 0 0 1 1.17-1.17 1.12 1.12 0 0 1 1.08 1.17v10.62l28.17-6-16.47-3.57a1.14 1.14 0 0 1-.9-1.08 1.11 1.11 0 0 1 1.08-1.17h43.47a1.11 1.11 0 0 1 1.08 1.17 1.05 1.05 0 0 1-.9 1.08L345 358.54zM350.56 355h-22l11 2.43zM381.83 353.95a1.19 1.19 0 0 1 1.17-1.17 1.1 1.1 0 0 1 .81.36l33.84 35.19 33.93-35.19a1 1 0 0 1 .81-.27 1.12 1.12 0 0 1 1.17 1.08 1.61 1.61 0 0 1-.36.81l-69.39 72a1 1 0 0 1-.81.27 1.12 1.12 0 0 1-1.17-1.08 1.62 1.62 0 0 1 .36-.81l33.93-35.19-33.93-35.19a1.62 1.62 0 0 1-.36-.81zM531.68 353.95v36a1.12 1.12 0 0 1-1.17 1.08 1 1 0 0 1-1.08-1.08v-10.62l-28.26 6 16.56 3.51a1.14 1.14 0 0 1 .9 1.08 1 1 0 0 1-1.08 1.08h-43.47a1 1 0 0 1-1.08-1.08 1 1 0 0 1 .81-1.08l16.56-3.51-29.52-6.3A1.07 1.07 0 0 1 460 378v-12.08a1.07 1.07 0 0 1 .9-1.08l29.52-6.3-16.61-3.54a1.06 1.06 0 0 1-.81-1.08 1.11 1.11 0 0 1 1.08-1.17h43.47a1.11 1.11 0 0 1 1.08 1.17 1.05 1.05 0 0 1-.9 1.08l-16.56 3.51 28.26 6v-10.56a1.12 1.12 0 0 1 1.08-1.17 1.19 1.19 0 0 1 1.17 1.17zm-35.91 5.76l-33.57 7.11v10.26l33.57 7.11 33.66-7.11v-10.26zm11.07-4.71h-22l11 2.43zm-22 33.84h22l-11.07-2.43zM551.68 365.92V318a1.19 1.19 0 0 1 1.17-1.17 1.12 1.12 0 0 1 1.08 1.17v48a1.12 1.12 0 0 1-1.08 1.17 1.19 1.19 0 0 1-1.17-1.25zm0 24v-3.6a1.12 1.12 0 0 1 1.17-1.08 1 1 0 0 1 1.08 1.08v3.6a1 1 0 0 1-1.08 1.08 1.12 1.12 0 0 1-1.17-1.05z"/></g></svg>