<svg xmlns="http://www.w3.org/2000/svg" viewBox="0 0 700 500"><path fill="#f2f2f2" d="M0 0h700v500H0z" data-name="Ebene 1"/><g data-name="Ebene 2"><path d="M215.14 86.44l7.41-5.2H273l-7.28 5.2h-17.94v120.9l-7.28 5.2V86.44zM278.05 191.49v-21.06l7.41-5.07 17-9.88-10.27-6 7.28-5.2h22.36l-7.41 5.2-3 1.69 24.44 14.17-7.28 5.07h-43.12v16L310.68 201l25.22-14.56-7.28 5.07-17.16 9.88 10.4 6-7.41 5.2h-22.23l7.28-5.2 3-1.69zm9-26.13h32.63l-16.38-9.49zM303.27 206l-2.21 1.3h4.55zm7.41-55.25l2.21-1.3h-4.42zM363.56 166.27v41.08l-7.28 5.2V149.5l7.28-5.2v21.06l27.56-15.86h-4.68l7.41-5.2H400l-7.28 5.2zM405.44 191.49v-21.06l7.41-5.07 17-9.88-10.27-6 7.28-5.2h22.36l-7.41 5.2-3 1.69 24.44 14.17-7.25 5.09h-43.15v16L438.07 201l25.22-14.56-7.29 5.05-17.16 9.88 10.4 6-7.41 5.2h-22.22l7.28-5.2 3-1.69zm9-26.13H447l-16.38-9.49zM430.66 206l-2.21 1.3H433zm7.41-55.25l2.21-1.3h-4.42zM140.68 387.35l-7.28 5.2V266.44l7.28-5.2 28 58 25.32-52.8 7.41-5.2v126.1l-7.41 5.2v-116l-23 47.76-7.28 5.2-23-47.84zM273.44 341.07V329.5l7.28-5.2v63.05l-7.28 5.2v-21.06l-17.16 9.88 10.4 6-7.41 5.2H237l7.28-5.2 3-1.69-24.44-14.17v-21.08l7.41-5.07 17-9.88-10.27-6 7.28-5.2h22.36l-7.41 5.2-3 1.69zm0 29.51v-20.15l-25.35-14.56-17.81 10.4v20.15L255.5 381zM248.09 386l-2.21 1.3h4.55zm7.41-55.25l2.21-1.3h-4.42zM353.39 341.07V329.5l7.28-5.2v63.05l-7.28 5.2v-21.06l-17.16 9.88 10.4 6-7.41 5.2H317l7.28-5.2 3-1.69-24.44-14.17v-21.08l7.41-5.07 17-9.88-10.27-6 7.28-5.2h22.36l-7.41 5.2-3 1.69zm0 29.51v-20.15L328 335.87l-17.81 10.4v20.15L335.45 381zM328 386l-2.21 1.3h4.55zm7.41-55.25l2.21-1.3h-4.42zM385.71 287.37l7.41-5.07v6.24l-7.41 5.2zm0 42.12l7.41-5.2v63.05l-7.41 5.2zM418.48 266.44l7.41-5.2v126.1l-7.41 5.2zM458.33 387.35l-7.28 5.2V329.5l7.28-5.2v16l7.93-10.79 7.28-5.2 13.39 18.46 9.62-13.26 7.28-5.2L519 345.36v42l-7.41 5.2v-42.13L498.38 332l-9.62 13.39v42l-7.41 5.2v-42.16L468.08 332l-9.75 13.39zM541.39 266.44l7.41-5.2v84.11l-7.41 5.07zm0 119.73l7.41-5.07v6.24l-7.41 5.2z"/></g></svg>