<svg xmlns="http://www.w3.org/2000/svg" viewBox="0 0 700 500"><path fill="#f2f2f2" d="M0 0h700v500H0z" data-name="Ebene 1"/><g data-name="Ebene 2"><path d="M245.44 73.44h49.79v143h-49.79zm48.49 13h-47.19v52h47.19zm-47.19 65v52h47.19v-52zM369.8 216.45h-49.92v-78h49.92zm-1.3-65h-47.32v52h47.32zM445 203.45v13h-1.3l-47.19-31.59v31.59h-1.3v-143h1.3V170l47.19-31.59h1.3v13l-38.87 26zM140.8 383.45H188v-30.29l-48.5-43.43v-56.29h49.79v34.71H188v-21.71h-47.2v30.29l48.49 43.42v56.29H139.5v-34.7h1.3zM258.44 318.44h1.3v13l-24.31 65h-1.3l-24.18-65v-13h1.3l23.53 63.31zM282.51 275.15h1.3v19.5h-1.3zm0 43.29h1.3v78h-1.3zM310.2 275.15h1.3v19.5h-1.3zm0 43.29h1.3v143h-1.3zM385.87 353.16h-48.62v30.29h47.32v-21.71h1.3v34.71H336v-78h49.92zm-1.3-21.71h-47.32v8.71h47.32zM423.7 396.45h-1.3v-65H408v-13h14.4v-65h1.3v65h14.56v13H423.7zM510.07 353.16h-48.62v30.29h47.32v-21.71h1.3v34.71h-49.92v-78h49.92zm-1.3-21.71h-47.32v8.71h47.32zM537.11 253.44h1.3v99.71h-1.3zm0 123.5h1.3v19.5h-1.3z"/></g></svg>