<svg xmlns="http://www.w3.org/2000/svg" viewBox="0 0 700 500"><path fill="#f2f2f2" d="M0 0h700v500H0z" data-name="Ebene 1"/><g data-name="Ebene 2"><path d="M153.27 186.19a4.71 4.71 0 0 1 2.16.48l35.16 17.88L223.11 188v-13.09l-72-36.72a4.74 4.74 0 0 1-2.64-4.2v-19.08a4.68 4.68 0 0 1 2.64-4.2l37.32-19.08a4.71 4.71 0 0 1 2.16-.48h.12a4.4 4.4 0 0 1 2.16.48l37.32 19.08a4.81 4.81 0 0 1-4.44 8.52l-35.16-17.88-32.52 16.56V131l72.12 36.72a4.58 4.58 0 0 1 2.52 4.2V191a4.62 4.62 0 0 1-2.52 4.2l-37.32 19.08a4.4 4.4 0 0 1-2.16.48h-.12a4.71 4.71 0 0 1-2.16-.48l-37.32-19.08a4.78 4.78 0 0 1-2.64-4.32 4.71 4.71 0 0 1 4.8-4.69zM333.74 152.95v57a4.8 4.8 0 1 1-9.6 0v-11.16l-30.24 15.48a4.71 4.71 0 0 1-2.16.48h-.12a4.87 4.87 0 0 1-2.28-.48l-37.2-19.08a4.73 4.73 0 0 1-2.64-4.2v-19.08a4.68 4.68 0 0 1 2.64-4.2l37.2-19.08a5.19 5.19 0 0 1 2.28-.48h.12a4.39 4.39 0 0 1 2.16.48l30.24 15.48v-11.16a4.8 4.8 0 1 1 9.6 0zm-42.12 5.4l-32.52 16.56V188l32.52 16.56L324.14 188v-13.09zM357 209.95V96a4.8 4.8 0 0 1 9.6 0v114a4.8 4.8 0 1 1-9.6 0zM397.75 152.95v35l32.52 16.56L462.79 188v-35a4.8 4.8 0 1 1 9.6 0v38a4.74 4.74 0 0 1-2.64 4.2l-37.2 19.08a4.4 4.4 0 0 1-2.16.48h-.12a5.21 5.21 0 0 1-2.28-.48l-37.2-19.08a4.68 4.68 0 0 1-2.64-4.2v-38a4.8 4.8 0 0 1 9.6 0zM518.21 96v52.2h17.52a4.8 4.8 0 1 1 0 9.6h-17.52V210a4.8 4.8 0 1 1-9.6 0v-52.2h-17.52a4.8 4.8 0 1 1 0-9.6h17.52V96a4.8 4.8 0 0 1 9.6 0zM204.85 394.75H130.1a4.89 4.89 0 0 1-4.8-4.8V276a4.8 4.8 0 0 1 9.6 0v109.2h70a4.8 4.8 0 0 1 0 9.6zM227.54 332.95v35l32.52 16.56L292.57 368v-35a4.8 4.8 0 1 1 9.6 0v38a4.74 4.74 0 0 1-2.64 4.2l-37.2 19.08a4.4 4.4 0 0 1-2.16.48h-.12a5.21 5.21 0 0 1-2.28-.48l-37.2-19.08a4.68 4.68 0 0 1-2.64-4.2v-38a4.8 4.8 0 1 1 9.6 0zM323.17 389.95v-57a4.8 4.8 0 1 1 9.6 0v8.64l14.64-12.36a4.61 4.61 0 0 1 3-1.08 4.7 4.7 0 0 1 3.12 1.08l19.32 16.44 19.32-16.44a4.93 4.93 0 0 1 3.12-1.08 4.7 4.7 0 0 1 3.12 1.08l22.44 19.08a4.86 4.86 0 0 1 1.68 3.6v38a4.8 4.8 0 1 1-9.6 0v-35.72l-17.64-15-17.64 15v35.76a4.8 4.8 0 0 1-9.6 0v-35.76l-17.64-15-17.64 15v35.76a4.8 4.8 0 0 1-9.6 0zM524.49 370.87a4.78 4.78 0 0 1-2.64 4.32l-37.2 19.08a4.4 4.4 0 0 1-2.16.48h-.12a5.21 5.21 0 0 1-2.28-.48l-37.2-19.08a4.68 4.68 0 0 1-2.64-4.2v-19.08a4.76 4.76 0 0 1 2.64-4.2l37.2-19.08a4.86 4.86 0 0 1 2.28-.48h.12a4.7 4.7 0 0 1 2.16.48l37.2 19.08a4.62 4.62 0 0 1 2.64 4.2 4.74 4.74 0 0 1-4.8 4.8h-69.83V368l32.52 16.56 35.16-17.88a4.86 4.86 0 0 1 7 4.2zm-42.12-32.52L465 347.11h34.8zM545.94 351.91V276a4.8 4.8 0 0 1 9.6 0v76a4.8 4.8 0 1 1-9.6 0zm0 38v-5.64a4.8 4.8 0 1 1 9.6 0v5.64a4.8 4.8 0 0 1-9.6 0z"/></g></svg>