<svg xmlns="http://www.w3.org/2000/svg" viewBox="0 0 700 500"><path fill="#f2f2f2" d="M0 0h700v500H0z" data-name="Ebene 1"/><g data-name="Ebene 2"><path d="M268.54 135.26a1.29 1.29 0 0 1 1.1 1.32 1.43 1.43 0 0 1-1.32 1.43H268l-42.24-9-41 8.69v56.54l41 8.69 42.24-9h.33a1.44 1.44 0 0 1 1.32 1.43 1.29 1.29 0 0 1-1.1 1.32l-36.08 7.7 20.13 4.29a1.4 1.4 0 0 1 1.1 1.32 1.27 1.27 0 0 1-1.32 1.32h-53.14a1.27 1.27 0 0 1-1.32-1.32 1.29 1.29 0 0 1 1.1-1.32l20.13-4.29-36.08-7.7a1.31 1.31 0 0 1-1.1-1.32v-58.78a1.31 1.31 0 0 1 1.1-1.32l36.08-7.7-20.15-4.29a1.39 1.39 0 0 1-1.1-1.32 1.36 1.36 0 0 1 1.32-1.43h53.13a1.36 1.36 0 0 1 1.32 1.43 1.29 1.29 0 0 1-1.1 1.32l-20.13 4.29zm-29.26-12h-27l13.42 3zm-27 85.36h27l-13.53-3zM288.17 141v-4.4a1.36 1.36 0 0 1 1.43-1.32 1.27 1.27 0 0 1 1.32 1.32v4.4a1.36 1.36 0 0 1-1.32 1.43 1.46 1.46 0 0 1-1.43-1.43zm0 69v-44a1.46 1.46 0 0 1 1.43-1.43 1.36 1.36 0 0 1 1.32 1.43v44a1.27 1.27 0 0 1-1.32 1.32 1.36 1.36 0 0 1-1.43-1.37zM398 165.95v44a1.36 1.36 0 0 1-1.43 1.32 1.27 1.27 0 0 1-1.32-1.32V197l-34.54 7.37 20.29 4.26a1.39 1.39 0 0 1 1.1 1.32 1.27 1.27 0 0 1-1.32 1.32h-53.16a1.27 1.27 0 0 1-1.32-1.32 1.19 1.19 0 0 1 1-1.32l20.24-4.29-36.08-7.7a1.3 1.3 0 0 1-1.1-1.32v-14.74a1.31 1.31 0 0 1 1.1-1.32l36.08-7.7-20.24-4.29a1.29 1.29 0 0 1-1-1.32 1.36 1.36 0 0 1 1.32-1.43h53.13a1.36 1.36 0 0 1 1.32 1.43 1.29 1.29 0 0 1-1.1 1.32l-20.24 4.29 34.54 7.37v-13a1.36 1.36 0 0 1 1.32-1.43 1.46 1.46 0 0 1 1.41 1.45zm-43.89 7l-41 8.69v12.54l41 8.69 41.14-8.69v-12.5zm13.53-5.72h-27l13.42 3zm-27 41.36h27l-13.53-3zM488.09 208.63a1.29 1.29 0 0 1 1.1 1.32 1.27 1.27 0 0 1-1.32 1.32h-53.13a1.27 1.27 0 0 1-1.32-1.32 1.22 1.22 0 0 1 1-1.32l20.24-4.29-36.08-7.7a1.3 1.3 0 0 1-1.1-1.32v-14.74a1.31 1.31 0 0 1 1.1-1.32l36.08-7.7-20.24-4.29a1.19 1.19 0 0 1-1-1.32 1.36 1.36 0 0 1 1.32-1.43h53.13a1.36 1.36 0 0 1 1.32 1.43 1.3 1.3 0 0 1-1.1 1.32l-20.24 4.29 36.19 7.7a1.31 1.31 0 0 1 1.1 1.32v14.74a1.3 1.3 0 0 1-1.1 1.32l-36.19 7.7zm14.3-14.41v-12.54L461.25 173l-41 8.69v12.54l41 8.69zm-27.61-27h-27l13.42 3zm-27 41.36h27l-13.53-3zM61.29 389.95v-88a1.44 1.44 0 0 1 1.43-1.32 1.25 1.25 0 0 1 .88.33l50 43.12L163.7 301a1.25 1.25 0 0 1 .88-.33 1.36 1.36 0 0 1 1.43 1.32v88a1.27 1.27 0 0 1-1.32 1.32 1.36 1.36 0 0 1-1.43-1.32v-85l-48.73 42a1.34 1.34 0 0 1-1.76 0L64 304.92v85a1.27 1.27 0 0 1-1.32 1.32 1.36 1.36 0 0 1-1.39-1.29zM257.38 388.63a1.29 1.29 0 0 1 1.1 1.32 1.27 1.27 0 0 1-1.32 1.32H204a1.27 1.27 0 0 1-1.32-1.32 1.22 1.22 0 0 1 1-1.32l20.24-4.29-36.08-7.7a1.3 1.3 0 0 1-1.1-1.32v-14.74a1.31 1.31 0 0 1 1.1-1.32l36.08-7.7-20.24-4.29a1.19 1.19 0 0 1-1-1.32 1.36 1.36 0 0 1 1.32-1.43h53.13a1.36 1.36 0 0 1 1.32 1.43 1.3 1.3 0 0 1-1.1 1.32l-20.24 4.29 36.19 7.7a1.31 1.31 0 0 1 1.1 1.32v14.74a1.3 1.3 0 0 1-1.1 1.32l-36.19 7.7zm14.3-14.41v-12.54L230.54 353l-41 8.69v12.54l41 8.69zm-27.61-27h-27l13.42 3zm-27 41.36h27l-13.53-3zM380.39 359.26a1.31 1.31 0 0 1 1.1 1.32v29.37a1.36 1.36 0 0 1-1.43 1.32 1.27 1.27 0 0 1-1.32-1.32v-28.27L337.6 353l-41 8.69v28.27a1.27 1.27 0 0 1-1.32 1.32 1.36 1.36 0 0 1-1.43-1.32v-44a1.46 1.46 0 0 1 1.43-1.43 1.36 1.36 0 0 1 1.32 1.43v13l34.4-7.4-20.13-4.29a1.39 1.39 0 0 1-1.1-1.32 1.36 1.36 0 0 1 1.32-1.43h53.13a1.36 1.36 0 0 1 1.32 1.43 1.29 1.29 0 0 1-1.1 1.32l-20.13 4.29zm-29.26-12h-27l13.42 3zM486.9 301.95v88a1.36 1.36 0 0 1-1.43 1.32 1.27 1.27 0 0 1-1.32-1.32V377l-34.54 7.37 20.24 4.29a1.29 1.29 0 0 1 1.1 1.32 1.27 1.27 0 0 1-1.32 1.32H416.5a1.27 1.27 0 0 1-1.32-1.32 1.22 1.22 0 0 1 1-1.32l20.24-4.29-36.08-7.7a1.3 1.3 0 0 1-1.1-1.32v-14.77a1.31 1.31 0 0 1 1.1-1.32l36.08-7.7-20.24-4.29a1.19 1.19 0 0 1-1-1.32 1.36 1.36 0 0 1 1.32-1.43h53.13a1.36 1.36 0 0 1 1.32 1.43 1.3 1.3 0 0 1-1.1 1.32l-20.24 4.29 34.54 7.37v-57a1.36 1.36 0 0 1 1.32-1.43 1.46 1.46 0 0 1 1.43 1.45zm-2.75 59.73L443 353l-41 8.69v12.54l41 8.69 41.14-8.69zm-27.61-14.41h-27l13.42 3zm-27 41.36h27l-13.53-3zM577 388.63a1.29 1.29 0 0 1 1.1 1.32 1.27 1.27 0 0 1-1.32 1.32h-53.16a1.27 1.27 0 0 1-1.32-1.32 1.22 1.22 0 0 1 1-1.32l20.24-4.29-36.08-7.7a1.3 1.3 0 0 1-1.1-1.32v-14.74a1.31 1.31 0 0 1 1.1-1.32l36.08-7.7-20.24-4.29a1.19 1.19 0 0 1-1-1.32 1.36 1.36 0 0 1 1.32-1.43h53.13a1.36 1.36 0 0 1 1.32 1.43 1.3 1.3 0 0 1-1.1 1.32l-20.24 4.29 36.19 7.7a1.31 1.31 0 0 1 1.1 1.32v14.74a1.3 1.3 0 0 1-1.1 1.32l-36.19 7.7zm14.3-14.41v-12.54L550.13 353l-41 8.69v12.54l41 8.69zm-27.61-27h-27l13.42 3zm-27 41.36h27l-13.53-3zM616.25 360.58v-58.63a1.46 1.46 0 0 1 1.43-1.43 1.36 1.36 0 0 1 1.32 1.43v58.63a1.36 1.36 0 0 1-1.32 1.43 1.46 1.46 0 0 1-1.43-1.43zm0 29.37v-4.4a1.36 1.36 0 0 1 1.43-1.32 1.27 1.27 0 0 1 1.32 1.32v4.4a1.27 1.27 0 0 1-1.32 1.32 1.36 1.36 0 0 1-1.43-1.32z"/></g></svg>