<svg xmlns="http://www.w3.org/2000/svg" viewBox="0 0 700 500"><path fill="#f2f2f2" d="M0 0h700v500H0z" data-name="Ebene 1"/><g data-name="Ebene 2"><path d="M252.3 209.95v-95a4 4 0 1 1 8 0v43.5h54.3v-43.5a4 4 0 0 1 8 0v95a4 4 0 0 1-8 0v-43.5h-54.3v43.5a4 4 0 1 1-8 0zM409.5 194a4 4 0 0 1-2.2 3.6l-31 15.9a3.66 3.66 0 0 1-1.8.4h-.1a4.33 4.33 0 0 1-1.9-.4l-31-15.9a3.9 3.9 0 0 1-2.2-3.5v-15.9a4 4 0 0 1 2.2-3.5l31-15.9a4.06 4.06 0 0 1 1.9-.4h.1a3.92 3.92 0 0 1 1.8.4l31 15.9a3.85 3.85 0 0 1 2.2 3.5 4 4 0 0 1-4 4h-58.2v9.4l27.1 13.8 29.3-14.9a4 4 0 0 1 5.8 3.5zm-35.1-27.1l-14.5 7.3h29zM425.5 135.54v-4.8a4 4 0 0 1 8 0v4.8a4 4 0 0 1-8 0zm0 74.4v-47.5a4 4 0 0 1 8 0v47.5a4 4 0 0 1-8 0zM161 294.94v95a4 4 0 0 1-8 0v-83.4l-30.3 38.4a4.53 4.53 0 0 1-3.3 1.4 3.54 3.54 0 0 1-2.9-1.4l-30.3-38.4v83.41a4 4 0 0 1-8 0v-95a4.11 4.11 0 0 1 7.2-2.5l34.2 43.5 34.2-43.5a4.07 4.07 0 0 1 3.2-1.5 4.15 4.15 0 0 1 4 3.99zM248 342.44v47.5a4 4 0 0 1-8 0v-9.3l-25.2 12.9a3.92 3.92 0 0 1-1.8.4h-.1a4.06 4.06 0 0 1-1.9-.4l-31-15.9a4 4 0 0 1-2.2-3.5v-15.9a3.9 3.9 0 0 1 2.2-3.5l31-15.9a4.33 4.33 0 0 1 1.9-.4h.1a3.66 3.66 0 0 1 1.8.4l25.2 12.9v-9.3a4 4 0 0 1 8 0zm-35.1 4.5l-27.1 13.8v10.9l27.1 13.8 27.1-13.8v-10.9zM334.54 342.44v47.5a4 4 0 0 1-8 0v-9.3l-25.2 12.9a3.92 3.92 0 0 1-1.8.4h-.1a4.06 4.06 0 0 1-1.9-.4l-31-15.9a4 4 0 0 1-2.2-3.5v-15.9a3.9 3.9 0 0 1 2.2-3.5l31-15.9a4.33 4.33 0 0 1 1.9-.4h.1a3.66 3.66 0 0 1 1.8.4l25.2 12.9v-9.3a4 4 0 0 1 8 0zm-35.1 4.5l-27.1 13.8v10.9l27.1 13.8 27.1-13.8v-10.9zM353.33 315.54v-4.8a4 4 0 0 1 8 0v4.8a4 4 0 0 1-8 0zm0 74.4v-47.5a4 4 0 0 1 8 0v47.5a4 4 0 0 1-8 0zM380.72 389.95v-95a4 4 0 0 1 8 0v95a4 4 0 0 1-8 0zM407.8 389.95v-47.5a4 4 0 0 1 8 0v7.2l12.2-10.3a3.84 3.84 0 0 1 2.5-.9 3.92 3.92 0 0 1 2.6.9L449.2 353l16.1-13.7a4.11 4.11 0 0 1 2.6-.9 3.92 3.92 0 0 1 2.6.9l18.7 15.9a4.05 4.05 0 0 1 1.4 3v31.7a4 4 0 0 1-8 0v-29.8l-14.7-12.5-14.7 12.5v29.8a4 4 0 0 1-8 0v-29.8l-14.7-12.5-14.7 12.5v29.8a4 4 0 0 1-8 0zM575.57 342.44v47.5a4 4 0 1 1-8 0v-9.3l-25.2 12.9a3.92 3.92 0 0 1-1.8.4h-.1a4.06 4.06 0 0 1-1.9-.4l-31-15.9a4 4 0 0 1-2.2-3.5v-15.9a3.9 3.9 0 0 1 2.2-3.5l31-15.9a4.33 4.33 0 0 1 1.9-.4h.1a3.66 3.66 0 0 1 1.8.4l25.2 12.9v-9.3a4 4 0 1 1 8 0zm-35.1 4.5l-27.1 13.8v10.9l27.1 13.8 27.1-13.8v-10.9zM595.29 358.25v-63.3a4 4 0 0 1 8 0v63.3a4 4 0 0 1-8 0zm0 31.7v-4.7a4 4 0 1 1 8 0v4.7a4 4 0 0 1-8 0z"/></g></svg>