<svg xmlns="http://www.w3.org/2000/svg" viewBox="0 0 700 500"><path fill="#f2f2f2" d="M0 0h700v500H0z" data-name="Ebene 1"/><g data-name="Ebene 2"><path d="M183.38 209.95v-110a1.65 1.65 0 0 1 3.3 0v53.35h65.23V99.95a1.65 1.65 0 0 1 3.3 0v110a1.65 1.65 0 1 1-3.3 0V156.6h-65.24v53.35a1.65 1.65 0 1 1-3.3 0zM350.32 154.95v55a1.65 1.65 0 1 1-3.3 0v-14.3l-15.51 15.51a1.58 1.58 0 0 1-1.1.44h-31.9a1.68 1.68 0 0 1-1.1-.44L279 192.79a1.83 1.83 0 0 1-.44-1.21v-18.26a2 2 0 0 1 .44-1.21l18.37-18.37a1.58 1.58 0 0 1 1.1-.44h31.9a1.68 1.68 0 0 1 1.1.44L347 169.25v-14.3a1.65 1.65 0 1 1 3.3 0zm-20.68 1.65h-30.36L281.9 174v16.94l17.38 17.38h30.36l17.36-17.4V174zM376.55 209.95v-110a1.65 1.65 0 0 1 3.3 0v110a1.65 1.65 0 1 1-3.3 0zM406.64 209.95v-110a1.65 1.65 0 0 1 3.3 0v110a1.65 1.65 0 1 1-3.3 0zM505.17 173.32v18.26a1.83 1.83 0 0 1-.44 1.21l-18.37 18.37a1.68 1.68 0 0 1-1.1.44h-31.9a1.58 1.58 0 0 1-1.1-.44l-18.37-18.37a2 2 0 0 1-.44-1.21v-18.26a1.83 1.83 0 0 1 .44-1.21l18.37-18.37a1.68 1.68 0 0 1 1.1-.44h31.9a1.57 1.57 0 0 1 1.1.44l18.37 18.37a2 2 0 0 1 .44 1.21zm-20.68-16.72h-30.36L436.75 174v16.94l17.38 17.38h30.36l17.38-17.38V174zM97.21 278.3a1.61 1.61 0 0 1 1.54 1.32l22.88 105.05 22-50.38a1.63 1.63 0 0 1 1.43-1 1.56 1.56 0 0 1 1.54 1l22 50.38 22.88-105.05a1.63 1.63 0 1 1 3.19.66l-24 110a1.75 1.75 0 0 1-1.67 1.32 1.63 1.63 0 0 1-1.43-1l-22.55-51.48-22.44 51.48a1.66 1.66 0 0 1-1.54 1 1.61 1.61 0 0 1-1.54-1.32l-24-110a1.62 1.62 0 0 1 1.71-1.98zM275.66 355H209v16l17.38 17.38h30.36l17.93-17.82a1.75 1.75 0 0 1 1.1-.55 1.79 1.79 0 0 1 1.65 1.76 1.58 1.58 0 0 1-.44 1.1l-18.37 18.37a1.68 1.68 0 0 1-1.1.44h-31.9a1.58 1.58 0 0 1-1.1-.44l-18.37-18.37a2 2 0 0 1-.44-1.21v-18.34a2 2 0 0 1 .44-1.21l18.37-18.37a1.68 1.68 0 0 1 1.1-.44h31.9a1.57 1.57 0 0 1 1.1.44L277 352.11a1.41 1.41 0 0 1 .44 1.1v.11a1.65 1.65 0 0 1-1.78 1.68zm-18.92-18.4h-30.36l-15.07 15.07h60.5zM302.6 334.95v14.3l15.51-15.51a1.58 1.58 0 0 1 1.1-.44h22.66a1.65 1.65 0 1 1 0 3.3h-22L302.6 354v36a1.79 1.79 0 0 1-1.76 1.65 1.6 1.6 0 0 1-1.54-1.65v-55a1.6 1.6 0 0 1 1.54-1.65 1.79 1.79 0 0 1 1.76 1.6zM424.33 355h-66.66v16l17.38 17.38h30.36l17.93-17.82a1.75 1.75 0 0 1 1.1-.55 1.79 1.79 0 0 1 1.65 1.76 1.58 1.58 0 0 1-.44 1.1l-18.37 18.37a1.68 1.68 0 0 1-1.1.44h-31.9a1.58 1.58 0 0 1-1.1-.44l-18.37-18.37a2 2 0 0 1-.44-1.21v-18.34a2 2 0 0 1 .44-1.21l18.37-18.37a1.68 1.68 0 0 1 1.1-.44h31.9a1.58 1.58 0 0 1 1.1.44l18.37 18.37a1.41 1.41 0 0 1 .44 1.1v.11a1.65 1.65 0 0 1-1.76 1.68zm-18.92-18.4h-30.36L360 351.67h60.5zM448.76 389.95v-110a1.65 1.65 0 0 1 3.3 0v110a1.65 1.65 0 1 1-3.3 0zM547.29 279.95v110a1.65 1.65 0 1 1-3.3 0v-14.3l-15.51 15.51a1.68 1.68 0 0 1-1.1.44h-31.9a1.58 1.58 0 0 1-1.1-.44L476 372.79a2 2 0 0 1-.44-1.21v-18.26a1.83 1.83 0 0 1 .44-1.21l18.37-18.37a1.68 1.68 0 0 1 1.1-.44h31.9a1.58 1.58 0 0 1 1.1.44L544 349.25v-69.3a1.65 1.65 0 0 1 3.3 0zm-20.68 56.65h-30.36L478.87 354v16.94l17.38 17.38h30.36l17.39-17.4V354zM574.17 353.32v-73.37a1.65 1.65 0 0 1 3.3 0v73.37a1.65 1.65 0 0 1-3.3 0zm0 36.63v-5.5a1.65 1.65 0 1 1 3.3 0v5.5a1.65 1.65 0 1 1-3.3 0z"/></g></svg>