<svg xmlns="http://www.w3.org/2000/svg" viewBox="0 0 700 500"><path fill="#f2f2f2" d="M0 0h700v500H0z" data-name="Ebene 1"/><g data-name="Ebene 2"><path d="M251.35 73.44h1.3c8.06 43.29 16.25 86.71 24.31 130v13h-1.3l-12.09-65h-23l-12.09 65h-1.3v-13zm-8.32 65h18.07L252 90zM300.89 73.44h1.3v65h48.49v78h-1.3v-65h-47.19v65h-1.3zM424.63 216.45h-49.92v-78h49.92zm-1.3-65H376v52h47.32zM450.35 95.15h1.3v19.5h-1.3zm0 43.29h1.3v143h-1.3zM204.89 383.45h47.19v-30.29l-48.49-43.42v-56.3h49.79v34.71h-1.3v-21.71h-47.19v30.29l48.49 43.42v56.29h-49.79v-34.7h1.3zM322.53 318.44h1.3v13l-24.31 65h-1.3l-24.18-65v-13h1.3l23.53 63.31zM395.72 353.16H347.1v30.29h47.32v-21.71h1.3v34.71H345.8v-78h49.92zm-1.3-21.71H347.1v8.71h47.32zM433.55 396.45h-1.3v-65h-14.43v-13h14.43v-65h1.3v65h14.56v13h-14.56zM473 253.44h1.3v99.71H473zm0 123.5h1.3v19.5H473z"/></g></svg>