<svg xmlns="http://www.w3.org/2000/svg" viewBox="0 0 700 500"><path fill="#f2f2f2" d="M0 0h700v500H0z" data-name="Ebene 1"/><g data-name="Ebene 2"><path d="M165.22 93.9a6.21 6.21 0 0 1 5.94 4.73l20 91.74 16.5-37.84a6.1 6.1 0 0 1 5.61-3.63 6.44 6.44 0 0 1 5.5 3.63l16.5 37.84 20-91.74a6.21 6.21 0 0 1 5.94-4.73 6 6 0 0 1 6.05 6 5.53 5.53 0 0 1-.22 1.32l-24 110a6 6 0 0 1-11.44 1.1l-18.48-42.24-18.37 42.24a6 6 0 0 1-11.44-1.1l-24-110a5.53 5.53 0 0 1-.22-1.32 6 6 0 0 1 6.13-6zM276.55 123.82v-5.5a6.05 6.05 0 0 1 12.1 0v5.5a6.05 6.05 0 1 1-12.1 0zm0 86.13v-55a6.05 6.05 0 1 1 12.1 0v55a6.05 6.05 0 0 1-12.1 0zM334.68 99.95v49h14.41a6.05 6.05 0 1 1 0 12.1h-14.41v49a6 6 0 1 1-12.1 0V161h-14.41a6.05 6.05 0 0 1 0-12.1h14.41v-49a6 6 0 1 1 12.1 0zM442.15 154.95v55a6.05 6.05 0 0 1-12.1 0v-3.74l-8 8a6.12 6.12 0 0 1-4.18 1.76h-31.9a6.08 6.08 0 0 1-4.18-1.76l-18.37-18.37a6.37 6.37 0 0 1-1.76-4.29v-18.23a6.35 6.35 0 0 1 1.76-4.29l18.37-18.37a6.12 6.12 0 0 1 4.18-1.76h31.9a6.08 6.08 0 0 1 4.18 1.76l8 8v-3.74a6.05 6.05 0 1 1 12.1 0zm-26.84 6h-26.84l-14.74 14.74v13.42l14.74 14.74h26.84l14.74-14.74v-13.37zM445.48 264.95a6 6 0 0 1 1.76-4.29l16.5-16.5v-89.21a6.05 6.05 0 1 1 12.1 0v91.63a6.37 6.37 0 0 1-1.76 4.29l-18.37 18.37a5.75 5.75 0 0 1-4.18 1.76 6.1 6.1 0 0 1-6.05-6.05zm18.26-141.13v-5.5a6.05 6.05 0 0 1 12.1 0v5.5a6.05 6.05 0 1 1-12.1 0zM64 365.64a5.88 5.88 0 0 1 4.29 1.65l16.5 16.61h26.84l14.74-14.74v-12.21L61.14 322a6.47 6.47 0 0 1-3.14-5.42v-18.26a6.36 6.36 0 0 1 1.71-4.32l18.37-18.37a6.37 6.37 0 0 1 4.29-1.76h31.79a6.36 6.36 0 0 1 4.29 1.76L136.71 294a6 6 0 0 1-4.29 10.23 5.63 5.63 0 0 1-4.18-1.65L111.63 286H84.79l-14.74 14.74v12.21l65.23 35a6.39 6.39 0 0 1 3.19 5.39v18.26a6.37 6.37 0 0 1-1.76 4.29l-18.26 18.37a6.35 6.35 0 0 1-4.29 1.76H82.37a6.37 6.37 0 0 1-4.29-1.76l-18.37-18.39A6 6 0 0 1 64 365.64zm54-122.43a6.25 6.25 0 0 1-4.18 5.83l-27.39 9.13a5.59 5.59 0 0 1-1.87.33 6.05 6.05 0 0 1-2-11.77L110 237.6a5.57 5.57 0 0 1 1.87-.33 6 6 0 0 1 6.13 5.94zM155 328.9a6.16 6.16 0 0 1 5.72 4l14.85 39.82 14.85-39.82a6.17 6.17 0 0 1 5.72-4 6.24 6.24 0 0 1 5.72 4l14.85 39.82 14.85-39.82a6.16 6.16 0 0 1 5.72-4 6.1 6.1 0 0 1 6.05 6.05 7.09 7.09 0 0 1-.44 2.09l-20.57 55a6.08 6.08 0 0 1-5.61 4 6.17 6.17 0 0 1-5.72-4l-14.85-39.82-14.9 39.78a6.08 6.08 0 0 1-5.61 4 6.17 6.17 0 0 1-5.72-4l-20.57-55a7.11 7.11 0 0 1-.44-2.09 6.1 6.1 0 0 1 6.1-6.01zM257.84 303.82v-5.5a6.05 6.05 0 0 1 12.1 0v5.5a6.05 6.05 0 1 1-12.1 0zm0 86.13v-55a6.05 6.05 0 1 1 12.1 0v55a6.05 6.05 0 0 1-12.1 0zM368.3 371.58a6 6 0 0 1-1.76 4.29l-18.37 18.37A6.08 6.08 0 0 1 344 396h-31.9a6.12 6.12 0 0 1-4.18-1.76l-18.37-18.37a6.36 6.36 0 0 1-1.76-4.29v-18.26a6.35 6.35 0 0 1 1.76-4.29l18.37-18.37a6.08 6.08 0 0 1 4.18-1.76H344a6.12 6.12 0 0 1 4.18 1.76L366.54 349a6.07 6.07 0 0 1-4.29 10.34h-62.37v9.79l14.74 14.74h26.84L358 367.29a5.88 5.88 0 0 1 4.29-1.65 6 6 0 0 1 6.01 5.94zM341.46 341h-26.84l-6.16 6.27h39.16zM458 359.26a5.87 5.87 0 0 1-4.29-1.65L437.23 341h-26.84l-14.74 14.74v13.42l14.74 14.74h26.84l16.5-16.61a5.88 5.88 0 0 1 4.29-1.65 6 6 0 0 1 4.29 10.23l-18.37 18.37a6.08 6.08 0 0 1-4.18 1.76h-31.9a6.12 6.12 0 0 1-4.18-1.76l-18.37-18.37a6.36 6.36 0 0 1-1.76-4.29v-18.26a6.37 6.37 0 0 1 1.76-4.29l18.37-18.37a6.08 6.08 0 0 1 4.18-1.76h31.9a6.12 6.12 0 0 1 4.18 1.76L462.31 349a6 6 0 0 1-4.31 10.26zM481.23 303.82v-5.5a6.05 6.05 0 0 1 12.1 0v5.5a6.05 6.05 0 1 1-12.1 0zm0 86.13v-55a6.05 6.05 0 1 1 12.1 0v55a6.05 6.05 0 0 1-12.1 0zM591.69 371.58a6 6 0 0 1-1.76 4.29l-18.37 18.37a6.08 6.08 0 0 1-4.18 1.76h-31.9a6.12 6.12 0 0 1-4.18-1.76l-18.37-18.37a6.36 6.36 0 0 1-1.76-4.29v-18.26a6.35 6.35 0 0 1 1.76-4.29l18.37-18.37a6.08 6.08 0 0 1 4.18-1.76h31.9a6.12 6.12 0 0 1 4.18 1.76L589.93 349a6.07 6.07 0 0 1-4.29 10.34h-62.37v9.79L538 383.9h26.84l16.5-16.61a5.88 5.88 0 0 1 4.29-1.65 6 6 0 0 1 6.06 5.94zM564.85 341H538l-6.16 6.27H571zM611.16 353.32v-73.37a6.05 6.05 0 0 1 12.1 0v73.37a6.05 6.05 0 0 1-12.1 0zm0 36.63v-5.5a6.05 6.05 0 0 1 12.1 0v5.5a6.05 6.05 0 0 1-12.1 0z"/></g></svg>