<svg xmlns="http://www.w3.org/2000/svg" viewBox="0 0 700 500"><path fill="#f2f2f2" d="M0 0h700v500H0z" data-name="Ebene 1"/><g data-name="Ebene 2"><path d="M154.46 209.95v-130a2 2 0 1 1 3.9 0V143h77.09V79.94a1.95 1.95 0 1 1 3.9 0v130a1.95 1.95 0 1 1-3.9 0V146.9h-77.09v63.05a2 2 0 0 1-3.9 0zM351.76 144.95v65a2 2 0 0 1-3.9 0V193l-18.33 18.33a1.86 1.86 0 0 1-1.3.52h-37.7a2 2 0 0 1-1.3-.52l-21.71-21.71a2.17 2.17 0 0 1-.52-1.43v-21.53a2.36 2.36 0 0 1 .52-1.43l21.71-21.71a1.86 1.86 0 0 1 1.3-.52h37.7a2 2 0 0 1 1.3.52l18.33 18.33v-16.9a2 2 0 0 1 3.9 0zm-24.44 2h-35.88l-20.54 20.49v20L291.44 208h35.88l20.54-20.54v-20zM382.77 209.95v-130a1.95 1.95 0 1 1 3.9 0v130a1.95 1.95 0 1 1-3.9 0zM418.32 209.95v-130a2 2 0 0 1 3.9 0v130a2 2 0 0 1-3.9 0zM534.76 166.66v21.58a2.17 2.17 0 0 1-.52 1.43l-21.71 21.71a2 2 0 0 1-1.3.52h-37.7a1.86 1.86 0 0 1-1.3-.52l-21.71-21.71a2.37 2.37 0 0 1-.52-1.43v-21.58a2.16 2.16 0 0 1 .52-1.43l21.71-21.71a2 2 0 0 1 1.3-.52h37.7a1.86 1.86 0 0 1 1.3.52l21.71 21.71a2.37 2.37 0 0 1 .52 1.43zm-24.44-19.76h-35.88l-20.54 20.54v20L474.44 208h35.88l20.54-20.54v-20zM162.44 258a1.9 1.9 0 0 1 1.82 1.56l27 124.15 26-59.54A1.92 1.92 0 0 1 219 323a1.84 1.84 0 0 1 1.82 1.17l26 59.54 27-124.15a1.93 1.93 0 1 1 3.77.78l-28.34 130a2.07 2.07 0 0 1-2 1.56 1.92 1.92 0 0 1-1.69-1.17L219 329.89l-26.52 60.84a2 2 0 0 1-1.82 1.17 1.9 1.9 0 0 1-1.82-1.56l-28.34-130a1.91 1.91 0 0 1 1.94-2.34zM373.34 348.61h-78.78v18.85L315.1 388H351l21.19-21.06a2.07 2.07 0 0 1 1.3-.65 2.12 2.12 0 0 1 2 2.08 1.87 1.87 0 0 1-.52 1.3l-21.71 21.71a2 2 0 0 1-1.3.52h-37.7a1.86 1.86 0 0 1-1.3-.52l-21.71-21.71a2.37 2.37 0 0 1-.52-1.43v-21.58a2.36 2.36 0 0 1 .52-1.43l21.71-21.71a2 2 0 0 1 1.3-.52h37.7a1.86 1.86 0 0 1 1.3.52l21.71 21.71a1.67 1.67 0 0 1 .52 1.3v.13a2 2 0 0 1-2.15 1.95zM351 326.9h-35.9l-17.81 17.81h71.5zM402.21 389.95v-130a1.95 1.95 0 1 1 3.9 0v130a1.95 1.95 0 1 1-3.9 0zM456.75 259.94V323H479a1.95 1.95 0 1 1 0 3.9h-22.25v63.05a2 2 0 0 1-3.9 0V326.9h-22.23a1.95 1.95 0 1 1 0-3.9h22.23v-63.06a2 2 0 0 1 3.9 0zM506.5 346.66v-86.72a1.95 1.95 0 1 1 3.9 0v86.71a1.95 1.95 0 1 1-3.9 0zm0 43.29v-6.5a1.95 1.95 0 1 1 3.9 0v6.5a1.95 1.95 0 1 1-3.9 0z"/></g></svg>