<svg xmlns="http://www.w3.org/2000/svg" viewBox="0 0 700 500"><path fill="#f2f2f2" d="M0 0h700v500H0z" data-name="Ebene 1"/><g data-name="Ebene 2"><path d="M196.05 191.32a3.55 3.55 0 0 1 2.52 1.08l13.95 13.95h23l12.87-12.87v-11.34l-54.09-29a3.89 3.89 0 0 1-1.89-3.24V135a4.08 4.08 0 0 1 1.08-2.61l14.94-14.94a3.92 3.92 0 0 1 2.61-1.08h26a3.83 3.83 0 0 1 2.52 1.08l15 14.94a3.66 3.66 0 0 1 1 2.61 3.61 3.61 0 0 1-3.6 3.6 3.55 3.55 0 0 1-2.52-1.08l-14-13.95h-23l-12.87 12.87v11.34l54.09 29a3.75 3.75 0 0 1 1.89 3.24v14.94a3.8 3.8 0 0 1-1 2.61l-15 14.94a3.83 3.83 0 0 1-2.52 1.08h-26a3.92 3.92 0 0 1-2.61-1.08l-14.94-14.94a3.76 3.76 0 0 1-1.08-2.61 3.61 3.61 0 0 1 3.65-3.64zM333.66 164.95v45a3.6 3.6 0 1 1-7.2 0v-6.3l-8.82 8.82a3.71 3.71 0 0 1-2.52 1.08H289a3.84 3.84 0 0 1-2.52-1.08l-15-14.94a3.81 3.81 0 0 1-1-2.61V180a4 4 0 0 1 1-2.61l15-14.94a3.71 3.71 0 0 1 2.52-1.08h26.1a3.83 3.83 0 0 1 2.52 1.08l8.82 8.82v-6.3a3.6 3.6 0 1 1 7.2 0zm-20.07 3.6h-23l-12.87 12.87v12.06l12.87 12.87h23l12.87-12.87v-12.06zM353.32 209.95V120a3.6 3.6 0 0 1 7.2 0v90a3.6 3.6 0 0 1-7.2 0zM386.17 164.95v28.53L399 206.35h23l12.87-12.87v-28.53a3.6 3.6 0 1 1 7.2 0v30a3.8 3.8 0 0 1-1 2.61l-15 14.94a3.83 3.83 0 0 1-2.52 1.08h-26.1a3.71 3.71 0 0 1-2.52-1.08l-15-14.94a4 4 0 0 1-1-2.61v-30a3.6 3.6 0 0 1 7.2 0zM478.76 120v41.4h13.14a3.6 3.6 0 1 1 0 7.2h-13.14V210a3.6 3.6 0 1 1-7.2 0v-41.4h-13.14a3.6 3.6 0 1 1 0-7.2h13.14V120a3.6 3.6 0 0 1 7.2 0zM56.82 389.95V300a3.6 3.6 0 1 1 7.2 0v90a3.6 3.6 0 1 1-7.2 0zM144.62 374.92a3.66 3.66 0 0 1-1 2.61l-15 14.94a3.83 3.83 0 0 1-2.52 1.08H100a3.71 3.71 0 0 1-2.52-1.08l-15-14.94a4 4 0 0 1-1-2.61V360a4 4 0 0 1 1-2.61l15-14.94a3.84 3.84 0 0 1 2.52-1.08h26.1a3.71 3.71 0 0 1 2.52 1.08l15 14.94a3.6 3.6 0 0 1 1 2.61 3.5 3.5 0 0 1-3.6 3.6H88.65v9.9l12.87 12.87h23l13.98-13.97a3.55 3.55 0 0 1 2.52-1.08 3.61 3.61 0 0 1 3.6 3.6zm-20.07-26.37h-23l-7.83 7.83h38.7zM279.71 300v90a3.6 3.6 0 0 1-7.2 0v-79.2l-27.18 36.36a3.75 3.75 0 0 1-5.76 0l-27.17-36.41v79.2a3.6 3.6 0 0 1-7.2 0V300a3.55 3.55 0 0 1 3.69-3.51 3.25 3.25 0 0 1 2.79 1.35l30.78 41.13 30.78-41.13a3.76 3.76 0 0 1 2.88-1.44 3.67 3.67 0 0 1 3.59 3.6zM360.23 360v14.94a3.8 3.8 0 0 1-1 2.61l-15 14.94a3.83 3.83 0 0 1-2.52 1.08h-26.1a3.71 3.71 0 0 1-2.52-1.08l-15-14.94a4 4 0 0 1-1-2.61V360a3.81 3.81 0 0 1 1-2.61l15-14.94a3.84 3.84 0 0 1 2.52-1.08h26.1a3.71 3.71 0 0 1 2.52 1.08l15 14.94a4 4 0 0 1 1 2.61zm-20.07-11.43h-23l-12.87 12.87v12.06l12.87 12.87h23L353 373.48v-12.06zM384.4 344.95v6.3l8.91-8.82a3.71 3.71 0 0 1 2.52-1.08h26a4.08 4.08 0 0 1 2.61 1.08l14.94 14.94a3.93 3.93 0 0 1 1.08 2.61v30a3.6 3.6 0 0 1-7.2 0v-28.56l-12.86-12.87h-23l-13 12.87v28.53a3.6 3.6 0 0 1-7.2 0v-45a3.6 3.6 0 0 1 7.2 0zM519.14 300v90a3.6 3.6 0 0 1-7.2 0v-6.3l-8.82 8.82a3.83 3.83 0 0 1-2.52 1.08h-26.1a3.71 3.71 0 0 1-2.52-1.08l-15-14.94a4 4 0 0 1-1-2.61V360a3.81 3.81 0 0 1 1-2.61l15-14.94a3.84 3.84 0 0 1 2.52-1.08h26.1a3.71 3.71 0 0 1 2.52 1.08l8.82 8.82V300a3.6 3.6 0 0 1 7.2 0zm-20.07 48.6H476l-12.87 12.87v12.06L476 386.35h23l12.87-12.87v-12.06zM599.29 374.92a3.66 3.66 0 0 1-1 2.61l-15 14.94a3.83 3.83 0 0 1-2.52 1.08h-26.1a3.71 3.71 0 0 1-2.52-1.08l-15-14.94a4 4 0 0 1-1-2.61V360a4 4 0 0 1 1-2.61l15-14.94a3.84 3.84 0 0 1 2.52-1.08h26.1a3.71 3.71 0 0 1 2.52 1.08l15 14.94a3.6 3.6 0 0 1 1 2.61 3.5 3.5 0 0 1-3.6 3.6h-52.38v9.9l12.87 12.87h23l13.95-13.95a3.55 3.55 0 0 1 2.52-1.08 3.61 3.61 0 0 1 3.64 3.58zm-20.07-26.37h-23l-7.83 7.83h38.7zM617.63 360v-60a3.6 3.6 0 0 1 7.2 0v60a3.6 3.6 0 0 1-7.2 0zm0 30v-4.5a3.6 3.6 0 0 1 7.2 0v4.5a3.6 3.6 0 0 1-7.2 0z"/></g></svg>