<svg xmlns="http://www.w3.org/2000/svg" viewBox="0 0 700 500"><path fill="#f2f2f2" d="M0 0h700v500H0z" data-name="Ebene 1"/><g data-name="Ebene 2"><path d="M305.57 190.07l-18.34 10.64 11.06 6.44-7.84 5.6h-24.08l8-5.6 3.22-1.82-26.32-15.26V99.49l7.82-5.49 18.48-10.64-11.2-6.44 8-5.6h23.94l-7.84 5.6-3.22 1.82L313.55 94v90.58zm0-1V99.49l-27.16-15.68L259.09 95v89.6l27.3 15.68zm-27.16 16.66l-2.38 1.4h4.76zm8-127.4l2.38-1.4h-4.9zM338.85 76.95l8-5.6v135.8l-8 5.6zM425.43 157.31v-12.46l7.84-5.6v67.9l-7.84 5.6v-22.68l-18.48 10.64 11.2 6.44-8 5.6h-23.92l7.84-5.6 3.22-1.82L371 190.07v-22.68l8-5.46 18.34-10.64-11.06-6.44 7.84-5.6h24.08l-8 5.6-3.22 1.82zm0 31.78v-21.7l-27.3-15.68-19.18 11.2v21.7l27.16 15.68zm-38.08-78.26l7.84-5.46L417 94l-8 5.46zm10.78 94.92l-2.38 1.4h4.9zm8-59.5l2.38-1.4h-4.76zM123.67 387.15l-7.84 5.6v-135.8l7.84-5.6 30.1 62.44 27.3-56.84 8-5.6v135.8l-8 5.6V267.87l-24.78 51.38-7.84 5.6-24.78-51.52zM221.9 364.61l27.16 15.68 19.32-11.2v-44.24l7.84-5.6v45.36l-7.84 5.46-18.48 10.64 11.2 6.44-8 5.6h-23.92l7.84-5.6 3.22-1.82-26.32-15.26v-45.22l8-5.6zm19.18 21.14l-2.38 1.4h4.9zM309.31 342.91v44.24l-7.84 5.6v-67.9l7.84-5.6v22.68l18.48-10.64-11.2-6.44 8-5.6h23.94l-7.84 5.6-3.22 1.82 26.32 15.26v45.22l-8 5.6v-45.36l-27.16-15.68zm27.3-16.66l2.38-1.4h-4.9zM386 370.07v-22.68l8-5.46 18.34-10.64-11.06-6.44 7.84-5.6h24.08l-8 5.6-3.22 1.82 18.48 10.64v-80.36l7.84-5.6v135.8l-7.84 5.6v-22.68l-18.48 10.64 11.2 6.44-8 5.6h-23.96l7.84-5.6 3.22-1.82zm54.46-1v-21.7l-27.3-15.68-19.18 11.2v21.7l27.16 15.68zm-27.3 16.66l-2.38 1.4h4.9zm8-59.5l2.38-1.4h-4.76zM534.36 364.61l-7.84 5.46L508 380.71l11.2 6.44-8 5.6h-23.88l7.84-5.6 3.22-1.82-26.32-15.26v-22.68l8-5.46 18.34-10.64-11.06-6.44 7.84-5.6h24.08l-8 5.6-3.26 1.82 26.32 15.26zm-7.84-17.22l-27.3-15.68-19.22 11.2v21.7l27.16 15.68 19.32-11.2zm-27.3 38.36l-2.38 1.4h4.9zm8-59.5l2.38-1.4h-4.76zM558.19 256.95l8-5.6v90.58l-8 5.46zm0 128.94l8-5.46v6.72l-8 5.6z"/></g></svg>