<svg xmlns="http://www.w3.org/2000/svg" viewBox="0 0 700 500"><path fill="#f2f2f2" d="M0 0h700v500H0z" data-name="Ebene 1"/><g data-name="Ebene 2"><path d="M179.55 101l8.47-2.2v55h60V101l8.47-2.2v110L248 211v-55h-60v52.8l-8.47 2.2zM331.78 153.85l11.88 10.67V156l8.47-2.2v55l-8.47 2.2v-12.82l-11.88 10.67-8.58 2.15h-27.72l-20.35-18.26v-18.32L295.48 156l8.47-2.2zm11.88 38.94v-18.37L323.2 156h-21.78l-17.82 16.11v18.37l20.4 18.37h21.78zM373.9 101l8.47-2.2v110l-8.47 2.2zM404.74 101l8.47-2.2v110l-8.47 2.2zM509.1 190.48l-20.35 18.37-8.58 2.2h-27.72l-20.35-18.26v-18.37L452.45 156l8.47-2.2h27.83l20.35 18.26zm-8.47 2.31v-18.37L480.17 156h-21.78l-17.82 16.06v18.37l20.35 18.37h21.78zM74.87 281l8.47-2.2 30.36 97.46L143.4 281l8.47-2.2-34.21 110-8.58 2.2zM172.31 391L152 372.79v-18.37L172.31 336l8.47-2.2h27.83L229 352.11l-8.47 2.31h-60.1v16.06l20.35 18.37h21.78l17.93-16.06 8.47-2.31-20.35 18.37L200 391zm-11.88-38.94H218L200 336h-21.75zM254.32 352.11v36.74l-8.47 2.2V336l8.47-2.2v12.87L266.2 336l8.47-2.2h20.68l-8.58 2.2h-14.63zM319.8 391l-20.35-18.26v-18.32L319.8 336l8.47-2.2h27.83l11.9 10.72V281l8.47-2.2v110L368 391v-12.82l-11.9 10.67-8.58 2.2zm48.2-18.21v-18.37L347.52 336h-21.78l-17.82 16.06v18.37l20.35 18.37H350zM415.09 391l-20.35-18.26v-18.32L415.09 336l8.47-2.2h27.83l20.35 18.26-8.47 2.31h-60.06v16.06l20.35 18.37h21.78l17.93-16.06 8.47-2.31-20.35 18.37-8.58 2.2zm-11.88-38.94h57.53L442.81 336H421zM497.1 352.11v36.74l-8.47 2.2V336l8.47-2.2v12.87L509 336l8.47-2.2h27.83l20.35 18.26v36.74L557 391v-36.58L536.7 336h-21.78zM585.51 281l8.47-2.2v73.26l-8.47 2.31zm0 104.5l8.47-2.2v5.5l-8.47 2.2z"/></g></svg>