<svg xmlns="http://www.w3.org/2000/svg" viewBox="0 0 700 500"><path fill="#f2f2f2" d="M0 0h700v500H0z" data-name="Ebene 1"/><g data-name="Ebene 2"><path d="M117.65 209.95v-100a4 4 0 0 1 8 0v46H180v-46a4 4 0 0 1 8 0v100a4 4 0 0 1-8 0v-46h-54.3v46a4 4 0 0 1-8 0zM277.35 193.25a4.07 4.07 0 0 1-1.1 2.9l-16.7 16.6a4.26 4.26 0 0 1-2.8 1.2h-29a4.13 4.13 0 0 1-2.8-1.2l-16.7-16.6a4.47 4.47 0 0 1-1.1-2.9v-16.6a4.47 4.47 0 0 1 1.1-2.9l16.7-16.6a4.26 4.26 0 0 1 2.8-1.2h29a4.12 4.12 0 0 1 2.8 1.2l16.7 16.6a4 4 0 0 1 1.1 2.9 3.89 3.89 0 0 1-4 4h-58.2v11l14.3 14.3h25.6l15.5-15.5a4 4 0 0 1 2.8-1.2 4 4 0 0 1 4 4zm-22.3-29.3h-25.6l-8.7 8.7h43zM279.87 260a3.84 3.84 0 0 1 1.1-2.8l15.5-15.5v-81.76a4 4 0 0 1 8 0v83.3a4.23 4.23 0 0 1-1.1 2.9l-16.7 16.6a3.94 3.94 0 0 1-2.8 1.2 4 4 0 0 1-4-3.94zm16.6-128.31v-5a4 4 0 1 1 8 0v5a4 4 0 0 1-8 0zM388.52 180.65a4 4 0 0 1-2.8-1.2l-15.5-15.5h-25.6L334 174.54l55.6 14.9a3.93 3.93 0 0 1 2.9 3.9 3.84 3.84 0 0 1-1.1 2.8l-16.7 16.6a4.12 4.12 0 0 1-2.8 1.2h-29a4.26 4.26 0 0 1-2.8-1.2l-16.7-16.6a4.07 4.07 0 0 1-1.1-2.9 4 4 0 0 1 4-4 4 4 0 0 1 2.8 1.2l15.5 15.5h25.6l10.6-10.6-55.6-14.9a4.11 4.11 0 0 1-2.9-4 3.78 3.78 0 0 1 1.1-2.7l16.7-16.6a4.26 4.26 0 0 1 2.8-1.2h29a4.12 4.12 0 0 1 2.8 1.2l16.7 16.6a4.07 4.07 0 0 1 1.1 2.9 4 4 0 0 1-3.98 4.01zM479.27 159.94v50a4 4 0 0 1-8 0v-7l-9.8 9.8a4.12 4.12 0 0 1-2.8 1.2h-29a4.26 4.26 0 0 1-2.8-1.2l-16.7-16.6a4.23 4.23 0 0 1-1.1-2.9v-16.6a4.47 4.47 0 0 1 1.1-2.9l16.7-16.6a4.13 4.13 0 0 1 2.8-1.2h29a4.26 4.26 0 0 1 2.8 1.2l9.8 9.8v-7a4 4 0 0 1 8 0zm-22.3 4h-25.6l-14.3 14.3v13.4l14.3 14.3H457l14.3-14.3v-13.4zM508.35 159.94v7l9.9-9.8a4.12 4.12 0 0 1 2.8-1.2H550a4.53 4.53 0 0 1 2.9 1.2l16.6 16.6a4.36 4.36 0 0 1 1.2 2.9v33.3a4 4 0 0 1-8 0v-31.7l-14.3-14.3h-25.6l-14.4 14.3v31.7a4 4 0 0 1-8 0v-50a4 4 0 0 1 8 0zM74.33 285.94a4.08 4.08 0 0 1 3.9 2.8l27.3 87.71 27.3-87.71a4.08 4.08 0 0 1 3.9-2.8 3.92 3.92 0 0 1 3.9 4 5 5 0 0 1-.2 1.2l-31.1 100a3.87 3.87 0 0 1-3.9 2.7 3.68 3.68 0 0 1-3.7-2.7l-31.1-100a5 5 0 0 1-.2-1.2 3.92 3.92 0 0 1 3.9-4zM213.88 339.94v50a4 4 0 0 1-8 0v-7l-9.8 9.8a4.12 4.12 0 0 1-2.8 1.2h-29a4.26 4.26 0 0 1-2.8-1.2l-16.7-16.6a4.23 4.23 0 0 1-1.1-2.9v-16.6a4.47 4.47 0 0 1 1.1-2.9l16.7-16.6a4.13 4.13 0 0 1 2.8-1.2h29a4.26 4.26 0 0 1 2.8 1.2l9.8 9.8v-7a4 4 0 0 1 8 0zm-22.3 4H166l-14.3 14.3v13.4l14.3 14.3h25.6l14.3-14.3v-13.4zm-32.4-32.3v-5a4 4 0 1 1 8 0v5a4 4 0 0 1-8 0zm31.2 0v-5a4 4 0 1 1 8 0v5a4 4 0 0 1-8 0zM243 339.94v7l9.9-9.8a4.12 4.12 0 0 1 2.8-1.2h20.6a4 4 0 0 1 0 8h-18.9L243 358.25v31.7a4 4 0 0 1-8 0v-50a4 4 0 0 1 8 0zM296.55 389.95v-100a4 4 0 0 1 8 0v100a4 4 0 0 1-8 0zM394.11 289.94v100a4 4 0 0 1-8 0v-7l-9.8 9.8a4.26 4.26 0 0 1-2.8 1.2h-29a4.13 4.13 0 0 1-2.8-1.2L325 376.15a4.47 4.47 0 0 1-1.1-2.9v-16.6a4.23 4.23 0 0 1 1.1-2.9l16.7-16.6a4.26 4.26 0 0 1 2.8-1.2h29a4.12 4.12 0 0 1 2.8 1.2l9.8 9.8v-57a4 4 0 1 1 8 0zm-22.3 54h-25.6l-14.3 14.3v13.4l14.3 14.3h25.6l14.3-14.3v-13.4zM483.17 373.25a4.07 4.07 0 0 1-1.1 2.9l-16.7 16.6a4.26 4.26 0 0 1-2.8 1.2h-29a4.12 4.12 0 0 1-2.8-1.2l-16.7-16.6a4.47 4.47 0 0 1-1.1-2.9v-16.6a4.47 4.47 0 0 1 1.1-2.9l16.7-16.6a4.26 4.26 0 0 1 2.8-1.2h29a4.12 4.12 0 0 1 2.8 1.2l16.7 16.6a4 4 0 0 1 1.1 2.9 3.89 3.89 0 0 1-4 4H421v11l14.3 14.3h25.6l15.5-15.5a4 4 0 0 1 2.8-1.2 4 4 0 0 1 3.97 4zm-22.3-29.3h-25.6l-8.7 8.7h43zM509.24 339.94v7l9.9-9.8a4.12 4.12 0 0 1 2.8-1.2h28.9a4.53 4.53 0 0 1 2.9 1.2l16.6 16.6a4.36 4.36 0 0 1 1.2 2.9v33.3a4 4 0 0 1-8 0v-31.7l-14.3-14.3h-25.6l-14.4 14.3v31.7a4 4 0 0 1-8 0v-50a4 4 0 0 1 8 0zM591.87 356.65v-66.7a4 4 0 0 1 8 0v66.7a4 4 0 0 1-8 0zm0 33.3v-5a4 4 0 1 1 8 0v5a4 4 0 0 1-8 0z"/></g></svg>