<svg xmlns="http://www.w3.org/2000/svg" viewBox="0 0 700 500"><path fill="#f2f2f2" d="M0 0h700v500H0z" data-name="Ebene 1"/><g data-name="Ebene 2"><path d="M174.66 169.95h-30v-5.5h30zm0 85.5h-30v-61h30zM220.16 165.44v45h-30v-91h30v45h34.7v-45h30v91h-30v-45zM392.38 195.45l-21.4 15h-51.9l-21.5-15v-16l21.5-15H371l21.4 15zm-30-1v-14L345 168.25l-17.4 12.2v14l17.4 12.2zM405.39 119.44h30v91h-30zM542.94 164.44v46h-73.3l-21.5-15v-16l21.5-15zm-30 30v-14l-17.4-12.2-17.4 12.2v14l17.4 12.2zM80.73 390.45h-30v-91h30l23.8 27.6 23.9-27.6h30v91h-30v-55.3l-8.9 10.3h-30l-8.8-10.3zM202.08 374.45l17.4 12.2 17.4-12.2v-30h30v31l-21.4 15h-51.9l-21.5-15v-31h30zM309.92 360.45v30h-30v-46h73.3l21.4 15v31h-30v-30l-17.3-12.2zM450 299.44h30v91h-73.3l-21.5-15v-16l21.5-15H450zm0 75v-14l-17.4-12.2-17.4 12.2v14l17.4 12.2zM586.92 375.45l-21.4 15h-51.9l-21.5-15v-16l21.5-15h51.9l21.4 15zm-30-1v-14l-17.4-12.2-17.4 12.2v14l17.4 12.2zM600.77 299.44h30v61h-30zm0 85.51h30v5.5h-30z"/></g></svg>