<svg xmlns="http://www.w3.org/2000/svg" viewBox="0 0 700 500"><path fill="#f2f2f2" d="M0 0h700v500H0z" data-name="Ebene 1"/><g data-name="Ebene 2"><path d="M163.18 209.95V90a3 3 0 0 1 6 0v57h68.76V90a3 3 0 1 1 6 0v120a3 3 0 1 1-6 0v-57h-68.76v57a3 3 0 0 1-6 0zM350.94 189.91a3.08 3.08 0 0 1-.84 2.16l-20 20a2.9 2.9 0 0 1-2 .84h-34.8a2.81 2.81 0 0 1-2-.84l-20-20a3.2 3.2 0 0 1-.84-2.16V170a3.2 3.2 0 0 1 .84-2.16l20-20a2.89 2.89 0 0 1 2-.84H328a2.81 2.81 0 0 1 2 .84l20 20a3.05 3.05 0 0 1-2.16 5.16H276.3v15.72l18.24 18.24h32.16l19.2-19.08a2.89 2.89 0 0 1 5 2zm-24.24-37h-32.16l-14 14h60.24zM376.52 209.95V90a3 3 0 1 1 6 0v120a3 3 0 1 1-6 0zM412.58 209.95V90a3 3 0 1 1 6 0v120a3 3 0 1 1-6 0zM525.7 170v19.92a3.08 3.08 0 0 1-.84 2.16l-20 20a2.9 2.9 0 0 1-2 .84H468a2.81 2.81 0 0 1-2-.84l-20-20a3.2 3.2 0 0 1-.84-2.16V170a3.08 3.08 0 0 1 .84-2.16l20-20a2.89 2.89 0 0 1 2-.84h34.8a2.81 2.81 0 0 1 2 .84l20 20a3.2 3.2 0 0 1 .9 2.16zm-24.24-17H469.3l-18.24 18.24v17.52L469.3 207h32.16l18.24-18.24v-17.57zm-1.08-46a3.05 3.05 0 0 1 2.88 3.12 2.73 2.73 0 0 1-2 2.64l-29.88 10.08a2.64 2.64 0 0 1-1 .12 3.05 3.05 0 0 1-2.88-3.12 2.86 2.86 0 0 1 2-2.76l29.88-10a2.64 2.64 0 0 1 1-.08zM141.95 270a3.05 3.05 0 0 1 3.12-2.88 2.77 2.77 0 0 1 2.76 2l34.44 110.75 34.44-110.75a2.77 2.77 0 0 1 2.76-2 3 3 0 0 1 3.12 2.76 2.65 2.65 0 0 1-.12 1l-37.32 120a3.1 3.1 0 0 1-3 2 2.77 2.77 0 0 1-2.76-2l-37.32-120a2.34 2.34 0 0 1-.12-.88zM234.18 296v-6a3 3 0 1 1 6 0v6a3 3 0 1 1-6 0zm0 94v-60a3 3 0 0 1 6 0v60a3 3 0 1 1-6 0zM269.7 389.95V270a3 3 0 0 1 6 0v120a3 3 0 0 1-6 0zM382.82 329.95v60a3 3 0 0 1-6 0v-12.72l-14.88 14.88a2.81 2.81 0 0 1-2 .84H325.1a2.9 2.9 0 0 1-2-.84l-20-20a3.08 3.08 0 0 1-.84-2.16V350a3.2 3.2 0 0 1 .84-2.16l20-20a2.81 2.81 0 0 1 2-.84h34.8a2.89 2.89 0 0 1 2 .84l14.88 14.88v-12.77a3 3 0 0 1 6 0zm-24.24 3h-32.16l-18.24 18.24v17.52l18.24 18.24h32.16l18.24-18.24v-17.52zm-1.08-46a3.05 3.05 0 0 1 2.88 3.12 2.73 2.73 0 0 1-2 2.64l-29.88 10.08a2.64 2.64 0 0 1-1 .12 3.05 3.05 0 0 1-2.88-3.12 2.86 2.86 0 0 1 2-2.76l29.88-10a2.64 2.64 0 0 1 1-.03zM411.71 426.91a3 3 0 0 1 2 1l19.2 19.08h32.19l18.24-18.24v-51.52l-14.88 14.88a2.9 2.9 0 0 1-2 .84h-34.8a2.81 2.81 0 0 1-2-.84l-20-20a3.2 3.2 0 0 1-.84-2.16V350a3.08 3.08 0 0 1 .84-2.16l20-20a2.89 2.89 0 0 1 2-.84h34.8a2.81 2.81 0 0 1 2 .84l14.88 14.88v-12.77a3 3 0 0 1 6 0v100a3.2 3.2 0 0 1-.84 2.16l-20 20a2.81 2.81 0 0 1-2 .84h-34.8a2.89 2.89 0 0 1-2-.84l-20-20a3.08 3.08 0 0 1-.84-2.16 3 3 0 0 1 2.85-3.04zm53.4-94h-32.17l-18.24 18.28v17.52l18.24 18.24h32.16l18.24-18.24v-17.52zM519.45 350v-80a3 3 0 0 1 6 0v80a3 3 0 0 1-6 0zm0 40v-6a3 3 0 1 1 6 0v6a3 3 0 0 1-6 0z"/></g></svg>