<svg xmlns="http://www.w3.org/2000/svg" viewBox="0 0 700 500"><path fill="#f2f2f2" d="M0 0h700v500H0z" data-name="Ebene 1"/><g data-name="Ebene 2"><path d="M165.77 209.95a9.14 9.14 0 0 1 .36-2.52l37.32-120a8.24 8.24 0 0 1 8-5.76 8.79 8.79 0 0 1 7.92 5.76l37.32 120a9.12 9.12 0 0 1 .36 2.52 8.3 8.3 0 0 1-16.2 2.52L224 158.35h-25.11l-16.8 54.12a8.37 8.37 0 0 1-16.32-2.52zM211.49 118l-7.32 23.52h14.64zM290.21 90v59.88l5.76-5.76a9.19 9.19 0 0 1 5.88-2.52h34.68a8.85 8.85 0 0 1 5.88 2.52l20 20a9 9 0 0 1 2.4 5.88v40a8.4 8.4 0 0 1-8.28 8.4 8.5 8.5 0 0 1-8.4-8.4v-36.6l-15.12-15h-27.68l-15.12 15V210a8.5 8.5 0 0 1-8.4 8.4 8.4 8.4 0 0 1-8.28-8.4V90a8.4 8.4 0 0 1 8.28-8.4 8.5 8.5 0 0 1 8.4 8.4zM473.52 170v19.92a9.2 9.2 0 0 1-2.52 5.88l-19.92 20a8.85 8.85 0 0 1-5.88 2.52h-34.8a9.2 9.2 0 0 1-5.88-2.52l-19.92-20a8.85 8.85 0 0 1-2.52-5.88V170a9.19 9.19 0 0 1 2.52-5.88l19.92-20a8.86 8.86 0 0 1 5.88-2.52h34.8a9.19 9.19 0 0 1 5.88 2.52l19.92 20a8.85 8.85 0 0 1 2.52 5.88zm-31.8-11.64h-27.84l-15.12 15v13.2l15.12 15h27.84l15.12-15v-13.2zM473.07 269.95a8.36 8.36 0 0 1 2.4-5.88l17.64-17.52V150a8.4 8.4 0 0 1 8.28-8.4 8.5 8.5 0 0 1 8.4 8.4v100a9.19 9.19 0 0 1-2.52 5.88l-19.92 20a8.4 8.4 0 0 1-14.28-5.88zm20-154v-6a8.4 8.4 0 0 1 8.28-8.4 8.5 8.5 0 0 1 8.4 8.4v6a8.4 8.4 0 0 1-8.4 8.28 8.3 8.3 0 0 1-8.24-8.23zM95.58 361.63a8.36 8.36 0 0 1 5.88 2.4L119 381.55h27.84l15.12-15v-11.64l-70.34-37.56a8.78 8.78 0 0 1-4.44-7.44V290a8.86 8.86 0 0 1 2.52-5.88l20-20a9.19 9.19 0 0 1 5.88-2.52h34.72a8.86 8.86 0 0 1 5.88 2.52l20 20a8.36 8.36 0 0 1-11.88 11.76l-17.52-17.52H119l-15.12 15V305l70.32 37.56a8.94 8.94 0 0 1 4.44 7.44v19.92a9 9 0 0 1-2.4 5.88l-20 20a8.85 8.85 0 0 1-5.88 2.52h-34.74a9.19 9.19 0 0 1-5.88-2.52l-20-20a8.32 8.32 0 0 1 5.88-14.16zM195.78 321.67a8.48 8.48 0 0 1 7.2 3.84l30.24 48.6 30.24-48.6a8.34 8.34 0 0 1 15.36 4.49 8.53 8.53 0 0 1-1.2 4.44l-37.32 60a8.63 8.63 0 0 1-7.08 3.84 8.28 8.28 0 0 1-7.08-3.84l-37.32-60a8.68 8.68 0 0 1-1.32-4.44 8.29 8.29 0 0 1 8.28-8.33zM380 369.91a8.36 8.36 0 0 1-2.4 5.88l-19.92 20a8.85 8.85 0 0 1-5.88 2.52H317a9.2 9.2 0 0 1-5.88-2.52l-19.92-20a8.85 8.85 0 0 1-2.52-5.88V350a8.85 8.85 0 0 1 2.52-5.88l19.92-20a8.86 8.86 0 0 1 5.88-2.52h34.8a9.19 9.19 0 0 1 5.88 2.52l19.92 20a8.23 8.23 0 0 1-5.88 14.16H305.4v8.28l15.12 15h27.84L365.88 364a8.32 8.32 0 0 1 14.12 5.91zm-60.48-88.32a8.18 8.18 0 0 1 4.56 1.44l10.32 6.84 10.36-6.87a8.18 8.18 0 0 1 4.56-1.44 8.4 8.4 0 0 1 8.4 8.28 8.24 8.24 0 0 1-3.72 7l-14.88 10.08a8.86 8.86 0 0 1-4.68 1.32 8.42 8.42 0 0 1-4.68-1.32l-14.88-10.08a8.24 8.24 0 0 1-3.72-7 8.4 8.4 0 0 1 8.4-8.25zm28.8 56.76h-27.8l-3.24 3.24h34.32zM427.87 270v51.6h14a8.4 8.4 0 0 1 0 16.8h-14V390a8.4 8.4 0 0 1-8.28 8.4 8.5 8.5 0 0 1-8.4-8.4v-51.6h-13.92a8.4 8.4 0 0 1 0-16.8h13.92V270a8.5 8.5 0 0 1 8.4-8.4 8.4 8.4 0 0 1 8.28 8.4zM549.05 369.91a8.36 8.36 0 0 1-2.4 5.88l-19.92 20a8.85 8.85 0 0 1-5.88 2.52h-34.8a9.2 9.2 0 0 1-5.88-2.52l-19.92-20a8.85 8.85 0 0 1-2.52-5.88V350a8.85 8.85 0 0 1 2.52-5.88l19.92-20a8.86 8.86 0 0 1 5.88-2.52h34.8a9.19 9.19 0 0 1 5.88 2.52l19.92 20a8.23 8.23 0 0 1-5.88 14.16h-66.35v8.28l15.12 15h27.84L534.89 364a8.32 8.32 0 0 1 14.16 5.88zm-31.68-31.56h-27.83l-3.24 3.24h34.32zM570.26 350v-80a8.4 8.4 0 0 1 8.28-8.4 8.5 8.5 0 0 1 8.4 8.4v80a8.4 8.4 0 0 1-8.4 8.28 8.3 8.3 0 0 1-8.28-8.28zm0 40v-6a8.4 8.4 0 0 1 8.28-8.4 8.5 8.5 0 0 1 8.4 8.4v6a8.5 8.5 0 0 1-8.4 8.4 8.4 8.4 0 0 1-8.28-8.45z"/></g></svg>