<svg xmlns="http://www.w3.org/2000/svg" viewBox="0 0 700 500"><path fill="#f2f2f2" d="M0 0h700v500H0z" data-name="Ebene 1"/><g data-name="Ebene 2"><path d="M157.9 209.95V90a6.6 6.6 0 0 1 13.2 0v53.4h61.56V90a6.6 6.6 0 0 1 13.2 0v120a6.6 6.6 0 0 1-13.2 0v-53.4H171.1V210a6.6 6.6 0 0 1-13.2 0zM353.53 189.91a6.53 6.53 0 0 1-1.92 4.68l-20 20a6.63 6.63 0 0 1-4.56 1.92h-34.8a6.67 6.67 0 0 1-4.56-1.92l-20-20a6.93 6.93 0 0 1-1.92-4.68V170a6.93 6.93 0 0 1 1.92-4.68l20-20a6.63 6.63 0 0 1 4.56-1.92H327a6.68 6.68 0 0 1 4.56 1.92l20 20a6.62 6.62 0 0 1-4.68 11.28h-68v10.68L295 203.35h29.28l18-18.12a6.41 6.41 0 0 1 4.68-1.8 6.56 6.56 0 0 1 6.57 6.48zm-29.28-33.36H295l-6.72 6.84H331zM373.16 209.95V90a6.6 6.6 0 0 1 13.2 0v120a6.6 6.6 0 0 1-13.2 0zM409.93 209.95V90a6.6 6.6 0 0 1 13.2 0v120a6.6 6.6 0 0 1-13.2 0zM531 170v19.92a7 7 0 0 1-1.92 4.68l-20 20a6.63 6.63 0 0 1-4.56 1.92h-34.8a6.67 6.67 0 0 1-4.56-1.92l-20-20a6.93 6.93 0 0 1-1.92-4.68V170a7 7 0 0 1 1.92-4.68l20-20a6.63 6.63 0 0 1 4.56-1.92h34.8a6.68 6.68 0 0 1 4.56 1.92l20 20A6.93 6.93 0 0 1 531 170zm-29.3-13.45h-29.28l-16.08 16.08v14.64l16.08 16.08h29.28l16.08-16.08v-14.64zM110.76 263.35a6.78 6.78 0 0 1 6.48 5.16l21.84 100.08 18-41.28a6.65 6.65 0 0 1 6.12-4 7 7 0 0 1 6 4l18 41.28L209 268.51a6.78 6.78 0 0 1 6.48-5.16 6.58 6.58 0 0 1 6.6 6.6 6 6 0 0 1-.24 1.44l-26.16 120a6.59 6.59 0 0 1-12.48 1.2l-20.16-46.08-20 46.08a6.59 6.59 0 0 1-12.48-1.2l-26.16-120a6.05 6.05 0 0 1-.24-1.44 6.58 6.58 0 0 1 6.6-6.6zM316.35 350v19.92a7 7 0 0 1-1.92 4.68l-20 20a6.63 6.63 0 0 1-4.56 1.92H255a6.67 6.67 0 0 1-4.56-1.92l-20-20a6.93 6.93 0 0 1-1.92-4.68V350a7 7 0 0 1 1.92-4.68l20-20a6.63 6.63 0 0 1 4.56-1.92h34.8a6.68 6.68 0 0 1 4.56 1.92l20 20a6.93 6.93 0 0 1 1.99 4.68zm-29.28-13.44h-29.28l-16.08 16.08v14.64l16.08 16.08h29.28l16.08-16.08v-14.65zM349 329.95V334l8.64-8.76a7 7 0 0 1 4.68-1.92H387a6.6 6.6 0 0 1 0 13.2h-22l-16 16.11v37.32a6.76 6.76 0 0 1-6.72 6.6 6.56 6.56 0 0 1-6.48-6.6v-60a6.56 6.56 0 0 1 6.48-6.6 6.76 6.76 0 0 1 6.72 6.6zM410 389.95V270a6.6 6.6 0 0 1 13.2 0v120a6.6 6.6 0 1 1-13.2 0zM531 270v120a6.6 6.6 0 1 1-13.2 0v-4.08l-8.76 8.76a6.63 6.63 0 0 1-4.56 1.92H469.7a6.67 6.67 0 0 1-4.56-1.92l-20-20a6.93 6.93 0 0 1-1.92-4.68v-20a7 7 0 0 1 1.92-4.68l20-20a6.63 6.63 0 0 1 4.56-1.92h34.8a6.68 6.68 0 0 1 4.56 1.92l8.76 8.76V270a6.6 6.6 0 0 1 13.2 0zm-29.28 66.6h-29.26l-16.08 16.08v14.64l16.08 16.08h29.28l16.08-16.08v-14.69zM554.48 350v-80a6.6 6.6 0 0 1 13.2 0v80a6.6 6.6 0 0 1-13.2 0zm0 40v-6a6.6 6.6 0 0 1 13.2 0v6a6.6 6.6 0 0 1-13.2 0z"/></g></svg>