<svg xmlns="http://www.w3.org/2000/svg" viewBox="0 0 700 500"><path fill="#f2f2f2" d="M0 0h700v500H0z" data-name="Ebene 1"/><g data-name="Ebene 2"><path d="M186.91 106.44l16.83-14.19 1 1.21v53.79h37v-40.81l16.83-14.19 1 1.21v110l-16.83 14.19-1-1.21v-53.79h-37v40.81l-16.84 14.19-1-1.21zM343.09 147.25l1 1.21v55l-16.83 14.19-1-1.21v-16.28l-23.32 17.49h-6.16l-24.31-18.37-1-1.21V179.7l16.83-14.08 24.31-18.37h6.16l12.76 9.68zm-30.47 55h6.16l7.48-5.61v-16.5l-23.32-17.49h-6.16l-7.48 5.61v16.5zM361.31 106.44l16.83-14.19 1 1.21v110l-16.84 14.19-1-1.21zM396.83 106.44l16.83-14.19 1 1.21v110l-16.83 14.19-1-1.21zM501 185.2l-16.83 14.08-24.31 18.37h-6.16l-24.31-18.37-1-1.21V179.7l16.83-14.08 24.31-18.37h6.16L500 165.62l1 1.21zm-55.11-50.05l-1.1-1.21 16.83-14.19 21.89-9.13 1.1 1.21L467.75 126zm37.29 45l-23.32-17.49h-6.16l-7.48 5.61v16.5l23.32 17.49h6.16l7.48-5.61zM107.33 286.44l16.83-14.19 1 1.21v53.79h37v-40.81l16.83-14.19 1 1.21v110l-16.89 14.19-1-1.21v-53.79h-37v40.81l-16.83 14.19-1-1.21zM233 382.25h6.16l24.31-18.37 1 1.32-16.83 14.08-24.31 18.37h-6.13l-24.31-18.37-1-1.21V359.7l16.83-14.08L233 327.25h6.16l24.31 18.37 1 1.21-16.8 14.17h-38v3.74zm-9.68-39.6h-6.12l-3.85 3h13.86zM276.45 304.7l16.83-14.08 1 1.21v5.5l-16.83 14.19-1-1.32zm0 36.74l16.83-14.19 1 1.21v55l-16.83 14.19-1-1.21zM328.48 383.46l-16.83 14.19-1-1.21v-55l16.83-14.19 1 1.21v11.66l15.4-12.87 14.41 16.06 1.65-1.87 16.83-14.19 16.5 18.37 1 1.21v36.63l-16.83 14.19-1-1.21v-36.63L363.13 345l-1.76 1.87v36.63l-16.83 14.19-1-1.21v-36.67L330.24 345l-1.76 1.87zM463.26 341.44l16.83-14.19 1 1.21v36.74l-16.83 14.08-24.31 18.37h-6.16l-24.31-18.37-1-1.21v-36.63l16.83-14.19 1 1.21v36.3l23.32 17.49h6.16l7.48-5.61zM495.38 341.44l16.83-14.19 1 1.21v16.28l23.32-17.49H545l1 1.21-16.83 14.19h-8.47l-7.48 5.61v35.2l-16.83 14.19-1-1.21zM556.79 286.44l16.83-14.19 1 1.21v73.37L557.78 361l-1-1.32zm0 104.5l16.83-14.19 1 1.21v5.5l-16.83 14.19-1-1.21z"/></g></svg>