<svg xmlns="http://www.w3.org/2000/svg" viewBox="0 0 700 500"><path fill="#f2f2f2" d="M0 0h700v500H0z" data-name="Ebene 1"/><g data-name="Ebene 2"><path d="M136.23 102h70v6.72h-31.36v101.23h-7.32V108.67h-31.32zM282.44 204.43v-13.92h7.44v20.64h-67V131h67v43.44h-59.64v30zm0-36.72v-30h-52.2v30zM352.9 151.63v-13.92h-36.6v72.24H309V131h51.36v20.64zM438.85 204.43v-13.92h7.44v20.64h-67V131h67v43.44h-59.64v30zm0-36.72v-30h-52.2v30zM118.42 282h12l35.4 103.92L201.22 282h12v108h-7.44s.12-100.8 0-100.8L171.46 390h-12l-34.32-100.8V390h-6.72zM232.44 311h55.68v80.16h-55.68v-51.25h48.24v-22.2h-40.92v5.52h-7.32zm7.32 35.64v37.8h40.92v-37.8zM307.16 311h55.68v80.16h-55.68v-51.25h48.24v-22.2h-40.93v5.52h-7.32zm7.32 35.64v37.8h40.92v-37.8zM390.81 276v10.44h-10.44V276zm-8.88 36.24h7.32V390h-7.32zM408.15 276h7.32v114h-7.32zM441.56 389.95h-7.32V311h107.88v79h-7.44v-72.29h-42.84v72.24h-7.44v-72.24h-42.84zM570.9 379.87v10.08h-10.08v-10.08zM562.14 282h7.32v76.32h-7.32z"/></g></svg>