<svg xmlns="http://www.w3.org/2000/svg" viewBox="0 0 700 500"><path fill="#f2f2f2" d="M.34 0h700v500H.34z" data-name="Ebene 1"/><g data-name="Ebene 2"><path d="M170.62 142.87a11.36 11.36 0 0 1 3.12-7.92 11.64 11.64 0 0 1 15.6 0 11.36 11.36 0 0 1 3.12 7.92 10.92 10.92 0 1 1-21.84 0zM172.9 170h17.28v76H172.9zM213.28 102h17.16v46.2h42.84V102h17.16v108h-17.16v-46.2h-42.84V210h-17.16zM367.07 148.75c6.72 7 10 16.44 10 26.16s-3.24 19.08-10 26-16 10.2-25.44 10.2-18.72-3.36-25.32-10.2-10-16.32-10-26 3.24-19.2 10-26.16 15.84-10.2 25.32-10.2 18.84 3.36 25.44 10.2zm-38.52 11.16c-3.6 4.08-5 9.6-5 15s1.44 10.8 5 14.88a17.73 17.73 0 0 0 26.16 0 22.28 22.28 0 0 0 5.16-14.88c0-5.4-1.56-10.92-5.16-15a17.73 17.73 0 0 0-26.16 0zM391.88 96H409v114h-17.12zM441.25 162.67l-16.2-5.4a25.13 25.13 0 0 1 7.44-11.16c6.12-5.28 14.16-7.56 22.32-7.56s16.32 2.28 22.44 7.56a25.39 25.39 0 0 1 8.64 19.44v44.4h-17.16v-4.08a20.33 20.33 0 0 1-13.92 5.28c-7.92 0-16-1.68-22.32-6.36a19.8 19.8 0 0 1 0-32.88c6.36-4.68 14.4-6.36 22.32-6.36a20.33 20.33 0 0 1 13.92 5.28v-5.28c0-7.2-6.84-11.4-13.92-11.4-6.24 0-12 3.12-13.56 8.52zm27.48 25.68c0-5.64-8.52-7.2-13.92-7.2a21.74 21.74 0 0 0-10 1.92c-2.16 1.08-4 3-4 5.28 0 5.64 8.52 7.2 13.92 7.2s14-1.55 14-7.2zM112.85 282h14.4l38.88 84.6L205 282h14.4v108h-17.15v-62.93l-28.92 62.88h-14.4L130 327.07v62.88h-17.15zM268.52 375.55a12.17 12.17 0 0 0 9.48-4.68c2.64-3.36 3.6-7.8 3.6-12.12v-39h17.16v70.2H281.6v-6c-3.24 4.2-7.8 7.2-13.08 7.2a29.53 29.53 0 0 1-21.72-9c-5.88-6.24-8.52-14.88-8.52-23.4v-39h17.16v39c0 8.25 4.56 16.8 13.08 16.8zM350.07 334.15a15.31 15.31 0 0 0-11.28 4.68 17.8 17.8 0 0 0-4.44 12.17v39h-17.16v-70.2h17.16v7.08c3.84-5 9.48-8.28 15.72-8.28a26.14 26.14 0 0 1 19.92 9c5.52 6.36 7.68 15 7.68 23.4v39h-17.16v-39c0-7.25-2.88-16.85-10.44-16.85zM443.35 389.95v-8.88c-4 5.88-10.32 10.08-17.4 10.08a33.78 33.78 0 0 1-24.72-10.2c-6.6-7-9.72-16.44-9.72-26s3.12-19.2 9.72-26.16A33.78 33.78 0 0 1 426 318.55c7.08 0 13.44 4.2 17.4 10.08V276h17.16v114zm-29.76-50c-3.48 4.08-4.92 9.6-4.92 15s1.44 10.8 4.92 14.88a16 16 0 0 0 12.41 5.72 16.19 16.19 0 0 0 12.48-5.76c3.48-4.08 4.92-9.48 4.92-14.88s-1.44-10.92-4.92-15a16.19 16.19 0 0 0-12.48-5.76 16 16 0 0 0-12.41 5.76zM536.29 328.75c6.72 7 10 16.44 10 26.16s-3.24 19.08-10 26-16 10.2-25.44 10.2-18.72-3.36-25.32-10.2-10-16.32-10-26 3.24-19.2 10-26.16 15.84-10.2 25.32-10.2 18.84 3.36 25.44 10.2zm-38.52 11.16c-3.6 4.08-5 9.6-5 15s1.44 10.8 5 14.88a17.73 17.73 0 0 0 26.16 0 22.28 22.28 0 0 0 5.16-14.88c0-5.4-1.56-10.92-5.16-15a17.73 17.73 0 0 0-26.16 0zM572.58 368.11A10.81 10.81 0 0 1 583.5 379a11.36 11.36 0 0 1-3.12 7.92 11.64 11.64 0 0 1-15.6 0 11.36 11.36 0 0 1-3.12-7.92 10.81 10.81 0 0 1 10.92-10.89zM563.94 282h17.28v70h-17.28z"/></g></svg>