<svg xmlns="http://www.w3.org/2000/svg" viewBox="0 0 700 500"><path fill="#f2f2f2" d="M-.06 0h700v500h-700z" data-name="Ebene 1"/><g data-name="Ebene 2"><path d="M308.75 209.95v-51.6H264v51.6h-16.33V102H264v51.6h44.76V102h16.32v108zM377.46 206.35c8.88 0 4.56-10.8 5.52-18.12l5.64 2.28c-3.24 8-1.08 20.64-11.16 20.64h-3.84c-11.52 0-7.2-16.32-13-23.64-5.28-6.72-18.6-6.84-18.6-16.44s13.32-9.72 18.6-16.44c5.76-7.32 1.44-23.64 13-23.64h3.84c11.4 0 7.08 16.32 13 23.64 5.28 6.72 18.6 6.84 18.6 16.44v2.4h-50.31c1.44 4.56 6.72 7.44 8.64 12.12 3 7-3.84 20.76 6.24 20.76zm14.88-37.68c-1.44-4.56-6.72-7.44-8.64-12.12-3.12-7 3.84-20.76-6.24-20.76h-3.84c-10.08 0-3.24 13.8-6.24 20.76-1.92 4.68-7.2 7.56-8.64 12.12zM421.72 239c-2.88-3.36-9.36-3.6-11.52-7.08l15.6-10v7.2c0 2.76 1.92 5.16 2.64 7.92 1 4.08-3.84 11.28 1.8 11.28h1.08c5.52 0 .84-7.2 1.8-11.28.6-2.76 2.64-5.16 2.64-7.92v-97h16.32v97c0 6.24-8.76 5.76-12.24 9.84-3.72 4.32-1.56 14.16-8.52 14.16h-1.08c-6.96.03-4.8-9.81-8.52-14.12zm26.52-136.92c1.8 1.8 6.12 1.2 6.12 4.32s-4.32 2.4-6.12 4.2-1.32 6.12-4.32 6.12-2.4-4.32-4.32-6.12-6.12-1.2-6.12-4.2 4.32-2.52 6.12-4.32 1.32-6.08 4.32-6.08 2.4 4.27 4.32 6.07zM123.85 282l28.08 92.52S179.89 282 180 282h4.8s-32.64 108-32.76 108H140l-32.59-108zM224.6 386.35c8.88 0 4.56-10.8 5.52-18.12l5.64 2.28c-3.24 8-1.08 20.64-11.16 20.64h-3.84c-11.52 0-7.2-16.32-13-23.64-5.28-6.72-18.6-6.84-18.6-16.44s13.32-9.72 18.6-16.44c5.76-7.32 1.44-23.64 13-23.64h3.84c11.4 0 7.08 16.32 13 23.64 5.28 6.72 18.6 6.84 18.6 16.44v2.4h-50.32c1.44 4.56 6.72 7.44 8.64 12.12 3 7-3.84 20.76 6.24 20.76zm14.88-37.68c-1.44-4.56-6.72-7.44-8.64-12.12-3.12-7 3.84-20.76-6.24-20.76h-3.84c-10.08 0-3.24 13.8-6.24 20.76-1.92 4.68-7.2 7.56-8.64 12.12zM307.16 357.43V338c0-3.6-3.72-5.76-4.92-9.12-1.8-4.44 2.88-13.08-3.48-13.08h-2c-6.36 0-1.68 8.64-3.36 13.08-1.32 3.36-4.92 5.52-4.92 9.12v52h-16.36v-77.81h16.32v11.64c2.16-5.4 1.92-12.84 8.28-12.84h2c7.8 0 5.76 11.16 10.08 16 2.28 2.4 6 3.36 9.24 4.68zM380 389.95v-24.6a9.76 9.76 0 0 0-2.28 2.16c-5.88 7.32-1.56 23.64-13 23.64h-3.84c-11.52 0-7.2-16.32-13-23.64-5.28-6.72-18.6-6.84-18.6-16.44s13.32-9.72 18.6-16.44c5.76-7.32 1.44-23.64 13-23.64h3.84c11.4 0 7.08 16.32 13 23.64a9.76 9.76 0 0 0 2.28 2.16V276h16.32v114zm-9-53.4c-3.12-7 3.84-20.76-6.24-20.76h-3.84c-10.08 0-3.24 13.8-6.24 20.76-2.28 5.4-9 8.52-9 14.52s6.72 9.12 9 14.52c3 7-3.84 20.76 6.24 20.76h3.84c10.08 0 3.12-13.8 6.24-20.76 2.28-5.4 9-8.52 9-14.52s-6.76-9.07-9-14.52zM448 386.35c8.88 0 4.56-10.8 5.52-18.12l5.64 2.28c-3.24 8-1.08 20.64-11.16 20.64h-3.84c-11.52 0-7.2-16.32-13-23.64-5.28-6.72-18.6-6.84-18.6-16.44s13.32-9.72 18.6-16.44c5.76-7.32 1.44-23.64 13-23.64H448c11.4 0 7.08 16.32 13 23.64 5.28 6.72 18.6 6.84 18.6 16.44v2.4h-50.27c1.44 4.56 6.72 7.44 8.64 12.12 3 7-3.84 20.76 6.24 20.76zm14.88-37.68c-1.44-4.56-6.72-7.44-8.64-12.12-3.12-7 3.84-20.76-6.24-20.76h-3.84c-10.08 0-3.24 13.8-6.24 20.76-1.92 4.68-7.2 7.56-8.64 12.12zM524 311h3c8 0 6.84 11.28 11.76 16s16.8 2.76 16.8 11v52h-16.31v-52c0-4.2-5.28-5.64-7.2-9.12-2.4-4.32 1.32-13.08-5-13.08h-3c-6.36 0-2.64 8.76-4.92 13.08-1.92 3.48-7.2 4.92-7.2 9.12v52h-16.36v-77.81h16.32v15.24C517.29 323 515.85 311 524 311zM588.51 375.31c1.8 1.8 6.12 1.2 6.12 4.2s-4.32 2.52-6.12 4.32-1.2 6.12-4.2 6.12-2.52-4.32-4.32-6.12-6.12-1.2-6.12-4.32 4.32-2.4 6.12-4.2 1.2-6.12 4.32-6.12 2.4 4.32 4.2 6.12zM576.15 282h16.32v65.64h-16.32z"/></g></svg>