<svg xmlns="http://www.w3.org/2000/svg" viewBox="0 0 700 500"><path fill="#f2f2f2" d="M.34 0h700v500H.34z" data-name="Ebene 1"/><g data-name="Ebene 2"><path d="M250.19 102H255l42.48 108h-4.2l-14.64-37.08h-52.57L211.55 210h-4zm2.16 4.32l-24.84 63h49.68zM311.29 96h4v56.28a24.17 24.17 0 0 1 6.12-7c6.48-4.92 14.88-6.72 23-6.72a23.68 23.68 0 0 1 16.8 6.72c4.44 4.56 6.48 10.92 6.48 17.28v47.4h-4v-47.4a21.39 21.39 0 0 0-5.4-14.76 18.73 18.73 0 0 0-13.92-5.64c-7.44 0-14.88 1.44-21 5.64a18.19 18.19 0 0 0-8.16 14.76v47.4h-4zM445.45 148.75c6.72 7 10 16.44 10 26.16s-3.24 19.08-10 26-16 10.2-25.44 10.2-18.72-3.36-25.32-10.2-10-16.32-10-26 3.24-19.2 10-26.16 15.84-10.2 25.32-10.2 18.84 3.36 25.44 10.2zm-48 2.52c-6 6.24-8.76 15-8.76 23.64s2.76 17.28 8.76 23.52 14 9.12 22.56 9.12 16.68-3 22.56-9.12 8.88-14.88 8.88-23.52-2.88-17.4-8.88-23.64-14-9.12-22.56-9.12-16.68 3-22.56 9.12zM459.73 243.55a18.67 18.67 0 0 0 12.84-4.68 16.4 16.4 0 0 0 5-12.12v-87h4v87a19.66 19.66 0 0 1-6.12 14.64 22.75 22.75 0 0 1-15.72 5.76c-6.12 0-12.24-2.16-16.32-6.36l2.76-2.64a18.45 18.45 0 0 0 13.56 5.4zm15.84-135.23a3 3 0 0 1 3.12 3.12 2.93 2.93 0 0 1-3.12 3 2.83 2.83 0 0 1-3-3 2.93 2.93 0 0 1 3-3.13zM165.41 372.07a24.31 24.31 0 0 0 6.6 8.28c6.6 5.28 15.12 7.2 23.52 7.2s17.28-1.56 24-6.84a24.2 24.2 0 0 0 8.76-19.08 23.41 23.41 0 0 0-18.72-23l-26.88-2.16a27.84 27.84 0 0 1-22.44-27.12c0-8 3.12-16 9.36-21 7.2-5.88 16.68-7.56 25.92-7.56s18.48 2.16 25.56 7.92a26.3 26.3 0 0 1 6.12 7.08l-3.6 1.68a23.88 23.88 0 0 0-5.4-6.12c-6.36-5-14.52-7-22.68-7s-16.56 1.44-23 6.6c-5.52 4.32-8.28 11.28-8.28 18.36a24 24 0 0 0 19.2 23.52l26.84 2.17a27.23 27.23 0 0 1 22 26.64c0 8.28-3.24 16.56-9.72 21.72-7.44 6-17.4 7.8-27 7.8s-18.84-2.28-26.28-8.28a28.2 28.2 0 0 1-7.44-9zM240.11 319.75l30.12 66.12 30-66.12h4.2l-31.92 70.2h-4.8l-31.92-70.2zM370.75 382.87c-7.08 5.88-16.2 8.28-25.44 8.28-9.48 0-18.72-3.36-25.32-10.2s-10-16.32-10-26 3.24-19.2 10-26.16 15.84-10.2 25.32-10.2 18.84 3.36 25.44 10.2 10 16.44 10 26.16v1.8H314c.36 8 3.12 15.84 8.76 21.72 5.88 6.12 14 9.12 22.56 9.12 8.16 0 16.32-2 22.56-7.32a24.93 24.93 0 0 0 5.4-6.36l3.36 2a27.06 27.06 0 0 1-5.89 6.96zm-2.88-51.6c-5.88-6.12-14-9.12-22.56-9.12s-16.68 3-22.56 9.12c-5.64 5.88-8.4 13.68-8.76 21.72h62.64c-.36-8.04-3.12-15.84-8.76-21.72zm-.87-48.36l-19 21.6h-5.4l-19-21.6h4l17.64 18.72L363 282.91zM384.88 319.75h19.56V276h4v43.8H428v3.6h-19.61V390h-4v-66.6h-19.51zM492.9 382.87c-7.08 5.88-16.2 8.28-25.44 8.28-9.48 0-18.72-3.36-25.32-10.2s-10-16.32-10-26 3.24-19.2 10-26.16 15.84-10.2 25.32-10.2 18.84 3.36 25.44 10.2 10 16.44 10 26.16v1.8h-66.76c.36 8 3.12 15.84 8.76 21.72 5.88 6.12 14 9.12 22.56 9.12 8.16 0 16.32-2 22.56-7.32a24.94 24.94 0 0 0 5.4-6.36l3.36 2a27.08 27.08 0 0 1-5.88 6.96zm-2.9-51.6c-5.88-6.12-14-9.12-22.56-9.12s-16.68 3-22.56 9.12c-5.64 5.88-8.4 13.68-8.76 21.72h62.64c-.34-8.04-3.1-15.84-8.76-21.72zM525.07 383.95a3 3 0 1 1-3 3 3 3 0 0 1 3-3zm-2-102h4.08v85.8H523z"/></g></svg>