<svg xmlns="http://www.w3.org/2000/svg" viewBox="0 0 700 500"><path fill="#f2f2f2" d="M.15 0h700v500H.15z" data-name="Ebene 1"/><g data-name="Ebene 2"><path d="M267 143.64a35.63 35.63 0 0 1 17.16 8.45 33.46 33.46 0 0 1 0 48.49c-7.28 6.63-17 9.36-26.91 9.36H220v-117h37.31c8.45 0 16.64 2.73 22.62 8.58a30.72 30.72 0 0 1 8.84 22.1c-.04 11.31-11.48 18.07-21.77 20.02zm-43.55-1h33.8c7.15 0 14.3-1.17 20.15-5.2a16.79 16.79 0 0 0 7.8-13.78c0-5.59-3.12-10.53-7.8-13.65-5.85-4-13-5.33-20.15-5.33h-33.8zm0 55.64h33.8c8.58 0 17.16-1.43 24.31-6.11 5.46-3.51 9.49-9.36 9.49-15.86s-4-12.22-9.49-15.73c-7.15-4.68-15.73-6.24-24.31-6.24h-33.8zM379.49 143.64c7.28 7.54 10.66 17.81 10.66 28.34s-3.38 20.67-10.66 28.21-17.29 11-27.56 11-20.41-3.64-27.56-11-10.66-17.67-10.66-28.19 3.38-20.8 10.66-28.34 17.29-11 27.56-11 20.41 3.57 27.56 10.98zM327 152.09a25.16 25.16 0 0 0 0 39.78c7 5.59 16 7.67 25 7.67s17.94-2.08 25-7.67a25.17 25.17 0 0 0 0-39.78c-7-5.59-16-7.8-25-7.8s-18 2.21-25 7.8zM416.24 86.44v85.28l44.07-37.83h17.94l-36.4 31.33 36.4 44.72h-4.81L439 167.7l-22.75 19.5v22.75h-3.51V86.44zM127.47 283.34c-8.19 0-16.51 1-23.4 5.59a19 19 0 0 0-8.45 15.6c0 9.62 10 14.82 20.15 17l31.33 7c12.74 2.86 20 15.6 20 29 0 9.36-3.38 18.59-10.53 24.7-7.93 6.76-18.59 9-29.12 9s-21.06-2.21-29-9a28.89 28.89 0 0 1-9.1-14.3l4.55-1.43a20.91 20.91 0 0 0 7.15 7.15c7.93 4.81 17.16 5.85 26.39 5.85s18.59-1 26.52-5.85c5.72-3.51 9.62-9.49 9.62-16.12 0-9.23-9-15.08-18.59-17.29l-31.33-7c-13.13-3-21.58-15.21-21.58-28.73 0-9 2.73-18.07 9.36-24.18 7-6.5 16.51-8.71 26-8.71s18.72 2.86 25.61 9.23a31 31 0 0 1 8.58 14l-4.42 1.3c-5.04-8.78-17.91-12.81-29.74-12.81zM179.78 313.89l28.73 71 28.86-71h13.26l-30.81 76.05h-13L176 313.89zM271.65 279.83a2.86 2.86 0 1 1-2.86 2.86 2.89 2.89 0 0 1 2.86-2.86zm-1.82 34.06h3.51v76.05h-3.51zM307.45 404.25v-90.36H311v90.35c0 6.89-2.08 13.65-6.63 18.72a22.6 22.6 0 0 1-17 7.28 23.16 23.16 0 0 1-19.89-11.18l6.5-3.77c4 2.47 8.71 3.25 13.39 3.25 9.29.01 20.08-4.54 20.08-14.29zm-3-124.42a2.86 2.86 0 1 1-2.86 2.86 2.89 2.89 0 0 1 2.87-2.86zM343.57 380.2c-7.28-7.54-10.66-17.68-10.66-28.21s3.38-20.8 10.66-28.34 17.29-11 27.56-11 20.41 3.64 27.56 11 10.66 17.81 10.66 28.34v5.85h-72.28a25.8 25.8 0 0 0 9.1 14c7 5.59 16 7.67 25 7.67 9.49 0 19.11-2.6 26-8.58l5.85 3.77a34.52 34.52 0 0 1-4.29 5.46c-7.15 7.41-17.29 11-27.56 11s-20.45-3.55-27.6-10.96zm52.52-48.1c-7-5.59-16-7.8-25-7.8s-17.94 2.21-25 7.8a25.8 25.8 0 0 0-9.1 14h66.56l2 2a26 26 0 0 0-9.45-16.01zM418.79 313.89h26v-47.45h3.38v47.45h26v11.7h-26v64.35h-3.38v-64.35h-26zM494.46 380.2c-7.28-7.54-10.66-17.68-10.66-28.21s3.38-20.8 10.66-28.34 17.29-11 27.56-11 20.41 3.64 27.56 11 10.66 17.81 10.66 28.34v5.85H488a25.8 25.8 0 0 0 9.1 14c7 5.59 16 7.67 25 7.67 9.49 0 19.11-2.6 26-8.58l5.85 3.77a34.49 34.49 0 0 1-4.29 5.46c-7.15 7.41-17.29 11-27.56 11s-20.49-3.55-27.64-10.96zM547 332.09c-7-5.59-16-7.8-25-7.8s-17.94 2.21-25 7.8a25.8 25.8 0 0 0-9.1 14h66.56l2 2a26 26 0 0 0-9.46-16zM586.74 384.49a2.73 2.73 0 1 1 0 5.46 2.73 2.73 0 1 1 0-5.46zm-1.82-111.54h3.51v94h-3.51z"/></g></svg>