<svg xmlns="http://www.w3.org/2000/svg" viewBox="0 0 700 500"><path fill="#f2f2f2" d="M.15 0h700v500H.15z" data-name="Ebene 1"/><g data-name="Ebene 2"><path d="M95.14 102h4.8l29.4 103.92L196.89 102h4.8l-19.44 108h-4l18-100-64.92 100h-4.8L97.9 108.67 79.66 209.95h-4zM245.94 138.55c9.48 0 18.24 3.36 23.64 10.2 4.08 5 5.88 11.52 5.88 18.48a41.58 41.58 0 0 1-.72 7.68l-.24 1.8h-66.72a35.62 35.62 0 0 0-.36 5c0 6.24 1.68 12.12 5.28 16.68 4.8 6.12 12.36 9.12 20.88 9.12a40 40 0 0 0 23.88-7.32 29.64 29.64 0 0 0 6.48-6.36l3 2a35.39 35.39 0 0 1-7.08 7 45.51 45.51 0 0 1-26.86 8.32c-9.48 0-18.24-3.36-23.64-10.2-4.08-5-5.88-11.52-5.88-18.48-.02-23.88 18.82-43.92 42.46-43.92zm25.56 29.4c0-6.24-1.68-12.12-5.28-16.68-4.8-6.12-12.36-9.12-20.88-9.12a36.78 36.78 0 0 0-24.24 9.12A41.11 41.11 0 0 0 208.5 173h62.64a35.55 35.55 0 0 0 .36-5.05zM295.27 139.75h4l-2.4 12.72a30.12 30.12 0 0 1 6.24-6.72 34.26 34.26 0 0 1 21.36-7.2 31.64 31.64 0 0 1 13.2 2.64l-2.16 3.36a26.62 26.62 0 0 0-11.64-2.4 31.91 31.91 0 0 0-19.2 6.24 25.76 25.76 0 0 0-9.84 16l-8.28 45.6h-4zM353.53 96h4l-10.08 56.28a31.68 31.68 0 0 1 7.44-7c7.44-4.92 16-6.72 24.12-6.72 6.24 0 12 2.28 15.6 6.72a19.59 19.59 0 0 1 3.84 12.24 23.77 23.77 0 0 1-.36 5l-8.64 47.4h-4l8.64-47.4a27.66 27.66 0 0 0 .36-4.44 17 17 0 0 0-3.24-10.32c-2.88-3.84-7.68-5.64-13-5.64-7.44 0-15.12 1.44-22 5.64-5.52 3.36-9.72 8.76-10.8 14.64L337 209.95h-4zM445.8 138.55c8.16 0 16 2.52 21 8 3.72 4.08 5.4 9.48 5.4 15.36a26.2 26.2 0 0 1-.48 5.28L464 209.95h-4l2-11a27.28 27.28 0 0 1-6.6 6.05c-7 4.56-15 6.12-22.68 6.12-13 0-27.36-5.28-27.36-18.84a14.22 14.22 0 0 1 .24-3.12c1.2-6.36 5.64-12 11.52-15.72a44.11 44.11 0 0 1 23.52-6.24c10.68 0 21.36 3.72 25 12.24l2.16-12.24a31 31 0 0 0 .48-4.68 19.56 19.56 0 0 0-4.8-13.32c-4.44-4.92-11-7.08-18.24-7.08a33 33 0 0 0-20.76 7.08 26.35 26.35 0 0 0-2.76 2.4l-2.64-2.4c6.56-6.57 17.24-10.65 26.72-10.65zm-5.8 32.28c-6.84 0-14.16 1.32-20.52 5.16-5 3-9 7.8-10 13.2a17.88 17.88 0 0 0-.24 2.52c0 11.64 13.08 15.84 24.12 15.84 6.84 0 14-1.32 20.4-5.16 5-3 9-7.8 10-13.2a16.27 16.27 0 0 0 .24-2.4c0-11.64-12.93-15.96-24-15.96zM516.51 211.15c-9.12 0-17.28-3.48-22.2-10.2a27.73 27.73 0 0 1-4.56-10.56l-3.6 19.56h-4L502.71 96h4l-11.4 63.36a41.75 41.75 0 0 1 8.52-10.56 38.4 38.4 0 0 1 25.8-10.2c9.36 0 17.76 3.48 22.92 10.2 4 5 5.64 11.4 5.64 18.24-.04 23.59-18.19 44.11-41.68 44.11zm37.68-43.44c0-6.12-1.44-11.88-4.92-16.44-4.56-6-12.12-9.12-20.4-9.12-21.12 0-37.08 18.6-37.08 39.84 0 6.12 1.56 11.88 5 16.44 4.56 6 12 9.12 20.28 9.12 21.16 0 37.12-18.72 37.12-39.84zM605 138.55c8.16 0 16 2.52 21 8 3.72 4.08 5.4 9.48 5.4 15.36a26.17 26.17 0 0 1-.48 5.28l-7.68 42.72h-4l2-11a27.26 27.26 0 0 1-6.72 6.12c-7 4.56-15 6.12-22.68 6.12-13 0-27.36-5.28-27.36-18.84a14.22 14.22 0 0 1 .24-3.12c1.2-6.36 5.64-12 11.52-15.72a44.11 44.11 0 0 1 23.52-6.24c10.68 0 21.36 3.72 25 12.24l2.24-12.24a31 31 0 0 0 .48-4.68 19.56 19.56 0 0 0-4.8-13.32c-4.44-4.92-11-7.08-18.24-7.08a33 33 0 0 0-20.76 7.08 26.35 26.35 0 0 0-2.76 2.4l-2.64-2.4c6.59-6.6 17.27-10.68 26.72-10.68zm-5.76 32.28c-6.84 0-14.16 1.32-20.52 5.16-5 3-9 7.8-10 13.2a17.88 17.88 0 0 0-.24 2.52c0 11.64 13.08 15.84 24.12 15.84 6.84 0 14-1.32 20.4-5.16 5-3 9-7.8 10-13.2a16.26 16.26 0 0 0 .24-2.4c.03-11.64-12.93-15.96-23.97-15.96zM137.48 282h31.2c14.52 0 28 4.92 36.48 15.12 6.24 7.56 9.24 17.4 9.24 28a57.09 57.09 0 0 1-1.08 10.92 66.33 66.33 0 0 1-22.2 38.88 65.41 65.41 0 0 1-41.88 15.12H118zm12.36 104.4a60 60 0 0 0 38.88-14.16A61.36 61.36 0 0 0 209.36 336a59.78 59.78 0 0 0 1-10.2c0-9.84-2.64-19-8.52-26-7.8-9.6-20.28-14.16-33.84-14.16h-27.16l-18.12 100.8zM222 371a21.81 21.81 0 0 1 .36-3.84l8.52-47.4h4l-8.52 47.4a14.76 14.76 0 0 0-.24 3.24c0 12 11.52 17.16 22.92 17.16 6.72 0 13.8-1.44 19.92-5.64A23.74 23.74 0 0 0 279 367.15l8.52-47.4h4l-12.72 70.2h-4l2.16-12a30.16 30.16 0 0 1-6.48 6.48 38 38 0 0 1-22.2 6.72c-13.21 0-26.28-6.36-26.28-20.15zm30-82.68a2.33 2.33 0 0 1 2.52 2.52 3.69 3.69 0 0 1-3.6 3.6 2.42 2.42 0 0 1-2.64-2.52 3.72 3.72 0 0 1 3.72-3.61zm30 0a2.42 2.42 0 0 1 2.64 2.52 3.72 3.72 0 0 1-3.72 3.6 2.33 2.33 0 0 1-2.52-2.52 3.69 3.69 0 0 1 3.6-3.61zM310.26 319.75h4l-2.4 12.84a29.81 29.81 0 0 1 8.16-7.32c8-5 17.16-6.72 25.92-6.72 6.6 0 12.84 2.16 16.8 6.72a19.12 19.12 0 0 1 4.32 12.6 30.75 30.75 0 0 1-.36 4.68l-8.7 47.4h-4l8.64-47.4a23.4 23.4 0 0 0 .36-4.08 16.42 16.42 0 0 0-3.6-10.68c-3.36-3.84-8.52-5.64-14.16-5.64-7.92 0-16.32 1.32-23.76 5.64-5.76 3.36-10.44 8.76-11.52 14.76l-8.52 47.4h-4zM380.15 319.75l18.24 64.68L440 319.75h4.68l-68.4 106.2h-4.56l23.88-37.08-19.6-69.12zM478.62 318.55c8.16 0 16 2.52 21 8 3.72 4.08 5.4 9.48 5.4 15.36a26.17 26.17 0 0 1-.48 5.28l-7.68 42.72h-4l2-11a27.26 27.26 0 0 1-6.72 6.12c-7 4.56-15 6.12-22.68 6.12-13 0-27.36-5.28-27.36-18.84a14.22 14.22 0 0 1 .24-3.12c1.2-6.36 5.64-12 11.52-15.72a44.11 44.11 0 0 1 23.52-6.24c10.68 0 21.36 3.72 25 12.24l2.16-12.24a31 31 0 0 0 .48-4.68 19.56 19.56 0 0 0-4.8-13.32c-4.44-4.92-11-7.08-18.24-7.08a33 33 0 0 0-20.76 7.08 26.35 26.35 0 0 0-2.76 2.4l-2.64-2.4c6.64-6.6 17.32-10.68 26.8-10.68zm-5.76 32.28c-6.84 0-14.16 1.32-20.52 5.16-5 3-9 7.8-10 13.2a17.88 17.88 0 0 0-.24 2.52c0 11.64 13.08 15.84 24.12 15.84 6.84 0 14-1.32 20.4-5.16 5-3 9-7.8 10-13.2a16.26 16.26 0 0 0 .24-2.4c0-11.64-12.96-15.96-24-15.96zM521.41 383.95a2.2 2.2 0 0 1 2.4 2.4 3.51 3.51 0 0 1-3.48 3.6 2.2 2.2 0 0 1-2.4-2.4 3.51 3.51 0 0 1 3.48-3.6zm16.32-102h4l-15.36 85.8h-4z"/></g></svg>