<svg xmlns="http://www.w3.org/2000/svg" viewBox="0 0 700 500"><path fill="#f2f2f2" d="M.34 0h700v500H.34z" data-name="Ebene 1"/><g data-name="Ebene 2"><path d="M203.72 102h4v52.2h69.24V102h4v108h-4v-52.2h-69.28V210h-4zM329.51 138.55c8.16 0 16.44 2.52 22.44 8a27.72 27.72 0 0 1 8.64 20.64v42.72h-4v-11a20.67 20.67 0 0 1-5.52 6.12c-6.12 4.56-13.92 6.12-21.6 6.12-7.92 0-15.84-1.56-22.32-6.12-5.16-3.72-8.76-9.48-8.76-15.84s3.6-12 8.76-15.72c6.48-4.56 14.4-6.24 22.32-6.24 7.68 0 15.48 1.68 21.6 6.24a20.23 20.23 0 0 1 5.52 6v-12.24a24.2 24.2 0 0 0-7.56-18c-5.28-4.92-12.36-7.08-19.56-7.08-8.52 0-16.92 3.36-21.84 9.48l-3-2.4c5.68-6.84 15.28-10.68 24.88-10.68zM310 176c-4.44 3-7.56 7.8-7.56 13.2s3.12 10.2 7.56 13.2c5.76 3.84 12.72 5.16 19.56 5.16s13.8-1.32 19.56-5.16c4.44-3 7.56-7.8 7.56-13.2s-3.12-10.2-7.56-13.2c-5.76-3.84-12.72-5.16-19.56-5.16S315.71 172.15 310 176zM381.8 96h4v114h-4zM406.85 96h4v114h-4zM489.16 148.75c6.72 7 10 16.44 10 26.16s-3.24 19.08-10 26-16 10.2-25.44 10.2-18.72-3.36-25.32-10.2-10-16.32-10-26 3.24-19.2 10-26.16 15.84-10.2 25.32-10.2 18.84 3.36 25.44 10.2zm-48 2.52c-6 6.24-8.76 15-8.76 23.64s2.76 17.28 8.76 23.52 14 9.12 22.56 9.12 16.68-3 22.56-9.12 8.88-14.88 8.88-23.52-2.88-17.4-8.88-23.64-14-9.12-22.56-9.12-16.72 3-22.56 9.12zM480 102.91l-16.92 21.6h-3.68l15.72-21.6zM106.52 282h4v52.2h69.24V282h4v108h-4v-52.2h-69.28V390h-4zM263.31 382.87c-7.08 5.88-16.2 8.28-25.44 8.28-9.48 0-18.72-3.36-25.32-10.2s-10-16.32-10-26 3.24-19.2 10-26.16 15.84-10.2 25.32-10.2 18.84 3.36 25.44 10.2 10 16.44 10 26.16v1.8h-66.75c.36 8 3.12 15.84 8.76 21.72 5.88 6.12 14 9.12 22.56 9.12 8.16 0 16.32-2 22.56-7.32a24.94 24.94 0 0 0 5.4-6.36l3.36 2a27.08 27.08 0 0 1-5.89 6.96zm-2.88-51.6c-5.88-6.12-14-9.12-22.56-9.12s-16.68 3-22.56 9.12c-5.64 5.88-8.4 13.68-8.76 21.72h62.64c-.36-8.04-3.12-15.84-8.76-21.72zM293.58 288.31a2.93 2.93 0 0 1 3 3.12 2.83 2.83 0 0 1-3 3 2.93 2.93 0 0 1-3.12-3 3 3 0 0 1 3.12-3.12zm-2 31.44h4v70.2h-4zM318.51 319.75h4v12.12a22.93 22.93 0 0 1 5.64-6.6c6-4.8 13.8-6.72 21.6-6.72a21.31 21.31 0 0 1 15.84 6.72 22.36 22.36 0 0 1 5 9 22.55 22.55 0 0 1 6.72-9c6-4.8 13.8-6.72 21.6-6.72a21.31 21.31 0 0 1 15.84 6.72c4.32 4.68 6.24 10.92 6.24 17.28v47.4h-4v-47.4c0-5.4-1.44-10.8-5-14.76a17.34 17.34 0 0 0-13.08-5.64c-7 0-14 1.44-19.56 5.64a18.59 18.59 0 0 0-7.56 14.76v47.4h-4v-47.4c0-5.4-1.56-10.8-5.16-14.76a17.08 17.08 0 0 0-13-5.64c-7 0-14 1.44-19.56 5.64a18.7 18.7 0 0 0-7.68 14.76v47.4h-4zM501.51 389.95h-4v-12a22.79 22.79 0 0 1-5.28 6.48c-5.88 4.8-13.44 6.72-21 6.72-7.8 0-15.6-1.92-21.72-6.72a22.25 22.25 0 0 1-8.51-17.28v-47.4h4v47.4a18.82 18.82 0 0 0 7.44 14.76c5.4 4.2 12.12 5.64 18.84 5.64s13.56-1.44 19-5.64a18.7 18.7 0 0 0 7.32-14.76v-47.4h4zM522.94 319.75h4v12.72a23 23 0 0 1 5-6.72c5.4-5 12.72-7.2 20-7.2a34.57 34.57 0 0 1 13.56 2.64l-1.44 3.36a29.55 29.55 0 0 0-12.12-2.4c-6.6 0-13.08 1.92-18 6.24a21.09 21.09 0 0 0-7.08 16v45.6h-4zM582.51 383.95a3 3 0 1 1-3 3 3 3 0 0 1 3-3zm-2-102h4.08v85.8h-4.08z"/></g></svg>