<svg xmlns="http://www.w3.org/2000/svg" viewBox="0 0 700 500"><path fill="#f2f2f2" d="M0 0h700v500H0z" data-name="Ebene 1"/><g data-name="Ebene 2"><path d="M214.67 102h11.88l-8.76 48.6h53.4l8.76-48.6h11.88l-19.44 108h-11.88l8.76-48.6h-53.4l-8.76 48.6h-11.88zM332.84 149.35a23.9 23.9 0 0 0-14.63 4.65 22.3 22.3 0 0 0-4.8 5.28l-9.72-5.28a31.71 31.71 0 0 1 7.32-7.68 39.14 39.14 0 0 1 23.76-7.8c8.16 0 15.84 2.4 21 7.8a21.27 21.27 0 0 1 5.64 14.88 23.87 23.87 0 0 1-.48 5L353 209.95h-11.87l1.2-6.12c-5.52 4.8-13.44 7.32-20.64 7.32-7.92 0-15.6-1.56-21.24-6.24a16.47 16.47 0 0 1-6-13 14.73 14.73 0 0 1 .24-3.24c1.2-6.48 5.64-12.36 11.64-16.2 7.32-4.68 15.6-6.24 23.52-6.24 7.2 0 13.92 2.28 17.88 7.32l1.32-7.32a12.64 12.64 0 0 0 .24-3c-.01-9.08-7.69-13.88-16.45-13.88zm-4.92 27.72c-8.88 0-19.92 3.6-21.36 11.64a5.84 5.84 0 0 0-.12 1.44c0 7.8 9.84 10.2 17.28 10.2 8.88 0 19.8-3.6 21.24-11.64a5.83 5.83 0 0 0 .12-1.44c0-7.8-9.71-10.2-17.16-10.2zM394.49 96h11.88l-20.52 114H374zM427.93 96h11.88l-20.52 114h-11.88zM484.37 138.55c9.48 0 18.24 3.36 23.64 10.2 4.08 5 5.88 11.52 5.88 18.48 0 23.88-18.84 43.92-42.48 43.92-9.48 0-18.24-3.36-23.64-10.2-4.08-5-5.88-11.52-5.88-18.48 0-23.88 18.84-43.92 42.48-43.92zm17.52 30.6a20.89 20.89 0 0 0-3.84-12.6c-3.48-4.68-9.24-7.2-15.6-7.2-16.32 0-28.56 14.88-28.56 31.2a20.88 20.88 0 0 0 3.84 12.6c3.48 4.68 9.24 7.2 15.6 7.2 16.32 0 28.56-14.88 28.56-31.2zM216.35 282l15.24 89.76 21.48-40.56-8.4-49.2h12.12l5.4 31.92L279 282h12.72l-26.52 50 6.72 39.72L319.43 282H332l-57.12 108h-12l-6.84-40.68L234.56 390h-12l-18.21-108zM360.67 318.55c9.48 0 18.24 3.36 23.64 10.2 4.08 5 5.88 11.52 5.88 18.48a41.64 41.64 0 0 1-.72 7.68l-1 5.28h-58.28a21.73 21.73 0 0 0 3.84 13c3.48 4.68 9.24 7.2 15.6 7.2a29.41 29.41 0 0 0 17.88-5.76 22.77 22.77 0 0 0 4.8-4.8l9 6.12a37.51 37.51 0 0 1-6.6 6.48 44.52 44.52 0 0 1-27 8.76c-9.48 0-18.24-3.36-23.64-10.2-4.08-5-5.88-11.52-5.88-18.48 0-23.92 18.81-43.96 42.48-43.96zm13.68 18c-3.48-4.68-9.24-7.2-15.6-7.2a27.33 27.33 0 0 0-18.12 7.2 31.47 31.47 0 0 0-8.4 13h46a21.73 21.73 0 0 0-3.88-13zM420.8 276h11.88l-20.52 114h-11.87zM437.34 319.75h15.24l7.8-43.8h11.88l-7.8 43.8h15.12l-1.92 10.8h-15.24l-10.68 59.4h-11.88l10.68-59.4h-15.12zM492.17 374.47c3.72 0 6.48 2.28 6.48 6.12a9.35 9.35 0 0 1-9.24 9.36c-3.72 0-6.48-2.28-6.48-6.12a9.35 9.35 0 0 1 9.24-9.36zM502.85 282h11.88L501 358.27h-11.83z"/></g></svg>