<svg xmlns="http://www.w3.org/2000/svg" viewBox="0 0 700 500"><path fill="#f2f2f2" d="M-.06 0h700v500h-700z" data-name="Ebene 1"/><g data-name="Ebene 2"><path d="M254.76 101.59a13 13 0 0 1-.7-1.12l-9.52-15.12-19 30.1 19 30.1 22 32.9-22 32.9L233.48 195a5 5 0 0 0-1-1.4 14.24 14.24 0 0 1 1.82-1.26c.28.42.42.84.7 1.26l9.52 15 18.9-30.1-18.9-30.1-22.12-32.9 22.12-32.9 11.08 16.33c.28.56.56 1 .84 1.54zM302.28 117.83l16.8 20.3v71.82H316V188l-13.72 23.38-16.8-28.56 16.8-28.7L316 177.47v-39.34l-13.72-17.5-6.86 8.68a4.24 4.24 0 0 1-.7 1L293 129c2.42-3.47 9.28-11.17 9.28-11.17zm0 39.06l-6.86 12.88c-2.24 4.48-6.86 13-6.86 13s4.62 8.4 6.86 12.88l6.86 12.88L316 182.79zM347.27 76.95h3.08v133h-3.08zM411.4 119.23h3.08v90.72h-3.08v-23.1l-15 24.5-18.2-29.54v-62.58h3.08v62.58l15.12 26.74 15-26.74zM435.6 117.83h15.12V76.95h3.08v40.88h15v2.8h-15v89.32h-3.08v-89.32H435.6zM117.65 256.95h3.08v133h-3.08zM164.67 391.35l-20.3-46.76 20.3-46.76 19.6 45.36.56 1.4V346H148l16.66 42.56zm16.52-48.16l-16.52-42.56L148 343.19zm-16.52 48.16L174.75 368c.14-.28.14-.42.28-.7l-1.82-.84v.14l-8.54 22zM237.18 263.95H240l25.9 118.72 25.76-118.72h2.8v126h-3.08V278.37l-24.24 111.58h-2.8L240 278.37v111.58h-2.8zM360 344.59l-20.2 46.76-20.3-46.76 20.3-46.76zm-37.38 0l17.22 44 17.08-44-17.08-44zM387 389.95h-3.08v-90.72H387v23.1l15.12-24.5 18.06 29.54v62.58h-3.08v-62.58l-15-26.74-15.1 26.74zM480.61 389.95v-38.22l-17.08 39.62-20.3-46.76 20.3-46.76 17.08 39.62v-80.5h3.08v133zm-17.08-89.32l-17.22 44 17.22 44 17.08-44zM527.92 391.35l-20.3-46.76 20.3-46.76 19.6 45.36.56 1.4V346h-36.82l16.66 42.56zm16.52-48.16l-16.52-42.56-16.66 42.56zm-16.52 48.16L538 368c.14-.28.14-.42.28-.7l-1.82-.84v.14l-8.54 22zM574.8 386.17a9.77 9.77 0 0 1 1.26 1.26 9.79 9.79 0 0 1-1.26 1.26l-1.26 1.26-2.54-2.52 2.52-2.52zM572 263.95h3.08v95.76H572z"/></g></svg>