<svg xmlns="http://www.w3.org/2000/svg" viewBox="0 0 700 500"><path fill="#f2f2f2" d="M0 0h700v500H0z" data-name="Ebene 1"/><g data-name="Ebene 2"><path d="M223.5 166.15c0 8 1.92 15.6 6.24 21.72 5.76 8 15.36 12.48 26.16 12.48a45.88 45.88 0 0 0 30.72-12.48 53.22 53.22 0 0 0 9.72-12.36l10.2 4.44a66.49 66.49 0 0 1-12.84 15.72 59.84 59.84 0 0 1-39.7 15.48c-13.92 0-26.52-5.28-34.2-15.48-5.76-7.68-8.28-17.28-8.28-27.6 0-35.64 26.88-67.32 62.4-67.32 13.92 0 26.52 5.28 34.2 15.48a41.5 41.5 0 0 1 7.06 15.77l-11.76 4.44a32.46 32.46 0 0 0-5.28-12.44c-5.76-8-15.36-12.48-26.16-12.48-28.2.03-48.48 26.55-48.48 54.63zM329.35 139.75h11.88l-12.6 70.2h-11.88zm11.76-31.44c3.84 0 6.72 2.4 6.72 6.36a9.73 9.73 0 0 1-9.6 9.72c-3.84 0-6.72-2.52-6.72-6.48a9.63 9.63 0 0 1 9.6-9.6zM387.43 149.35a23.9 23.9 0 0 0-14.64 4.65 22.27 22.27 0 0 0-4.8 5.28l-9.72-5.28a31.71 31.71 0 0 1 7.32-7.68 39.14 39.14 0 0 1 23.76-7.8c8.16 0 15.84 2.4 21 7.8a21.27 21.27 0 0 1 5.65 14.91 23.88 23.88 0 0 1-.48 5l-7.92 43.68h-11.89l1.2-6.12c-5.52 4.8-13.44 7.32-20.64 7.32-7.92 0-15.6-1.56-21.24-6.24a16.47 16.47 0 0 1-6-13 14.73 14.73 0 0 1 .24-3.24c1.2-6.48 5.64-12.36 11.64-16.2 7.32-4.68 15.6-6.24 23.52-6.24 7.2 0 13.92 2.28 17.88 7.32l1.32-7.32a12.64 12.64 0 0 0 .24-3c0-9.04-7.68-13.84-16.44-13.84zm-4.92 27.72c-8.88 0-19.92 3.6-21.36 11.64a5.84 5.84 0 0 0-.12 1.44c0 7.8 9.84 10.2 17.28 10.2 8.88 0 19.8-3.6 21.24-11.64a5.88 5.88 0 0 0 .12-1.44c0-7.8-9.67-10.2-17.16-10.2zM472.41 138.55c9.48 0 18.24 3.36 23.64 10.2 4.08 5 5.88 11.52 5.88 18.48 0 23.88-18.84 43.92-42.48 43.92-9.48 0-18.24-3.36-23.64-10.2-4.08-5-5.88-11.52-5.88-18.48.01-23.88 18.84-43.92 42.48-43.92zm17.52 30.6a20.89 20.89 0 0 0-3.84-12.6c-3.48-4.68-9.24-7.2-15.6-7.2-16.32 0-28.56 14.88-28.56 31.2a20.88 20.88 0 0 0 3.84 12.6c3.48 4.68 9.24 7.2 15.6 7.2 16.32 0 28.56-14.88 28.56-31.2zM124.4 282h12l23.76 93.12L219 282h12l-19.44 108h-11.93l14-78.24L164.19 390h-12l-20.76-81.48L116.79 390H105zM278.2 318.55c9.48 0 18.24 3.36 23.64 10.2 4.08 5 5.88 11.52 5.88 18.48 0 23.88-18.84 43.92-42.48 43.92-9.48 0-18.24-3.36-23.64-10.2-4.08-5-5.88-11.52-5.88-18.48 0-23.88 18.84-43.92 42.48-43.92zm17.52 30.6a20.89 20.89 0 0 0-3.84-12.6c-3.48-4.68-9.24-7.2-15.6-7.2-16.32 0-28.56 14.88-28.56 31.2a20.88 20.88 0 0 0 3.84 12.6c3.48 4.68 9.24 7.2 15.6 7.2 16.32 0 28.56-14.88 28.56-31.2zM363.06 329.35a28.74 28.74 0 0 0-16.8 5 21.82 21.82 0 0 0-8.52 13.2l-7.68 42.36h-11.88l12.72-70.2h11.88l-1.68 9.12a34.56 34.56 0 0 1 23.9-10.28c7.2 0 13.68 2.88 17.64 8.16a23.76 23.76 0 0 1 4.32 14.4 39.4 39.4 0 0 1-.6 6.48l-7.68 42.36h-11.9l7.68-42.36a30.91 30.91 0 0 0 .48-4.68c0-7.68-4.44-13.56-11.88-13.56zM462.83 331.63L472.91 276h11.88l-20.52 114h-11.88l2-11.88c-.84 1-1.56 1.92-2.52 2.88-6.12 6.36-14.28 10.2-22.32 10.2-9.36 0-17.88-3.48-23-10.2-4-5-5.64-11.4-5.64-18.24 0-23.64 18.12-44.16 41.64-44.16a21.62 21.62 0 0 1 20.28 13.03zm-3.6 17.28a20.79 20.79 0 0 0-3.6-12.36c-3.24-4.68-8.76-7.2-15-7.2-16.2 0-27.72 15.36-27.72 31.44a20.8 20.8 0 0 0 3.6 12.36c3.24 4.68 8.76 7.2 15 7.2 16.2 0 27.72-15.35 27.72-31.44zM529.86 318.55c9.48 0 18.24 3.36 23.64 10.2 4.08 5 5.88 11.52 5.88 18.48 0 23.88-18.84 43.92-42.48 43.92-9.48 0-18.24-3.36-23.64-10.2-4.08-5-5.88-11.52-5.88-18.48 0-23.88 18.84-43.92 42.48-43.92zm17.52 30.6a20.89 20.89 0 0 0-3.84-12.6c-3.48-4.68-9.24-7.2-15.6-7.2-16.32 0-28.56 14.88-28.56 31.2a20.88 20.88 0 0 0 3.84 12.6c3.48 4.68 9.24 7.2 15.6 7.2 16.32 0 28.56-14.88 28.56-31.2zM582.2 374.47c3.72 0 6.48 2.28 6.48 6.12a9.35 9.35 0 0 1-9.24 9.36c-3.72 0-6.48-2.28-6.48-6.12a9.35 9.35 0 0 1 9.24-9.36zM592.88 282h11.88l-13.68 76.32H579.2z"/></g></svg>