<svg xmlns="http://www.w3.org/2000/svg" viewBox="0 0 700 500"><path fill="#f2f2f2" d="M.34 0h700v500H.34z" data-name="Ebene 1"/><g data-name="Ebene 2"><path d="M226.46 99.55h1.44l50.64 110.4h-12.25l-22-47.76h-45.07l-22 47.76h-1.44c-.08 0 50.68-110.4 50.68-110.4zm17.28 61.2l-22-47.76-22 47.76zM308.43 209.95h-11.52v-106.8h11.52v54.36l23.52-9.24h1.44l35 13.68v48h-11.48v-48l-23.52-12.24h-1.44l-23.52 12.24zM467.74 171.91v20.88l-39.12 23.64h-1.8l-39-23.64v-20.88l39-23.64h1.8zm-40.92-22.2l-27.48 22.2v20.88L426.82 215h1.8l27.6-22.2v-20.89l-27.6-22.2zM464.86 240.19v-9.72h11.52v9.72l13.44 15.6h.84l13.44-15.6v-85.44h11.52v85.44l-25 17h-.84zm55.2-126.83l-10.2 10.08-10.08-10.08 10.08-10.2zM235.62 297.67v-2.88l-31.08-20.28h-1.92l-31.08 20.28v19L202.62 334h1.92l42.6 21.72v19l-42.6 21.72h-1.92L160 374.71v-2.88h11.52v2.88l31.1 20.29h1.92l31.08-20.28v-19l-31.08-20.28h-1.92L160 313.75v-19l42.6-21.72h1.92l42.6 21.72v2.88zM270.8 334.75l30.36 45.6 30.24-45.6h1.6l-36.6 55.2h-1.44l-36.6-55.2zM425.71 363.07h-68.4v9.72L384.79 395h1.8l27.6-22.2v-4.32h11.52v4.32l-39.12 23.64h-1.8l-39-23.64v-20.89l39-23.64h1.8l39.12 23.64zm-11.52-11.16l-27.6-22.2h-1.8l-27.48 22.2v9.72h56.88zM439.29 334h24.24v-50.85h11.52V334h24.24v1.44h-24.24v54.48h-11.52v-54.45h-24.24zM536 379.75l-10.08 10.2-10.2-10.2 10.2-10.08zm-15.84-100.2h11.52v68h-11.54z"/></g></svg>