<svg xmlns="http://www.w3.org/2000/svg" viewBox="0 0 700 500"><path fill="#f2f2f2" d="M.34 0h700v500H.34z" data-name="Ebene 1"/><g data-name="Ebene 2"><path d="M249.17 209.95v-54.48h-69.24v54.48h-11.52V99.55h11.52V154h69.24V99.55h11.52v110.4zM360.69 183.07h-68.4v9.72L319.77 215h1.8l27.6-22.2v-4.32h11.52v4.32l-39.12 23.64h-1.8l-39-23.64v-20.89l39-23.64h1.8l39.12 23.64zm-11.52-11.16l-27.6-22.2h-1.8l-27.48 22.2v9.72h56.88zM380.23 103.15h11.52v106.8h-11.52zM412.24 103.15h11.52v106.8h-11.52zM523 171.91v20.88l-39.1 23.64h-1.8l-39-23.64v-20.88l39-23.64h1.8zm-40.92-22.2l-27.48 22.2v20.88L482.1 215h1.8l27.6-22.2v-20.89l-27.6-22.2zM172.48 279.55l16.08 40.08 16.08-40.08h1.44l-16.68 42 21.24 53.28 38.16-95.28h1.44c.12 0-44 110.4-44.16 110.4h-1.44l-21.36-53.28-21.36 53.28h-1.44s-44.16-110.4-44-110.4h12l38 95.28 16.08-40.08-22.08-55.2zM333.26 351.91v20.88l-39.12 23.64h-1.8l-39-23.64v-20.88l39-23.64h1.8zm-40.92-22.2l-27.48 22.2v20.88L292.34 395h1.8l27.6-22.2v-20.89l-27.6-22.2zM402.54 356.23v-14.28s-6-3.84-9.24-6.12l-9.36-6.12h-1.08l-18.48 12.24v48h-11.52v-55.2h11.52v1.92l18.48-8.4h1.08l30.12 13.68v14.28zM432.24 283.15h11.52v106.8h-11.52zM531.5 389.95v-10.2l-27.6 16.68h-1.8l-39-23.64v-20.88l39-23.64h1.8l27.6 16.68v-61.8H543v106.8zm-27.6-60.24h-1.8l-27.48 22.2v20.88L502.1 395h1.8l27.6-22.2v-20.89zM579.56 379.75l-10.08 10.2-10.2-10.2 10.2-10.08zm-15.84-100.2h11.52v68h-11.52z"/></g></svg>