<svg xmlns="http://www.w3.org/2000/svg" viewBox="0 0 700 500"><path fill="#f2f2f2" d="M.15 0h700v500H.15z" data-name="Ebene 1"/><g data-name="Ebene 2"><path d="M324.27 108.41c10.79 11.57 15.6 27.17 15.6 43s-4.81 31.46-15.6 43c-10.27 11.05-24.83 16.77-39.91 16.77s-29.64-5.72-39.91-16.77c-10.79-11.57-15.6-27.17-15.6-43s4.81-31.46 15.6-43c10.27-11 24.83-16.77 39.91-16.77s29.64 5.72 39.91 16.77zm-77.35 8.45c-9.62 8.84-14.56 21.45-14.56 34.58s4.94 25.74 14.56 34.58c10.14 9.36 23.66 13.52 37.44 13.52s27.3-4.16 37.44-13.52c9.62-8.84 14.56-21.45 14.56-34.58s-4.94-25.74-14.56-34.58c-10.14-9.36-23.66-13.52-37.44-13.52s-27.3 4.16-37.44 13.52zM363 86.44h3.51v123.5H363zM452.2 209.95V194a24.18 24.18 0 0 1-7.15 9.88c-6.37 5.33-14.69 7.41-23 7.41-8.71 0-17.29-2.08-24.18-7.41a23.73 23.73 0 0 1 0-38c6.89-5.33 15.47-7.41 24.18-7.41 8.32 0 16.64 2.08 23 7.41a24.18 24.18 0 0 1 7.15 9.88v-17.3c0-4.68-4-8.06-8.45-10.14-6.76-3.12-14.3-4-21.71-4-8.84 0-19.24 1.56-25.48 6.24l-5.33-3a23.43 23.43 0 0 1 6.63-7.67c6.89-5.33 15.47-7.28 24.18-7.28s17.29 2 24.18 7.28a23.52 23.52 0 0 1 9.49 18.59v51.48zm-51.87-35.62c-4.42 2.21-8.45 5.72-8.45 10.53s4 8.32 8.45 10.53c6.76 3.25 14.3 4.16 21.71 4.16s15-.91 21.71-4.16c4.42-2.21 8.45-5.72 8.45-10.53s-4-8.32-8.45-10.53c-6.76-3.25-14.3-4.16-21.71-4.16s-14.95.91-21.71 4.16zM439.2 94L421 117.38h-3.38L434.91 94zM79.19 272.94h13L137 374.09l44.72-101.14h13v117h-3.51V282.17l-47.8 107.78h-13L82.7 282.17v107.78h-3.51zM287.23 389.95h-3.51V371a28.75 28.75 0 0 1-6.89 11.44c-5.85 6-14 8.84-22.36 8.84-8.71 0-17.29-2.86-23.53-8.84a30.92 30.92 0 0 1-9.23-22.49v-46h3.51v46c0 5.85 3.38 10.92 8.19 14.17 6.11 4.16 13.65 5.46 21.06 5.46s15-1.3 21.06-5.46c4.81-3.25 8.19-8.32 8.19-14.17v-46h3.51zM313.36 313.89h3.51v19.89a29.15 29.15 0 0 1 8.58-12.35c7.28-6.24 16.9-8.84 26.52-8.84a25.67 25.67 0 0 1 19.37 8.84c5.33 6.24 7.54 14.43 7.54 22.62v45.89h-3.51v-45.88a18.77 18.77 0 0 0-6.5-14.3c-4.68-3.9-10.79-5.46-16.9-5.46-8.71 0-17.55 1.17-25.22 5.46-5.46 3-9.88 8.19-9.88 14.3v45.89h-3.51zM471.2 389.95V365a38.54 38.54 0 0 1-8.2 15.2 34.5 34.5 0 0 1-25.61 11c-10.14 0-20-3.77-26.91-11-7.15-7.54-10.4-17.81-10.4-28.21s3.25-20.8 10.4-28.34c6.89-7.28 16.77-11 26.91-11a34.5 34.5 0 0 1 25.61 11 38.17 38.17 0 0 1 8.2 15.35v-72.56h3.51v123.5zm-58.11-57.85a25.59 25.59 0 0 0 0 39.78c6.76 5.59 15.6 7.67 24.31 7.67s17.55-2.08 24.31-7.67a25.59 25.59 0 0 0 0-39.78c-6.76-5.59-15.6-7.8-24.31-7.8s-17.55 2.2-24.31 7.79zM563.07 323.64c7.28 7.54 10.66 17.81 10.66 28.34s-3.38 20.67-10.66 28.21-17.29 11-27.56 11-20.41-3.64-27.56-11-10.66-17.67-10.66-28.19 3.38-20.8 10.66-28.34 17.29-11 27.56-11 20.41 3.57 27.56 10.98zm-52.52 8.45a25.16 25.16 0 0 0 0 39.78c7 5.59 16 7.67 25 7.67s17.94-2.08 25-7.67a25.17 25.17 0 0 0 0-39.78c-7-5.59-16-7.8-25-7.8s-17.98 2.21-25 7.8zM601 384.49a2.73 2.73 0 1 1 0 5.46 2.73 2.73 0 1 1 0-5.46zm-1.82-111.54h3.51v94h-3.51z"/></g></svg>