<svg xmlns="http://www.w3.org/2000/svg" viewBox="0 0 700 500"><path fill="#f2f2f2" d="M.34 0h700v500H.34z" data-name="Ebene 1"/><g data-name="Ebene 2"><path d="M144.69 102h17.16v46.2h42.84V102h17.16v108h-17.16v-46.2h-42.84V210h-17.16zM289.24 186.91l14.4 9a28.6 28.6 0 0 1-5.16 6.24c-6.84 6.24-16.08 9-25.44 9s-18.72-3.36-25.32-10.2-10-16.32-10-26 3.24-19.2 10-26.16 15.84-10.2 25.32-10.2 18.84 3.36 25.44 10.2 10 16.44 10 26.16v7.8h-52.36a19.34 19.34 0 0 0 3.84 7.08 17.26 17.26 0 0 0 13.04 5.72c6.88 0 13.36-3.36 16.24-8.64zm-3.12-27a17.73 17.73 0 0 0-26.16 0 19.34 19.34 0 0 0-3.84 7.08h34a19.61 19.61 0 0 0-4-7.08zM320.92 220.75v-81h17.16v81c0 6.84-1.8 13.68-6.12 19a20.33 20.33 0 0 1-31.44 0 27 27 0 0 1-5.16-10.92l16.56-3.84c.48 2.52 1.56 6.6 4.32 6.6 3.84-.04 4.68-7.12 4.68-10.84zm19.32-109.32a12.23 12.23 0 1 1-8.16-3.12 11.52 11.52 0 0 1 8.16 3.12zM373.21 160.63c0 2.4 3 2.64 5.52 3.24l12.36 5.52c9.36 2.4 16.56 10 16.56 19.44 0 6.36-2.52 12.6-7.56 16.44-5.88 4.56-13.56 5.88-21 5.88s-14.76-1.68-20.52-6.24a21.28 21.28 0 0 1-7.8-13l16.92-2.76c.36 4.68 6.72 6.36 11.4 6.36 4.92 0 11.4-1.56 11.4-6.72a4.07 4.07 0 0 0-3.36-3.84l-12.36-5.4c-9.84-2.52-18.72-9.24-18.72-19 0-6 1.8-12 6.12-16.2s10.68-5.88 16.92-5.88 12.24 1.92 16.68 6.12a21.79 21.79 0 0 1 6.23 12.56l-17 2.4a5.89 5.89 0 0 0-5.88-5.4c-3.74 0-5.91 2.76-5.91 6.48zM435.24 162.67l-16.2-5.4a25.13 25.13 0 0 1 7.44-11.16c6.12-5.28 14.16-7.56 22.32-7.56s16.32 2.28 22.44 7.56a25.39 25.39 0 0 1 8.64 19.44v44.4h-17.16v-4.08a20.33 20.33 0 0 1-13.92 5.28c-7.92 0-16-1.68-22.32-6.36a19.8 19.8 0 0 1 0-32.88c6.36-4.68 14.4-6.36 22.32-6.36a20.33 20.33 0 0 1 13.92 5.28v-5.28c0-7.2-6.84-11.4-13.92-11.4-6.24 0-12 3.12-13.56 8.52zm27.48 25.68c0-5.64-8.52-7.2-13.92-7.2a21.74 21.74 0 0 0-10 1.92c-2.16 1.08-4 3-4 5.28 0 5.64 8.52 7.2 13.92 7.2s14-1.55 14-7.2zM530.9 154.15a15.31 15.31 0 0 0-11.28 4.68 17.8 17.8 0 0 0-4.43 12.17v39H498v-70.2h17.16v7.08c3.84-5 9.48-8.28 15.72-8.28a26.14 26.14 0 0 1 19.92 9c5.52 6.36 7.68 15 7.68 23.4v39h-17.14v-39c0-7.25-2.88-16.85-10.44-16.85zM102.26 282l25.32 76.56 25.2-76.56h17l-35.64 108h-14.4L84.27 282zM187.86 342.67l-16.2-5.4a25.13 25.13 0 0 1 7.44-11.16c6.12-5.28 14.16-7.56 22.32-7.56s16.32 2.28 22.44 7.56a25.39 25.39 0 0 1 8.64 19.44v44.4h-17.16v-4.08a20.33 20.33 0 0 1-13.92 5.28c-7.92 0-16-1.68-22.32-6.36a19.8 19.8 0 0 1 0-32.88c6.36-4.68 14.4-6.36 22.32-6.36a20.33 20.33 0 0 1 13.92 5.28v-5.28c0-7.2-6.84-11.4-13.92-11.4-6.24 0-12 3.12-13.56 8.52zm6.72-51.24a12.23 12.23 0 0 1 0 16.32 11.29 11.29 0 1 1 0-16.32zm20.76 76.92c0-5.64-8.52-7.2-13.92-7.2a21.74 21.74 0 0 0-10 1.92c-2.16 1.08-4 3-4 5.28 0 5.64 8.52 7.2 13.92 7.2s14-1.55 14-7.2zm9.24-76.92a11.9 11.9 0 0 1 0 16.32 11.25 11.25 0 0 1-8 3.24 11.34 11.34 0 1 1 0-22.68 11.13 11.13 0 0 1 8 3.12zM250.64 319.75h17.16v7c2.76-4.56 6.72-8.16 11.88-8.16a24.42 24.42 0 0 1 10.92 2.64l-7.08 14a6.85 6.85 0 0 0-3.84-1.08c-4 0-6.72 3.24-8.52 6.84-2.64 5.52-3.36 11.64-3.36 17.76v31.2h-17.16zM299.63 276h17.16v114h-17.16zM383.32 389.95v-8.88c-4 5.88-10.32 10.08-17.4 10.08a33.78 33.78 0 0 1-24.72-10.2c-6.6-7-9.72-16.44-9.72-26s3.12-19.2 9.72-26.16a33.78 33.78 0 0 1 24.72-10.2c7.08 0 13.44 4.2 17.4 10.08V276h17.16v114zm-29.76-50c-3.48 4.08-4.92 9.6-4.92 15s1.44 10.8 4.92 14.88a16 16 0 0 0 12.36 5.76 16.19 16.19 0 0 0 12.48-5.76c3.48-4.08 4.92-9.48 4.92-14.88s-1.44-10.92-4.92-15a16.19 16.19 0 0 0-12.48-5.76 16 16 0 0 0-12.36 5.72zM467 366.91l14.4 9a28.6 28.6 0 0 1-5.16 6.24c-6.84 6.24-16.08 9-25.44 9s-18.72-3.36-25.32-10.2-10-16.32-10-26 3.24-19.2 10-26.16 15.84-10.2 25.32-10.2 18.84 3.36 25.44 10.2 10 16.44 10 26.16v7.8H433.9a19.34 19.34 0 0 0 3.84 7.08 17.26 17.26 0 0 0 13.08 5.76c6.84-.04 13.32-3.4 16.18-8.68zm-3.12-27a17.73 17.73 0 0 0-26.16 0 19.34 19.34 0 0 0-3.82 7.09h34a19.61 19.61 0 0 0-4-7.09zM533.41 334.15a15.31 15.31 0 0 0-11.28 4.68 17.8 17.8 0 0 0-4.44 12.17v39h-17.16v-70.2h17.16v7.08c3.84-5 9.48-8.28 15.72-8.28a26.14 26.14 0 0 1 19.92 9c5.52 6.36 7.68 15 7.68 23.4v39h-17.16v-39c0-7.25-2.85-16.85-10.44-16.85zM590.85 368.11A10.81 10.81 0 0 1 601.77 379a11.36 11.36 0 0 1-3.12 7.92 11.64 11.64 0 0 1-15.6 0 11.36 11.36 0 0 1-3.12-7.92 10.81 10.81 0 0 1 10.92-10.89zM582.21 282h17.28v70h-17.28z"/></g></svg>