<svg xmlns="http://www.w3.org/2000/svg" viewBox="0 0 700 500"><path fill="#f2f2f2" d="M0 0h700v500H0z" data-name="Ebene 1"/><g data-name="Ebene 2"><path d="M251.94 106.49V95.15H235v45.5h30.8v70.7h-44.66v-23.94H235v11.34h16.94v-45.5h-30.8v-70.7h44.66v23.94zM285.34 117.83h34v93.52h-34v-62.16h20.16v-18.76h-6.3v4.76h-13.86zm13.86 44v37h6.3v-37zM338.85 76.95h13.86v133h-13.86zM394.88 119.23h13.86v92.12h-36.68v-92.12h13.86v79.52h9zM431.4 112.93h4.48v-36h13.86v36h4.48v12.6h-4.48v84.42h-13.86v-84.42h-4.48zM203.16 263.95H217v113.4h25.5v12.6h-39.34zM284.87 299.23h13.86v92.12H262v-92.12h13.86v79.52h9zM332.16 389.95H318.3v-92.12h65.94v92.12h-13.86v-79.52H358.2v79.52h-13.86v-79.52h-12.18zM430.91 378.75v-11.48h13.86v24.08h-40.88v-93.52h40.88v53.06h-27v27.86zm0-40.46v-27.86h-13.16v27.86zM481.44 371.89v18.06h-18.06v-18.06zm-16-107.94h13.86v82.74h-13.82z"/></g></svg>