<svg xmlns="http://www.w3.org/2000/svg" viewBox="0 0 700 500"><path fill="#f2f2f2" d="M.15 0h700v500H.15z" data-name="Ebene 1"/><g data-name="Ebene 2"><path d="M216.25 102h17.16l-8.28 46.2H268l8.28-46.2h17.16L274 209.95h-17.19l8.28-46.2h-42.72l-8.4 46.2h-17.16zM293.58 191.71a16 16 0 0 1 .36-3.36c1.2-6.6 5.64-12.6 11.64-16.44 7.32-4.68 15.6-6.36 23.52-6.36 5.16 0 9.84 1.8 13 5.28l1-5.28a10.35 10.35 0 0 0 .12-1.92c0-6.48-5.88-9.48-12-9.48a18.08 18.08 0 0 0-10.56 3.12 15.06 15.06 0 0 0-4.56 5.4l-15.24-5.4a30.9 30.9 0 0 1 9.36-11.16 39.66 39.66 0 0 1 23.76-7.56c8.16 0 16 2.28 21.12 7.56a20.69 20.69 0 0 1 5.64 14.64 32.54 32.54 0 0 1-.48 4.8l-8 44.4H335l.84-4.08a24.32 24.32 0 0 1-15 5.28c-13.22 0-27.26-5.64-27.26-19.44zm32.76-10.56c-5.76 0-15.36 1.8-15.36 7.92 0 5.16 7.8 6.48 12.72 6.48 5.76 0 15.24-1.92 15.24-8 0-5.2-7.68-6.4-12.6-6.4zM390.68 96h17.16l-20.52 114h-17.16zM426.4 96h17.16L423 209.95h-17.12zM485.12 138.55c9.48 0 18.24 3.36 23.64 10.2 4.08 5 5.88 11.52 5.88 18.48 0 23.88-18.84 43.92-42.48 43.92-9.48 0-18.24-3.36-23.64-10.2-4.08-5-5.88-11.52-5.88-18.48 0-23.88 18.84-43.92 42.48-43.92zm-10.2 57c13.08 0 22.32-12.48 22.32-25.56 0-9.24-5.88-15.84-14.88-15.84-13.08 0-22.32 12.48-22.32 25.56-.04 9.24 5.88 15.84 14.88 15.84zM139.89 282l11.28 75.72L189.69 282h18.36L153 389.95h-14.4L122.49 282zM224 375.55a22.39 22.39 0 0 0 13.92-4.68 23.91 23.91 0 0 0 3.84-4l12.72 9a34.15 34.15 0 0 1-6.24 6.24 43.78 43.78 0 0 1-27 9c-9.48 0-18.24-3.36-23.64-10.2-4.08-5-5.88-11.52-5.88-18.48 0-23.88 18.84-43.92 42.48-43.92 9.48 0 18.24 3.36 23.64 10.2 4.08 5 5.88 11.52 5.88 18.48a41.6 41.6 0 0 1-.72 7.68l-1.32 7.8h-52.31c1.08 7.72 6.63 12.88 14.63 12.88zm7.44-41.4a20.93 20.93 0 0 0-14.16 5.76 25 25 0 0 0-5.16 7.08h34c-1.12-7.68-6.63-12.84-14.67-12.84zM283.55 319.75h17.15l-1.32 7c3.6-4.56 8.16-8.16 13.32-8.16a21.39 21.39 0 0 1 10.44 2.64l-9.6 14a5.83 5.83 0 0 0-3.6-1.08c-4 0-7.44 3.24-9.84 6.84-3.6 5.52-5.4 11.64-6.48 17.76l-5.62 31.2h-17.17zM359.36 318.55A17.28 17.28 0 0 1 375 328.63l9.44-52.63h17.16l-20.52 114h-17.16l1.56-8.88c-5 5.88-12 10.08-19.08 10.08-9.36 0-17.88-3.48-23-10.2-4-5-5.64-11.4-5.64-18.24-.04-23.69 18.08-44.21 41.6-44.21zm-2.76 15.6c-12.84 0-21.48 13-21.48 25.8 0 9 5.4 15.6 14 15.6 12.84 0 21.48-13 21.48-25.8.04-9-5.36-15.6-14-15.6zM433.47 375.55a22.39 22.39 0 0 0 13.92-4.68 23.91 23.91 0 0 0 3.84-4l12.72 9a34.14 34.14 0 0 1-6.24 6.24 43.77 43.77 0 0 1-27 9c-9.48 0-18.24-3.36-23.64-10.2-4.08-5-5.88-11.52-5.88-18.48 0-23.88 18.84-43.92 42.48-43.92 9.48 0 18.24 3.36 23.64 10.2 4.08 5 5.88 11.52 5.88 18.48a41.6 41.6 0 0 1-.72 7.68l-1.32 7.8h-52.32c1.08 7.72 6.6 12.88 14.64 12.88zm7.44-41.4a20.93 20.93 0 0 0-14.16 5.76 25 25 0 0 0-5.16 7.08h34c-1.12-7.68-6.59-12.84-14.68-12.84zM523.24 334.15a18.34 18.34 0 0 0-12.12 4.68 21.42 21.42 0 0 0-6.6 12l-7.08 39.12h-17.16l12.72-70.2h17.16l-1.32 7.08c4.68-5 10.92-8.28 17.16-8.28 7.68 0 14.28 3.24 18.24 9a27.52 27.52 0 0 1 4.32 15.6 43.89 43.89 0 0 1-.72 7.8l-7.08 39H523.6l7.08-39a27.4 27.4 0 0 0 .48-5.4c0-5.76-2.4-11.4-7.92-11.4zM574.67 368.11c5.16 0 9.12 3.36 9.12 8.76a13.11 13.11 0 0 1-13.08 13.08c-5.16 0-9.12-3.24-9.12-8.64a13.21 13.21 0 0 1 13.08-13.2zm6.84-86.11h17.16l-12.6 70h-17.16z"/></g></svg>