<svg xmlns="http://www.w3.org/2000/svg" viewBox="0 0 700 500"><path fill="#f2f2f2" d="M0 0h700v500H0z" data-name="Ebene 1"/><g data-name="Ebene 2"><path d="M304.12 209.95v-56.7h-19.6v56.7h-13.86v-126h13.86v56.7h19.6v-56.7H318v126zM364.55 198.75v-11.48h13.86v24.08h-40.88v-93.52h40.88v53.06h-27v27.86zm0-40.46v-27.86h-13.16v27.86zM414.22 76.95v18.76h-18.76V76.95zM398 119.23h13.86v90.72H398zM138.63 263.95h12.6l16.38 88.48L184 263.95h12.6v126h-13.87v-51.1l-9.52 51.1h-12.6l-9.38-51.1v51.1h-12.6c-.14 0-.14-126 0-126zM216.22 297.83h34v93.52h-34v-62.16h20.16v-18.76h-6.3v4.76h-13.86zm13.86 44v37h6.3v-37zM269.74 297.83h34v93.52h-34v-62.16h20.16v-18.76h-6.3v4.76h-13.86zm13.86 44v37h6.3v-37zM339.58 256.95v18.76h-18.76v-18.76zm-16.24 42.28h13.86v90.72h-13.86zM356.57 256.95h13.86v133h-13.86zM403.63 389.95h-13.86v-92.12h65.94v92.12h-13.86v-79.52h-12.18v79.52h-13.86v-79.52h-12.18zM475.37 297.83h34v93.52h-34v-62.16h20.16v-18.76h-6.3v4.76h-13.86zm13.86 44v37h6.3v-37zM546 371.89v18.06h-18.09v-18.06zm-16-107.94h13.86v82.74H530z"/></g></svg>