<svg xmlns="http://www.w3.org/2000/svg" viewBox="0 0 700 500"><path fill="#f2f2f2" d="M.34 0h700v500H.34z" data-name="Ebene 1"/><g data-name="Ebene 2"><path d="M186.49 102l26.16 77.4 11.16-32.88L208.69 102h18.11l6 17.64 6-17.64h16.92l-14.4 42.72L253 179.35 279.12 102H296l-36.48 108h-14.4l-13-38.4-13 38.4h-14.4l-36.35-108zM317.83 111.43a11.9 11.9 0 0 1 0 16.32 11.24 11.24 0 0 1-8 3.24 11.34 11.34 0 1 1 0-22.68 11.13 11.13 0 0 1 8 3.12zm-16.68 28.32h17.16v70.2h-17.16zM327.49 139.75h12.36V96H357v43.8h12.36v15.6H357V210h-17.16v-54.6h-12.35zM394.71 162.67l-16.2-5.4a25.13 25.13 0 0 1 7.44-11.16c6.12-5.28 14.16-7.56 22.32-7.56s16.32 2.28 22.44 7.56a25.39 25.39 0 0 1 8.64 19.44v44.4h-17.16v-4.08a20.33 20.33 0 0 1-13.92 5.28c-7.92 0-16-1.68-22.32-6.36a19.8 19.8 0 0 1 0-32.88c6.36-4.68 14.4-6.36 22.32-6.36a20.33 20.33 0 0 1 13.92 5.28v-5.28c0-7.2-6.84-11.4-13.92-11.4-6.27 0-12 3.12-13.56 8.52zm27.48 25.68c0-5.64-8.52-7.2-13.92-7.2a21.74 21.74 0 0 0-10 1.92c-2.16 1.08-4 3-4 5.28 0 5.64 8.52 7.2 13.92 7.2s14-1.55 14-7.2z"/><path d="M456.35 220.75v-81h17.16v81c0 6.84-1.8 13.68-6.12 19a20.33 20.33 0 0 1-31.44 0 27 27 0 0 1-5.16-10.92l16.56-3.84c.48 2.52 1.56 6.6 4.32 6.6 3.84-.04 4.68-7.12 4.68-10.84zm19.32-109.32a12.23 12.23 0 1 1-8.16-3.12 11.52 11.52 0 0 1 8.16 3.12zM122.45 375.55c5.16 0 10.44-1.08 14.4-4.44A15.88 15.88 0 0 0 142 359c0-5.28-4-9.48-9-11.28l-18.84-9.36c-12.24-4.2-22.8-13.56-22.8-26.16 0-8.52 2.28-17 8.28-23s14.28-8.4 22.8-8.4 16.56 2.88 22.44 8.88a30.76 30.76 0 0 1 7.8 14L136.13 308a16.14 16.14 0 0 0-3.48-7.2 13.62 13.62 0 0 0-10.2-4.44 13.41 13.41 0 0 0-10.2 4.2c-2.76 3.12-3.72 7.44-3.72 11.64 0 5.52 5.52 8.64 11 10.56l18.84 9.36c11.88 4.08 20.76 14.52 20.76 26.88 0 8.88-3 17.76-9.72 23.64-7.32 6.36-17.28 8.52-27 8.52s-19.08-2.64-26.28-9a29.81 29.81 0 0 1-9.36-15.36l16.68-4.2c1.84 8.03 10.12 12.95 19 12.95zm24.6-123.24L128 273.91h-16l13.56-21.6zM179.45 319.75l18.72 44.64 7.32-17.52-11.28-27.12h18.6l2 4.92 2-4.92h17.16l-10.68 25.44 8 19.2 18.72-44.64h17.28L238 389.95h-14.4l-9.48-22.56-9.48 22.56h-14.4l-29.4-70.2zM292.75 291.43a11.9 11.9 0 0 1 0 16.32 11.25 11.25 0 0 1-8 3.24 11.34 11.34 0 1 1 0-22.68 11.13 11.13 0 0 1 8 3.12zm-16.68 28.32h17.16v70.2h-17.16zM357.58 366.91l14.4 9a28.61 28.61 0 0 1-5.16 6.24c-6.84 6.24-16.08 9-25.44 9s-18.72-3.36-25.32-10.2-10-16.32-10-26 3.24-19.2 10-26.16 15.84-10.2 25.32-10.2 18.84 3.36 25.44 10.2 10 16.44 10 26.16v7.8h-52.36a19.34 19.34 0 0 0 3.84 7.08 17.26 17.26 0 0 0 13.08 5.76c6.84-.04 13.32-3.4 16.2-8.68zm-3.12-27a17.73 17.73 0 0 0-26.16 0 19.34 19.34 0 0 0-3.84 7.08h34a19.6 19.6 0 0 0-4-7.08zM447.84 380.95c-6.6 6.84-16 10.2-25.44 10.2s-18.72-3.36-25.32-10.2-9.84-16.32-9.84-26 3.12-19.2 9.84-26.16 15.84-10.2 25.32-10.2 18.84 3.36 25.44 10.2a34.52 34.52 0 0 1 8.28 14.88l-16.44 4.56a21.67 21.67 0 0 0-4.2-8.28 17.45 17.45 0 0 0-13.08-5.76 17.19 17.19 0 0 0-13 5.76c-3.6 4.08-5 9.6-5 15s1.44 10.8 5 14.88a17.19 17.19 0 0 0 13 5.76 17.45 17.45 0 0 0 13.08-5.76 21.67 21.67 0 0 0 4.2-8.28l16.44 4.56a34.52 34.52 0 0 1-8.28 14.84zM484.56 291.43a11.9 11.9 0 0 1 0 16.32 11.24 11.24 0 0 1-8 3.24 11.34 11.34 0 1 1 0-22.68 11.13 11.13 0 0 1 8 3.12zm-16.68 28.32H485v70.2h-17.12zM549.4 366.91l14.4 9a28.6 28.6 0 0 1-5.16 6.24c-6.84 6.24-16.08 9-25.44 9s-18.72-3.36-25.32-10.2-10-16.32-10-26 3.24-19.2 10-26.16 15.84-10.2 25.32-10.2 18.84 3.36 25.44 10.2 10 16.44 10 26.16v7.8h-52.36a19.34 19.34 0 0 0 3.84 7.08 17.26 17.26 0 0 0 13.08 5.76c6.8-.04 13.32-3.4 16.2-8.68zm-3.12-27a17.73 17.73 0 0 0-26.16 0 19.34 19.34 0 0 0-3.84 7.08h34a19.61 19.61 0 0 0-4-7.08zM594.54 368.11A10.81 10.81 0 0 1 605.46 379a11.36 11.36 0 0 1-3.12 7.92 11.64 11.64 0 0 1-15.6 0 11.36 11.36 0 0 1-3.12-7.92 10.81 10.81 0 0 1 10.92-10.89zM585.9 282h17.28v70H585.9z"/></g></svg>