<svg xmlns="http://www.w3.org/2000/svg" viewBox="0 0 700 500"><path fill="#f2f2f2" d="M.15 0h700v500H.15z" data-name="Ebene 1"/><g data-name="Ebene 2"><path d="M193.55 102h4l-9.36 52.2h69.24l9.36-52.2h4l-19.44 108h-4l9.36-52.2h-69.16l-9.48 52.2h-4zM318.33 138.55c9.48 0 18.24 3.36 23.64 10.2 4.08 5 5.88 11.52 5.88 18.48a41.58 41.58 0 0 1-.72 7.68l-.24 1.8h-66.72a35.62 35.62 0 0 0-.36 5c0 6.24 1.68 12.12 5.28 16.68 4.8 6.12 12.36 9.12 20.88 9.12a40 40 0 0 0 23.88-7.32 29.64 29.64 0 0 0 6.48-6.36l3 2a35.39 35.39 0 0 1-7.08 7 45.51 45.51 0 0 1-26.88 8.28c-9.48 0-18.24-3.36-23.64-10.2-4.08-5-5.88-11.52-5.88-18.48 0-23.84 18.84-43.88 42.48-43.88zm25.56 29.4c0-6.24-1.68-12.12-5.28-16.68-4.8-6.12-12.36-9.12-20.88-9.12a36.78 36.78 0 0 0-24.24 9.12 41.11 41.11 0 0 0-12.6 21.73h62.64a35.55 35.55 0 0 0 .36-5.05zM378.46 96h4l-20.52 114h-4zM404 96h4l-20.52 114h-4zM452.5 138.55c9.48 0 18.24 3.36 23.64 10.2 4.08 5 5.88 11.52 5.88 18.48 0 23.88-18.84 43.92-42.48 43.92-9.48 0-18.24-3.36-23.64-10.2-4.08-5-5.88-11.52-5.88-18.48-.02-23.88 18.84-43.92 42.48-43.92zm25.56 29.4c0-6.24-1.68-12.12-5.28-16.68-4.8-6.12-12.36-9.12-20.88-9.12-21.24 0-37.92 18.24-37.92 39.6 0 6.24 1.68 12.12 5.28 16.68 4.8 6.12 12.36 9.12 20.88 9.12 21.24 0 37.92-18.24 37.92-39.6zm-2.88-65l-20.76 21.6h-3.36l19.56-21.6zM204.65 282l19.92 103.2L281.8 282h4.32l-59.88 108h-4.8l-20.87-108zM287.48 319.75h4l-12.6 70.2h-4zm7.8-31.44a2.42 2.42 0 0 1 2.64 2.52 3.72 3.72 0 0 1-3.72 3.6 2.33 2.33 0 0 1-2.52-2.52 3.69 3.69 0 0 1 3.6-3.6zM323 276h4l-20.52 114h-4zM366.21 318.55c8.16 0 16 2.52 21 8 3.72 4.08 5.4 9.48 5.4 15.36a26.2 26.2 0 0 1-.48 5.28l-7.68 42.72h-4l2-11a27.28 27.28 0 0 1-6.72 6.12c-7 4.56-15 6.12-22.68 6.12-13 0-27.36-5.28-27.36-18.84a14.22 14.22 0 0 1 .24-3.12c1.2-6.36 5.64-12 11.52-15.72a44.11 44.11 0 0 1 23.52-6.24c10.68 0 21.36 3.72 25 12.24l2.16-12.24a31 31 0 0 0 .48-4.68 19.56 19.56 0 0 0-4.8-13.32c-4.44-4.92-11-7.08-18.24-7.08a33 33 0 0 0-20.76 7.08 26.35 26.35 0 0 0-2.76 2.4l-2.64-2.4c6.64-6.6 17.32-10.68 26.8-10.68zm-5.76 32.28c-6.84 0-14.16 1.32-20.52 5.16-5 3-9 7.8-10 13.2a17.88 17.88 0 0 0-.24 2.52c0 11.64 13.08 15.84 24.12 15.84 6.84 0 14-1.32 20.4-5.16 5-3 9-7.8 10-13.2a16.27 16.27 0 0 0 .24-2.4c0-11.64-12.96-15.96-24-15.96zm28.44-67.92l-20.76 21.6h-3.36l19.56-21.6zM448.25 318.55c9 0 17.28 3.36 22.2 10a28 28 0 0 1 4.68 10.56l3.48-19.32h4l-14.64 81.48c-1.32 7.44-6.36 14.28-13.08 18.72-8 5.28-17.16 7.2-26 7.2-11 0-22.2-3.48-27.24-11.52l3.48-2.4c4.44 7.2 14.4 10.32 24.36 10.32 7.8 0 16-1.68 23-6.24 5.88-3.84 10.32-9.72 11.52-16.08l5.64-31.8a41.24 41.24 0 0 1-8.4 10.56 39 39 0 0 1-25.8 10c-9.24 0-17.64-3.24-22.92-10-4-5-5.76-11.4-5.76-18.24-.03-23.44 18.23-43.24 41.48-43.24zm24.75 28.8c0-6-1.44-11.76-4.92-16.2-4.56-6-12.12-9-20.4-9-20.76 0-37 18.12-37 39 0 6 1.56 11.76 5 16.2 4.56 6 12.12 9 20.4 9 20.81 0 36.92-18.12 36.92-39zM498.28 383.95a2.2 2.2 0 0 1 2.4 2.4 3.51 3.51 0 0 1-3.48 3.6 2.2 2.2 0 0 1-2.4-2.4 3.51 3.51 0 0 1 3.48-3.6zM514.6 282h4l-15.36 85.8h-4z"/></g></svg>