<svg xmlns="http://www.w3.org/2000/svg" viewBox="0 0 700 500"><path fill="#f2f2f2" d="M-.06 0h700v500h-700z" data-name="Ebene 1"/><g data-name="Ebene 2"><path d="M194.75 102h11.88v48.6H260V102h11.88v108H260v-48.6h-53.4V210h-11.85zM340.85 173.59v-7.32a16.07 16.07 0 0 0-5.28-12.27c-3.84-3.36-8.88-4.68-13.92-4.68s-10 1.32-13.8 4.68a16.61 16.61 0 0 0-3.84 5.28L293.33 154a24.7 24.7 0 0 1 6-7.68c6.12-5.4 14.16-7.8 22.32-7.8s16.32 2.4 22.44 7.8a26.6 26.6 0 0 1 8.64 19.92v43.68h-11.88v-6.12c-4.8 4.92-12 7.32-19.2 7.32-7.92 0-15.84-1.56-22.32-6.24a19.36 19.36 0 0 1 0-32.4c6.48-4.68 14.4-6.24 22.32-6.24 7.2.03 14.4 2.43 19.2 7.35zm-19.2 3.48c-8.16 0-19.2 3.12-19.2 11.64s11 11.64 19.2 11.64 19.2-3.12 19.2-11.64-11.04-11.64-19.2-11.64zM374 96h11.88v114H374zM407 96h11.9v114H407zM497.32 148.75c6.72 7 10 16.44 10 26.16s-3.24 19.08-10 26-16 10.2-25.44 10.2-18.72-3.36-25.32-10.2-10-16.32-10-26 3.24-19.2 10-26.16 15.84-10.2 25.32-10.2 18.84 3.36 25.44 10.2zm-42.24 7.8c-4.56 4.92-6.6 11.64-6.6 18.36s2 13.32 6.6 18.24a22.77 22.77 0 0 0 16.8 7.2 23 23 0 0 0 16.92-7.2c4.56-4.92 6.6-11.52 6.6-18.24s-2-13.44-6.6-18.36a23 23 0 0 0-16.92-7.2 22.77 22.77 0 0 0-16.8 7.2zM110.47 282l31.44 90.24 13.92-39.84-17.64-50.4h12.6l11.28 32.4 11.4-32.4h11.76l-17.16 49.32 14.28 40.92L213.79 282h11.76l-37.68 108h-12l-14.16-40.68L147.55 390h-12L97.87 282zM286.34 382.39c-7 6.12-16.2 8.76-25.44 8.76-9.48 0-18.72-3.36-25.32-10.2s-10-16.32-10-26 3.24-19.2 10-26.16 15.84-10.2 25.32-10.2 18.84 3.36 25.44 10.2 10 16.44 10 26.16v5.28H238a25 25 0 0 0 6.12 13 22.77 22.77 0 0 0 16.8 7.2c6.12 0 12.24-1.68 16.92-5.76a21.64 21.64 0 0 0 4-4.8l10.08 6.12a28.25 28.25 0 0 1-5.58 6.4zm-8.52-45.84a23 23 0 0 0-16.92-7.2 22.77 22.77 0 0 0-16.8 7.2 25 25 0 0 0-6.12 13h46a25.05 25.05 0 0 0-6.16-13zM342.39 318.55a28.07 28.07 0 0 1 11.76 2.64l-4.68 10a14.45 14.45 0 0 0-7.08-1.8A15.53 15.53 0 0 0 330 336c-3.6 4.92-4.8 11-4.8 17v37h-11.84v-70.2h11.88v9.2c3.76-6 9.96-10.45 17.15-10.45zM419 382.39c-7 6.12-16.2 8.76-25.44 8.76-9.48 0-18.72-3.36-25.32-10.2s-10-16.32-10-26 3.24-19.2 10-26.16 15.84-10.2 25.32-10.2 18.84 3.36 25.44 10.2 10 16.44 10 26.16v5.28h-58.41a25 25 0 0 0 6.12 13 22.77 22.77 0 0 0 16.8 7.2c6.12 0 12.24-1.68 16.92-5.76a21.67 21.67 0 0 0 4-4.8l10.08 6.12a28.3 28.3 0 0 1-5.51 6.4zm-8.52-45.84a23 23 0 0 0-16.92-7.2 22.77 22.77 0 0 0-16.8 7.2 25 25 0 0 0-6.12 13h46a25.05 25.05 0 0 0-6.21-13zM446.15 276H458v114h-11.85zM532.84 331.63V276h11.88v114h-11.88v-11.93c-4.68 7.56-13.2 13.08-22.68 13.08a33.78 33.78 0 0 1-24.72-10.2c-6.6-7-9.72-16.44-9.72-26s3.12-19.2 9.72-26.16a33.78 33.78 0 0 1 24.72-10.2c9.48-.04 18 5.48 22.68 13.04zM494 336.55c-4.44 5-6.36 11.64-6.36 18.36s1.92 13.2 6.36 18.24a21.29 21.29 0 0 0 16.2 7.2 21.54 21.54 0 0 0 16.32-7.2c4.44-5 6.36-11.52 6.36-18.24s-1.92-13.32-6.36-18.36a21.55 21.55 0 0 0-16.32-7.2 21.29 21.29 0 0 0-16.2 7.2zM576.32 374.47a7.54 7.54 0 0 1 7.68 7.8 7.68 7.68 0 0 1-15.36 0 7.54 7.54 0 0 1 7.68-7.8zm-6-92.52h12v76.32h-12z"/></g></svg>