<svg xmlns="http://www.w3.org/2000/svg" viewBox="0 0 700 500"><path fill="#f2f2f2" d="M0 0h700v500H0z" data-name="Ebene 1"/><g data-name="Ebene 2"><path d="M145.31 205.3a5.83 5.83 0 0 1 .3-2.25L174 122.2a7.91 7.91 0 0 1 15.3 2.4 5.83 5.83 0 0 1-.3 2.25l-12.3 35.1h50.85l13.95-39.75a7.91 7.91 0 0 1 15.3 2.4 5.83 5.83 0 0 1-.3 2.25L241 170.8c-.15.9-.3 1-.3 1l-12.6 35.85a7.91 7.91 0 0 1-15.3-2.4 5.82 5.82 0 0 1 .3-2.25l9.15-26.1h-50.84l-10.8 30.75a7.79 7.79 0 0 1-7.5 5.1 7.58 7.58 0 0 1-7.8-7.45zM248.7 205.3a5.83 5.83 0 0 1 .3-2.3l10.2-29.25c3-8.55 6.6-19.35 16.5-26.85 9.45-7 19.8-7.35 27.45-7.35h2.55c1.2 0 2.4-.15 3.9-.15 7.65 0 18.15.75 23.7 9.6a19.69 19.69 0 0 1 3 10.8c0 7-3 13.95-4.65 18.75L321.3 207.7a7.91 7.91 0 0 1-15.3-2.4 6 6 0 0 1 .45-2.25l6.75-19.35h-40.8l-8.4 24a7.79 7.79 0 0 1-7.5 5.1 7.58 7.58 0 0 1-7.8-7.5zm69.6-36.6a43.08 43.08 0 0 0 1.8-10c0-.9 0-1.65-.3-2-.6-.9-4.35-2.1-14.1-2.1-8.25 0-14.85.15-20.25 4.2-3.15 2.4-5.4 5.7-7.35 9.9zM375.33 149.95a6.8 6.8 0 0 1-.45 2.4L360 194.95h37.2a7.51 7.51 0 1 1 0 15h-48.12a7.61 7.61 0 0 1-7.8-7.5c0-2.4.3-2.4.3-2.4l18.42-52.5a7.91 7.91 0 0 1 15.3 2.4zM447.08 149.95a6.8 6.8 0 0 1-.45 2.4l-14.85 42.6H469a7.51 7.51 0 1 1 0 15h-48.17a7.61 7.61 0 0 1-7.8-7.5c0-2.4.3-2.4.3-2.4l18.45-52.5a7.91 7.91 0 0 1 15.3 2.4zM548.28 139.45c8.7 0 19.2.9 26.1 8.55a18.27 18.27 0 0 1 4.8 12.9c0 6.45-2.55 12.9-4.2 17.7-3 8.4-7 19.95-18.6 27.15-10.95 6.9-23.7 7-33.75 7h-1.8c-2.1 0-4.35.15-6.9.15-8.7 0-19.2-.9-26.1-8.55a18.27 18.27 0 0 1-4.8-12.9c0-6.45 2.55-12.9 4.2-17.7 3-8.4 7-19.95 18.6-27.15 10.95-6.9 23.7-7 33.75-7h1.8c2.1 0 4.35-.15 6.9-.15zm-33.9 19.65c-6 3.75-9.45 11.1-12.3 19.5-2.25 6.3-2.85 10.65-2.85 13.35a4.32 4.32 0 0 0 .6 2.7c1.8 2 10.2 3.15 21 3.15s20.4-.3 27-4.5c6-3.75 9.45-11.1 12.3-19.5 2.25-6.3 2.85-10.65 2.85-13.35a4.32 4.32 0 0 0-.6-2.7c-1.8-1.95-10.2-3.15-21-3.15-10.65 0-20.38.3-27 4.5zM155.61 314.2l2.25 48.9 46.8-62.85a7.57 7.57 0 0 1 6.15-3.3c4.2 0 8.25 3.45 8.25 7.65a7.2 7.2 0 0 1-1.5 4.2l-60.15 80.85a7.84 7.84 0 0 1-6.3 3.15c-3 0-7.65-1.8-8-7l-2.25-50.1-40.35 54a7.84 7.84 0 0 1-6.3 3.15c-3 0-7.65-1.8-8-7L82.61 305a7.63 7.63 0 0 1 7.8-7.8 7.78 7.78 0 0 1 7.95 7l2.64 58.9 40.35-54a7.31 7.31 0 0 1 6-3.3c4.65 0 8.86 3.6 8.26 8.4zM264.66 389.95h-54.15a7.61 7.61 0 0 1-7.8-7.5c0-2.4.3-2.4.3-2.4l18.45-52.5c1.35-3.75 5.25-5.1 7.5-5.1h54.15a7.51 7.51 0 1 1 0 15h-48.6l-3.9 11.25H265a7.51 7.51 0 1 1 0 15h-39.6l-3.9 11.25h43.2c3.75 0 7.95 2.85 7.95 7.5s-4.24 7.5-7.99 7.5zM288 385.3a5.83 5.83 0 0 1 .3-2.25l19.5-55.5c1.35-3.75 5.25-5.1 7.5-5.1h36.9c5.7 0 12.3.45 17.7 4a12 12 0 0 1 5.7 10.65 26.5 26.5 0 0 1-1.65 8.25c-1.95 5.55-5.7 11.85-12.6 15a37.61 37.61 0 0 1-11.55 3l9 18.9a6.08 6.08 0 0 1 .75 3.15c0 4.2-4 7.35-8.25 7.35a7.31 7.31 0 0 1-6.9-4.35l-11.7-24.7h-21l-8.4 24a7.79 7.79 0 0 1-7.5 5.1 7.58 7.58 0 0 1-7.8-7.5zm66.6-38.55c1.65-.75 4.35-4.5 4.95-8.4-2.25-.6-7.35-.9-12.6-.9h-26.1l-3.9 11.25h21c6.3 0 13.2-.45 16.65-1.95zM438.22 389.95h-54.15a7.61 7.61 0 0 1-7.8-7.5c0-2.4.3-2.4.3-2.4l18.43-52.5c1.35-3.75 5.25-5.1 7.5-5.1h54.15a7.51 7.51 0 1 1 0 15h-48.6l-3.9 11.25h34.35a7.51 7.51 0 1 1 0 15h-39.6l-3.9 11.25h43.2c3.75 0 7.95 2.85 7.95 7.5s-4.15 7.5-7.93 7.5zM496.69 329.95a6.78 6.78 0 0 1-.45 2.4l-14.85 42.6h37.2a7.51 7.51 0 1 1 0 15h-48.15a7.61 7.61 0 0 1-7.8-7.5c0-2.4.3-2.4.3-2.4l18.45-52.5a7.91 7.91 0 0 1 15.3 2.4zM553.13 327.55c1.35-3.75 5.25-5.1 7.5-5.1h27.75c9.3 0 19.95.6 27.3 7.35a17.12 17.12 0 0 1 5.7 13.35c0 5.85-2.1 11.55-3.45 15.45-3 8.55-7.8 19-18.45 25-10.5 5.85-22.35 6.3-31.8 6.3h-25.5a7.61 7.61 0 0 1-7.8-7.5c0-2.4.3-2.4.3-2.4zm10.5 47.4c10.35 0 20.85-.3 27.9-4.2 5.1-2.85 8.7-9.15 11.4-16.95a31.66 31.66 0 0 0 2.25-10.65 5.11 5.11 0 0 0-.45-2.55c-2.1-2-11.4-3.15-22.8-3.15h-15.75l-13 37.5zM620.63 383.5a11.85 11.85 0 0 1 12.15-11.7c4.65 0 10 3.9 10 9.45a11.74 11.74 0 0 1-12.15 11.55c-4.63 0-10-3.8-10-9.3zm12-26.1a6.77 6.77 0 0 1 .45-2.4l18.45-52.8a7.91 7.91 0 0 1 15.3 2.4 5.83 5.83 0 0 1-.3 2.25l-18.6 52.95a7.79 7.79 0 0 1-7.5 5.1 7.58 7.58 0 0 1-7.8-7.5z"/></g></svg>