<svg xmlns="http://www.w3.org/2000/svg" viewBox="0 0 700 500"><path fill="#f2f2f2" d="M0 0h700v500H0z" data-name="Ebene 1"/><g data-name="Ebene 2"><path d="M163 206.71v-48.6c0-15.12.36-32.4 9.18-44.64 9.18-12.6 25.2-13.68 37.08-13.68 12.78 0 28.44 1.62 37.26 13.68 8.64 11.88 9.18 28.44 9.18 42.48 0 1.8-.18 3.6-.18 5.4v45.36c0 3.42-3.24 5.4-5.76 5.4s-5.76-2-5.76-5.4v-40h-69.45v40a5.77 5.77 0 0 1-11.52 0zM244 156c-.18-13.86-1.08-28.26-7-36.54-5-7-15.3-8.82-27.72-8.82-11.88 0-22.32 1.44-27.54 8.82-5.76 8.1-6.84 22.14-7 36.54zM279.78 206.71v-74.52c0-3.42 3.24-5.4 5.76-5.4s5.76 2 5.76 5.4V164h57.42v-31.81c0-3.42 3.24-5.4 5.76-5.4s5.76 2 5.76 5.4v74.52c0 3.42-3.24 5.4-5.76 5.4s-5.76-2-5.76-5.4v-31.86H291.3v31.86a5.77 5.77 0 0 1-11.52 0zM432 126.79c11 0 24.66.72 34.38 9 10.44 8.82 10.62 22.5 10.62 33.66v1.44c0 10.26-.18 23.4-10.62 32.22-10.08 8.64-24.48 9-36.54 9H423c-11 0-24.66-.72-34.38-9-10.44-8.82-10.62-22.5-10.62-33.66V168c0-10.26.18-23.4 10.62-32.22 10.08-8.64 24.3-9 36.36-9zm-35.6 16.74c-6.12 5.22-6.84 15.12-6.84 25.92 0 11.52 1.08 20.88 6.84 25.92 6.66 5.58 18.9 5.94 31.14 5.94 13.14 0 24.66-.54 31-5.94 6.12-5.22 7-15.12 7-25.92 0-11.52-1.26-20.88-7-25.92-6.66-5.58-18.72-5.94-31-5.94-13.14 0-24.84.54-31.14 5.94zM487.86 201.31h3.78c11.16 0 19.44-.54 24.3-5.58 5.22-5.58 5.76-15.66 5.76-26.28v-35.1c0-3.42 3.24-5.4 5.76-5.4s5.76 2 5.76 5.4v39.24c0 9.36-.54 20.7-8.64 29.16-8.64 9-21.42 9.36-31.68 9.36h-5c-2.52 0-5.76-2-5.76-5.4s3.2-5.4 5.72-5.4zM218.54 292.75h-45c-8.82 0-14.76.72-17.82 4.32-4 4.5-4.32 13.68-4.32 22.68 0 6.84 1.08 11.16 3.6 13.14 3.42 2.7 10.8 3.06 18.54 3.06h39.6c4.86 0 10.8.18 15.66 3.78 5.4 4 5.58 9.72 5.58 13.32v4.32c0 7.92-.18 16.74-4.14 23.58-4.5 7.74-13.32 9-19.08 9h-65.51a5.41 5.41 0 1 1 0-10.8h65.52c4.5 0 7.74-.9 9-3.06 2.34-4 2.7-13 2.7-21.78 0-3.78-.72-5.94-1.26-6.3-1.08-.9-4.86-1.26-10.44-1.26h-41.94c-6.66 0-15.12-.54-21.78-5.58-7.38-5.76-7.56-14.58-7.56-21.42v-4.32c0-7.92.54-17.46 6.84-24.84 7.2-8.28 18.54-8.64 26.82-8.64h45c2.52 0 5.76 2 5.76 5.4s-3.25 5.4-5.77 5.4zM244.77 306.79a6.12 6.12 0 0 1 5.22 3.06l33.3 64.62 33.48-64.62a5.19 5.19 0 0 1 4.86-3.06c3.06 0 6.12 2.16 6.12 5.22a7.06 7.06 0 0 1-.54 2.52L288.51 389a5 5 0 0 1-2.7 2.52 5.73 5.73 0 0 1-2.52.36 5.37 5.37 0 0 1-5.22-2.88l-38.52-74.52a5 5 0 0 1-.54-2.34 5.61 5.61 0 0 1 5.76-5.35zM412.71 389.95h-63.9a5.57 5.57 0 0 1-5.76-5.4v-70.2c0-3.78 3.6-5.4 5.76-5.4h63.9a5.41 5.41 0 1 1 0 10.8h-58.14V344h47.34a5.41 5.41 0 1 1 0 10.8h-47.34v24.3h58.14c2.52 0 5.76 2 5.76 5.4s-3.24 5.45-5.76 5.45zM437.26 309h83.16a5.41 5.41 0 1 1 0 10.8H484.6v67c0 3.42-3.24 5.4-5.76 5.4s-5.76-2-5.76-5.4v-67h-35.82c-2.52 0-5.76-1.8-5.76-5.4s3.24-5.4 5.76-5.4zM538.54 384.55a7.66 7.66 0 0 1 7.92-7.56c4.5 0 8.1 3.6 8.1 7.56a8 8 0 0 1-16 0zm2.16-30.06v-69.3c0-3.42 3.24-5.4 5.76-5.4s5.76 2 5.76 5.4v69.3a5.77 5.77 0 0 1-11.52 0z"/></g></svg>