<svg xmlns="http://www.w3.org/2000/svg" viewBox="0 0 700 500"><path fill="#f2f2f2" d="M0 0h700v500H0z" data-name="Ebene 1"/><g data-name="Ebene 2"><path d="M121.31 206.89V111c0-3.23 3.06-5.1 5.44-5.1s5.44 1.87 5.44 5.1v27.54h65.62V111c0-3.23 3.06-5.1 5.44-5.1s5.44 1.87 5.44 5.1v95.88c0 3.23-3.06 5.1-5.44 5.1s-5.44-1.87-5.44-5.1v-58.13h-65.62v58.14a5.45 5.45 0 0 1-10.88 0zM294.56 209.95h-60.35a5.26 5.26 0 0 1-5.44-5.1V113c0-3.57 3.4-5.1 5.44-5.1h60.35a5.11 5.11 0 1 1 0 10.2h-54.91v35.7h44.71a5.11 5.11 0 1 1 0 10.2h-44.71v35.7h54.91c2.38 0 5.44 1.87 5.44 5.1s-3.06 5.15-5.44 5.15zM381.83 209.95h-58a5.26 5.26 0 0 1-5.44-5.1V113c0-3.23 3.06-5.1 5.44-5.1s5.44 1.87 5.44 5.1v86.7h52.53c2.38 0 5.44 1.87 5.44 5.1s-3.03 5.15-5.41 5.15zM464 209.95h-58a5.26 5.26 0 0 1-5.44-5.1V113c0-3.23 3.06-5.1 5.44-5.1s5.44 1.87 5.44 5.1v86.7H464c2.38 0 5.44 1.87 5.44 5.1s-3.07 5.15-5.44 5.15zM566.89 105.91c2 0 5.44 1.53 5.44 5.1v95.88a5.27 5.27 0 0 1-5.44 5.1h-82.62c-2 0-5.44-1.53-5.44-5.1V111a5.27 5.27 0 0 1 5.44-5.1zm-77.18 10.2v85.68h71.74v-85.68zM69.89 285.91a5.54 5.54 0 0 1 5.1 3.4l30.26 81.94 26.52-71.74c1.53-4.25 8.67-4.76 10.37.17l26.35 71.57 30.26-81.94a5.3 5.3 0 0 1 5.27-3.23 5.17 5.17 0 0 1 5.44 4.93 5 5 0 0 1-.34 1.53l-35.36 96a5.74 5.74 0 0 1-5.1 3.23 5.33 5.33 0 0 1-5.27-3.23l-26.52-71.91-26.52 71.91a5.74 5.74 0 0 1-5.1 3.23 5.33 5.33 0 0 1-5.27-3.23l-35.36-96a4.7 4.7 0 0 1-.17-1.53 5.19 5.19 0 0 1 5.44-5.1zM309.45 285.91c2 0 5.44 1.53 5.44 5.1v95.88a5.27 5.27 0 0 1-5.44 5.1h-82.62c-2 0-5.44-1.53-5.44-5.1V291a5.27 5.27 0 0 1 5.44-5.1zm-77.18 10.2v85.68H304v-85.68zM341.24 386.89a5.45 5.45 0 0 1-10.88 0V293c0-3.57 3.4-5.1 5.44-5.1h64.94a5.27 5.27 0 0 1 5.44 5.1v45.9c0 3.57-3.4 5.1-5.44 5.1H381l24.48 40.46a4.51 4.51 0 0 1 .85 2.38c0 2.89-2.89 5.1-5.78 5.1a5.15 5.15 0 0 1-4.42-2.72L368.61 344h-27.37zm54.06-53v-35.7h-54.06v35.7zM486 389.95h-58a5.26 5.26 0 0 1-5.44-5.1V293c0-3.23 3.06-5.1 5.44-5.1s5.44 1.87 5.44 5.1v86.7H486c2.38 0 5.44 1.87 5.44 5.1s-3.02 5.15-5.44 5.15zM504.79 293c0-3.57 3.4-5.1 5.44-5.1h67a5.27 5.27 0 0 1 5.44 5.1v91.8c0 3.57-3.4 5.1-5.44 5.1h-67a5.26 5.26 0 0 1-5.44-5.1zm67 86.7v-81.6h-56.1v81.6zM597.75 384.85a7.23 7.23 0 0 1 7.48-7.14 7.53 7.53 0 0 1 7.65 7.14 7.58 7.58 0 0 1-15.13 0zm2-41V291c0-3.23 3.06-5.1 5.44-5.1s5.44 1.87 5.44 5.1v52.87a5.45 5.45 0 0 1-10.88 0z"/></g></svg>