<svg xmlns="http://www.w3.org/2000/svg" viewBox="0 0 700 500"><path fill="#f2f2f2" d="M0 0h700v500H0z" data-name="Ebene 1"/><g data-name="Ebene 2"><path d="M119.84 209.5v-89.1a.78.78 0 0 1 .75-.75c.15 0 .9.15.9.75v48.3h65.85v-48.3a.78.78 0 0 1 .75-.75c.15 0 .9.15.9.75v89.1c0 .6-.75.75-.9.75a.78.78 0 0 1-.75-.75v-39.3h-65.85v39.3a.83.83 0 0 1-.9.75.67.67 0 0 1-.75-.75zM268.5 209.95h-51.74a.7.7 0 0 1-.75-.75v-66a.8.8 0 0 1 .75-.75h51.74a.75.75 0 0 1 0 1.5h-50.84v31.5h41.84a.75.75 0 0 1 0 1.5h-41.84v31.5h50.84a.75.75 0 0 1 0 1.5zM287.18 208.9h3c10 0 20.25-.15 26.55-6.45 6.6-6.45 6.45-16.8 6.45-26.25v-33c0-.6.75-.75.9-.75a.78.78 0 0 1 .75.75v33l.15 1.5c0 9-.3 18.9-7 25.65-6.9 6.9-17.7 6.9-27.75 6.9h-3c-.15 0-.9-.15-.9-.75s.67-.6.85-.6zM402.39 144h-33.75c-6.3 0-12.3 0-16 3.6-4 3.75-4 9.9-4 15.45 0 4.35 1 8.25 3.9 10 3.9 2.4 10.35 2.4 15.75 2.4H397c3.9 0 8.1.15 10.95 2.25s3 5.7 3 8.4c0 6.6 0 14.1-2.7 18.75-2.25 4-7.35 5.1-11.25 5.1h-49.2a.75.75 0 0 1 0-1.5H397c3.75 0 7.8-.9 9.75-4.2 2.4-4.2 2.55-11.55 2.55-18.15 0-2.7-.3-5.7-2.4-7.35s-5.85-1.8-9.9-1.8h-30.16c-5.1 0-11.1-.15-15.3-2.85-3.6-2.25-4.5-6.75-4.5-11.1 0-.45-.15-.75-.15-1.2 0-5.1.3-11.1 4.5-15.15s10.95-4.2 17.25-4.2h33.75c.15 0 .9.15.9.75s-.75.8-.9.8zM432.48 209.5v-33.3c0-9.6 0-20.25 5.85-27s15.6-7 23.7-7c8.7 0 18 .6 23.55 7 5.7 6.6 6 16.5 6 25.35l-.15 1.65v33.3a.78.78 0 0 1-.75.75c-.15 0-.9-.15-.9-.75v-32.55h-55.65v32.55a.83.83 0 0 1-.9.75.67.67 0 0 1-.75-.75zm57.3-34c0-9 0-19.2-5.55-25.5-5.1-5.85-13.5-6.45-22.2-6.45-8.1 0-17.1.3-22.35 6.45s-5.55 16-5.55 25.5zM517.46 209.5v-66.6a.8.8 0 0 1 .75-.75 1.15 1.15 0 0 1 .75.3l55.8 56.25v-55.8c0-.6.75-.75.9-.75a.78.78 0 0 1 .75.75v66.6a.67.67 0 0 1-.75.75.83.83 0 0 1-.9-.75v-8.55l-55.65-56.1v64.65a.83.83 0 0 1-.9.75.67.67 0 0 1-.75-.75zM59.84 299.8c.3 0 .6 0 .75.3l33.15 87.15L127 300.1c.15-.45.6-.45.9-.45a.7.7 0 0 1 .75.9l-34 89.25a.91.91 0 0 1-.9.45.82.82 0 0 1-.75-.45l-34-89.25c-.21-.45.4-.75.84-.75zM142.33 389.5v-33.3c0-9.6 0-20.25 5.85-27s15.6-7 23.7-7c8.7 0 18 .6 23.55 7 5.7 6.6 6 16.5 6 25.35l-.15 1.65v33.3a.78.78 0 0 1-.75.75c-.15 0-.9-.15-.9-.75v-32.55H144v32.55a.83.83 0 0 1-.9.75.67.67 0 0 1-.77-.75zm57.3-34c0-9 0-19.2-5.55-25.5-5.1-5.85-13.5-6.45-22.2-6.45-8.1 0-17.1.3-22.35 6.45S144 346 144 355.45zm-39.9-44.1c.45 0 2.7 2.1 0 2.1-.45-.05-2.73-2.15 0-2.15zm24.3 0c.45 0 2.7 2.1 0 2.1-.45-.05-2.7-2.15-.03-2.15zM229 389.5a.83.83 0 0 1-.9.75.67.67 0 0 1-.75-.75v-66.3a.8.8 0 0 1 .75-.75h31.8c7.95 0 16.8 0 22.5 3.45 4.95 3 5.85 8.85 5.85 13.8 0 5.4-1.35 11.1-5.85 13.8-5.55 3.3-13.8 3.45-20.7 3.45h-.3l26.7 32.25a.55.55 0 0 1 .15.45c0 .45-.3.6-.75.6-.3 0-.6 0-.75-.3l-27.3-33H229zm31.35-34c7.2 0 15.9 0 21.15-3.15 3.75-2.25 5.1-7.2 5.1-12.6 0-4.8-1-10.2-5.1-12.6-5.1-3-13.65-3.15-21.6-3.15H229v31.5zM365 389.95h-55.2a.7.7 0 0 1-.75-.75v-66a.78.78 0 0 1 .75-.75c.15 0 .9.15.9.75v65.25H365a.75.75 0 0 1 0 1.5zM382.92 323.2a.8.8 0 0 1 .75-.75h21.45c10.95 0 23.1.15 30.75 6.9s7.8 17.55 7.8 26.85c0 9.9-.45 20.4-7.8 26.85-7.65 6.6-19 6.9-29.1 6.9h-23.1a.7.7 0 0 1-.75-.75zm22.65 65.25c10.35 0 21.9 0 29.1-6.3 6.75-6 7.35-16 7.35-25.95 0-9.45-.3-19.8-7.35-25.95s-18.45-6.3-29.55-6.3h-20.55v64.5zM517.89 389.95h-51.75a.7.7 0 0 1-.75-.75v-66a.8.8 0 0 1 .75-.75h51.75a.75.75 0 0 1 0 1.5H467v31.5h41.85a.75.75 0 0 1 0 1.5H467v31.5h50.85a.75.75 0 0 1 0 1.5zM542.88 389.5v-66.6a.8.8 0 0 1 .75-.75 1.15 1.15 0 0 1 .75.3l55.8 56.25v-55.8c0-.6.75-.75.9-.75a.78.78 0 0 1 .75.75v66.6a.67.67 0 0 1-.75.75.83.83 0 0 1-.9-.75v-8.55l-55.65-56.1v64.65a.83.83 0 0 1-.9.75.67.67 0 0 1-.75-.75zM628.15 388.75c0-.3.3-.6 1.2-.6.3 0 1.35.9 1.35 1.5 0 .3-.45.6-1.35.6a2.11 2.11 0 0 1-1.2-1.5zm.45-24.6V300.4a.78.78 0 0 1 .75-.75c.15 0 .9.15.9.75v63.75a.83.83 0 0 1-.9.75.67.67 0 0 1-.75-.75z"/></g></svg>