<svg xmlns="http://www.w3.org/2000/svg" viewBox="0 0 700 500"><path fill="#f2f2f2" d="M0 0h700v500H0z" data-name="Ebene 1"/><g data-name="Ebene 2"><path d="M123.79 207.91V110c0-2.38 2.38-3.4 3.74-3.4s3.74 1 3.74 3.4v50.66h69V110c0-2.38 2.38-3.4 3.74-3.4s3.74 1 3.74 3.4v97.92c0 2.38-2.38 3.4-3.74 3.4s-3.74-1-3.74-3.4v-40.47h-69v40.46a3.76 3.76 0 0 1-7.48 0zM297.1 209.95h-59.67a3.58 3.58 0 0 1-3.74-3.4v-69.7c0-2.38 2.38-3.4 3.74-3.4h59.67a3.42 3.42 0 1 1 0 6.8h-55.93v28h45.73a3.42 3.42 0 1 1 0 6.8h-45.73v28h55.93c1.36 0 3.74 1 3.74 3.4s-2.38 3.5-3.74 3.5zM386 209.95h-59.62a3.58 3.58 0 0 1-3.74-3.4v-69.7c0-2.38 2.38-3.4 3.74-3.4s3.74 1 3.74 3.4v66.3H386c1.36 0 3.74 1 3.74 3.4s-2.33 3.4-3.74 3.4zM468.8 209.95h-59.67a3.58 3.58 0 0 1-3.74-3.4v-69.7c0-2.38 2.38-3.4 3.74-3.4s3.74 1 3.74 3.4v66.3h55.93c1.36 0 3.74 1 3.74 3.4s-2.38 3.4-3.74 3.4zM528 132.09c10.54 0 23.46.34 32.47 8.16 9.18 8 9.35 20.57 9.35 31.45v1.19c0 10-.17 22.1-9.35 30.26s-22.95 8.16-34.51 8.16h-4.56c-10.54 0-23.29-.34-32.3-8.16-9.18-8-9.35-20.57-9.35-31.45v-1.19c0-10 .17-22.1 9.35-30.26s22.95-8.16 34.51-8.16zM494.37 145c-6.63 5.78-7.14 16.32-7.14 26.69 0 11.05.85 21.08 7.14 26.69 7 6.12 18.87 6.29 30.43 6.29 12.24 0 23.8-.34 30.43-6.29 6.63-5.78 7.14-16.32 7.14-26.69 0-11-.85-21.08-7.14-26.69-7-6.12-18.87-6.29-30.43-6.29-12.24.01-23.8.35-30.43 6.29zM511 123.25a3.47 3.47 0 0 1 1.36-2.55l29.07-21.76a4.51 4.51 0 0 1 2.38-.85c2 0 3.91 1.7 3.91 3.4a3.22 3.22 0 0 1-1.53 2.55l-29.04 21.76a4.37 4.37 0 0 1-2.38.85c-1.7 0-3.77-1.53-3.77-3.4zM134 286.59a3.77 3.77 0 0 1 3.57 2.21l36 89.42 36.21-89.42a3.62 3.62 0 0 1 3.4-2.21c1.87 0 3.91 1.36 3.91 3.23A3.32 3.32 0 0 1 217 291l-39.79 98.1a3.87 3.87 0 0 1-3.4 2.21 3.59 3.59 0 0 1-3.57-2.21L130.46 291a2.16 2.16 0 0 1-.17-1 3.6 3.6 0 0 1 3.71-3.41zM232.11 387.91v-72.42c0-2.38 2.38-3.4 3.74-3.4s3.74 1 3.74 3.4v72.42a3.76 3.76 0 0 1-7.48 0zM328.61 389.95h-59.67a3.58 3.58 0 0 1-3.74-3.4v-69.7c0-2.38 2.38-3.4 3.74-3.4s3.74 1 3.74 3.4v66.3h55.93c1.36 0 3.74 1 3.74 3.4s-2.35 3.4-3.74 3.4zM348 387.91v-37.74c0-10.2.34-21.59 7.48-29.58 7.48-8.33 18.87-8.5 27.71-8.5h1.19c9.69 0 21.42.17 28.9 8.5 7 7.65 7.31 18.53 7.31 27.71v39.61c0 2.38-2.38 3.4-3.74 3.4s-3.74-1-3.74-3.4V355.1h-57.67v32.81a3.76 3.76 0 0 1-7.48 0zm65.11-39.61c-.17-9-.68-18-5.61-23.46s-13.09-6.12-23.12-6.12c-9.35 0-18 .51-23.12 6.12-4.76 5.27-5.44 13.94-5.61 23.46zm-42.5-45a3.47 3.47 0 0 1 1.36-2.55L401 278.94a4.51 4.51 0 0 1 2.38-.85c2 0 3.91 1.7 3.91 3.4a3.22 3.22 0 0 1-1.53 2.55l-29.07 21.76a4.37 4.37 0 0 1-2.38.85c-1.7 0-3.74-1.53-3.74-3.4zM510.48 320.25h-24.14c-12.58 0-24.65.34-31.62 6-6.46 5.27-7.31 15.47-7.31 25.5 0 10.71 1 20.4 7.31 25.5 7.14 6 19.72 6 31.62 6h20.4v-28h-20.4a3.42 3.42 0 1 1 0-6.8h24.14c1.36 0 3.74 1 3.74 3.4v34.85a3.58 3.58 0 0 1-3.74 3.4h-27.71c-10.88 0-24-.51-33.15-8s-9.69-19.72-9.69-30.26c0-9.86 0-22.44 9.69-30.26 9.35-7.65 23.46-8 35.36-8h25.5c1.36 0 3.74 1 3.74 3.4s-2.38 3.27-3.74 3.27zM536.66 386.55c0-1 .51-4.59 4.93-4.59 2.55 0 5.1 1.87 5.1 4.59a4.79 4.79 0 0 1-5.1 4.76 4.9 4.9 0 0 1-4.93-4.76zm1.19-28.39V290c0-2.38 2.38-3.4 3.74-3.4s3.74 1 3.74 3.4v68.17a3.76 3.76 0 0 1-7.48 0z"/></g></svg>