<svg xmlns="http://www.w3.org/2000/svg" viewBox="0 0 700 500"><path fill="#f2f2f2" d="M0 0h700v500H0z" data-name="Ebene 1"/><g data-name="Ebene 2"><path d="M292.85 118.87c8.91 10.23 8.91 26.23 8.91 40.75 0 3.3.5 6.6.5 10.23 0 7.75-2.15 16.67-14.68 29a29.31 29.31 0 0 0-2.31 2.15c-10.89 9.9-19.47 11.55-27.72 11.55-4 0-7.92-.33-11.88-.33-12.71 0-26.89 0-35.8-8.25-8.75-8.08-8.91-21-8.91-32.83 0-4.12-.16-8.08-.16-12.21 0-10.06 1.32-20.29 11.22-31.51a85.47 85.47 0 0 1 12-11.55c9.07-6.76 18.15-7.26 27.39-7.26H257c13.08.03 27.27.53 35.85 10.26zm-75.07 5.77c-5 9.41-5.12 22.93-5.12 35 0 11.88.17 24.75 8.91 32.83 8.58 7.92 21.61 8.08 34 8.08H257c10.06 0 21.28 0 29.37-4 3.46-7.09 3.63-16.66 3.63-25.41 0-14.52 0-30.52-8.91-40.75-8.58-9.74-22.44-10.07-35.47-10.07-9.69.04-20.25.53-27.84 4.33zM375 209.95h-55.8l-.17-.17v-62.53c0-.83 9.9-11.55 11.55-11.55l.17.17v62.37h55.6l.17.17c0 1.47-10.89 11.54-11.52 11.54zM461.51 212.42l-.17-.17V178.6H410v22.11c0 .82-9.9 11.71-11.55 11.71l-.17-.17V178.6c0-3.3-.49-6.27-.49-9.57 0-5.94 1.65-12.54 10.39-21.94 11.38-12.21 19.14-14.19 25.24-14.19 3 0 5.61.5 8.08.5 9.08 0 19 .17 25.24 6.76 6.27 6.76 6.27 17.32 6.27 26.89v33.66c.05.99-9.68 11.71-11.5 11.71zM461 167c-.66-5.77-2.15-11.22-5.94-15.34-6.27-6.6-16-6.6-25.08-6.6-6.1 0-12.37 0-17.65 2-2.14 5.77-2.31 13.2-2.31 20zm-28-49.17l23.92-17a2.56 2.56 0 0 1 1-.5h.08c0 .33-.82 1.49-2.47 3.3a56.46 56.46 0 0 1-8.08 7.75l-23.92 17.16a2.87 2.87 0 0 1-1.15.5c0-.33.82-1.49 2.31-3.3a58.92 58.92 0 0 1 8.31-7.86zM77.33 392.42l-.17-.17v-92.06c0-1 9.9-11.55 11.55-11.55h.17l45.7 78 39.27-67c.83-1.49 4.13-5.12 7.26-7.92 2.31-2.15 3.63-3.3 4.13-3.3l.17.17v92.07c0 .82-9.9 11.71-11.55 11.71l-.17-.17v-83.43l-36.79 62.7a38.18 38.18 0 0 1-5.11 5.94c-3.13 3.13-6.1 5.44-6.27 5.11l-36.64-62.36v60.55c0 .82-9.88 11.71-11.55 11.71zM218.84 313.23l.17.17V347c0 9.57 0 20.13 6.27 26.89 6.27 6.6 16.17 6.6 25.24 6.6 6.1 0 12.54-.17 17.65-2 2.14-5.94 2.14-13.2 2.14-20v-33.55c0-.82 9.9-11.71 11.55-11.71l.17.17V347c0 3.3.5 6.43.5 9.9 0 5.94-1.49 12.38-10.23 21.61-8.25 8.91-11.55 10.06-12.54 10.56-5.44 3-11.38 3.13-17.32 3.13H239c-9.07 0-19.14-.17-25.41-6.76-6.27-6.76-6.27-17.32-6.27-26.89v-33.61c-.03-.82 9.87-11.71 11.52-11.71zM302.67 392.42l-.17-.17v-67.31c0-1 9.74-11.55 11.55-11.55h.17l51.31 46.69v-35.14c0-.82 9.9-11.71 11.55-11.71l.17.17v67.32c0 1-9.73 11.71-11.55 11.71l-.17-.17v-9.9l-51.31-46.69v45c0 .86-9.9 11.75-11.55 11.75zM410.17 315.7h23.59c11.55 0 24.91 0 33.16 6.27 7.42 5.61 8.42 15.67 8.42 25.08 0 2.15.17 4.29.17 6.43 0 5.45-1 11.05-7.75 19a81.32 81.32 0 0 1-11.05 10.39c-8.42 6.43-17.32 7.09-26.23 7.09h-31.69l-.17-.17v-62.54c0-.83 9.9-11.55 11.55-11.55zm23.59 62.53c9.41 0 20-.17 27.72-3.3 1.81-4.78 2.14-10.72 2.14-16.33 0-9.4-.83-19.3-8.25-24.91-8.25-6.27-21.61-6.27-33.16-6.27h-11.88v50.82zM569.22 320.16c7.59 6.27 8.08 17 8.08 26.89 0 2.64.33 5.28.33 8.25 0 6.27-1.82 13.53-13.2 24.75-1.81 1.81-3.3 3.13-4.29 4-8.91 7.42-16.67 8.41-24.42 8.41-3.3 0-6.6-.17-10.07-.17-11.38 0-24.09 0-32.17-6.76-7.59-6.27-8.08-17-8.08-26.89 0-2.64-.33-5.28-.33-8.25 0-6.27 1.81-13.53 13.2-24.75 1.82-1.81 3.46-3.13 4.46-4 8.91-7.42 16.66-8.41 24.42-8.41 3.3 0 6.6.17 10.06.17 11.39-.01 23.93-.01 32.01 6.76zm-69.63 8.08c-2.15 5.44-2.48 12.37-2.48 18.81 0 9.9.66 20.62 8.08 26.89 7.59 6.43 19.47 6.6 30.36 6.6h1.65c8.91 0 18.81 0 26.07-3.13 2.14-5.45 2.31-12.37 2.31-18.81 0-9.9-.5-20.62-7.92-26.89-7.59-6.44-19.47-6.6-30.36-6.6h-1.65c-8.89-.01-18.79-.01-26.05 3.13zM591.24 392.92c-.17 0-.17 0-.17-.17 0-.5 1.32-2.31 6.43-7.42s6.43-6.1 6.76-6.1-.17.66-.17.66a4.23 4.23 0 0 1 1.49-.66c.17 0 .17.17.17.33 0 .5-1.32 2.31-6.44 7.42-4.95 4.95-6.43 6.1-6.76 6.1l-.17-.17a2.42 2.42 0 0 1 .33-.66 4.22 4.22 0 0 1-1.47.67zm1.48-30.52c-.17 0-.17 0-.17-.17v-62c0-1 9.74-11.71 11.55-11.71l.17.17v62.2c0 .78-9.73 11.5-11.55 11.5z"/></g></svg>