<svg xmlns="http://www.w3.org/2000/svg" viewBox="0 0 700 500"><path fill="#f2f2f2" d="M0 0h700v500H0z" data-name="Ebene 1"/><g data-name="Ebene 2"><path d="M219.54 139l-34.86-1.26h-4.62c-6.16 0-11.34.56-14.14 2.66s-3.64 6.86-3.64 12.6 1.26 10.08 3.64 11.62c3.78 2.38 11.76 2.66 19 2.66h27c4.76 0 10.36.28 14.84 2.94 5.18 3.08 5.6 8.4 5.6 11.76 0 7 0 15.12-2.66 21.14-2.38 5.32-8 7.28-12.46 7.28H217l-57.68-1.26c-2.94 0-4.48-2-4.48-4.06a4.19 4.19 0 0 1 4.48-4.2h.14l57.68 1.26h.14c2 0 3.64-.84 4.2-2.1 1.54-3.36 2-10.92 2-17.78v-.14c0-2.94-.84-4.62-1.54-5-1.82-1.12-6.58-1.4-11.9-1.4l-25.04-.21h-3.64c-6.44 0-14.28-.28-20.44-4.2-7.14-4.62-7.56-12.18-7.56-19.74 0-5.6.56-12.88 6.86-17.64 5.18-3.92 11.9-4.62 18.2-4.62 2.38 0 4.62 0 6.72.14l34.86 1.26a4.17 4.17 0 0 1 4.2 4.06 4.34 4.34 0 0 1-4.48 4.2zM243.86 181.95c0-9.1-.14-20.16 7.14-28 7.56-8.26 18.9-8.4 27-8.68h1.82c6.3 0 13.44 1.4 17.5 7.42 5.18 7.56 5.6 18.34 5.74 26.32l1.26 25.76c.14 2.8-2.1 4.2-4.48 4.2a4.08 4.08 0 0 1-4.34-3.92l-1.12-21.7-41.58 2.52-.14 17.78a4.49 4.49 0 0 1-9 0zm50-6.86c-.42-7-1.4-14.14-4.06-17.92-1.68-2.38-5-3.64-9.94-3.64-9.1 0-17.5 1-22 5.88-3.78 4.06-4.76 10.5-5 18.06zM381.29 206.31L327.11 209h-.28a4.44 4.44 0 0 1-4.48-4.06l-2.24-53.34c-.14-2.8 2.24-4.2 4.48-4.2s4.34 1.26 4.48 3.92l2.1 49.14 49.56-2.46h.27c2 0 4.48 1.26 4.48 4.06.01 2.57-2.37 4.11-4.19 4.25zM391.08 140.37a4.45 4.45 0 0 1 4.48 4.06l1.68 36.4c.28 7.28 1.12 13 4.48 16.24 4.2 4.06 12.88 4.48 21.28 4.48 6.16 0 10.92-.84 14.14-3.92 4.48-4.2 5.32-12.18 5.88-20.58l2.1-29.12c.14-2.66 2.38-3.78 4.48-3.78 2.38 0 4.76 1.4 4.48 4.34L452 177.61c-.56 8-.84 18.48-8.4 25.76-5.6 5.46-13.16 6.44-20 6.44-2 0-3.78 0-5.6-.14-6.58-.28-16-.28-22.82-6.86-6.3-6-6.58-14.56-6.86-21.56l-1.68-36.54a4.28 4.28 0 0 1 4.44-4.34zM466.8 146.39l65.66-.28a4.21 4.21 0 1 1 0 8.4l-25.34.14-5.18 52.35a4 4 0 0 1-4.34 3.64c-2.38 0-4.76-1.54-4.48-4.48l5-51.52-31.36.14c-2 0-4.62-1.4-4.62-4.2s2.7-4.19 4.66-4.19zM93.15 386.31L39 389h-.28a4.44 4.44 0 0 1-4.48-4.06L32 331.57c-.14-2.8 2.24-4.2 4.48-4.2s4.34 1.26 4.48 3.92L43 380.43 92.59 378h.28c2 0 4.48 1.26 4.48 4.06 0 2.57-2.35 4.11-4.2 4.25zM161.19 389.67l-54.74 2.52h-.28a4.05 4.05 0 0 1-4.34-4.2l1.26-32.34v-.14l1-23.8c.14-2.94 2.94-3.92 4.62-3.92h.29l51.52 4.06c2.8.28 4.06 2 4.06 3.92a4.39 4.39 0 0 1-4.48 4.34c-.14 0-.28-.14-.42-.14l-46.76-3.64-.7 15.54 34.72 2.8c2.8.28 4.06 2.1 4.06 4.06a4.28 4.28 0 0 1-4.48 4.2h-.42l-34.16-2.8-1 23.66 49.7-2.38h.28c2 0 4.48 1.26 4.48 4.06-.01 2.53-2.4 4.06-4.21 4.2zM219.85 387.15l1.15-78.54c0-2.94 2.8-4.06 4.48-4.06a4.69 4.69 0 0 1 4.06 2.24l35 62.72 37.1-65.38a4.37 4.37 0 0 1 3.92-2.24 5.33 5.33 0 0 1 2.24.42 4 4 0 0 1 2.38 3.64l2 82.46c0 2.8-2.38 4.2-4.62 4.2a4 4 0 0 1-4.34-4.06L301.46 322l-33 58.24a5.31 5.31 0 0 1-4.34 2.24 4 4 0 0 1-3.64-2.24l-30.8-55-.84 62a4.25 4.25 0 0 1-4.48 4.06 4.36 4.36 0 0 1-4.51-4.15zM364 328.77c4.62 0 21.14.42 28.56 5.6s8.4 13.86 8.4 21.14c0 8.82 0 20-8.68 27.58-8.54 7.28-20.72 7.14-30.52 7.28h-4.9c-7.28 0-16-.56-22.4-6.3s-7.14-13.86-7.14-21v-3.5c.14-7.42 0-17.64 7.84-24.36 7.28-6.3 17.5-6.44 25.9-6.44zm-22.68 12.46c-4.62 3.92-5 12-5 20.58 0 7.42.7 13.16 4.34 16.38 3.92 3.5 11.06 3.92 18.76 3.92 10.92 0 21.42-.28 26.88-5 4.9-4.2 5.74-12.46 5.74-21.28 0-7-1.4-12.46-4.9-14.84-5-3.5-15.12-3.92-24.36-3.92s-17.1.38-21.44 4.16zM419.23 391.91a4.45 4.45 0 0 1-4.48-3.92l-2.94-58.24c-.14-3.08 2.66-4.34 4.48-4.34a4.65 4.65 0 0 1 3.36 1.4l44.1 45.08-.28-45.89c0-2.8 2.24-4.06 4.48-4.06s4.48 1.26 4.48 4.06l.28 55.86c0 .28.14.56.14.84s-.14.42-.14.7l.14 6.86a4.49 4.49 0 0 1-9 0l-.14-6L421.29 341l2.38 46.62a4.28 4.28 0 0 1-4.44 4.29zM487.54 332.55v-.7c0-2.94 2.8-3.78 5-3.78h.28L516.1 332c16.1 2.8 40.6 5.46 40.6 23.52 0 7-7.28 10.36-10.08 12.18-8.54 5.32-21.7 11.62-32.34 16.8l-12.32 6a3.94 3.94 0 0 1-2.1.56 4.63 4.63 0 0 1-3.92-2.24c-.56-1-.42-1.4-.42-1.4zm22.54 44.66c10.5-5.18 23.66-11.48 31.5-16.38 3.92-2.52 6.16-4.76 6.16-5.32a9.35 9.35 0 0 0-5-8.12c-6.16-3.22-17.78-5.46-28.28-7.28l-17.22-2.94 6.3 43.26zM624.16 389.67l-54.74 2.52h-.28a4.05 4.05 0 0 1-4.34-4.2l1.26-32.34v-.14l1-23.8c.14-2.94 2.94-3.92 4.62-3.92h.28l51.52 4.06c2.8.28 4.06 2 4.06 3.92a4.39 4.39 0 0 1-4.48 4.34c-.14 0-.28-.14-.42-.14l-46.76-3.64-.7 15.54 34.72 2.8c2.8.28 4.06 2.1 4.06 4.06a4.28 4.28 0 0 1-4.48 4.2H609l-34.16-2.8-1 23.66 49.7-2.38h.28c2 0 4.48 1.26 4.48 4.06.06 2.53-2.3 4.06-4.14 4.2zM639.25 388.55a6 6 0 0 1 6.16-5.88 6.2 6.2 0 0 1 6.3 5.88 6.24 6.24 0 0 1-12.46 0zm11.2-24.36a4.19 4.19 0 0 1-4.34-3.64l-6-51.24c-.28-2.94 2.24-4.62 4.62-4.62a4.14 4.14 0 0 1 4.34 3.78l5.88 51.1a4.25 4.25 0 0 1-4.5 4.62z"/></g></svg>