<svg xmlns="http://www.w3.org/2000/svg" viewBox="0 0 700 500"><path fill="#f2f2f2" d="M0 0h700v500H0z" data-name="Ebene 1"/><g data-name="Ebene 2"><path d="M153.59 147.9a10 10 0 0 1-19.89 0 9.56 9.56 0 0 1 9.86-9.52 10 10 0 0 1 10.03 9.52zm-2.72 28.39V239c0 4.25-3.91 6.8-7.31 6.8a7 7 0 0 1-7.14-6.8v-62.71a7 7 0 0 1 7.14-6.8 7.16 7.16 0 0 1 7.31 6.8zM170.9 205.87V112a7 7 0 0 1 7.14-6.8c3.4 0 7.31 2.55 7.31 6.8v45.22h62V112c0-4.25 3.74-6.8 7.14-6.8s7.31 2.55 7.31 6.8v93.84c0 4.25-3.91 6.8-7.31 6.8s-7.14-2.55-7.14-6.8v-35h-62v35a7.16 7.16 0 0 1-7.31 6.8 7 7 0 0 1-7.14-6.77zM330.1 130.73c10.37 0 22.95.51 32.64 8.5 10.54 8.67 10.71 22.27 10.71 32.47v1.36c0 9.35-.17 22.44-10.71 31.11-9.86 8.16-23.46 8.5-34.51 8.5h-8.5c-10.37 0-22.95-.51-32.64-8.5-10.54-8.67-10.71-22.27-10.71-32.47v-1.36c0-9.35.17-22.44 10.71-31.11 9.86-8.16 23.46-8.5 34.51-8.5zm-33.49 18.7c-4.76 3.91-5.78 12.24-5.78 22.27 0 10.54 1.19 18.53 5.78 22.27 5.61 4.59 16.66 5.1 28.39 5.1 12.41 0 23-.68 28.22-5.1 4.78-3.91 5.78-12.24 5.78-22.27 0-10.54-1.19-18.53-5.78-22.27-5.61-4.59-16.49-5.1-28.22-5.1-12.41 0-23.12.67-28.39 5.1zM450.85 209.95h-56.27a7 7 0 0 1-7.14-6.8v-62.9a7 7 0 0 1 7.14-6.8c3.4 0 7.31 2.55 7.31 6.8v56.1h49c3.4 0 7.31 2.55 7.31 6.8s-3.95 6.8-7.35 6.8zM469 205.87v-37.06c0-9.35.34-20.57 8.33-28.9 8.16-8.5 19.38-9.18 27.88-9.18h5.27c9.18 0 21.25.34 29.58 9.18 7.82 8.16 8.5 18.7 8.5 27.2 0 1.53-.17 3.23-.17 4.59v34.17c0 4.25-3.74 6.8-7.14 6.8s-7.31-2.55-7.31-6.8V178.5h-50.5v27.37a7.16 7.16 0 0 1-7.31 6.8 7 7 0 0 1-7.13-6.8zm64.94-41c-.34-7-1.53-12.75-4.59-16-3.74-3.91-10.37-4.59-20.57-4.59-9.52 0-16.83.51-20.74 4.59-3.06 3.23-4.08 8.84-4.42 16zM69.85 385.87V292c0-4.93 4.42-6.8 7.14-6.8a7.49 7.49 0 0 1 6.46 3.57l43.35 73.1 43.35-73.1a7.28 7.28 0 0 1 6.29-3.57 7.38 7.38 0 0 1 3.57.85 7 7 0 0 1 3.74 6v93.84c0 4.25-3.91 6.8-7.31 6.8s-7.14-2.55-7.14-6.8v-67.68l-36.21 60.86a5.68 5.68 0 0 1-2.72 2.55 8.11 8.11 0 0 1-3.74.85 6.84 6.84 0 0 1-6.12-3.4L84.3 318.21v67.66a7.16 7.16 0 0 1-7.31 6.8 7 7 0 0 1-7.14-6.8zM217.8 317.53v34.17c0 10.54.68 18.7 4.59 22.78s11.22 4.59 20.74 4.59c10.2 0 16.83-.68 20.57-4.59 4.08-4.25 4.59-12.92 4.59-22.78v-34.17c0-4.25 3.91-6.8 7.31-6.8s7.14 2.55 7.14 6.8v34.17c0 1.36.17 3.06.17 4.59 0 8.5-.68 19-8.5 27.2-8.33 8.84-20.4 9.18-29.58 9.18h-5.27c-8.5 0-19.72-.68-27.88-9.18-8-8.33-8.33-19.55-8.33-28.9v-37.06a7 7 0 0 1 7.14-6.8 7.16 7.16 0 0 1 7.31 6.8zM301.59 385.87v-68.34c0-4.93 4.42-6.8 7.14-6.8a7.25 7.25 0 0 1 5.1 1.87l52.7 47.26v-42.33c0-4.25 3.91-6.8 7.31-6.8s7.14 2.55 7.14 6.8v56.95c0 .34.17.85.17 1.19s-.17.85-.17 1.19v9a7 7 0 0 1-7.14 6.8 7.16 7.16 0 0 1-7.31-6.8v-7.14L316 333.34v52.53a7.16 7.16 0 0 1-7.31 6.8 7 7 0 0 1-7.1-6.8zM400.14 320.25c0-4.93 4.42-6.8 7.14-6.8h28c11.39 0 24.82.51 34.85 7.82 11 8.16 11.39 21.42 11.39 30.43 0 9.86-.85 22.61-11.39 30.43-9.69 7.14-22.44 7.82-33 7.82h-29.85a7 7 0 0 1-7.14-6.8zm31.45 56.1c11.9 0 24-.51 29.75-4.76 4.08-3.06 5.78-10 5.78-19.89 0-9.18-1.36-16.66-5.78-19.89-5.61-4.08-17.17-4.76-29.75-4.76h-17v49.3zM543.52 310.73c10.37 0 22.95.51 32.64 8.5 10.54 8.67 10.71 22.27 10.71 32.47v1.36c0 9.35-.17 22.44-10.71 31.11-9.86 8.16-23.46 8.5-34.51 8.5h-8.5c-10.37 0-22.95-.51-32.64-8.5C490 375.5 489.8 361.9 489.8 351.7v-1.36c0-9.35.17-22.44 10.71-31.11 9.86-8.16 23.46-8.5 34.51-8.5zM510 329.43c-4.76 3.91-5.78 12.24-5.78 22.27 0 10.54 1.19 18.53 5.78 22.27 5.61 4.59 16.66 5.1 28.39 5.1 12.41 0 22.95-.68 28.22-5.1 4.76-3.91 5.78-12.24 5.78-22.27 0-10.54-1.19-18.53-5.78-22.27-5.61-4.59-16.49-5.1-28.22-5.1-12.39 0-23.09.67-28.39 5.1zM597.78 383.15a9.57 9.57 0 0 1 9.86-9.52 10 10 0 0 1 10 9.52 10 10 0 0 1-19.89 0zm2.72-28.39V292a7 7 0 0 1 7.14-6.8c3.4 0 7.31 2.55 7.31 6.8v62.73a7.16 7.16 0 0 1-7.31 6.8 7 7 0 0 1-7.14-6.77z"/></g></svg>