<svg xmlns="http://www.w3.org/2000/svg" viewBox="0 0 700 500"><path fill="#f2f2f2" d="M0 0h700v500H0z" data-name="Ebene 1"/><g data-name="Ebene 2"><path d="M225.39 203.15h30.43a3.42 3.42 0 1 1 0 6.8h-35.19c-11.9 0-26.18-.68-33.32-10a19.77 19.77 0 0 1-3.91-12.58c0-7.82 3.06-16.49 5.78-24.31 5.1-14.62 10.88-32.13 25.33-43.69 13.77-11 30.09-11.39 44.2-11.39h30.43c1.36 0 3.74 1 3.74 3.4s-2.38 3.4-3.74 3.4h-30.43c-14.11 0-27.88.51-39.27 9.69-12.24 9.86-18 25.84-23.12 40.63-2.89 8.5-5.27 16.32-5.27 22.61 0 15.78 17 15.44 34.34 15.44zM277 207.91a1.53 1.53 0 0 1 .17-.85l25.33-72.59a3.4 3.4 0 0 1 3.4-2.38c1.87 0 3.91 1.19 3.91 3.23a2.16 2.16 0 0 1-.17 1l-25.33 72.59a3.89 3.89 0 0 1-3.57 2.38 3.49 3.49 0 0 1-3.74-3.38zM311.33 207.91a1.52 1.52 0 0 1 .17-.85l12.58-36.38c3.74-10.54 7.82-22.44 17.68-30.43 10-8.16 21.76-8.16 30.94-8.16h.3c9.35 0 21.76.17 26.69 9.18a18.15 18.15 0 0 1 2.21 9c0 7.48-3.23 15.64-5.61 22.44l-12.75 36.21a3.4 3.4 0 0 1-3.4 2.38c-1.87 0-3.91-1.19-3.91-3.23a2.16 2.16 0 0 1 .17-1l11.22-32h-57.25l-11.73 33.83a3.89 3.89 0 0 1-3.57 2.38 3.49 3.49 0 0 1-3.74-3.37zm61.54-69.19c-9.18 0-18.19.17-26 6.46-6.8 5.44-10.71 13.94-14.11 23.12h57.12c2.21-6.63 4.25-13.26 4.25-18.53-.01-10.37-8.13-11.05-21.26-11.05zM478.67 132.09c10.2 0 22.61.51 29.07 8.67a17.7 17.7 0 0 1 3.57 11.24c0 6.8-2.55 14.11-4.93 20.74-3.57 10.37-8.16 22.61-19.89 30.6s-25.84 8-37.74 8h-4.59c-10.2 0-22.61-.51-29.07-8.67a17.7 17.7 0 0 1-3.57-11.22c0-6.8 2.55-14.11 4.93-20.74 3.57-10.37 8.16-22.61 19.89-30.6s25.84-8 37.74-8zm-37.91 13.26c-9.35 6.29-13.43 17-17 27.37-2.55 7.14-4.42 13.94-4.42 19 0 2.89.51 5.27 1.87 7 4.25 5.44 15.64 6 27.54 6 12.07 0 24-.34 33.32-6.63s13.43-17 17-27.37c2.55-7.14 4.42-13.94 4.42-19 0-2.89-.51-5.27-1.87-7-4.25-5.44-15.64-6-27.54-6-12.08 0-23.97.34-33.32 6.63zM58.41 387.91a1.52 1.52 0 0 1 .17-.85L92.75 289a4 4 0 0 1 3.74-2.38 3.6 3.6 0 0 1 3.57 2.72l17.51 80.92 75.31-82.45a4 4 0 0 1 2.89-1.19 3.61 3.61 0 0 1 3.74 3.4 3.46 3.46 0 0 1-.17.85l-34.17 98.09a3.6 3.6 0 0 1-3.57 2.38c-1.87 0-3.91-1.19-3.91-3.23a2.42 2.42 0 0 1 .34-1l28.56-81.6-68.34 74.46a5 5 0 0 1-3.23 1.19 3.14 3.14 0 0 1-3.4-2.55l-16.15-75-29.75 85.32a3.89 3.89 0 0 1-3.57 2.38 3.49 3.49 0 0 1-3.74-3.4zM262.91 312.09c10.2 0 22.61.51 29.07 8.67a17.7 17.7 0 0 1 3.56 11.24c0 6.8-2.55 14.11-4.93 20.74-3.57 10.37-8.16 22.61-19.89 30.6s-25.84 8-37.74 8h-4.58c-10.2 0-22.61-.51-29.07-8.67a17.7 17.7 0 0 1-3.57-11.22c0-6.8 2.55-14.11 4.93-20.74 3.57-10.37 8.16-22.61 19.89-30.6s25.84-8 37.74-8zM225 325.35c-9.35 6.29-13.43 17-17 27.37-2.55 7.14-4.42 13.94-4.42 19 0 2.89.51 5.27 1.87 7 4.25 5.44 15.64 6 27.54 6 12.07 0 24-.34 33.32-6.63s13.43-17 17-27.37c2.55-7.14 4.42-13.94 4.42-19 0-2.89-.51-5.27-1.87-7-4.25-5.44-15.64-6-27.54-6-12.07 0-23.97.34-33.32 6.63zM299.52 387.91a1.52 1.52 0 0 1 .17-.85L325 314.47a3.21 3.21 0 0 1 3.23-2.38 4.42 4.42 0 0 1 3.57 1.53l38.76 56.27L390 314.47a3.6 3.6 0 0 1 3.57-2.38c1.87 0 3.91 1.19 3.91 3.23a2.42 2.42 0 0 1-.34 1l-21.59 61.88a3.15 3.15 0 0 1-.34 1.19l-3.4 9.52a3.89 3.89 0 0 1-3.57 2.38 3.49 3.49 0 0 1-3.74-3.4 1.53 1.53 0 0 1 .17-.85l3.06-8.67-37.91-54.91-22.95 65.45a3.89 3.89 0 0 1-3.57 2.38 3.49 3.49 0 0 1-3.78-3.38zM424.52 315.83a3.91 3.91 0 0 1 3.57-2.38h27.2c11.39 0 24.82.34 31.79 8.33a17.05 17.05 0 0 1 3.92 11.56c0 6.46-2.55 13.6-4.59 19.38-3.74 10.54-8.5 22.44-19.72 29.58-11.56 7.31-25 7.65-36.21 7.65h-26.7a3.58 3.58 0 0 1-3.74-3.4v-1zm3.4 67.32c11.73 0 24.65 0 34.51-6.29 8.84-5.61 13.09-15.64 16.83-26.18 2.21-6.46 4.08-12.75 4.08-17.68 0-2.89-.68-5.44-2.21-7.14-4.42-5.1-15.81-5.61-28.73-5.61h-21.59l-22.1 62.9zM564.28 312.09c10.2 0 22.61.51 29.07 8.67a17.7 17.7 0 0 1 3.57 11.24c0 6.8-2.55 14.11-4.93 20.74-3.57 10.37-8.16 22.61-19.89 30.6s-25.84 8-37.74 8h-4.59c-10.2 0-22.61-.51-29.07-8.67a17.7 17.7 0 0 1-3.57-11.22c0-6.8 2.55-14.11 4.93-20.74 3.57-10.37 8.16-22.61 19.89-30.6s25.84-8 37.74-8zm-37.91 13.26c-9.35 6.29-13.43 17-17 27.37-2.55 7.14-4.42 13.94-4.42 19 0 2.89.51 5.27 1.87 7 4.25 5.44 15.64 6 27.54 6 12.07 0 24-.34 33.32-6.63s13.43-17 17-27.37c2.55-7.14 4.42-13.94 4.42-19 0-2.89-.51-5.27-1.87-7-4.25-5.44-15.64-6-27.54-6-12.07 0-23.97.34-33.32 6.63zM599.42 387.06c0-1.53 1-5.1 5.61-5.1 1.7 0 4.76 1.19 4.76 4.08a5.28 5.28 0 0 1-5.61 5.27c-1.7 0-4.76-1.36-4.76-4.25zm11.39-28.9a2.16 2.16 0 0 1 .17-1l23.8-68.16a3.6 3.6 0 0 1 3.57-2.38c1.87 0 3.91 1.19 3.91 3.23a2.4 2.4 0 0 1-.34 1l-23.8 68.34a3.89 3.89 0 0 1-3.57 2.38 3.49 3.49 0 0 1-3.74-3.41z"/></g></svg>