<svg xmlns="http://www.w3.org/2000/svg" viewBox="0 0 700 500"><path fill="#f2f2f2" d="M0 0h700v500H0z" data-name="Ebene 1"/><g data-name="Ebene 2"><path d="M143 205.7a8.54 8.54 0 0 1 .34-2L158 161.84c5.1-14.79 11-32.3 24-44.2 12.41-11.39 27.71-12.41 39.27-12.41 11.39 0 28.39.85 33.83 15a31.11 31.11 0 0 1 1.87 11.22c0 11.9-5.27 24.31-8.84 34.85l-14.62 41.65a7.37 7.37 0 0 1-7 4.76 7 7 0 0 1-7.14-6.8 5.24 5.24 0 0 1 .51-2.21l11.39-32.81h-61.2L157 207.91a7.53 7.53 0 0 1-6.8 4.76 7 7 0 0 1-7.2-6.97zm93-48.45c3.4-10 6.12-20.23 6.12-27.2a15.87 15.87 0 0 0-.68-5.27c-1.53-3.74-7.82-6-20.23-6-10.88 0-21.25 1.19-29.24 8.5-7.48 6.8-12.75 18-17.17 29.92zM264.53 205.7a8.54 8.54 0 0 1 .34-2l23.8-68.17a7.37 7.37 0 0 1 7-4.76 7 7 0 0 1 7.14 6.8 5 5 0 0 1-.34 2.21l-8.87 25.12h49.81l10.37-29.41a7.37 7.37 0 0 1 7-4.76 7 7 0 0 1 7.14 6.8 5.24 5.24 0 0 1-.51 2.21l-11.56 33.15a2.34 2.34 0 0 1-.34 1l-11.9 34a7.37 7.37 0 0 1-7 4.76 7 7 0 0 1-7.14-6.8 5 5 0 0 1 .34-2.21l8.84-25.16h-49.81l-10.37 29.41a7.53 7.53 0 0 1-6.8 4.76 7 7 0 0 1-7.14-6.95zM446.1 130.73c9.86 0 22.1.85 29.41 9.35a19.91 19.91 0 0 1 4.76 13.6c0 7.14-2.72 14.45-4.76 20.23-3.4 9.86-8 22.61-20.57 30.77-12.24 7.82-26.86 8-38.42 8h-8c-9.86 0-22.1-.85-29.41-9.35a19.91 19.91 0 0 1-4.76-13.6c0-7.14 2.72-14.45 4.76-20.23 3.4-9.86 8-22.61 20.57-30.77 12.24-7.82 26.86-8 38.42-8zm-38.25 19.21c-7.65 4.93-11.56 14.28-15 24-2.55 7.14-3.74 12.58-3.74 16.32a7.23 7.23 0 0 0 1.19 4.42c2.72 3.23 12.92 4.42 25 4.42s23.29-.34 31.45-5.61c7.65-4.93 11.56-14.28 15-24 2.55-7.14 3.74-12.58 3.74-16.32a7.24 7.24 0 0 0-1.19-4.42c-2.72-3.23-12.92-4.42-25-4.42s-23.3.34-31.45 5.61zM547.78 140.25a5 5 0 0 1-.34 2.21l-11 31.45c-3.23 9.35-7 21.59-18.19 30.26-10.71 8.33-23.29 8.5-32.81 8.5H482c-3.4 0-7.31-2.55-7.31-6.8s3.91-6.8 7.31-6.8h3.4c9.69 0 17.34-.34 23.63-5.27 6.8-5.27 10.2-14.62 13.6-24.31l11-31.45a7.21 7.21 0 0 1 7-4.59 7 7 0 0 1 7.15 6.8zM181.22 301.55h-42.5c-8 0-13.77.51-18.53 4.25-5.44 4.42-8.5 12.58-11.39 20.74-1.7 5.1-1.87 8.5-1.7 9 1 .85 7.14 1.7 14.28 1.7h39.27c4.25 0 9.86.51 13.94 4.42a10.72 10.72 0 0 1 3.57 8.33 21.85 21.85 0 0 1-1.87 8c-2.72 7.82-5.78 17.34-12.41 24.14-6.29 6.63-14.79 7.82-20.57 7.82H81.43a6.81 6.81 0 1 1 0-13.6h61.88c3.91 0 7.48-.85 9.69-3.23 3.57-3.74 6.8-11.73 9.52-19.55a6.39 6.39 0 0 0 .85-2.38 50.79 50.79 0 0 0-6.29-.34h-35.7c-1.7 0-3.57.17-5.78.17-6.12 0-13.77-.85-19.21-6.29a14.19 14.19 0 0 1-4.08-10.37c0-4.59 1.7-9 2.89-12.24 2.72-8 5.95-18.87 15.64-26.69 9-7.31 19.89-7.48 27.88-7.48h42.5c3.4 0 7.31 2.55 7.31 6.8s-3.91 6.8-7.31 6.8zM205.07 310.73a7.4 7.4 0 0 1 7.14 5.61l10.37 54.06 51.17-57.12a7.1 7.1 0 0 1 5.27-2.55c3.91 0 7.65 3.23 7.65 7a6.77 6.77 0 0 1-1.87 4.25l-61 68.17a7.49 7.49 0 0 1-5.27 2.55 7.26 7.26 0 0 1-7.31-5.61l-13.26-68.34v-1a6.91 6.91 0 0 1 7.11-7.02zM350.72 389.95h-60.86a7 7 0 0 1-7.14-6.8c0-2.21.34-2.21.34-2.21l22.1-62.9c1.19-3.4 4.76-4.59 6.8-4.59h60.86a6.81 6.81 0 1 1 0 13.6h-55.59l-6.29 17.85h40.63a6.81 6.81 0 1 1 0 13.6h-45.39l-6.29 17.85h50.83c3.4 0 7.31 2.55 7.31 6.8s-3.91 6.8-7.31 6.8zm-15.13-113.22a7.41 7.41 0 0 1 5.78 2.55l9.52 11.39 19.72-12.75a7.51 7.51 0 0 1 4.08-1.19 7.08 7.08 0 0 1 7.31 7 6.34 6.34 0 0 1-3.23 5.44l-25.16 16.32a8.32 8.32 0 0 1-4.25 1.19 6.87 6.87 0 0 1-5.44-2.55L330 287.78a6.21 6.21 0 0 1-1.53-4.25 7.24 7.24 0 0 1 7.12-6.8zM408.11 385.87a5 5 0 0 1 .34-2.21L428.34 327H400.8c-3.23 0-7.14-2.55-7.14-6.8s3.91-6.8 7.14-6.8h75.14a6.81 6.81 0 1 1 0 13.6h-32.47l-21.25 60.86a7.37 7.37 0 0 1-7 4.76 7 7 0 0 1-7.11-6.75zM545.5 389.95h-60.86a7 7 0 0 1-7.14-6.8c0-2.21.34-2.21.34-2.21l22.1-62.9c1.19-3.4 4.76-4.59 6.8-4.59h60.86a6.81 6.81 0 1 1 0 13.6H512l-6.29 17.85h40.63a6.81 6.81 0 1 1 0 13.6H501l-6.29 17.85h50.79c3.4 0 7.31 2.55 7.31 6.8s-3.91 6.8-7.31 6.8zM574.19 384c0-4.08 3.06-10.37 11.05-10.37 4.25 0 9.18 3.4 9.18 8.5a10.63 10.63 0 0 1-11 10.54c-4.29 0-9.23-3.57-9.23-8.67zm12.92-29.24a8.54 8.54 0 0 1 .34-2L609.38 290a7.38 7.38 0 0 1 7-4.76 7 7 0 0 1 7.14 6.8 5.23 5.23 0 0 1-.51 2.21L601.05 357a7.39 7.39 0 0 1-6.8 4.59 6.89 6.89 0 0 1-7.14-6.83z"/></g></svg>