<svg xmlns="http://www.w3.org/2000/svg" viewBox="0 0 700 500"><path fill="#f2f2f2" d="M0 0h700v500H0z" data-name="Ebene 1"/><g data-name="Ebene 2"><path d="M148.64 211.3v-92.7c0-.75 3.45-1.5 7.5-1.5s7.5.75 7.5 1.5v49.35h52.5V118.6c0-.75 3.45-1.5 7.5-1.5s7.5.75 7.5 1.5v92.7c0 .75-3.45 1.5-7.5 1.5s-7.5-.75-7.5-1.5v-40.35h-52.5v40.35c0 .75-3.45 1.5-7.5 1.5s-7.5-.8-7.5-1.5zM245.77 211.3v-35.1c0-9.9 0-21 5.85-28.2 5.55-6.75 17.7-8.4 30.45-8.4s24.75 1.65 30.3 8.4c5.85 7.2 5.85 18.3 5.85 28.2v35.1c0 .75-3.45 1.5-7.5 1.5s-7.5-.75-7.5-1.5v-33.6h-42.46v33.6c0 .75-3.45 1.5-7.5 1.5s-7.49-.8-7.49-1.5zm57.45-36.6c0-9.45-.45-19.8-5.7-26.25-4.5-5.55-9.75-5.85-13.8-5.85h-3.3c-4 0-9.45.3-13.95 5.85-5.25 6.45-5.7 16.8-5.7 26.25zM388.25 209.95h-48.6c-4 0-7.5-.75-7.5-1.5V144c0-.75 3.45-1.5 7.5-1.5s7.5.75 7.5 1.5v63h41.1c4 0 7.5.75 7.5 1.5s-3.45 1.45-7.5 1.45zM459.87 209.95h-48.6c-4 0-7.5-.75-7.5-1.5V144c0-.75 3.45-1.5 7.5-1.5s7.5.75 7.5 1.5v63h41.1c4 0 7.5.75 7.5 1.5s-3.45 1.45-7.5 1.45zM467.51 175c0-9.9.15-20.25 7.35-27.15 7.8-7.5 23.7-8.25 36.6-8.25s28.65.75 36.45 8.25c7.5 7.2 7.5 18.15 7.5 28.35s0 21.15-7.5 28.35c-7.8 7.5-23.55 8.25-36.45 8.25s-28.8-.75-36.6-8.25c-7.2-6.9-7.35-17.25-7.35-27.15zm39.6-32.4c-6.3 0-12 .45-17.55 5.85-7 6.75-7 17.7-7 27.75s0 21 7 27.75c5.55 5.4 11.25 5.85 17.55 5.85h8.7c6.3 0 11.85-.45 17.4-5.85 7-6.75 7.2-17.7 7.2-27.75s-.15-21-7.2-27.75c-5.55-5.4-11.1-5.85-17.4-5.85zM99.45 298.6l28.95 73.5 29.1-73.5c.3-.75 4-1.35 8.1-1.35s7.2.75 6.9 1.5l-36.6 92.55c-.3.9-3.45 1.35-6.75 1.35-3.75 0-7.8-.6-8.1-1.35l-36.6-92.55c-.3-.75 2.85-1.5 6.9-1.5s7.8.6 8.1 1.35zM237.65 389.95H183.5c-4 0-7.5-.75-7.5-1.5V324c0-.75 3.45-1.5 7.5-1.5h54.15c4 0 7.5.75 7.5 1.5s-3.45 1.5-7.5 1.5H191v29.2h37.65c4 0 7.5.75 7.5 1.5s-3.45 1.5-7.5 1.5H191v29.25h46.65c4 0 7.5.75 7.5 1.5s-3.45 1.5-7.5 1.5zM319.59 392.65c-3.6 0-6.75-.6-7.35-1.2l-23.4-33.75h-17.7v33.6c0 .75-3.45 1.5-7.5 1.5s-7.5-.75-7.5-1.5V324c0-.75 3.45-1.5 7.5-1.5h31.8c7.8 0 20.7.45 26.55 4.35 4.65 3 5.25 8.4 5.25 13.35s-.6 10.2-5.25 13.2c-4 2.7-11.4 3.75-18.15 4.2l23.25 33.4.15.15c0 .85-4.05 1.5-7.65 1.5zm-20.24-37.95c3.15 0 5.4-.15 8.25-2.1 3.45-2.25 4.65-7.5 4.65-12.45s-1.2-10.35-4.65-12.6c-2.85-2-5.1-2.1-8.25-2.1h-28.2v29.25zM337.37 324c0-.75 3.45-1.5 7.5-1.5h21.45c12.6 0 29.4.6 37.5 7.65 7.5 6.45 7.65 16.65 7.65 26.1s-.15 19.65-7.65 26.1c-8.1 7-24.9 7.65-37.5 7.65h-21.45c-4 0-7.5-.75-7.5-1.5zm33.3 63c6.75 0 12.75-.45 18.45-5.25 6.75-5.85 7.35-16 7.35-25.5s-.6-19.65-7.35-25.5c-5.7-4.8-11.7-5.25-18.45-5.25h-18.3V387zM482.57 389.95h-54.15c-4 0-7.5-.75-7.5-1.5V324c0-.75 3.45-1.5 7.5-1.5h54.15c4 0 7.5.75 7.5 1.5s-3.45 1.5-7.5 1.5h-46.65v29.2h37.65c4 0 7.5.75 7.5 1.5s-3.45 1.5-7.5 1.5h-37.65v29.25h46.65c4 0 7.5.75 7.5 1.5s-3.45 1.5-7.5 1.5zM501.06 391.3v-70.2c0-.75 3.45-1.5 7.5-1.5 3.75 0 6.9.75 7.5 1.35l42.45 45.3V321.1c0-.75 3.45-1.5 7.5-1.5s7.5.75 7.5 1.5v70.2c0 .75-3.45 1.5-7.5 1.5s-7.5-.75-7.5-1.5v-8.85l-42.45-45.15v54c0 .75-3.45 1.5-7.5 1.5s-7.5-.8-7.5-1.5zM585.41 390.55c0-1 3.15-1.95 9.3-1.95s9.3.9 9.3 1.95-3.15 2.1-9.3 2.1-9.3-1.05-9.3-2.1zm1.8-27.15v-64.8c0-.75 3.45-1.5 7.5-1.5s7.5.75 7.5 1.5v64.8c0 .75-3.45 1.5-7.5 1.5s-7.5-.75-7.5-1.5z"/></g></svg>