<svg xmlns="http://www.w3.org/2000/svg" viewBox="0 0 700 500"><path fill="#f2f2f2" d="M0 0h700v500H0z" data-name="Ebene 1"/><g data-name="Ebene 2"><path d="M218.72 116.35h-45c-8.46 0-14.58.54-19.62 4.5-5.76 4.68-9 13.32-12.06 22-1.8 5.4-2 9-1.8 9.54 1.08.9 7.56 1.8 15.12 1.8h41.58c4.5 0 10.44.54 14.76 4.68a11.35 11.35 0 0 1 3.78 8.82 23.14 23.14 0 0 1-2 8.46c-2.88 8.28-6.12 18.36-13.14 25.56-6.66 7-15.66 8.28-21.78 8.28h-65.49a7.21 7.21 0 1 1 0-14.4h65.52c4.14 0 7.92-.9 10.26-3.42 3.78-4 7.2-12.42 10.08-20.7a6.75 6.75 0 0 0 .9-2.52 53.58 53.58 0 0 0-6.66-.36h-37.8c-1.8 0-3.78.18-6.12.18-6.48 0-14.58-.9-20.34-6.66a15 15 0 0 1-4.32-11c0-4.86 1.8-9.54 3.06-13 2.88-8.46 6.3-20 16.56-28.26 9.54-7.74 21.06-7.92 29.52-7.92h45c3.6 0 7.74 2.7 7.74 7.2s-4.15 7.22-7.75 7.22zM313.91 171.79l-12.6 36a7.81 7.81 0 0 1-7.38 5 7.42 7.42 0 0 1-7.56-7.2 5.32 5.32 0 0 1 .36-2.34l9.36-26.64h-52.74l-11 31.14a8 8 0 0 1-7.2 5 7.44 7.44 0 0 1-7.56-7.38 9 9 0 0 1 .36-2.16l12.6-36.18c3.6-10.44 8.1-23.4 19.44-32.22 11.16-8.46 23.4-8.82 32.58-8.82h6.12c9.18 0 21.78.72 27.9 11a22.13 22.13 0 0 1 3.06 11.88c.02 8.13-3.22 16.8-5.74 22.92zm-13-9.54c1.8-5.94 3.06-11 3.06-14.4a7.44 7.44 0 0 0-.72-3.78c-1.44-2.34-6.84-3.6-18.36-3.6-9.9 0-18 .18-25.2 5.58-4.86 3.78-8.28 9.54-11.16 16.2zM362.53 136.15a5.54 5.54 0 0 1-.54 2.34l-20 57.06h49c3.6 0 7.74 2.7 7.74 7.2s-4.14 7.2-7.74 7.2h-59.6a7.36 7.36 0 0 1-7.56-7.2c0-2.34.36-2.34.36-2.34l23.4-66.6A7.64 7.64 0 0 1 355 129a7.42 7.42 0 0 1 7.53 7.15zM441.35 133.45a9.05 9.05 0 0 1-.36 2.16l-12.6 36.18c-2.88 8.28-4.68 14.94-4.68 19.26a7.45 7.45 0 0 0 .72 3.78c1.44 2.52 7.56 3.6 18.36 3.6 10.44 0 18.36-.36 25.2-5.58 7.38-5.58 11-15.48 14.58-25.74l12.78-36a7.81 7.81 0 0 1 7.38-5 7.42 7.42 0 0 1 7.56 7.2 5.54 5.54 0 0 1-.54 2.34l-12.6 36.18c-3.42 9.9-7.56 23-19.44 32.22-11.52 8.82-24.84 8.82-34.92 8.82h-5.22c-8.64 0-20.52-.9-26.46-11a23.22 23.22 0 0 1-3.06-11.7c0-8.1 3.42-16.38 5.76-23l12.6-36a8 8 0 0 1 7.2-5 7.6 7.6 0 0 1 7.74 7.28zM532.39 205.63a5.32 5.32 0 0 1 .36-2.34l21.06-59.94h-29.16c-3.42 0-7.56-2.7-7.56-7.2s4.14-7.2 7.56-7.2h79.56a7.21 7.21 0 1 1 0 14.4h-34.38l-22.5 64.44a7.81 7.81 0 0 1-7.38 5 7.42 7.42 0 0 1-7.56-7.16zM174.34 289.15a5.32 5.32 0 0 1-.36 2.34l-29.52 84.06h58.68c3.6 0 7.74 2.7 7.74 7.2s-4.14 7.2-7.74 7.2h-69.3a7.36 7.36 0 0 1-7.56-7.2c0-2.34.36-2.34.36-2.34l32.76-93.6a7.64 7.64 0 0 1 7.38-4.86 7.42 7.42 0 0 1 7.56 7.2zM252.94 313.45a9.05 9.05 0 0 1-.36 2.16L240 351.79c-2.88 8.28-4.68 14.94-4.68 19.26a7.45 7.45 0 0 0 .72 3.78c1.44 2.52 7.56 3.6 18.36 3.6 10.44 0 18.36-.36 25.2-5.58 7.38-5.58 11-15.48 14.58-25.74l12.78-36a7.81 7.81 0 0 1 7.38-5 7.42 7.42 0 0 1 7.56 7.2 5.54 5.54 0 0 1-.54 2.34l-12.6 36.18c-3.42 9.9-7.56 23-19.44 32.22-11.52 8.82-24.84 8.82-34.92 8.82h-5.22c-8.64 0-20.52-.9-26.46-11a23.22 23.22 0 0 1-3.06-11.7c0-8.1 3.42-16.38 5.76-23l12.6-36a8 8 0 0 1 7.2-5 7.6 7.6 0 0 1 7.72 7.28zM318.28 385.45a9 9 0 0 1 .36-2.16l25.2-72.18a7.47 7.47 0 0 1 7.38-5c4.32 0 6.66 3.78 7 4.86L378 362l58.5-53.82a7.78 7.78 0 0 1 5-2.16c4.5 0 7.92 3.6 7.92 7.2a8 8 0 0 1-.36 2.34l-25.38 72.18a7.81 7.81 0 0 1-7.38 5 7.42 7.42 0 0 1-7.56-7.2 5.54 5.54 0 0 1 .54-2.34l15.48-44.1L380.2 380s-.54.9-2.7 1.62a10.64 10.64 0 0 1-2.5.38 7.3 7.3 0 0 1-7.2-4.68l-16.4-42.09-18.4 52.56a8 8 0 0 1-7.2 5 7.44 7.44 0 0 1-7.52-7.34zM519.21 389.95h-64.43a7.36 7.36 0 0 1-7.56-7.2c0-2.34.36-2.34.36-2.34l23.4-66.6c1.26-3.6 5-4.86 7.2-4.86h64.44a7.21 7.21 0 1 1 0 14.4h-58.86l-6.66 18.9h43a7.21 7.21 0 1 1 0 14.4h-48.04l-6.66 18.9h53.82c3.6 0 7.74 2.7 7.74 7.2s-4.15 7.2-7.75 7.2zM540.6 383.65c0-4.32 3.24-11 11.7-11 4.5 0 9.72 3.6 9.72 9a11.26 11.26 0 0 1-11.7 11.16c-4.5.02-9.72-3.81-9.72-9.16zm13.68-31a9 9 0 0 1 .36-2.16l23.22-66.42a7.81 7.81 0 0 1 7.38-5 7.42 7.42 0 0 1 7.56 7.2 5.54 5.54 0 0 1-.54 2.34L569 355a7.82 7.82 0 0 1-7.2 4.86 7.3 7.3 0 0 1-7.52-7.17z"/></g></svg>