<svg xmlns="http://www.w3.org/2000/svg" viewBox="0 0 700 500"><path fill="#f2f2f2" d="M0 0h700v500H0z" data-name="Ebene 1"/><g data-name="Ebene 2"><path d="M106.34 209.44v-101a.88.88 0 0 1 .85-.85c.17 0 1 .17 1 .85v54.76h74.63v-54.74a.88.88 0 0 1 .85-.85c.17 0 1 .17 1 .85v101c0 .68-.85.85-1 .85a.88.88 0 0 1-.85-.85V164.9h-74.61v44.54a.94.94 0 0 1-1 .85.76.76 0 0 1-.87-.85zM223.69 209.44V171.7c0-10.88 0-22.95 6.63-30.6s17.68-8 26.86-8c9.86 0 20.4.68 26.69 8 6.46 7.48 6.8 18.7 6.8 28.73l-.17 1.87v37.74a.88.88 0 0 1-.85.85c-.17 0-1-.17-1-.85v-36.89h-63.09v36.89a.94.94 0 0 1-1 .85.76.76 0 0 1-.87-.85zm64.94-38.59c0-10.2 0-21.76-6.29-28.9-5.78-6.63-15.3-7.31-25.16-7.31-9.18 0-19.38.34-25.33 7.31s-6.29 18.19-6.29 28.9zM391.9 209.95h-62.56a.79.79 0 0 1-.85-.85v-74.8a.88.88 0 0 1 .85-.85c.17 0 1 .17 1 .85v73.95h61.56a.85.85 0 1 1 0 1.7zM484.18 209.95h-62.56a.79.79 0 0 1-.85-.85v-74.8a.88.88 0 0 1 .85-.85c.17 0 1 .17 1 .85v73.95h61.54a.85.85 0 1 1 0 1.7zM546.84 133.11c11 0 23.63.17 32 7.82 8.33 7.48 8.5 19.55 8.5 30.77 0 10.71 0 23-8.5 30.77-8.5 7.65-21.59 7.82-33.66 7.82h-1.7c-11 0-23.8-.17-32.13-7.82-8.33-7.48-8.5-19.55-8.5-30.77 0-10.71 0-22.95 8.5-30.77 8.5-7.65 21.76-7.82 33.83-7.82zm-34.17 8.84c-7.82 7.14-8 19-8 29.75 0 11.39.34 22.78 8 29.75 8 7.31 20.4 7.31 31.79 7.31h.68c12.24 0 24.48-.17 32.3-7.31s8-19 8-29.75c0-11.39-.34-22.78-8-29.75-8-7.31-20.4-7.31-31.79-7.31h-.51c-12.24 0-24.65.17-32.47 7.31zM120.75 287.78a.93.93 0 0 1 .85.51l33.49 98.26 30.09-88.23a1 1 0 0 1 1.87.17L217 386.55l33.49-98.26a1.06 1.06 0 0 1 1-.68.79.79 0 0 1 .85 1l-34.34 101a1.15 1.15 0 0 1-1 .68 1.13 1.13 0 0 1-.85-.68L186 301.38l-30.09 88.23a1.15 1.15 0 0 1-1 .68 1.13 1.13 0 0 1-.85-.68l-34.34-101c-.16-.49.52-.83 1.03-.83zM340.64 389.95H282a.79.79 0 0 1-.85-.85v-74.8a.91.91 0 0 1 .85-.85h58.65a.85.85 0 1 1 0 1.7H283v35.7h47.43a.85.85 0 1 1 0 1.7H283v35.7h57.63a.85.85 0 1 1 0 1.7zM440.87 389.95h-62.56a.79.79 0 0 1-.85-.85v-74.8a.88.88 0 0 1 .85-.85c.17 0 1 .17 1 .85v73.95h61.54a.85.85 0 1 1 0 1.7zM438.37 313.45h87.38c1 0 1 .68 1 .85s0 .85-1 .85h-42.67v74.29c0 .68-.85.85-1 .85a.88.88 0 0 1-.85-.85v-74.29h-42.86c-.17 0-1 0-1-.85s.83-.85 1-.85zM554.7 388.59c0-.34.34-.68 1.36-.68.34 0 1.53 1 1.53 1.7 0 .34-.51.68-1.53.68a2.39 2.39 0 0 1-1.36-1.7zm.51-27.88v-72.25a.88.88 0 0 1 .85-.85c.17 0 1 .17 1 .85v72.25a.94.94 0 0 1-1 .85.76.76 0 0 1-.85-.85z"/></g></svg>