<svg xmlns="http://www.w3.org/2000/svg" viewBox="0 0 700 500"><path fill="#f2f2f2" d="M0 0h700v500H0z" data-name="Ebene 1"/><g data-name="Ebene 2"><path d="M221.37 206.89V111c0-3.23 3.06-5.1 5.44-5.1s5.44 1.87 5.44 5.1v47.94h65.62V111c0-3.23 3.06-5.1 5.44-5.1s5.44 1.87 5.44 5.1v95.88c0 3.23-3.06 5.1-5.44 5.1s-5.44-1.87-5.44-5.1v-37.73h-65.62v37.74a5.45 5.45 0 0 1-10.88 0zM397.4 209.95h-60.35a5.26 5.26 0 0 1-5.44-5.1v-66.3c0-3.57 3.4-5.1 5.44-5.1h60.35a5.11 5.11 0 1 1 0 10.2h-54.91v22.95h44.71a5.11 5.11 0 1 1 0 10.2h-44.71v22.95h54.91c2.38 0 5.44 1.87 5.44 5.1s-3.06 5.1-5.44 5.1zM420.59 201.79h3.57c10.54 0 18.36-.51 23-5.27 4.93-5.27 5.44-14.79 5.44-24.82v-33.15c0-3.23 3.06-5.1 5.44-5.1s5.44 1.87 5.44 5.1v37.06c0 8.84-.51 19.55-8.16 27.54-8.16 8.5-20.23 8.84-29.92 8.84h-4.76c-2.38 0-5.44-1.87-5.44-5.1s3.01-5.1 5.39-5.1zM54.23 285.91a5.63 5.63 0 0 1 4.93 3.23l35.19 83.81 35.36-83.81a5.2 5.2 0 0 1 4.76-3.23c2.89 0 5.78 2 5.78 4.93a4.53 4.53 0 0 1-.51 2l-40.29 95.92a5.59 5.59 0 0 1-4.93 3.06 5.21 5.21 0 0 1-5.1-3.06l-40.29-95.88a6.11 6.11 0 0 1-.34-1.87 5.3 5.3 0 0 1 5.44-5.1zM216.29 389.95h-60.35a5.26 5.26 0 0 1-5.44-5.1v-66.3c0-3.57 3.4-5.1 5.44-5.1h60.35a5.11 5.11 0 1 1 0 10.2h-54.91v22.95h44.71a5.11 5.11 0 1 1 0 10.2h-44.71v22.95h54.91c2.38 0 5.44 1.87 5.44 5.1s-3.06 5.1-5.44 5.1zM251 386.89a5.45 5.45 0 0 1-10.88 0v-68.34c0-3.57 3.4-5.1 5.44-5.1h38.93c7.65 0 16.32.17 23.12 4.08 7.48 4.25 8.33 12.41 8.33 17.68 0 6.12-1.53 13.6-8.33 17.51-4.59 2.72-10 3.57-15.13 3.91l22.52 27.2a4.67 4.67 0 0 1 1.19 3.06c0 2.72-2.72 5.1-5.61 5.1a5.12 5.12 0 0 1-4.25-2l-27.41-33.19H251zM302 344c1.7-1 3.06-3.74 3.06-8.84 0-4.59-1.19-8-3.06-9-3.57-2-11.9-2.55-20.4-2.55H251v22.99h30.6c7.69 0 16.53-.34 20.4-2.6zM333 318.55c0-3.57 3.4-5.1 5.44-5.1h26.86c11.56 0 25.5.34 35.19 7.82 10.37 8 10.37 21.08 10.37 30.43 0 10.2-.51 22.78-10.37 30.43-9.52 7.31-22.44 7.82-33.15 7.82h-28.9a5.26 5.26 0 0 1-5.44-5.1zm29.75 61.2c11.9 0 24.14-.34 30.6-5.44 5.27-4.08 6.63-12.24 6.63-22.61 0-9.69-1.19-18.36-6.63-22.61-6.29-4.93-18-5.44-30.6-5.44H343.9v56.1zM493.25 389.95H432.9a5.26 5.26 0 0 1-5.44-5.1v-66.3c0-3.57 3.4-5.1 5.44-5.1h60.35a5.11 5.11 0 1 1 0 10.2h-54.91v22.95H483a5.11 5.11 0 1 1 0 10.2h-44.66v22.95h54.91c2.38 0 5.44 1.87 5.44 5.1s-3.06 5.1-5.44 5.1zM517.11 386.89v-70.38c0-3.57 3.4-5.1 5.44-5.1a5.56 5.56 0 0 1 3.91 1.53l55.76 51.68v-48.11c0-3.23 3.06-5.1 5.44-5.1s5.44 1.87 5.44 5.1v59.33c0 .34.17.68.17 1s-.17.51-.17.85v9.18a5.45 5.45 0 0 1-10.88 0v-8L528 328.75v58.14a5.45 5.45 0 0 1-10.88 0zM613.4 384.85a7.23 7.23 0 0 1 7.48-7.14 7.53 7.53 0 0 1 7.65 7.14 7.58 7.58 0 0 1-15.13 0zm2-28.39V291c0-3.23 3.06-5.1 5.44-5.1s5.44 1.87 5.44 5.1v65.45a5.45 5.45 0 0 1-10.88 0z"/></g></svg>