<svg xmlns="http://www.w3.org/2000/svg" viewBox="0 0 700 500"><path fill="#f2f2f2" d="M0 0h700v500H0z" data-name="Ebene 1"/><g data-name="Ebene 2"><path d="M294.48 182.75c0 8.84-4.08 18.36-13.77 22.61-9.35 4.08-20.74 4.59-30.6 4.59h-38.59a8.7 8.7 0 0 1-8.84-8.5v-85c0-6.12 5.61-8.5 8.84-8.5h29.92c9.69 0 21.25.34 30.43 6.12 10.88 6.8 11.56 18.87 11.56 26.18 0 5.78-.68 13.43-4.76 19.55a24.25 24.25 0 0 1 15.81 22.95zM262 152.15c1.7-1 3.57-4.76 3.57-11.9 0-6.63-1.7-10.71-3.57-11.9-4.08-2.55-14.28-3.4-25.33-3.4h-16.14v30.6h16.15c10.32 0 21.08-.68 25.32-3.4zm-41.48 20.4v20.4H243c11.22 0 24.65-.34 30.26-2.89 1.19-.51 3.4-2.89 3.4-7.31 0-3.57-2-6.29-4.25-7.14-5.78-2.21-17.51-2.89-29.24-3.06zM358.17 130c10.2 0 23 .68 32.81 8.67 11.22 9 11.39 23 11.39 33v1.36c0 9.18-.17 22.61-11.39 31.62-10.2 8.16-23.8 8.5-34.68 8.5h-4.08c-1.87 0-3.91.17-6 .17-10.2 0-23-.68-32.81-8.67-11.22-9-11.56-23-11.56-33v-1.36c0-9.18.34-22.61 11.56-31.62 10.2-8.16 23.63-8.5 34.51-8.5h4.25c1.93.05 3.97-.17 6-.17zm-33.32 21.76c-3.74 3.06-5.1 10.2-5.1 19.89 0 10.37 1.53 17 5.1 19.89 4.93 3.91 15.64 4.59 27.37 4.59 12.41 0 22.44-.85 27.2-4.59 3.74-3.06 5.1-10.2 5.1-19.89 0-10.37-1.53-17-5.1-19.89-4.93-3.91-15.47-4.59-27.2-4.59-12.4.05-22.6.9-27.36 4.64zM482 213.18a8.79 8.79 0 0 1-6.63-2.89l-31.79-35-12.58 8.65v20.74a8.86 8.86 0 0 1-9 8.5 8.7 8.7 0 0 1-8.84-8.5v-66c0-5.27 4.59-8.5 8.84-8.5s9 3.23 9 8.5V163l45.9-31.28a9.85 9.85 0 0 1 5.1-1.53c4.76 0 9 3.4 9 8.5a8.07 8.07 0 0 1-3.74 6.8l-29.07 19.89 30.6 33.83a8 8 0 0 1 2.21 5.44 8.75 8.75 0 0 1-9 8.53zM125.38 304.95h-42.5c-8.5 0-12.58.85-14.45 2.89-2.21 2.55-3.06 8.84-3.06 17.17 0 6 1.36 8.16 1.87 8.5 1.87 1.36 8.33 2 15.64 2h38.59c4.42 0 10.2.34 15.3 3.91 6.63 4.59 7.14 11 7.14 14.62v5.27c0 6.63-.34 14.62-4.59 21.25-5.61 8.84-15.64 9.35-20.91 9.35H56.53a8.51 8.51 0 1 1 0-17h61.87c4.25 0 5.61-1 5.61-1 1.19-2 2-8.84 2-16.66a9.7 9.7 0 0 0-.17-2.21 35.45 35.45 0 0 0-7.48-.51H77.61c-6.29 0-14.28-.68-21.25-5.61-8.5-6.12-8.84-15.81-8.84-21.93v-4.76c0-7.14.68-16.15 7.48-23.63 7.65-8.33 18.87-8.67 26.35-8.67h44c4.25 0 8.84 3.23 8.84 8.5s-4.56 8.52-8.81 8.52zM150.84 310.22a9.15 9.15 0 0 1 7.82 4.42L188.58 367l29.92-52.36A8.4 8.4 0 0 1 226 310c4.76 0 9.35 3.74 9.35 8.5a7.51 7.51 0 0 1-1.19 4.08l-37.76 66.18a7.56 7.56 0 0 1-3.57 3.4 9.78 9.78 0 0 1-4.25 1 8.89 8.89 0 0 1-7.82-4.42L143 322.63a7.89 7.89 0 0 1-1-3.91 8.82 8.82 0 0 1 8.84-8.5zM243.67 384.68v-66c0-5.27 4.76-8.5 9-8.5s8.84 3.23 8.84 8.5v66a8.7 8.7 0 0 1-8.84 8.5 8.86 8.86 0 0 1-9-8.5zM279.44 376.18H283c9.69 0 15.13-.68 17.68-3.57 3.06-3.4 3.74-11.39 3.74-20.91v-29.75c0-5.27 4.76-8.5 9-8.5s8.84 3.23 8.84 8.5v29.75c0 1.53.17 3.23.17 5.1 0 8.16-.68 18.7-8.33 27-8.5 9.18-20.91 9.35-29.58 9.35h-5.1c-4.25 0-8.84-3.23-8.84-8.5s4.61-8.47 8.86-8.47zM408.25 389.95h-61.54a8.63 8.63 0 0 1-8.84-8.5v-59.5c0-6.12 5.61-8.5 8.84-8.5h61.54a8.51 8.51 0 1 1 0 17h-52.53v12.75H398a8.51 8.51 0 1 1 0 17h-42.28v12.75h52.53c4.25 0 8.84 3.23 8.84 8.5s-4.59 8.5-8.84 8.5zM433.05 313.45h71.74a8.51 8.51 0 1 1 0 17h-26.86v54.23c0 5.27-4.76 8.5-9 8.5s-8.84-3.23-8.84-8.5v-54.23h-27c-4.25 0-8.84-3.23-8.84-8.5s4.55-8.5 8.8-8.5zM592.58 389.95H531a8.63 8.63 0 0 1-8.84-8.5v-59.5c0-6.12 5.61-8.5 8.84-8.5h61.54a8.51 8.51 0 1 1 0 17H540v12.75h42.33a8.51 8.51 0 1 1 0 17H540v12.75h52.53c4.25 0 8.84 3.23 8.84 8.5s-4.54 8.5-8.79 8.5zM612.12 381.28c0-4.25 3.23-11.9 12.24-11.9a12.41 12.41 0 0 1 12.41 12.07 12.34 12.34 0 0 1-24.65-.17zm3.4-28.22v-59.84c0-5.27 4.59-8.5 8.84-8.5s9 3.23 9 8.5v59.84a8.86 8.86 0 0 1-9 8.5 8.7 8.7 0 0 1-8.84-8.5z"/></g></svg>