<svg xmlns="http://www.w3.org/2000/svg" viewBox="0 0 700 500"><path fill="#f2f2f2" d="M0 0h700v500H0z" data-name="Ebene 1"/><g data-name="Ebene 2"><path d="M90.7 211.07l-34.87-87.36c-.14-.28.84-.42 2.24-.42a42.49 42.49 0 0 1 4.34.28c5 .42 7 1.12 7.14 1.26L124.29 188l4.34-64.26c0-.28 1-.42 2.24-.42s3.36.14 4.76.28c5 .42 6.72 1.12 6.86 1.26l34.86 87.36c.14.28-.84.42-2.38.42-2.94 0-11.2-.7-11.48-1.54l-23-57.54-3.22 49.42c0 .28-.84.28-2 .28-3.78 0-11.62-1-11.9-1.4l-42.75-49.45 23.94 59.78c.14.14-.7.42-2.38.42-3.18 0-11.35-.98-11.48-1.54zM196.27 208.41l-21.7-54c-.14-.28 1.12-.42 2.38-.42h45.22a60.77 60.77 0 0 1 9.8 1c2.1.42 2.52.84-.7.84h-42.7L198.65 181h25.9a60.78 60.78 0 0 1 9.8 1c2.1.42 2.52 1-.7 1h-34.3l10.22 25.2h34.3c1.12 0 11.34.42 11.34 1.54 0 .28-1 .28-2.38.28h-45.08a37.62 37.62 0 0 1-11.48-1.61zM279.34 212.19c.14.14-.7.42-2.38.42-3.22 0-11.34-1-11.48-1.54l-22.68-56.7c-.14-.28 1.12-.42 2.38-.42h26.32c6.86 0 24.64 0 29.68 2.66 2.94 1.54 5.18 7.84 7 12.32 1.4 3.5 3.36 8.26 3.36 10.78a2.24 2.24 0 0 1-.56 1.54c-1.54 1.4-10.5 1.68-16.8 1.68l31.22 29.26c.28.28-.84.42-2.38.42-3.22 0-10.5-.84-11.34-1.54l-30.1-28.14h-14zm3.08-31.19c6 0 13.72.14 14.84-1 .28-.28.28-.7.28-1.26 0-2.38-1.82-7.28-3.22-10.92-1.68-4.34-4.34-10.5-6.58-11.9-1.82 0-4.62-.14-7.14-.14h-23.8L266.88 181zM340.61 211.07l-23.66-59.36c-.14-.28.84-.42 2.38-.42 2.94 0 11.2.7 11.48 1.54L342 181h34.3l-11.76-29.26c-.14-.28.84-.42 2.38-.42 2.94 0 11.2.7 11.48 1.54l23.66 59.36c.14.28-.84.42-2.38.42-2.94 0-11.2-.7-11.48-1.54L377 182.93h-34.3l11.76 29.26c.14.14-.7.42-2.38.42-3.21 0-11.33-.98-11.47-1.54zM420.63 211.07l-11.76-29.68c-3.36-8.4-8.54-21.14-8.54-25.62a2.74 2.74 0 0 1 .14-1.12c1.26-3.22 14.56-3.36 22.68-3.36 3.92 0 14.7.28 20.72 1 8.68 1 11.76 2.24 13.3 3.5 3.78 3.08 9.38 17.5 13 26.74l11.9 29.68c.14.28-.84.42-2.38.42-2.94 0-11.2-.7-11.48-1.54L457 182.93h-34.3l11.76 29.26c.14.14-.7.42-2.38.42-3.19 0-11.31-.98-11.45-1.54zm35.7-30.1c-3.64-9.24-9.52-23.38-12.88-26.18-2.94-2.38-5.46-1.54-11.62-1.54-2.38 0-16.52.14-17.5 2.66a2.07 2.07 0 0 0-.14 1c0 4.06 4.48 15.68 7.84 24.08zM537 181.95a56.29 56.29 0 0 1 9.1 1.68c4.62 1.68 6.3 7.7 8.26 12.46 1.4 3.36 3.08 7.42 3.08 10.08 0 1-.14 1.82-.84 2.24-2.38 1.54-15.12 1.54-23.24 1.54h-22.17c-3.64 0-8.54-.42-10.92-1.26-.28-.14-.42-.14-.42-.28l-21.7-54c-.14-.28 1.12-.42 2.38-.42h15.68c6.86 0 19.46.14 27 1.26 3.64.56 5.18 1 5.88 1.4 3.5 1.68 5.6 7.7 7.42 12.32 1.4 3.5 3.22 7.84 3.22 10.36.02 1.92-.81 2.2-2.73 2.62zm-11.62-2.1a1.74 1.74 0 0 0 .56-1.54c0-2.52-1.68-7-3.08-10.5-1.68-4.34-4.34-10.5-6.86-11.9-2.52-.14-7-.14-10.64-.14h-13.21L502.23 181h4.9c7.14 0 16.8 0 18.2-1.15zm-22.4 3.08l10.22 25.2h8.68c8.12 0 19.32 0 21-1.12a2.21 2.21 0 0 0 .7-1.82c0-2.52-1.68-6.72-3.08-10.22-1.82-4.48-4.2-10.36-7.14-11.9-3.78-.14-11.62-.14-17.22-.14zM575.82 211.07l-11.76-29.68c-3.36-8.4-8.54-21.14-8.54-25.62a2.74 2.74 0 0 1 .14-1.12c1.26-3.22 14.56-3.36 22.68-3.36 3.92 0 14.7.28 20.72 1 8.68 1 11.76 2.24 13.3 3.5 3.78 3.08 9.38 17.5 13 26.74l11.9 29.68c.14.28-.84.42-2.38.42-2.94 0-11.2-.7-11.48-1.54l-11.2-28.14h-34.3l11.76 29.26c.14.14-.7.42-2.38.42-3.2-.02-11.28-1-11.46-1.56zm35.7-30.1c-3.64-9.24-9.52-23.38-12.88-26.18-2.94-2.38-5.46-1.54-11.62-1.54-2.38 0-16.52.14-17.5 2.66a2.07 2.07 0 0 0-.14 1c0 4.06 4.48 15.68 7.84 24.08zM133 388.41l-32.9-82c-.14-.28 1.12-.42 2.38-.42h24.36c4.9 0 11.2 0 18.48.56 12.74.84 20 2.66 22.68 4.62 5.18 3.92 12.46 22.54 17.22 34.58 5 12.46 12.6 31.36 12.6 37.94a5.23 5.23 0 0 1-.28 1.68c-1.82 4.62-20.16 4.62-31.78 4.62h-21.28a37.62 37.62 0 0 1-11.48-1.58zm25.62-.28c10.36 0 23.66-.14 25.2-4.06a5.26 5.26 0 0 0 .14-1.54c0-6.44-7.42-25.48-12.46-37.94-4.76-12-12.32-30.66-17.22-34.44-2.8-2.24-6.72-2.38-13.86-2.38H114.1l32.2 80.36zM264.32 387c0-4.34-5-17.22-8.4-25.62L244 331.71c-.14-.28.84-.42 2.38-.42 2.94 0 11.2.7 11.48 1.54l11.76 29.68c3.36 8.4 8.54 21 8.54 25.62a2.74 2.74 0 0 1-.14 1.12c-1.26 3.08-14.28 3.36-22.68 3.36h-3.5c-7 0-25.76-.56-30.52-4.48-3.64-3.08-9.24-17.36-13-26.74l-11.9-29.68c-.14-.14.7-.42 2.38-.42 3.22 0 11.34 1 11.48 1.54L222 362.51c3.78 9.24 9.66 23.8 13 26.6 2.8 2.38 5.6 1.54 11.34 1.54h1.12c7.48 0 16.86.42 16.86-3.65zm-55-58.94c-3.36-.7-6.16-2.8-6.16-4.34 0-1.12 1.54-2.1 5.46-2.1 5 0 11.76.7 14.84 2.8a1.53 1.53 0 0 1-.14-.7c0-1.12 1.54-2.1 5.46-2.1a65.38 65.38 0 0 1 10.64 1c3.36.7 6.16 2.8 6.16 4.34 0 1.12-1.54 2.1-5.46 2.1-5 0-11.76-.56-14.84-2.66a1.06 1.06 0 0 1 .14.56c0 1.12-1.54 2.1-5.46 2.1a65.28 65.28 0 0 1-10.66-.99zM300.11 391.07l-23.66-59.36c-.14-.28.84-.42 2.24-.42a42.5 42.5 0 0 1 4.34.28c4.76.42 6.86.84 7.14 1.12l48.72 36.12-14.89-37.1c-.14-.28.84-.42 2.38-.42 2.94 0 11.2.7 11.48 1.54l20 50v.14l3.64 9.24c.14.14-.7.42-2.38.42-3.22 0-11.34-1-11.48-1.54l-3.64-9.24-48.58-36L314 392.19c.14.14-.7.42-2.38.42-3.25 0-11.37-.98-11.51-1.54zM367.78 332.83l4.48 11.34c2.52 6.16 6 15.54 9.66 16.66 2.52.14 7.42.14 11.34.14 8 0 17.92 0 19.46-1.54a2.25 2.25 0 0 0 .42-1.54c0-3.22-2.66-9.94-4.62-14.84L404 331.71c-.14-.28.84-.42 2.38-.42 2.94 0 11.2.7 11.48 1.54l4.48 11.34c2 4.76 4.62 11.34 4.62 14.7a2.74 2.74 0 0 1-.56 2c-1.82 1.82-13.58 2.1-21.7 2.1l11.76 29.26c.14.14-.7.42-2.38.42-3.22 0-11.34-1-11.48-1.54l-11.3-28.46c-6.58-.28-14.42-.56-19.6-1.68a17.56 17.56 0 0 1-4.06-1.26c-3.64-2-6.86-10.64-9.24-16.66l-4.48-11.34c-.14-.14.7-.42 2.38-.42 3.22 0 11.34.98 11.48 1.54zM455.69 391.07l-11.76-29.68c-3.36-8.4-8.54-21.14-8.54-25.62a2.74 2.74 0 0 1 .14-1.12c1.26-3.22 14.56-3.36 22.68-3.36 3.92 0 14.7.28 20.72 1 8.68 1 11.76 2.24 13.3 3.5 3.78 3.08 9.38 17.5 13 26.74l11.9 29.68c.14.28-.84.42-2.38.42-2.94 0-11.2-.7-11.48-1.54l-11.2-28.14h-34.3l11.76 29.26c.14.14-.7.42-2.38.42-3.2-.02-11.32-1-11.46-1.56zm35.7-30.1c-3.64-9.24-9.52-23.38-12.88-26.18-2.94-2.38-5.46-1.54-11.62-1.54-2.38 0-16.52.14-17.5 2.66a2.07 2.07 0 0 0-.14 1c0 4.06 4.48 15.68 7.84 24.08zM524 360.83l-22.82-57.12c-.14-.28.84-.42 2.38-.42 2.94 0 11.2.7 11.48 1.54l22.82 57.12c.14.14-.84.28-2.52.28-3.23 0-11.21-.84-11.34-1.4zm13 30.66c-3.36-.7-6.3-2.8-6.3-4.34 0-1.12 1.68-2.1 5.6-2.1a63.51 63.51 0 0 1 10.5 1.12c3.36.7 6.16 2.8 6.16 4.34 0 1.12-1.54 2.1-5.46 2.1a63.51 63.51 0 0 1-10.5-1.12z"/></g></svg>