<svg xmlns="http://www.w3.org/2000/svg" viewBox="0 0 700 500"><path fill="#f2f2f2" d="M0 0h700v500H0z" data-name="Ebene 1"/><g data-name="Ebene 2"><path d="M148.24 116.5a9.91 9.91 0 0 1 8.85 5.7l23.4 57.6 19.95-48.75a9.49 9.49 0 0 1 17.4 0l19.95 48.75 23.4-57.6a9.41 9.41 0 0 1 8.85-5.7 9.09 9.09 0 0 1 9.3 9 8.56 8.56 0 0 1-.6 3.3l-32.25 78.9a8.69 8.69 0 0 1-5.25 5.1 11 11 0 0 1-3.45.6 9 9 0 0 1-8.7-5.7l-19.95-48.6-19.95 48.6a8.69 8.69 0 0 1-5.25 5.1 11 11 0 0 1-3.45.6 9 9 0 0 1-8.7-5.7l-32.25-78.9a8.55 8.55 0 0 1-.6-3.3 9.08 9.08 0 0 1 9.3-9zM285.05 204.4V148c0-5.4 4.8-9 9.45-9a9.18 9.18 0 0 1 9.3 9v56.4a9.18 9.18 0 0 1-9.3 9 9.32 9.32 0 0 1-9.45-9zM322.66 142.45H383a9 9 0 1 1 0 18h-20.7v43.95c0 5.4-4.8 9-9.45 9a9.18 9.18 0 0 1-9.3-9v-43.95h-20.89a9 9 0 1 1 0-18zM400.05 204.4v-31.2c0-7.8.45-18 8.4-25.8 7.8-7.65 18-8.4 25.35-8.4h7.2c7.95 0 18.6.45 26.7 8.4 7.8 7.65 8.55 17.25 8.55 24.45 0 1.65-.15 3-.15 4.35v28.2a9.18 9.18 0 0 1-9.3 9c-4.65 0-9.45-3.6-9.45-9v-19.2H418.8v19.2a9.32 9.32 0 0 1-9.45 9 9.18 9.18 0 0 1-9.3-9zm56.85-37.2c-.45-3.45-1.2-6-2.55-7.35-2.1-2.1-7-2.85-16.2-2.85-8.55 0-14.1.6-16.35 2.85-1.35 1.35-2.1 3.75-2.55 7.35zM494.61 195.4h3.15c8.1 0 11.7-.9 13.2-2.55 1.95-2.25 2.7-8.4 2.7-16.65v-24.75c0-5.4 4.8-9 9.45-9a9.18 9.18 0 0 1 9.3 9v24.75c0 1.5.15 3.15.15 5 0 7-.75 16-7.5 23.55-7.65 8.55-18.45 8.7-25.8 8.7h-4.65a9 9 0 1 1 0-18zM122.81 318h-37.5c-7.65 0-10.65.75-11.7 2-1.35 1.35-2.25 6.15-2.25 13.35a13.94 13.94 0 0 0 .9 5.7c1.2.75 6.75 1.5 13 1.5h34.5c3.9 0 9 .3 13.8 3.45 6.75 4.35 7 10.8 7 14.1v4.8c0 5.7-.3 12.6-4.35 18.6a23.67 23.67 0 0 1-3 3.3c-5.85 5.25-12.6 5.25-16.5 5.25H62.06a9 9 0 1 1 0-18h54.6a18.36 18.36 0 0 0 3.9-.45c.75-1.5 1.35-6.45 1.35-12.6v-.3a48.36 48.36 0 0 0-5.25-.15H80.21c-5.55 0-12.6-.45-19-4.95-8.1-5.7-8.55-14.85-8.55-20.25v-4.45c0-6.15.75-14.4 7.2-21.15 7-7.35 16.65-7.8 23.25-7.8h39.75a9 9 0 1 1 0 18zm-39-32.85a9.16 9.16 0 0 1 3.75-7.35l13.65-9.45a9.33 9.33 0 0 1 5.4-1.8 9.09 9.09 0 0 1 9.3 9 8.33 8.33 0 0 1-3.75 7.2l-13.65 9.45a10.06 10.06 0 0 1-5.51 1.6c-4.54 0-9.19-3.6-9.19-8.7zM150 319a9.65 9.65 0 0 1 8.4 5l21.6 40.6 16.8-31.8a9.6 9.6 0 0 1 16.8 0l16.8 31.8L252 324a9.46 9.46 0 0 1 8.4-5 9.1 9.1 0 0 1 9.3 9 8.17 8.17 0 0 1-1 4l-29.85 56.4a8.69 8.69 0 0 1-4.2 4 9.36 9.36 0 0 1-4.35.9 9.15 9.15 0 0 1-8.25-5l-16.8-31.8-16.8 31.8a8.69 8.69 0 0 1-4.2 4 9.35 9.35 0 0 1-4.35.9 9.15 9.15 0 0 1-8.25-5l-29.9-56.2a9.56 9.56 0 0 1-1-4 9.28 9.28 0 0 1 9.25-9zM278 384.4V328c0-5.4 4.8-9 9.45-9a9.18 9.18 0 0 1 9.3 9v56.4a9.18 9.18 0 0 1-9.3 9 9.32 9.32 0 0 1-9.45-9zM376.89 389.95H322a9.1 9.1 0 0 1-9.3-9v-49.5c0-6.45 5.85-9 9.3-9h54.9a9 9 0 1 1 0 18h-45.46v6.75h36.45a9 9 0 1 1 0 18h-36.45v6.75h45.45a9 9 0 1 1 0 18zM463.59 340.45h-24.9c-11.1 0-21 .9-24.9 3.45-1.8 1.2-3.45 5.25-3.45 12.3 0 7.5 1.8 11.25 3.45 12.3 4 2.7 14.55 3.45 24.9 3.45h24.9a9 9 0 1 1 0 18h-31.35c-9 0-19.95-.45-28.95-6.45-10.5-6.9-11.7-19-11.7-27.3 0-7.5.6-20.1 11.7-27.3 9.3-6.15 20.85-6.45 30.45-6.45h29.85a9 9 0 1 1 0 18zM485.11 384.4V328c0-5.4 4.8-9 9.45-9a9.18 9.18 0 0 1 9.3 9v56.4a9.18 9.18 0 0 1-9.3 9 9.32 9.32 0 0 1-9.45-9zM584 389.95h-54.9a9.1 9.1 0 0 1-9.3-9v-49.5c0-6.45 5.85-9 9.3-9H584a9 9 0 1 1 0 18h-45.43v6.75H575a9 9 0 1 1 0 18h-36.43v6.75H584a9 9 0 1 1 0 18zM603.29 380.8A12.48 12.48 0 0 1 616 368.35a12.71 12.71 0 0 1 12.9 12.45c0 4.8-3.75 12.6-12.9 12.6a12.69 12.69 0 0 1-12.71-12.6zm3.45-24.9v-50.4a9.18 9.18 0 0 1 9.3-9c4.65 0 9.45 3.6 9.45 9v50.4a9.32 9.32 0 0 1-9.45 9 9.18 9.18 0 0 1-9.3-9z"/></g></svg>