<svg xmlns="http://www.w3.org/2000/svg" viewBox="0 0 700 500"><path fill="#f2f2f2" d="M0 0h700v500H0z" data-name="Ebene 1"/><g data-name="Ebene 2"><path d="M161.16 156.83v48.32h12.32v4.8h-31.84v-4.8h12.48v-99.2h-12.48v-4.8h31.84v4.8h-12.32V152h63.2v-46.05H212v-4.8h31.68v4.8H231.4v99.2h12.32v4.8H212v-4.8h12.32v-48.32zM268.21 174.11v31H313v-13.6h6.4v13.92l-4.48 4.48h-48.63l-4.48-4.48v-64.6l4.48-4.48h48.64l4.48 4.48v33.28zm44.8-4.8v-28.16h-44.8v28.16zM348.79 97.94h-11.2v-4.8h17.6v112h11.2v4.8h-28.8v-4.8h11.2zM394.74 97.94h-11.2v-4.8h17.6v112h11.2v4.8h-28.8v-4.8h11.2zM489.64 205.47l-4.48 4.48h-50.25l-4.48-4.48v-64.64l4.48-4.48h50.24l4.48 4.48zm-6.4-64.32h-46.4v64h46.4zm-11.68-38.4h7.68l-19.36 23.52h-4.64zM243.33 285.95h-9.92v-4.8h25v4.8h-9.92l-38.56 104h-9.12l-38.56-104h-9.92v-4.8h27.36v4.8h-9.92l36.8 99.2zM273.12 321.15h-11.2v-4.8h17.6v68.8h11.2v4.8h-28.8v-4.8h11.2zm-1.28-30.72h9v9.12h-9zM319.07 277.94h-11.2v-4.8h17.6v112h11.2v4.8h-28.8v-4.8h11.2zM359.1 389.95l-4.48-4.48v-31.68l4.48-4.48H401v-28.16h-37.9v14.08h-6.4v-14.4l4.48-4.48h41.76l4.48 4.48v64.32h11.2v4.8zm1.9-35.84v31h40v-31zm31.36-71.36h7.84l-19.36 23.52h-4.64zM485.83 417.15v-27.2h-45.12l-4.48-4.48v-64.64l4.48-4.48h62.72v4.8h-11.2v96.32l-4.48 4.48h-49.92v-4.8zm-43.2-96v64h43.2v-64zM531.94 281.14l-1.28 86.08h-6.4L523 281.14zm-.16 100.16v8.64h-8.64v-8.64z"/></g></svg>