<svg xmlns="http://www.w3.org/2000/svg" viewBox="0 0 700 500"><path fill="#f2f2f2" d="M0 0h700v500H0z" data-name="Ebene 1"/><path d="M250.14 153.51v51.34h13.09v5.1H229.4v-5.1h13.26V99.45H229.4v-5.1h33.83v5.1h-13.09v49h67.15v-49H304.2v-5.1h33.66v5.1h-13.09v105.4h13.09v5.1H304.2v-5.1h13.09v-51.34zm112.63 18.36V185c0 5.44 0 12.07 2.89 16 2.55 3.4 7.14 3.91 11.39 3.91h19c3.91 0 8.5 0 11.39-1.7 2.21-1.36 2.89-4.25 2.89-7v-5.81h6.8v5.78c0 4.25-.68 8.84-4.25 11-4.25 2.72-11 2.72-16.83 2.72H377c-6.12 0-12.92-.17-16.83-4.93C356 200.09 356 191.93 356 185v-27.2c0-7.31 0-15.47 4.25-20.74 3.91-4.76 10.54-5.27 16.83-5.27h19c6.29 0 12.92.51 16.83 5.27 4.25 5.27 4.25 13.43 4.25 20.74v14.11zm47.6-5.1v-9c0-5.78 0-12.41-2.89-16.66-2.38-3.57-7-4.25-11.39-4.25H377c-4.42 0-9 .68-11.39 4.25-2.89 4.25-2.89 10.88-2.89 16.66v9zm30.31 72.08c1.87 0 3.91-.34 4.93-1.87 1.19-1.87 1.19-4.76 1.19-7.31v-92.82h-11.9v-5.1h18.7v97.92c0 4.08 0 8.5-2.55 11.39-2.55 2.72-6.63 2.89-10.37 2.89H426.4v-5.1zm4.76-134.64H455v9.69h-9.52zM162.5 279.45H152v-5.1h26.52v5.1h-10.58l-41 110.5h-9.69l-41-110.5H65.77v-5.1h29.07v5.1H84.3l39.1 105.4zm24.73 72.42V365c0 5.44 0 12.07 2.89 16 2.55 3.4 7.14 3.91 11.39 3.91h19c3.91 0 8.5 0 11.39-1.7 2.21-1.36 2.89-4.25 2.89-7v-5.81h6.8v5.78c0 4.25-.68 8.84-4.25 11-4.25 2.72-11 2.72-16.83 2.72h-19c-6.12 0-12.92-.17-16.83-4.93-4.25-4.93-4.25-13.09-4.25-20.06v-27.2c0-7.31 0-15.47 4.25-20.74 3.91-4.76 10.54-5.27 16.83-5.27h19c6.29 0 12.92.51 16.83 5.27 4.25 5.27 4.25 13.43 4.25 20.74v14.11zm47.6-5.1v-9c0-5.78 0-12.41-2.89-16.66-2.38-3.57-7-4.25-11.39-4.25h-19c-4.42 0-9 .68-11.39 4.25-2.89 4.25-2.89 10.88-2.89 16.66v9zM310 327.9c0-3.23-.17-6.63-2.38-8.84s-5.78-2.21-9-2.21h-19.25v68h13.09v5.1h-31.79v-5.1h11.9v-68h-11.9v-5.1h37.91c5.1 0 10.88 0 14.45 3.23 3.57 3.06 3.74 8.16 3.74 12.92v7.31H310zm45.28 62.05c-6.12 0-12.75-.34-16.49-5.1-4.08-5.1-4.08-13.26-4.08-20.4v-27.2c0-7.14 0-15.3 4.08-20.4 3.74-4.76 10.37-5.1 16.49-5.1h32.13v-40.8h-11.9v-5.1h18.7v119h11.9v5.1zm0-73.1c-4.25 0-8.67.68-11 4.08-2.72 4.08-2.72 10.71-2.72 16.32v27.2c0 5.61 0 12.24 2.72 16.32 2.38 3.4 6.8 4.08 11 4.08h32.13v-68zm75.92 35.02V365c0 5.44 0 12.07 2.89 16 2.55 3.4 7.14 3.91 11.39 3.91h19c3.91 0 8.5 0 11.39-1.7 2.21-1.36 2.89-4.25 2.89-7v-5.81h6.8v5.78c0 4.25-.68 8.84-4.25 11-4.25 2.72-11 2.72-16.83 2.72h-19c-6.12 0-12.92-.17-16.83-4.93-4.25-4.93-4.25-13.09-4.25-20.06v-27.2c0-7.31 0-15.47 4.25-20.74 3.91-4.76 10.54-5.27 16.83-5.27h19c6.29 0 12.92.51 16.83 5.27 4.25 5.27 4.25 13.43 4.25 20.74v14.11zm47.6-5.1v-9c0-5.78 0-12.41-2.89-16.66-2.38-3.57-7-4.25-11.39-4.25h-19c-4.42 0-9 .68-11.39 4.25-2.89 4.25-2.89 10.88-2.89 16.66v9zm76.67-35.02c6.12 0 12.75.34 16.49 5.1 4.08 5.1 4.08 13.26 4.08 20.4v47.6h11.9v5.1h-31.79v-5.1h13.09v-47.6c0-5.61 0-12.24-2.72-16.32-2.38-3.4-6.8-4.08-11-4.08h-32.18v68h13.09v5.1h-31.79v-5.1h11.9v-68h-11.9v-5.1zm62.27-37.4l-1.36 91.46h-6.8l-1.36-91.46zm-.17 106.42v9.18h-9.18v-9.18z" data-name="Ebene 2"/></svg>