<svg xmlns="http://www.w3.org/2000/svg" viewBox="0 0 700 500"><path fill="#f2f2f2" d="M0 0h700v500H0z" data-name="Ebene 1"/><path d="M189.58 156.83v48.32h12.32v4.8h-31.85v-4.8h12.48v-99.2h-12.48v-4.8h31.85v4.8h-12.32V152h63.2v-46.05h-12.32v-4.8h31.68v4.8h-12.32v99.2h12.32v4.8h-31.68v-4.8h12.32v-48.32zm104.99 53.12l-4.48-4.48v-31.68l4.48-4.48h41.92v-28.16h-37.92v14.08h-6.4v-14.4l4.48-4.48h41.76l4.48 4.48v64.32h11.2v4.8zm1.92-35.84v31h40v-31zM382 97.94h-11.2v-4.8h17.6v112h11.2v4.8h-28.8v-4.8H382zm45.92 0h-11.2v-4.8h17.6v112h11.2v4.8h-28.8v-4.8h11.2zm94.9 107.53l-4.48 4.48H468.1l-4.48-4.48v-64.64l4.48-4.48h50.24l4.48 4.48zm-6.4-64.32H470v64h46.4zm-11.68-38.4h7.68l-19.36 23.52h-4.64zM94.59 336.83v48.32h12.32v4.8H75.07v-4.8h12.48v-99.2H75.07v-4.8h31.84v4.8H94.59V332h63.2v-46.05h-12.32v-4.8h31.68v4.8h-12.32v99.2h12.32v4.8h-31.68v-4.8h12.32v-48.32zm107.06 17.28v31h44.8v-13.6h6.4v13.92l-4.48 4.48h-48.64l-4.48-4.48v-64.6l4.48-4.48h48.64l4.48 4.48v33.28zm44.8-4.8v-28.16h-44.8v28.16zm35.77-28.16H271v-4.8h17.6v68.8h11.2v4.8H271v-4.8h11.2zm-1.28-30.72h9v9.12h-9zm133.96 25.92l4.48 4.48v64.32h11.2v4.8h-28.8v-4.8H413v-64h-36v64h10.08v4.8h-26.59v-4.8h10.08v-64h-36v64h11.2v4.8H317v-4.8h11.2v-64H317v-4.8zm43.18 68.8h41.6v-64h-11.2v-4.8h17.6v68.8h11.2v4.8h-61.12l-4.48-4.48v-64.32h-11.2v-4.8h17.6zm122.92-64h-28.8v64h12.32v4.8H534.6v-4.8h11.2v-64h-11.2v-4.8h48.32l4.48 4.48v17.6H581zm33.44-40.01l-1.28 86.08h-6.4l-1.28-86.08zm-.16 100.16v8.64h-8.64v-8.64z" data-name="Ebene 2"/></svg>