<svg xmlns="http://www.w3.org/2000/svg" viewBox="0 0 700 500"><path fill="#f2f2f2" d="M0 0h700v500H0z" data-name="Ebene 1"/><path d="M184.44 200.35h9.92v9.6h-30.08v-9.6h9.92l39-99.2h16l39 99.2h9.92v9.6h-33v-9.6H255l-11.52-29.6h-47.36zm55.2-39.2l-19.84-50.4-19.8 50.4zm121.98-24.8l8.32 8.32v55.68h11.2v9.6h-34.72v-9.6h12.32v-54.4h-38.4v54.4h12.32v9.6h-34.72v-9.6h11.2v-97.6h-11.2v-9.6h22.4v43.2zm105.23 65.28l-8.32 8.32h-47.36l-8.32-8.32v-57l8.32-8.32h47.36l8.32 8.32zm-11.2-55.68h-41.6v54.4h41.6zm44.67 86.4v-86.4h-11.2v-9.6h22.4v97.28l-8.32 8.32h-22.08v-9.6zM499 105.63h13.8v13.92H499zM181 290.75h-47v40h52l8.8 8.8v41.6l-8.8 8.8h-55.58l-8.8-8.8v-20.8h12.32v20h48.48v-40h-52l-8.8-8.8v-41.6l8.8-8.8h54.08l8.8 8.8v20.8H181zm94.57 35.2h-9v-9.6h28.32v9.6h-9l-25 64h-14.76l-25-64h-9v-9.6h29.92v9.6h-9l21.28 54.4zm51.13 30.56v23.84h40v-8.8h11.2v10.08l-8.32 8.32h-45.76l-8.32-8.32v-57l8.32-8.32h45.76l8.32 8.32v31.84zm6.08-73.76l13.92 15.52 13.92-15.52h9l-15.72 23.52h-14.24l-15.84-23.52zm33.92 64.16v-21h-40v21zm55.36 33.44h23v9.6h-25.88l-8.48-8.32v-55.68h-11.36v-9.6h11.36v-22.89h11.36v22.88h20v9.6h-20zm54.83-23.84v23.84h40v-8.8h11.2v10.08l-8.32 8.32H474l-8.32-8.32v-57l8.32-8.32h45.76l8.32 8.32v31.84zm40-9.6v-21h-40v21zm49.46-65.77l-2.08 74.24h-9.6l-2.08-74.24zm-.35 95.69v13.12h-13.09v-13.12z" data-name="Ebene 2"/></svg>