<svg xmlns="http://www.w3.org/2000/svg" viewBox="0 0 700 500"><path fill="#f2f2f2" d="M0 0h700v500H0z" data-name="Ebene 1"/><g data-name="Ebene 2"><path d="M158.81 250.25l2.08-55.38h9.23l2 55.38zm.39-75.79v-12.61h12.48v12.61zM217.88 165.49v43.16h18.72v1.3h-50.18v-1.3h18.72v-85.8h-18.72v-1.3h50.18v1.3h-18.72v41.34h48.36v-41.35h-18.59v-1.3h50.05v1.3h-18.59v85.8h18.59v1.3h-50.05v-1.3h18.59v-43.15zM368.21 204.75l-5.2 5.2h-47.19l-5.2-5.2v-54.6l5.2-5.2H363l5.2 5.2zm-11.7-58.5h-34.19v62.4h34.19zM397.81 103.34h-16.9V102h28.6v106.6h16.9v1.3h-45.5v-1.3h16.9zM444.13 209.95l-5.2-5.2V180.7l5.2-5.2h35.1v-29.25h-26.52v14.56H441v-10.66l5.2-5.2h39.52l5.2 5.2v58.5h16.9v1.3zm6.5-33.15v31.85h28.6V176.8zM112.08 388.65h14.82v1.3H92.06v-1.3h18.72v-85.8H92.06v-1.3h33.28l35.36 87.1 35.36-87.1h32.37v1.3h-18.59v85.8h18.59v1.3H182v-1.3h15v-85.8l-35.36 87.1h-14.3l-35.23-87.1zM258 388.65h30v-62.4h-16.9v-1.3h28.6v63.7h16.9v1.3h-65.15l-5.2-5.2v-58.5h-16.9v-1.3H258zM394.56 324.95l5.2 5.2v58.5h16.9v1.3H328v-1.3h16.9v-62.4H328v-1.3zm-38 63.7h31.46v-62.4H356.6zM434.18 389.95l-5.2-5.2v-54.6l5.2-5.2h38v-41.6h-16.9V282h28.6v106.6h16.9v1.3zm6.5-63.7v62.4h31.46v-62.4zM571.11 384.75l-5.2 5.2h-47.2l-5.2-5.2v-54.6l5.2-5.2h47.19l5.2 5.2zm-11.7-58.5h-34.2v62.4h34.19zM601.36 301.54l-2 55.38h-9.23l-2.08-55.38zm-.36 75.93v12.48h-12.51v-12.48z"/></g></svg>