<svg xmlns="http://www.w3.org/2000/svg" viewBox="0 0 700 500"><path fill="#f2f2f2" d="M0 0h700v500H0z" data-name="Ebene 1"/><g data-name="Ebene 2"><path d="M176.77 121.45V133h-16.5v-25h94.5v25h-16.5v-11.55h-22.5v75h11.55v13.5h-39.6v-13.5h11.55v-75zM296.49 196.45c3.3 0 7-.15 7-2.25v-1.5h15v1.5c0 4.8-.9 10-5 12.6-4.95 3.15-13 3.15-19.95 3.15h-13.2c-7 0-15 0-19.95-4.5s-4.95-11.85-4.95-18.45v-16.8c0-8.25 0-17.55 4.95-23.4 4.65-5.55 12.6-5.85 19.95-5.85h13.2c7.35 0 15.3.3 19.95 5.85 5 5.85 5 15.15 5 23.4v10.65h-48V187c0 2.7 0 5.85 1.95 7.65s5.1 1.8 7.95 1.8zm7-29.1c0-3.6-.45-7.35-2-9.75-1.65-2.55-4.95-3.15-7.95-3.15h-13.2c-3 0-6.3.6-7.95 3.15-1.5 2.4-1.95 6.15-1.95 9.75zM379.16 158.8c0-1.35-.3-2.85-1.5-3.45-1.5-.9-3.75-.9-5.85-.9h-10.64v42h11.55v13.5h-37v-13.5h10.5v-42h-10.5V141h36.15c6.3 0 13.35 0 17.85 3.6 4 3.3 4.5 9 4.5 14.25v2.85h-15zM451 196.45c3.3 0 7-.15 7-2.25v-1.5h15v1.5c0 4.8-.9 10-5 12.6-4.95 3.15-13 3.15-19.95 3.15H435c-7 0-15 0-19.95-4.5S410.1 193.6 410.1 187v-16.8c0-8.25 0-17.55 4.95-23.4 4.65-5.55 12.6-5.85 19.95-5.85h13.2c7.35 0 15.3.3 19.95 5.85 5 5.85 5 15.15 5 23.4v10.65h-48V187c0 2.7 0 5.85 1.95 7.65s5.1 1.8 7.95 1.8zm7-29.1c0-3.6-.45-7.35-2-9.75-1.65-2.55-4.95-3.15-7.95-3.15H435c-3 0-6.3.6-7.95 3.15-1.5 2.4-1.95 6.15-1.95 9.75zM79.06 376.45h9.15v13.5H53.86v-13.5h11.7v-75h-11.7V288H92l28.35 88.5L148.5 288h37.95v13.5H174.9v75h11.55V390h-37.2v-13.5h9.15v-75L130.2 390h-22.94l-28.2-88.5zM224.75 389.95c-6 0-12.9 0-17.1-3.6s-4.2-9.15-4.2-14.55v-6.3c0-5.4.15-11.1 4.2-14.55 4.2-3.6 11.1-3.6 17.1-3.6H247v-6.45c0-2-.6-4-2.25-5.1-2.1-1.35-5.55-1.35-8.55-1.35h-10.5a6.77 6.77 0 0 0-3.9.75c-.9.75-.9 2-.9 3.15v2.55h-15v-2.55c0-5.1.15-10.65 3.9-13.95 4-3.45 10.2-3.45 15.9-3.45h10.5c7.2 0 15.45 0 20.55 4 4.65 3.6 5.25 9.9 5.25 15.9v35.55h10.5v13.5zm0-29.1c-1.8 0-3.9 0-5.1.9s-1.2 2.4-1.2 3.75v6.3c0 1.35.15 2.85 1.2 3.75s3.3.9 5.1.9H247v-15.6zM310.13 389.95c-6 0-12.9 0-17.1-3.6s-4.2-9.15-4.2-14.55v-6.3c0-5.4.15-11.1 4.2-14.55 4.2-3.6 11.1-3.6 17.1-3.6h22.2v-6.45c0-2-.6-4-2.25-5.1-2.1-1.35-5.55-1.35-8.55-1.35H311a6.77 6.77 0 0 0-3.9.75c-.9.75-.9 2-.9 3.15v2.55h-15v-2.55c0-5.1.15-10.65 3.9-13.95 4-3.45 10.2-3.45 15.9-3.45h10.5c7.2 0 15.45 0 20.55 4 4.65 3.6 5.25 9.9 5.25 15.9v35.55h10.5v13.5zm0-29.1c-1.8 0-3.9 0-5.1.9s-1.2 2.4-1.2 3.75v6.3c0 1.35.15 2.85 1.2 3.75s3.3.9 5.1.9h22.2v-15.6zM384 334.45h-10.5V321H399v55.5h10.5V390h-36v-13.5H384zm-.6-45.45h16.2v16.2h-16.2zM436.14 294h-10.5v-13.5h25.5v96h10.5V390h-36v-13.5h10.5zM568 321c6.9 0 14.4.15 19 5.25s4.8 13.35 4.8 20.85v29.4h10.5V390h-36v-13.5h10.5V347c0-3.45 0-7.5-1.8-10-1.5-2.1-4.35-2.55-7-2.55h-20.4v42h9.4v13.5h-33.9v-13.5h9.45v-42h-29.24v42h10.5v13.5h-36v-13.5h10.5v-42h-10.5V321zM636.34 288l-2.4 61.65h-11.4l-2.4-61.65zm-.45 86.7V390h-15.3v-15.3z"/></g></svg>