<svg xmlns="http://www.w3.org/2000/svg" viewBox="0 0 700 500"><path fill="#f2f2f2" d="M0 0h700v500H0z" data-name="Ebene 1"/><g data-name="Ebene 2"><path d="M235.23 114.75h14.56l27.86 93.8 27.44-92.4H289v-1.4h33.6v1.4h-16.1l-27.86 93.8h-15.13L238 124.13l-25.48 85.82h-15.09l-27.86-93.8h-16v-1.4h46.48v1.4H184l27.44 92.4 25.9-86.94zm100.59 25.2h-18.2v-1.4h30.8v70h18.2v1.4h-49v-1.4h18.2zm-.82-30.38h14.28v14.28H335zm57.74 87.78c0 3.64.14 7.7.84 9.24 1 2 3.64 2 6 2h14.7v1.4H399.6c-5.88 0-14.14 0-16.8-2.24s-2.66-8.4-2.66-13.3v-54.5h-11.2v-1.4h11.2v-15.4h12.6v15.4h19.46v1.4h-19.46zm48.65 12.6c-5.74 0-14.14-.14-16.8-1.54s-2.66-5.46-2.66-9v-16.8c0-3.5 0-7.7 2.66-9.1s11.06-1.4 16.8-1.4H467v-19.84c0-3.64 0-9-1.4-10.64s-5.6-1.68-8.68-1.68h-14.55c-1.82 0-3.92 0-4.76 1.12s-.84 4.76-.84 7.28V156h-12.6v-7.7c0-3.22.14-7 2.66-8.4s10.22-1.4 15.54-1.4h14.56c6.72 0 16.24 0 19.46 2s3.22 7.28 3.22 11.76v56.28h18.2v1.4zm0-36.4c-2.1 0-4.9 0-5.88 1.26s-1 5.18-1 7.84v16.8c0 2.66 0 6.58 1 7.84s3.78 1.26 5.88 1.26H467v-35z"/><path d="M507.91 260.35c1.82 0 3.64-.42 4.2-2.1.7-2.1.7-8.82.7-13.3v-105h-18.2v-1.4h30.8v106.4c0 5.18 0 12-2.38 14.42s-9.8 2.38-15.12 2.38h-13.72v-1.4zM512 109.57h14.28v14.28H512zM126.14 307.91c0-3.64 0-8.4-1.54-10.08s-6-1.68-9.38-1.68h-21c-3.64 0-8.4 0-10.08 1.68s-1.68 6.44-1.68 10.08v21.84c0 3.64 0 8.54 1.68 10.22s6.44 1.68 10.08 1.68h21.7c7.56 0 18.34 0 22 1.82s3.64 7 3.64 11.48v21.84c0 4.48 0 9.52-3.64 11.34s-14.42 1.82-22 1.82h-21.7c-7.56 0-18.34 0-22-1.82s-3.64-6.86-3.64-11.34v-10.92h13.88v10.92c0 3.64 0 8.4 1.68 10.08s6.44 1.68 10.08 1.68h21.7c3.64 0 8.4 0 10.08-1.68s1.68-6.44 1.68-10.08v-21.84c0-3.64 0-8.54-1.68-10.22s-6.44-1.73-10.08-1.73h-21.7c-7.56 0-18.34 0-22-1.82s-3.64-6.86-3.64-11.34v-22c0-4.48 0-9.52 3.64-11.34s14.42-1.82 22-1.82h21c7.28 0 17.78 0 21.28 1.82s3.5 7 3.5 11.34v10.92h-13.86zm-12.74-42.56h15.4l-28.28 20.58h-1.4zm98.6 53.2h13l19.88 70 19.6-68.6h-14.54v-1.4h30.52v1.4H265.9l-19.88 70H232.3l-17.78-62.58-17.78 62.58h-13.86l-19.88-70h-14.56v-1.4h42.28v1.4h-14.56l19.46 68.6 18.06-63.7zm91.88 1.4h-18.2v-1.4h30.8v70h18.2v1.4h-49v-1.4h18.2zm-.88-30.38h14.28v14.28H303zm52.58 63.98v16.8c0 5.32 0 13.16 1.4 15.68s5 2.52 8.26 2.52H383c2.94 0 7 0 8.4-1.26 1.12-1.12 1.26-3.5 1.26-5.88V372h12.6v8c0 3.36-.14 7.14-3.08 8.54s-12.74 1.4-19.18 1.4h-17.76c-6.72 0-16 0-19-2.8S343 376.37 343 370.35v-32.9c0-5.88.14-13.58 3.22-16.24s12.32-2.66 19-2.66H383c6.72 0 16.1 0 19.18 2.66s3.08 10.36 3.08 16.24v16.1zm37.1-1.4v-17.5c0-4.76-.14-10.36-1.26-12.32-1.4-2.38-5.18-2.38-8.4-2.38h-17.78c-3.22 0-6.86 0-8.26 2.38s-1.4 9.94-1.4 15.12v14.7zm70.74-21.84c0-3.08 0-7.56-1-9s-3.92-1.4-6.16-1.4H440c-3.36 0-7.56 0-9 2.52s-1.54 10.08-1.54 15.26v33c0 5.18.14 12.74 1.54 15.26s5.6 2.52 9 2.52h16.24c2.24 0 5.18 0 6.16-1.4s1-5.88 1-9v-9.66H476v10.64c0 3.5-.14 7.56-2.66 9.1-2.8 1.68-11.2 1.68-17.08 1.68H440c-6.86 0-16.66 0-19.88-2.66s-3.22-10.5-3.22-16.52v-33c0-6 0-13.86 3.22-16.52s13-2.66 19.88-2.66h16.24c5.88 0 14.28 0 17.08 1.68 2.52 1.54 2.66 5.6 2.66 9.1V340h-12.6zm40.02-10.36h-18.2v-1.4H516v70h18.2v1.4h-49v-1.4h18.2zm-.84-30.38h14.28v14.28h-14.29zm52.53 63.98v16.8c0 5.32 0 13.16 1.4 15.68s5 2.52 8.26 2.52h17.78c2.94 0 7 0 8.4-1.26 1.12-1.12 1.26-3.5 1.26-5.88V372h12.6v8c0 3.36-.14 7.14-3.08 8.54s-12.74 1.4-19.18 1.4h-17.78c-6.72 0-16 0-19-2.8s-3.22-10.78-3.22-16.8v-32.9c0-5.88.14-13.58 3.22-16.24s12.32-2.66 19-2.66h17.78c6.72 0 16.1 0 19.18 2.66s3.08 10.36 3.08 16.24v16.1zm37.1-1.4v-17.5c0-4.76-.14-10.36-1.26-12.32-1.4-2.38-5.18-2.38-8.4-2.38h-17.78c-3.22 0-6.86 0-8.26 2.38s-1.4 9.94-1.4 15.12v14.7zm40.31-57.4l-2.1 59.64h-9.94l-2.24-59.64zm-.42 81.76v13.44h-13.44v-13.44z"/></g></svg>