<svg xmlns="http://www.w3.org/2000/svg" viewBox="0 0 700 500"><path fill="#f2f2f2" d="M0 0h700v500H0z" data-name="Ebene 1"/><path d="M65 200.95h9.15v9H44.3v-9H56V117H44.3v-9h29.54l34.35 93 34.35-93h29.4v9h-11.55v84h11.55v9h-32.25v-9h9.15v-84l-34.35 93h-15.3L65 117zm161.32 0c4.95 0 10.35-.15 10.35-4.95v-3.3h10.5v3.3c0 4.35-.75 8.85-4.35 11.1-4.35 2.85-11.4 2.85-17.4 2.85h-15c-6.3 0-13 0-17.4-4.5s-4.35-11.55-4.35-18V167c0-7.35 0-15.6 4.35-20.85 4-5 10.95-5.25 17.4-5.25h15c6.45 0 13.35.3 17.4 5.25 4.35 5.25 4.35 13.5 4.35 20.85v11.6h-48v8.85c0 3.75 0 8.1 2.25 10.8 2.1 2.55 5.7 2.7 9 2.7zm10.35-31.35V167c0-4.8 0-10.2-2.25-13.65-1.8-2.85-5.55-3.45-9-3.45h-15c-3.45 0-7.2.6-9 3.45-2.25 3.45-2.25 8.85-2.25 13.65v2.55zm71.05-12.6c0-2.1-.15-4.35-1.8-5.7-1.8-1.35-4.5-1.35-6.9-1.35h-13.8v51h11.55v9h-32.55v-9h10.5v-51h-10.5v-9H299c5.4 0 11.4 0 15.3 3.15 3.6 3 3.9 8.1 3.9 12.9v4.65h-10.5zm65.88-16c6.3 0 12.9.15 16.95 4.8 4.2 4.8 4.35 12.6 4.35 19.5V201h10.5v9h-32.55v-9h11.55v-35.7c0-4.2-.15-9.3-2.25-12.3-1.8-2.7-5.25-3-8.55-3h-25.2v51H360v9h-32.6v-9h10.5v-91.5h-10.5v-9h21V141zm66.95 68.95c-5.25 0-11.25 0-15-3.15-3.6-3-3.75-8-3.75-12.6v-8.85c0-4.65.15-9.6 3.75-12.6 3.75-3.15 9.75-3.15 15-3.15h24.75v-10.5c0-2.7-.15-5.7-2.25-7.35-2.25-1.8-6.15-1.8-9.3-1.8h-12.3c-1.95 0-4.2 0-5.55 1.2-1.35 1-1.5 2.85-1.5 4.65v3.9h-10.5v-3.9c0-4.35.3-9 3.6-11.85 3.45-3 9-3 13.95-3h12.3c6.15 0 13.35 0 17.7 3.6 4 3.3 4.35 9.15 4.35 14.55v41.85h10.5v9zm0-31.35c-2.4 0-4.95 0-6.6 1.35s-1.65 3.45-1.65 5.4v8.85c0 1.95.15 4.2 1.65 5.4s4.2 1.35 6.6 1.35h24.75V178.6zM548.14 141c6.3 0 12.9.15 16.95 4.8 4.2 4.8 4.35 12.6 4.35 19.5v20.4c0 6.9-.15 14.7-4.35 19.5-4 4.65-10.65 4.8-16.95 4.8h-46.2v-9h10.5v-91.5h-10.5v-9h21V141zm0 60c3.3 0 6.75-.3 8.55-3 2.1-3 2.25-8.1 2.25-12.3v-20.4c0-4.2-.15-9.3-2.25-12.3-1.8-2.7-5.25-3-8.55-3h-25.2v51zm57.91 8.95c-5.25 0-11.25 0-15-3.15-3.6-3-3.75-8-3.75-12.6v-8.85c0-4.65.15-9.6 3.75-12.6 3.75-3.15 9.75-3.15 15-3.15h24.75v-10.5c0-2.7-.15-5.7-2.25-7.35-2.25-1.8-6.15-1.8-9.3-1.8H607c-1.95 0-4.2 0-5.55 1.2-1.35 1-1.5 2.85-1.5 4.65v3.9H589.4v-3.9c0-4.35.3-9 3.6-11.85 3.45-3 9-3 13.95-3h12.3c6.15 0 13.35 0 17.7 3.6 4 3.3 4.35 9.15 4.35 14.55v41.85h10.5v9zm0-31.35c-2.4 0-4.95 0-6.6 1.35s-1.65 3.45-1.65 5.4v8.85c0 1.95.15 4.2 1.65 5.4s4.2 1.35 6.6 1.35h24.75V178.6zM81 389.95v-9h11.7V297H81v-9h57.45c8.4 0 17.55.45 22.95 6.9 5.7 6.9 5.7 17.7 5.7 27.3v33.6c0 9.6 0 20.4-5.7 27.3-5.4 6.45-14.55 6.9-22.95 6.9zm57.45-9c5.25 0 10.8-.9 13.65-5.1 3.45-5.1 3.45-13 3.45-20.1v-33.6c0-7 0-15-3.45-20.1-2.85-4.2-8.4-5.1-13.65-5.1h-34.2v84zm66.26-15.3c0 4.2 0 9.3 2.1 12.3 1.8 2.55 5.1 3 8.25 3h24.15v-51h-10.5v-9h21v60h10.5v9h-45.15c-6.15 0-12.75-.15-16.65-4.8-4.2-4.8-4.2-12.6-4.2-19.5v-35.7h-10.5v-9h21zm-3.3-73.5h13v13h-13zm28 0h12.9v13h-12.9zM322.65 321c6.3 0 12.9.15 16.95 4.8 4.2 4.8 4.35 12.6 4.35 19.5V381h10.5v9H321.9v-9h11.55v-35.7c0-4.2-.15-9.3-2.25-12.3-1.8-2.7-5.25-3-8.55-3h-25.2v51H309v9h-32.54v-9H287v-51h-10.5v-9zm100.65 8.95h-8.4v-9h26.7v9h-8.4l-35.55 81h9.45v9h-30.9v-9h11.55l9.3-21-26.4-60h-8.4v-9h28.2v9h-8.4l20.7 46.95zm51.4 60c-5.25 0-11.25 0-15-3.15-3.6-3-3.75-8-3.75-12.6v-8.85c0-4.65.15-9.6 3.75-12.6 3.75-3.15 9.75-3.15 15-3.15h24.75v-10.5c0-2.7-.15-5.7-2.25-7.35-2.25-1.8-6.15-1.8-9.3-1.8h-12.3c-1.95 0-4.2 0-5.55 1.2-1.35 1-1.5 2.85-1.5 4.65v3.9H458v-3.9c0-4.35.3-9 3.6-11.85 3.45-3 9-3 13.95-3h12.3c6.15 0 13.35 0 17.7 3.6 4 3.3 4.35 9.15 4.35 14.55v41.85h10.5v9zm0-31.35c-2.4 0-4.95 0-6.6 1.35s-1.65 3.45-1.65 5.4v8.85c0 1.95.15 4.2 1.65 5.4s4.2 1.35 6.6 1.35h24.75V358.6zm76.37-70.6l-2 69.6h-9l-1.9-69.6zm-.3 89.7V390h-12.3v-12.3z" data-name="Ebene 2"/></svg>