<svg xmlns="http://www.w3.org/2000/svg" viewBox="0 0 700 500"><path fill="#f2f2f2" d="M0 0h700v500H0z" data-name="Ebene 1"/><path d="M189 94.35h13.3v51.51h61.54V94.35h13.09v115.6h-13.1v-53.89H202.3v53.89H189zm126.5 115.6c-5.95 0-12.75 0-17-3.57-4.08-3.4-4.25-9-4.25-14.28v-10c0-5.27.17-10.88 4.25-14.28 4.25-3.57 11.05-3.57 17-3.57h27.88v-11.9c0-3.06-.17-6.46-2.55-8.33-2.55-2-6.8-2-10.37-2h-13.94c-2.21 0-4.93 0-6.46 1.36-1.53 1.19-1.53 3.23-1.53 5.27V153h-11.9v-4.42c0-4.93.17-10.2 3.91-13.43 3.91-3.4 10.37-3.4 16-3.4h13.94c7 0 15 0 19.89 4.08 4.59 3.74 4.93 10.37 4.93 16.49v57.63zm0-35.53c-2.72 0-5.61 0-7.48 1.53-1.7 1.36-1.87 3.91-1.87 6.12v10c0 2.21.17 4.76 1.87 6.12 1.87 1.53 4.76 1.53 7.48 1.53h27.88v-25.3zm58.42-88.57h11.9v124.1h-11.9zm31.08 0h11.9v124.1H405zm98.15 96.56c0 7.82 0 16.66-5.1 22.1-4.93 5.44-12.75 5.44-20.06 5.44h-17.68c-7.31 0-15.3 0-20.23-5.44-4.76-5.1-4.93-13.09-4.93-20.57v-26.18c0-7.48.17-15.47 4.93-20.57 4.93-5.44 12.92-5.44 20.23-5.44H478c7.31 0 15.13 0 20.06 5.44 5.1 5.44 5.1 14.28 5.1 22.1zm-11.9-23.12c0-4.93 0-10.54-2.72-13.94-2.38-3.06-6.63-3.4-10.54-3.4h-17.68c-3.91 0-8.33.34-10.71 3.4s-2.55 7.82-2.55 12.24v26.52c0 4.42.17 9.18 2.55 12.24s6.8 3.4 10.71 3.4H478c3.91 0 8.16-.34 10.54-3.4 2.72-3.4 2.72-9 2.72-13.94zM82.11 274.35h13.94l38.25 105.4 38.25-105.4h10.88l-42 115.6H124.1zm148.55 105.4c5.61 0 11.73-.17 11.73-5.61v-3.74h11.9v3.74c0 4.93-.85 10-4.93 12.58-4.93 3.23-12.92 3.23-19.72 3.23h-17c-7.14 0-14.79 0-19.72-5.1s-4.92-13.09-4.92-20.4v-23.12c0-8.33 0-17.68 4.93-23.63 4.59-5.61 12.41-6 19.72-6h17c7.31 0 15.13.34 19.72 6 4.93 6 4.93 15.3 4.93 23.63v13.09h-54.4v10c0 4.25 0 9.18 2.55 12.24 2.38 2.89 6.46 3.06 10.2 3.06zm11.73-35.53v-2.89c0-5.44 0-11.56-2.55-15.47-2-3.23-6.29-3.91-10.2-3.91h-17c-3.91 0-8.16.68-10.2 3.91-2.55 3.91-2.55 10-2.55 15.47v2.89zm29.9-32.47h27.54c6.12 0 12.92 0 17.34 3.57 4.08 3.4 4.42 9.18 4.42 14.62v5.27h-11.9v-5.27c0-2.38-.17-4.93-2-6.46-2-1.53-5.1-1.53-7.82-1.53h-15.68v68h-11.9zm90.05 78.2c-7.14 0-14.79-.17-19.38-5.44-4.76-5.44-4.76-14.28-4.76-22.1v-23.12c0-7.82 0-16.66 4.76-22.1 4.59-5.27 12.24-5.44 19.38-5.44h28.56v-45.9h11.9v124.1zm0-68c-3.74 0-7.82.34-9.86 3.4-2.38 3.4-2.38 9.18-2.38 13.94v23.12c0 4.76 0 10.54 2.38 13.94 2 3.06 6.12 3.4 9.86 3.4h28.56v-57.8zm101.47 57.8c5.61 0 11.73-.17 11.73-5.61v-3.74h11.9v3.74c0 4.93-.85 10-4.93 12.58-4.93 3.23-12.92 3.23-19.72 3.23h-17c-7.14 0-14.79 0-19.72-5.1s-4.93-13.09-4.93-20.4v-23.12c0-8.33 0-17.68 4.93-23.63 4.59-5.61 12.41-6 19.72-6h17c7.31 0 15.13.34 19.72 6 4.93 6 4.93 15.3 4.93 23.63v13.09H433v10c0 4.25 0 9.18 2.55 12.24 2.38 2.89 6.46 3.06 10.2 3.06zm11.73-35.53v-2.89c0-5.44 0-11.56-2.55-15.47-2-3.23-6.29-3.91-10.2-3.91h-17c-3.91 0-8.16.68-10.2 3.91-2.55 3.91-2.55 10-2.55 15.47v2.89zm29.9-32.47h40.46c7.14 0 14.62.17 19.21 5.44 4.76 5.44 4.93 14.28 4.93 22.1v50.66h-11.9v-50.66c0-4.76-.17-10.54-2.55-13.94-2-3.06-6-3.4-9.69-3.4h-28.56v68h-11.9zm96.82-37.4L600 353.23h-10.2l-2.21-78.88zM601.92 376v13.94H588V376z" data-name="Ebene 2"/></svg>