<svg xmlns="http://www.w3.org/2000/svg" viewBox="0 0 700 500"><path fill="#f2f2f2" d="M0 0h700v500H0z" data-name="Ebene 1"/><path d="M129.41 164.65l-7 31.8h11.55l-3 13.5h-40l3-13.5h11.55l16.5-75h-11.65l3-13.5h40l-3 13.5h-11.5l-6.6 29.7H181l6.45-29.7h-11.54l3-13.5h40l-3 13.5h-11.5l-16.5 75h11.55l-3 13.5h-39.9l2.85-13.5H171l7-31.8zm106.8 16.2l-3.45 15.6H265l.9-3.75h15.3l-1.2 5.7-14.1 11.55H226l-9-11.55c3.3-15.3 6.9-30.6 10.2-45.9l13.96-11.5h39.9l9 11.55-6.15 28.35zm35.25-13.5l2.85-12.9h-32.25l-2.85 12.9zm30.6 59.1l15.75-72h-10.5l3-13.5h25.95c-6.45 29.1-12.9 58.35-19.35 87.45l-14.1 11.55h-21.75l3-13.5zM327.26 109h16.5l-3.45 16.2h-16.65zm77.32 45.45H375c-1 4.8-2.1 9.45-3.15 14.25h34.65l9 11.55c-1.35 6-2.7 12.15-4 18.15l-14.1 11.55H359l-9-11.55 1.95-9.15h15.45l-1.65 7.2h30.75c1-4.8 2.1-9.45 3.15-14.25h-34.5l-9-11.55c1.35-6 2.7-12.15 4-18.15l13.98-11.5h37.2l9 11.55-2 9h-15.4zm36.84 55.5l-9-11.55c1.5-6.45 2.85-13 4.35-19.5l13.95-11.55h31.65c.9-4.35 2-8.55 2.85-12.9h-25.5l-1.35 6.45h-15.3l1.8-8.4L459 141h33l9 11.55c-3.15 14.7-6.45 29.25-9.6 43.95h10.5l-3 13.5zm10.2-29.1c-1.2 5.25-2.25 10.35-3.45 15.6h27.75l3.45-15.6zM589.69 141l9 11.55c-3.15 14.7-6.45 29.25-9.6 43.95h10.5l-3 13.5h-37.5l3-13.5h11.55c3.15-14 6.15-28 9.3-42h-30.75l-9.3 42h11.55l-3 13.5H514.1l3-13.5h10.5l9.15-42h-10.5l3-13.5zM131.82 301.45h-9.3l3-13.5h34l-3 13.5h-9.15l-50.7 88.5h-22.6l-11.85-88.5h-9.15l3-13.5h35.1l-3 13.5h-9.3l10 75zm27.86 88.5l-9-11.55c1.5-6.45 2.85-13 4.35-19.5L169 347.35h31.65c.9-4.35 2-8.55 2.85-12.9H178l-1.35 6.45h-15.3l1.8-8.4 14.07-11.5h33l9 11.55c-3.15 14.7-6.45 29.25-9.6 43.95h10.5l-3 13.5zm10.2-29.1c-1.2 5.25-2.25 10.35-3.45 15.6h27.75l3.45-15.6zm6-71.85h16.65l-3.6 16.2h-16.5zm30.75 0h16.65l-3.6 16.2h-16.5zm81.05 45.45h-17.25l-9.3 42h11.55l-3 13.5h-37.35l3-13.5h10.5l9.15-42h-10.5l3-13.5h46.95l9 11.55-2 9.15H286zM323.59 294l3-13.5h25.8l-21.15 96h10.5l-3 13.5h-36.3l3-13.5h10.5l18.15-82.5zm44.64 95.95l-9-11.55c3.3-15.3 6.9-30.6 10.2-45.9l13.95-11.5H418l5.85-27h-10.5l3-13.5h25.95l-21.15 96h10.5l-3 13.5zm16-55.5c-3.15 14-6.15 28-9.3 42h30.75l9.3-42zm84.44 26.4l-3.45 15.6h32.25l.9-3.75h15.3l-1.2 5.7-14.1 11.55h-39.9l-9-11.55c3.3-15.3 6.9-30.6 10.2-45.9l13.95-11.5h39.9l9 11.55-6.15 28.35zm35.25-13.5l2.85-12.9h-32.25l-2.85 12.9zM604.51 321l9 11.55c-3.15 14.7-6.45 29.25-9.6 43.95h10.5l-3 13.5h-37.5l3-13.5h11.55c3.15-14 6.15-28 9.3-42H567l-9.3 42h11.55l-3 13.5h-37.34l3-13.5h10.5l9.15-42h-10.5l3-13.5zm44.58 53.65l-3.3 15.3H630l3.3-15.3zm19.5-86.7l-16 61.65H641l11.09-61.6z" data-name="Ebene 2"/></svg>