<svg xmlns="http://www.w3.org/2000/svg" viewBox="0 0 700 500"><path fill="#f2f2f2" d="M0 0h700v500H0z" data-name="Ebene 1"/><g data-name="Ebene 2"><path d="M180.47 153.51v51.34h13.09v5.1h-33.83v-5.1H173V99.45h-13.27v-5.1h33.83v5.1h-13.09v49h67.15v-49h-13.09v-5.1h33.66v5.1H255.1v105.4h13.09v5.1h-33.66v-5.1h13.09v-51.34zM305.52 209.95c-5.27 0-11 0-14.79-3.06-3.4-2.72-3.74-7.48-3.74-11.9v-13.26c0-4.42.34-9.35 3.74-12.07s8.5-2.89 13.26-2.89h32.3v-16.49c0-3.91 0-8-2.72-10.71s-7.14-2.72-11.05-2.72h-16.15c-2.89 0-6.29 0-8.33 1.87-2 1.7-2 4.59-2 7.14v5.95h-6.8v-5.95c0-4.08.17-8.67 3.4-11.22 3.4-2.89 9-2.89 13.77-2.89h16.15c5.78 0 12.41 0 16.49 3.74 3.91 3.57 4.08 9.35 4.08 14.79v54.57H355v5.1zm-1.36-38.08c-2.89 0-6 .17-8 1.87-2.21 1.87-2.38 5.1-2.38 8V195c0 2.89.17 6 2.38 7.82 2.38 2 6.12 2 9.35 2h30.77v-33zM384.62 90.95h-11.9v-5.1h18.7v119h11.9v5.1h-30.6v-5.1h11.9zM433.44 90.95h-11.9v-5.1h18.7v119h11.9v5.1h-30.6v-5.1h11.9zM533 184.45c0 7.14 0 15.3-4.25 20.4-4.08 4.76-11 5.1-17.34 5.1h-19.76c-6.29 0-13.09-.34-17.17-5.1-4.25-5.1-4.42-13.26-4.42-20.4v-27.2c0-7.14.17-15.3 4.42-20.4 4.08-4.76 10.88-5.1 17.17-5.1h19.72c6.29 0 13.26.34 17.34 5.1 4.25 5.1 4.25 13.26 4.25 20.4zm-6.8-27.2c0-5.61 0-12.24-2.89-16.32-2.55-3.57-7.48-4.08-11.9-4.08h-19.76c-4.42 0-9.18.51-11.73 4.08-2.89 4.08-3.06 10.71-3.06 16.32v27.2c0 5.61.17 12.24 3.06 16.32 2.55 3.57 7.31 4.08 11.73 4.08h19.72c4.42 0 9.35-.51 11.9-4.08 2.89-4.08 2.89-10.71 2.89-16.32zM211.87 389.95H201.5l-29.58-110.5h-10.54v-5.1h28.73v5.1h-10.37L208 384.85l29.58-110.5h10l29.58 110.5 28.22-105.4H295v-5.1h26.18v5.1h-10.54l-29.58 110.5h-10.2L241.28 280zM332 351.87V365c0 5.44 0 12.07 2.89 16 2.55 3.4 7.14 3.91 11.39 3.91h19c3.91 0 8.5 0 11.39-1.7 2.21-1.36 2.89-4.25 2.89-7v-5.81h6.8v5.78c0 4.25-.68 8.84-4.25 11-4.25 2.72-11 2.72-16.83 2.72h-19c-6.12 0-12.92-.17-16.83-4.93-4.25-4.93-4.25-13.09-4.25-20.06v-27.2c0-7.31 0-15.47 4.25-20.74 3.91-4.76 10.54-5.27 16.83-5.27h19c6.29 0 12.92.51 16.83 5.27 4.25 5.27 4.25 13.43 4.25 20.74v14.11zm47.6-5.1v-9c0-5.78 0-12.41-2.89-16.66-2.38-3.57-7-4.25-11.39-4.25h-19c-4.42 0-9 .68-11.39 4.25C332 325.35 332 332 332 337.76v9zM417.38 270.95h-11.9v-5.1h18.7v119h11.9v5.1h-30.6v-5.1h11.9zM465.71 369.21c0 4.42 0 9.52 2.21 12.58 1.87 2.72 5.44 3.06 8.67 3.06h16.32v5.1h-16.32c-5.1 0-10.71-.17-14.11-4.08-3.57-4.08-3.57-10.71-3.57-16.66v-52.36h-12.07v-5.1h12.07v-24.31h6.8v24.31h21.42v5.1h-21.42zM521.62 274.35l-1.36 91.46h-6.8l-1.36-91.46zm-.17 106.42v9.18h-9.18v-9.18z"/></g></svg>