<svg xmlns="http://www.w3.org/2000/svg" viewBox="0 0 700 500"><path fill="#f2f2f2" d="M0 0h700v500H0z" data-name="Ebene 1"/><path d="M263.69 166.67v29.68h10.78v12.6h-37.1v-12.6h10.92v-70h-10.92v-12.6h37.1v12.6h-10.78v27.72h46.06v-27.72H299v-12.6h37v12.6h-10.85v70h10.78v12.6H299v-12.6h10.78v-29.68zm100.76 15.12v14.56h30.8v-3.5h14v5.46l-10.64 10.64h-37.52l-10.64-10.64v-43.12l10.64-10.64h37.52l10.64 10.64v26.6zm30.8-12.6v-12h-30.8v12zm38.38-12.04h-9.8v-12.6h23.8v51.8h9.8v12.6h-33.6v-12.6h9.8zm-.56-42.42h15.12v15.12h-15.12zM61.9 376.35h8.54v12.6H38.38v-12.6H49.3v-70H38.38v-12.6h35.56l26.46 82.6 26.32-82.6h35.42v12.6h-10.78v70h10.78v12.6h-34.72v-12.6H136v-70l-26.32 82.6H88.22l-26.32-82.6zm125.35 12.6l-10.64-10.64v-18.48l10.64-10.64h30v-12h-24.4v6h-14v-8l10.64-10.64h31.08l10.64 10.64v41.16H241v12.6zm3.36-27.16v14.56h26.6v-14.56zm74.92 27.16l-10.64-10.64v-18.48l10.64-10.64h30v-12h-24.4v6h-14v-8l10.64-10.64h31.08l10.64 10.64v41.16h9.8v12.6zm3.36-27.16v14.56h26.6v-14.56zm73.4-24.64h-9.8v-12.6h23.8v51.8h9.8v12.6h-33.6v-12.6h9.8zm-.56-42.42h15.12v15.12h-15.12zm47.85 4.62h-9.8v-12.6h23.8v89.6h9.8v12.6h-33.6v-12.6h9.8zm133.25 25.2l10.64 10.64v41.16h9.8v12.6h-33.6v-12.6h9.8v-39.2h-27.3v39.2H501v12.6h-31.65v-12.6h8.82v-39.2h-27.3v39.2h9.8v12.6h-33.6v-12.6h9.8v-39.2h-9.8v-12.6zm45.17 64.4l-10.6-10.64v-18.48l10.6-10.64h30v-12h-24.36v6h-14v-8l10.64-10.64h31.08L612 335.19v41.16h9.8v12.6zm3.36-27.16v14.56H598v-14.56zm80.58-68.04l-2.24 57.54h-10.64l-2.24-57.54zm-.42 80.92v14.28h-14.28v-14.28z" data-name="Ebene 2"/></svg>