<svg xmlns="http://www.w3.org/2000/svg" viewBox="0 0 700 500"><path fill="#f2f2f2" d="M0 0h700v500H0z" data-name="Ebene 1"/><path d="M339.4 171.55c-2.4 11-5.12 23-14.08 30.72s-20.32 7.68-30.88 7.68H269.8c-10.56 0-21.92 0-27.52-7.68-2.4-3.36-3.2-7.52-3.2-12.16 0-5.92 1.44-12.32 2.72-18.56 2.4-10.72 4.64-21.28 7-32 2.4-11 5.12-23 14.08-30.72s20.32-7.68 30.88-7.68h24.64c10.56 0 21.76 0 27.36 7.68 2.4 3.36 3.36 7.52 3.36 12.16 0 5.92-1.44 12.32-2.72 18.56-2.4 10.72-4.6 21.28-7 32zm-11-32a59.06 59.06 0 0 0 1.92-12.64 14.16 14.16 0 0 0-1.44-6.56c-2.4-4.32-8.16-4.8-13.6-4.8H290.6c-5.44 0-11.52.48-15.84 4.8-4.8 4.8-6.4 12.48-7.84 19.2-2.4 10.72-4.64 21.28-7 32a59 59 0 0 0-1.92 12.64 14.15 14.15 0 0 0 1.28 6.56c2.4 4.32 8.32 4.8 13.76 4.8h24.64c5.44 0 11.52-.48 15.84-4.8 4.8-4.8 6.4-12.48 7.84-19.2 2.36-10.72 4.64-21.28 7-32zm37.24-32.01l3.2-14.4h27.52L373.8 195.55H385l-3.2 14.4h-38.72l3.2-14.4h11.2l19.36-88zm75.26 43.21h-11.84c-1.44 0-3 0-4.16.8s-1.28 2.08-1.6 3.36l-.64 2.72h-16.32l.48-2.72c1.12-5.44 2.72-11.36 7.52-14.88 5.12-3.68 11.84-3.68 17.92-3.68h10.88c7.68 0 16.64 0 21.28 4.32 2.24 2.08 2.88 5 2.88 8.16a42.76 42.76 0 0 1-1.12 8.8c-2.72 12.64-5.6 25.28-8.32 37.92h11.2l-3.2 14.4h-50.72c-6.4 0-13.76 0-17.44-3.84a9.94 9.94 0 0 1-2.4-7 40.34 40.34 0 0 1 1.28-8.48c1.92-8.48 2.56-17.28 9.44-22.24 5.44-3.84 12.64-3.84 19-3.84h23.2c.48-2.24 1-4.64 1.44-6.88a12.33 12.33 0 0 0 .32-2.4c.02-4.36-4.6-4.52-9.08-4.52zm-19 28.16c-1.76 0-3.84 0-5.28 1a6 6 0 0 0-2.24 4l-1.44 6.72c-.32 1.44-.48 3 .48 4 1.12 1 3 1 4.8 1h23.2l3.68-16.64zm31.68-76.16h20.32l-24.2 23.52h-14.56zm-344.52 272.8H119l-3.2 14.4h-37l3.2-14.4h12.34l17.6-80H99.62l3.2-14.4h40.32l8.64 94.4L202 281.14h42.24l-3.2 14.4h-12.3l-17.6 80h12.32l-3.2 14.4H180.1l3.2-14.4h9.76l17.6-80-50.24 94.4h-25l-8.8-94.4zm156.01 0H287l9.92-44.8h-11.2l3-14.4h27.68l-13.12 59.2h11.2l-3 14.4H262c-7.52 0-15.52-.16-19.36-5.6a14.38 14.38 0 0 1-2.4-8.64c0-4.32 1.12-9.12 2.08-13.6 2.24-10.4 4.64-21 6.88-31.36H238l3.2-14.4h27.52c-3.36 15.2-6.72 30.56-10.08 45.76a41.08 41.08 0 0 0-1.12 7.36c.03 4.8 3.07 6.08 7.55 6.08zm123.38-59.2c7.68 0 15.84.16 19.84 5.6 1.76 2.4 2.24 5.44 2.24 8.8a66.39 66.39 0 0 1-1.92 13.44c-2.24 10.4-4.64 21-6.88 31.36h11.2l-3.2 14.4h-40l3.2-14.4h12.32c2.24-10.4 4.64-21 6.88-31.36a39.42 39.42 0 0 0 1.12-7.2 8.13 8.13 0 0 0-.64-3.52c-1.28-2.4-4.32-2.72-7.36-2.72h-22.88l-9.92 44.8h12.32l-3.2 14.4h-39.84l3.2-14.4h11.2l9.76-44.8h-11.2l3.2-14.4zm58.03 73.6c-7.68 0-15.68-.16-19.68-5.6a14.56 14.56 0 0 1-2.4-8.8c0-4.32 1.12-9 2.08-13.44 1.28-5.92 2.56-12 3.84-17.92 1.76-8 3.84-16.64 10.24-22.24 6.4-5.44 14.4-5.6 22.08-5.6h23l6.24-28.8h-11.2l3.2-14.4h27.72L489 375.55h11.2l-3.2 14.4zm13.12-59.2c-3 0-6.24.32-8.48 2.72-2.56 2.72-3.52 7-4.32 10.72-1.28 5.92-2.72 12-4 17.92a39.42 39.42 0 0 0-1.12 7.2 8.14 8.14 0 0 0 .64 3.52c1.28 2.4 4.32 2.72 7.36 2.72h22.88l9.92-44.8zm123.58 31.36c-1.76 8-3.52 16.64-10.24 22.24s-15.2 5.6-23 5.6H535.5c-7.84 0-16.32 0-20.48-5.6-1.92-2.4-2.56-5.6-2.56-9 0-4.16 1.12-8.8 2.08-13.28 1.28-5.92 2.56-12 3.84-17.92 1.76-8 3.68-16.64 10.4-22.24s15-5.6 22.88-5.6h14.4c7.84 0 16.48 0 20.64 5.6 1.92 2.4 2.4 5.6 2.4 9a66.5 66.5 0 0 1-1.92 13.28c-1.28 5.92-2.72 12-4 17.92zm-44.48 13.44h14.4c3.2 0 6.72-.32 9.28-2.72 2.72-2.72 3.68-6.88 4.48-10.72 1.28-5.92 2.72-12 4-17.92a35.48 35.48 0 0 0 1-7c0-5.44-3.84-6.4-8.8-6.4h-14.4c-3.2 0-6.72.32-9.28 2.72-2.72 2.72-3.68 6.88-4.48 10.72-1.28 5.92-2.72 12-4 17.92a35.82 35.82 0 0 0-1.12 7c-.04 5.28 3.96 6.4 8.92 6.4zm75.42-1.92l-3.52 16.32h-16.8l3.52-16.32zm20.8-92.48l-17.12 65.76h-12.32l11.84-65.76z" data-name="Ebene 2"/></svg>