<svg xmlns="http://www.w3.org/2000/svg" viewBox="0 0 700 500"><path fill="#f2f2f2" d="M0 0h700v500H0z" data-name="Ebene 1"/><path d="M295.67 153.15l6.72 6.72v43l-7 7h-88.8v-1.6h18.4V102.75h-18.4v-1.6h86.4l7 7v38.56l-6.4 6.4zm-11.52-.64v-49.76h-43.52v49.76zm2.4 55.84v-54.24h-45.92v54.24zm106.32-4.8l-6.4 6.4h-58.09l-6.4-6.4v-67.2l6.4-6.4h58.08l6.4 6.4zm-14.4-72h-42.09v76.8h42.08zm30.03-52.8v-1.6h35.2v84.32l48.64-29.92H475.7v-1.6H512v1.6h-16.62l-45 27.68 52.64 49.12h16.68v1.6h-54.4v-1.6h16.64l-38.24-35.68v35.68h16.64v1.6H408.5v-1.6h20.8V78.75zm-288.56 204H72.42v52h58.08l6.88 7v41.12l-6.88 7H63.62l-7-7v-20.44h15.8v25.92h49.12v-52H63.62l-7-7v-41.16l7-7h65.28l6.88 7v20.48h-15.84zm117.75 28.8H221v-1.6h34.88v1.6h-16.59l-28.64 78.4h-15.84L166 311.55h-16.63v-1.6H198v1.6h-16.63l28.16 76.8zm49.5 0h-20.8v-1.6h35.2v78.4h20.8v1.6h-56v-1.6h20.8zm-1-34.72h16.32v16.32h-16.28zm59.36 161.12v-126.4h-20.8v-1.6H360v123.2l-6.4 6.4h-28.53v-1.6zm-1-161.12h16.32v16.32h-16.28zM400 349.15v39.2h40.48v-18.4h14.4v13.6l-6.4 6.4H392l-6.4-6.4v-67.2l6.4-6.4h56.48l6.4 6.4v32.8zm40.48-1.6v-36H400v36zm58.62 40.8h23.52v1.6H491.1l-6.4-6.4v-72h-12.48v-1.6h12.48v-18.72h14.4v18.72h21.44v1.6H499.1zm51.9-39.2v39.2h40.48v-18.4h14.4v13.6l-6.4 6.4H543l-6.4-6.4v-67.2l6.4-6.4h56.48l6.4 6.4v32.8zm40.48-1.6v-36H551v36zm51.62-66.4l-2.4 68.16h-11.36l-2.56-68.16zm-.48 93.44v15.36h-15.36v-15.36z" data-name="Ebene 2"/></svg>