<svg xmlns="http://www.w3.org/2000/svg" viewBox="0 0 700 500"><path fill="#f2f2f2" d="M0 0h700v500H0z" data-name="Ebene 1"/><path d="M256.17 119.17c0-4.25 0-8.84-3.06-11.73s-8-2.89-12.41-2.89h-23.46c-6 0-12.41 1-15.64 5.78-3.91 5.78-3.91 14.79-3.91 22.78v38.08c0 8 0 17 3.91 22.78 3.23 4.76 9.69 5.78 15.64 5.78h23.46c4.42 0 9.35 0 12.41-2.89s3.06-7.48 3.06-11.73v-9.86h13.26v9.86c0 7.31-.34 15.13-5.78 19.89-5.78 4.93-14.79 4.93-23 4.93h-23.41c-9.52 0-19.89-.51-26-7.82-6.46-7.82-6.63-20.06-6.63-30.94v-38.08c0-10.88.17-23.12 6.63-30.94 6.12-7.31 16.49-7.82 26-7.82h23.46c8.16 0 17.17 0 23 4.93 5.44 4.76 5.78 12.58 5.78 19.89V129h-13.31zm44.22 22.78h-11.9v-10.2h23.8v68h11.9v10.2h-35.7v-10.2h11.9zM299 99.11h14.62v14.79H299zm65.42 110.84c-6 0-12.75 0-17-3.57-4.08-3.4-4.25-9-4.25-14.28v-10c0-5.27.17-10.88 4.25-14.28 4.25-3.57 11-3.57 17-3.57h28v-11.9c0-3.06-.17-6.46-2.55-8.33-2.55-2-7-2-10.54-2h-13.88c-2.21 0-4.76 0-6.29 1.36-1.53 1.19-1.7 3.23-1.7 5.27V153h-11.9v-4.42c0-4.93.34-10.2 4.08-13.43 3.91-3.4 10.2-3.4 15.81-3.4h13.94c7 0 15.13 0 20.06 4.08 4.59 3.74 4.93 10.37 4.93 16.49v47.43h11.9v10.2zm0-35.53c-2.72 0-5.61 0-7.48 1.53-1.7 1.36-1.87 3.91-1.87 6.12v10c0 2.21.17 4.76 1.87 6.12 1.87 1.53 4.76 1.53 7.48 1.53h28v-25.3zm138.01 7.99c0 7.82 0 16.66-5.1 22.1-4.93 5.44-12.75 5.44-20.06 5.44h-17.68c-7.31 0-15.13 0-20.06-5.44-5.1-5.44-5.1-14.28-5.1-22.1v-23.12c0-7.82 0-16.66 5.1-22.1 4.93-5.44 12.75-5.44 20.06-5.44h17.68c7.31 0 15.13 0 20.06 5.44 5.1 5.44 5.1 14.28 5.1 22.1zm-11.9-23.12c0-4.93 0-10.54-2.72-13.94-2.38-3.06-6.63-3.4-10.54-3.4h-17.68c-3.91 0-8.16.34-10.54 3.4-2.72 3.4-2.72 9-2.72 13.94v23.12c0 4.93 0 10.54 2.72 13.94 2.38 3.06 6.63 3.4 10.54 3.4h17.68c3.91 0 8.16-.34 10.54-3.4 2.72-3.4 2.72-9 2.72-13.94zM85.45 379.75h10.37v10.2H62v-10.2h13.25v-95.2H62v-10.2h33.48l38.93 105.4 38.93-105.4h33.32v10.2h-13.09v95.2h13.09v10.2h-36.55v-10.2h10.37v-95.2l-38.93 105.4h-17.34l-38.76-105.4zm208.06-17.34c0 7.82 0 16.66-5.1 22.1-4.93 5.44-12.75 5.44-20.06 5.44h-17.68c-7.31 0-15.13 0-20.06-5.44-5.1-5.44-5.1-14.28-5.1-22.1v-23.12c0-7.82 0-16.66 5.1-22.1 4.93-5.44 12.75-5.44 20.06-5.44h17.68c7.31 0 15.13 0 20.06 5.44 5.1 5.44 5.1 14.28 5.1 22.1zm-11.9-23.12c0-4.93 0-10.54-2.72-13.94-2.38-3.06-6.63-3.4-10.54-3.4h-17.68c-3.91 0-8.16.34-10.54 3.4-2.72 3.4-2.72 9-2.72 13.94v23.12c0 4.93 0 10.54 2.72 13.94 2.38 3.06 6.63 3.4 10.54 3.4h17.68c3.91 0 8.16-.34 10.54-3.4 2.72-3.4 2.72-9 2.72-13.94zm83.03-27.54c7.14 0 14.62.17 19.21 5.44 4.76 5.44 4.93 14.28 4.93 22.1v40.46h11.9v10.2h-36.89v-10.2h13.09v-40.46c0-4.76-.17-10.54-2.55-13.94-2-3.06-6-3.4-9.69-3.4h-28.56v57.8h13.09v10.2h-36.89v-10.2h11.9v-57.8h-11.9v-10.2zm78.44 78.2c-7.14 0-14.62-.17-19.21-5.44-4.76-5.44-4.93-14.28-4.93-22.1v-23.12c0-7.82.17-16.66 4.93-22.1 4.59-5.27 12.07-5.44 19.21-5.44h28.56V276h-11.9v-10.2h23.8v113.9h11.9v10.2zm0-68c-3.74 0-7.65.34-9.69 3.4-2.38 3.4-2.55 9.18-2.55 13.94v23.12c0 4.76.17 10.54 2.55 13.94 2 3.06 6 3.4 9.69 3.4h28.56v-57.8zm139.21 40.46c0 7.82 0 16.66-5.1 22.1-4.93 5.44-12.75 5.44-20.06 5.44h-17.68c-7.31 0-15.13 0-20.06-5.44-5.1-5.44-5.1-14.28-5.1-22.1v-23.12c0-7.82 0-16.66 5.1-22.1 4.93-5.44 12.75-5.44 20.06-5.44h17.68c7.31 0 15.13 0 20.06 5.44 5.1 5.44 5.1 14.28 5.1 22.1zm-11.9-23.12c0-4.93 0-10.54-2.72-13.94-2.38-3.06-6.63-3.4-10.54-3.4h-17.68c-3.91 0-8.16.34-10.54 3.4-2.72 3.4-2.72 9-2.72 13.94v23.12c0 4.93 0 10.54 2.72 13.94 2.38 3.06 6.63 3.4 10.54 3.4h17.68c3.91 0 8.16-.34 10.54-3.4 2.72-3.4 2.72-9 2.72-13.94zm48.02-64.94l-2.21 78.88H606l-2.21-78.88zM618.07 376v13.94h-13.94V376z" data-name="Ebene 2"/></svg>