<svg xmlns="http://www.w3.org/2000/svg" viewBox="0 0 700 500"><path fill="#f2f2f2" d="M0 0h700v500H0z" data-name="Ebene 1"/><path d="M197.37 200.35h9.92l-2.08 9.6h-31l2.08-9.6h9.92l60.8-99.2h16.16l17.12 99.2h9.92l-2.08 9.6h-32.2l2.08-9.6h9.76l-5.12-29.6h-47.2zm63.63-39.2l-8.8-50.4-30.88 50.4zm103.58-24.8c6.72 0 13.76.16 17.12 5.12a14.38 14.38 0 0 1 2.08 7.84c0 4.16-1.12 8.64-2.08 13-2.72 12.64-5.6 25.44-8.32 38.08h11.2l-2.08 9.6h-35l2.08-9.6h12.32c2.72-12.64 5.76-25.44 8.48-38.08a43.26 43.26 0 0 0 1.28-9 10.7 10.7 0 0 0-.8-4.16c-1.28-2.72-4.8-3.2-8.32-3.2H336.1l-12 54.4h12.32l-2.08 9.6h-35l2.08-9.6h11.2l21.38-97.6h-11.2l2.24-9.6h22.56l-9.44 43.2zM466.42 184c-1.6 7.36-3.52 15.68-9.44 20.8-5.76 5.12-13.28 5.12-20.16 5.12H420.5c-6.88 0-14.4 0-17.92-5.12-1.6-2.24-2.08-5.12-2.08-8.16a59.06 59.06 0 0 1 1.92-12.64c1.6-7.2 3.2-14.56 4.8-21.76 1.6-7.36 3.36-15.68 9.28-20.8 5.76-5.12 13.28-5.12 20.16-5.12h16.48c6.88 0 14.24 0 17.76 5.12a13.92 13.92 0 0 1 2.24 8.16 59.06 59.06 0 0 1-1.92 12.64c-1.59 7.23-3.22 14.59-4.8 21.76zm-6.72-21.76a41.78 41.78 0 0 0 1.28-8.64 10.19 10.19 0 0 0-.8-4.48c-1.6-2.88-5.6-3.2-9.28-3.2h-16.32c-3.68 0-7.68.32-10.56 3.2-3.2 3.2-4.48 8.48-5.44 13.12-1.6 7.2-3 14.56-4.64 21.76a42.4 42.4 0 0 0-1.44 8.64 10.21 10.21 0 0 0 1 4.48c1.6 2.88 5.44 3.2 9.12 3.2h16.48c3.68 0 7.68-.32 10.56-3.2 3.2-3.2 4.32-8.48 5.28-13.12 1.56-7.17 3.16-14.53 4.76-21.73zm15.87 70.11c1.6 0 3.52 0 5-1.12s1.76-3 2.08-4.64l17.76-80.64h-11.2l2.08-9.6H514c-6.56 30.08-13.28 60.16-19.84 90.24-1 4.48-2.24 9.28-6.24 12.32-4.16 3-9.44 3-14.4 3h-13.47l2.08-9.6zm32.32-126.72H522l-3 13.92h-14.15zm-272.3 234.72h-19.2c-7.52 0-16.16 0-20.64-4.32-2.08-2.08-2.88-5-2.88-8.16a46.34 46.34 0 0 1 1.28-9.12c1.12-5.28 2.4-10.72 3.52-16 1.44-6.4 3.52-13.28 9.28-17.28 6.4-4.32 14.88-4.32 22.4-4.32h18.56c7.36 0 15.68 0 20 4.32 2.08 2.08 2.72 5 2.72 8a47.92 47.92 0 0 1-1.28 9.28l-1.76 8H255l1.76-8a31.85 31.85 0 0 0 .8-5.44c0-6.24-5.92-6.56-11.68-6.56h-18.61c-4 0-8.64 0-12 2.4-3.2 2.24-4.16 6.08-5 9.6-1.12 5.28-2.4 10.72-3.52 16a30.69 30.69 0 0 0-.8 5.12c0 6.56 6.4 6.88 12.48 6.88h19.2c7.52 0 16.16 0 20.64 4.32 2.08 2.08 2.88 5 2.88 8.16a46.28 46.28 0 0 1-1.28 9.12c-1.12 5.28-2.4 10.72-3.52 16-1.44 6.4-3.52 13.28-9.28 17.28-6.4 4.32-15 4.32-22.56 4.32h-19c-7.52 0-16.16 0-20.64-4.32-2.08-2.08-2.88-5-2.88-8.16a46.35 46.35 0 0 1 1.28-9.12l1.76-8h12.64l-1.76 8a30.71 30.71 0 0 0-.8 5.12c0 6.56 6.4 6.88 12.48 6.88h19.2c4 0 8.64 0 12-2.4 3.2-2.24 4.16-6.08 5-9.6 1.12-5.28 2.4-10.72 3.52-16a32.63 32.63 0 0 0 .8-5.28c-.04-6.56-6.44-6.72-12.52-6.72zm102.79-14.4h-9l2.08-9.6h29.12l-2.08 9.6h-9l-38.88 64H295.5l-10.72-64h-9l2.08-9.6h29.28l-2.08 9.6h-9l9.12 54.4zm37.1 30.56l-2.08 9.44a41 41 0 0 0-1.12 7.36 8.41 8.41 0 0 0 1 4.16c1.6 2.72 5.28 2.88 8.8 2.88h15.84c5.76 0 12-.16 13-5.28l.8-3.52H423l-.64 3.52c-1 4.64-3 9.44-7.36 11.84-5.28 3-13 3-19.36 3H380c-6.72 0-13.92 0-17.6-4.8a12.45 12.45 0 0 1-2.24-7.68c0-3.68 1-7.68 1.76-11.52 1.6-7.2 3.2-14.56 4.8-21.76 1.76-7.84 3.68-16.64 9.6-22.24 5.44-5.28 13-5.6 19.84-5.6H412c6.88 0 14.08.32 17.28 5.6a14.49 14.49 0 0 1 1.92 8c0 4.48-1.12 9.6-2.08 14.24l-2.72 12.32zm41.6-9.6l.48-2.72a46.84 46.84 0 0 0 1.6-10.24 12.25 12.25 0 0 0-.64-4.32c-1.28-3-5.12-3.68-8.8-3.68H394c-3.68 0-7.68.64-10.24 3.68-3.2 3.68-4.48 9.44-5.6 14.56l-.64 2.72zM466 380.35h14.4l-2.24 9.6h-14.28c-5.76 0-12.16-.16-15.2-4.32a11.74 11.74 0 0 1-1.76-6.72 48.3 48.3 0 0 1 1.6-10.4c3-14.24 6.4-28.32 9.44-42.56h-11.52l2.08-9.6H460l5-22.88h11.52l-5.12 22.88h20.16l-2.08 9.6h-20.16c-3 14.24-6.24 28.32-9.28 42.56a29.47 29.47 0 0 0-1 6.4c.04 4.48 2.76 5.44 6.96 5.44zm42.07-3.52l-2.88 13.12h-13.44l2.88-13.12zm21.44-95.68l-18.4 74.24h-9.92l14.08-74.24z" data-name="Ebene 2"/></svg>