<svg xmlns="http://www.w3.org/2000/svg" viewBox="0 0 700 500"><path fill="#f2f2f2" d="M0 0h700v500H0z" data-name="Ebene 1"/><g data-name="Ebene 2"><path d="M245.84 132.25H212v26.65h39l10.4 10.4v29.25l-10.4 10.4h-42.9l-10.4-10.4V184H212v13.26h35.1V170.6h-39l-10.4-10.4v-29.25l10.4-10.4h41.6l10.4 10.4v14.56h-14.3zM285.59 208.95l-9.88-9.88v-17.16l9.88-9.88h27.82v-11.18h-22.62v5.59h-13V159l9.88-9.88h28.86l9.88 9.88v38.22h9.1v11.7zm3.12-25.22v13.52h24.7v-13.52zM356.87 125.75h-9.1V114h22.1v83.2H379v11.7h-31.2v-11.7h9.1zM408.13 197.25h26v-36.4H425v-11.7h22.1v48.1h9.1v11.7H405l-9.88-9.88v-38.22H386v-11.7h22.1zM485.67 197.25h16.77v11.7h-20l-9.88-9.88v-38.22h-9.23v-11.7h9.23v-18.59h13.13v18.59h16.25v11.7h-16.27zM52.26 305.75h-9.1V294h22.1v83.2h9.1v11.7h-31.2v-11.7h9.1zM100.83 363.73v13.52h28.6V374h13v5.07l-9.88 9.88H97.71l-9.88-9.88V339l9.88-9.88h34.84l9.88 9.88v24.7zm28.6-11.7v-11.18h-28.6V352zM227.7 377.25h7.93v11.7h-29.77v-11.7H216v-65h-10.14v-11.7h33l24.57 76.7 24.44-76.7h32.89v11.7h-10v65h10v11.7h-32.22v-11.7h7.93v-65L272 388.95h-19.86l-24.44-76.7zM390.23 379.07l-9.88 9.88h-36.14l-9.88-9.88V339l9.88-9.88h36.14l9.88 9.88zm-13-38.22h-29.9v36.4h29.9zM456.29 329.15l9.88 9.88v38.22h9.1v11.7h-32.11v-11.7h10v-36.4h-27.3v36.4h10v11.7h-32.09v-11.7h9.1v-36.4h-9.1v-11.7zM498.24 388.95l-9.88-9.88V339l9.88-9.88h30.42v-23.4h-9.1V294h22.1v83.2h9.1v11.7zm3.12-48.1v36.4h27.3v-36.4zM577.31 363.73v13.52h28.6V374h13v5.07l-9.91 9.88h-34.81l-9.88-9.88V339l9.88-9.88H609l9.88 9.88v24.7zm28.6-11.7v-11.18h-28.6V352zM648.18 300.54L646.1 354h-9.88l-2.08-53.43zm-.39 75.14v13.26h-13.26v-13.25z"/></g></svg>