<svg xmlns="http://www.w3.org/2000/svg" viewBox="0 0 700 500"><path fill="#f2f2f2" d="M0 0h700v500H0z" data-name="Ebene 1"/><path d="M202.1 110.33c0-4.42 0-10.2-1.87-12.24s-7.31-2-11.39-2h-25.5c-4.42 0-10.2 0-12.24 2s-2 7.82-2 12.24v26.52c0 4.42 0 10.37 2 12.41s7.82 2 12.24 2h26.35c9.18 0 22.27 0 26.69 2.21s4.42 8.5 4.42 13.94V194c0 5.44 0 11.56-4.42 13.77s-17.51 2.21-26.69 2.21h-26.35c-9.18 0-22.27 0-26.69-2.21s-4.42-8.33-4.42-13.77v-13.29h16.83V194c0 4.42 0 10.2 2 12.24s7.82 2 12.24 2h26.35c4.42 0 10.2 0 12.24-2s2-7.82 2-12.24v-26.55c0-4.42 0-10.37-2-12.41s-7.82-2-12.24-2h-26.31c-9.18 0-22.27 0-26.69-2.21s-4.42-8.33-4.42-13.77v-26.73c0-5.44 0-11.56 4.42-13.77s17.51-2.21 26.69-2.21h25.5c8.84 0 21.59 0 25.84 2.21s4.25 8.5 4.25 13.77v13.26H202.1zm61.34 99.62c-7 0-17.17-.17-20.4-1.87s-3.23-6.63-3.23-10.88v-20.4c0-4.25 0-9.35 3.23-11s13.43-1.7 20.4-1.7h31.11v-24.19c0-4.42 0-10.88-1.7-12.92s-6.8-2-10.54-2h-17.68c-2.21 0-4.76 0-5.78 1.36s-1 5.78-1 8.84v9.35h-15.3v-9.35c0-3.91.17-8.5 3.23-10.2s12.41-1.7 18.87-1.7h17.68c8.16 0 19.72 0 23.63 2.38s3.91 8.84 3.91 14.28v68.34h22.1v1.7zm0-44.2c-2.55 0-6 0-7.14 1.53s-1.19 6.29-1.19 9.52v20.4c0 3.23 0 8 1.19 9.52s4.59 1.53 7.14 1.53h31.11v-42.5zm103.22-83.3h-22.1v-1.7H382v127.5h22.1v1.7h-59.5v-1.7h22.1zm74.83 104.21c0 6.29 0 15.47 1.53 18.53s5.61 3.06 9.18 3.06h30.6v-83.3h-22.1v-1.7h37.4v85h22.1v1.7h-68c-7.82 0-18.87 0-22.44-3.23s-3.57-12.92-3.57-20.06v-61.71h-22.1v-1.7h37.4zm114.97 7.99c0 4.42.17 9.35 1 11.22 1.19 2.38 4.42 2.38 7.31 2.38h17.85v1.7h-17.83c-7.14 0-17.17 0-20.4-2.72s-3.23-10.2-3.23-16.15v-66.13h-13.6v-1.7h13.6v-18.7h15.3v18.7h23.63v1.7h-23.63zM79.59 389.95v-1.7h24.48V276H79.59v-1.7h65.62v1.7h-24.48v112.2H171v-36.5h16.83v38.25zm146.73-23.29c0 6.29 0 15.47 1.53 18.53s5.61 3.06 9.18 3.06h30.6v-83.3h-22.1v-1.7h37.4v85H305v1.7h-68c-7.82 0-18.87 0-22.44-3.23S211 373.8 211 366.66v-61.71h-22.1v-1.7h37.4zm211.95-63.41c7.65 0 18.19 0 21.76 3.23s3.57 12.92 3.57 20.06v61.71h22.1v1.7H318.42v-1.7h22.1v-83.3h-22.1v-1.7zm-82.45 1.7v83.3h38.59v-83.3zm53.89 83.3h38.59v-61.71c0-6.29-.17-15.47-1.53-18.53s-5.1-3.06-8.5-3.06h-28.56zm105.4-42.5v20.4c0 6.46 0 16 1.7 19s6.12 3.06 10 3.06h21.59c3.57 0 8.5 0 10.2-1.53 1.36-1.36 1.53-4.25 1.53-7.14v-11.35h15.3v9.69c0 4.08-.17 8.67-3.74 10.37-3.74 1.7-15.47 1.7-23.29 1.7h-21.56c-8.16 0-19.38 0-23.12-3.4s-3.91-13.09-3.91-20.4V326.2c0-7.14.17-16.49 3.91-19.72s15-3.23 23.12-3.23h21.59c8.16 0 19.55 0 23.29 3.23s3.74 12.58 3.74 19.72v19.55zm45-1.7V322.8c0-5.78-.17-12.58-1.53-15-1.7-2.89-6.29-2.89-10.2-2.89h-21.54c-3.91 0-8.33 0-10 2.89s-1.7 12.07-1.7 18.36V344zm53.24-69.7l-2.55 72.42h-12.07L596 274.35zm-.51 99.28v16.32h-16.32v-16.32z" data-name="Ebene 2"/></svg>