<?xml version="1.0" standalone="no"?>
<!DOCTYPE svg PUBLIC "-//W3C//DTD SVG 1.1//EN" "http://www.w3.org/Graphics/SVG/1.1/DTD/svg11.dtd" >
<svg xmlns="http://www.w3.org/2000/svg">
<metadata>
This is a custom SVG webfont generated by Font Squirrel.
Copyright   : Copyright c 2010 by Marco Mller All rights reserved
Designer    : Marco Mller
Foundry     : Marco Mller
</metadata>
<defs>
<font id="AdjusterRegular" horiz-adv-x="978" >
<font-face units-per-em="2048" ascent="1536" descent="-512" />
<missing-glyph horiz-adv-x="450" />
<glyph unicode=" "  horiz-adv-x="450" />
<glyph unicode="&#x09;" horiz-adv-x="450" />
<glyph unicode="&#xa0;" horiz-adv-x="450" />
<glyph unicode="!" horiz-adv-x="399" d="M164 27v59q0 37 35 37q14 0 25.5 -10.5t11.5 -26.5v-59q0 -14 -11.5 -25.5t-25.5 -11.5q-35 0 -35 37zM164 285v1235q0 37 35 36q14 0 25.5 -10t11.5 -26v-1235q0 -14 -11.5 -25.5t-25.5 -11.5q-35 0 -35 37z" />
<glyph unicode="&#x22;" horiz-adv-x="471" d="M123 1061v313q0 37 35 37q14 0 25.5 -11t11.5 -26v-313q0 -16 -11.5 -26.5t-25.5 -10.5q-35 0 -35 37zM276 1061v313q0 37 35 37q16 0 26.5 -11t10.5 -26v-313q0 -16 -10 -26.5t-27 -10.5q-35 0 -35 37z" />
<glyph unicode="'" horiz-adv-x="317" d="M123 1061v313q0 37 35 37q14 0 25.5 -11t11.5 -26v-313q0 -16 -11.5 -26.5t-25.5 -10.5q-35 0 -35 37z" />
<glyph unicode="(" horiz-adv-x="337" d="M82 213v1120q0 14 10 29l180 242q10 14 29 14q14 0 25.5 -10.5t11.5 -26.5q0 -12 -6 -20l-178 -236v-1104l178 -235q6 -10 6 -21q0 -14 -11.5 -25.5t-25.5 -11.5q-18 0 -29 15l-180 241q-10 15 -10 29z" />
<glyph unicode=")" horiz-adv-x="337" d="M0 -35q0 10 6 21l178 235v1104l-178 236q-6 8 -6 20q0 16 10 26.5t27 10.5q18 0 29 -14l180 -242q10 -14 10 -29v-1120q0 -14 -10 -29l-180 -241q-10 -14 -29 -15q-16 0 -26.5 11.5t-10.5 25.5z" />
<glyph unicode="+" horiz-adv-x="550" d="M82 451q0 16 10 26t27 10h117v121q0 37 34 37q16 0 26.5 -11t10.5 -26v-121h125q14 0 25.5 -10t11.5 -26q0 -35 -37 -35h-125v-121q0 -16 -10 -26.5t-27 -10.5q-35 0 -34 37v121h-117q-37 0 -37 35z" />
<glyph unicode="," horiz-adv-x="356" d="M41 -70q0 14 12 27l162 156q10 10 25 10q35 0 34 -37q0 -16 -10 -27l-160 -153q-12 -12 -28 -12q-35 -1 -35 36z" />
<glyph unicode="-" horiz-adv-x="550" d="M82 451q0 16 10 26t27 10h313q14 0 25.5 -10t11.5 -26q0 -35 -37 -35h-313q-37 0 -37 35z" />
<glyph unicode="." horiz-adv-x="235" d="M82 27v59q0 37 35 37q14 0 25.5 -10.5t11.5 -26.5v-59q0 -14 -11.5 -25.5t-25.5 -11.5q-35 0 -35 37z" />
<glyph unicode="/" horiz-adv-x="600" d="M41 27q0 6 2 14l446 1491q6 25 33 24q14 0 25.5 -10t11.5 -26q0 -6 -2 -15l-444 -1485q-8 -31 -37 -30q-35 0 -35 37z" />
<glyph unicode="0" horiz-adv-x="1148" d="M123 289v968q0 33 16 48l221 215q27 27 56 26h317q29 0 55 -26l222 -215q16 -14 16 -48v-968q0 -33 -16 -47l-222 -215q-27 -27 -55 -27h-317q-29 0 -56 27l-221 215q-16 14 -16 47zM195 287l223 -215h313l223 215v973l-223 215h-313l-223 -215v-973z" />
<glyph unicode="1" horiz-adv-x="919" d="M41 846q0 16 10 26l643 674q10 10 24.5 10t26 -10t11.5 -26v-1493q0 -14 -11.5 -25.5t-25.5 -11.5q-35 0 -35 37v1403l-580 -609q-12 -12 -28 -12q-35 0 -35 37z" />
<glyph unicode="2" horiz-adv-x="991" d="M41 1276q0 14 14 29l221 215q27 27 56 26h317q29 0 56 -26l223 -215q14 -14 14 -31q0 -14 -8 -25l-784 -1177h763q16 0 26.5 -11.5t10.5 -25.5q0 -35 -37 -35h-829q-35 0 -35 37q0 14 8 24l805 1207l-215 207h-313l-230 -222q-14 -14 -26 -14q-16 0 -26.5 11.5 t-10.5 25.5z" />
<glyph unicode="3" horiz-adv-x="1024" d="M41 270q0 16 10 26.5t27 10.5q12 0 26 -14l230 -221h313l223 215v207l-264 251q-14 14 -14 31t10 27l268 258v199l-223 215h-313l-230 -222q-14 -14 -26 -14q-16 0 -26.5 11.5t-10.5 25.5t14 29l221 215q27 27 56 26h317q29 0 56 -26l221 -215q16 -14 16 -48v-194 q0 -33 -16 -47l-246 -240l246 -237q16 -14 16 -47v-203q0 -33 -16 -47l-221 -215q-27 -27 -56 -27h-317q-29 0 -56 27l-221 215q-14 14 -14 28z" />
<glyph unicode="4" horiz-adv-x="1024" d="M41 774q0 16 10 27l711 745q10 10 24 10q16 0 26.5 -10t10.5 -26v-711h82q16 0 26.5 -11.5t10.5 -25.5q0 -35 -37 -35h-82v-710q0 -14 -10 -25.5t-27 -11.5q-35 0 -34 37v710h-676q-35 0 -35 37zM160 809h592v621z" />
<glyph unicode="5" horiz-adv-x="1173" d="M164 250q0 16 10 26.5t27 10.5q12 0 26 -15l209 -200h320l223 215v235l-223 215h-320l-209 -200q-14 -14 -26 -15q-16 0 -26.5 11.5t-10.5 25.5v952q0 12 10 27q14 10 25 10h815q14 0 25.5 -11t11.5 -25.5t-11.5 -24.5t-25.5 -10h-778v-834l143 139q27 27 55 27h324 q29 0 55 -27l221 -215q16 -14 17 -47v-231q0 -33 -17 -47l-221 -215q-27 -27 -55 -27h-324q-29 0 -55 27l-201 194q-14 15 -14 29z" />
<glyph unicode="6" horiz-adv-x="1189" d="M164 289v968q0 33 16 48l221 215q27 27 56 26h317q29 0 55 -26l222 -215q14 -14 14 -28.5t-10.5 -26t-26.5 -11.5q-12 0 -27 14l-229 222h-313l-223 -215v-639l165 161q27 27 56 27h317q29 0 55 -27l222 -215q16 -14 16 -47v-231q0 -33 -16 -47l-222 -215 q-27 -27 -55 -27h-317q-29 0 -56 27l-221 215q-16 14 -16 47zM236 287l223 -215h313l223 215v235l-223 215h-313l-223 -215v-235z" />
<glyph unicode="7" horiz-adv-x="948" d="M41 27q0 10 6 22l391 688h-57q-37 0 -37 35q0 14 10.5 25.5t26.5 11.5h96l375 666h-772q-37 0 -37 34q0 14 11.5 25.5t25.5 11.5h831q14 0 25.5 -11t11.5 -26q0 -8 -4 -16l-385 -684h57q14 0 25.5 -11.5t11.5 -25.5q0 -35 -37 -35h-96l-409 -725q-12 -23 -35 -22 q-35 0 -35 37z" />
<glyph unicode="8" horiz-adv-x="1067" d="M82 289v231q0 33 16 47l211 205l-211 207q-16 14 -16 47v231q0 33 16 48l221 215q27 27 56 26h317q29 0 56 -26l221 -215q16 -14 16 -48v-231q0 -33 -16 -47l-213 -207l213 -205q16 -14 16 -47v-231q0 -33 -16 -47l-221 -215q-27 -27 -56 -27h-317q-29 0 -56 27l-221 215 q-16 14 -16 47zM154 287l223 -215h313l223 215v235l-223 215h-313l-223 -215v-235zM154 1024l223 -215h313l223 215v236l-223 215h-313l-223 -215v-236z" />
<glyph unicode="9" horiz-adv-x="1189" d="M123 1026v231q0 33 16 48l221 215q27 27 56 26h317q29 0 55 -26l222 -215q16 -14 16 -48v-968q0 -33 -16 -47l-222 -215q-27 -27 -55 -27h-317q-29 0 -56 27l-221 215q-14 14 -14 28q0 16 11 26.5t26 10.5q12 0 26 -14l230 -221h313l223 215v639l-166 -162 q-27 -27 -55 -27h-317q-29 0 -56 27l-221 215q-16 14 -16 47zM195 1024l223 -215h313l223 215v236l-223 215h-313l-223 -215v-236z" />
<glyph unicode=":" horiz-adv-x="235" d="M82 27v59q0 37 35 37q14 0 25.5 -10.5t11.5 -26.5v-59q0 -14 -11.5 -25.5t-25.5 -11.5q-35 0 -35 37zM82 723v59q0 37 35 37q14 0 25.5 -10t11.5 -27v-59q0 -14 -11.5 -25.5t-25.5 -11.5q-35 0 -35 37z" />
<glyph unicode=";" horiz-adv-x="358" d="M41 -70q0 14 12 27l162 156q10 10 25 10q35 0 34 -37q0 -16 -10 -27l-160 -153q-12 -12 -28 -12q-35 -1 -35 36zM205 723v59q0 37 35 37q14 0 25 -10t11 -27v-59q0 -14 -11 -25.5t-25 -11.5q-35 0 -35 37z" />
<glyph unicode="=" horiz-adv-x="550" d="M82 375q0 14 10 25.5t27 11.5h313q14 0 25.5 -11.5t11.5 -25.5q0 -35 -37 -35h-313q-37 0 -37 35zM82 528q0 16 10 26.5t27 10.5h313q14 0 25.5 -10t11.5 -27q0 -35 -37 -34h-313q-37 -1 -37 34z" />
<glyph unicode="?" horiz-adv-x="1069" d="M82 1276q0 14 14 29l221 215q27 27 56 26h317q29 0 55 -26l222 -215q20 -16 20 -37q0 -18 -16 -31l-795 -715l201 -194h313l230 221q14 14 26 14q16 0 26.5 -11t10.5 -25.5t-14 -28.5l-221 -215q-27 -27 -56 -27h-317q-29 0 -56 27l-213 206q-20 16 -20 37q0 18 16 31 l793 713l-207 205h-313l-230 -222q-14 -14 -26 -14q-16 0 -26.5 11.5t-10.5 25.5zM500 27v59q0 37 35 37q14 0 25 -10.5t11 -26.5v-59q0 -14 -11 -25.5t-25 -11.5q-35 0 -35 37z" />
<glyph unicode="A" horiz-adv-x="989" d="M41 27q0 8 4 20l414 1475q10 35 35 34q29 0 36 -34l414 -1475q4 -12 4 -20q0 -14 -11 -25.5t-26 -11.5q-29 0 -39 35l-200 712h-357l-198 -712q-10 -35 -39 -35q-16 0 -26.5 11.5t-10.5 25.5zM336 809h317l-159 563z" />
<glyph unicode="B" horiz-adv-x="1148" d="M143 37v1472q0 37 35 37h576q29 0 55 -26l221 -215q16 -14 17 -48v-194q0 -33 -17 -47l-246 -240l246 -237q16 -14 17 -47v-203q0 -33 -17 -47l-221 -215q-27 -27 -55 -27h-576q-35 0 -35 37zM215 72h537l223 215v207l-254 243h-506v-665zM215 809h498l262 252v199 l-223 215h-537v-666z" />
<glyph unicode="C" horiz-adv-x="1105" d="M123 289v968q0 33 16 48l221 215q27 27 56 26h317q29 0 55 -26l222 -215q14 -14 14 -28.5t-10 -26t-27 -11.5q-12 0 -26 14l-230 222h-313l-223 -215v-973l223 -215h313l230 221q14 14 26 14q16 0 26.5 -10t10.5 -27q0 -14 -14 -28l-222 -215q-27 -27 -55 -27h-317 q-29 0 -56 27l-221 215q-16 14 -16 47z" />
<glyph unicode="D" horiz-adv-x="1169" d="M143 37v1472q0 37 35 37h576q29 0 55 -26l221 -215q16 -14 17 -48v-968q0 -33 -17 -47l-221 -215q-27 -27 -55 -27h-576q-35 0 -35 37zM215 72h537l223 215v973l-223 215h-537v-1403z" />
<glyph unicode="E" horiz-adv-x="1173" d="M143 37v1472q0 37 35 37h836q37 0 37 -35q0 -16 -11.5 -26t-25.5 -10h-799v-666h782q37 0 37 -35q0 -16 -11 -26.5t-26 -10.5h-782v-665h799q14 0 25.5 -11.5t11.5 -25.5q0 -35 -37 -35h-836q-35 0 -35 37z" />
<glyph unicode="F" horiz-adv-x="1132" d="M143 27v1482q0 37 35 37h836q37 0 37 -35q0 -16 -11.5 -26t-25.5 -10h-799v-666h782q37 0 37 -35q0 -16 -11 -26.5t-26 -10.5h-782v-710q0 -14 -11 -25.5t-26 -11.5q-35 0 -35 37z" />
<glyph unicode="G" horiz-adv-x="1148" d="M123 289v968q0 33 16 48l221 215q27 27 56 26h317q29 0 55 -26l222 -215q14 -14 14 -28.5t-10 -26t-27 -11.5q-12 0 -26 14l-230 222h-313l-223 -215v-973l223 -215h313l223 215v450h-348q-37 0 -37 35q0 14 10.5 25.5t26.5 11.5h385q35 0 35 -37v-483q0 -33 -16 -47 l-222 -215q-27 -27 -55 -27h-317q-29 0 -56 27l-221 215q-16 14 -16 47z" />
<glyph unicode="H" horiz-adv-x="1191" d="M143 27v1493q0 37 35 36q14 0 25.5 -10t11.5 -26v-711h762v711q0 37 35 36q16 0 26.5 -10t10.5 -26v-1493q0 -14 -10.5 -25.5t-26.5 -11.5q-35 0 -35 37v710h-762v-710q0 -14 -11 -25.5t-26 -11.5q-35 0 -35 37z" />
<glyph unicode="I" horiz-adv-x="440" d="M184 27v1493q0 37 35 36q14 0 25.5 -10t11.5 -26v-1493q0 -14 -11.5 -25.5t-25.5 -11.5q-35 0 -35 37z" />
<glyph unicode="J" horiz-adv-x="1105" d="M82 270q0 16 10 26.5t27 10.5q12 0 26 -14l230 -221h313l223 215v1233q0 37 35 36q16 0 26.5 -10t10.5 -26v-1231q0 -33 -16 -47l-222 -215q-27 -27 -55 -27h-317q-29 0 -56 27l-221 215q-14 14 -14 28z" />
<glyph unicode="K" horiz-adv-x="1036" d="M143 27v1493q0 37 35 36q14 0 25.5 -10t11.5 -26v-629l709 653q12 12 26 12q16 0 26.5 -10t10.5 -26.5t-12 -28.5l-744 -682l752 -754q12 -12 12 -28q0 -14 -10 -25.5t-27 -11.5q-14 0 -26 12l-717 723v-698q0 -14 -11 -25.5t-26 -11.5q-35 0 -35 37z" />
<glyph unicode="L" horiz-adv-x="1091" d="M143 37v1483q0 37 35 36q14 0 25.5 -10t11.5 -26v-1448h799q14 0 25.5 -11.5t11.5 -25.5q0 -35 -37 -35h-836q-35 0 -35 37z" />
<glyph unicode="M" horiz-adv-x="1583" d="M143 27v1493q0 37 35 36q18 0 27 -12l586 -717l585 717q10 12 27 12q14 0 25.5 -10t11.5 -26v-1493q0 -14 -11.5 -25.5t-25.5 -11.5q-35 0 -35 37v1394l-549 -671q-12 -12 -28.5 -12.5t-26.5 12.5l-549 671v-1394q0 -14 -11 -25.5t-26 -11.5q-35 0 -35 37z" />
<glyph unicode="N" horiz-adv-x="1191" d="M143 27v1493q0 37 35 36q23 0 33 -20l766 -1374v1358q0 37 35 36q16 0 26.5 -10t10.5 -26v-1493q0 -14 -10.5 -25.5t-26.5 -11.5q-20 0 -33 22l-764 1368v-1353q0 -14 -11 -25.5t-26 -11.5q-35 0 -35 37z" />
<glyph unicode="O" horiz-adv-x="1148" d="M123 289v968q0 33 16 48l221 215q27 27 56 26h317q29 0 55 -26l222 -215q16 -14 16 -48v-968q0 -33 -16 -47l-222 -215q-27 -27 -55 -27h-317q-29 0 -56 27l-221 215q-16 14 -16 47zM195 287l223 -215h313l223 215v973l-223 215h-313l-223 -215v-973z" />
<glyph unicode="P" horiz-adv-x="1128" d="M143 27v1482q0 37 35 37h576q29 0 55 -26l221 -215q16 -14 17 -48v-231q0 -33 -17 -47l-221 -215q-27 -27 -55 -27h-539v-710q0 -14 -11 -25.5t-26 -11.5q-35 0 -35 37zM215 809h537l223 215v236l-223 215h-537v-666z" />
<glyph unicode="Q" horiz-adv-x="1159" d="M123 289v968q0 33 16 48l221 215q27 27 56 26h317q29 0 55 -26l222 -215q16 -14 16 -48v-968q0 -33 -16 -47l-90 -88l102 -99q14 -14 14 -28.5t-10 -25.5t-27 -11q-12 0 -26 14l-105 100l-80 -77q-27 -27 -55 -27h-317q-29 0 -56 27l-221 215q-16 14 -16 47zM195 287 l223 -215h313l86 84l-67 67q-14 14 -14.5 28.5t11 26t25.5 11.5q12 0 27 -15l69 -69l86 82v973l-223 215h-313l-223 -215v-973z" />
<glyph unicode="R" horiz-adv-x="1136" d="M143 27v1482q0 37 35 37h576q29 0 55 -26l221 -215q16 -14 17 -48v-231q0 -33 -17 -47l-219 -213l258 -715q6 -14 6 -24q0 -14 -11 -25.5t-26 -11.5q-23 0 -32 24l-263 723h-528v-710q0 -14 -11 -25.5t-26 -11.5q-35 0 -35 37zM215 809h537l223 215v236l-223 215h-537 v-666z" />
<glyph unicode="S" horiz-adv-x="1024" d="M61 270q0 16 10.5 26.5t26.5 10.5q12 0 27 -14l229 -221h314l223 215v221l-809 479q-20 12 -21 49v221q0 33 17 48l221 215q27 27 55 26h318q29 0 55 -26l221 -215q14 -14 14.5 -28.5t-10 -26t-26.5 -11.5q-12 0 -27 14l-229 222h-314l-223 -215v-222l809 -477 q20 -12 21 -49v-223q0 -33 -17 -47l-221 -215q-27 -27 -55 -27h-318q-29 0 -55 27l-221 215q-15 14 -15 28z" />
<glyph unicode="T" horiz-adv-x="991" d="M41 1509q0 14 10 25.5t27 11.5h835q16 0 26.5 -11t10.5 -26q0 -35 -37 -34h-385v-1448q0 -14 -10 -25.5t-26 -11.5q-35 0 -35 37v1448h-379q-37 -1 -37 34z" />
<glyph unicode="U" horiz-adv-x="1189" d="M143 289v1231q0 37 35 36q14 0 25.5 -10t11.5 -26v-1233l223 -215h314l223 215v1233q0 37 35 36q16 0 26.5 -11t10.5 -27v-1229q0 -33 -17 -47l-221 -215q-27 -27 -55 -27h-318q-29 0 -55 27l-221 215q-17 14 -17 47z" />
<glyph unicode="V" horiz-adv-x="919" d="M0 1520q0 37 35 36q27 0 37 -30l387 -1366l389 1368q10 29 35 28q14 0 25.5 -10t11.5 -26q0 -8 -2 -17l-422 -1483q-8 -31 -37 -30q-27 0 -35 28l-422 1487q-2 9 -2 15z" />
<glyph unicode="W" horiz-adv-x="1376" d="M41 1520q0 37 35 36q31 0 37 -30l282 -1376l260 647q10 23 33 22.5t33 -22.5l260 -647l283 1376q6 31 36 30q35 0 35 -36q0 -6 -2 -15l-305 -1482q-6 -33 -37 -33q-25 0 -33 22l-270 674l-270 -674q-8 -23 -33 -22q-31 0 -37 33l-305 1482q-2 9 -2 15z" />
<glyph unicode="X" horiz-adv-x="901" d="M0 27q0 10 6 22l402 725l-404 727q-4 8 -4 19q0 37 35 36q20 0 31 -16l385 -694l385 694q10 16 30 16q35 0 35 -36q0 -10 -4 -19l-403 -727l401 -725q6 -12 6 -22q0 -37 -35 -37q-23 0 -35 22l-380 690l-381 -690q-12 -23 -35 -22q-35 0 -35 37z" />
<glyph unicode="Y" horiz-adv-x="901" d="M0 1520q0 37 35 36q20 0 31 -16l387 -694l383 694q10 16 30 16q35 0 35 -36q0 -10 -4 -19l-408 -741v-733q0 -14 -11 -25.5t-25 -11.5q-35 0 -35 37v733l-414 741q-4 9 -4 19z" />
<glyph unicode="Z" horiz-adv-x="1073" d="M82 35q0 10 6 20l809 1420h-778q-37 0 -37 34q0 14 10 25.5t27 11.5h835q16 0 26.5 -11t10.5 -26q0 -10 -6 -20l-807 -1417h776q16 0 26.5 -11.5t10.5 -25.5q0 -35 -37 -35h-835q-37 0 -37 35z" />
<glyph unicode="\" horiz-adv-x="600" d="M41 1520q0 16 10 26t27 10q27 0 33 -24l446 -1491q2 -8 2 -14q0 -37 -35 -37q-29 0 -37 30l-444 1485q-2 9 -2 15z" />
<glyph unicode="_" horiz-adv-x="724" d="M82 -47q0 14 10 25.5t27 11.5h487q16 0 26.5 -11.5t10.5 -25.5q0 -35 -37 -35h-487q-37 0 -37 35z" />
<glyph unicode="`" horiz-adv-x="493" d="M82 1190q0 14 10 25.5t27 11.5q8 0 20 -6l254 -127q18 -8 19 -33q0 -37 -35 -37q-8 0 -21 6l-254 127q-20 10 -20 33z" />
<glyph unicode="a" d="M82 289v231q0 33 16 47l221 215q27 27 56 27h188q29 0 55 -27l166 -161v161q0 37 35 37q16 0 26.5 -10t10.5 -27v-755q0 -14 -10 -25.5t-27 -11.5q-35 0 -35 37v161l-166 -161q-27 -27 -55 -27h-188q-29 0 -56 27l-221 215q-16 14 -16 47zM154 287l223 -215h184l223 215 v235l-223 215h-184l-223 -215v-235z" />
<glyph unicode="b" horiz-adv-x="999" d="M143 27v1493q0 16 10.5 26t26.5 10q35 0 35 -36v-899l166 161q27 27 55 27h189q29 0 55 -27l221 -215q16 -14 17 -47v-231q0 -33 -17 -47l-221 -215q-27 -27 -55 -27h-189q-29 0 -55 27l-166 161v-161q0 -37 -35 -37q-16 0 -26.5 11.5t-10.5 25.5zM215 287l223 -215h185 l223 215v235l-223 215h-185l-223 -215v-235z" />
<glyph unicode="c" horiz-adv-x="915" d="M82 289v231q0 33 16 47l221 215q27 27 56 27h188q29 0 55 -27l201 -194q14 -14 14.5 -28.5t-11 -26t-25.5 -11.5q-12 0 -27 15l-209 200h-184l-223 -215v-235l223 -215h184l209 200q14 14 27 15q14 0 25.5 -10.5t11.5 -26.5q0 -14 -15 -29l-201 -194q-27 -27 -55 -27 h-188q-29 0 -56 27l-221 215q-16 14 -16 47z" />
<glyph unicode="d" horiz-adv-x="999" d="M82 289v231q0 33 16 47l221 215q27 27 56 27h188q29 0 55 -27l166 -161v899q0 37 35 36q16 0 26.5 -10t10.5 -26v-1493q0 -14 -10 -25.5t-27 -11.5q-35 0 -35 37v161l-166 -161q-27 -27 -55 -27h-188q-29 0 -56 27l-221 215q-16 14 -16 47zM154 287l223 -215h184l223 215 v235l-223 215h-184l-223 -215v-235z" />
<glyph unicode="e" horiz-adv-x="915" d="M82 289v231q0 33 16 47l221 215q27 27 56 27h188q29 0 55 -27l216 -219q20 -20 20 -43q0 -16 -11.5 -26.5t-25.5 -10.5h-663v-196l223 -215h184l209 200q14 14 27 15q14 0 25.5 -10.5t11.5 -26.5q0 -14 -15 -29l-201 -194q-27 -27 -55 -27h-188q-29 0 -56 27l-221 215 q-16 14 -16 47zM186 555h553l-178 182h-184z" />
<glyph unicode="f" horiz-adv-x="509" d="M143 27v1230q0 33 17 48l246 237q14 14 26 14q14 0 25.5 -10t11.5 -26q0 -14 -14 -29l-240 -231v-451h217q37 0 37 -35q0 -16 -11.5 -26.5t-25.5 -10.5h-217v-710q0 -14 -11 -25.5t-26 -11.5q-35 0 -35 37z" />
<glyph unicode="g" d="M82 289v231q0 33 16 47l221 215q27 27 56 27h188q29 0 55 -27l166 -161v161q0 37 35 37q16 0 26.5 -10t10.5 -27v-1005q0 -33 -16 -47l-222 -215q-27 -27 -55 -27h-188q-29 0 -56 27l-200 194q-14 14 -15 29q0 16 11.5 26.5t25.5 10.5q12 0 27 -15l209 -200h184l223 215 v411l-166 -159q-27 -27 -55 -27h-188q-29 0 -56 27l-221 215q-16 14 -16 47zM154 287l223 -215h184l223 215v235l-223 215h-184l-223 -215v-235z" />
<glyph unicode="h" horiz-adv-x="999" d="M143 27v1493q0 37 35 36q14 0 25.5 -10t11.5 -26v-902l152 164q27 27 53 27h211q29 0 55 -27l215 -231q16 -20 17 -47v-477q0 -14 -10.5 -25.5t-26.5 -11.5q-35 0 -35 37v477l-215 233h-211l-205 -223v-487q0 -14 -11 -25.5t-26 -11.5q-35 0 -35 37z" />
<glyph unicode="i" horiz-adv-x="317" d="M123 27v755q0 37 35 37q14 0 25.5 -10t11.5 -27v-755q0 -14 -11.5 -25.5t-25.5 -11.5q-35 0 -35 37zM123 1061v90q0 37 35 37q14 0 25.5 -10.5t11.5 -26.5v-90q0 -16 -11.5 -26.5t-25.5 -10.5q-35 0 -35 37z" />
<glyph unicode="j" horiz-adv-x="346" d="M-102 -485.5q0 14.5 14 28.5l240 232v1007q0 37 34 37q14 0 25.5 -10t11.5 -27v-1005q0 -33 -16 -47l-246 -238q-14 -14 -27 -14q-16 0 -26 11t-10 25.5zM152 1061v90q0 37 34 37q14 0 25.5 -10.5t11.5 -26.5v-90q0 -16 -11 -26.5t-26 -10.5q-34 0 -34 37z" />
<glyph unicode="k" horiz-adv-x="866" d="M143 27v1493q0 37 35 36q14 0 25.5 -10t11.5 -26v-1080l397 367q12 12 27 12q16 0 26.5 -10t10.5 -26.5t-12 -28.5l-271 -246l451 -453q12 -12 12 -28q0 -14 -10 -25.5t-27 -11.5q-14 0 -26 12l-453 457l-125 -115v-317q0 -14 -11 -25.5t-26 -11.5q-35 0 -35 37z" />
<glyph unicode="l" horiz-adv-x="358" d="M143 27v1493q0 37 35 36q14 0 25.5 -10t11.5 -26v-1493q0 -14 -11 -25.5t-26 -11.5q-35 0 -35 37z" />
<glyph unicode="m" horiz-adv-x="1280" d="M123 27v755q0 37 35 37q14 0 25.5 -10t11.5 -27v-164l151 164q37 37 53 37q10 0 18.5 -4t12.5 -7t13.5 -13.5t11.5 -12.5l190 -207l193 207q37 37 53 37q10 0 18.5 -4t12.5 -7t13 -13.5t11 -12.5l215 -231q16 -20 17 -47v-477q0 -14 -11.5 -25.5t-25.5 -11.5 q-35 0 -35 37v477l-215 233l-205 -223v-487q0 -14 -11 -25.5t-26 -11.5q-35 0 -35 37v477l-215 233l-204 -223v-487q0 -14 -11.5 -25.5t-25.5 -11.5q-35 0 -35 37z" />
<glyph unicode="n" horiz-adv-x="999" d="M123 27v755q0 37 35 37q14 0 25.5 -10t11.5 -27v-164l151 164q27 27 53 27h211q29 0 56 -27l215 -231q16 -20 16 -47v-477q0 -14 -10 -25.5t-27 -11.5q-35 0 -35 37v477l-215 233h-211l-204 -223v-487q0 -14 -11.5 -25.5t-25.5 -11.5q-35 0 -35 37z" />
<glyph unicode="o" horiz-adv-x="937" d="M82 289v231q0 33 16 47l221 215q27 27 56 27h188q29 0 55 -27l222 -215q16 -14 16 -47v-231q0 -33 -16 -47l-222 -215q-27 -27 -55 -27h-188q-29 0 -56 27l-221 215q-16 14 -16 47zM154 287l223 -215h184l223 215v235l-223 215h-184l-223 -215v-235z" />
<glyph unicode="p" d="M123 -475v1257q0 16 10 26.5t27 10.5q35 0 35 -37v-161l165 161q27 27 56 27h188q29 0 55 -27l222 -215q16 -14 16 -47v-231q0 -33 -16 -47l-222 -215q-27 -27 -55 -27h-188q-29 0 -56 27l-165 161v-663q0 -37 -35 -37q-16 0 -26.5 10.5t-10.5 26.5zM195 287l223 -215 h184l223 215v235l-223 215h-184l-223 -215v-235z" />
<glyph unicode="q" d="M82 289v231q0 33 16 47l221 215q27 27 56 27h188q29 0 55 -27l166 -161v161q0 37 35 37q16 0 26.5 -10t10.5 -27v-1257q0 -16 -10 -26.5t-27 -10.5q-35 0 -35 37v663l-166 -161q-27 -27 -55 -27h-188q-29 0 -56 27l-221 215q-16 14 -16 47zM154 287l223 -215h184l223 215 v235l-223 215h-184l-223 -215v-235z" />
<glyph unicode="r" horiz-adv-x="659" d="M123 27v755q0 37 35 37q14 0 25.5 -10t11.5 -27v-161l165 161q27 27 56 27h186q16 0 26.5 -11.5t10.5 -25.5q0 -35 -37 -35h-184l-223 -215v-495q0 -14 -11.5 -25.5t-25.5 -11.5q-35 0 -35 37z" />
<glyph unicode="s" horiz-adv-x="960" d="M102 530q0 20 21 37l221 215q27 27 55 27h189q29 0 55 -27l201 -194q14 -14 14 -28.5t-11 -26t-26 -11.5q-12 0 -26 15l-209 200h-185l-196 -192l618 -234q33 -10 33 -39q0 -16 -12 -28l-223 -217q-27 -27 -56 -27h-188q-29 0 -55 27l-201 194q-14 14 -15 29 q0 16 10.5 26.5t26.5 10.5q12 0 27 -15l209 -200h184l191 186l-627 236q-25 9 -25 36z" />
<glyph unicode="t" horiz-adv-x="598" d="M41 772q0 14 10 25.5t27 11.5h182v311q0 37 35 37q16 0 26.5 -11t10.5 -26v-311h188q16 0 26.5 -11.5t10.5 -25.5q0 -35 -37 -35h-188v-710q0 -14 -10.5 -25.5t-26.5 -11.5q-35 0 -35 37v710h-182q-37 0 -37 35z" />
<glyph unicode="u" d="M102 289v493q0 37 35 37q14 0 25.5 -10t11.5 -27v-495l223 -215h185l223 215v495q0 37 35 37q16 0 26.5 -11t10.5 -28v-491q0 -33 -17 -47l-221 -215q-27 -27 -55 -27h-189q-29 0 -55 27l-221 215q-17 14 -17 47z" />
<glyph unicode="v" horiz-adv-x="811" d="M10 782q0 37 35 37q23 0 33 -20l328 -688l327 690q8 18 31 18q14 0 25.5 -10t11.5 -27q0 -10 -4 -18l-359 -754q-12 -20 -32 -20q-23 0 -33 22l-359 752q-4 8 -4 18z" />
<glyph unicode="w" horiz-adv-x="1126" d="M41 782q0 37 35 37q29 0 35 -24l215 -660l204 660q6 25 33 24.5t33 -24.5l205 -660l215 660q6 25 35 24q35 0 34 -37q0 -4 -4 -20l-241 -744q-8 -29 -35 -28q-29 0 -37 28l-205 639l-205 -639q-8 -29 -36 -28q-27 0 -35 28l-242 744q-4 16 -4 20z" />
<glyph unicode="x" horiz-adv-x="847" d="M41 27q0 16 10 26l326 350l-320 353q-10 12 -10 26q0 37 35 37q16 0 29 -12l313 -350l313 350q12 12 29 12q35 0 35 -37q0 -14 -10 -26l-320 -353l326 -350q10 -10 10 -26q0 -37 -35 -37q-16 0 -29 12l-319 350l-320 -350q-12 -12 -28 -12q-35 0 -35 37z" />
<glyph unicode="y" horiz-adv-x="843" d="M10 782q0 37 35 37q23 0 33 -20l346 -723l342 725q8 18 31 18q14 0 25.5 -10t11.5 -27q0 -10 -5 -18l-600 -1266q-8 -20 -32 -20q-35 0 -35 37q0 10 6 22l215 455l-369 772q-4 8 -4 18z" />
<glyph unicode="z" horiz-adv-x="847" d="M41 35q0 14 12 26l631 676h-606q-37 0 -37 35q0 14 10 25.5t27 11.5h688q16 0 26.5 -11.5t10.5 -25.5t-10 -24l-629 -676h606q16 0 26.5 -11.5t10.5 -25.5q0 -35 -37 -35h-692q-37 0 -37 35z" />
<glyph unicode="|" horiz-adv-x="481" d="M205 -158v1862q0 37 35 37q14 0 25 -10.5t11 -26.5v-1862q0 -14 -11 -25.5t-25 -11.5q-35 0 -35 37z" />
<glyph unicode="&#xa1;" horiz-adv-x="399" d="M164 524q0 37 35 37q14 0 25.5 -10t11.5 -27v-1235q0 -14 -11.5 -25.5t-25.5 -11.5q-35 0 -35 37v1235zM164 723v59q0 37 35 37q14 0 25.5 -10t11.5 -27v-59q0 -14 -11.5 -25.5t-25.5 -11.5q-35 0 -35 37z" />
<glyph unicode="&#xa8;" horiz-adv-x="487" d="M82 1061v59q0 37 35 37q14 0 25.5 -11t11.5 -26v-59q0 -16 -11.5 -26.5t-25.5 -10.5q-35 0 -35 37zM334 1061v59q0 37 35 37q16 0 26.5 -11t10.5 -26v-59q0 -16 -10.5 -26.5t-26.5 -10.5q-35 0 -35 37z" />
<glyph unicode="&#xaa;" d="M82 289v231q0 33 16 47l221 215q27 27 56 27h188q29 0 55 -27l166 -161v161q0 37 35 37q16 0 26.5 -10t10.5 -27v-755q0 -14 -10 -25.5t-27 -11.5q-35 0 -35 37v161l-166 -161q-27 -27 -55 -27h-188q-29 0 -56 27l-221 215q-16 14 -16 47zM154 287l223 -215h184l223 215 v235l-223 215h-184l-223 -215v-235z" />
<glyph unicode="&#xab;" horiz-adv-x="751" d="M123 487.5q0 10.5 6 22.5l121 215q10 18 33 18q37 0 36 -34q0 -8 -6 -21l-112 -201l112 -200q6 -12 6 -21q0 -35 -36 -35q-23 0 -33 19l-121 215q-6 12 -6 22.5zM432 487.5q0 10.5 6 22.5l121 215q10 18 33 18q37 0 37 -34q0 -8 -6 -21l-113 -201l113 -200q6 -12 6 -21 q0 -35 -37 -35q-23 0 -33 19l-121 215q-6 12 -6 22.5z" />
<glyph unicode="&#xad;" horiz-adv-x="550" d="M82 451q0 16 10 26t27 10h313q14 0 25.5 -10t11.5 -26q0 -35 -37 -35h-313q-37 0 -37 35z" />
<glyph unicode="&#xb2;" horiz-adv-x="991" d="M41 1276q0 14 14 29l221 215q27 27 56 26h317q29 0 56 -26l223 -215q14 -14 14 -31q0 -14 -8 -25l-784 -1177h763q16 0 26.5 -11.5t10.5 -25.5q0 -35 -37 -35h-829q-35 0 -35 37q0 14 8 24l805 1207l-215 207h-313l-230 -222q-14 -14 -26 -14q-16 0 -26.5 11.5 t-10.5 25.5z" />
<glyph unicode="&#xb3;" horiz-adv-x="1024" d="M41 270q0 16 10 26.5t27 10.5q12 0 26 -14l230 -221h313l223 215v207l-264 251q-14 14 -14 31t10 27l268 258v199l-223 215h-313l-230 -222q-14 -14 -26 -14q-16 0 -26.5 11.5t-10.5 25.5t14 29l221 215q27 27 56 26h317q29 0 56 -26l221 -215q16 -14 16 -48v-194 q0 -33 -16 -47l-246 -240l246 -237q16 -14 16 -47v-203q0 -33 -16 -47l-221 -215q-27 -27 -56 -27h-317q-29 0 -56 27l-221 215q-14 14 -14 28z" />
<glyph unicode="&#xb4;" horiz-adv-x="493" d="M82 1061q0 25 18 33l254 127q12 6 21 6q14 0 25.5 -11.5t11.5 -25.5q0 -23 -21 -33l-254 -127q-12 -6 -20 -6q-35 0 -35 37z" />
<glyph unicode="&#xb9;" horiz-adv-x="919" d="M41 846q0 16 10 26l643 674q10 10 24.5 10t26 -10t11.5 -26v-1493q0 -14 -11.5 -25.5t-25.5 -11.5q-35 0 -35 37v1403l-580 -609q-12 -12 -28 -12q-35 0 -35 37z" />
<glyph unicode="&#xba;" horiz-adv-x="937" d="M82 289v231q0 33 16 47l221 215q27 27 56 27h188q29 0 55 -27l222 -215q16 -14 16 -47v-231q0 -33 -16 -47l-222 -215q-27 -27 -55 -27h-188q-29 0 -56 27l-221 215q-16 14 -16 47zM154 287l223 -215h184l223 215v235l-223 215h-184l-223 -215v-235z" />
<glyph unicode="&#xbb;" horiz-adv-x="751" d="M123 266q0 8 6 21l113 200l-113 201q-6 12 -6 21q0 35 37 34q23 0 33 -18l120 -215q6 -12 6 -22.5t-6 -22.5l-120 -215q-10 -18 -33 -19q-37 0 -37 35zM432 266q0 8 6 21l113 200l-113 201q-6 12 -6 21q0 35 37 34q23 0 33 -18l121 -215q6 -12 6 -22.5t-6 -22.5 l-121 -215q-10 -18 -33 -19q-37 0 -37 35z" />
<glyph unicode="&#xbf;" horiz-adv-x="1069" d="M82 -459q0 18 16 31l795 715l-201 194h-313l-229 -221q-14 -14 -27 -14q-16 0 -26.5 10t-10.5 27q0 14 14 28l222 215q27 27 55 27h317q29 0 56 -27l213 -207q20 -16 20 -36q0 -18 -16 -31l-793 -713l207 -205h313l230 222q14 14 26 14q16 0 26.5 -10.5t10.5 -26.5 q0 -14 -14 -29l-221 -215q-27 -27 -56 -26h-317q-29 0 -55 26l-222 215q-20 17 -20 37zM498 723v59q0 16 11 26.5t26 10.5q35 0 34 -37v-59q0 -37 -34 -37q-14 0 -25.5 11.5t-11.5 25.5z" />
<glyph unicode="&#xc0;" horiz-adv-x="948" d="M20 27q0 8 5 20l413 1475q10 35 35 34q29 0 37 -34l414 -1475q4 -12 4 -20q0 -14 -11.5 -25.5t-25.5 -11.5q-29 0 -39 35l-201 712h-356l-199 -712q-10 -35 -39 -35q-16 0 -26.5 11.5t-10.5 25.5zM309 1927q0 14 11.5 25.5t25.5 11.5q8 0 21 -6l254 -127q18 -8 18 -33 q0 -37 -35 -37q-8 0 -20 6l-254 127q-21 10 -21 33zM315 809h318l-160 563z" />
<glyph unicode="&#xc1;" horiz-adv-x="948" d="M20 27q0 8 5 20l413 1475q10 35 35 34q29 0 37 -34l414 -1475q4 -12 4 -20q0 -14 -11.5 -25.5t-25.5 -11.5q-29 0 -39 35l-201 712h-356l-199 -712q-10 -35 -39 -35q-16 0 -26.5 11.5t-10.5 25.5zM309 1798q0 25 19 33l254 127q12 6 20 6q16 0 26.5 -11t10.5 -26 q0 -23 -21 -33l-253 -127q-12 -6 -21 -6q-35 0 -35 37zM315 809h318l-160 563z" />
<glyph unicode="&#xc2;" horiz-adv-x="948" d="M20 27q0 8 5 20l413 1475q10 35 35 34q29 0 37 -34l414 -1475q4 -12 4 -20q0 -14 -11.5 -25.5t-25.5 -11.5q-29 0 -39 35l-201 712h-356l-199 -712q-10 -35 -39 -35q-16 0 -26.5 11.5t-10.5 25.5zM217 1798q0 23 19 33l215 121q12 6 22 6t23 -6l215 -121q18 -10 18 -33 q0 -37 -35 -37q-8 0 -20 6l-201 113l-201 -113q-12 -6 -20 -6q-35 0 -35 37zM315 809h318l-160 563z" />
<glyph unicode="&#xc4;" horiz-adv-x="948" d="M20 27q0 8 5 20l413 1475q10 35 35 34q29 0 37 -34l414 -1475q4 -12 4 -20q0 -14 -11.5 -25.5t-25.5 -11.5q-29 0 -39 35l-201 712h-356l-199 -712q-10 -35 -39 -35q-16 0 -26.5 11.5t-10.5 25.5zM311 1798v60q0 37 35 36q14 0 25.5 -11t11.5 -25v-60q0 -16 -11.5 -26.5 t-25.5 -10.5q-35 0 -35 37zM315 809h318l-160 563zM563 1798v60q0 37 35 36q16 0 26.5 -11t10.5 -25v-60q0 -16 -10.5 -26.5t-26.5 -10.5q-35 0 -35 37z" />
<glyph unicode="&#xc8;" horiz-adv-x="1193" d="M164 37v1472q0 37 35 37h835q37 0 37 -35q0 -16 -11 -26t-26 -10h-798v-666h782q37 0 37 -35q0 -16 -11.5 -26.5t-25.5 -10.5h-782v-665h798q14 0 25.5 -11.5t11.5 -25.5q0 -35 -37 -35h-835q-35 0 -35 37zM432 1927q0 14 11.5 25.5t25.5 11.5q8 0 20 -6l254 -127 q18 -8 19 -33q0 -37 -35 -37q-8 0 -20 6l-254 127q-21 10 -21 33z" />
<glyph unicode="&#xc9;" horiz-adv-x="1193" d="M164 37v1472q0 37 35 37h835q37 0 37 -35q0 -16 -11 -26t-26 -10h-798v-666h782q37 0 37 -35q0 -16 -11.5 -26.5t-25.5 -10.5h-782v-665h798q14 0 25.5 -11.5t11.5 -25.5q0 -35 -37 -35h-835q-35 0 -35 37zM432 1798q0 25 19 33l254 127q12 6 20 6q16 0 26.5 -11 t10.5 -26q0 -23 -21 -33l-254 -127q-12 -6 -20 -6q-35 0 -35 37z" />
<glyph unicode="&#xca;" horiz-adv-x="1193" d="M164 37v1472q0 37 35 37h835q37 0 37 -35q0 -16 -11 -26t-26 -10h-798v-666h782q37 0 37 -35q0 -16 -11.5 -26.5t-25.5 -10.5h-782v-665h798q14 0 25.5 -11.5t11.5 -25.5q0 -35 -37 -35h-835q-35 0 -35 37zM340 1798q0 23 18 33l215 121q12 6 22.5 6t22.5 -6l216 -121 q18 -10 18 -33q0 -37 -35 -37q-8 0 -20 6l-201 113l-201 -113q-12 -6 -20 -6q-35 0 -35 37z" />
<glyph unicode="&#xcb;" horiz-adv-x="1193" d="M164 37v1472q0 37 35 37h835q37 0 37 -35q0 -16 -11 -26t-26 -10h-798v-666h782q37 0 37 -35q0 -16 -11.5 -26.5t-25.5 -10.5h-782v-665h798q14 0 25.5 -11.5t11.5 -25.5q0 -35 -37 -35h-835q-35 0 -35 37zM434 1798v60q0 37 35 36q14 0 25.5 -11t11.5 -25v-60 q0 -16 -11.5 -26.5t-25.5 -10.5q-35 0 -35 37zM686 1798v60q0 37 35 36q16 0 26.5 -11t10.5 -25v-60q0 -16 -10.5 -26.5t-26.5 -10.5q-35 0 -35 37z" />
<glyph unicode="&#xcc;" horiz-adv-x="481" d="M76 1927q0 14 11 25.5t26 11.5q8 0 20 -6l254 -127q18 -8 19 -33q0 -37 -35 -37q-8 0 -21 6l-254 127q-20 10 -20 33zM205 27v1493q0 37 35 36q14 0 25 -10t11 -26v-1493q0 -14 -11 -25.5t-25 -11.5q-35 0 -35 37z" />
<glyph unicode="&#xcd;" horiz-adv-x="481" d="M76 1798q0 25 18 33l254 127q12 6 21 6q16 0 26.5 -11t10.5 -26q0 -23 -21 -33l-254 -127q-12 -6 -20 -6q-35 0 -35 37zM205 27v1493q0 37 35 36q14 0 25 -10t11 -26v-1493q0 -14 -11 -25.5t-25 -11.5q-35 0 -35 37z" />
<glyph unicode="&#xce;" horiz-adv-x="481" d="M-14 1798q0 23 18 33l215 121q12 6 22.5 6t22.5 -6l215 -121q18 -10 19 -33q0 -37 -35 -37q-8 0 -21 6l-200 113l-201 -113q-12 -6 -21 -6q-34 0 -34 37zM205 27v1493q0 37 35 36q14 0 25 -10t11 -26v-1493q0 -14 -11 -25.5t-25 -11.5q-35 0 -35 37z" />
<glyph unicode="&#xcf;" horiz-adv-x="481" d="M80 1798v60q0 37 35 36q16 0 26.5 -11t10.5 -25v-60q0 -16 -10.5 -26.5t-26.5 -10.5q-35 0 -35 37zM205 27v1493q0 37 35 36q14 0 25 -10t11 -26v-1493q0 -14 -11 -25.5t-25 -11.5q-35 0 -35 37zM332 1798v60q0 37 35 36q14 0 25 -11t11 -25v-60q0 -16 -11 -26.5 t-25 -10.5q-35 0 -35 37z" />
<glyph unicode="&#xd2;" horiz-adv-x="1148" d="M123 289v968q0 33 16 48l221 215q27 27 56 26h317q29 0 55 -26l222 -215q16 -14 16 -48v-968q0 -33 -16 -47l-222 -215q-27 -27 -55 -27h-317q-29 0 -56 27l-221 215q-16 14 -16 47zM195 287l223 -215h313l223 215v973l-223 215h-313l-223 -215v-973zM410 1927 q0 14 10 25.5t26 11.5q8 0 21 -6l254 -127q18 -8 18 -33q0 -37 -34 -37q-8 0 -21 6l-254 127q-20 10 -20 33z" />
<glyph unicode="&#xd3;" horiz-adv-x="1148" d="M123 289v968q0 33 16 48l221 215q27 27 56 26h317q29 0 55 -26l222 -215q16 -14 16 -48v-968q0 -33 -16 -47l-222 -215q-27 -27 -55 -27h-317q-29 0 -56 27l-221 215q-16 14 -16 47zM195 287l223 -215h313l223 215v973l-223 215h-313l-223 -215v-973zM410 1798 q0 25 18 33l254 127q12 6 20 6q14 0 25.5 -11t11.5 -26q0 -23 -20 -33l-254 -127q-12 -6 -21 -6q-34 0 -34 37z" />
<glyph unicode="&#xd4;" horiz-adv-x="1148" d="M123 289v968q0 33 16 48l221 215q27 27 56 26h317q29 0 55 -26l222 -215q16 -14 16 -48v-968q0 -33 -16 -47l-222 -215q-27 -27 -55 -27h-317q-29 0 -56 27l-221 215q-16 14 -16 47zM195 287l223 -215h313l223 215v973l-223 215h-313l-223 -215v-973zM317 1798 q0 23 19 33l215 121q12 6 22.5 6t22.5 -6l215 -121q18 -10 18 -33q0 -37 -34 -37q-8 0 -21 6l-201 113l-200 -113q-12 -6 -21 -6q-35 0 -35 37z" />
<glyph unicode="&#xd6;" horiz-adv-x="1148" d="M123 289v968q0 33 16 48l221 215q27 27 56 26h317q29 0 55 -26l222 -215q16 -14 16 -48v-968q0 -33 -16 -47l-222 -215q-27 -27 -55 -27h-317q-29 0 -56 27l-221 215q-16 14 -16 47zM195 287l223 -215h313l223 215v973l-223 215h-313l-223 -215v-973zM412 1798v60 q0 37 34 36q16 0 26.5 -11t10.5 -25v-60q0 -16 -10 -26.5t-27 -10.5q-34 0 -34 37zM664 1798v60q0 37 34 36q14 0 25.5 -11t11.5 -25v-60q0 -16 -11 -26.5t-26 -10.5q-34 0 -34 37z" />
<glyph unicode="&#xd9;" horiz-adv-x="1189" d="M143 289v1231q0 37 35 36q14 0 25.5 -10t11.5 -26v-1233l223 -215h314l223 215v1233q0 37 35 36q16 0 26.5 -11t10.5 -27v-1229q0 -33 -17 -47l-221 -215q-27 -27 -55 -27h-318q-29 0 -55 27l-221 215q-17 14 -17 47zM430 1927q0 14 10.5 25.5t26.5 11.5q8 0 20 -6 l254 -127q18 -8 19 -33q0 -37 -35 -37q-8 0 -20 6l-254 127q-21 10 -21 33z" />
<glyph unicode="&#xda;" horiz-adv-x="1189" d="M143 289v1231q0 37 35 36q14 0 25.5 -10t11.5 -26v-1233l223 -215h314l223 215v1233q0 37 35 36q16 0 26.5 -11t10.5 -27v-1229q0 -33 -17 -47l-221 -215q-27 -27 -55 -27h-318q-29 0 -55 27l-221 215q-17 14 -17 47zM430 1798q0 25 19 33l253 127q12 6 21 6 q14 0 25.5 -11t11.5 -26q0 -23 -21 -33l-254 -127q-12 -6 -20 -6q-35 0 -35 37z" />
<glyph unicode="&#xdb;" horiz-adv-x="1189" d="M143 289v1231q0 37 35 36q14 0 25.5 -10t11.5 -26v-1233l223 -215h314l223 215v1233q0 37 35 36q16 0 26.5 -11t10.5 -27v-1229q0 -33 -17 -47l-221 -215q-27 -27 -55 -27h-318q-29 0 -55 27l-221 215q-17 14 -17 47zM338 1798q0 23 18 33l215 121q12 6 22.5 6t22.5 -6 l215 -121q18 -10 19 -33q0 -37 -35 -37q-8 0 -20 6l-201 113l-201 -113q-12 -6 -20 -6q-35 0 -35 37z" />
<glyph unicode="&#xdc;" horiz-adv-x="1189" d="M143 289v1231q0 37 35 36q14 0 25.5 -10t11.5 -26v-1233l223 -215h314l223 215v1233q0 37 35 36q16 0 26.5 -11t10.5 -27v-1229q0 -33 -17 -47l-221 -215q-27 -27 -55 -27h-318q-29 0 -55 27l-221 215q-17 14 -17 47zM432 1798v60q0 37 35 36q16 0 26.5 -11t10.5 -25v-60 q0 -16 -10.5 -26.5t-26.5 -10.5q-35 0 -35 37zM684 1798v60q0 37 35 36q14 0 25.5 -11t11.5 -25v-60q0 -16 -11.5 -26.5t-25.5 -10.5q-35 0 -35 37z" />
<glyph unicode="&#xdd;" horiz-adv-x="901" d="M0 1520q0 37 35 36q20 0 31 -16l387 -694l383 694q10 16 30 16q35 0 35 -36q0 -10 -4 -19l-408 -741v-733q0 -14 -11 -25.5t-25 -11.5q-35 0 -35 37v733l-414 741q-4 9 -4 19zM285 1798q0 25 18 33l254 127q12 6 21 6q16 0 26 -11t10 -26q0 -23 -20 -33l-254 -127 q-12 -6 -21 -6q-34 0 -34 37z" />
<glyph unicode="&#xe0;" d="M82 289v231q0 33 16 47l221 215q27 27 56 27h188q29 0 55 -27l166 -161v161q0 37 35 37q16 0 26.5 -10t10.5 -27v-755q0 -14 -10 -25.5t-27 -11.5q-35 0 -35 37v161l-166 -161q-27 -27 -55 -27h-188q-29 0 -56 27l-221 215q-16 14 -16 47zM154 287l223 -215h184l223 215 v235l-223 215h-184l-223 -215v-235zM305 1190q0 14 11.5 25.5t25.5 11.5q8 0 20 -6l254 -127q18 -8 19 -33q0 -37 -35 -37q-8 0 -20 6l-254 127q-21 10 -21 33z" />
<glyph unicode="&#xe1;" d="M82 289v231q0 33 16 47l221 215q27 27 56 27h188q29 0 55 -27l166 -161v161q0 37 35 37q16 0 26.5 -10t10.5 -27v-755q0 -14 -10 -25.5t-27 -11.5q-35 0 -35 37v161l-166 -161q-27 -27 -55 -27h-188q-29 0 -56 27l-221 215q-16 14 -16 47zM154 287l223 -215h184l223 215 v235l-223 215h-184l-223 -215v-235zM305 1061q0 25 19 33l254 127q12 6 20 6q16 0 26.5 -11.5t10.5 -25.5q0 -23 -21 -33l-254 -127q-12 -6 -20 -6q-35 0 -35 37z" />
<glyph unicode="&#xe2;" d="M82 289v231q0 33 16 47l221 215q27 27 56 27h188q29 0 55 -27l166 -161v161q0 37 35 37q16 0 26.5 -10t10.5 -27v-755q0 -14 -10 -25.5t-27 -11.5q-35 0 -35 37v161l-166 -161q-27 -27 -55 -27h-188q-29 0 -56 27l-221 215q-16 14 -16 47zM154 287l223 -215h184l223 215 v235l-223 215h-184l-223 -215v-235zM213 1061q0 23 18 33l215 120q12 6 22.5 6.5t23.5 -6.5l215 -120q18 -10 18 -33q0 -37 -35 -37q-8 0 -20 6l-201 113l-201 -113q-12 -6 -20 -6q-35 0 -35 37z" />
<glyph unicode="&#xe4;" d="M82 289v231q0 33 16 47l221 215q27 27 56 27h188q29 0 55 -27l166 -161v161q0 37 35 37q16 0 26.5 -10t10.5 -27v-755q0 -14 -10 -25.5t-27 -11.5q-35 0 -35 37v161l-166 -161q-27 -27 -55 -27h-188q-29 0 -56 27l-221 215q-16 14 -16 47zM154 287l223 -215h184l223 215 v235l-223 215h-184l-223 -215v-235zM307 1061v59q0 37 35 37q14 0 25.5 -11t11.5 -26v-59q0 -16 -11.5 -26.5t-25.5 -10.5q-35 0 -35 37zM559 1061v59q0 37 35 37q16 0 26.5 -11t10.5 -26v-59q0 -16 -10.5 -26.5t-26.5 -10.5q-35 0 -35 37z" />
<glyph unicode="&#xe8;" horiz-adv-x="915" d="M82 289v231q0 33 16 47l221 215q27 27 56 27h188q29 0 55 -27l216 -219q20 -20 20 -43q0 -16 -11.5 -26.5t-25.5 -10.5h-663v-196l223 -215h184l209 200q14 14 27 15q14 0 25.5 -10.5t11.5 -26.5q0 -14 -15 -29l-201 -194q-27 -27 -55 -27h-188q-29 0 -56 27l-221 215 q-16 14 -16 47zM186 555h553l-178 182h-184zM293 1190q0 14 11 25.5t26 11.5q8 0 20 -6l254 -127q18 -8 19 -33q0 -37 -35 -37q-8 0 -21 6l-254 127q-20 10 -20 33z" />
<glyph unicode="&#xe9;" horiz-adv-x="915" d="M82 289v231q0 33 16 47l221 215q27 27 56 27h188q29 0 55 -27l216 -219q20 -20 20 -43q0 -16 -11.5 -26.5t-25.5 -10.5h-663v-196l223 -215h184l209 200q14 14 27 15q14 0 25.5 -10.5t11.5 -26.5q0 -14 -15 -29l-201 -194q-27 -27 -55 -27h-188q-29 0 -56 27l-221 215 q-16 14 -16 47zM186 555h553l-178 182h-184zM293 1061q0 25 18 33l254 127q12 6 21 6q16 0 26.5 -11.5t10.5 -25.5q0 -23 -21 -33l-254 -127q-12 -6 -20 -6q-35 0 -35 37z" />
<glyph unicode="&#xea;" horiz-adv-x="915" d="M82 289v231q0 33 16 47l221 215q27 27 56 27h188q29 0 55 -27l216 -219q20 -20 20 -43q0 -16 -11.5 -26.5t-25.5 -10.5h-663v-196l223 -215h184l209 200q14 14 27 15q14 0 25.5 -10.5t11.5 -26.5q0 -14 -15 -29l-201 -194q-27 -27 -55 -27h-188q-29 0 -56 27l-221 215 q-16 14 -16 47zM186 555h553l-178 182h-184zM201 1061q0 23 18 33l215 120q12 6 22.5 6.5t22.5 -6.5l215 -120q18 -10 19 -33q0 -37 -35 -37q-8 0 -21 6l-200 113l-201 -113q-12 -6 -20 -6q-35 0 -35 37z" />
<glyph unicode="&#xeb;" horiz-adv-x="915" d="M82 289v231q0 33 16 47l221 215q27 27 56 27h188q29 0 55 -27l216 -219q20 -20 20 -43q0 -16 -11.5 -26.5t-25.5 -10.5h-663v-196l223 -215h184l209 200q14 14 27 15q14 0 25.5 -10.5t11.5 -26.5q0 -14 -15 -29l-201 -194q-27 -27 -55 -27h-188q-29 0 -56 27l-221 215 q-16 14 -16 47zM186 555h553l-178 182h-184zM295 1061v59q0 37 35 37q14 0 25.5 -11t11.5 -26v-59q0 -16 -11.5 -26.5t-25.5 -10.5q-35 0 -35 37zM547 1061v59q0 37 35 37q16 0 26 -11t10 -26v-59q0 -16 -10 -26.5t-26 -10.5q-35 0 -35 37z" />
<glyph unicode="&#xec;" horiz-adv-x="317" d="M-6 1190q0 14 11 25.5t26 11.5q8 0 20 -6l254 -127q18 -8 19 -33q0 -37 -35 -37q-8 0 -21 6l-254 127q-20 10 -20 33zM123 27v755q0 37 35 37q14 0 25.5 -10t11.5 -27v-755q0 -14 -11.5 -25.5t-25.5 -11.5q-35 0 -35 37z" />
<glyph unicode="&#xed;" horiz-adv-x="317" d="M-6 1061q0 25 18 33l254 127q12 6 21 6q16 0 26.5 -11.5t10.5 -25.5q0 -23 -21 -33l-254 -127q-12 -6 -20 -6q-35 0 -35 37zM123 27v755q0 37 35 37q14 0 25.5 -10t11.5 -27v-755q0 -14 -11.5 -25.5t-25.5 -11.5q-35 0 -35 37z" />
<glyph unicode="&#xee;" horiz-adv-x="317" d="M-96 1061q0 23 18 33l215 120q12 6 22.5 6.5t22.5 -6.5l215 -120q18 -10 19 -33q0 -37 -35 -37q-8 0 -21 6l-200 113l-201 -113q-12 -6 -20 -6q-35 0 -35 37zM123 27v755q0 37 35 37q14 0 25.5 -10t11.5 -27v-755q0 -14 -11.5 -25.5t-25.5 -11.5q-35 0 -35 37z" />
<glyph unicode="&#xef;" horiz-adv-x="317" d="M-2 1061v59q0 37 35 37q16 0 26.5 -11t10.5 -26v-59q0 -16 -10.5 -26.5t-26.5 -10.5q-35 0 -35 37zM123 27v755q0 37 35 37q14 0 25.5 -10t11.5 -27v-755q0 -14 -11.5 -25.5t-25.5 -11.5q-35 0 -35 37zM250 1061v59q0 37 35 37q14 0 25.5 -11t11.5 -26v-59 q0 -16 -11.5 -26.5t-25.5 -10.5q-35 0 -35 37z" />
<glyph unicode="&#xf2;" horiz-adv-x="937" d="M82 289v231q0 33 16 47l221 215q27 27 56 27h188q29 0 55 -27l222 -215q16 -14 16 -47v-231q0 -33 -16 -47l-222 -215q-27 -27 -55 -27h-188q-29 0 -56 27l-221 215q-16 14 -16 47zM154 287l223 -215h184l223 215v235l-223 215h-184l-223 -215v-235zM303 1190 q0 14 10.5 25.5t26.5 11.5q8 0 20 -6l254 -127q18 -8 19 -33q0 -37 -35 -37q-8 0 -20 6l-254 127q-21 10 -21 33z" />
<glyph unicode="&#xf3;" horiz-adv-x="937" d="M82 289v231q0 33 16 47l221 215q27 27 56 27h188q29 0 55 -27l222 -215q16 -14 16 -47v-231q0 -33 -16 -47l-222 -215q-27 -27 -55 -27h-188q-29 0 -56 27l-221 215q-16 14 -16 47zM154 287l223 -215h184l223 215v235l-223 215h-184l-223 -215v-235zM303 1061q0 25 19 33 l253 127q12 6 21 6q14 0 25.5 -11.5t11.5 -25.5q0 -23 -21 -33l-254 -127q-12 -6 -20 -6q-35 0 -35 37z" />
<glyph unicode="&#xf4;" horiz-adv-x="937" d="M82 289v231q0 33 16 47l221 215q27 27 56 27h188q29 0 55 -27l222 -215q16 -14 16 -47v-231q0 -33 -16 -47l-222 -215q-27 -27 -55 -27h-188q-29 0 -56 27l-221 215q-16 14 -16 47zM154 287l223 -215h184l223 215v235l-223 215h-184l-223 -215v-235zM213 1061q0 23 18 33 l215 120q12 6 22.5 6.5t23.5 -6.5l215 -120q18 -10 18 -33q0 -37 -35 -37q-8 0 -20 6l-201 113l-201 -113q-12 -6 -20 -6q-35 0 -35 37z" />
<glyph unicode="&#xf6;" horiz-adv-x="937" d="M82 289v231q0 33 16 47l221 215q27 27 56 27h188q29 0 55 -27l222 -215q16 -14 16 -47v-231q0 -33 -16 -47l-222 -215q-27 -27 -55 -27h-188q-29 0 -56 27l-221 215q-16 14 -16 47zM154 287l223 -215h184l223 215v235l-223 215h-184l-223 -215v-235zM307 1061v59 q0 37 35 37q14 0 25.5 -11t11.5 -26v-59q0 -16 -11.5 -26.5t-25.5 -10.5q-35 0 -35 37zM559 1061v59q0 37 35 37q16 0 26.5 -11t10.5 -26v-59q0 -16 -10.5 -26.5t-26.5 -10.5q-35 0 -35 37z" />
<glyph unicode="&#xf9;" d="M102 289v493q0 37 35 37q14 0 25.5 -10t11.5 -27v-495l223 -215h185l223 215v495q0 37 35 37q16 0 26.5 -11t10.5 -28v-491q0 -33 -17 -47l-221 -215q-27 -27 -55 -27h-189q-29 0 -55 27l-221 215q-17 14 -17 47zM324 1190q0 14 10 25.5t26 11.5q8 0 21 -6l254 -127 q18 -8 18 -33q0 -37 -35 -37q-8 0 -20 6l-254 127q-20 10 -20 33z" />
<glyph unicode="&#xfa;" d="M102 289v493q0 37 35 37q14 0 25.5 -10t11.5 -27v-495l223 -215h185l223 215v495q0 37 35 37q16 0 26.5 -11t10.5 -28v-491q0 -33 -17 -47l-221 -215q-27 -27 -55 -27h-189q-29 0 -55 27l-221 215q-17 14 -17 47zM324 1061q0 25 18 33l254 127q12 6 20 6q14 0 25.5 -11.5 t11.5 -25.5q0 -23 -20 -33l-254 -127q-12 -6 -21 -6q-34 0 -34 37z" />
<glyph unicode="&#xfb;" d="M102 289v493q0 37 35 37q14 0 25.5 -10t11.5 -27v-495l223 -215h185l223 215v495q0 37 35 37q16 0 26.5 -11t10.5 -28v-491q0 -33 -17 -47l-221 -215q-27 -27 -55 -27h-189q-29 0 -55 27l-221 215q-17 14 -17 47zM233 1061q0 23 19 33l215 120q12 6 22.5 6.5t22.5 -6.5 l215 -120q18 -10 18 -33q0 -37 -34 -37q-8 0 -21 6l-201 113l-200 -113q-12 -6 -21 -6q-35 0 -35 37z" />
<glyph unicode="&#xfc;" d="M102 289v493q0 37 35 37q14 0 25.5 -10t11.5 -27v-495l223 -215h185l223 215v495q0 37 35 37q16 0 26.5 -11t10.5 -28v-491q0 -33 -17 -47l-221 -215q-27 -27 -55 -27h-189q-29 0 -55 27l-221 215q-17 14 -17 47zM328 1061v59q0 37 34 37q14 0 25.5 -11t11.5 -26v-59 q0 -16 -11 -26.5t-26 -10.5q-34 0 -34 37zM580 1061v59q0 37 34 37q16 0 26.5 -11t10.5 -26v-59q0 -16 -10 -26.5t-27 -10.5q-34 0 -34 37z" />
<glyph unicode="&#xfd;" horiz-adv-x="823" d="M0 782q0 37 35 37q23 0 33 -20l346 -723l342 725q10 18 30 18q16 0 26.5 -10t10.5 -27q0 -10 -4 -18l-600 -1266q-8 -20 -33 -20q-35 0 -34 37q0 10 6 22l215 455l-369 772q-4 8 -4 18zM246 1061q0 25 18 33l254 127q12 6 21 6q14 0 25 -11.5t11 -25.5q0 -23 -20 -33 l-254 -127q-12 -6 -20 -6q-35 0 -35 37z" />
<glyph unicode="&#xff;" horiz-adv-x="823" d="M0 782q0 37 35 37q23 0 33 -20l346 -723l342 725q10 18 30 18q16 0 26.5 -10t10.5 -27q0 -10 -4 -18l-600 -1266q-8 -20 -33 -20q-35 0 -34 37q0 10 6 22l215 455l-369 772q-4 8 -4 18zM250 1061v59q0 37 35 37q14 0 25.5 -11t11.5 -26v-59q0 -16 -11.5 -26.5 t-25.5 -10.5q-35 0 -35 37zM502 1061v59q0 37 35 37q16 0 26 -11t10 -26v-59q0 -16 -10 -26.5t-26 -10.5q-35 0 -35 37z" />
<glyph unicode="&#x152;" horiz-adv-x="2322" d="M1292 37v1472q0 37 35 37h836q37 0 37 -35q0 -16 -11.5 -26t-25.5 -10h-799v-666h782q37 0 37 -35q0 -16 -11 -26.5t-26 -10.5h-782v-665h799q14 0 25.5 -11.5t11.5 -25.5q0 -35 -37 -35h-836q-35 0 -35 37zM123 289v968q0 33 16 48l221 215q27 27 56 26h317q29 0 55 -26 l222 -215q16 -14 16 -48v-968q0 -33 -16 -47l-222 -215q-27 -27 -55 -27h-317q-29 0 -56 27l-221 215q-16 14 -16 47zM195 287l223 -215h313l223 215v973l-223 215h-313l-223 -215v-973z" />
<glyph unicode="&#x153;" horiz-adv-x="1853" d="M1020 289v231q0 33 16 47l221 215q27 27 56 27h188q29 0 55 -27l216 -219q20 -20 20 -43q0 -16 -11.5 -26.5t-25.5 -10.5h-663v-196l223 -215h184l209 200q14 14 27 15q14 0 25.5 -10.5t11.5 -26.5q0 -14 -15 -29l-201 -194q-27 -27 -55 -27h-188q-29 0 -56 27l-221 215 q-16 14 -16 47zM1124 555h553l-178 182h-184zM82 289v231q0 33 16 47l221 215q27 27 56 27h188q29 0 55 -27l222 -215q16 -14 16 -47v-231q0 -33 -16 -47l-222 -215q-27 -27 -55 -27h-188q-29 0 -56 27l-221 215q-16 14 -16 47zM154 287l223 -215h184l223 215v235l-223 215 h-184l-223 -215v-235z" />
<glyph unicode="&#x178;" horiz-adv-x="901" d="M0 1520q0 37 35 36q20 0 31 -16l387 -694l383 694q10 16 30 16q35 0 35 -36q0 -10 -4 -19l-408 -741v-733q0 -14 -11 -25.5t-25 -11.5q-35 0 -35 37v733l-414 741q-4 9 -4 19zM289 1798v60q0 37 35 36q16 0 26 -11t10 -25v-60q0 -16 -10 -26.5t-26 -10.5q-35 0 -35 37z M541 1798v60q0 37 34 36q14 0 25.5 -11t11.5 -25v-60q0 -16 -11 -26.5t-26 -10.5q-34 0 -34 37z" />
<glyph unicode="&#x2c6;" horiz-adv-x="675" d="M82 1061q0 23 18 33l215 120q12 6 22.5 6.5t22.5 -6.5l215 -120q18 -10 19 -33q0 -37 -35 -37q-8 0 -20 6l-201 113l-201 -113q-12 -6 -20 -6q-35 0 -35 37z" />
<glyph unicode="&#x2013;" horiz-adv-x="724" d="M82 451q0 16 10 26t27 10h487q16 0 26.5 -10t10.5 -26q0 -35 -37 -35h-487q-37 0 -37 35z" />
<glyph unicode="&#x2014;" horiz-adv-x="937" d="M82 451q0 16 10 26t27 10h700q16 0 26.5 -10t10.5 -26q0 -35 -37 -35h-700q-37 0 -37 35z" />
<glyph unicode="&#x2018;" horiz-adv-x="344" d="M82 1339v119q0 33 16 47l105 103q10 10 24 10q35 0 35 -37q0 -16 -10 -27l-98 -94v-121q0 -16 -11.5 -26t-25.5 -10q-35 -1 -35 36z" />
<glyph unicode="&#x2019;" horiz-adv-x="344" d="M82 1339q0 16 10 27l98 94v121q0 16 11.5 26.5t25.5 10.5q35 0 35 -37v-119q0 -33 -16 -47l-105 -102q-10 -10 -24 -10q-35 -1 -35 36z" />
<glyph unicode="&#x201a;" horiz-adv-x="344" d="M82 -121q0 16 10 27l98 94v121q0 14 11.5 25.5t25.5 11.5q35 0 35 -37v-119q0 -33 -16 -47l-105 -102q-10 -10 -24 -11q-35 0 -35 37z" />
<glyph unicode="&#x201c;" horiz-adv-x="526" d="M82 1339v119q0 33 16 47l105 103q10 10 24 10q35 0 35 -37q0 -16 -10 -27l-98 -94v-121q0 -16 -11.5 -26t-25.5 -10q-35 -1 -35 36zM264 1339v119q0 33 17 47l104 103q10 10 25 10q35 0 34 -37q0 -16 -10 -27l-98 -94v-121q0 -16 -10.5 -26t-26.5 -10q-35 -1 -35 36z" />
<glyph unicode="&#x201d;" horiz-adv-x="526" d="M82 1339q0 16 10 27l98 94v121q0 16 11.5 26.5t25.5 10.5q35 0 35 -37v-119q0 -33 -16 -47l-105 -102q-10 -10 -24 -10q-35 -1 -35 36zM264 1339q0 16 10 27l99 94v121q0 16 10 26.5t27 10.5q35 0 34 -37v-119q0 -33 -16 -47l-104 -102q-10 -10 -25 -10q-35 -1 -35 36z " />
<glyph unicode="&#x201e;" horiz-adv-x="526" d="M82 -121q0 16 10 27l98 94v121q0 14 11.5 25.5t25.5 11.5q35 0 35 -37v-119q0 -33 -16 -47l-105 -102q-10 -10 -24 -11q-35 0 -35 37zM264 -121q0 16 10 27l99 94v121q0 14 10 25.5t27 11.5q35 0 34 -37v-119q0 -33 -16 -47l-104 -102q-10 -10 -25 -11q-35 0 -35 37z" />
<glyph unicode="&#x2026;" horiz-adv-x="911" d="M123 27v59q0 37 35 37q14 0 25.5 -10.5t11.5 -26.5v-59q0 -14 -11.5 -25.5t-25.5 -11.5q-35 0 -35 37zM420 27v59q0 37 35 37q16 0 26.5 -10.5t10.5 -26.5v-59q0 -14 -10.5 -25.5t-26.5 -11.5q-35 0 -35 37zM717 27v59q0 37 35 37q14 0 25 -10.5t11 -26.5v-59 q0 -14 -11 -25.5t-25 -11.5q-35 0 -35 37z" />
<glyph unicode="&#x2039;" horiz-adv-x="442" d="M123 487.5q0 10.5 6 22.5l121 215q10 18 33 18q37 0 36 -34q0 -8 -6 -21l-112 -201l112 -200q6 -12 6 -21q0 -35 -36 -35q-23 0 -33 19l-121 215q-6 12 -6 22.5z" />
<glyph unicode="&#x203a;" horiz-adv-x="442" d="M123 266q0 8 6 21l113 200l-113 201q-6 12 -6 21q0 35 37 34q23 0 33 -18l120 -215q6 -12 6 -22.5t-6 -22.5l-120 -215q-10 -18 -33 -19q-37 0 -37 35z" />
<glyph unicode="&#x2122;" horiz-adv-x="2574" d="M1134 27v1493q0 37 35 36q18 0 27 -12l586 -717l585 717q10 12 27 12q14 0 25.5 -10t11.5 -26v-1493q0 -14 -11.5 -25.5t-25.5 -11.5q-35 0 -35 37v1394l-549 -671q-12 -12 -28.5 -12.5t-26.5 12.5l-549 671v-1394q0 -14 -11 -25.5t-26 -11.5q-35 0 -35 37zM41 1509 q0 14 10 25.5t27 11.5h835q16 0 26.5 -11t10.5 -26q0 -35 -37 -34h-385v-1448q0 -14 -10 -25.5t-26 -11.5q-35 0 -35 37v1448h-379q-37 -1 -37 34z" />
<glyph unicode="&#xe000;" horiz-adv-x="820" d="M0 820h820v-820h-820v820z" />
<glyph unicode="&#xfb01;" horiz-adv-x="827" d="M633 27v755q0 37 35 37q14 0 25.5 -10t11.5 -27v-755q0 -14 -11.5 -25.5t-25.5 -11.5q-35 0 -35 37zM633 1061v90q0 37 35 37q14 0 25.5 -10.5t11.5 -26.5v-90q0 -16 -11.5 -26.5t-25.5 -10.5q-35 0 -35 37zM143 27v1230q0 33 17 48l246 237q14 14 26 14q14 0 25.5 -10 t11.5 -26q0 -14 -14 -29l-240 -231v-451h217q37 0 37 -35q0 -16 -11.5 -26.5t-25.5 -10.5h-217v-710q0 -14 -11 -25.5t-26 -11.5q-35 0 -35 37z" />
<glyph unicode="&#xfb02;" horiz-adv-x="868" d="M653 27v1493q0 37 35 36q14 0 25.5 -10t11.5 -26v-1493q0 -14 -11 -25.5t-26 -11.5q-35 0 -35 37zM143 27v1230q0 33 17 48l246 237q14 14 26 14q14 0 25.5 -10t11.5 -26q0 -14 -14 -29l-240 -231v-451h217q37 0 37 -35q0 -16 -11.5 -26.5t-25.5 -10.5h-217v-710 q0 -14 -11 -25.5t-26 -11.5q-35 0 -35 37z" />
<glyph unicode="&#xfb03;" horiz-adv-x="1337" d="M1143 27v755q0 37 35 37q14 0 25.5 -10t11.5 -27v-755q0 -14 -11.5 -25.5t-25.5 -11.5q-35 0 -35 37zM1143 1061v90q0 37 35 37q14 0 25.5 -10.5t11.5 -26.5v-90q0 -16 -11.5 -26.5t-25.5 -10.5q-35 0 -35 37zM653 27v1230q0 33 17 48l246 237q14 14 26 14q14 0 25.5 -10 t11.5 -26q0 -14 -14 -29l-240 -231v-451h217q37 0 37 -35q0 -16 -11.5 -26.5t-25.5 -10.5h-217v-710q0 -14 -11 -25.5t-26 -11.5q-35 0 -35 37zM143 27v1230q0 33 17 48l246 237q14 14 26 14q14 0 25.5 -10t11.5 -26q0 -14 -14 -29l-240 -231v-451h217q37 0 37 -35 q0 -16 -11.5 -26.5t-25.5 -10.5h-217v-710q0 -14 -11 -25.5t-26 -11.5q-35 0 -35 37z" />
<glyph unicode="&#xfb04;" horiz-adv-x="1378" d="M1163 27v1493q0 37 35 36q14 0 25.5 -10t11.5 -26v-1493q0 -14 -11 -25.5t-26 -11.5q-35 0 -35 37zM653 27v1230q0 33 17 48l246 237q14 14 26 14q14 0 25.5 -10t11.5 -26q0 -14 -14 -29l-240 -231v-451h217q37 0 37 -35q0 -16 -11.5 -26.5t-25.5 -10.5h-217v-710 q0 -14 -11 -25.5t-26 -11.5q-35 0 -35 37zM143 27v1230q0 33 17 48l246 237q14 14 26 14q14 0 25.5 -10t11.5 -26q0 -14 -14 -29l-240 -231v-451h217q37 0 37 -35q0 -16 -11.5 -26.5t-25.5 -10.5h-217v-710q0 -14 -11 -25.5t-26 -11.5q-35 0 -35 37z" />
</font>
</defs>
</svg>
